/* XPM */
static char *xpm_[] = {
/* columns rows colors chars-per-pixel */
"80 80 162 2 ",
"   c #000000",
".  c #000000",
"X  c #010101",
"o  c #030303",
"O  c #000000",
"+  c #000000",
"@  c #020202",
"#  c #000000",
"$  c #000000",
"%  c #000000",
"&  c #020202",
"*  c #050505",
"=  c #090909",
"-  c #0C0C0C",
";  c #000000",
":  c #000000",
">  c #030303",
",  c #000000",
"<  c #000000",
"1  c #1B1B1B",
"2  c #000000",
"3  c #000000",
"4  c #000000",
"5  c #000000",
"6  c #000000",
"7  c #000000",
"8  c #030303",
"9  c #000000",
"0  c #242424",
"q  c #2D2D2D",
"w  c #343434",
"e  c #3B3B3B",
"r  c #000000",
"t  c #000000",
"y  c #000000",
"u  c #000000",
"i  c #000000",
"p  c #000000",
"a  c #000000",
"s  c #000000",
"d  c #000000",
"f  c #000000",
"g  c #000000",
"h  c #000000",
"j  c #000000",
"k  c #000000",
"l  c #000000",
"z  c #484848",
"x  c #585858",
"c  c #767676",
"v  c #696969",
"b  c #000000",
"n  c #000000",
"m  c #000000",
"M  c #000000",
"N  c #000000",
"B  c #000000",
"V  c #000000",
"C  c #000000",
"Z  c #000000",
"A  c #000000",
"S  c #000000",
"D  c #000000",
"F  c #000000",
"G  c #000000",
"H  c #000000",
"J  c #000000",
"K  c #000000",
"L  c #000000",
"P  c #000000",
"I  c #000000",
"U  c #000000",
"Y  c #000000",
"T  c #000000",
"R  c #000000",
"E  c #000000",
"W  c #000000",
"Q  c #000000",
"!  c #828282",
"~  c #8E8E8E",
"^  c #929292",
"/  c #A5A5A5",
"(  c #BDBDBD",
")  c #B3B3B3",
"_  c #CCCCCC",
"`  c #C7C7C7",
"'  c #DCDCDC",
"]  c #D4D4D4",
"[  c #E1E1E1",
"{  c #E8E8E8",
"}  c #E8E8E8",
"|  c #F2F2F2",
" . c #FFFFFF",
".. c #FEFEFE",
"X. c #F9F9F9",
"o. c #000000",
"O. c #000000",
"+. c #000000",
"@. c #000000",
"#. c #000000",
"$. c #000000",
"%. c #000000",
"&. c #000000",
"*. c #000000",
"=. c #000000",
"-. c #000000",
";. c #000000",
":. c #000000",
">. c #000000",
",. c #0B0B0B",
"<. c #000000",
"1. c #000000",
"2. c #000000",
"3. c #000000",
"4. c #000000",
"5. c #000000",
"6. c #000000",
"7. c #000000",
"8. c #000000",
"9. c #000000",
"0. c #000000",
"q. c #000000",
"w. c #010101",
"e. c #000000",
"r. c #000000",
"t. c #000000",
"y. c #000000",
"u. c #000000",
"i. c #000000",
"p. c #000000",
"a. c #000000",
"s. c #000000",
"d. c #000000",
"f. c #000000",
"g. c #000000",
"h. c #000000",
"j. c #000000",
"k. c #000000",
"l. c #000000",
"z. c #000000",
"x. c #000000",
"c. c #000000",
"v. c #000000",
"b. c #000000",
"n. c #000000",
"m. c #000000",
"M. c #000000",
"N. c #000000",
"B. c #000000",
"V. c #000000",
"C. c #000000",
"Z. c #000000",
"A. c #000000",
"S. c #000000",
"D. c #000000",
"F. c #000000",
"G. c #000000",
"H. c #000000",
"J. c #000000",
"K. c #000000",
"L. c #000000",
"P. c None",
/* pixels */
"P.P.P.P.P.P.P.P.P.P.P.P.P.P.P.P.P.P.P.P.P.P.P.P.P.P.P.P.P.P.P.P.P.P.P.P.P.P.P.P.P.P.P.P.P.P.P.P.P.P.P.P.P.P.P.P.P.P.P.P.P.P.P.P.P.P.P.P.P.P.P.P.P.P.P.P.P.P.P.P.",
"P.P.P.P.P.P.P.P.P.P.P.P.P.P.P.P.P.P.P.P.P.P.P.P.P.P.P.P.P.P.P.P.P.P.P.P.P.P.P.P.P.P.P.P.P.P.P.P.P.P.P.P.P.P.P.P.P.P.P.P.P.P.P.P.P.P.P.P.P.P.P.P.P.P.P.P.P.P.P.P.",
"P.P.P.P.P.P.P.P.P.P.P.P.P.P.P.P.P.P.P.P.P.P.P.P.P.P.P.P.P.P.P.P.P.P.P.P.P.P.P.P.P.P.P.P.P.P.P.P.P.P.P.P.P.P.P.P.P.P.P.P.P.P.P.P.P.P.P.P.P.P.P.P.P.P.P.P.P.P.P.P.",
"P.P.P.P.P.P.P.P.P.P.P.P.P.P.P.P.P.P.P.P.P.P.P.P.P.P.P.P.P.P.P.P.P.P.P.P.P.P.P.P.P.P.P.P.P.P.P.P.P.P.P.P.P.P.P.P.P.P.P.P.P.P.P.P.P.P.P.P.P.P.P.P.P.P.P.P.P.P.P.P.",
"P.P.P.P.P.P.P.P.P.P.P.P.P.P.P.P.P.P.P.P.P.P.P.P.P.P.P.P.P.P.P.H.P.P.d &.P.H.P.P.P.P.P.P.P.P.P.P.P.P.P.P.P.P.P.P.P.P.P.P.P.P.P.P.P.P.P.P.P.P.P.P.P.P.P.P.P.P.P.P.",
"P.P.P.P.P.P.P.P.P.P.P.P.P.P.P.P.P.P.P.P.P.P.P.P.P.P.P.P.P.P.H.P.P.b     1.P.H.P.P.P.P.P.P.P.P.P.P.P.P.P.P.P.P.P.P.P.P.P.P.P.P.P.P.P.P.P.P.P.P.P.P.P.P.P.P.P.P.P.",
"P.P.P.P.P.P.P.P.P.P.P.P.P.P.P.P.P.P.P.P.P.P.P.P.P.P.P.P.P.H.P.P.l   ;     >.P.H.P.P.P.P.P.P.P.P.P.P.P.P.P.P.P.P.P.P.P.P.P.P.P.P.P.P.P.P.P.P.P.P.P.P.P.P.P.P.P.P.",
"P.P.P.P.P.P.P.P.P.P.P.P.P.P.P.P.P.P.P.P.P.P.P.P.P.P.P.P.H.P.P.b   $         1.P.H.P.P.P.P.P.P.P.P.P.P.P.P.P.P.P.P.P.P.P.P.P.P.P.P.P.P.P.P.P.P.P.P.P.P.P.P.P.P.P.",
"P.P.P.P.P.P.P.P.P.P.P.P.P.P.P.P.P.P.P.P.P.P.P.P.P.P.P.P.P.P.b   $         $   >.P.H.P.P.P.P.P.P.P.P.P.P.P.P.P.P.P.P.P.P.P.P.P.P.P.P.P.P.P.P.P.P.P.P.P.P.P.P.P.P.",
"P.P.P.P.P.P.P.P.P.P.P.P.P.P.P.P.P.P.P.P.P.P.P.P.P.P.H.P.P.m   $               6.P.P.P.P.P.P.P.P.P.P.P.P.P.P.P.P.P.P.P.P.P.P.P.P.P.P.P.P.P.P.P.P.P.P.P.P.P.P.P.P.",
"P.P.P.P.P.P.P.P.P.P.P.P.P.P.P.P.P.P.P.P.P.P.P.P.P.H.P.P.m   $               r.P.H.P.P.P.P.P.P.P.P.P.P.P.P.P.P.P.P.P.P.P.P.P.P.P.P.P.P.P.P.P.P.P.P.P.P.P.P.P.P.P.",
"P.P.P.P.P.P.P.P.P.P.P.P.P.P.P.P.P.P.P.P.P.P.P.P.P.P.P.m   $         $     9.P.H.P.P.P.P.P.P.P.P.P.P.P.P.P.P.P.P.P.P.P.P.P.P.P.P.P.P.P.P.P.P.P.P.P.P.P.P.P.P.P.P.",
"P.P.P.P.P.P.P.P.P.P.P.P.P.P.P.P.P.P.P.P.P.P.P.P.P.P.m   $               9.P.H.P.P.H.P.P.P.P.P.P.P.P.P.P.P.P.P.P.P.P.P.P.P.P.P.P.P.P.P.P.P.P.P.P.P.P.P.P.P.P.P.P.",
"P.P.P.P.P.P.P.P.P.P.P.P.P.P.P.P.P.P.P.P.P.P.H.P.P.N   $         $     8.P.H.H.P.P.P.P.P.P.H.H.P.P.P.P.P.P.P.P.P.P.P.P.P.P.P.P.P.P.P.P.P.P.P.P.P.P.P.P.P.P.P.P.P.",
"P.P.P.P.P.P.P.P.P.P.P.P.P.P.P.P.P.P.P.P.P.H.P.P.B   $               9.P.A.P.P.P.z.s.s.z.A.P.P.P.P.P.P.P.P.P.P.P.P.P.P.P.P.P.P.P.P.P.P.P.P.P.P.P.P.P.P.P.P.P.P.P.",
"P.P.P.P.P.P.P.P.P.P.P.P.P.P.P.P.P.P.P.P.P.P.P.B   $         $     8.P.H.P.c.E p $       9 H p.P.P.P.P.P.P.P.P.P.P.P.P.P.P.P.P.P.P.P.P.P.P.P.P.P.P.P.P.P.P.P.P.P.",
"P.P.P.P.P.P.P.P.P.P.P.P.P.P.P.P.P.P.P.H.P.P.B   $         $     8.P.H.P.%.;         $         H A.P.P.P.P.P.P.P.P.P.P.P.P.P.P.P.P.P.P.P.P.P.P.P.P.P.P.P.P.P.P.P.",
"P.P.P.P.P.P.P.P.P.P.P.P.P.P.P.P.P.P.P.P.P.B   $               6.P.H.P.H     $             $     y n.P.H.P.P.P.P.P.P.P.P.P.P.P.P.P.P.P.P.P.P.P.P.P.P.P.P.P.P.P.P.",
"P.P.P.P.P.P.P.P.P.P.P.P.P.P.P.P.P.H.P.P.Z   $               6.P.H.P.G   $                     $   y A.P.P.P.P.P.P.P.P.P.P.P.P.P.P.P.P.P.P.P.P.P.P.P.P.P.P.P.P.P.",
"P.P.P.P.P.P.P.P.P.P.P.P.P.P.P.P.H.P.P.Z   $               6.P.H.P.H   $                         ;   H P.H.P.P.P.P.P.P.P.P.P.P.P.P.P.P.P.P.P.P.P.P.P.P.P.P.P.P.P.",
"P.P.P.P.P.P.P.P.P.P.P.P.P.P.P.P.P.P.A   $         $     4.P.A.P.O.  ;           $     $               p.P.P.P.P.P.P.P.P.P.P.P.P.P.P.P.P.P.P.P.P.P.P.P.P.P.P.P.P.",
"P.P.P.P.P.P.P.P.P.P.P.P.P.P.P.P.P.A   $               4.P.A.P.P.m.h   $       $                   $   K P.H.P.P.P.P.P.P.P.P.P.P.P.P.P.P.P.P.P.P.P.P.P.P.P.P.P.P.",
"P.P.P.P.P.P.P.P.P.P.P.P.P.H.P.P.A   $               2.P.H.P.P.P.P.A.s   $   $   l u.z.T               y P.P.P.P.P.P.P.P.P.P.P.P.P.P.P.P.P.P.P.P.P.P.P.P.P.P.P.P.",
"P.P.P.P.P.P.P.P.P.P.P.P.P.P.P.A   $               2.P.H.P.P.P.P.H.P.C.s   ;   B P.P.P.P.U   $         < c.P.P.P.P.P.P.P.P.P.P.P.P.P.P.P.P.P.P.P.P.P.P.P.P.P.P.P.",
"P.P.P.P.P.P.P.P.P.P.P.P.P.P.D   $               2.P.H.P.P.P.P.P.P.H.P.C.s   B P.P.H.H.P.s.              h.P.H.P.P.H.P.P.P.P.P.P.P.P.P.P.P.P.P.P.P.P.P.P.P.P.P.P.",
"P.P.P.P.P.P.P.P.P.P.H.P.P.G   $               2.P.H.P.P.P.P.P.P.P.P.H.P.n.U P.P.H.P.H.P.9.            ; z.P.P.P.P.P.P.P.P.P.P.P.P.P.P.P.P.P.P.P.P.P.P.P.P.P.P.P.",
"P.P.P.P.P.P.P.P.P.P.P.P.G   $               1.P.H.P.P.P.P.P.P.P.P.P.P.H.P.P.P.H.P.H.P.A.p   $         6 A.P.H.P.z.p.P.H.P.P.P.P.P.P.P.P.P.P.P.P.P.P.P.P.P.P.P.P.",
"P.P.P.P.P.P.P.P.P.P.P.G   $               >.P.H.P.P.P.P.P.P.P.P.P.P.P.P.P.H.P.P.H.P.H.d           $   B P.H.P.P.Z   u.P.H.P.P.P.P.P.P.P.P.P.P.P.P.P.P.P.P.P.P.P.",
"P.P.P.P.P.P.P.H.P.P.G   $         $     >.P.H.P.P.P.P.P.P.P.P.P.H.P.P.P.P.P.P.H.P.H.d   $         $   6.P.H.H.P.g.    u.P.H.P.P.P.P.P.P.P.P.P.P.P.P.P.P.P.P.P.P.",
"P.P.P.P.P.P.P.P.P.G   $               >.P.H.P.P.P.P.P.P.P.P.P.H.P.z.l.P.H.P.A.P.H.h   $         $   k P.P.H.P.P.B       t.P.H.P.P.P.P.P.P.P.P.P.P.P.P.P.P.P.P.P.",
"P.P.P.P.P.P.P.P.A   $               >.P.H.P.P.P.P.P.P.P.P.P.H.P.m.9 2 l.P.P.P.A.h   $         $     h.P.H.P.P.N   m p.N h.c.P.H.P.P.P.P.P.P.P.P.P.P.P.P.P.P.P.P.",
"P.P.P.P.P.P.P.G   $               >.P.A.P.P.P.P.P.P.P.P.P.H.P.m.r     ; 2.H.s.p   $               2.P.H.P.P.N   k H.P.P.E   t.P.H.P.P.P.P.P.P.P.P.P.P.P.P.P.P.P.",
"P.P.P.P.P.P.K   $               >.P.H.P.P.P.P.P.P.P.P.P.P.P.N.r   $ $     6     $               #.P.H.P.P.B   k A.P.P.U   4 h.P.P.P.P.P.P.P.P.P.P.P.P.P.P.P.P.P.",
"P.P.P.P.P.K   $               =.P.H.P.>.C.P.H.P.P.P.P.P.P.z.y   $                         $   Q P.H.P.P.B   k A.P.P.T   r n.P.A 8.P.P.P.P.P.P.P.P.P.P.P.P.P.P.P.",
"P.P.P.P.P   $         $     =.P.A.P.T   B P.P.P.P.P.P.P.P.6.              $                 W P.H.P.A.P.%.h A.P.P.T     4.P.B   b P.P.P.P.P.P.P.P.P.P.P.P.P.P.P.",
"P.P.P.D   $               =.P.H.P.U   ;   B P.P.H.P.P.P.H.P.>.                      $     o.P.H.P.P.b p H.P.P.P.E   r 6 4 m   h C.P.H.P.H.P.P.P.P.P.P.P.P.P.P.P.",
"P.P.P.Q             $   &.P.H.P.E   $   $   Z P.P.P.P.P.P.H.P.H   $           $ $       &.P.H.P.P.B   k N.P.P.T   6 m.z.    d A.P.H.P.N.P.H.P.P.P.P.P.P.P.P.P.P.",
"P.P.P.P.=.            &.P.A.P.=.          $   A H.P.P.P.P.P.P.g.                    s t.P.H.P.C.Z     P P.H.P.O.4 n.P.D   d C.P.A.P.>.; s.P.H.P.P.P.P.P.P.P.P.P.",
"P.P.P.H.P.%.    $   &.P.H.P.z.$             ;   Q P.H.P.P.A.P.r.          $ 2.2.&.e.P.P.H.H.P.r.  p ;   H P.P.P.A.P.A   p C.P.A.P.>.    ; s.P.H.P.P.P.P.P.P.P.P.",
"P.P.P.P.P.P.%.    %.P.H.H.P.H   $         $   l C.P.P.P.H.P.H.p   $         g.P.P.P.P.H.P.P.H r.2.n.9.    P P.H.P.9.  s C.P.A.P.>.    $   ; s.P.H.P.P.P.P.P.P.P.",
"P.P.P.P.P.H.P.O.o.P.H.H.P.m.<               k H.P.P.P.H.P.P.l   $           t.P.A.H.P.P.P.G   l P.P.P.6.    P P.P.P.2.c.P.A.P.>.    $       < g.P.H.P.P.P.P.P.P.",
"P.P.P.P.P.P.P.P.P.P.P.P.P.r.          $   s H.P.H.P.H.P.P.l   $             z.P.P.P.H.A.D   l N.P.P.P.P.6.    T P.P.P.P.H.P.>.      *   o o o o s.P.H.P.P.P.P.P.",
"P.P.P.P.P.P.P.H.H.P.P.H.P.&.  $       $   r.P.H.P.H.P.P.b   $         $   b P.P.P.P.P.s.    T P.>.m C.H.P.6.    O.P.H.H.P.1.            $   $   o h.P.H.P.P.P.P.",
"P.P.P.P.P.P.P.P.P.P.P.H.P.O.  $         $ c.P.H.H.P.P.b   $               p.P.H.P.P.P p.8.    Z     p.P.P.P.2.s z.P.A.P.>.* v e   x x   x c c w   ; s.P.H.P.P.P.",
"P.P.P.P.P.P.P.P.P.P.P.H.P.1.          $   1.P.P.P.P.b   $               &.P.H.P.P.H   l P.>.      t.P.A.n.P.P.P.P.P.P.<.  = ..!   ( {   [ ..[ ..c * o h.P.P.P.P.",
"P.P.P.P.P.P.P.P.P.P.P.P.P.h.              ; 4.N.p.h   $           $   E P.P.P.H.K   k n.P.P.2.    #.P.G   s.P.P.H.P.>.    = | / w _ _   [ /   ~ ..1   4 u.P.P.P.",
"P.P.P.P.P.P.P.P.P.P.P.P.P.P.s           $     <     $           $   P P.P.A.P.e.    E P.>.B P.1.    d   r z.P.H.P.m.    $ - } ..X...`   [ /   e ..e ; * y P.P.P.",
"P.P.P.P.P.P.P.P.P.P.P.P.H.P.>.  $                             $   D P.P.H.P.A.P.1.    D $   u.P.>.    y m.P.H.P.P.P.r.    = X.~   ( ]   [ ) = _ X.-   r z.P.P.P.",
"P.P.P.P.P.P.P.P.P.P.P.P.P.P.P.p   $                         $   H P.P.P.P.o.6 m A.>.      e.P.A.P.>.r m.P.H.P.P.P.H.P.w.* = ..!   ) '   ] ....| z   9 n.P.P.P.P.",
"P.P.P.P.P.P.P.P.P.P.P.P.P.P.P.h.$   $                   $     U P.P.P.P.K       6 H.=.    %.P.K $ c.P.P.P.P.P.P.P.P.H.P.r.  q 1   0 0   0 w q =   9 n.P.H.P.P.P.",
"P.P.P.P.P.P.P.P.P.P.P.P.P.P.H.P.e.    $               $     o.P.P.H.P.H   Z g.l   E P.%.    k   4 l.P.H.P.P.P.P.P.P.P.H.P.r.                $   8 c.P.H.P.P.P.P.",
"P.P.P.P.P.P.P.P.P.P.P.P.P.P.P.H.P.g.y       $ $ $       ; 6.P.H.P.P.n.<   B P.l.  9 W P.>.    9 m.P.H.P.P.P.P.P.P.P.P.P.A.P.r.      *     o   9 n.P.H.P.P.P.P.P.",
"P.P.P.P.P.P.P.P.P.P.P.P.P.P.P.P.H.P.P.#.y           6 P n.P.H.P.P.H B s.2   B Z       d P.&.6 n.P.H.P.P.P.P.P.P.P.P.P.P.P.H.P.9.        $   6 c.P.H.P.P.P.P.P.P.",
"P.P.P.P.P.P.P.P.P.P.P.P.P.P.P.P.P.H.P.P.P.s.2.>.4.p.A.P.P.H.P.P.U   r H.h.;     T u.9   2 e.P.P.H.P.P.P.P.P.P.P.P.P.P.P.P.P.H.P.r.    ;   6 n.P.H.P.P.P.P.P.P.P.",
"P.P.P.P.P.P.P.P.P.P.P.P.P.P.P.P.P.P.P.H.P.P.P.P.P.P.P.H.P.H.P.U     T P.P.s.<   Z P.m.r < g.P.H.P.P.P.P.P.P.P.P.P.P.P.P.P.P.P.H.P.9.    6 c.P.A.P.P.P.P.P.P.P.P.",
"P.P.P.P.P.P.P.P.P.P.P.P.P.P.P.P.P.P.P.P.P.H.H.H.P.H.P.P.H.P.t.  4 $   W P.P.s.;   m P.C.n.P.H.P.P.P.P.P.P.P.P.P.P.P.P.P.P.P.P.P.H.P.8.y c.P.H.P.P.P.P.P.P.P.P.P.",
"P.P.P.P.P.P.P.P.P.P.P.P.P.P.P.P.P.P.P.P.P.P.P.P.P.P.P.P.P.4.4.#.z.2.    Q P.P.p.<   G P.P.H.P.P.P.P.P.P.P.P.P.P.P.P.P.P.P.P.P.P.P.H.P.P.P.H.P.P.P.P.P.P.P.P.P.P.",
"P.P.P.P.P.P.P.P.P.P.P.P.P.P.P.P.P.P.P.P.P.P.P.P.P.P.P.P.Z     B P.P.>.    Q P.P.t.s g.P.H.P.P.P.P.P.P.P.P.P.P.P.P.P.P.P.P.P.P.P.P.P.P.P.P.P.P.P.P.P.P.P.P.P.P.P.",
"P.P.P.P.P.P.P.P.P.P.P.P.P.P.P.P.P.P.P.P.P.P.P.P.P.H.P.#.  o.d E P.P.P.>.    O.P.P.P.P.P.P.P.P.P.P.P.P.P.P.P.P.P.P.P.P.P.P.P.P.P.P.P.P.P.P.P.P.P.P.P.P.P.P.P.P.P.",
"P.P.P.P.P.P.P.P.P.P.P.P.P.P.P.P.P.P.P.P.P.P.P.P.P.H.P.N   p.A.z.8.4.m.P.>.    %.P.H.P.P.P.P.P.P.P.P.P.P.P.P.P.P.P.P.P.P.P.P.P.P.P.P.P.P.P.P.P.P.P.P.P.P.P.P.P.P.",
"P.P.P.P.P.P.P.P.P.P.P.P.P.P.P.P.P.P.P.P.P.P.P.P.P.H.P.>.    6       4 u.P.%.4 s.P.H.P.P.P.P.P.P.P.P.P.P.P.P.P.P.P.P.P.P.P.P.P.P.P.P.P.P.P.P.P.P.P.P.P.P.P.P.P.P.",
"P.P.P.P.P.P.P.P.P.P.P.P.P.P.P.P.P.P.P.P.P.P.P.P.P.P.H.P.W ;   9 Z p   y H.P.A.P.P.P.P.P.P.P.P.P.P.P.P.P.P.P.P.P.P.P.P.P.P.P.P.P.P.P.P.P.P.P.P.P.P.P.P.P.P.P.P.P.",
"P.P.P.P.P.P.P.P.P.P.P.P.P.P.P.P.P.P.P.P.P.P.P.P.P.P.P.P.P.m.c.P.H.P.k   p.P.P.P.P.P.P.P.P.P.P.P.P.P.P.P.P.P.P.P.P.P.P.P.P.P.P.P.P.P.P.P.P.P.P.P.P.P.P.P.P.P.P.P.",
"P.P.P.P.P.P.P.P.P.P.P.P.P.P.P.P.P.P.P.P.P.P.P.P.P.P.P.P.P.P.P.H 2 6.y ; A.P.H.P.P.P.P.P.P.P.P.P.P.P.P.P.P.P.P.P.P.P.P.P.P.P.P.P.P.P.P.P.P.P.P.P.P.P.P.P.P.P.P.P.",
"P.P.P.P.P.P.P.P.P.P.P.P.P.P.P.P.P.P.P.P.P.P.P.P.P.P.P.P.P.H.P.Z       r.P.H.P.P.P.P.P.P.P.P.P.P.P.P.P.P.P.P.P.P.P.P.P.P.P.P.P.P.P.P.P.P.P.P.P.P.P.P.P.P.P.P.P.P.",
"P.P.P.P.P.P.P.P.P.P.P.P.P.P.P.P.P.P.P.P.P.P.P.P.P.P.P.P.P.P.P.P.2.E g.P.P.P.P.P.P.P.P.P.P.P.P.P.P.P.P.P.P.P.P.P.P.P.P.P.P.P.P.P.P.P.P.P.P.P.P.P.P.P.P.P.P.P.P.P.",
"P.P.P.P.P.P.P.P.P.P.P.P.P.P.P.P.P.P.P.P.P.P.P.P.P.P.P.P.P.P.P.P.P.P.P.H.P.P.P.P.P.P.P.P.P.P.P.P.P.P.P.P.P.P.P.P.P.P.P.P.P.P.P.P.P.P.P.P.P.P.P.P.P.P.P.P.P.P.P.P.",
"P.P.P.P.P.P.P.P.P.P.P.P.P.P.P.P.P.P.P.P.P.P.P.P.P.P.P.P.P.P.P.P.H.H.H.P.P.P.P.P.P.P.P.P.P.P.P.P.P.P.P.P.P.P.P.P.P.P.P.P.P.P.P.P.P.P.P.P.P.P.P.P.P.P.P.P.P.P.P.P.",
"P.P.P.P.P.H.P.P.P.H.P.P.H.H.P.P.H.P.P.P.P.P.P.P.P.P.H.P.H.H.H.P.P.P.P.H.H.H.P.P.P.P.P.H.P.P.P.P.P.H.P.P.P.P.H.P.P.P.P.P.P.P.P.P.P.P.P.P.P.P.P.P.P.P.P.P.P.P.P.P.",
"P.P.P.P.P.P.P.P.P.P.P.P.P.P.P.P.P.P.P.P.P.P.P.P.P.P.P.P.P.P.P.P.P.P.P.P.P.P.P.P.P.P.P.P.P.P.P.P.P.P.P.P.P.P.P.P.P.P.P.P.P.P.P.P.P.P.P.P.P.P.P.P.P.P.P.P.P.P.P.P.",
"P.P.P.P.A.u.h.P.m.t.C.c.u.g.P.n.t.m.C.t.z.m.t.c.P.h.u.C.p.u.e.t.r.m.z.u.t.e.m.P.P.P.e.8.h.N.P.P.h.p.C.P.P.h.u.A.P.P.P.P.P.P.P.P.P.P.P.P.P.P.P.P.P.P.P.P.P.P.P.P.",
"P.P.P.P.A.  H P.2.  g.r.    h.e.  s.z.  o.c.  P P.s p P.2 $ k h < g.T   s r ; e.A.s 4 h   %.P.n.;   =.P.P.D   N.P.H.P.P.P.P.P.P.P.P.P.P.P.P.P.P.P.P.P.P.P.P.P.P.",
"P.P.P.P.P.< T P.8.  z.u.    9 >.  l.C.  O.P.h y z.  2.P.6 p 1.%.l.P.U ; m.l.  E e.  D 9.6.C.P.O.6 m r P.P.P $ C.P.H.P.P.P.P.P.P.P.P.P.P.P.P.P.P.P.P.P.P.P.P.P.P.",
"P.P.P.P.H.$ E P.e.  l.u.  8.4     h.N.  O.P.&.  d 2 A.P.r 2 Z b C.P.T   p   s c.P.O.k 9 $ %.P.< H 4.  6.P.H ; P.P.P.P.P.P.P.P.P.P.P.P.P.P.P.P.P.P.P.P.P.P.P.P.P.",
"P.P.P.P.P.d ; =.d   H.e.  c.z.<   h.m.  o.P.c.$   W P.H.< p t.6.&.A.U $ C.y d P.e.D 8.>.  G 6.  N Z < r P.K   o.#.W g.P.P.P.P.P.P.P.P.P.P.P.P.P.P.P.P.P.P.P.P.P.",
"P.P.P.H.P.l.l $ y 8.P.6.r u.P.>.6 g.n.9 >.P.H.D r e.P.N.m s y p 2 g.O.d P.2.2 9.s.b r 2 Z C.G H P.P.6.9 h.o.y y y < 8.P.P.P.P.P.P.P.P.P.P.P.P.P.P.P.P.P.P.P.P.P.",
"P.P.P.P.P.P.P.P.P.P.P.P.P.P.P.P.P.P.P.P.P.P.P.P.P.P.P.P.P.P.P.P.P.P.P.P.P.P.P.P.P.P.P.P.P.P.P.P.P.P.P.P.P.P.P.P.P.P.P.P.P.P.P.P.P.P.P.P.P.P.P.P.P.P.P.P.P.P.P.P.",
"P.P.P.P.P.P.P.P.P.P.P.P.P.P.P.P.P.P.P.P.P.P.P.P.P.P.P.P.P.P.P.P.P.P.P.P.P.P.P.P.P.P.P.P.P.P.P.P.P.P.P.P.P.P.P.P.P.P.P.P.P.P.P.P.P.P.P.P.P.P.P.P.P.P.P.P.P.P.P.P.",
"P.P.P.P.P.P.P.P.P.P.P.P.P.P.P.P.P.P.P.P.P.P.P.P.P.P.P.P.P.P.P.P.P.P.P.P.P.P.P.P.P.P.P.P.P.P.P.P.P.P.P.P.P.P.P.P.P.P.P.P.P.P.P.P.P.P.P.P.P.P.P.P.P.P.P.P.P.P.P.P.",
"P.P.P.P.P.P.P.P.P.P.P.P.P.P.P.P.P.P.P.P.P.P.P.P.P.P.P.P.P.P.P.P.P.P.P.P.P.P.P.P.P.P.P.P.P.P.P.P.P.P.P.P.P.P.P.P.P.P.P.P.P.P.P.P.P.P.P.P.P.P.P.P.P.P.P.P.P.P.P.P."
};
