/* XPM */
static char *xpm_[] = {
/* columns rows colors chars-per-pixel */
"80 80 185 2 ",
"   c #A13D14",
".  c #3B7536",
"X  c #3C5823",
"o  c #517C12",
"O  c #467C2D",
"+  c #447A38",
"@  c #4E7010",
"#  c #547B11",
"$  c #578012",
"%  c #7A8C12",
"&  c #082D71",
"*  c #11316E",
"=  c #102D64",
"-  c #0A3278",
";  c #16397A",
":  c #245C5A",
">  c #397147",
",  c #326953",
"<  c #376E4B",
"1  c #114583",
"2  c #1C5479",
"3  c #205872",
"4  c #265E67",
"5  c #2B6360",
"6  c #52617D",
"7  c #1C3007",
"8  c #2E3E08",
"9  c #3A4A0C",
"0  c #0A224B",
"q  c #15253E",
"w  c #3A3F4B",
"e  c #0F1117",
"r  c #261605",
"t  c #2C2A05",
"y  c #0D0602",
"u  c #221102",
"i  c #302710",
"p  c #242424",
"a  c #121A2A",
"s  c #314409",
"d  c #4F3E07",
"f  c #34363A",
"g  c #4D4847",
"h  c #67625C",
"j  c #723709",
"k  c #BC5E0F",
"l  c #C53225",
"z  c #CC3724",
"x  c #7D3C0A",
"c  c #CC3924",
"v  c #86700C",
"b  c #987F0E",
"n  c #9B820E",
"m  c #0E275D",
"M  c #737375",
"N  c #A19F9F",
"B  c #9C9B9B",
"V  c #7E7E7E",
"C  c #C73623",
"Z  c #D73A27",
"A  c #CC3A23",
"S  c #DC3B28",
"D  c #D53927",
"F  c #E23D29",
"G  c #DB3C27",
"H  c #DF3B29",
"J  c #E43D29",
"K  c #D36711",
"L  c #AF560E",
"P  c #CB6411",
"I  c #D56A11",
"U  c #DC6317",
"Y  c #B49510",
"T  c #DA5B19",
"R  c #E85C1D",
"E  c #DE7011",
"W  c #E37212",
"Q  c #DF6F12",
"!  c #E76C13",
"~  c #E87512",
"^  c #F07913",
"/  c #E44725",
"(  c #E65220",
")  c #D23627",
"_  c #CF3825",
"`  c #B1570E",
"'  c #D73A27",
"]  c #D76A12",
"[  c #5A8F09",
"{  c #5C940C",
"}  c #4C8A14",
"|  c #568E14",
" . c #599114",
".. c #5A8913",
"X. c #699814",
"o. c #749D15",
"O. c #60970A",
"+. c #7CA115",
"@. c #4D8526",
"#. c #528A25",
"$. c #52807C",
"%. c #A0A914",
"&. c #D4AA13",
"*. c #86A615",
"=. c #93AC15",
"-. c #9BB015",
";. c #A7B616",
":. c #B8BC16",
">. c #D2BA14",
",. c #C3A311",
"<. c #C3A812",
"1. c #D1B413",
"2. c #CDB313",
"3. c #EB8713",
"4. c #ED9714",
"5. c #F28313",
"6. c #DABA14",
"7. c #EFA014",
"8. c #F1A914",
"9. c #F3B715",
"0. c #E89D14",
"q. c #BAC216",
"w. c #C5C416",
"e. c #D5CC16",
"r. c #DED117",
"t. c #F1D116",
"y. c #F7C816",
"u. c #E9D617",
"i. c #F9DD17",
"p. c #F3D717",
"a. c #F1D316",
"s. c #FDE317",
"d. c #B1ACA6",
"f. c #002F9F",
"g. c #05399C",
"h. c #002BA6",
"j. c #0138A9",
"k. c #0033B2",
"l. c #0B4488",
"z. c #134C8A",
"x. c #0A429A",
"c. c #1A5483",
"v. c #1A4CAF",
"b. c #1D4FB0",
"n. c #0F44AC",
"m. c #315EB8",
"M. c #3764BA",
"N. c #426BBE",
"B. c #4E78AA",
"V. c #64789C",
"C. c #3963C4",
"Z. c #4870C0",
"A. c #9DA8BE",
"S. c #D5D6D8",
"D. c #B3B1B0",
"F. c #C8C8C8",
"G. c #E3E2E2",
"H. c #829ED6",
"J. c #8FA8D9",
"K. c #B3C4EB",
"L. c #ECECEC",
"P. c #FFFFFF",
"I. c #F0F2F7",
"U. c #E7E7E7",
"Y. c #0A0401",
"T. c #0B0501",
"R. c #81410B",
"E. c #3B4E0A",
"W. c #0E0601",
"Q. c #0B0400",
"!. c #5A5A5A",
"~. c #9E301A",
"^. c #696768",
"/. c #B62F22",
"(. c #C23B20",
"). c #CD6411",
"_. c #B3301F",
"`. c #C5C5C5",
"'. c #140A01",
"]. c #120701",
"[. c #6B1D13",
"{. c #84524A",
"}. c #933318",
"|. c #100B01",
" X c None",
/* pixels */
" X X X X X X X X X X X X X X X X X X X X X X X X X X X X X X X X X X X X X X X X X X X X X X X X X X X X X X X X X X X X X X X X X X X X X X X X X X X X X X X X",
" X X X X X X X X X X X X X X X X X X X X X X X X X X X X X X X X X X X X X X X X X X X X X X X X X X X X X X X X X X X X X X X X X X X X X X X X X X X X X X X X",
" X X X X X X X X X X X X X X X X X X X X X X X X X X X X X X X X X X X X X X X X X X X X X X X X X X X X X X X X X X X X X X X X X X X X X X X X X X X X X X X X",
" X X X X X X X X X X X X X X X X X X X X X X X X X X X X X X X X X X X X X X X X X X X X X X X X X X X X X X X X X X X X X X X X X X X X X X X X X X X X X X X X",
" X X X X X X X X X X X X X X X X X X X X X X X X X X X X X X X X X X X X X X X X X X X X X X X X X X X X X X X X X X X X X X X X X X X X X X X X X X X X X X X X",
" X X X X X X X X X X X X X X X X X X X X X X X X X X X X X X X X X X X X X X X X X X X X X X X X X X X X X X X X X X X X X X X X X X X X X X X X X X X X X X X X",
" X X X X X X X X X X X X X X X X X X X X X X X X X X X X X X X X X X X X X X X X X X X X X X X X X X X X X X X X X X X X X X X X X X X X X X X X X X X X X X X X",
" X X X X X X X X X X X X X X X X X X X X X X X X X X X X X X X X X X X X X X X X X X X X X X X X X X X X X X X X X X X X X X X X X X X X X X X X X X X X X X X X",
" X X X X X X X X X X X X X X X X X X X X X X X X X X X X X X X X X X X X X X X X X X X X X X X X X X X X X X X X X X X X X X X X X X X X X X X X X X X X X X X X",
" X X X X X X X X X X X X X X X X X X X X X X X X X X X X X X X X X X X X X X X X X X X X X X X X X X X X X X X X X X X X X X X X X X X X X X X X X X X X X X X X",
" X X X X X X X X X X X X X X X X X X X X X X X X X X X X X X X X X X X X X X X X X X X X X X X X X X X X X X X X X X X X X X X X X X X X X X X X X X X X X X X X",
" X X X X X X X X X X X X X X X X X X X X X X X X X X X X X X X X X X X X X X X X X X X X X X X X X X X X X X X X X X X X X X X X X X X X X X X X X X X X X X X X",
" X X X X X X X X X X X X X X X X X X X X X X X X X X X X X X X X X X X X X X X X X X X X X X X X X X X X X X X X X X X X X X X X X X X X X X X X X X X X X X X X",
" X X X X X X X X X X X X X X X X X X X X X X X X X X X X X X X X X X X X X X X X X X X X X X X X X X X X X X X X X X X X X X X X X X X X X X X X X X X X X X X X",
" X X X X X X X X X X X X X X X X X X X X X X X X X X X X X X X X X X X X X X X X X X X X X X X X X X X X X X X X X X X X X X X X X X X X X X X X X X X X X X X X",
" X X X X X X X X X X X X X X X X X X X X X X X X X X X X X X X X X X X X X X X X X X X X X X X X X X X X X X X X X X X X X X X X X X X X X X X X X X X X X X X X",
" X X X X X X X X X X X X X X X X X X X X X X X X X X X X X X X X X X X X X X X X X X X X X X X X X X X X X X X X X X X X X X X X X X X X X X X X X X X X X X X X",
" X X X X X X X X X X X X X X X X X X X X X X X X X X X X X X X X X X X X X X X X X X X X X X X X X X X X X X X X X X X X X X X X X X X X X X X X X X X X X X X X",
" X X X X X X X X X X X X X X X X X X X X X X X X X X X X X X X X X X X X X X X X X X X X X X X X X X X X X X X X X X X X X X X X X X X X X X X X X X X X X X X X",
" X X X X X X X X X X X X X X X X X X X X X X X X X X X X X X X X X X X X X X X X X X X X X X X X X X X X X X X X X X X X X X X X X X X X X X X X X X X X X X X X",
" X X X X X X X X X X X X X X X X X X X X X X X X X X X X X X X X X X X X X X X X X X X X X X X X X X X X]. X X|.|. X|.|.]. X X X X X X X X X X X X X X X X X X X",
" X X X X X X X X X X X X X X X X X X X X X X X X X X X X X X X X X X X].|. X X X X X X X X X X X X X X]. X|.|.].].].].|.].T.].|.]. X X X X X X X X X X X X X X X",
" X X X X X X X X X X X X X X X X X X X X X X X X X X X X|. X X X].].].].|.|.|. X X X X X X X X X X].'.}._ _ Z C U U L ` {.'.'.'.]. X X X X X X X X X X X X X X X",
" X X X X X X X X X X X X X X X X X X X X X X X X X X X X X|.'._ S Z ].Y.Y.].].]. X X X X X X X].{.Z H / / R 5.^ 5.5.^ 5.4.Q _.'.Q.].].].]. X X X X X X X X X X X",
" X X X X X X X X X X X X X X X X X X X X X X X X|. X X|.W._ J J J H Y.Q.Y.Q.].]. X X X X XW.~./ ( ( ! ~ ~ ~ ~ ~ ^ ~ ~ ! ~ ~ ~ L W.W.Q.]. X X X X X X X X X X X X",
" X X X X X X X X X X X X X X X X X X X X X X X X X].~.) J J J J J G y Y.Y.Q.Q.].]. X XQ.~.U R ! ~ ~ ~ ~ ~ ~ ~ ~ ~ ~ ~ ~ ~ ~ ~ 5.Q W.Q.Q.].]. X X X X X X X X X X",
" X X X X X X X X X X X X X X X X X X X X X X X'._ H J J F F J J J H y y Y.Q.Q.].|. X[.] 5.^ ~ ~ ~ ~ ~ ~ ~ ~ ~ ~ ~ ~ ~ ~ ~ ~ ~ W ~ P T.Q.Q.].].]. X X X X X X X X",
" X X X X X X X X X X X X X X X X X|. X X X_._ J F J J / J J J J J H u y W.Y.Q.].|.x 5.~ 5.^ ~ ~ ~ ~ ~ ~ ~ ~ ~ ~ ~ ^ ~ ~ ~ ! ! 3.4.y.Y Q.T.].]. X X X X X X X X X",
" X X X X X X X X X X X X X X X X X X].}.Z / J J F J J / J J / F J H u y y W.Y.|.` 3.~ W ~ ~ ~ ~ ~ ~ ~ ~ ~ ~ ~ ~ ~ ! ! ~ 3.7.y.i.s.s.i.t T.Q.].]. X X X X X X X X",
" X X X X X X X X X X X X X|. X X'.x Z J J J J J J J J J J J / / R T u y y W.'.L ~ E ~ ~ ~ ~ ~ ~ ~ ~ ~ ~ ~ ! ! ! 3.4.8.y.s.s.s.s.i.i.s.,.Y.T.Q.].]. X X X X X X X",
" X X X X X X X X X X X X X XW._ F J J J J J J J J / J / / R ! ~ ^ E u y W.Y.L 5.~ ~ ~ ~ ~ ~ ~ ~ 3.~ ! ! ~ 3.7.9.y.s.s.s.i.i.u.s.i.i.s.i.u T.Q.Q.]. X X X X X X X",
" X X X X X X X X X X X]./.Z / J J J J J J J J J / / R ! ! ~ 5.! ^ E u y W.` ^ ^ ~ ~ ~ ~ ~ ~ ! ! ! ~ 3.8.y.u.s.s.s.s.i.i.i.s.i.i.i.i.i.s.n y T.Y.].].]. X X X X X",
" X X X X X X X X X]._.S J J J J J J J J J ( R ! ~ ~ ~ ~ ~ ! ~ ~ ^ Q u y d ^ ~ ~ ~ ~ ~ ~ ! ! ~ 4.9.a.s.s.s.i.i.i.i.i.s.i.i.i.i.i.s.i.i.s.,.T.u T.'.|. X X X X X X",
" X X X X X X Xy _ J / J J J J ' Z / / ! ! ~ ~ ~ ~ ~ ~ ~ ~ ~ ~ ~ ~ ! u y T ^ ~ ~ ! ~ ~ 3.4.y.i.s.s.s.i.i.s.i.i.i.i.s.i.i.i.i.i.s.s.s.r.q.$ y y W.W.].]. X X X X X",
" X X X X XQ. XS J J J J J J   y u ^ ~ ~ ~ ~ ~ ~ ~ ~ ~ ~ ~ ~ ~ ~ ~ E y x ~ ! ! ~ 3.8.y.i.s.s.s.i.s.s.s.i.u.s.u.s.i.i.i.i.s.s.i.e.;.+. .} # y y W.W.].|. X X X X X",
" X X X X X XY.G J J J ( R T T.y ` ~ ! ~ ~ ~ ~ ~ ~ ~ ~ ~ ~ ~ ~ ~ ~ ! y ` 5.4.9.i.s.s.s.i.s.i.i.i.i.s.<.t y ,.s.s.s.s.s.u.w.=.X.| } }  . .# y y T.W.].].|. X X X X",
" X X X X X|.'.H ( ! ! ! ~ Q x L ^ ~ ~ ~ ~ ~ ~ ~ ~ ~ ~ ~ ~ ~ ! ~ ~ 3.u ,.i.s.s.s.i.i.i.i.i.i.s.s.s.n y y y Y s.s.r.:.*. .} } | |  .| |  .@ y y T.W.].]. X X X X X",
" X X X X X|.W.,.^ ! ~ ~ ~ ^ 5.5.~ ~ ~ ~ ~ ~ ~ ~ ~ ~ ~ ~ ! ~ 4.8.y.s.6.i.i.i.i.i.i.i.i.s.i.s.u.s.,.u y y y :.-.+.| } } |  . .|  . .| |  .9 y y y W.Q.]. X X X X X",
" X X X X X|.'.Q ~ ~ ~ ~ ~ ~ W ~ ~ ~ ~ ~ ~ ~ ~ ~ ! W 3.4.9.i.s.s.s.i.s.i.i.i.i.i.i.i.i.i.i.i.s.u.u y y y @  .} }  . . . .| |  .|  .|  . .r y y T.W.Q. X X X X X X",
" X X X X X|.'.T ~ ~ ~ ~ ~ ~ ~ ~ ~ ~ ~ ~ ! ! ~ 3.8.y.i.s.s.s.i.i.i.i.i.i.s.i.i.i.i.i.s.s.s.i.p.*.y y r $ X.{  .|  .| | |  . .| | |  .{ # y y T.T.Q.].]. X X X X X",
" X X X X X Xy K ~ ~ ~ ~ ~ ~ ~ ~ ! ! ! ^ 4.9.y.s.s.s.s.i.i.i.i.i.i.i.s.i.i.i.i.i.s.s.i.w.-.X.| } $ @  . .| | | | | | | | | |  . .{ [ #.7 y y y T.W. X'. X X X X X",
" X X X X|.Q.|.K ~ ~ ~ ~ ~ ~ ! ~ 3.7.9.i.s.s.s.s.i.i.i.i.i.i.i.i.i.i.i.i.s.s.s.u.:.*.X.| } | |  . . .| | |  .| | | | | { { { | @., z.* y y y y Q.W.W. X X X X X X",
" X X X X X Xy I ~ ! ! ~ ~ 3.8.y.i.s.s.s.i.i.i.i.i.i.i.i.i.i.i.i.s.s.s.i.e.;.+. .} } } |  . . .|  . . .| | | | |  .{ { #.> 4 x.j.k.j.e y y y T.Q.|. X|. X X X X X",
" X X X X X XW.,.~ ^ 4.9.i.i.s.s.i.i.i.i.s.i.i.i.s.i.i.i.s.s.s.s.u.w.=.X.| } } |  . .| | | | | |  . .|  . .{ { { #.< 2 x.j.k.j.j.n.q T.e y T.Q.Q.W. X X X X X X X",
" X X X X X Xy ,.y.a.s.s.s.i.i.i.i.i.i.i.i.i.i.i.i.s.s.s.s.r.:.*.X.} } }  . . .|  .| | | | | | |  . .{ [ } . : l.h.h.k.h.j.j.j.j.q T.y y W.W.W.W. X|. X X X X X X",
" X X X X Xy  X:.s.i.s.i.i.s.i.i.i.i.s.i.i.i.s.s.s.u.e.-.o.| } } | |  . .| | | |  .| | | | | { {  .#.> $.B.C.m.C.N.M.v.Z.v.j.j.q p M e T.W.W. X|. X X X X X X X X",
" X X X X X Xy %.i.i.i.i.i.i.i.i.i.i.i.s.s.s.u.q.=.X.| } } |  . .| | | | |  .| | | |  .{ { | @., c.x.j.K.P.P.P.P.P.I.Z.P.K.j.q T.G.P.q W.W.W.W. X|. X X X X X X X",
" X X X X X X X%.s.s.s.s.s.s.s.s.s.s.i.e.:.+. .} } | |  . .| | | |  . . . .| | { { { | + 5 z.j.k.k.j.j.v.n.Z.P.J.j.b.h.K.P.f y p I.A.W.W.|.|.|.|. X X X X X X X X",
" X X X X Xy  Xn ;.,.% Y %.Y %.,.6.-.+.| } }  . .| |  .| |  .| | | | ..| .. .X.#.> 2 x.j.k.j.j.j.j.j.j.j.h.M.P.H.h.j.f.V.P.B T.B L.^.p e  X X X X X X X X X X X X",
" X X X X X Xy  X'.t y u r u u t 7 } }  . . .| | |  . . . .| | | { X.r y y X c.j.h.k.j.j.j.j.j.k.j.j.j.j.h.C.P.H.h.* e y I.L.y L.U.e W.|.W. X|. X X X X X X X X X",
" X X X X Xy ]. Xu r u r y y u y 7 X. . . . .|  . . .| | |  .{ { | + u y y y m j.j.j.j.j.j.j.k.j.j.j.j.j.k.C.P.A.y T.y y D.P.M P.M |.'.|. X X X X X X X X X X X X",
" X X X X X X Xy  Xr y '.'.y u Q.7  . . .| | | | }  . .{ { @.> 2 g.j.e y y T.W.e = g.n.j.j.j.n.k.j.j.j.g.- h P.D.y e y y g P.P.P.e |.|.|. X X X X X X X X X X X X",
" X X X X X'.'.].|.y |.y y u y  Xs o. . . . .| X. . .+ 5 z.j.k.k.k.j.e y y T.T.T.T.y q 0 = * - * = q e e T.g P.D.e a !.W.Q.G.P.F.|.|. X X X X X X X X X X X X X X",
" X X X X X X X]. X|.|.y  X'.y |.[.[ } ......$ O : l.g.j.f.g.g.g.g.g.e Y.T.T.Q.Q.T.T.y T.y y y y Y.y Y.Y.y p M f e {.[.W.Q.[.^.W.|.|. X X X X X X X X X X X X X X",
" X X X X X X X]. X|.'.|. Xy  X XW.W.W.y y u u y T.y y y y y y y y y y y y T.Q.Q.Q.T.T.Q.u y r W.y y T.Y.y T.T.T.Q.Q.W.W.|.W. X|. X X X X X X X X X X X X X X X X",
" X X X X X X X X X X X X X X X].].W.y T.y y u u y y y y y y y y y y y y T.T.Q.].].Q.Q.T.W.W.W.W.T.T.Y.Y.T.Q.Q.Q.Q.]. XW. X X|. X X X X X X X X X X X X X X X X X",
" X X X X X X X X X X X X X X X'.].y y _.W.W.W.W.W.r W.W.u W.W._.W.y W.W.W.W.'.'.|.].].].W.W.'.W.W.Q.Q.Q.Q.].Q.].].].]. X X X X X X X X X X X X X X X X X X X X X",
" X X X X X X X X X X X X X X X X Xy  X[.W.W.'._.W.W.W.W.W.W.W.W.W.W.W.W.W.W.Y.].|.|.|.].].].'.'.].].].].].].]. X X X X X X X X X X X X X X X X X X X X X X X X X",
" X X X X X X X X X X X X X X X|.Y. X XW.W.'.'.'.W.'.'.'.W.'.'.'.W.'.'.'. XY. X X X X X|.|.|.|.].].|. X]. X X X X X X X X X X X X X X X X X X X X X X X X X X X X",
" X X X X X X X X X X X X X X X X X|. XW.W. XY. XY.'.].|. XY. XY.].].].|. X|.|. X X X X X X X X X X X X X X X X X X X X X X X X X X X X X X X X X X X X X X X X X",
" X X X X X X X X X X X X X X X X X X|. X X|. X|. X X|. X|. X|.|. X|. X|. X X X X X X X X X X X X X X X X X X X X X X X X X X X X X X X X X X X X X X X X X X X X",
" X X X X X X X X X X X X X X X X X X X X X X X X X X X X X X X X X X X X X X X X X X X X X X X X X X X X X X X X X X X X X X X X X X X X X X X X X X X X X X X X",
" X X X X X X X X X X X X X X X X X X X X X X X X X X X X X X X X X X X X X X X X X X X X X X X X X X X X X X X X X X X X X X X X X X X X X X X X X X X X X X X X",
" X X X X X X X X X X X X X X X X X X X X X X X X X X X X X X X X X X X X X X X X X X X X X X X X X X X X X X X X X X X X X X X X X X X X X X X X X X X X X X X X",
" X X X X X X X X X X X X X X X X X X X X X X X X X X X X X X X X X X X X X X X X X X X X X X X X X X X X X X X X X X X X X X X X X X X X X X X X X X X X X X X X",
" X X X X X X X X X X X X X X X X X X X X X X X X X X X X X X X X X X X X X X X X X X X X X X X X X X X X X X X X X X X X X X X X X X X X X X X X X X X X X X X X",
" X X X X X X X X X X X X X X X X X X X X X X X X X X X X X X X X X X X X X X X X X X X X X X X X X X X X X X X X X X X X X X X X X X X X X X X X X X X X X X X X",
" X X X X X X X X X X X X X X X X X X X X X X X X X X X X X X X X X X X X X X X X X X X X X X X X X X X X X X X X X X X X X X X X X X X X X X X X X X X X X X X X",
" X X X X X X X X X X X X X X X X X X X X X X X X X X X X X X X X X X X X X X X X X X X X X X X X X X X X X X X X X X X X X X X X X X X X X X X X X X X X X X X X",
" X X X X X X X X X X X X X X X X X X X X X X X X X X X X X X X X X X X X X X X X X X X X X X X X X X X X X X X X X X X X X X X X X X X X X X X X X X X X X X X X",
" X X X X X X X X X X X X X X X X X X X X X X X X X X X X X X X X X X X X X X X X X X X X X X X X X X X X X X X X X X X X X X X X X X X X X X X X X X X X X X X X",
" X X X X X X X X X X X X X X X X X X X X X X X X X X X X X X X X X X X X X X X X X X X X X X X X X X X X X X X X X X X X X X X X X X X X X X X X X X X X X X X X",
" X X X X X X X X X X X X X X X X X X X X X X X X X X X X X X X X X X X X X X X X X X X X X X X X X X X X X X X X X X X X X X X X X X X X X X X X X X X X X X X X",
" X X X X X X X X X X X X X X X X X X X X X X X X X X X X X X X X X X X X X X X X X X X X X X X X X X X X X X X X X X X X X X X X X X X X X X X X X X X X X X X X",
" X X X X X X X X X X X X X X X X X X X X X X X X X X X X X X X X X X X X X X X X X X X X X X X X X X X X X X X X X X X X X X X X X X X X X X X X X X X X X X X X",
" X X X X X X X X X X X X X X X X X X X X X X X X X X X X X X X X X X X X X X X X X X X X X X X X X X X X X X X X X X X X X X X X X X X X X X X X X X X X X X X X",
" X X X X X X X X X X X X X X X X X X X X X X X X X X X X X X X X X X X X X X X X X X X X X X X X X X X X X X X X X X X X X X X X X X X X X X X X X X X X X X X X",
" X X X X X X X X X X X X X X X X X X X X X X X X X X X X X X X X X X X X X X X X X X X X X X X X X X X X X X X X X X X X X X X X X X X X X X X X X X X X X X X X",
" X X X X X X X X X X X X X X X X X X X X X X X X X X X X X X X X X X X X X X X X X X X X X X X X X X X X X X X X X X X X X X X X X X X X X X X X X X X X X X X X",
" X X X X X X X X X X X X X X X X X X X X X X X X X X X X X X X X X X X X X X X X X X X X X X X X X X X X X X X X X X X X X X X X X X X X X X X X X X X X X X X X"
};
