/* XPM */
static char *xpm_[] = {
/* columns rows colors chars-per-pixel */
"80 80 38 1 ",
"  c #0C0708",
". c #120E0F",
"X c #130F10",
"o c #191516",
"O c #211D1E",
"+ c #231F20",
"@ c #262223",
"# c #312D2E",
"$ c #332F30",
"% c #393637",
"& c #413E3E",
"* c #433F40",
"= c #484546",
"- c #514E4E",
"; c #585556",
": c #615E5E",
"> c #625F60",
", c #696667",
"< c #706E6E",
"1 c #726F70",
"2 c #787677",
"3 c #807E7E",
"4 c #817F80",
"5 c #8B898A",
"6 c #908E8F",
"7 c #918F90",
"8 c #999798",
"9 c #A19FA0",
"0 c #A8A6A7",
"q c #B0AEAF",
"w c #B1AFB0",
"e c #B7B6B6",
"r c #C7C6C6",
"t c #D0CFCF",
"y c #DAD9D9",
"u c #E8E7E7",
"i c #FEFEFE",
"p c None",
/* pixels */
"pppppppppppppppppppppppppppppppppppppppppppppppppppppppppppppppppppppppppppppppp",
"pppppppppppppppppppppppppppppppppppppppppppppppppppppppppppppppppppppppppppppppp",
"pppppppppppppppppppppppppppppppppppppppppppppppppppppppppppppppppppppppppppppppp",
"pppppppppppppppppppppppppppppppppppppppppppppppppppppppppppppppppppppppppppppppp",
"pppppppppppppppppppppppppppppppppppppppppppppppppppppppppppppppppppppppppppppppp",
"pppppppppppppppppppppppppppppppppppppppppppppppppppppppppppppppppppppppppppppppp",
"pppppppppppppppppppppppppppppppppppppppppppppppppppppppppppppppppppppppppppppppp",
"pppppppppppppppppppppppppppppppppppppppppppppppppppppppppppppppppppppppppppppppp",
"pppppppppppppppppppppppppppppppppppppppppppppppppppppppppppppppppppppppppppppppp",
"pppppppppppppppppppppppppppppppppppppppppppppppppppppppppppppppppppppppppppppppp",
"pppppppppppppppppppppppppppppppppppppppppppppppppppppppppppppppppppppppppppppppp",
"pppppppppppppppppppppppppppppppppppppppppppppppppppppppppppppppppppppppppppppppp",
"pppppppppppppppppppppppppppppppppppppppppppppppppppppppppppppppppppppppppppppppp",
"pppppppppppppppppppppppppppppppppppppppppppppppppppppppppppppppppppppppppppppppp",
"pppppppppppppppppppppppppppppppppppppppppppppppppppppppppppppppppppppppppppppppp",
"pppppppppppppppppppppppppppppppppppppppppppppppppppppppppppppppppppppppppppppppp",
"pppppppppppppppppppppppppppppppppppppppppppppppppppppppppppppppppppppppppppppppp",
"pppppppppppppppppppppppppppppppppppppppppppppppppppppppppppppppppppppppppppppppp",
"pppppppppppppppppppppppppppppppppppppppppppppppppppppppppppppppppppppppppppppppp",
"pppppppppppppppppppppppppppppppppppppppppppppppppppppppppppppppppppppppppppppppp",
"pppppppppppppppppppppppppppppppppppppppppppppppppppppppppppppppppppppppppppppppp",
"pppppppppppppppppppppppppppppppppppppppppppppppppppppppppppppppppppppppppppppppp",
"pppppppppppppppppppppppppppppppppppppppppppppppppppppppppppppppppppppppppppppppp",
"pppppppppppppppppppppppppppppppppppppppppppppppppppppppppppppppppppppppppppppppp",
"pppppppppppppppppppppppppppppppppppppppppppppppppppppppppppppppppppppppppppppppp",
"pppppppppppppppppppppppppppppppppppppppppppppppppppppppppppppppppppppppppppppppp",
"pppppppppppppppppppppppppppppppppppppppppppppppppppppppppppppppppppppppppppppppp",
"pppppppppppppppppppppppppppppppppppppppppppppppppppppppppppppppppppppppppppppppp",
"pppppppppppppppppppppppppppppppppppppppppppppppppppppppppppppppppppppppppppppppp",
"pppppppppppppppppppppppppppppppppppppppppppppppppppppppppppppppppppppppppppppppp",
"pppppppppppppppppppppppppppppppppppppppppppppppppppppppppppppppppppppppppppppppp",
"pppppppppppppppppppppppppppppppppppppppppppppppppppppppppppppppppppppppppppppppp",
"ppp++++++++++O+++++++++++++++++O++++++++O++++++++++++++++++++++++++++++++++++ppp",
"ppp++++++++O+@+++++++++O+++++++@++++++++@@+++++O+++++++++++O+++++@+++++@+++++ppp",
"ppp+++++++@@++@O++O+@@@@++@O@@@@+++++++@@@@@@++@@@@+@O@@@@@@@@@@@@@@@@@@@++++ppp",
"ppp+++++++OoOOO+++@@o.o@++@@o.X+@O+++@@oXXoXOO+OX.o@O@o.XXX@@oXXXXXOo.XXX++++ppp",
"ppp++++++@+8ur+O@O@o;0,o@+@o=88%o@+++@X%6e01@O@@50,o@o:9771@o=88878%<8784++++ppp",
"ppp+++++@X1iii-X@O@X8i0X@+@orii2X@+O@o,iiiii;oo1iito@Xeiiiie 8iiiii=tiiiyo@++ppp",
"ppp++++@++yiii<X@+@owi2X@@o;iiiwo@@@o=iie:>0=o+yiiu%+ori5,ii%%;yi5=#ui,=&O@++ppp",
"ppp++++@X1ityi;o@@@ori,o@@orieiy@+@@X8ieXoXo@o<iryi:o@yi==ii&Xoui& %ii<:%o@O+ppp",
"ppp+++++@yi&8i5.@@@@ui=o@o;it#ii=o@@oei2o#@@@@yi=8i6.%uiuiiqoO%ii%X-iiii,o@++ppp",
"ppp+++@X2ii5riro@+o%ii#.Oorit6ui2X@@owi0 oXOo2ii7rirX=iuuiqo@o-iu@X,iy<2$o@++ppp",
"ppp+++O+yiiiiiu#o@o=iu-;#;iiiiiiqX@@o,ii7-<,oyiiiiii@;ir<iu%oX,irOo2ie%=@@+++ppp",
"ppp++@X5iy=&=ii,o@o,iiii6ri8%$2iu@O@@o0iiii82iy&%=ui-<ir eir@.5ieoo0iiii=o@++ppp",
"ppp++@o5e:.oX5e;o@o;0080,80$oo#09$o@@+o,wrq=3w:XOX2e;;e<X*00=X,e,oo20808@O+++ppp",
"ppp+++@oXo@@@oXo@O@oXX..oX.O@@oXXO++O@@XXXXoo.o@@@oXoo.o@o.Xo@o.o@@oX..XO@+++ppp",
"ppp++++@@@++O@@@+@O@@@@@@@@@++@@@+++++@@@@@@@@@+++@@@@@@+@@@@O@@@O+@@@@@+++++ppp",
"ppp++++++++++++++O++@+O@++++++++@+++++O+@+++++++++O@++++++++O++++++++@+++++++ppp",
"ppp++++++++++++++++++++++++++++++++++++++++++++++++++++++++++++++++++++++++++ppp",
"pppppppppppppppppppppppppppppppppppppppppppppppppppppppppppppppppppppppppppppppp",
"pppppppppppppppppppppppppppppppppppppppppppppppppppppppppppppppppppppppppppppppp",
"pppppppppppppppppppppppppppppppppppppppppppppppppppppppppppppppppppppppppppppppp",
"pppppppppppppppppppppppppppppppppppppppppppppppppppppppppppppppppppppppppppppppp",
"pppppppppppppppppppppppppppppppppppppppppppppppppppppppppppppppppppppppppppppppp",
"pppppppppppppppppppppppppppppppppppppppppppppppppppppppppppppppppppppppppppppppp",
"pppppppppppppppppppppppppppppppppppppppppppppppppppppppppppppppppppppppppppppppp",
"pppppppppppppppppppppppppppppppppppppppppppppppppppppppppppppppppppppppppppppppp",
"pppppppppppppppppppppppppppppppppppppppppppppppppppppppppppppppppppppppppppppppp",
"pppppppppppppppppppppppppppppppppppppppppppppppppppppppppppppppppppppppppppppppp",
"pppppppppppppppppppppppppppppppppppppppppppppppppppppppppppppppppppppppppppppppp",
"pppppppppppppppppppppppppppppppppppppppppppppppppppppppppppppppppppppppppppppppp",
"pppppppppppppppppppppppppppppppppppppppppppppppppppppppppppppppppppppppppppppppp",
"pppppppppppppppppppppppppppppppppppppppppppppppppppppppppppppppppppppppppppppppp",
"pppppppppppppppppppppppppppppppppppppppppppppppppppppppppppppppppppppppppppppppp",
"pppppppppppppppppppppppppppppppppppppppppppppppppppppppppppppppppppppppppppppppp",
"pppppppppppppppppppppppppppppppppppppppppppppppppppppppppppppppppppppppppppppppp",
"pppppppppppppppppppppppppppppppppppppppppppppppppppppppppppppppppppppppppppppppp",
"pppppppppppppppppppppppppppppppppppppppppppppppppppppppppppppppppppppppppppppppp",
"pppppppppppppppppppppppppppppppppppppppppppppppppppppppppppppppppppppppppppppppp",
"pppppppppppppppppppppppppppppppppppppppppppppppppppppppppppppppppppppppppppppppp",
"pppppppppppppppppppppppppppppppppppppppppppppppppppppppppppppppppppppppppppppppp",
"pppppppppppppppppppppppppppppppppppppppppppppppppppppppppppppppppppppppppppppppp",
"pppppppppppppppppppppppppppppppppppppppppppppppppppppppppppppppppppppppppppppppp",
"pppppppppppppppppppppppppppppppppppppppppppppppppppppppppppppppppppppppppppppppp",
"pppppppppppppppppppppppppppppppppppppppppppppppppppppppppppppppppppppppppppppppp",
"pppppppppppppppppppppppppppppppppppppppppppppppppppppppppppppppppppppppppppppppp",
"pppppppppppppppppppppppppppppppppppppppppppppppppppppppppppppppppppppppppppppppp",
"pppppppppppppppppppppppppppppppppppppppppppppppppppppppppppppppppppppppppppppppp",
"pppppppppppppppppppppppppppppppppppppppppppppppppppppppppppppppppppppppppppppppp",
"pppppppppppppppppppppppppppppppppppppppppppppppppppppppppppppppppppppppppppppppp"
};
