/* XPM */
static char *xpm_[] = {
/* columns rows colors chars-per-pixel */
"80 80 84 1 ",
"  c #B31A20",
". c #ED1C22",
"X c #ED1D24",
"o c #C11A20",
"O c #BD1D23",
"+ c #C11A20",
"@ c #C21D23",
"# c #C41D23",
"$ c #B81C21",
"% c #B81C21",
"& c #BD1C23",
"* c #D01B22",
"= c #CD1A20",
"- c #ED1E25",
"; c #EE252D",
": c #C11A1F",
"> c #EA0207",
", c #EC0D14",
"< c #EC131B",
"1 c #C31B21",
"2 c #ED1D24",
"3 c #ED1D24",
"4 c #F11D24",
"5 c #EE2C35",
"6 c #ED2229",
"7 c #EE2C35",
"8 c #F02F39",
"9 c #EF343C",
"0 c #F1333E",
"q c #EE1D24",
"w c #EE222A",
"e c #F02831",
"r c #F03743",
"t c #F03A48",
"y c #F14250",
"u c #F0414D",
"i c #F14856",
"p c #F14654",
"a c #F1555A",
"s c #F25863",
"d c #F3656A",
"f c #F36B73",
"g c #F4757A",
"h c #B41D23",
"j c #ED1E25",
"k c #ED1F26",
"l c #EE1F27",
"z c #ED1E26",
"x c #ED1E25",
"c c #ED1D24",
"v c #ED1D24",
"b c #F57C83",
"n c #F6888C",
"m c #F68C93",
"M c #F7969A",
"N c #F79BA3",
"B c #F8A4A9",
"V c #F9AEB3",
"C c #F9B7BA",
"Z c #FABDC0",
"A c #FBC7C9",
"S c #FBCED1",
"D c #FCD9DA",
"F c #FCDFE0",
"G c #FDE8E9",
"H c #FFFEFE",
"J c #AC1D23",
"K c #A61D23",
"L c #C0191E",
"P c #EC161C",
"I c #ED1D24",
"U c #ED1B22",
"Y c #ED1C23",
"T c #EE1D24",
"R c #EC191F",
"E c #ED161B",
"W c #9F1F25",
"Q c #EC1D24",
"! c #B9181E",
"~ c #EC1D24",
"^ c #EC1319",
"/ c #9F171A",
"( c #EB080C",
") c None",
/* pixels */
"))))))))))))))))))))))))))))))))))))))))))))))))))))))))))))))))))))))))))))))))",
"))))))))))))))))))))))))))))))))))))))))))))))))))))))))))))))))))))))))))))))))",
"))))))))))))))))))))))))))))))))))))))))))))))))))))))))))))))))))))))))))))))))",
"))))))))))))))))))))))))))))))))))))))))))))))))))))))))))))))))))))))))))))))))",
"))))))))))))))))))))))))))))))))))))))))))))))))))))))))))))))))))))))))))))))))",
"))))))))))))))))))))))))))))))))))))))))))))))))))))))))))))))))))))))))))))))))",
"))))))))))))))))))))))))))))))))))))))))))))))))))))))))))))))))))))))))))))))))",
"))))))))))))))))))))))))))))))))))))))))))))))))))))))))))))))))))))))))))))))))",
"))))))))))))))))))))))))))))))))))))))))))))))))))))))))))))))))))))))))))))))))",
"))))))))))))))))))))))))))))))))))))))))))))))))))))))))))))))))))))))))))))))))",
"))))))))))))))))))))))))))))))))))))))))))))))))))))))))))))))))))))))))))))))))",
"))))))))))))))))))))))))))))))))))))))))))))))))))))))))))))))))))))))))))))))))",
"))))))))))))))))))))))))))))))))))))))))))))))))))))))))))))))))))))))))))))))))",
"))))))))))))))))))))))))))))))))))))))))))))))))))))))))))))))))))))))))))))))))",
"))))))))))))))))))))))))))))))))))))))))))))))))))))))))))))))))))))))))))))))))",
"))))))))))))))))))))))))))))))))))))))))))))))))))))))))))))))))))))))))))))))))",
"))))))))))))))))))))))))))))))))))))))))))))))))))))))))))))))))))))))))))))))))",
"))))))))))))))))))))))))))))))))))))))))))))))))))))))))))))))))))))))))))))))))",
"))))))))))))))))))))))))))))))))))))))))))))))))))))))))))))))))))))))))))))))))",
"))))))))))))))))))))))))))))))))))))))))))))))))))))))))))))))))))))))))))))))))",
"))))))))))))))))))))))))))))))))))))))))))))))))))))))))))))))))))))))))))))))))",
"))))))))))))))))))))))))))))))))))))))))))))))))))))))))))))))))))))))))))))))))",
"))))))))))))))))))))))))))))))))))))))))))))))))))))))))))))))))))))))))))))))))",
"))))))))))))))))))))))))))))))))))))))))))))))))))))))))))))))))))))))))))))))))",
"))))))))))))))))))))))))))))))))))))))))))))))))))))))))))))))))))))))))))))))))",
"))))))))))))))))))))))))))))))))))))))))))))))))))))))))))))))))))))))))))))))))",
"))))K&67e:zzv^E/)))))))))))))K&607: vh~K/))))))/))))))^&676exh.PE/))))))))))))))",
")))K10pppppttrrr8ec:zvE/))))K20pppyyrtttre::%hTEE))))^18iiiipttrr08::.vhYE))))))",
")))%7ppppppyiippppputtrr8E))%7pppippiiiipppputtrr7Y))h6ipppppppppppppyuut07E))))",
"))):0pppppppppppppppipipp8E)+0ppppppipiipppiippppp8E)O8ppppppppppppppyyr0844Y)))",
")))o0ppppppppppppppppppppux):0ppppppppppppppppppppux)&8pppppppppppt0764344441)))",
")))10ppppppppppppppppppppp5^O0ppppppppppppppppppppp5)&8pppppptr86664333344443)))",
")))1tppppppppptttttppppppp5):rppppiytttttttttppppip:)#rptt763343<,,,,33333333)))",
")))1rppppppptsVBNmfpppppppe)OtpptmGSAAZVBNmbbstpppy:)%464433333,unggd73343333)))",
")))1rppppppptBHHHHGppppppp#)+8aptBHHHHHHHHHHHHZt885k)#3343336<<bHHHHHa<633333)))",
")))1rpppppptsHHHHHHmtppppp:):rpptNHGHHHHHHHHHHHn,64w)%334433,8ZHHHHHHa,633343)))",
")))1rptpppptNHHHHHHDpppppp:)O0pptNHHHABCCAAAHHHD444-):333333fHHHHHGHHa,633333)))",
"))):rppppptsHHHFnHHHbtppppe)#rpp8MHGHd>,>,>>gHHD434q)%44336<AHGHSuDHHa<633433)))",
"))):rppppitVHHHNrFHHStppppe)#666,nHHHBaaasapVHHZ,33z)$64333<9HHM<<GHHa<443333)))",
")))1tpppptpHHHHstNHHHftt082/#446,nHHHHHHHHHHHHD7333:):443436<fd,36DHHa,633333)))",
"))):0pppptBHHHB8rrFHHV<333:)6436,nHHHHHHHHHHHHGd464q)%3333336<<633DHHa,633334)))",
")))10ppppsHHHHCMNnDHHHu<33z):436,nHGHCnmmmnnVHHH744l)%333333436336GHHa<333433)))",
"))):rapp7MHHHHHHHHHHHHB,633/#436,nHHHd>>>>>>7HHHu<4:Q$333343333433DHHa,633334)))",
")))167637GHHHHHHHHHHHHG7231/#636,nHHHVgnnmMMAHHHu<41)$333333333333GHHa<633633)))",
")))e443,mHHHSggfddadHHHm,3:)#436,nHHHHHHHHHHHHHG633:)O433333333336DHHa<343334)))",
")))@4337GHHHa><,,,,,BHHG73z)#336,nHHHHHHHHHHHHHf<42:)O333334343346GHHa<633334)))",
")))133,nHGHA6664666<9fsa63:Q#336,nHGGGSAAVBMmgu<443k)O3364333333<6mBMr3433344)))",
")))133499866<336<466<,<,32:)#3333797663<,,<,,,<6444q)&333333334336,,,33333334)))",
")))13333<33333334433663633q)#43333<3464636666664633:)O63333333336366433333334)))",
")))@3334333333336433343333&)#3333333444433334444434.)O33333336344433333333331)))",
")))13333333333334444333344E)#6333333334433336344444Q)O4433333333444433333333Y)))",
")))%333333343333444433334J))%333333333443433444444v))h663333333344443333336.))))",
")))K54444433344442:xzvEE^)))Ee4433334444331:zhEEE))))Ee6344434434464:zh.YE^)))))",
"))))K#4462c:h^E//))))))))))))E#643:&vhEE^^))))))))))))K:3443&zvEE/))))))))))))))",
"))))))))))))))))))))))))))))))))))))))))))))))))))))))))))))))))))))))))))))))))",
"))))))))))))))))))))))))))))))))))))))))))))))))))))))))))))))))))))))))))))))))",
"))))))))))))))))))))))))))))))))))))))))))))))))))))))))))))))))))))))))))))))))",
"))))))))))))))))))))))))))))))))))))))))))))))))))))))))))))))))))))))))))))))))",
"))))))))))))))))))))))))))))))))))))))))))))))))))))))))))))))))))))))))))))))))",
"))))))))))))))))))))))))))))))))))))))))))))))))))))))))))))))))))))))))))))))))",
"))))))))))))))))))))))))))))))))))))))))))))))))))))))))))))))))))))))))))))))))",
"))))))))))))))))))))))))))))))))))))))))))))))))))))))))))))))))))))))))))))))))",
"))))))))))))))))))))))))))))))))))))))))))))))))))))))))))))))))))))))))))))))))",
"))))))))))))))))))))))))))))))))))))))))))))))))))))))))))))))))))))))))))))))))",
"))))))))))))))))))))))))))))))))))))))))))))))))))))))))))))))))))))))))))))))))",
"))))))))))))))))))))))))))))))))))))))))))))))))))))))))))))))))))))))))))))))))",
"))))))))))))))))))))))))))))))))))))))))))))))))))))))))))))))))))))))))))))))))",
"))))))))))))))))))))))))))))))))))))))))))))))))))))))))))))))))))))))))))))))))",
"))))))))))))))))))))))))))))))))))))))))))))))))))))))))))))))))))))))))))))))))",
"))))))))))))))))))))))))))))))))))))))))))))))))))))))))))))))))))))))))))))))))",
"))))))))))))))))))))))))))))))))))))))))))))))))))))))))))))))))))))))))))))))))",
"))))))))))))))))))))))))))))))))))))))))))))))))))))))))))))))))))))))))))))))))",
"))))))))))))))))))))))))))))))))))))))))))))))))))))))))))))))))))))))))))))))))",
"))))))))))))))))))))))))))))))))))))))))))))))))))))))))))))))))))))))))))))))))",
"))))))))))))))))))))))))))))))))))))))))))))))))))))))))))))))))))))))))))))))))",
"))))))))))))))))))))))))))))))))))))))))))))))))))))))))))))))))))))))))))))))))",
"))))))))))))))))))))))))))))))))))))))))))))))))))))))))))))))))))))))))))))))))",
"))))))))))))))))))))))))))))))))))))))))))))))))))))))))))))))))))))))))))))))))",
"))))))))))))))))))))))))))))))))))))))))))))))))))))))))))))))))))))))))))))))))",
"))))))))))))))))))))))))))))))))))))))))))))))))))))))))))))))))))))))))))))))))"
};
