/* XPM */
static char *xpm_[] = {
/* columns rows colors chars-per-pixel */
"80 80 140 2 ",
"   c #290606",
".  c #130606",
"X  c #311313",
"o  c #351D1D",
"O  c #861919",
"+  c #861717",
"@  c #922323",
"#  c #A63232",
"$  c #B84141",
"%  c #C55050",
"&  c #CD5F5F",
"*  c #AE6F6F",
"=  c #D37272",
"-  c #D47F7F",
";  c #DEA6A6",
":  c #8E000E",
">  c #970909",
",  c #8E0613",
"<  c #970B17",
"1  c #911818",
"2  c #9C191A",
"3  c #A50E17",
"4  c #A71B1B",
"5  c #B71D1E",
"6  c #9F201C",
"7  c #AB261B",
"8  c #B5271D",
"9  c #B8341B",
"0  c #BE1F20",
"q  c #BA2524",
"w  c #B83721",
"e  c #BD3434",
"r  c #C23535",
"t  c #C24141",
"y  c #D24949",
"u  c #C81B1D",
"i  c #D11F1F",
"p  c #C5261E",
"a  c #D5291E",
"s  c #D6341D",
"d  c #CA1B22",
"f  c #D61B23",
"g  c #DA1E31",
"h  c #C82121",
"j  c #D92626",
"k  c #C53622",
"l  c #DE312D",
"z  c #DC2C31",
"x  c #CA3939",
"c  c #DE3737",
"v  c #E13824",
"b  c #E13C3B",
"n  c #BD4317",
"m  c #BF4024",
"M  c #C44B16",
"N  c #DA411E",
"B  c #CA5717",
"V  c #D95819",
"C  c #E3411F",
"Z  c #E55A1B",
"A  c #CF6118",
"S  c #D66C18",
"D  c #DC7518",
"F  c #E6651B",
"G  c #EA761B",
"H  c #F07C1D",
"J  c #C74726",
"K  c #D44E27",
"L  c #CC5129",
"P  c #D4582B",
"I  c #E4452D",
"U  c #E44936",
"Y  c #E65237",
"T  c #DA632E",
"R  c #DD6730",
"E  c #E3612F",
"W  c #E36C32",
"Q  c #E87635",
"!  c #DF3C43",
"~  c #E03E49",
"^  c #C65C5C",
"/  c #CA6060",
"(  c #B16B6B",
")  c #BF5151",
"_  c #C76363",
"`  c #D76B6B",
"'  c #C64646",
"]  c #DB4747",
"[  c #DC5959",
"{  c #E24747",
"}  c #E2504F",
"|  c #E14A50",
" . c #E45757",
".. c #D76464",
"X. c #D07474",
"o. c #D57A7A",
"O. c #E76767",
"+. c #E87777",
"@. c #F07F7F",
"#. c #D35252",
"$. c #D56060",
"%. c #E88519",
"&. c #F28A1B",
"*. c #ED951A",
"=. c #F4991B",
"-. c #F8AA1C",
";. c #FDB51C",
":. c #EE8139",
">. c #F4883B",
",. c #FC943F",
"<. c #FFC31C",
"1. c #FC9841",
"2. c #EA8787",
"3. c #F08A8A",
"4. c #ED9595",
"5. c #F19999",
"6. c #EFAAAA",
"7. c #F2A4A4",
"8. c #EDB6B6",
"9. c #F4B9B9",
"0. c #FAC8C8",
"q. c #FDD5D5",
"w. c #1F0404",
"e. c #2C1111",
"r. c #302929",
"t. c #000000",
"y. c #3A3636",
"u. c #443030",
"i. c #782222",
"p. c #000000",
"a. c #0B0505",
"s. c #5A4C4C",
"d. c #DFA4A4",
"f. c #020000",
"g. c #060202",
"h. c #974848",
"j. c #AE2F2F",
"k. c #D75D5D",
"l. c #030202",
"z. c None",
/* pixels */
"z.z.z.z.z.z.z.z.z.z.z.z.z.z.z.z.z.z.z.z.z.z.z.z.z.z.z.z.z.z.z.z.z.z.z.z.z.z.z.z.z.z.z.z.z.z.z.z.z.z.z.z.z.z.z.z.z.z.z.z.z.z.z.z.z.z.z.z.z.z.z.z.z.z.z.z.p.p.p.p.",
"z.z.z.z.z.z.z.z.z.z.z.z.z.z.z.z.z.z.z.z.z.z.z.z.z.z.z.z.z.z.z.z.z.z.z.z.z.z.z.z.z.z.z.z.z.z.z.z.z.z.z.z.z.z.z.z.z.z.z.z.z.z.z.z.z.z.z.z.z.z.z.z.z.z.z.z.p.p.p.p.",
"z.z.z.z.z.z.z.z.z.z.z.z.z.z.z.z.z.z.z.z.z.z.z.z.z.z.z.z.z.z.z.z.z.z.z.z.z.z.z.z.z.z.z.z.z.z.z.z.z.z.z.z.z.z.z.z.z.z.z.z.z.z.z.z.z.z.z.z.z.z.z.z.z.z.z.z.p.p.p.p.",
"z.z.z.z.z.z.z.z.z.z.z.z.z.z.z.z.z.z.z.z.z.z.z.z.z.z.z.z.z.z.z.z.z.z.z.z.z.z.z.z.z.z.z.z.z.z.z.z.z.z.z.z.z.z.z.z.z.z.z.z.z.z.z.z.z.z.z.z.z.z.z.z.z.z.z.z.p.p.p.p.",
"z.z.z.z.z.z.z.z.z.z.z.z.z.z.z.z.z.z.z.z.z.z.l.l.z.z.z.z.z.z.l.z.z.z.z.z.z.z.z.z.z.z.z.z.z.z.l.l.z.z.z.z.z.z.z.z.z.z.z.z.z.z.z.z.z.z.z.z.z.z.z.z.z.z.p.p.p.p.p.p.",
"z.z.z.z.z.z.z.z.z.z.z.z.z.z.z.z.z.l.z.z.z.z.z.l.z.z.z.z.z.z.z.z.z.z.z.z.z.z.z.z.z.z.z.z.z.z.l.g.z.z.z.z.z.z.z.z.z.z.z.z.z.z.z.z.z.z.z.z.z.z.z.z.z.z.p.p.p.p.p.p.",
"z.z.z.l.z.g.#.^ ' ( _ _ _ ) ' ) ^ ^ ^ ) ) ) #.) ) ) t ) t t t t t t t t t t t t t t y #.#.) ) $.) ) ) ) ) ) ) ) ) _ ) ( _ _ ( _ ( _ _ ( ` ` ( _ % g.a.p.p.p.p.p.",
"z.z.z.z.g.t @.} | } ] ] } ' ] ' ) e ! e e ! x k e q r q r q r r r q q q q q e h e e x x x c y ' ' x ) x ' ' ' ' ' [ ' ' [ ' ' [ ' ] [ ' | [ ' ' } x a.p.p.p.p.p.",
"p.p.p.p.d.8.j b U ~ b b ~ b b { { { { { } } }  . . . . . . . .O. .O.O.O.O.O.O...O.+.O.O.O.o.O.O.o.+.+.o.o.+.+.o.2.o.2.2.o.2.2.2.2.2.2.2.2.2.4.2.6.q.a.l.g.z.z.z.",
"p.p.p.p.#.9.j l v z z b b b b b ] { { { } { } } }  . . .O. .O.O.O.O.O.O.O.O.+.+.+.+.+.@.@.@.2.2.@.3.2.2.3.4.4.3.4.4.5.5.5.5.5.4.5.7.6.6.6.6.6.6.0.q.r.g.z.z.z.z.",
"p.p.p.p.u.q.j j z z v b b b b b { c b { { { { { } } } }  . . . . .O.O. .O.O.O.O.O.+.+.+.+.+.+.@.+.@.2.@.2.2.2.2.2.2.3.3.4.4.4.4.4.4.4.4.4.4.6.4.4.0.r.g.l.z.z.z.",
"p.p.p.g.d.q.i j j z z z z z v b c b c ~ b { { { { | } } } }  . . . . .O.O.O.O.O.O.O.O.O.O.+.+.+.+.+.+.@.+.@.@.2.2.2.2.2.2.2.2.4.3.4.4.4.4.4.4.4.6.q.r.g.g.z.z.z.",
"p.p.p.p.= 0.h j j j j l j z v z b b l b c { c { { { { { | } } }  . . . .O. .O. .O.O.O.O.O.O.+.O.+.+.+.+.+.+.@.2.+.2.2.2.2.2.2.2.2.2.2.2.4.4.4.4.6.0.r.g.z.z.z.z.",
"p.p.p.p.= 9.u j j j j j j z z z z l l c b c b { ~ U { { { { { } } [ }  . . . .O.O...O.O.O.O.O.O.O.O.+.+.+.+.+.+.+.+.@.+.+.2.2.2.2.2.2.2.2.2.4.2.4.0.r.g.g.z.z.z.",
"p.p.p.p.d.0.u a f j j j j j z j z l l z c c c c c b ~ b { { { { { } } }  . . . . . .O.O.O.O.O.O.O.O.O.O.+.O.+.+.+.+.+.+.+.2.+.2.2.2.2.2.2.2.2.2.4.q.r.a.l.z.z.z.",
"p.p.p.p.= 6.u f a f i j f j j j j z z l l z l b c b b b b b { { { { { } } } } } }  . . . . . .O.O.O.O.O.O.O.O.O.+.+.+.+.+.+.+.+.+.o.2.2.2.2.2.2.4.q.r.g.g.z.z.z.",
"p.p.p.p.u.8.) ' h h j a f j j a f j j j z l l z v b z b b b b ~ b { { { { { } { } }  . . . .O. . . .O.O.O.O.O.O.O.O.+.O.+.+.+.+.+.+.+.@.+.@.@.+.4.0.a.p.z.z.z.z.",
"p.p.p.p.u.8.q x h h h j j h i j j j a j j j z l z l z b z b b b b b ~ ] ] { { { } { } }  .}  . . .O. . . .O.O.O.O.O.O.O.O.+.O.O.O.+.+.+.+.+.+.+.2.0.e.g.g.z.z.z.",
"p.p.p.p.u.6.5 h h h h h u h j j i j i j j j j j z z z v z v b b c b b U { { { { { { { } } } } }  . . .O. .O. .O.O.O.O.O.O.O.O.+.O.+.+.+.+.+.+.+.2.0.r.g.l.z.z.z.",
"p.p.p.p.d.4.4 5 d h h h p d p f j i j f j f j j j j z j l z z z c c c c b b b ~ { { { { { | { } } }  .}  . . . . .O.[  .O.O.O.O.O.O.O.O.O.+.O.+.+.0.r.a.g.z.z.z.",
"z.z.z.z.d.q.r 7 4 7 0 h h h h h h h h i f j f j j a j j j z z v l z l c b c b c c { ! { { { { { { } } } } }  . . . . .O. .O.O. .O.O.O.O.O.O.O.O.+.8.r.g.g.z.z.z.",
"z.z.z.l.= q.4 6 2 2 2 4 5 h h d p u j j a i i a j f f j j j z j z l z l l b z b c b c c b b ] { ] { | { } } } }  .}  . . . .O. .O. . .O.O.O.O.O.O.9.r.g.g.z.z.z.",
"z.z.z.z.= 8.3 2 2 6 2 2 2 4 0 q d h d h h u j i f j i j j j f j j j l z l z l z c c b c b b b b { { { { { { | } } } } }  . . . . .O. .O.O. .O.O.O.8.e.g.l.z.z.z.",
"z.z.z.z.= 8.2 6 2 4 2 2 2 2 2 2 4 5 p h h j h i a i j a f f a j j j j j j z l l l c c c b b b b b b c { { { { { ] } | } } } } }  . . . . . . .O.O.6.e.g.l.z.z.z.",
"z.z.z.z.# 0.) r 4 6 2 2 2 6 2 2 4 2 4 8 8 i p h h j p j h h j j j j j j j j j l l j v l z b b b b b b b U ~ b { { { { { { { } } } }  .}  . . . .O.7.. g.l.z.z.z.",
"z.z.z.l.u.6.r r 2 2 4 2 2 2 4 2 2 2 2 < 1 4 5 u h d d u d d d h j f f a i f j j f f z z j z z z z c c b b b b ~ ~ ~ ~ ~ { { ] { | | } } } }  .}  .9.X g.l.z.z.z.",
"z.z.z.z.1 4.2 2 4 2 2 2 4 2 2 2 2 7 7 9 7 7 2 4 5 p s k a s s a i u f j a a v v C v j a v I v v z v v I v b b v I I Y U Y U Y Y Y Y { { } } } }  .7.u.g.l.z.z.z.",
"z.z.z.l.d.6.2 2 2 2 2 6 2 2 6 < n -.-.-.-.9 < 2 < B -.-.-.-.-.-.&.Z u d i F -.=.;.H f C =.-.-.-.z Z -.-.-.H j &.-.-.-.-.-.-.-.-.;.=.Y ~ | { } { } 5.e.g.l.z.z.z.",
"z.z.z.z.$ 9.2 2 6 2 2 2 2 7 2 2 S ;.;.-.;.A 2 2 < B ;.;.-.;.-.;.;.;.H u f Z ;.-.;.&.i C -.;.;.-.j F ;.;.;.H g =.;.-.-.-.-.-.;.-.;.-.Y ! U { { { | 4.e.g.l.z.z.z.",
"z.z.z.l.@ 9.2 2 2 2 6 2 2 2 2 7 =.;.-.-.;.%.2 2 2 B ;.-.-.-.;.-.-.-.;.G u Z ;.-.;.H i s -.;.-.-.j Z ;.-.;.F f =.<.;.;.-.-.-.-.;.;.=.I b ~ ] { c | 3.e.g.l.z.z.z.",
"z.z.z.z.#.6.1 2 6 2 2 2 2 2 < M ;.;.-.-.;.=.7 2 < B ;.-.-.-.%.-.;.-.;.-.s V ;.-.;.%.u N -.-.-.-.a Z ;.-.;.G f Z H G &.-.-.-.-.H H H b c b b c { ] 3.e.g.l.z.z.z.",
"z.z.z.z.= 0.2 6 4 2 2 4 2 6 4 D ;.-.-.-.-.;.n 2 < B ;.;.;.D < M -.-.-.;.B B ;.-.;.H u N -.-.-.-.a Z ;.-.-.H f g f f Z ;.-.;.=.l g z l l c l b b { 4.X g.l.z.z.z.",
"z.z.z.z.@ 6.4 2 2 2 2 2 7 < 7 %.;.-.;.-.-.;.D 4 < B ;.;.;.D < < S ;.-.;.A B ;.-.;.%.5 s -.;.-.-.a Z ;.-.-.G i f j i Z ;.-.;.=.v z l z l l b l l b @.w.g.l.z.z.z.",
"z.z.z.l.= 6.4 2 4 2 6 4 2 < n -.;.=.%.=.;.-.-.8 < B ;.-.;.D , 7 %.;.-.;.A B ;.-.;.%.< 9 -.;.-.-.a V ;.;.;.G u i f f Z ;.-.;.&.v f j j z z j z l b @.e.g.l.z.z.z.",
"z.z.z.z.@ 0.4 2 2 6 2 2 2 < S ;.;.*.M *.;.-.;.M < B ;.-.;.G 8 D ;.-.-.;.M M <.-.;.%.7 M -.-.-.-.p Z ;.-.;.G a s a i C ;.-.;.=.s f j j j j j l l z @.e.g.l.z.z.z.",
"z.z.z.z.1 8.4 2 2 2 2 4 2 7 *.;.-.-.%.=.-.-.;.D < B ;.-.-.-.-.;.-.-.;.*.4 n ;.-.-.;.=.-.-.-.;.=.4 B ;.-.-.-.=.-.&.u Z ;.-.;.&.s f j j a j j j j l @.X g.l.z.z.z.",
"z.z.z.l.$ 9.0 2 4 2 2 4 < M ;.-.-.;.<.;.;.-.;.-.4 B ;.-.-.;.-.-.;.;.-.n , 7 D ;.;.-.;.-.;.;.;.B , B ;.;.-.-.;.;.&.u V ;.-.;.=.s f j h j f a j j j O.e.g.l.l.z.z.",
"z.z.z.l.$ 6.4 4 7 2 2 2 4 %.<.;.;.%.A %.;.;.;.;.p B <.;.;.;.;.;.-.%.9 2 2 2 7 D -.;.;.;.;.=.M 4 < S ;.;.;.;.;.;.*.u Z <.-.;.=.s f h h j j j i j j O.u.g.l.z.z.z.",
"z.z.z.l.$ 6.0 6 4 4 4 2 4 V G S S 9 , 9 S D S D 9 9 D S S S D B n 2 < 2 4 2 1 4 n A S S B 7 < 2 2 n D S S S S D B 4 9 G F G F a d h u j i f f h j O.w.g.l.z.z.z.",
"z.z.z.z.$ 7.4 4 4 4 4 4 4 4 < < 2 3 2 1 4 > 3 3 4 4 3 < < < 2 < < > 2 2 2 2 2 1 < < < 2 , < 2 1 < 4 < 2 2 < < 2 2 > < < 3 3 5 u h d p h h p j h j  .w.g.l.z.z.z.",
"z.z.z.l.@ 7.h 6 4 4 4 4 4 4 4 P T P J 7 4 J 4 3 2 2 2 7 m 2 2 2 9 T 7 1 2 8 L 7 1 6 2 1 9 J 2 J 9 < 2 2 2 2 m 7 7 P P T m 7 m w 4 q h h j h h h f O.e.a.l.z.z.z.",
"z.z.z.z.= 8.0 q 4 4 q 4 3 w W W J J W K w W 8 4 7 4 2 8 Q 4 2 2 P 1.P < 1 w ,.W 4 < 7 < m :.2 R ,.J 1 6 2 2 R m 8 >.m L m w Q w , 6 4 4 5 h h h i  .e.g.l.z.z.z.",
"z.z.z.l.O 4.0 4 4 0 4 0 5 W W 3 3 3 8 8 9 W 4 < 3 2 < 4 W 4 1 9 Q J :.7 , m Q Q Q 7 < 1 m Q 4 T T >.J , 2 2 T w w W , 1 , 7 Q w < 2 2 2 2 4 8 0 i } e.g.l.z.z.z.",
"z.z.z.l.@ 4.h 5 5 5 q 3 k W k 3 8 5 4 3 8 Q Q R R R R R Q 4 2 R L : L L , m R 7 P Q 7 , m Q 2 R 8 w Q P < 2 R w 7 >.R L 1 w Q w 1 6 2 2 2 2 2 2 u { e.g.l.z.z.z.",
"l.l.l.l.1 4.y x 5 5 8 3 k W h 3 8 5 8 3 q W K J K J J K Q 3 w 1.P J R :.3 w Q 6 , P >.7 w Q 2 T w , w >.L , R w w :.J w 1 7 Q w 1 2 2 2 6 2 6 1 5 { w.g.l.z.z.z.",
"l.l.l.l.u.4.h p d 5 0 5 p W E 3 4 5 3 5 k W 8 3 3 4 3 8 W 4 P Q L P P :.L 9 Q 7 < 2 P R L R 7 R m 1 < w Q P T w w W , 1 , w Q w , 1 2 2 2 2 2 2 3 U e.g.l.z.z.z.",
"l.l.l.l.i.2.h p 8 0 0 5 5 k >.E h k W P k W 8 3 4 4 4 8 Q k Q 4 2 4 < w Q P Q 7 2 2 < J 1.:.2 R m < 2 1 7 Q 1.w 8 :.7 w 7 w Q L 7 9 2 2 2 2 2 1 5 b e.g.l.z.z.z.",
"l.l.l.l.# 2.h h h u q d 0 u k E W E E k p I 8 5 5 5 4 5 K J L 3 4 4 2 4 J L J 7 2 2 2 2 L T 2 J 9 2 2 2 1 7 T 7 7 R T T L 7 P R R P 7 1 6 2 4 2 3 ~   g.l.z.z.z.",
"p.p.p.p.1 X.r h p h h q h 0 0 0 p p 5 5 5 5 5 5 5 5 5 4 4 4 4 4 4 4 4 4 4 4 4 2 2 2 4 2 2 2 2 4 2 2 2 2 2 2 2 2 2 2 6 4 2 2 2 2 6 6 2 2 2 2 6 1 6 c w.g.l.z.z.z.",
"p.p.p.p.O 3.x p h h h h h h d 0 5 5 0 5 0 u 5 5 5 5 5 0 0 4 5 5 4 q 4 4 4 2 4 4 4 4 2 2 2 2 2 2 2 2 2 2 2 2 2 2 2 2 2 2 2 2 2 2 2 1 2 2 2 2 6 1 2 ! w.g.l.z.z.z.",
"p.p.p.p.O 3.j f h h h h h h h h p d h u 0 0 5 8 q 5 5 5 5 5 8 5 q 4 4 4 4 4 0 4 4 4 4 6 4 4 6 2 2 2 4 2 6 2 2 6 2 2 6 2 2 2 2 2 2 6 6 6 2 2 2 2 2 z w.g.l.z.z.z.",
"p.p.p.p.O 2.j a h h h h h h h h h h h h d 0 h d 5 5 0 0 5 5 5 5 5 0 0 4 0 4 4 4 5 4 4 2 4 4 6 4 4 6 2 2 2 2 2 2 2 2 2 2 2 2 2 2 2 6 1 1 2 2 2 2 2 b w.a.l.z.z.z.",
"p.p.p.p.k.2.z f h h h h h h h h u h h d p h u u h u q 8 u 5 5 5 5 5 5 4 4 4 0 4 4 4 4 5 7 4 4 4 4 2 6 6 2 2 2 2 2 2 6 2 2 2 2 2 2 6 2 2 2 2 2 2 1 j w.g.l.l.z.z.",
"p.p.p.p.i.2.l f h h h h h h h h j h h p d h h i h h u d q d d 5 0 0 5 q 0 0 4 q 0 4 5 4 4 4 4 4 6 7 4 4 6 4 4 2 6 2 2 2 2 6 2 6 2 6 2 2 2 2 2 2 1 j . g.l.l.z.z.",
"p.p.p.p.1 3.! j e h h h h h h h i h j d h h i a h h h p p p 0 0 0 8 5 d 0 4 5 5 0 4 5 4 4 4 5 4 4 4 4 4 4 4 4 2 2 6 2 2 2 2 2 2 2 1 2 6 2 2 6 2 1 j w.g.l.z.z.z.",
"p.p.p.p.k.3.c j e h e h h h h h j i j a j j a f h h h h d h d p d h d 8 0 q 0 5 0 0 5 q 0 0 4 4 5 4 4 4 4 4 4 6 4 6 2 6 2 6 2 2 2 2 2 2 2 2 2 2 1 h w.g.l.z.z.z.",
"z.z.z.z.i.O.c j h e h h j h j h j j j f j f f a j u h h d a i i h h h 8 d 0 0 5 5 5 u 5 5 5 5 5 0 4 4 4 4 4 4 4 4 4 4 6 4 2 2 6 2 2 2 2 2 2 2 2 1 h . g.l.z.z.z.",
"z.z.z.z., O.b z h e x j x h j z j j j j j j j f a j j i j i p i h h h h d p h h q 5 q 5 8 5 5 5 5 5 5 q 4 q 4 4 4 4 4 4 4 6 4 2 6 2 2 6 2 2 2 6 1 j w.g.l.z.z.z.",
"z.z.z.g.k.2.! z x e h j x j x h j j j j j j j j f j i j d j f a h d p u d p h d p d 5 d d 5 5 5 8 5 5 4 q 5 0 4 5 4 4 4 4 4 4 4 2 4 6 2 6 2 6 2 1 h w.g.l.z.z.z.",
"z.z.z.z.O O.! ! x x x x z x j x z l z j v f j j j j j j f a j j j i h j h h h h h h h p u q p 0 0 0 5 5 5 5 4 5 4 4 0 4 4 4 4 4 4 4 2 6 2 2 2 2 1 5 w.f.l.z.z.z.",
"z.z.z.g.O :. .! c c c c x z z z z l j z l j z z j j j j j j f f a j a j h p d p h p d h p d 0 p 0 0 0 5 5 0 5 5 5 4 4 5 4 4 4 4 4 4 4 4 4 2 2 4 1 5 w.g.l.z.z.z.",
"z.z.z.z.i...| { b b c c x x x x b z b l l l z z z j j j z j j j f j f a j j j f h u h h d h h d 0 0 d 0 0 0 5 5 q 5 0 4 0 4 4 0 4 4 7 4 7 4 4 4 1 5 w.f.l.z.z.z.",
"z.z.z.g., / ] b ] b c b b x x x b l b z b l z z z l l z j j j j j j f f j i j a d j j p h h h h p h h 8 0 q 0 0 0 0 5 5 q 4 q 4 4 4 4 4 4 4 4 4 1 4 w.f.l.z.z.z.",
"z.z.z.z.i.[ } b ] ] ] b ] b x x b b b b z b c v b z l l l l l j z j j j j j j f a j f j h h h h d h h d 0 0 0 0 0 0 0 0 0 0 4 0 0 4 q 4 4 4 4 4 2 q w.f.l.z.z.z.",
"z.z.z.g.O  . .{ U ~ ~ ~ b { ~ b U b b b b b b b z b z l z l l l l z z j j j j j f j f j a a a i d j h h h p d u p 0 5 5 5 u 5 5 5 5 5 5 4 4 4 5 1 4 w.f.z.z.z.z.",
"z.z.z.z.O  .} { { { { U U ~ b { ~ b { b U b b b c b b b b z c z z l j l z z j j j j j j f f f j j p h h h h h h u q d q d 8 5 5 5 5 5 5 5 4 4 5 1 4 w.f.l.z.z.z.",
"z.z.z.z.O  . .{ { { { { { { { { U { { b b b ~ b c b c b b b c l z z z z l z z z j j j j j j j j i f j f j d h h p h h p q u 8 u 8 u 5 5 5 5 8 5 4 7 . g.l.z.z.z.",
"z.z.z.g.O {  .}  .} } } | { { { { { { { { { { { ~ U ~ b b b b b b b v b v z l l l v j j j j f i f a i p i p i i u u u u u 5 u 5 5 5 5 3 5 3 5 3 3 > w.g.l.z.z.z.",
"z.z.z.z.  2.' x x x x x x x x x x ! x J ~ ! ' x ! ! U ! x ! ' U c ] ] ' ] ] ] ] ! { ] ] ] ] ] [ [ { [ [ ] [ [ [ [ [ [ [ ..[ .. .[ O...O.[ ......X.o.w.a.l.z.z.z.",
"z.z.z.f.f.#.2.' ] ] x x x x x c x z j z x q h h 7 q 0 h d q 0 0 q q q q q q q h h d q q q r q q q q q h e k x h z b c c b b { { } }  . . .O.O.O.5.( a.a.l.z.z.z.",
"z.z.z.z.g.g.h.o o X X       o X .       .       . .         . .       . . . .   .       . .   . .   .       .                           X X     o . p.f.z.z.z.z.",
"z.z.z.z.f.g.g.w.t.t.t.t.t.t.w.a.t.t.t.t.t.t.t.t.t.t.t.t.t.t.t.t.t.t.t.t.t.. t.t.t.t.t.t.t.t.. t.t.t.t.t.t.t.t.t.t.t.t.t.t.t.t.t.t.t.t.t.w.t.w.a.t.t.g.f.z.z.z.z.",
"z.z.z.z.z.g.g.g.g.g.g.g.g.g.g.g.p.g.p.g.f.f.f.f.p.g.g.p.g.g.p.g.f.f.f.f.f.f.f.f.p.g.p.g.f.f.f.f.p.p.f.f.f.f.f.f.f.p.f.f.f.f.f.f.g.g.a.g.g.g.a.g.a.g.g.l.z.z.z.z.",
"z.z.z.z.z.l.z.l.g.z.g.g.l.g.g.g.z.l.z.l.z.l.l.l.l.l.l.l.l.l.l.l.l.l.l.l.z.z.l.f.z.l.z.l.z.l.l.l.z.z.l.z.l.l.l.l.z.z.l.l.l.l.l.l.l.l.l.l.l.l.l.l.l.l.l.z.z.z.z.z.",
"z.z.z.z.z.z.z.z.z.z.z.z.z.z.z.z.z.z.z.z.z.z.z.z.z.z.z.z.z.z.z.z.z.z.z.z.z.z.z.z.z.z.z.z.z.z.z.z.z.z.z.z.z.z.z.z.z.z.z.z.z.z.z.z.z.z.l.l.z.z.z.z.z.z.z.z.z.z.z.z.",
"z.z.z.z.z.z.z.z.z.z.z.z.z.z.z.z.z.z.z.z.z.z.z.z.z.z.z.z.z.z.z.z.z.z.z.z.z.z.z.z.z.z.z.z.z.z.z.z.z.z.z.z.z.z.z.z.z.z.z.z.z.z.z.z.z.z.z.z.z.z.z.z.z.z.z.z.z.z.z.z.",
"z.z.z.z.z.z.z.z.z.z.z.z.z.z.z.z.z.z.z.z.z.z.z.z.z.z.z.z.z.z.z.z.z.z.z.z.z.z.z.z.z.z.z.z.z.z.z.z.z.z.z.z.z.z.z.z.z.z.z.z.z.z.z.z.z.z.z.z.z.z.z.z.z.z.z.z.z.z.z.z.",
"z.z.z.z.z.z.z.z.z.z.z.z.z.z.z.z.z.z.z.z.z.z.z.z.z.z.z.z.z.z.z.z.z.z.z.z.z.z.z.z.z.z.z.z.z.z.z.z.z.z.z.z.z.z.z.z.z.z.z.z.z.z.z.z.z.z.z.z.z.z.z.z.z.z.z.z.z.z.z.z.",
"z.z.z.z.z.z.z.z.z.z.z.z.z.z.z.z.z.z.z.z.z.z.z.z.z.z.z.z.z.z.z.z.z.z.z.z.z.z.z.z.z.z.z.z.z.z.z.z.z.z.z.z.z.z.z.z.z.z.z.z.z.z.z.z.z.z.z.z.z.z.z.z.z.z.z.z.z.z.z.z.",
"z.z.z.z.z.z.z.z.z.z.z.z.z.z.z.z.z.z.z.z.z.z.z.z.z.z.z.z.z.z.z.z.z.z.z.z.z.z.z.z.z.z.z.z.z.z.z.z.z.z.z.z.z.z.z.z.z.z.z.z.z.z.z.z.z.z.z.z.z.z.z.z.z.z.z.z.z.z.z.z."
};
