/* XPM */
static char *xpm_[] = {
/* columns rows colors chars-per-pixel */
"80 80 28 1 ",
"  c #6B2466",
". c #6B2466",
"X c #6B2466",
"o c #6B2466",
"O c #6B2466",
"+ c #6B2466",
"@ c #6B2466",
"# c #6B2466",
"$ c #6B2466",
"% c #6B2466",
"& c #6B2466",
"* c #6B2466",
"= c #6B2466",
"- c #6B2466",
"; c #6B2466",
": c #6B2466",
"> c #6B2466",
", c #6B2466",
"< c #6B2466",
"1 c #6B2466",
"2 c #6B2466",
"3 c #6B2466",
"4 c #6B2466",
"5 c #6B2466",
"6 c #6B2466",
"7 c #6B2466",
"8 c #6B2466",
"9 c None",
/* pixels */
"99999999999999999999999999999999999999999999999999999999999999999999999999999999",
"99999999999999999999999999999999999999999999999999999999999999999999999999999999",
"99999999999999999999999999999999999999999999999999999999999999999999999999999999",
"99999999999999999999999999999999999999999999999999999999999999999999999999999999",
"99999999999999999999999999999999999999999999999999999999999999999999999999999999",
"99999999999999999999999999999999999999999999999999999999999999999999999999999999",
"99999999999999999999999999999999999999999999999999999999999999999999999999999999",
"99999999999999999999999999999999999999999999999999999999999999999999999999999999",
"99999999999999999999999999999999999999999999999999999999999999999999999999999999",
"99999999999999999999999999999999999999999999999999999999999999999999999999999999",
"99999999999999999999999999999999999999999999999999999999999999999999999999999999",
"99999999999999999999999999999999999999999999999999999999999999999999999999999999",
"99999999999999999999999999999999999999999999999999999999999999999999999999999999",
"99999999999999999999999999999999999999999999999999999999999999999999999999999999",
"99999999999999999999999999999999999999999999999999999999999999999999999999999999",
"99999999999999999999999999999999999999999999999999999999999999999999999999999999",
"99999999999999999999999999999999999999999999999999999999999999999999999999999999",
"99999999999999999999999999999999999999999999999999999999999999999999999999999999",
"99999999999999999999999999999999999999999999999999999999999999999999999999999999",
"99999999999999999999999999999999999999999999999999999999999999999999999999999999",
"99999999999999999999999999999999999999999999999999999999999999999999999999999999",
"99999995@**O-99- +*@1999999999999999999999999999999999999999995-#378999999999999",
"99999995XXXXX99=XXXX2999999999999999999999999999999999999999995XXXXX*49999999999",
"99999995XXXXX99=XXXX-999999999999999999999999999999999999999995XXXXXXXX199999999",
"99999995XXXXX99-XXXX1999999999999999999999999999999999999999991XXXXXXXXX-9999999",
"999999995555899988889999999999999999999999999999999999999999995XXXXXXXXXX 999999",
"999999999999995999999999999999999999999999999999999999999999998XXXXXXXXXXX=99999",
"999999999999999999999999999999999999999999999999999999999999998XXXX&9@XXXXX19999",
"9999999999999981-=+&999-o=+-991X&++89999====19998XX.X. &-999991XXXX&99@XXXXO9999",
"999999999999,+XXXXXX899 XXX@993XXXX89998XXXX29992XXXXXXXXX19998XXXX&999XXXXX8999",
"9999999999,XXXXXXXXX899 XXX*992XXXX89998XXXX3999=XXXXXXXXXX9998XXXX&999-XXXX-999",
"999999999-XXXXXXXXXX599XXXX@99-XXXX89991XXXX-998XXXXXXXXXXX-998XXXXO9998XXXX=999",
"99999999 XXXXXXXXXXX899OXXX@99,XXXX89998XXXX299-XXXXO7oXXXX.999XXXX&9999.XXXO999",
"9999999@XXXXXXOXXXXX899 XXX@99$XXXX89995XXXX,99OXXXXX99XXXX 998XXXX&9999&XXXO999",
"999999$XXXXXX793XXXX199oXXX 99$XXXX99991XXXX-998.XXXX-9XXXX,998XXXX&9999&XXXO999",
"999995XXXXXX999$XXXX599XXXXX99,XXXX99998XXXX39999XXXXX=XXXX8999XXXX&9999&XXX 999",
"99999OXXXXo9999$XXXX798XXXX.993XXXX89895XXXX,99993XXXXXXXX*9998XXXX&9999&XXXo999",
"99998XXXXX89999$XXXX899XXXXO99$XXXX89991XXXX$99998XXXXXXXX48557XXXX=9999=XXX.999",
"9999$XXXX=99999;XXXX.#$XXXXXo XXXXX89991XXXXXOo+oOXXXXXXXXXXXXXXXXX-9999&XXX 999",
"9999XXXXX899999$XXXXXXXXXXXXXXXXXXX89995XXXXXXXXXXXXXXXXXXXXXXXXXXX+9599=XXXO999",
"9996XXXX@999999;XXXXXXXXXXXXXXXXXXX99994XXXXXXXXXXXXXXXXXXXXXXXXXXX-9999=XXX+999",
"999$XXXX2999999#XXXXXXXXXXXXXXXXXXX89994XXXXXXXXXXXXXXXXXXXXXXXXXXX+9999=XXXX999",
"999$ @o*89999994=##%%%$%-%%=#%%%#&-99998XXXX 1$;,<<<,<::,,;;<<,,,,,,9999,+=+$999",
"9999999999999999999999999999999999999991XXXX499999999999999999999999999999999999",
"999999999999999999999999999999999999999XXXXX999999999899999999999999999999999999",
"9999999999999991=##&795*#;=,994*#--99-XXXXX*999999999999999999999999999999999999",
"999999999999999*XXXX$92XXXXO99$XXXX99=XXXXX8999999999999999999999999999999999999",
"999999999999999=XXXX391XXXXo99>XXXo99-XXXX49999999999999999999999999999999999999",
"999999999999999=XXXX;93XXXXX99$XXXX99.XXX799999999999999999999999999999999999999",
"99999999999999981441898141789981448996159999999999999999999999999999999999999999",
"99999999999999999999999999999999999999999999999999999999999999999999999999999999",
"99999999999999999999999999999999999999999999999999999999999999999999999999999999",
"99999999999999999999999999999999999999999999999999999999999999999999999999999999",
"99999999999999999999999999899999999999999999998999999999999999999999999999999999",
"99999-&9-$998X49999999@999-8999999995$9179999999999999<$4:99999999999999999,9999",
"99998  92&99- &9$&7$&8o+O9$2-8-6&-996X731838491944,89$199=$391392,393$59325$9999",
"99992.X13O99X&X9X18:X4O8*#X1 &=8=X791,$,1&2=;4*7,:,99&999%4-58@4%5$2-5$,$$,$9999",
"9999X1-@3@91X8X2X8-XX,X-.7X66X8X=X492,9X1*468X8X69*19$<99#9;>$:,$9,,$9%,$55$9999",
"99991991119819814881787,6949$ 954489579187;691929428993$6494633529555939,3929999",
"9999999999999999999999999999#999999999999999999999999999999999999999999999999999",
"99999999999999999999999999999999999999999999999999999999999999999999999999999999",
"99999999999999999999999999999999999999999999999999999999999999999999999999999999",
"99999999999999999999999999999999999999999999999999999999999999999999999999999999",
"99999999999999999999999999999999999999999999999999999999999999999999999999999999",
"99999999999999999999999999999999999999999999999999999999999999999999999999999999",
"99999999999999999999999999999999999999999999999999999999999999999999999999999999",
"99999999999999999999999999999999999999999999999999999999999999999999999999999999",
"99999999999999999999999999999999999999999999999999999999999999999999999999999999",
"99999999999999999999999999999999999999999999999999999999999999999999999999999999",
"99999999999999999999999999999999999999999999999999999999999999999999999999999999",
"99999999999999999999999999999999999999999999999999999999999999999999999999999999",
"99999999999999999999999999999999999999999999999999999999999999999999999999999999",
"99999999999999999999999999999999999999999999999999999999999999999999999999999999",
"99999999999999999999999999999999999999999999999999999999999999999999999999999999",
"99999999999999999999999999999999999999999999999999999999999999999999999999999999",
"99999999999999999999999999999999999999999999999999999999999999999999999999999999",
"99999999999999999999999999999999999999999999999999999999999999999999999999999999",
"99999999999999999999999999999999999999999999999999999999999999999999999999999999",
"99999999999999999999999999999999999999999999999999999999999999999999999999999999",
"99999999999999999999999999999999999999999999999999999999999999999999999999999999"
};
