/* XPM */
static char *xpm_[] = {
/* columns rows colors chars-per-pixel */
"80 80 67 1 ",
"  c #000000",
". c #350007",
"X c #47000A",
"o c #6E000F",
"O c #740010",
"+ c #E40020",
"@ c #970116",
"# c #A50017",
"$ c #BF001B",
"% c #E40020",
"& c #E40020",
"* c #E40020",
"= c #DF0000",
"- c #E40020",
"; c #E40020",
": c #E40020",
"> c #E1000A",
", c #E30019",
"< c #F2001D",
"1 c #E40020",
"2 c #F20022",
"3 c #E6102E",
"4 c #E71835",
"5 c #E7213D",
"6 c #E40020",
"7 c #E92B46",
"8 c #E9334D",
"9 c #EA3A53",
"0 c #EB455C",
"q c #EC4C62",
"w c #ED5368",
"e c #EE5E72",
"r c #EF6679",
"t c #F06D7F",
"y c #E40020",
"u c #E40020",
"i c #E40020",
"p c #E40020",
"a c #F06E81",
"s c #F07687",
"d c #F28796",
"f c #F3909E",
"g c #F49AA6",
"h c #F5A2AD",
"j c #F6A9B4",
"k c #F7B2BC",
"l c #F8BBC3",
"z c #F9C5CD",
"x c #FACCD3",
"c c #FAD5DB",
"v c #FBDCE1",
"b c #FCE6E9",
"n c #FDEEF0",
"m c #FFFEFE",
"M c #E40020",
"N c #E40020",
"B c #E40020",
"V c #E40020",
"C c #E40020",
"Z c #E40020",
"A c #E40020",
"S c #E40020",
"D c #E40020",
"F c #E40020",
"G c #E40020",
"H c #E40020",
"J c None",
/* pixels */
"JJJJJJJJJJJJJJJJJJJJJJJJJJJJJJJJJJJJJJJJJJJJJJJJJJJJJJJJJJJJJJJJJJJJJJJJJJJJJJJJ",
"JJJJJJJJJJJJJJJJJJJJJJJJJJJJJJJJJJJJJJJJJJJJJJJJJJJJJJJJJJJJJJJJJJJJJJJJJJJJJJJJ",
"JJJJJJJJJJJJJJJJJJJJJJJJJJJJJJJJJJJJJJJJJJJJJJJJJJJJJJJJJJJJJJJJJJJJJJJJJJJJJJJJ",
"JJJJJJJJJJJJJJJJJJJJJJJJJJJJJJJJFZpi6;:111;;&ipZFJJJJJJJJJJJJJJJJJJJJJJJJJJJJJJJ",
"JJJJJJJJJJJJJJJJJJJJJJJJJJJJJZp&:111111,1111111116pMJJJJJJJJJJJJJJJJJJJJJJJJJJJJ",
"JJJJJJJJJJJJJJJJJJJJJJJJJJFp;2111111111111111,111111$pHJJJJJJJJJJJJJJJJJJJJJJJJJ",
"JJJJJJJJJJJJJJJJJJJJJJJJZi1121:1111111111111111111,1111pFJJJJJJJJJJJJJJJJJJJJJJJ",
"JJJJJJJJJJJJJJJJJJJJJJFi11111111111111111111111111111-1126ZJJJJJJJJJJJJJJJJJJJJJ",
"JJJJJJJJJJJJJJJJJJJJJp111111111111111111111111111111111,221pJJJJJJJJJJJJJJJJJJJJ",
"JJJJJJJJJJJJJJJJJJJZ%211111111111111111111111111111111112111;ZJJJJJJJJJJJJJJJJJJ",
"JJJJJJJJJJJJJJJJJJ+1211111111111111,11111111111111111111111111+JJJJJJJJJJJJJJJJJ",
"JJJJJJJJJJJJJJJJJu11111111111,1111111111,1111111111111111111111iJJJJJJJJJJJJJJJJ",
"JJJJJJJJJJJJJJJJ&211111111111111111111111111111111111111111111:1&JJJJJJJJJJJJJJJ",
"JJJJJJJJJJJJJJJ;1,111111111111111111111,1111111,11,111111111111116FJJJJJJJJJJJJJ",
"JJJJJJJJJJJJJJ;211111111,1111111111111111111111211111111111,111111;JJJJJJJJJJJJJ",
"JJJJJJJJJJJJJ&11111111111111111111111111111111111111111111111111112&JJJJJJJJJJJJ",
"JJJJJJJJJJJJu111111111111111111111,1111111111111111111111111111111,1uJJJJJJJJJJJ",
"JJJJJJJJJJJ+11111111,111111111111121111111111111111111,11111111111112ZJJJJJJJJJJ",
"JJJJJJJJJJF11111111111111111111,11111111111111111111111111111111111121FJJJJJJJJJ",
"JJJJJJJJJJ611111111111111111111111111111111111111111111111111,21111111%JJJJJJJJJ",
"JJJJJJJJJ+1,11111111111111111111111111111111111111111111111111111111111+JJJJJJJJ",
"JJJJJJJJF1111111111,11111,111111111111111111111111111111111111111111111:FJJJJJJJ",
"JJJJJJJJu11111111111111111111111111111111111111111111111,111111111111,11iJJJJJJJ",
"JJJJJJJF1111111,1111111111111111111111,111111111111,111111111111111111112FJJJJJJ",
"JJJJJJJu1:1111111111111111111111111111111111,1111111111111111111,11111111uJJJJJJ",
"JJJJJJF11111111111111111111111111,1111111111111111111111111111111111111111FJJJJJ",
"JJJJJJN111111111111111111111,111111111111111111111111111111111111111111111+JJJJJ",
"JJJJJJ611111111111111111111131111111111111111111111111,1111111,11111111111;JJJJJ",
"JJJJJF11111111111111111111,>,>,11111111111,,,>,,11111111111111221111111,111FJJJJ",
"JJJJJp11111,111111111111,300ww8,11111,,,1,7wqqw4,111111111111:X.611111111:2+JJJJ",
"JJJJJ&2,1111111111111111,rmmmmb11111,5s5,1bmmmmk,111111111112O  X2111111111&JJJJ",
"JJJJJ11111111111111,1111,4rrlmc11111,cmc1,0rrcmz,111111111112@  o2111111111;JJJJ",
"JJJJZ11111111,1,111111111,,>9mc311111xmx11,>>smk,11,,11,111112#@111111111111ZJJJ",
"JJJJN11111111,,,,,,>1111111,7mv111,,>4r3,113>amk,,,1,,,311,,1,22,11111111111NJJJ",
"JJJJp2111,11,7dlcxkr1,11111,8mc11,7zllls1111,smj>rzcxh0,11,gvxxc8,1111111111uJJJ",
"JJJJ&11111,,tmmncbmmk111111,7mb11,wmmmmn1113>smghmmnmmmf,1,xmmmms,11,1111111&JJJ",
"JJJJ;11111,9mmq1,,0bmw,1111,8mv111100hmb3,11>smmma434smms,,380bma>11111111116JJJ",
"JJJJ611111>smn8,31>dmf>1111,7mv111,,>7mv1,11,smme>1,,>rmm5,,-=hmt>3,1111,1116JJJ",
"JJJJ111111,0mms>1,>smj>11,1,7mb11111,7mb3,11>smx,1111,,xms>31,gma,11111111111JJJ",
"JJJJ1111111,0w,,13wbmj,3111,8mc1111,,7mb311,,amg,11113>dmk,11,gma,11111111111JJJ",
"JJJJ1111111,,8djcmmmmj,11,1,8mv11111,5mb1,11>smf,11111>rmz,11>gmt>11111111111JJJ",
"JJJJ:11111,8cmmmbztrmj,1311,7mb1,111,7mb3,11,amd>11111,emx113,gma,11111111111JJJ",
"JJJJ;111111cmk94,,>0mj,,>1,,8mv11111,5mb3,13,amf,11111>aml,11>gma>11111111,1;JJJ",
"JJJJ%1,11,8mc1,,11,emj>8r11,7mv11111,7mb1111>smh>311,3,jmf>11,gma>3111111111;JJJ",
"JJJJ61111,0ml>311,>jmj>fm31,7mv111,1,7mb1111,smv1,111>8mm0,13,gmr>1111111111&JJJ",
"JJJJu1111,5mm8>,,1dmmk=fm3,>0mb3,,,,>9mn4,,,>smmg,>,,7cml,1,,,kmg>1,11111111uJJJ",
"JJJJZ11111,gmnhdjnmjbmhmb9xznmmvch8zznmmbxk3>dmnmbjglmmc3,,gbbmmmvbr,1111111+JJJ",
"JJJJZ11111,1gnmmmvt>tmmmq8bbcccvnk0bbccccbz3>rms9cmmmcd3,1,gbcccccbr,11,1111ZJJJ",
"JJJJJ1211111,37851>1,483,,,,111,1,,,,1,1,1,,1141,,4741,1111,,111,1,,1111111;JJJJ",
"JJJJJ&1111111,,,,11111,11111111111111111111111,111,,,1111111111111111111112&JJJJ",
"JJJJJ+1:111111111111111111111111111111111111111111,111111111111111111111111NJJJJ",
"JJJJJF11111,1111111111111111,1111111111111111111111111111111111111111111112FJJJJ",
"JJJJJJ611111111111111111111111111111111111111111111111111111111111111111116JJJJJ",
"JJJJJJ+2111111111111111111111111111111111111111111111111111111111111111111NJJJJJ",
"JJJJJJF2111111111,1111111111111111111111111111111111111111111111111111111:FJJJJJ",
"JJJJJJJp111111,11111111111111111111111111111111111111,1111,111111111111:1uJJJJJJ",
"JJJJJJJM111111111111111111111111111111111111111111111111111111111111111,2FJJJJJJ",
"JJJJJJJJu11111111111111111111111111,1111111111111111111111,1111111111111uJJJJJJJ",
"JJJJJJJJJ211111111111121111111,1121111111111111,1111111,1111111111111111FJJJJJJJ",
"JJJJJJJJJp1,1111111111,11111111111111111111111121111111111211111,111111+JJJJJJJJ",
"JJJJJJJJJJ62:11111111111111,111111111111111111111111111111111111111111;JJJJJJJJJ",
"JJJJJJJJJJF211111,1111111111111111111111,1111111111,111111111111111111FJJJJJJJJJ",
"JJJJJJJJJJJZ1,1111111111111111111111111111111111111111111111111111111ZJJJJJJJJJJ",
"JJJJJJJJJJJJu11111111111111111111111,1111111111111111111111,11111112&JJJJJJJJJJJ",
"JJJJJJJJJJJJJ&1:1111111111111111111111111111111111111111111111111,26JJJJJJJJJJJJ",
"JJJJJJJJJJJJJJ;2111111111,11111111111111111,1111111111111111111111:JJJJJJJJJJJJJ",
"JJJJJJJJJJJJJJF;1:111111111111111111111111111111,11111111111111:1$JJJJJJJJJJJJJJ",
"JJJJJJJJJJJJJJJJ&1,111111111111111,11111111111121111111111111111&JJJJJJJJJJJJJJJ",
"JJJJJJJJJJJJJJJJJi1111111111111,1111111111111111111111111111111&JJJJJJJJJJJJJJJJ",
"JJJJJJJJJJJJJJJJJJ+21:11111111111111111111111111111111,1111,11+JJJJJJJJJJJJJJJJJ",
"JJJJJJJJJJJJJJJJJJJZ%211111111111111111111111111111111111111;ZJJJJJJJJJJJJJJJJJJ",
"JJJJJJJJJJJJJJJJJJJJJu11111111111111111,111111,111111111111pJJJJJJJJJJJJJJJJJJJJ",
"JJJJJJJJJJJJJJJJJJJJJJZp111111111111111111111111111111111iFJJJJJJJJJJJJJJJJJJJJJ",
"JJJJJJJJJJJJJJJJJJJJJJJJFi111,111111111111111111111,121iMJJJJJJJJJJJJJJJJJJJJJJJ",
"JJJJJJJJJJJJJJJJJJJJJJJJJJMp$11111111111111111211111:pFJJJJJJJJJJJJJJJJJJJJJJJJJ",
"JJJJJJJJJJJJJJJJJJJJJJJJJJJJJZp&:1111111111111221&pZJJJJJJJJJJJJJJJJJJJJJJJJJJJJ",
"JJJJJJJJJJJJJJJJJJJJJJJJJJJJJJJJFZpi66:2,1:%6ppZFJJJJJJJJJJJJJJJJJJJJJJJJJJJJJJJ",
"JJJJJJJJJJJJJJJJJJJJJJJJJJJJJJJJJJJJJJJJJJJJJJJJJJJJJJJJJJJJJJJJJJJJJJJJJJJJJJJJ",
"JJJJJJJJJJJJJJJJJJJJJJJJJJJJJJJJJJJJJJJJJJJJJJJJJJJJJJJJJJJJJJJJJJJJJJJJJJJJJJJJ",
"JJJJJJJJJJJJJJJJJJJJJJJJJJJJJJJJJJJJJJJJJJJJJJJJJJJJJJJJJJJJJJJJJJJJJJJJJJJJJJJJ"
};
