/* XPM */
static char *xpm_[] = {
/* columns rows colors chars-per-pixel */
"80 80 75 1 ",
"  c #9EA0A2",
". c #F68A00",
"X c #9EA0A2",
"o c #9EA0A2",
"O c #9EA0A2",
"+ c #9EA0A2",
"@ c #9EA0A2",
"# c #9EA0A2",
"$ c #9EA0A2",
"% c #9EA0A2",
"& c #9EA0A2",
"* c #9EA0A2",
"= c #F68A00",
"- c #F68A00",
"; c #F68A00",
": c #F68A00",
"> c #F68A00",
", c #F68A00",
"< c #F68A00",
"1 c #F68A00",
"2 c #F68A00",
"3 c #F68A00",
"4 c #F68A00",
"5 c #F68A00",
"6 c #F68A00",
"7 c #F68A00",
"8 c #F68A00",
"9 c #F68A00",
"0 c #F68A00",
"q c #F68A00",
"w c #F68A00",
"e c #9EA0A2",
"r c #9EA0A2",
"t c #9EA0A2",
"y c #9EA0A2",
"u c #9EA0A2",
"i c #9EA0A2",
"p c #9EA0A2",
"a c #9EA0A2",
"s c #9EA0A2",
"d c #9EA0A2",
"f c #9EA0A2",
"g c #F68A00",
"h c #9EA0A2",
"j c #9EA0A2",
"k c #9EA0A2",
"l c #9EA0A2",
"z c #F68A00",
"x c #F68A00",
"c c #F68A00",
"v c #F68A00",
"b c #F68A00",
"n c #F68A00",
"m c #F68A00",
"M c #F68A00",
"N c #F68A00",
"B c #9EA0A2",
"V c #9EA0A2",
"C c #9EA0A2",
"Z c #9EA0A2",
"A c #9EA0A2",
"S c #9EA0A2",
"D c #F68A00",
"F c #9EA0A2",
"G c #F68A00",
"H c #F68A00",
"J c #F68A00",
"K c #F68A00",
"L c #9EA0A2",
"P c #9EA0A2",
"I c #A0A09E",
"U c #F68A00",
"Y c #F68A00",
"T c #9EA0A2",
"R c None",
/* pixels */
"RRRRRRRRRRRRRRRRRRRRRRRRRRRRRRRRRRRRRRRRRRRRRRRRRRRRRRRRRRRRRRRRRRRRRRRRRRRRRRRR",
"RRRRRRRRRRRRRRRRRRRRRRRRRRRRRRRRRRRRRRRRRRRRRRRRRRRRRRRRRRRRRRRRRRRRRRRRRRRRRRRR",
"RRRRRRRRRRRRRRRRRRRRRRRRRRRRRRRRRRRRRRRRRRRRRRRRRRRRRRRRRRRRRRRRRRRRRRRRRRRRRRRR",
"RRRRRRRRRRRRRRRRRRRRRRRRRRRRRRRRRRRRRRRRRRRRRRRRRRRRRRRRRRRRRRRRRRRRRRRRRRRRRRRR",
"RRRRRRRRRRRRRRRRRRRRRRRRRRRRRRRRRRRRRRRRRRRRRRRRRRRRRRRRRRRRRRRRRRRRRRRRRRRRRRRR",
"RRRRRRRRRRRRRRRRRRRRRRRRRRRRRRRUM.1-qqwR2qq;-3nYRRRRRRRRRRRRRRRRRRRRRRRRRRRRRRRR",
"RRRRRRRRRRRRRRRRRRRRRRRRRRRIg8qqqqqqqq6Rmqqqqqqqq1bURRRRRRRRRRRRRRRRRRRRRRRRRRRR",
"RRRRRRRRRRRRRRRRRRRRRRRRRG=qqqqqqqqqqqIRR;qqqqqqqqqq;gIRRRRRRRRRRRRRRRRRRRRRRRRR",
"RRRRRRRRRRRRRRRRRRRRRRRKwqqqqqqqqqqqqbRRRKqqqqqqqqqqqqqzRRRRRRRRRRRRRRRRRRRRRRRR",
"RRRRRRRRRRRRRRRRRRRRIM>qqqqqqqqqqqqqqRRRRR1qqqqqqqqqqqqqqvRRRRRRRRRRRRRRRRRRRRRR",
"RRRRRRRRRRRRRRRRRRRR,qqqqqqqqqqqqqqqGIRRRRIqqqqqqqqqqqqqqq-URRRRRRRRRRRRRRRRRRRR",
"RRRRRRRRRRRRRRRRRRJqqqqqqqqqqqqqqqq6RRRRRRRzqqqqqqqqqqqqqqqqvRRRRRRRRRRRRRRRRRRR",
"RRRRRRRRRRRRRRRRRzqqqqqqqqqqqqqqqqqIRRRRRRRRqqqqqqqqqqqqqqqqq8RRRRRRRRRRRRRRRRRR",
"RRRRRRRRRRRRRRRRnqqqqqqqqqqqqqqqqqMRRRRRRRIRDqqqqqqqqqqqqqqqqq:RRRRRRRRRRRRRRRRR",
"RRRRRRRRRRRRRRR9qqqqqqqqqqqqqqqqqqRRRRRRRRRRR=qqqqqqqqqqqqqqqqq=RRRRRRRRRRRRRRRR",
"RRRRRRRRRRRRRRvqqqqqqqqqqqqqqqqqqDRRRRRRRRRRRUqqqqqqqqqqqqqqqqqq9RRRRRRRRRRRRRRR",
"RRRRRRRRRRRRRMqqqqqqqqqqqqqqqqqq1RRRRRRRRRRRRRnqqqqqqqqqqqqqqqqqqgRIRRRRRRRRRRRR",
"RRRRRRRRRRRRRwqqqqqqqqqqqqqqqqqqIRRRRRRRRRRRRRRqqqqqqqqqqqqqqqqqqqYRRRRRRRRRRRRR",
"RRRRRRRRRRRR9qqqqqqqqqqqqqqqqqqHRRRRRRRRRRRRRRRHqqqqqqqqqqqqqqqqqqwRRRRRRRRRRRRR",
"RRRRRRRRRRRR0qqqqqqqqqqqqqqqqqwRRRRRRRRRRRRRRRRR6qqqqqqqqqqqqqqqqqqJRRRRRRRRRRRR",
"RRRRRRRRRRR9qqqqqqqqqqqqqqqqqqJRRRRRRRRRRRRRRRRRIqqqqqqqqqqqqqqqqqq7RRRRRRRRRRRR",
"RRRRRRRRRRR,qqqqqqqqqqqqqqqqqwRRRRRRRRRRRRRRRRRRRnqqqqqqqqqqqqqqqqqqIRRRRRRRRRRR",
"RRRRRRRRRRKqqqqqqqqqqqqqqqqq0RRRRRRRRRRRRRRRRRRRRRqqqqqqqqqqqqqqqqqq9RRRRRRRRRRR",
"RRRRRRRRRRvqqqqqqqqqqqqqqqqqgRRRRRRRRRRRRRRRRRRRRRDqqqqqqqqqqqqqqqqq8RRRRRRRRRRR",
"RRRRRRRRRR1qqqqqqqqqqqqqqqqwRRRRRRRRRRRRRRRRRRRRRRR1qqqqqqqqqqqqqqqqwRRRRRRRRRRR",
"RRRRRRRRRR=qqqqqqqqqqqqqqqqRRRRRRRRIRRRRRRRRRRRRRRRRqqqqqqqqqqqqqqqq0RRRRRRRRRRR",
"RRRRRRRRRR,qqqqqqqqqqqqqqq9RRRRRRRRRRRRRRRRRRRRRRRRRgqqqqqqqqqqqqqqqqRRRRRRRRRRR",
"RRRRRRRRRR,qqqqqqqqqqqqqqqRRRRRRRRJN75qq;-5nDIRRRRRRR;qqqqqqqqqqqqqqqRRRRRRRRRRR",
"RRRRRRRRRR,qqqqqqqqqqqqqqNRRRRRRnwqqqqqqqqqqqq6URRRRRJqqqqqqqqqqqqqqqRRRRRRRRRRR",
"RRRRRRRRRR4qqqqqqqqqqqqqwRRRRR9qqqqqqqqqqqqqqqqq4IRRRR8qqqqqqqqqqqqqwRRRRRRRRRRR",
"RRRRRRRRRR9q0qqqqqqqqqqqRRRRD0qqqqqqqqqqqqqqqqqqqqmIRRIqqqqqqqqqqqqq8RRRRRRRRRRR",
"RRRRRRRRRRMqqqqqqqqqqqq9RRR9qqqqqqqqqqqqqqqqqqqqqqq3RRRgqqqqqqqqqqqq9RRRRRRRRRRR",
"RRRRRRRRRRRqqqqqqqqqqqqIRRzqqqqqqqqqqqqqqqqqqqqqqqqq2RRR-qqqqqqqqqqqIRRRRRRRRRRR",
"RRRRRRRRRRR3qqqqqqqqqqMRRmqqqqqqqqqqqqqqqqqqqqqqqqqqq8RRUqqqqqqqqqqwRRRRRRRRRRRR",
"RRRRRRRRRRRYqqqqqqqqq<RRKqqqqqqqqqqqqqqqqqqqqqqqqqqqqqvRR8qqqqqqqqqbRRRRRRRRRRRR",
"RRRRRRRRRRRR1qqqqqqqqURIqqqqqqqqqqqqqqqqqqqqqqqqqqqqqqqURIqqqqqqqqqIRRRRRRRRRRRR",
"RRRRRRRRRRRRDqqqqqqq6RR6qqqqqqqqqqqqqqqqqqqqqqqqqqqqqqq,RRKqqqqqqqLRRRRRRRRRRRRR",
"RRRRRRRRRRRRRzqqqqqqIRUqqqqqqqqqqqqqqqqqqqqqqqqqqqqqqqqqgRRqqqqqq7RRRRRRRRRRRRRR",
"RRRRRRRRRRRRRR8qqqqHRRcqqqqqqqqqqqqqqqqqqqqqqqqqqqqqqqqqqRRDqqqq0RRRRRRRRRRRRRRR",
"RRRRRRRRRRRRRRRqqq-RRRqqqqqqqqqqqqqqqqqqqqqqqqqqqqqqqqqqqURRcqqqIRRRRRRRRRRRRRRR",
"RRRRRRRRRRRRRRRR-qDRRKqqqqqqqqqqqqqqqqqqqqqqqqqqqqqqqqqqqzRRRqqYRRRRRRRRRRRRRRRR",
"RRRRRRRRRRRRRRRRUKRIR6qqqqqqqqqqqqqqqqqqqqqqqqqqqqqqqqqqq>RRRgGRRRRRRRRRRRRRRRRR",
"RRRRRRRRRRRRRRRRRRRRR8qqqqqqqqqqqqqqqqqqqqqqqqqqqqqqqqqqqqRRRRRIRRRRRRRRRRRRRRRR",
"RRRRRRRRRRRRRRRRRRRRRqqqqqqqqqqqqqqqqqqqqqqqqqqqqqqqqqqqqqIRRRRRRRRRRRRRRRRRRRRR",
"RRRRRRRRRRRRRRRRRRRRR6qqqqqqqqqqqqqqqqqqqqqqqqqqqqqqqqqqqqIRRRRRRRRRRRRRRRRRRRRR",
"RRRRRRRRRRRRRRRRRRRRRRHqqqqqqqqqqqqqqqqqqqqqqqqqqqqqqqqqzRRRRRRRRRRRRRRRRRRRRRRR",
"RRRRRRRRRRRRRRRRRRRRRRRI4qqqqqqqqqqqqqqqqqqqqqqqqqqqqqqDRRRRRRRRRRRRRRRRRRRRRRRR",
"RRRRRRRRRRRRRRRRRRRRRRRRRJqqqqqqqqqqqqqqqqqqqqqqqqqqqvRRRRRRRRRRRRRRRRRRRRRRRRRR",
"RRRRRRRRRRRRRRRRRRRRRRRRRRR5qqqqqqqqqqqqqqqqqqqqqqq:URRRRRRRRRRRRRRRRRRRRRRRRRRR",
"RRRRRRRRRRRRRRRRRRRRRRRRRRRRHqqqqqqqqqqqqqqqqqqqqqnRRRRRRRRRRRRRRRRRRRRRRRRRRRRR",
"RRRRRRRRRRRRRRRRRRRRRRRRRRRRRI3qqqqqqqqqqqqqqqqqqDRRRRRRRRRRRRRRRRRRRRRRRRRRRRRR",
"RRRRRRRRRRRRRRRRRRRRRRRRRRRRRRRKqqqqqqqqqqqqqqqvRRRRRRRRRRRRRRRRRRRRRRRRRRRRRRRR",
"RRRRRRRRRRRRRRRRRRRRRRRRRRRRRRRRR7qqqqqqqqqqq-IRRRRRRRRRRRRRRRRRRRRRRRRRRRRRRRRR",
"RRRRRRRRRRRRRRRRRRRRRRRRRRRRRRRRRRJqqqqqqqqqxRRRRRRRRRRRRRRRRRRRRRRRRRRRRRRRRRRR",
"RRRRRRRRRRRRRRRRRRRRRRRRRRRRRRRRRRRI3qqqqq,IRRRRRRRRRRRRRRRRRRRRRRRRRRRRRRRRRRRR",
"RRRRRRRRRRRRRRRRRRRRRRRRRRRRRRRRRRRRRDqqqzRRRRRRRRRRRRRRRRRRRRRRRRRRRRRRRRRRRRRR",
"RRRRRRRRRRRRRRRRRRRRRRRRRRRRRRRRRRRRRRI6TRRIRRRRRRRRRRRRRRRRRRRRRRRRRRRRRRRRRRRR",
"RRRRRRRRRRRRRRRRRRRRRRRRRRRRRRRRRRRRRRRRRIRRRRRRRRRRRRRRRRRRRRRRRRRRRRRRRRRRRRRR",
"RRRRRRRRRRRRRRRRRRRRRRRRRRRRRRRRRRRRRRRRRRRRRRRRRRRRRRRRRRRRRRRRRRRRRRRRRRRRRRRR",
"RRRRRRRRRRRRRRRRRRRRRRRRRRRRRRRRRRRRRRRRRRRRRRRRRRRRRRRRRRRRRRRRRRRRRRRRRRRRRRRR",
"RRRRRRRRRRRRRRRRRRRRRRRRRRRRRRRRIRRRRRIRRRRRRRRRRRRRIRRRRRRRRRRRRRRRRRRRRRRRRRRR",
"RRRRRRRRRRRRRRRRRRRRRRRRRRRRRRRRRRRRRRRRRRRRRRRRRRRRRRRRRRRRRRRRRRRRRRRRRRRRRRRR",
"RRRRRRRTkRRRRRFTRRRRRkBRP#$#AVVAVCIFCfVCfZfRTkIRRRRIZTRRRRRLIRRRRRRRRRIVO@ARRRRR",
"RRRRRIRBaRRRRR&aRRRRRraR aaaaaaaaaIBaaaaaaaRSaFRRRIPajRRRRRa@RRRRRRRRRhasaaaRRRR",
"RRRRRRRuaFRRRR$a$RRRR+aRRRIRtaIRIIRAaPRIIIIRSaaRRRRjajRRRRSaaRRRRRRRRRITRRZaARRR",
"RRRRRRTaaORRRR$aaPRIRXaRRRRRoaRRRRRVaSRRRRRRFaaXRRRkajRRRReaaFRRRRRRRRRRIRTaORRR",
"RRRRRR u@aRRIR+a@aIRRXaRRRRR aIRRRRVaIRRRRRRSa ahRRjakRRRIa#aORRRRRRRRRRRRjakRRR",
"RRRRRIakIahRRR%aRpaRR*aRRRRROaRRRIRVaO&&oIRRFaPCaTRkajRIRBaRVaRRRRRRRRRRT@aORRRR",
"RRRRRkaIRatRRR$aRIaVRsaRRRRROaRRRRRVaaaaaTRRSaBRaaRPajRRRayRTahRRRRRRRRRkaaPRRRR",
"RRRRRapRR@aRRR@aIRhaI@aRRRRROaRRRRRAaIRRRRRRFaARRa*TajRRFaLRRaaRRRRRRRRRRR@alRRR",
"RRRRFakRRSafRR$aIRRaaOaRRRRR aRRRIRVaTRRRRRRFafRRla@alRR*aIRRoaIRRRRRRRRRRRaaRRR",
"RRRRXaaaaaaaRR$aIRRIaapRRRRROaIRRRRBaFRRRRRRSaBRRRsaalRTaaaaaaaBRIRRRRRRRRRsaRRR",
"RRRIasISPFXaFR&aIRRRPaaRRRRReaRRRRRAaTRRRRRRFaBRRRIaajRfaVFPPPaaRRRRRRRRRRIaaRRR",
"RRRVaSRRIRIa&R*aIRRRR$aRRRRROaRRRRRVap*@Xd$RFaARRRRSajRaaRRRRR@aPRRRRRprhVaakRRR",
"RRRirRRRRRRiaRlaIRRRRIdRRRRR@aRRRRRjaaaaaapRFakRRRRROPIa+RIRRRFa%RRRRRPaaapFRRRR",
"RRRRRRRRRRRRRRRRRRRRRRRRRRRRRRRRRRRRRRRRRRRRRRRRRRRRRRRRRRRRRRRRRRRRRRRRRRRRRRRR",
"RRRRRRRRRRRRRRRRRRRRRRRRRRRRRRRRRRRRRRRRRRRRRRRRRRRRRRRRRRRRRRRRRRRRRRRRRRRRRRRR",
"RRRRRRRRRRRRRRRRRRRRRRRRRRRRRRRRRRRRRRRRRRRRRRRRRRRRRRRRRRRRRRRRRRRRRRRRRRRRRRRR",
"RRRRRRRRRRRRRRRRRRRRRRRRRRRRRRRRRRRRRRRRRRRRRRRRRRRRRRRRRRRRRRRRRRRRRRRRRRRRRRRR",
"RRRRRRRRRRRRRRRRRRRRRRRRRRRRRRRRRRRRRRRRRRRRRRRRRRRRRRRRRRRRRRRRRRRRRRRRRRRRRRRR"
};
