/* XPM */
static char *xpm_[] = {
/* columns rows colors chars-per-pixel */
"80 80 199 2 ",
"   c #224088",
".  c #224088",
"X  c #224088",
"o  c #224088",
"O  c #224088",
"+  c #822688",
"@  c #962388",
"#  c #5C2B8A",
"$  c #EE5231",
"%  c #F21869",
"&  c #F39527",
"*  c #F4CC29",
"=  c #224088",
"-  c #224088",
";  c #224088",
":  c #0F54B8",
">  c #5D2B89",
",  c #224088",
"<  c #224088",
"1  c #224088",
"2  c #3D3898",
"3  c #2348AA",
"4  c #0A5FBC",
"5  c #642A89",
"6  c #AF2087",
"7  c #752888",
"8  c #A42187",
"9  c #D01B83",
"0  c #802688",
"q  c #0189C7",
"w  c #F1393B",
"e  c #F22D40",
"r  c #F13A3B",
"t  c #F03C3A",
"y  c #F17629",
"u  c #F39327",
"i  c #EF6C2A",
"p  c #ED652B",
"a  c #ED5B2E",
"s  c #EF4A34",
"d  c #F04337",
"f  c #EE5431",
"g  c #F27B28",
"h  c #EE672B",
"j  c #F27A28",
"k  c #F17928",
"l  c #F17629",
"z  c #EF6B2B",
"x  c #F38727",
"c  c #EE5132",
"v  c #AD2087",
"b  c #C91C86",
"n  c #962388",
"m  c #F31B5B",
"M  c #F01575",
"N  c #B51F87",
"B  c #D41A81",
"V  c #F21A5F",
"C  c #F22C41",
"Z  c #F32345",
"A  c #D9197F",
"S  c #D81980",
"D  c #F21869",
"F  c #F2176B",
"G  c #F31C58",
"H  c #F31C58",
"J  c #ED5F2D",
"K  c #ED5A2E",
"L  c #F03D3A",
"P  c #EE5A2F",
"I  c #EF4C34",
"U  c #F31F50",
"Y  c #F17629",
"T  c #F17729",
"R  c #F28528",
"E  c #F5D029",
"W  c #F9E12B",
"Q  c #F31B5B",
"!  c #F21573",
"~  c #F11573",
"^  c #DF187C",
"/  c #C61D87",
"(  c #F38C27",
")  c #F38527",
"_  c #F39527",
"`  c #F3C328",
"'  c #F3AC28",
"]  c #F3A627",
"[  c #F3B428",
"{  c #F3C128",
"}  c #F39D27",
"|  c #F3B128",
" . c #F6DB2A",
".. c #F3C828",
"X. c #F6DA2A",
"o. c #F5D629",
"O. c #F9E22B",
"+. c #FBE62C",
"@. c #F4C529",
"#. c #224088",
"$. c #363D9D",
"%. c #343B92",
"&. c #363C9D",
"*. c #423594",
"=. c #552D8A",
"-. c #453391",
";. c #443493",
":. c #692989",
">. c #7E2788",
",. c #224088",
"<. c #2546A8",
"1. c #1C4BAF",
"2. c #194DB1",
"3. c #0C57BA",
"4. c #0E53B8",
"5. c #2944A6",
"6. c #0765BF",
"7. c #0478C3",
"8. c #0F5CB9",
"9. c #0479C3",
"0. c #0478C3",
"q. c #066CC0",
"w. c #1B4CAF",
"e. c #0284C6",
"r. c #02A9DD",
"t. c #B41F87",
"y. c #982388",
"u. c #832688",
"i. c #AB2087",
"p. c #C71C86",
"a. c #D11B83",
"s. c #0188C7",
"d. c #0095CD",
"f. c #019FD5",
"g. c #02A8DC",
"h. c #224088",
"j. c #224088",
"k. c #224088",
"l. c #463290",
"z. c #702889",
"x. c #EF6A2B",
"c. c #F38127",
"v. c #224088",
"b. c #224088",
"n. c #224088",
"m. c #2149AA",
"M. c #CE1B80",
"N. c #8B2588",
"B. c #0197CF",
"V. c #066FC1",
"C. c #F32642",
"Z. c #F22E40",
"A. c #EF6B2B",
"S. c #EE632C",
"D. c #F28028",
"F. c #EF642D",
"G. c #AF2087",
"H. c #DE187C",
"J. c #D51A80",
"K. c #F21962",
"L. c #EE5032",
"P. c #F1393B",
"I. c #EF6E2A",
"U. c #F0722A",
"Y. c #DD187D",
"T. c #F4B428",
"R. c #F3CA28",
"E. c #F7DC2A",
"W. c #23418C",
"Q. c #2D41A3",
"!. c #732889",
"~. c #254191",
"^. c #115DB8",
"/. c #0775C1",
"(. c #095BBC",
"). c #A02288",
"_. c #0096CD",
"`. c #01A5DA",
"'. c #233F88",
"]. c #25408C",
"[. c #0580C9",
"{. c #9D3B6D",
"}. c #EE5C2E",
"|. c #E01A75",
" X c #F04A35",
".X c #F28C28",
"XX c #DE2169",
"oX c #F6C129",
"OX c #F6D62A",
"+X c #F6D22A",
"@X c #224088",
"#X c #18559E",
"$X c #A82187",
"%X c #01A6DA",
"&X c #303D8A",
"*X c #E34C4A",
"=X c #3E4195",
"-X c None",
";X c #FBE72C",
/* pixels */
"-X-X-X-X-X-X-X-X-X-X-X-X-X-X-X-X-X-X-X-X-X-X-X-X-X-X-X-X-X-X-X-X-X-X-X-X-X-X-X-X-X-X-X-X-X-X-X-X-X-X-X-X-X-X-X-X-X-X-X-X-X-X-X-X-X-X-X-X-X-X-X-X-X-X-X-X-X-X-X-X",
"-X-X-X-X-X-X-X-X-X-X-X-X-X-X-X-X-X-X-X-X-X-X-X-X-X-X-X-X-X-X-X-X-X-X-X-X-X-X-X-X-X-X-X-X-X-X-X-X-X-X-X-X-X-X-X-X-X-X-X-X-X-X-X-X-X-X-X-X-X-X-X-X-X-X-X-X-X-X-X-X",
"-X-X-X-X-X-X-X-X-X-X-X-X-X-X-X-X-X-X-X-X-X-X-X-X-X-X-X-X-X-X-X-X-X-X-X-X-X-X-X-X-X-X-X-X-X-X-X-X-X-X-X-X-X-X-X-X-X-X-X-X-X-X-X-X-X-X-X-X-X-X-X-X-X-X-X-X-X-X-X-X",
"-X-X-X-X-X-X-X-X-X-X-X-X-X-X-X-X-X-X-X-X-X-X-X-X-X-X-X-X-X-X-X-X-X-X-X-X-X-X-X-X-X-X-X-X-X-X-X-X-X-X-X-X-X-X-X-X-X-X-X-X-X-X-X-X-X-X-X-X-X-X-X-X-X-X-X-X-X-X-X-X",
"-X-X-X-X-X-X-X-X-X-X-X-X-X-X-X-X-X-X-X-X-X-X-X-X-X-X-X-X-X-X-X-X-X-X-X-X-X-X-X-X-X-X-X-X-X-X-X-X-X-X-X-X-X-X-X-X-X-X-X-X-X-X-X-X-X-X-X-X-X-X-X-X-X-X-X-X-X-X-X-X",
"-X-X-X-X-X-X-X-X-X-X-X-X-X-X-X-X-X-X-X-X-X-X-X-X-X-X-X-X-X-X-X-X-X-X-X-X-X-X-X-X-X-X-X-X-X-X-X-X-X-X-X-X-X-X-X-X-X-X-X-X-X-X-X-X-X-X-X-X-X-X-X-X-X-X-X-X-X-X-X-X",
"-X-X-X-X-X-X-X-X-X-X-X-X-X-X-X-X-X-X-X-X-X-X-X-X-X-X-X-X-X-X-X-X-X-X-X-X-X-X-X-X-X-X-X-X-X-X-X-X-X-X-X-X-X-X-X-X-X-X-X-X-X-X-X-X-X-X-X-X-X-X-X-X-X-X-X-X-X-X-X-X",
"-X-X-X-X-X-X-X-X-X-X-X-X-X-X-X-X-X-X-X-X-X-X-X-X-X-X-X-X-X-X-X-X-X-X-X-X-X-X-X-X-X-X-X-X-X-X-X-X-X-X-X-X-X-X-X-X-X-X-X-X-X-X-X-X-X-X-X-X-X-X-X-X-X-X-X-X-X-X-X-X",
"-X-X-X-X-X-X-X-X-X-X-X-X-X-X-X-X-X-X-X-X-X-X-X-X-X-X-X-X-X-X-X-X-X-X-X-X-X-X-X-X-X-X-X-X-X-X-X-X-X-X-X-X-X-X-X-X-X-X-X-X-X-X-X-X-X-X-X-X-X-X-X-X-X-X-X-X-X-X-X-X",
"-X-X-X-X-X-X-X-X-X-X-X-X-X-X-X-X-X-X-X-X-X-X-X-X-X-X-X-X-X-X-X-X-X-X-X-X-X-X-X-X-X-X-X-X-X-X-X-X-X-X-X-X-X-X-X-X-X-X-X-X-X-X-X-X-X-X-X-X-X-X-X-X-X-X-X-X-X-X-X-X",
"-X-X-X-X-X-X-X-X-X-X-X-X-X-X-X-X-X-X-X-X-X-X-X-X-X-X-X-X-X-X-X-X-X-X-X-X-X-X-X-X-X-X-X-X-X-X-X-X-X-X-X-X-X-X-X-X-X-X-X-X-X-X-X-X-X-X-X-X-X-X-X-X-X-X-X-X-X-X-X-X",
"-X-X-X-X-X-X-X-X-X-X-X-X-X-X-X-X-X-X-X-X-X-X-X-X-X-X-X-X-X-X-X-X-X-X-X-X-X-X-X-X-X-X-X-X-X-X-X-X-X-X-X-X-X-X-X-X-X-X-X-X-X-X-X-X-X-X-X-X-X-X-X-X-X-X-X-X-X-X-X-X",
"-X-X-X-X-X-X-X-X-X-X-X-X-X-X-X-X-X-X-X-X-X-X-X-X-X-X-X-X-X-X-X-X-X-X-X-X-X-X-X-X-X-X-X-X-X-X-X-X-X-X-X-X-X-X-X-X-X-X-X-X-X-X-X-X-X-X-X-X-X-X-X-X-X-X-X-X-X-X-X-X",
"-X-X-X-X-X-X-X-X-X-X-X-X-X-X-X-X-X-X-X-X-X-X-X-X-X-X-X-X-X-X-X-X-X-X-X-X-X-X-X-X-X-X-X-X-X-X-X-X-X-X-X-X-X-X-X-X-X-X-X-X-X-X-X-X-X-X-X-X-X-X-X-X-X-X-X-X-X-X-X-X",
"-X-X-X-X-X-X-X-X-X-X-X-X-X-X-X-X-X-X-X-X-X-X-X-X-X-X-X-X-X-X-X-X-X-X-X-X-X-X-X-X-X-X-X-X-X-X-X-X-X-X-X-X-X-X-X-X-X-X-X-X-X-X-X-X-X-X-X-X-X-X-X-X-X-X-X-X-X-X-X-X",
"-X-X-X-X-X-X-X-X-X-X-X-X-X-X-X-X-X-X-X-X-X-X-X-X-X-X-X-X-X-X-X-X-X-X-X-X-X-X X-X-X-XE.] ] -X-X-X-X-X-X-X-X-X-X-X-X-X-X-X-X-X-X-X-X-X-X-X-X-X-X-X-X-X-X-X-X-X-X-X",
"-X-X-X-X-X-X-X-X-X-X-X-X-X-X-X-X-X-X-X-X-X-X-X-X-X-X-X-X-X-X-X-X-X-X-X-X-XP k L.-X-XL._ [ &X-X-X*X+.@.-X-X-X-X-X-X-X-X-X-X-X-X-X-X-X-X-X-X-X-X-X-X-X-X-X-X-X-X-X",
"-X-X-X-X-X-X-X-X-X-X-X-X-X-X-X-X-X-X-X-X-X-X-X-X-X-X-X-X-X-X-X-X-X-X-X-X-Xs f z -X-XT ) _ OX-X-X@.O.O.*X-X-X-X-X-X-X-X-X-X-X-X-X-X-X-X-X-X-X-X-X-X-X-X-X-X-X-X-X",
"-X-X-X-X-X-X-X-X-X-X-X-X-X-X-X-X-X-X-X-X-X-X-X-X-X-X-X-X-X-X-X-X-X-X-X X XP f f OX-XP ) ) -X-X-X .O.@.-X-X-X-X-X-X-X-X-X-X-X-X-X-X-X-X-X-X-X-X-X-X-X-X-X-X-X-X-X",
"-X-X-X-X-X-X-X-X-X-X-X-X-X-X-X-X-X-X-X-X-X-X-X-X-X-X-X-X-X-X-X-X|.G -X-X-X*Xd f P -XL.k ) U.-XT ..O.OX-X-X;X+.&X-X-X-X-X-X-X-X-X-X-X-X-X-X-X-X-X-X-X-X-X-X-X-X-X",
"-X-X-X-X-X-X-X-X-X-X-X-X-X-X-X-X-X-X-X-X-X-X-X-X-X-X-X-X-X-X-X).a.D G -X-X-Xt d c -XS.k ) -X-X} ] } -X-X*XO.O.O.*X-X-X-X-X-X-X-X-X-X-X-X-X-X-X-X-X-X-X-X-X-X-X-X",
"-X-X-X-X-X-X-X-X-X-X-X-X-X-X-X-X-X-X-X-X-X-X-X-X-X-X-X-X-X-X-X-XM D D U -X-X XC d L.L.h k &X.X_ [ +X-X&Xo.O.O.@.-X-X-X-X-X-X-X-X-X-X-X-X-X-X-X-X-X-X-X-X-X-X-X-X",
"-X-X-X-X-X-X-X-X-X-X-X-X-X-X-X-X-X-X-X-X-X-X-X-X-X-X-X-X-X-X-X-X-X! D D G -X-XZ C t L.h k *Xz ) ) -X*X] X.X.+X-X-X-X-X-X-X-X-X-X-X-X-X-X-X-X-X-X-X-X-X-X-X-X-X-X",
"-X-X-X-X-X-X-X-X-X-X-X-X-X-X-X-X-X-X-X-X-X-X-X-X-X-X-X-X-X-X-X-X-X-X! D D G -XP C I *XP L. XT ) T -X] [ [ T -X-X-X-X-X-X-X-X-X-X-X-X-X-X-X-X-X-X-X-X-X-X-X-X-X-X",
"-X-X-X-X-X-X-X-X-X-X-X-X-X-X-X-X-X-X-X-X-X-X-X-X-X-X-X-X-Xy.N L.-X-X-X! D D G -X*X-X-X-X-X-X-XL.L.g _ [ R -X-X-X&XR.@.-X-X-X-X-X-X-X-X-X-X-X-X-X-X-X-X-X-X-X-X-X",
"-X-X-X-X-X-X-X-X-X-X-X-X-X-X-X-X-X-X-X-X-X-X-X-X-X-X-X-X).i.t.p.p.^ -X-X^ a.^ -X-X-X-X-X-X-X-X-X-Xz ) c.-X-X*XR O.O.O.*X-X-X-X-X-X-X-X-X-X-X-X-X-X-X-X-X-X-X-X-X",
"-X-X-X-X-X-X-X-X-X-X-X-X-X-X-X-X-X-X-X-X-X-X-X-X-X-X-X-X-X0 u.i.p.p.p.^ XXL.-X-X-X-X-X-X-X-X-X-X-X-XS.-XE.} [ [ O.O.X.E.-X-X-X-X-X-X-X-X-X-X-X-X-X-X-X-X-X-X-X-X",
"-X-X-X-X-X-X-X-X-X-X-X-X-X-X-X-X-X-X-X-X-X-X-X-X-X-X-X-X-X-X-X).N p.a.a.a.-X-X-X-X-X-X-X-X-X-X-X-X-X-Xl ) _ ] [ @.OX-X-X-X-X-X-X-X-X-X-X-X-X-X-X-X-X-X-X-X-X-X-X",
"-X-X-X-X-X-X-X-X-X-X-X-X-X-X-X-X-X-X-X-X-X-X-X-X-X-X-X-X-X-X-X-X-Xn.^ a.^ -X-X-X-X-X-X-X-X-X-X-X-X-X-Xz ) z T -X-X-X-X-X-X-X-X-X-X-X-X-X-X-X-X-X-X-X-X-X-X-X-X-X",
"-X-X-X-X-X-X-X-X-X-X-X-X-X-X-X-X-X-X-X-X-X-X-X-X-X-X-X-X-X-X-X-X-X-X-XN.-X-X-X-X-X-X-X-X-X-X-X-X-X-X-XL.L.-X-X-XOX-X-X-X-X-X-X-X-X-X-X-X-X-X-X-X-X-X-X-X-X-X-X-X",
"-X-X-X-X-X-X-X-X-X-X-X-X-X-X-X-X-X-X-X-X-X-X-X-X-X-X-X(.1.&.-.*.:.u.u.^ -X-X-X-X-X-X-X-X-X-X-X-X-X-X-XOXz z g z } } } | *X-X-X-X-X-X-X-X-X-X-X-X-X-X-X-X-X-X-X-X",
"-X-X-X-X-X-X-X-X-X-X-X-X-X-X-X-X-X-X-X-X-X-X-X-X-X-X-X1 3.5.$.;.=.:.y.p.-X-X-X-X-X-X-X-X-X-X-X-X-X-X-XL.h h k k k ) _ ..E.-X-X-X-X-X-X-X-X-X-X-X-X-X-X-X-X-X-X-X",
"-X-X-X-X-X-X-X-X-X-X-X-X-X-X-X-X-X-X-X-X-X-X-X-X-X-X&X[.w.w.1 w.1 > > > -X-X-X-X-X-X-X-X-X-X-X-X-X-X-X&XP P P P P R R R *X-X-X-X-X-X-X-X-X-X-X-X-X-X-X-X-X-X-X-X",
"-X-X-X-X-X-X-X-X-X-X-X-X-X-X-X-X-X-X-X-X-X-X-X-X-X-X-X-X-X-X-X-X-X-X'.> =X-X-X-X-X-X-X-X-X-X-X-X-X-X-X$X X-X X-X-X-X-X-X-XOX-X-X-X-X-X-X-X-X-X-X-X-X-X-X-X-X-X-X",
"-X-X-X-X-X-X-X-X-X-X-X-X-X-X-X-X-X-X-X-X-X-X-X-X-X-X-X-X-X-X-X=X1 $.;.:.7 -X&X-X-X-X-X-X-X-X-X-X-X-X&XV d t P -X-X-X-X-X-X-X-X-X-X-X-X-X-X-X-X-X-X-X-X-X-X-X-X-X",
"-X-X-X-X-X-X-X-X-X-X-X-X-X-X-X-X-X-X-X-X-X-X-X-X-X-X-X-X-X(.w.3.2.5.$.-.> -X-X-X-X-X-X-X-X-X-X-X-X-X-XC C r d f T L.-X-X-X-X-X-X-X-X-X-X-X-X-X-X-X-X-X-X-X-X-X-X",
"-X-X-X-X-X-X-X-X-X-X-X-X-X-X-X-X-X-X-X-X-X-X-X-X-X-X-X-Xr.g.g.q.3.<.b.-X-X-X-X-X-X-X-X-X-X-X-X-X-X{.! -XL.e C f f h z *X-X-X-X-X-X-X-X-X-X-X-X-X-X-X-X-X-X-X-X-X",
"-X-X-X-X-X-X-X-X-X-X-X-X-X-X-X-X-X-X-X-X-X-X-X-X-X-X-X-X%Xg.9.q &X-X-X-X-X-X-X-X-X-X-X-X-X-X-X-X*Xa.D G -X-X XI d f k -X-X-X-X-X-X-X-X-X-X-X-X-X-X-X-X-X-X-X-X-X",
"-X-X-X-X-X-X-X-X-X-X-X-X-X-X-X-X-X-X-X-X-X-X-X-X-X-X-X-X-X%X&X-X-X-X-X-X-X-X-X> > &X-X-X-X-X{.6 *XM a.D G -X-X-X-XP T -X-X-X-X-X-X-X-X-X-X-X-X-X-X-X-X-X-X-X-X-X",
"-X-X-X-X-X-X-X-X-X-X-X-X-X-X-X-X-X-X-X-X-X-X-X-X-X-X-X-X-X-X-X-X-X-X-X-X-X-X-X=.>.7 {.y.v N.a.A Y.-X~ D D G -X-X-X-X-X-X-X-X-X-X-X-X-X-X-X-X-X-X-X-X-X-X-X-X-X-X",
"-X-X-X-X-X-X-X-X-X-X-X-X-X-X-X-X-X-X-X-X-X-X-X-X-X-X-X-X-X-X-X-X].q.'.-X-X-Xw.5.;.&XN.y.i.=Xi.a.t.-X-X! D D G -X-X-X-X-X-X-X-X-X-X-X-X-X-X-X-X-X-X-X-X-X-X-X-X-X",
"-X-X-X-X-X-X-X-X-X-X-X-X-X-X-X-X-X-X-X-X-X-X-X-X-X-X-X-X-X-X-X[.g.g.0.&X-X&Xw.2.*.-Xv.:.y.&Xz.a.a.L.-X-X^ D D G -X-X-X-X-X-X-X-X-X-X-X-X-X-X-X-X-X-X-X-X-X-X-X-X",
"-X-X-X-X-X-X-X-X-X-X-X-X-X-X-X-X-X-X-X-X-X-X-X-X-X-X-X-X-X&X[.g.f.g.^.-X-X[.3.2.w.-X1 :.>.&X-Xt.a.^ -X-X-XG D G -X-X-X-X-X-X-X-X-X-X-X-X-X-X-X-X-X-X-X-X-X-X-X-X",
"-X-X-X-X-X-X-X-X-X-X-X-X-X-X-X-X-X-X-X-X-X-X-X-X-X-X-X-X-X[.g.g.f.w.-X-X-Xw.3.4.-X-Xv.$.>.=X-Xu.p.p.-X-X-X-X^ -X-X-X-X-X-X-X-X-X-X-X-X-X-X-X-X-X-X-X-X-X-X-X-X-X",
"-X-X-X-X-X-X-X-X-X-X-X-X-X-X-X-X-X-X-X-X-X-X-X-X-X-X-X-X].g.g.g.%X-X&X-X[.g.0.w.-X-Xm.5.;.=X-XN.y.p.L.-X-X-X-X-X-X-X-X-X-X-X-X-X-X-X-X-X-X-X-X-X-X-X-X-X-X-X-X-X",
"-X-X-X-X-X-X-X-X-X-X-X-X-X-X-X-X-X-X-X-X-X-X-X-X-X-X-X].g.g.g._.-X-X-X-Xw.g.g.].-X-Xn.1.5.=X-X&X:.y.u.-X-X-X-X-X-X-X-X-X-X-X-X-X-X-X-X-X-X-X-X-X-X-X-X-X-X-X-X-X",
"-X-X-X-X-X-X-X-X-X-X-X-X-X-X-X-X-X-X-X-X-X-X-X-X-X-X-X&Xr.g.B.-X-X-X-X-X-X_.V.-X-X-Xk.2.5.=X-X-X> ^ &X-X-X-X-X-X-X-X-X-X-X-X-X-X-X-X-X-X-X-X-X-X-X-X-X-X-X-X-X-X",
"-X-X-X-X-X-X-X-X-X-X-X-X-X-X-X-X-X-X-X-X-X-X-X-X-X-X-X-X-X[.-X-X-X-X-X-X-X-X-X-X-X-X'.,.2 &X-X-X-X-X-X-X-X-X-X-X-X-X-X-X-X-X-X-X-X-X-X-X-X-X-X-X-X-X-X-X-X-X-X-X",
"-X-X-X-X-X-X-X-X-X-X-X-X-X-X-X-X-X-X-X-X-X-X-X-X-X-X-X-X-X-X-X-X-X-X-X-X-X-X-X-X-X-X-X-X-X-X-X-X-X-X-X-X-X-X-X-X-X-X-X-X-X-X-X-X-X-X-X-X-X-X-X-X-X-X-X-X-X-X-X-X",
"-X-X-X-X-X-X-X-X-X-X-X-X-X-X-X-X-X-X-X-X-X-X-X-X-X-X-X-X-X-X-X-X-X-X-X-X-X-X-X-X-X-X-X-X-X-X-X-X-X-X-X-X-X-X-X-X-X-X-X-X-X-X-X-X-X-X-X-X-X-X-X-X-X-X-X-X-X-X-X-X",
"-X-X-X-X-X-X-X-X-X-X-X-X-X-X-X-X-X-X-X-X-X-X-X-X-X-X-X-X-X-X-X-X-X-X-X-X-X-X-X-X-X-X-X-X-X-X-X-X-X-X-X-X-X-X-X-X-X-X-X-X-X-X-X-X-X-X-X-X-X-X-X-X-X-X-X-X-X-X-X-X",
"-X-X-X-X-X-X-X-X-X-X-X-X-X-X-X-X-X-X-X-X-X-X-X-X-X-X-X-X-X-X-X-X-X-X-X-X-X-X-X-X-X-X-X-X-X-X-X-X-X-X-X-X-X-X-X-X-X-X-X-X-X-X-X-X-X-X-X-X-X-X-X-X-X-X-X-X-X-X-X-X",
"-X-X-X-X-X-X-X-X-X-X-X-X-X-X-X-X-X-X-X-X-X-X-X-X-X-X-X-X-X-X-X-X-X-X-X-X-X-X-X-X-X-X-X-X-X-X-X-X-X-X-X-X-X-X-X-X-X-X-X-X-X-X-X-X-X-X-X-X-X-X-X-X-X-X-X-X-X-X-X-X",
"-X-X-X-X-X-X-X-X-X-X-Xn.&X-X-X-X-X-X-X-X-X-X-X-X-X-X-X-X-X-X-X-X-X-X-X-X-X-X-X-X-X-X-X-X-X-X-X-X-X-X-X-X-X-X-X-X(.1 -X-X-X-X-X-X-X-X-X-X-X-X-X-X-X-X-X-X-X-X-X-X",
"-X-X-X-X< <.,.,.o -X-X,.o -X-X-X-X-X-X-X-X-X-X-X-X-X-X-X-Xn.,.. n.-X-X-X-X-X-X-X-X-X-X-X-X-X-X-X-X-X-Xn.n.-X-X-X2 ,.-X-X-X-X-X-X-X-X-X-X-X-X-X-X-X-X-X-X-X-X-X-X",
"-X-X-Xo 5.1 (.= o n.-X,.= -X-X-X-X-X-X-X-X-X-X-X-X-X-X-X-X1 ,.,.1 -X-X-X-X-X-X-X-X-X-X-X-X-X-X-X-X-X-X5.1 -X-X-X-X-X-X-X-X-X-X-X-X-X-X-X-X-X-X-X-X-X-X-X-X-X-X-X",
"-X-X-X,.1 -X-X-X-X-X-X,.1 -X-X1 1 n.1 -X-X-X#X1 -X-X-X-X-X,.1 1 ,.-X-X-X1 n.n.- 1 &X-X1 1 -X-X-X~.1 1 ,.; - 1 -Xn.1 -Xn.1 ].1 , ].-X, < n.-X-X-X1 o 1 ].-X-X-X-X",
"-X-X-X  5.1 &X-X-X-X-X,.1 -X1 <.&X1 5.&X-X-X,.1 -X-X-X-X&X,.n.n.<.n.-X-X,.,.X = ,.,.-X1 ,.-X-Xn.,.1 - ,.,.- 1 -X- <.-X1 ,.. = <.. - o ,.<.&X-X- ,.= o ,.n.-X-X-X",
"-X-X-X&X- ,.5.,.1 ].-X,.1 1 <.n.-X-X,.1 -X[.5.&X-X-X-X-X1 ,.-X-X,.1 -X-X#.  -X-X'.5.].&X,.@X-X#X,.-X-X,.~.-X-X-X2 X -X1 ,.n.-X1 ,.n.-Xn.,.&X].<.-X-X-X-   -X-X-X",
"-X-X-X-X-X&X#X,.,.'.-X,.,.<.].-X-X-X1 . -X; o -X-X-X-X-X  ,.1 1   . -X-X#., -X-Xn.5.#X-Xo o -X,.1 -X-X,.1 -X-X-X.   -X1 ,.&X-X'.<.-X-Xn.,.n.1 5.o o o   ,.-X-X-X",
"-X-X-X-X-X-X-X&X,.o -X,., ,.= -X-X-X=X,.n.,.n.-X-X-X-Xn.$.,.  .   ,.'.-X. = -X-Xn.<.].-X].,.n.,.n.-X-X<.1 -X-X-X, ,.-X1 ,.].-X'.,.&X-Xn.,.@X1 ,.1 (.1 k.n.-X-X-X",
"-X-X-Xn.].&X&X#X,.1 -X,.1 &X<.= -X-X&X#.,.,.&X-X-X-X-X1 r.-X-X-X-X5.= -X. 1 -X-X&X,.@X&X-XX ,.  -X-X-X,.1 -X@X-X= ,.-X1 ,.-X-X~.,.n.-Xn.,.n.].,.k.-X-X].].-X-X-X",
"-X-X-X,.5.,.,.<.X -X-X5.1 -X].,.O -X-X#X,.1 -X-X-X-X-X5.= -X-X-X-X, 5.-X,.< -X-Xn.,.].-X-X1 ,.'.-X-X-X1 ,.,.,.].; ,.-X1 ,.].-X'.<.&X-Xn.,.n.-X1 ,.,.#.#.1 -X-X-X",
"-X-X-X-X'.#X[.n.-X-X&X@X&X-X-Xn.#X&X-X&X5.&X-X-X-X-X-X'.&X-X-X-X-X&X[.-Xn.n.-X-X&X(.&X-X-X1 <.-X-X-X-X-Xn.~.&X-Xn.n.-X&Xn.-X-Xn.n.-X-X].n.-X-X-X].k.k.n.-X-X-X-X",
"-X-X-X-X-X-X-X-X-X-X-X-X-X-X-X-X-X-X-X/.,.-X-X-X-X-X-X-X-X-X-X-X-X-X-X-X-X-X-X-X-X-X-X-X-Xo - -X-X-X-X-X-X-X-X-X-X-X-X-X-X-X-X-X-X-X-X-X-X-X-X-X-X-X-X-X-X-X-X-X",
"-X-X-X-X-X-X-X-X-X-X-X-X-X-X-X-X-X-X-X5.[.-X-X-X-X-X-X-X-X-X-X-X-X-X-X-X-X-X-X-X-X-X-X-X@X,.@X-X-X-X-X-X-X-X-X-X-X-X-X-X-X-X-X-X-X-X-X-X-X-X-X-X-X-X-X-X-X-X-X-X",
"-X-X-X-X-X-X-X-X-X-X-X-X-X-X-X-X-X-X-X-X-X-X-X-X-X-X-X-X-X-X-X-X-X-X-X-X-X-X-X-X-X-X-X-X-X-X-X-X-X-X-X-X-X-X-X-X-X-X-X-X-X-X-X-X-X-X-X-X-X-X-X-X-X-X-X-X-X-X-X-X",
"-X-X-X-X-X-X-X-X-X-X-X-X-X-X-X-X-X-X-X-X-X-X-X-X-X-X-X-X-X-X-X-X-X-X-X-X-X-X-X-X-X-X-X-X-X-X-X-X-X-X-X-X-X-X-X-X-X-X-X-X-X-X-X-X-X-X-X-X-X-X-X-X-X-X-X-X-X-X-X-X",
"-X-X-X-X-X-X-X-X-X-X-X-X-X-X-X-X-X-X-X-X-X-X-X-X-X-X-X-X-X-X-X-X-X-X-X-X-X-X-X-X-X-X-X-X-X-X-X-X-X-X-X-X-X-X-X-X-X-X-X-X-X-X-X-X-X-X-X-X-X-X-X-X-X-X-X-X-X-X-X-X",
"-X-X-X-X-X-X-X-X-X-X-X-X-X-X-X-X-X-X-X-X-X-X-X-X-X-X-X-X-X-X-X-X-X-X-X-X-X-X-X-X-X-X-X-X-X-X-X-X-X-X-X-X-X-X-X-X-X-X-X-X-X-X-X-X-X-X-X-X-X-X-X-X-X-X-X-X-X-X-X-X",
"-X-X-X-X-X-X-X-X-X-X-X-X-X-X-X-X-X-X-X-X-X-X-X-X-X-X-X-X-X-X-X-X-X-X-X-X-X-X-X-X-X-X-X-X-X-X-X-X-X-X-X-X-X-X-X-X-X-X-X-X-X-X-X-X-X-X-X-X-X-X-X-X-X-X-X-X-X-X-X-X",
"-X-X-X-X-X-X-X-X-X-X-X-X-X-X-X-X-X-X-X-X-X-X-X-X-X-X-X-X-X-X-X-X-X-X-X-X-X-X-X-X-X-X-X-X-X-X-X-X-X-X-X-X-X-X-X-X-X-X-X-X-X-X-X-X-X-X-X-X-X-X-X-X-X-X-X-X-X-X-X-X",
"-X-X-X-X-X-X-X-X-X-X-X-X-X-X-X-X-X-X-X-X-X-X-X-X-X-X-X-X-X-X-X-X-X-X-X-X-X-X-X-X-X-X-X-X-X-X-X-X-X-X-X-X-X-X-X-X-X-X-X-X-X-X-X-X-X-X-X-X-X-X-X-X-X-X-X-X-X-X-X-X",
"-X-X-X-X-X-X-X-X-X-X-X-X-X-X-X-X-X-X-X-X-X-X-X-X-X-X-X-X-X-X-X-X-X-X-X-X-X-X-X-X-X-X-X-X-X-X-X-X-X-X-X-X-X-X-X-X-X-X-X-X-X-X-X-X-X-X-X-X-X-X-X-X-X-X-X-X-X-X-X-X",
"-X-X-X-X-X-X-X-X-X-X-X-X-X-X-X-X-X-X-X-X-X-X-X-X-X-X-X-X-X-X-X-X-X-X-X-X-X-X-X-X-X-X-X-X-X-X-X-X-X-X-X-X-X-X-X-X-X-X-X-X-X-X-X-X-X-X-X-X-X-X-X-X-X-X-X-X-X-X-X-X",
"-X-X-X-X-X-X-X-X-X-X-X-X-X-X-X-X-X-X-X-X-X-X-X-X-X-X-X-X-X-X-X-X-X-X-X-X-X-X-X-X-X-X-X-X-X-X-X-X-X-X-X-X-X-X-X-X-X-X-X-X-X-X-X-X-X-X-X-X-X-X-X-X-X-X-X-X-X-X-X-X",
"-X-X-X-X-X-X-X-X-X-X-X-X-X-X-X-X-X-X-X-X-X-X-X-X-X-X-X-X-X-X-X-X-X-X-X-X-X-X-X-X-X-X-X-X-X-X-X-X-X-X-X-X-X-X-X-X-X-X-X-X-X-X-X-X-X-X-X-X-X-X-X-X-X-X-X-X-X-X-X-X",
"-X-X-X-X-X-X-X-X-X-X-X-X-X-X-X-X-X-X-X-X-X-X-X-X-X-X-X-X-X-X-X-X-X-X-X-X-X-X-X-X-X-X-X-X-X-X-X-X-X-X-X-X-X-X-X-X-X-X-X-X-X-X-X-X-X-X-X-X-X-X-X-X-X-X-X-X-X-X-X-X",
"-X-X-X-X-X-X-X-X-X-X-X-X-X-X-X-X-X-X-X-X-X-X-X-X-X-X-X-X-X-X-X-X-X-X-X-X-X-X-X-X-X-X-X-X-X-X-X-X-X-X-X-X-X-X-X-X-X-X-X-X-X-X-X-X-X-X-X-X-X-X-X-X-X-X-X-X-X-X-X-X",
"-X-X-X-X-X-X-X-X-X-X-X-X-X-X-X-X-X-X-X-X-X-X-X-X-X-X-X-X-X-X-X-X-X-X-X-X-X-X-X-X-X-X-X-X-X-X-X-X-X-X-X-X-X-X-X-X-X-X-X-X-X-X-X-X-X-X-X-X-X-X-X-X-X-X-X-X-X-X-X-X"
};
