/* XPM */
static char *xpm_[] = {
/* columns rows colors chars-per-pixel */
"80 80 40 1 ",
"  c #000000",
". c #000000",
"X c #000000",
"o c #000000",
"O c #000000",
"+ c #000000",
"@ c #000000",
"# c #000000",
"$ c #DC181D",
"% c #DC181D",
"& c #DC181D",
"* c #DC181D",
"= c #DC181D",
"- c #DC181D",
"; c #DC181D",
": c #DC181D",
"> c #DC181D",
", c #DC181D",
"< c #DC181D",
"1 c #DC181D",
"2 c #DC181D",
"3 c #000000",
"4 c #000000",
"5 c #000000",
"6 c #000000",
"7 c #DC181D",
"8 c #DC181D",
"9 c #DC181D",
"0 c #DC181D",
"q c #DC181D",
"w c #DC181D",
"e c #000000",
"r c #000000",
"t c #DC181D",
"y c #DC181D",
"u c #DC181D",
"i c #DC181D",
"p c #200304",
"a c #DC181D",
"s c None",
/* pixels */
"sssssssssssssssssssssssssssseeeeeeeeeeeeeeeeeeeeeeeeeeeeeeeeeeeessssssssssssssss",
"sssssssssssssssssssssssssssseeeeeeeeeeeeeeeeeeeeeeeeeeeeeeeeeeeessssssssssssssss",
"sssssssssssssssssssssssssssseeeeeeeeeeeeeeeeeeeeeeeeeeeeeeeeeeeessssssssssssssss",
"sssssssssssssssssssssssssssseeeeeeeeeeeeeeeeeeeeeeeeeeeeeeeeeeeessssssssssssssss",
"sssssssssssssssssssssssssssseeeeeeeeeeeeeeeeeeeeeeeeeeeeeeeeeeeessssssssssssssss",
"sssssssssssssssssssssssssssseeeeeeeeeeeeeeeeeeeeeeeeeeeeeeeeeeeessssssssssssssss",
"sssssssssssssssssssssssssssseeeeeeeeeeeeeeeeeeeeeeeeeeeeeeeeeeeessssssssssssssss",
"sssssssssssssssssssssssssssseeeeeeeeeeeeeeeeeeeeeeeeeeeeeeeeeeeessssssssssssssss",
"sssssssssssssssssssssssssssssssseeeeeeeeeeeeeeeeeeeeeeeeeeeeeeeessssssssssssssss",
"sssssssssssssssssssssssssssssssseeeeeeeeeeeeeeeeeeeeeeeeeeeeeeeessssssssssssssss",
"sssssssssssssssssssssssssssssssseeeeeeeeeeeeeeeeeeeeeeeeeeeeeeeessssssssssssssss",
"sssssssssssssssssssssssssssssssseeeeeeeeeeeeeeeeeeeeeeeeeeeeeeeessssssssssssssss",
"sssssssssssssssssssssssssssssssseeeeeeeeeeeeeeeeeeeeeeeeeeeeeeeessssssssssssssss",
"sssssssssssssssssssssssssssssssseeeeeeeeeeeeeeeeeeeeeeeeeeeeeeeessssssssssssssss",
"sssssssssssssssssssssssssssssssseeeeeeeeeeeeeeeeeeeeeeeeeeeeeeeessssssssssssssss",
"sssssssssssssssssssssssssssssssseeeeeeeeeeeeeeeeeeeeeeeeeeeeeeeessssssssssssssss",
"sssssssssssssssssssssssssssssssssssssssssssssssseeeeeeeeeeeeeeeessssssssssssssss",
"sssssssssssssssssssssssssssssssssssssssssssssssseeeeeeeeeeeeeeeessssssssssssssss",
"sssssssssssssssssssssssssssssssssssssssssssssssseeeeeeeeeeeeeeeessssssssssssssss",
"sssssssssssssssssssssssssssssssssssssssssssssssseeeeeeeeeeeeeeeessssssssssssssss",
"sssssssssssssssssssssssssssssssssssssssssssssssseeeeeeeeeeeeeeeessssssssssssssss",
"sssssssssssssssssssssssssssssssssssssssssssssssseeeeeeeeeeeeeeeessssssssssssssss",
"sssssssssssssssssssssssssssssssssssssssssssssssseeeeeeeeeeeeeeeesssssspsssssssss",
"sssssssssssssssssssssssssssssssssssssssssssssssseeeeeeeeeeeeeeeessssssppssssssss",
"sssssssssssssssssssseeeeeeeesssssssssssssssssssseeeeeeeeeeeeeeeessssssppssspssss",
"sssssssssssssssssssseeeeeeeespssssssssssssssssspeeeeeeeeeeeeeeeessssssppssspssss",
"sssssssssssssssw22wppesseeee4###++++++++## # ###4## 4##4eeeeeeeesssssp####ppssss",
"ssssssssssssss1;;;;:assseep#                            4eeeeeeesssss######pssss",
"sssssssssssss,;;;;;;=sssee                               #sseeeesssp########ppss",
"ssssssssssssi;;;;;;;;wssep                                rseeeesssp########psss",
"ssssssssssss,;;;;;;;;*spea                                4seeeessp##########sss",
"sssssssssssi;;;;;;;;;;ypei                                #eeeeepp###########sss",
"ssssssssssp$;;;;;;;;;;:pp#######                           4sssspp##########ppss",
"ssssssssspa;;;;;;;;;;;;ypa######                           osssspp##########ssss",
"ssssssssss%;;;;;;;;;;;;=sse4##u#                            4sssp###########ssss",
"sssssssspa;;;;;;;;;;;;;;wspp4#eerrrs#        4srrrso        osssp##########pssss",
"sssssssse9;;;;;;;;;;;;;;=sspeeeessss4        5sssss5         5ss##########ppssss",
"ssssssssp;;;;;;;;;;;;;;;;wsseeeessss#        5sssssso        oss##########ssssss",
"sssssssp0;;;;;;;;;;;;;;;;>sseeeessss4        5ssssss5         r5##########ppssss",
"sssssssa;;;;;;;;;;;;;;;;;;wseeeessss#        rssssssso        ++#########pppssss",
"sssssps9;;;;;;;;:1;;;;;;;;>eeeeessss#        5sssssss5          ########psssssss",
"ssssssp;;;;;;;;;qa;;;;;;;;;weeeessss4        5sssssssso         ########psssssss",
"ssssss%;;;;;;;;;as*;;;;;;;;<eeeessss4        5ssssssss4         ########ssssssss",
"sssssp;;;;;;;;;qppy;;;;;;;;;peeessss4        5ssssssssso        #######pssssssss",
"eeees0;;;;;;;;:eeee:;;;;;;;;2eeessss#        5sssssssss4        ######psssssssss",
"eeeep;;;;;;;;;qeeeei;;;;;;;;;seessss#        5sssssssssso       ######psssssssss",
"eeee8;;;;;;;;;eeeeee:;;;;;;;;&eessss4        5ssssssssss4       ######ssssssssss",
"eepp;;;;;;;;;2eeeepp7;;;;;;;;;sessss#        rssssssssssso      #####pssssssssss",
"eeet;;;;;;;;;peessssp;;;;;;;;;2essss4        5sssssssssss4      aaaaaassssssssss",
"eee8;;;;;;;;,eeesssss2;;;;;;;;2essss4        4sssssssssssso     aaaa##ssssssssss",
"eeei;;;;;;;;peeesssssi;;;;;;;;qsssss4        rssssssssssss4     aaaapppsssssssss",
"eeee*;;;;;;<eeeessssss2;;;;;;;assssss       +ssssssssssssss     aaapppssssssssss",
"eeees;;;;;*eeeeesssssss=;;;;;isssssss5     osssssssssssssssr    7tapeeeessssssss",
"eeeeep%=*8eeeeeessssssssw=;2wpsssssssss+oo#ssssssssssssssssss+ oteaaeeeessssssss",
"eeeeeeeeeeeeeeeesssssssspssssssssssssssssssssssssssssssssssssssseeeeeeeessssssss",
"eeeeeeeeeeeeeeeesssssssspssssssssssssssssssssssssssssssssssssssseeeeeeeessssssss",
"eeeeeeeeeeeeeeeesssssssssssssssssssssssssssssssssssssssssssssssseeeeeeeeeeeeeeee",
"eeeeeeeeeeeeeeeesssssssssssssssssssssssssssssssssssssssssssssssseeeeeeeeeeeeeeee",
"eeeeeeeeeeeeeeeesssssssssssssssssssssssssssssssssssssssssssssssseeeeeeeeeeeeeeee",
"eeeeeeeeeeeeeeeesssssssssssssssssssssssssssssssssssssssssssssssseeeeeeeeeeeeeeee",
"eeeeeeeeeeeeeeeesssssssssssssssssssssssssssssssssssssssssssssssseeeeeeeeeeeeeeee",
"eeeeeeeeeeeeeeeesssssssssssssssssssssssssssssssssssssssssssssssseeeeeeeeeeeeeeee",
"eeeeeeeeeeeeeeeesssssssssssssssssssssssssssssssssssssssssssssssseeeeeeeeeeeeeeee",
"eeeeeeeeeeeeeeeesssssssssssssssssssssssssssssssssssssssssssssssseeeeeeeeeeeeeeee",
"eeeeeeeeeeeeeeeeeeeeeeeeeeeeeeeeeeeeeeeeeeeeeeeeeeeeeeeeeeeeeeeeeeeeeeeeeeeeeeee",
"eeeeeeeeeeeeeeeeeeeeeeeeeeeeeeeeeeeeeeeeeeeeeeeeeeeeeeeeeeeeeeeeeeeeeeeeeeeeeeee",
"eeeeeeeeeeeeeeeeeeeeeeeeeeeeeeeeeeeeeeeeeeeeeeeeeeeeeeeeeeeeeeeeeeeeeeeeeeeeeeee",
"eeeeeeeeeeeeeeeeeeeeeeeeeeeeeeeeeeeeeeeeeeeeeeeeeeeeeeeeeeeeeeeeeeeeeeeeeeeeeeee",
"eeeeeeeeeeeeeeeeeeeeeeeeeeeeeeeeeeeeeeeeeeeeeeeeeeeeeeeeeeeeeeeeeeeeeeeeeeeeeeee",
"eeeeeeeeeeeeeeeeeeeeeeeeeeeeeeeeeeeeeeeeeeeeeeeeeeeeeeeeeeeeeeeeeeeeeeeeeeeeeeee",
"eeeeeeeeeeeeeeeeeeeeeeeeeeeeeeeeeeeeeeeeeeeeeeeeeeeeeeeeeeeeeeeeeeeeeeeeeeeeeeee",
"eeeeeeeeeeeeeeeeeeeeeeeeeeeeeeeeeeeeeeeeeeeeeeeeeeeeeeeeeeeeeeeeeeeeeeeeeeeeeeee",
"eeeeeeeeeeeeeeeeeeeeeeeeeeeeeeeeeeeeeeeeeeeeeeeeeeeeeeeeeeeeeeeeeeeeeeeeeeeeeeee",
"eeeeeeeeeeeeeeeeeeeeeeeeeeeeeeeeeeeeeeeeeeeeeeeeeeeeeeeeeeeeeeeeeeeeeeeeeeeeeeee",
"eeeeeeeeeeeeeeeeeeeeeeeeeeeeeeeeeeeeeeeeeeeeeeeeeeeeeeeeeeeeeeeeeeeeeeeeeeeeeeee",
"eeeeeeeeeeeeeeeeeeeeeeeeeeeeeeeeeeeeeeeeeeeeeeeeeeeeeeeeeeeeeeeeeeeeeeeeeeeeeeee",
"eeeeeeeeeeeeeeeeeeeeeeeeeeeeeeeeeeeeeeeeeeeeeeeeeeeeeeeeeeeeeeeeeeeeeeeeeeeeeeee",
"eeeeeeeeeeeeeeeeeeeeeeeeeeeeeeeeeeeeeeeeeeeeeeeeeeeeeeeeeeeeeeeeeeeeeeeeeeeeeeee",
"eeeeeeeeeeeeeeeeeeeeeeeeeeeeeeeeeeeeeeeeeeeeeeeeeeeeeeeeeeeeeeeeeeeeeeeeeeeeeeee",
"eeeeeeeeeeeeeeeeeeeeeeeeeeeeeeeeeeeeeeeeeeeeeeeeeeeeeeeeeeeeeeeeeeeeeeeeeeeeeeee"
};
