/* XPM */
static char *xpm_[] = {
/* columns rows colors chars-per-pixel */
"80 80 164 2 ",
"   c #7C7D7E",
".  c #767979",
"X  c #BABAB7",
"o  c #BEB7B7",
"O  c #BFB8B8",
"+  c #BCBDB8",
"@  c #BCBDB8",
"#  c #C3BFBF",
"$  c #BBBBB7",
"%  c #CECBC9",
"&  c #C9C6C4",
"*  c #DCDDD9",
"=  c #D9D8D7",
"-  c #BC0505",
";  c #B92525",
":  c #D0090A",
">  c #DE0807",
",  c #C61415",
"<  c #D91919",
"1  c #E70C0A",
"2  c #E51918",
"3  c #CA1F21",
"4  c #DD1F20",
"5  c #CC2E2D",
"6  c #D52626",
"7  c #C93535",
"8  c #DB3635",
"9  c #E52727",
"0  c #E53939",
"q  c #B87C7A",
"w  c #BB8683",
"e  c #C78382",
"r  c #C54A4A",
"t  c #D64745",
"y  c #C9504F",
"u  c #D55656",
"i  c #E64846",
"p  c #E7514D",
"a  c #E65755",
"s  c #E4605E",
"d  c #C86260",
"f  c #DC7F7D",
"g  c #E27572",
"h  c #B3ABAA",
"j  c #D7B1AD",
"k  c #E8B3B3",
"l  c #E5B5B3",
"z  c #D2D0CD",
"x  c #ECB7B6",
"c  c #BA817F",
"v  c #C48E8C",
"b  c #C99391",
"n  c #DE8683",
"m  c #B7B1B1",
"M  c #C5C3BF",
"N  c #7E7E80",
"B  c #D5D4D4",
"V  c #868A89",
"C  c #929997",
"Z  c #B78D8A",
"A  c #B98987",
"S  c #C29B9A",
"D  c #BE938F",
"F  c #BBB6B3",
"G  c #B6AFAC",
"H  c #BABBB6",
"J  c #BCB6B2",
"K  c #BAB9B6",
"L  c #BDBBB7",
"P  c #CAB8B6",
"I  c #BCBDB8",
"U  c #B9BAB6",
"Y  c #BCBDB8",
"T  c #CDB7B2",
"R  c #BEBEB9",
"E  c #C3BFBD",
"W  c #CBC7C8",
"Q  c #B9BBB5",
"!  c #CAC5C4",
"~  c #D1CDCB",
"^  c #D9D7D6",
"/  c #D8D7D6",
"(  c #EFEDED",
")  c #C68F8D",
"_  c #DD8A88",
"`  c #EB8683",
"'  c #E59C98",
"]  c #DFA7A4",
"[  c #C4BDBA",
"{  c #DEBCB9",
"}  c #D3CECB",
"|  c #E8A9A6",
" . c #E7B8B5",
".. c #CBC3BE",
"X. c #D4D0CD",
"o. c #ECC1BD",
"O. c #DDDDDB",
"+. c #F2F1F2",
"@. c #CECAC8",
"#. c #D4CDCA",
"$. c #D7D2CD",
"%. c #D2D0D0",
"&. c #DDDCDB",
"*. c #DBD9D7",
"=. c #E4E0DD",
"-. c #DFEDE8",
";. c #EEEBE8",
":. c #EDCAC7",
">. c #F3C7C4",
",. c #ECD0CA",
"<. c #F3D0CE",
"1. c #E3DFDC",
"2. c #F2DCD8",
"3. c #E2E1E0",
"4. c #DFDFE0",
"5. c #E7E7E6",
"6. c #F3ECE7",
"7. c #EDF6F0",
"8. c #F3F2EE",
"9. c #EDFDFA",
"0. c #FAFCFB",
"q. c #F7F6F6",
"w. c #EDEBEB",
"e. c #BDB9B6",
"r. c #C5C0BF",
"t. c #C5C2C0",
"y. c #D6D1CE",
"u. c #D3D2D0",
"i. c #DDDDDB",
"p. c #DBDBDC",
"a. c #E2C0BE",
"s. c #E1C6C5",
"d. c #E4E5E3",
"f. c #E7E4DF",
"g. c #F4F3F4",
"h. c #E7E7E5",
"j. c #F2F2F2",
"k. c #BFC1BD",
"l. c #BDBEBA",
"z. c #CDCCCA",
"x. c #BFBCB9",
"c. c #C3C2BE",
"v. c #D9D8D5",
"b. c #AEAAA7",
"n. c #BEBAB8",
"m. c #BFBCBA",
"M. c #BFBBB9",
"N. c #BEBFBA",
"B. c #D2D0CE",
"V. c #C3BCBC",
"C. c #D7D4D1",
"Z. c #CAC9C7",
"A. c #E3E1E0",
"S. c #DEDEDC",
"D. c #BFC5C4",
"F. c #C8C6C3",
"G. c #C2C0BE",
"H. c #DAD9D9",
"J. c #D6D7D2",
"K. c #BEC0BE",
"L. c #C8C7C3",
"P. c #99FFFF",
"I. c #C6C5C4",
"U. c None",
/* pixels */
"U.U.U.U.U.U.U.U.U.U.U.U.U.U.U.U.U.U.U.U.U.U.U.U.U.U.U.U.U.U.U.U.U.U.U.U.U.U.U.U.U.U.U.U.U.U.U.U.U.U.U.U.U.U.U.U.U.U.U.U.U.U.U.U.U.U.U.U.U.U.U.U.U.U.U.U.U.U.U.U.",
"U.U.U.U.U.U.U.U.U.U.U.U.U.U.U.U.U.U.U.U.U.U.U.U.U.U.U.U.U.U.U.U.U.U.U.U.U.U.U.U.U.U.U.U.U.U.U.U.U.U.U.U.U.U.U.U.U.U.U.U.U.U.U.U.U.U.U.U.U.U.U.U.U.U.U.U.U.U.U.U.",
"U.U.U.U.U.U.U.U.U.U.U.U.U.U.U.U.U.U.U.U.U.U.U.U.U.U.U.U.U.U.U.U.U.U.U.U.U.U.U.U.U.U.U.U.U.U.U.U.U.U.U.U.U.U.U.U.U.U.U.U.U.U.U.U.U.U.U.U.U.U.U.U.U.U.U.U.U.U.U.U.",
"U.U.U.U.U.U.U.U.U.U.U.U.U.U.U.U.U.U.U.U.U.U.U.U.U.U.U.U.U.U.U.U.U.U.U.U.U.U.U.U.U.U.U.U.U.U.U.U.U.U.U.U.U.U.U.U.U.U.U.U.U.U.U.U.U.U.U.U.U.U.U.U.U.U.U.U.U.U.U.U.",
"U.U.U.U.U.U.U.U.U.U.U.U.U.U.U.U.U.U.U.U.U.U.U.U.U.U.U.U.U.U.U.U.U.U.U.U.U.U.U.U.U.U.U.U.U.U.U.U.U.U.U.U.U.U.U.U.U.U.U.U.U.U.U.U.U.U.U.U.U.U.U.U.U.U.U.U.U.U.U.U.",
"U.U.U.U.U.U.U.U.U.U.U.U.U.U.U.U.U.U.U.U.U.U.U.U.U.U.U.U.U.U.U.U.U.U.U.U.U.U.U.U.U.U.U.U.U.U.U.U.U.U.U.U.U.U.U.U.U.U.U.U.U.U.U.U.U.U.U.U.U.U.U.U.U.U.U.U.U.U.U.U.",
"U.U.U.U.U.U.U.U.U.U.U.U.U.U.U.U.U.U.U.U.U.U.U.U.U.U.U.U.U.U.U.U.U.U.U.U.U.U.U.U.U.U.U.U.U.U.U.U.U.U.U.U.U.U.U.U.U.U.U.U.U.U.U.U.U.U.U.U.U.U.U.U.U.U.U.U.U.U.U.U.",
"U.U.U.U.U.U.U.U.U.U.U.U.U.U.U.U.U.U.U.U.U.U.U.U.U.U.U.U.U.U.U.U.U.U.U.U.U.U.U.U.U.U.U.U.U.U.U.U.U.U.U.U.U.U.U.U.U.U.U.U.U.U.U.U.U.U.U.U.U.U.U.U.U.U.U.U.U.U.U.U.",
"U.U.U.U.U.U.U.U.U.U.U.U.U.U.U.U.U.U.U.U.U.U.U.U.U.U.U.U.U.U.U.U.U.U.U.U.U.U.U.U.U.U.U.U.U.U.U.U.U.U.U.U.U.U.U.U.U.U.U.U.U.U.U.U.U.U.U.U.U.U.U.U.U.U.U.U.U.U.U.U.",
"U.U.U.U.U.U.U.U.U.U.U.U.U.U.U.U.U.U.U.U.U.U.U.U.U.U.U.U.U.U.U.U.U.U.U.U.U.U.U.U.U.U.U.U.U.U.U.U.U.U.U.U.U.U.U.U.U.U.U.U.U.U.U.U.U.U.U.U.U.U.U.U.U.U.U.U.U.U.U.U.",
"U.U.U.U.U.U.U.U.U.U.U.U.U.U.U.U.U.U.U.U.U.U.U.U.U.U.U.U.U.U.U.U.U.U.U.U.U.U.U.U.U.U.U.U.U.U.U.U.U.U.U.U.U.U.U.U.U.U.U.U.U.U.U.U.U.U.U.U.U.U.U.U.U.U.U.U.U.U.U.U.",
"U.U.U.U.U.U.U.U.U.U.U.U.U.U.U.U.U.U.U.U.U.U.U.U.U.U.U.U.U.U.U.U.U.U.U.U.U.U.U.U.U.U.U.U.U.U.U.U.U.U.U.U.U.U.U.U.U.U.U.U.U.U.U.U.U.U.U.U.U.U.U.U.U.U.U.U.U.U.U.U.",
"U.U.U.U.U.U.U.U.U.U.U.U.U.U.U.U.U.U.U.U.U.U.U.U.U.U.U.U.U.U.U.U.U.U.U.U.U.U.U.U.U.U.U.U.U.U.U.U.U.U.U.U.U.U.U.U.U.U.U.U.U.U.U.U.U.U.U.U.U.U.U.U.U.U.U.U.U.U.U.U.",
"U.U.U.U.U.U.U.U.U.U.U.U.U.U.U.U.U.U.U.U.U.U.U.U.U.U.U.U.U.U.U.U.U.U.U.U.U.U.U.U.U.U.U.U.U.U.U.U.U.U.U.U.U.U.U.U.U.U.U.U.U.U.U.U.U.U.U.U.U.U.U.U.U.U.U.U.U.U.U.U.",
"U.U.U.U.U.U.U.U.U.U.U.U.U.U.U.U.U.U.U.U.U.U.U.U.U.U.U.U.U.U.U.U.U.U.U.U.U.U.U.U.U.U.U.U.U.U.U.U.U.U.U.U.U.U.U.U.U.U.U.U.U.U.U.U.U.U.U.U.U.U.U.U.U.U.U.U.U.U.U.U.",
"U.U.U.U.U.U.U.U.U.U.U.U.U.U.U.U.U.U.U.U.U.U.U.U.U.U.U.U.U.U.U.U.U.U.U.U.U.U.U.U.U.U.U.U.U.U.U.U.U.U.U.U.U.U.U.U.U.U.U.U.U.U.U.U.U.U.U.U.U.U.U.U.U.U.U.U.U.U.U.U.",
"U.U.U.U.U.U.U.U.U.U.U.U.U.U.U.U.U.U.U.U.U.U.U.U.U.U.U.U.U.U.U.U.U.U.U.U.U.U.U.U.U.U.U.U.U.U.U.U.U.U.U.U.U.U.U.U.U.U.U.U.U.U.U.U.U.U.U.U.U.U.U.U.U.U.U.U.U.U.U.U.",
"U.U.U.U.U.U.U.U.U.U.U.U.U.U.U.U.U.U.U.U.U.U.U.U.U.U.U.U.U.U.U.U.U.U.U.U.U.U.U.U.U.U.U.U.U.U.U.U.U.U.U.U.U.U.U.U.U.U.U.U.U.U.U.U.U.U.U.U.U.U.U.U.U.U.U.U.U.U.U.U.",
"U.U.U.U.U.U.U.U.U.U.U.U.U.U.U.U.U.U.U.U.U.U.U.U.U.U.U.U.U.U.U.U.U.U.U.U.U.U.U.U.U.U.U.U.U.U.U.U.U.U.U.U.U.U.U.U.U.U.U.U.U.U.U.U.U.U.U.U.U.U.U.U.U.U.U.U.U.U.U.U.",
"U.U.U.U.U.U.U.U.U.U.U.U.U.U.U.U.U.U.U.U.U.U.U.U.U.U.U.U.U.U.U.U.U.U.U.U.U.U.U.U.U.U.U.U.U.U.U.U.U.U.U.U.U.U.U.U.U.U.U.U.U.U.U.U.U.U.U.U.U.U.U.U.U.U.U.U.U.U.U.U.",
"U.U.U.U.U.U.U.U.U.U.U.U.U.U.U.U.U.U.U.U.U.U.U.U.U.U.U.U.U.U.U.U.U.U.U.U.U.U.U.U.U.U.U.U.U.U.U.U.U.U.U.U.U.U.U.U.U.U.U.U.U.U.U.U.U.U.U.U.U.U.U.U.U.U.U.U.U.U.U.U.",
"U.U.U.U.U.U.U.U.U.U.U.U.U.U.U.U.U.U.U.U.U.U.U.U.U.U.U.U.U.U.U.U.U.U.U.U.U.D.U.U.U.U.U.U.U.U.U.U.U.U.U.U.U.U.U.U.U.U.U.U.U.U.U.U.U.U.U.U.U.U.U.U.U.U.U.U.U.U.U.U.",
"U.U.U.U.U.U.U.U.U.U.U.U.U.U.U.U.U.U.U.U.U.U.U.U.U.U.U.U.U.U.U.U.U.U.U.U.U.U.U.U.U.U.U.U.U.U.U.U.U.U.U.U.U.U.U.U.U.U.U.U.U.U.U.U.U.U.U.U.U.U.U.U.U.U.U.U.U.U.U.U.",
"U.U.U.U.U.U.U.U.U.U.U.U.U.U.U.U.U.U.U.U.U.U.U.U.U.U.U.U.U.U.U.U.U.U.U.U.U.U.U.U.U.U.U.U.U.U.U.U.U.U.U.U.U.U.U.U.U.U.U.U.U.U.U.U.U.U.U.U.U.U.U.U.U.U.U.U.U.U.U.U.",
"U.U.U.U.U.U.U.U.U.U.U.U.U.U.U.U.U.U.U.U.U.U.U.U.U.U.U.U.U.U.U.U.U.U.U.U.U.U.U.U.U.U.U.U.U.U.U.U.U.U.U.U.U.U.U.U.U.U.U.U.U.U.U.U.U.U.U.U.U.U.U.U.U.U.U.U.U.U.U.U.",
"U.U.U.u._ f _ f f f _ _ _ _ _ _ f f @.5.{ n f f ` _ _ n ' k U.U.U.U.U.U.U.U.U.U.U.U.J.C.& G.G.b.& J.C.o U.U.U.U.U.U.U.U.U.U.U.U.U.U.U.U.U.U.U.U.U.U.U.U.U.U.U.U.",
"U.U.U.V 4 2 1 0 | 9 9 9 2 i <.>.0 ` 0.:.9 0 | p 2 1 p :.p j U.U.U.U.U.U.U.U.U.U.U.J./ 4.9.q.4.q.0.7.6.& U.U.U.U.U.U.U.U.U.U.U.U.U.U.U.U.U.U.U.U.U.U.U.U.U.U.U.U.",
"U.U.U.j 6 > 2 :.8. .4 9 8 9 s 6.8.9.' 9 2 i 9.0.:.p s 9.s j U.U.U.U.U.U.U.U.U.U.K.%.7.4.8.5.5.q.5.5.S.U.U.U.U.U.U.U.U.U.U.U.U.U.U.U.U.U.U.U.U.U.U.U.U.U.U.U.U.U.",
"U.U.U.a.0 2 :.0.` 0. .< 6 6 6 >.0.0.s < 9 0 9.' | 9.6.7.a j U.U.U.U.U.U.U.U.U.G.4.5.4.q.5.5.5.5.*.J.U.U.U.U.U.U.U.U.b.U.U.U.U.U.U.U.U.U.U.U.U.U.U.U.U.U.U.U.U.U.",
"U.U.U.T 5  .7.]  .| 9.] , 7 2.0._ ,.0.g 4 8 0.g > i | 7.a j U.U.U.U.U.U.U.U.B 0.5.5.5.5.5.5.5.C U.U.U.U.U.U.U.U.U.U.c.D.U.U.U.U.U.U.U.U.U.U.U.U.U.U.U.U.U.U.U.U.",
"U.U.U.T ; y 5 - - - 7 y y 8.0.d , 5 u y 3 6 t 6 < 1 > 8 0 j U.U.U.U.U.U.U.u.6.5.q.5.8.8.5.5.u.U.U.U.U.U.U.U.U.U.U.U.S.U.U.U.U.U.U.U.U.U.U.U.U.U.U.U.U.U.U.U.U.U.",
"U.U.U.j.Z q q D D D D q } *.F ) ) S D c A A A A A v b q ) o X J.U.U.D.U./ q.q.5.5.5.q.0.0.G.U.U.U.U.U.U.U.U.U.U.U.U.S.D.U.U.U.U.U.U.U.U.U.U.U.U.U.U.U.U.U.U.U.U.",
"U.U.U.U.U.D.U.D.U.U.U.U.D.U.J.U.K.. N N N N V C C V S.U.K.U.U.U.U.U.K.%.5.4.5.5.6.5.5.7.S.U.U.U.U.U.U.U.U.U.U.U.U.U.S.K.U.U.U.U.U.U.U.U.U.U.U.U.U.U.U.U.U.U.U.U.",
"U.U.U.U.U.U.U.U.U.U.D.U.U.U.U.U.U.U.j K J K [ X.*.%.%.I.U.U.U.U.U.S.4.5.5.5.5.5.6.0.w.U.U.U.U.U.U.U.U.U.U.U.U.U.U.U.I.D.U.U.U.U.U.U.U.K.U.U.U.U.U.U.U.U.U.U.U.U.",
"U.U.D.U.U.U.U.U.U.U.U.U.U.U.U.U.U.U.U.B q.q.5.5.5.5.8.4.& U.U.U.o 4.7.q.5.5.7.5.8.j.U.U.U.U.U.U.U.U.U.U.U.U.U.U.U.U.V.U.U.U.U.U.U.U.U.U.U.U.U.U.U.U.U.U.U.U.U.U.",
"U.U.U.U.U.U.U.U.U.D.U.U.U.U.U.U.U.U.D.U.o q.q.5.5.5.5.0.0.N.J.M.7.5.4.4.q.q.q.q.j.D.U.U.U.U.U.K.K.K.K.K.U.U.U.U.U.U.S.D.U.U.K.V I.U.K.B.o U.Z.M @ + o K.U.U.U.U.",
"U.U.U.g.#.u.U.U.U.b.G.K.U.U.j.1.p.U.*.4.o o 5.5.q.4.%.X.%.;.#.K ;.=.;.%.%.%.%.=.^ #.$.O b.( @.w.5.;.@.@.w.@.b.U.U.U.D.l.U.U.o ;.o U.K.K N.U.K X.*.O.O.C U.U.U.U.",
"U.U.U.5.1.L U.U.C.7.1.& U.U.#.0.K U.%.5.W U.l.4.5.&.5.=.w.&.G [ ;.@.#.#.%.5.1.#.5.8.=.o *.8.;.@.%.%.1.5.#.@.S.U.U.U.o K.U.U.S.@.I.U.K.-.M U.L L U.U.o ..V U.U.U.",
"U.U.U.1.8./ U.U.b.8.1.S.U.U.E 8.*.U.@.8.j.U.U.J.*.&.8.1.*.%.%.#.&.4.6.4.@.0.q.o J.I.I.I.8.8.V U.U.U.U.K.U.U.U.U.U.U.S.K.U.U.b.*.o U.D.O.A.U.K R U.U.U.C O.U.U.U.",
"U.U.U.5.0.%.U.U.J.0.6.b.U.U.w.0.w.U.%.8.Y U.U.U.U./ 0.6.*.8.0.#.4.6.0.j.G.0.8.S.U.U.J.K.0.0.~ j.j.j.j.I.U.U.U.U.U.U.D.D.U.U.S.[ O.O...O.V U.O.Q U.U.U.N.*.U.U.U.",
"U.U.U.6.0.F U.U.G.0.0.S.U.U.w.0.*.J.q.8.q.Y w.W / w.0.6.*.7.0.%.4.5.5.G.S.0.8.V.U.U.U.l.0.0.q.5.q.6.3.M U.U.D.U.U.U.b.U.U.U.b.@.& l.o K o U.U Y U.U.U.X K U.U.U.",
"U.U.U.5.0./ U.U.S.0.6.b.U.U.w.0.} U.%.0.8.5.8.8.5.6.0.5.*.5.0.@.4.5.0.0.W 0.5.b.U.U.U.J.8.6.j U.U.D.U.U.U.U.U.U.U.U.b.U.U.U.S.X.l.U.U.O.X U.O.V U.U.b.K Y U.U.U.",
"U.U.U.w.8.#.& S./ 8.0.E G.& %.6.W D.1.6./ b.j.%.*.*.6.;.w.1.6.[ 4.5.6.7.&.2.;.S.U.U.U.K.2.1.W o & o C.o & & U.U.U.U.D.J.U.U.o K I.D.K.*.X U.K J Q L X.H F.U.U.U.",
"U.U.U.& #.;.,.6.,...;.0.8.2.1.X.S.U.#.#.Y I.*.8.6.1.@.J *.=.[ P 4.5.5.7.;.[ } o U.U.U.U.Y #.;.%.#.$.....#...O U.D.U.b.U.U.D.I.Y l.D.U.Y S.U.M V Y Y X U.U.U.U.U.",
"U.U.U.U.l.b.b.l.o L.D.M.o o o S.U.J.S.G.E q.5.5.5.q.%.@.0.A.b.Y 5.4.5.5.5.%.%.( S.U.U.U.K.o o o + O O O & & U.U.U.U.l.D.U.U.U.U.U.U.U.U.U.U.U.U.U.U.U.U.U.U.U.U.",
"U.U.U.U.U.U.U.F.U.U.U.U.U.U.U.U.U.U.U.j.8.8.5.5.5.5.8.5.l.U.U.U.j.5.5.6.5.7.5.8.8.S.U.U.U.U.U.U.U.U.U.U.U.U.U.U.U.D.D.D.U.U.U.U.U.U.U.U.U.U.U.U.U.U.U.U.U.U.U.U.",
"U.U.U.U.U.U.U.U.U.U.U.U.U.U.U.U.U.J.C 4.5.5.5.5.q.5.4.S.U.U.U.U.U.o 8.9.q.5.5.5.0.q.& U.U.U.U.U.U.U.U.U.U.U.U.U.U.U.D.J.U.U.U.U.U.U.U.U.U.U.U.U.U.U.U.U.U.U.U.U.",
"U.U.U.U.U.U.U.U.U.U.U.U.U.U.U.U.K.*.5.q.5.5.5.q.q.*.J.U.J.U.U.U.U.U.G.0.5.5.5.5.6.6.q.A.D.U.U.U.U.U.U.U.U.U.U.U.U.U.S.D.U.U.U.U.U.U.U.U.U.U.U.U.U.U.U.U.U.U.U.U.",
"U.U.U.U.U.U.U.U.U.U.U.U.U.U.U.S.&.5.4.5.5.5.q.q./ U.U.U.U.U.U.U.U.U.U.S.&.q.q.5.5.5.5.5./ D.U.U.U.U.U.U.U.U.U.U.U.U.S.D.U.U.U.U.U.U.U.U.U.U.U.U.U.U.U.U.U.U.U.U.",
"U.U.U.U.U.U.U.U.U.U.U.U.U.U.& 3.5.5.5.5.5.5.5.u.U.U.U.U.U.U.U.U.U.U.U.U.J.S.S.S.c.S.S.S.b.U.U.U.U.U.U.U.U.U.U.U.U.U.U.U.U.U.U.U.U.U.U.U.U.U.U.U.U.U.U.U.U.U.U.U.",
"U.U.U.U.U.U.U.U.U.U.U.U.U.u.q.5.5.5.5.5.7.4.& U.U.U.U.U.U.U.U.U.U.U.U.U.U.U.U.U.U.U.U.U.U.U.U.U.U.U.U.U.U.U.U.U.U.U.U.U.U.U.U.U.U.U.U.U.U.U.U.U.U.U.U.U.U.U.U.U.",
"U.U.U.U.U.U.U.U.U.U.U.D.L q.q.q.5.5.5.8.4.S.U.U.U.U.U.U.U.U.U.U.U.U.U.U.U.U.U.U.U.U.U.U.U.U.U.U.U.U.U.U.U.U.U.U.U.U.U.U.U.U.U.U.U.U.U.U.U.U.U.U.U.U.U.U.U.U.U.U.",
"U.U.U.U.U.U.U.U.U.U.K.*.5.4.5.5.7.q.5.4.J.U.U.U.U.U.U.U.U.U.U.U.U.U.U.U.U.U.U.U.U.U.U.U.U.U.U.U.U.U.U.U.U.U.U.U.U.U.U.U.U.U.U.U.U.U.U.U.U.U.U.U.U.U.U.U.U.U.U.U.",
"U.U.U.U.U.U.U.U.U.S.8.5.4.5.5.5.5.8./ U.U.U.U.U.U.U.U.U.U.U.U.U.U.U.U.U.U.U.U.U.U.U.U.U.U.U.U.U.U.U.U.U.U.U.U.U.U.U.U.U.U.U.U.U.U.U.U.U.U.U.U.U.U.U.U.U.U.U.U.U.",
"U.U.U.U.U.U.U.U.o 5.5.5.5.5.5.7.6.u.U.U.U.U.U.U.U.U.U.U.U.U.U.U.U.U.U.U.U.U.U.U.U.U.U.U.U.U.U.U.U.U.U.U.U.U.U.U.U.U.U.U.U.U.U.U.U.U.U.U.U.U.U.U.U.U.U.U.U.U.U.U.",
"U.U.U.U.U.U.U.u.&.4.%.&.-.%.%.&.u.U.U.U.U.U.U.U.U.U.U.U.U.U.U.U.U.U.U.U.U.U.U.U.U.U.U.U.U.U.U.U.U.U.U.U.U.U.U.U.U.U.U.U.U.U.U.U.U.U.U.U.U.U.U.U.U.U.U.U.U.U.U.U.",
"U.U.U.U.U.U.U.U.U.U.U.U.U.U.U.U.U.U.U.U.U.U.U.U.U.U.U.U.U.U.U.U.U.U.U.U.U.U.U.U.U.U.U.U.U.U.U.U.U.U.U.U.U.U.U.U.U.U.U.U.U.U.U.U.U.U.U.U.U.U.U.U.U.U.U.U.U.U.U.U.",
"U.U.U.U.U.U.U.U.U.U.U.U.U.U.U.U.U.U.U.U.U.U.U.U.U.U.U.U.U.U.U.U.U.U.U.U.U.U.U.U.U.U.U.U.U.U.U.U.U.U.U.U.U.U.U.U.U.U.U.U.U.U.U.U.U.U.U.U.U.U.U.U.U.U.U.U.U.U.U.U.",
"U.U.U.U.U.U.U.U.U.U.U.U.U.U.U.U.U.U.U.U.U.U.U.U.U.U.U.U.U.U.U.U.U.U.U.U.U.U.U.U.U.U.U.U.U.U.U.U.U.U.U.U.U.U.U.U.U.U.U.U.U.U.U.U.U.U.U.U.U.U.U.U.U.U.U.U.U.U.U.U.",
"U.U.U.U.U.U.U.U.U.U.U.U.U.U.U.U.U.U.U.U.U.U.U.U.U.U.U.U.U.U.U.U.U.U.U.U.U.U.U.U.U.U.U.U.U.U.U.U.U.U.U.U.U.U.U.U.U.U.U.U.U.U.U.U.U.U.U.U.U.U.U.U.U.U.U.U.U.U.U.U.",
"U.U.U.U.U.U.U.U.U.U.U.U.U.U.U.U.U.U.U.U.U.U.U.U.U.U.U.U.U.U.U.U.U.U.U.U.U.U.U.U.U.U.U.U.U.U.U.U.U.U.U.U.U.U.U.U.U.U.U.U.U.U.U.U.U.U.U.U.U.U.U.U.U.U.U.U.U.U.U.U.",
"U.U.U.U.U.U.U.U.U.U.U.U.U.U.U.U.U.U.U.U.U.U.U.U.U.U.U.U.U.U.U.U.U.U.U.U.U.U.U.U.U.U.U.U.U.U.U.U.U.U.U.U.U.U.U.U.U.U.U.U.U.U.U.U.U.U.U.U.U.U.U.U.U.U.U.U.U.U.U.U.",
"U.U.U.U.U.U.U.U.U.U.U.U.U.U.U.U.U.U.U.U.U.U.U.U.U.U.U.U.U.U.U.U.U.U.U.U.U.U.U.U.U.U.U.U.U.U.U.U.U.U.U.U.U.U.U.U.U.U.U.U.U.U.U.U.U.U.U.U.U.U.U.U.U.U.U.U.U.U.U.U.",
"U.U.U.U.U.U.U.U.U.U.U.U.U.U.U.U.U.U.U.U.U.U.U.U.U.U.U.U.U.U.U.U.U.U.U.U.U.U.U.U.U.U.U.U.U.U.U.U.U.U.U.U.U.U.U.U.U.U.U.U.U.U.U.U.U.U.U.U.U.U.U.U.U.U.U.U.U.U.U.U.",
"U.U.U.U.U.U.U.U.U.U.U.U.U.U.U.U.U.U.U.U.U.U.U.U.U.U.U.U.U.U.U.U.U.U.U.U.U.U.U.U.U.U.U.U.U.U.U.U.U.U.U.U.U.U.U.U.U.U.U.U.U.U.U.U.U.U.U.U.U.U.U.U.U.U.U.U.U.U.U.U.",
"U.U.U.U.U.U.U.U.U.U.U.U.U.U.U.U.U.U.U.U.U.U.U.U.U.U.U.U.U.U.U.U.U.U.U.U.U.U.U.U.U.U.U.U.U.U.U.U.U.U.U.U.U.U.U.U.U.U.U.U.U.U.U.U.U.U.U.U.U.U.U.U.U.U.U.U.U.U.U.U.",
"U.U.U.U.U.U.U.U.U.U.U.U.U.U.U.U.U.U.U.U.U.U.U.U.U.U.U.U.U.U.U.U.U.U.U.U.U.U.U.U.U.U.U.U.U.U.U.U.U.U.U.U.U.U.U.U.U.U.U.U.U.U.U.U.U.U.U.U.U.U.U.U.U.U.U.U.U.U.U.U.",
"U.U.U.U.U.U.U.U.U.U.U.U.U.U.U.U.U.U.U.U.U.U.U.U.U.U.U.U.U.U.U.U.U.U.U.U.U.U.U.U.U.U.U.U.U.U.U.U.U.U.U.U.U.U.U.U.U.U.U.U.U.U.U.U.U.U.U.U.U.U.U.U.U.U.U.U.U.U.U.U.",
"U.U.U.U.U.U.U.U.U.U.U.U.U.U.U.U.U.U.U.U.U.U.U.U.U.U.U.U.U.U.U.U.U.U.U.U.U.U.U.U.U.U.U.U.U.U.U.U.U.U.U.U.U.U.U.U.U.U.U.U.U.U.U.U.U.U.U.U.U.U.U.U.U.U.U.U.U.U.U.U.",
"U.U.U.U.U.U.U.U.U.U.U.U.U.U.U.U.U.U.U.U.U.U.U.U.U.U.U.U.U.U.U.U.U.U.U.U.U.U.U.U.U.U.U.U.U.U.U.U.U.U.U.U.U.U.U.U.U.U.U.U.U.U.U.U.U.U.U.U.U.U.U.U.U.U.U.U.U.U.U.U.",
"U.U.U.U.U.U.U.U.U.U.U.U.U.U.U.U.U.U.U.U.U.U.U.U.U.U.U.U.U.U.U.U.U.U.U.U.U.U.U.U.U.U.U.U.U.U.U.U.U.U.U.U.U.U.U.U.U.U.U.U.U.U.U.U.U.U.U.U.U.U.U.U.U.U.U.U.U.U.U.U.",
"U.U.U.U.U.U.U.U.U.U.U.U.U.U.U.U.U.U.U.U.U.U.U.U.U.U.U.U.U.U.U.U.U.U.U.U.U.U.U.U.U.U.U.U.U.U.U.U.U.U.U.U.U.U.U.U.U.U.U.U.U.U.U.U.U.U.U.U.U.U.U.U.U.U.U.U.U.U.U.U.",
"U.U.U.U.U.U.U.U.U.U.U.U.U.U.U.U.U.U.U.U.U.U.U.U.U.U.U.U.U.U.U.U.U.U.U.U.U.U.U.U.U.U.U.U.U.U.U.U.U.U.U.U.U.U.U.U.U.U.U.U.U.U.U.U.U.U.U.U.U.U.U.U.U.U.U.U.U.U.U.U.",
"U.U.U.U.U.U.U.U.U.U.U.U.U.U.U.U.U.U.U.U.U.U.U.U.U.U.U.U.U.U.U.U.U.U.U.U.U.U.U.U.U.U.U.U.U.U.U.U.U.U.U.U.U.U.U.U.U.U.U.U.U.U.U.U.U.U.U.U.U.U.U.U.U.U.U.U.U.U.U.U.",
"U.U.U.U.U.U.U.U.U.U.U.U.U.U.U.U.U.U.U.U.U.U.U.U.U.U.U.U.U.U.U.U.U.U.U.U.U.U.U.U.U.U.U.U.U.U.U.U.U.U.U.U.U.U.U.U.U.U.U.U.U.U.U.U.U.U.U.U.U.U.U.U.U.U.U.U.U.U.U.U.",
"U.U.U.U.U.U.U.U.U.U.U.U.U.U.U.U.U.U.U.U.U.U.U.U.U.U.U.U.U.U.U.U.U.U.U.U.U.U.U.U.U.U.U.U.U.U.U.U.U.U.U.U.U.U.U.U.U.U.U.U.U.U.U.U.U.U.U.U.U.U.U.U.U.U.U.U.U.U.U.U.",
"U.U.U.U.U.U.U.U.U.U.U.U.U.U.U.U.U.U.U.U.U.U.U.U.U.U.U.U.U.U.U.U.U.U.U.U.U.U.U.U.U.U.U.U.U.U.U.U.U.U.U.U.U.U.U.U.U.U.U.U.U.U.U.U.U.U.U.U.U.U.U.U.U.U.U.U.U.U.U.U.",
"U.U.U.U.U.U.U.U.U.U.U.U.U.U.U.U.U.U.U.U.U.U.U.U.U.U.U.U.U.U.U.U.U.U.U.U.U.U.U.U.U.U.U.U.U.U.U.U.U.U.U.U.U.U.U.U.U.U.U.U.U.U.U.U.U.U.U.U.U.U.U.U.U.U.U.U.U.U.U.U.",
"U.U.U.U.U.U.U.U.U.U.U.U.U.U.U.U.U.U.U.U.U.U.U.U.U.U.U.U.U.U.U.U.U.U.U.U.U.U.U.U.U.U.U.U.U.U.U.U.U.U.U.U.U.U.U.U.U.U.U.U.U.U.U.U.U.U.U.U.U.U.U.U.U.U.U.U.U.U.U.U.",
"U.U.U.U.U.U.U.U.U.U.U.U.U.U.U.U.U.U.U.U.U.U.U.U.U.U.U.U.U.U.U.U.U.U.U.U.U.U.U.U.U.U.U.U.U.U.U.U.U.U.U.U.U.U.U.U.U.U.U.U.U.U.U.U.U.U.U.U.U.U.U.U.U.U.U.U.U.U.U.U."
};
