/* XPM */
static char *xpm_[] = {
/* columns rows colors chars-per-pixel */
"80 80 203 2 ",
"   c #3B0003",
".  c #3A3939",
"X  c #414040",
"o  c #2E2C2D",
"O  c #474546",
"+  c #4A4848",
"@  c #373637",
"#  c #450302",
"$  c #590404",
"%  c #4B1403",
"&  c #5A1603",
"*  c #6B0204",
"=  c #770604",
"-  c #7D1603",
";  c #693B03",
":  c #792C0A",
">  c #424041",
",  c #464243",
"<  c #524F50",
"1  c #794805",
"2  c #754E08",
"3  c #7A6B0E",
"4  c #7D740D",
"5  c #7B6A11",
"6  c #7C7714",
"7  c #837F2E",
"8  c #8E8933",
"9  c #9E9833",
"0  c #978F43",
"q  c #9B9442",
"w  c #454444",
"e  c #454444",
"r  c #535051",
"t  c #565556",
"y  c #4E4C4D",
"u  c #514E4F",
"i  c #5A5859",
"p  c #3D3C40",
"a  c #4D4B4C",
"s  c #3D3C42",
"d  c #565454",
"f  c #4D4A4B",
"g  c #5D5B5C",
"h  c #575656",
"j  c #595758",
"k  c #646263",
"l  c #666364",
"z  c #9A944B",
"x  c #A8A24A",
"c  c #ADA65C",
"v  c #B0AB59",
"b  c #98944A",
"n  c #B4B063",
"m  c #9E985D",
"M  c #B9B56F",
"N  c #A7A259",
"B  c #C3BD70",
"V  c #E1DA65",
"C  c #DED971",
"Z  c #777676",
"A  c #5A5A59",
"S  c #656465",
"D  c #B6AE62",
"F  c #6D6A6B",
"G  c #870606",
"H  c #881907",
"J  c #8C1716",
"K  c #880E13",
"L  c #852707",
"P  c #93260B",
"I  c #853909",
"U  c #9A380D",
"Y  c #90211E",
"T  c #9B3E19",
"R  c #942827",
"E  c #84470B",
"W  c #994608",
"Q  c #845608",
"!  c #A34C0F",
"~  c #A7590D",
"^  c #A35F12",
"/  c #847A0D",
"(  c #9B7503",
")  c #826814",
"_  c #847B14",
"`  c #987117",
"'  c #83640F",
"]  c #A26402",
"[  c #B06E0D",
"{  c #A77902",
"}  c #B47A0A",
"|  c #B57510",
" . c #857D2A",
".. c #A9A249",
"X. c #999340",
"o. c #ACA64F",
"O. c #93890F",
"+. c #8C8516",
"@. c #948916",
"#. c #9C9218",
"$. c #8B820F",
"%. c #A88601",
"&. c #B88709",
"*. c #B99702",
"=. c #A59A17",
"-. c #B09312",
";. c #BBA604",
":. c #ABA419",
">. c #B6AB16",
",. c #BDB215",
"<. c #AFA40A",
"1. c #8F882A",
"2. c #938B28",
"3. c #999236",
"4. c #9F9739",
"5. c #96912E",
"6. c #A2992C",
"7. c #ADA536",
"8. c #B4AD31",
"9. c #A9A146",
"0. c #BBB64A",
"q. c #E0D843",
"w. c #E0D74E",
"e. c #E0D742",
"r. c #C29B06",
"t. c #C49A12",
"y. c #C4A901",
"u. c #CAB807",
"i. c #D1BA06",
"p. c #C9A412",
"a. c #C5B914",
"s. c #D3BB10",
"d. c #DFD538",
"f. c #C8BD29",
"g. c #DFD63F",
"h. c #CFC40D",
"j. c #DBCE02",
"k. c #DDD100",
"l. c #CEC213",
"z. c #D6CA14",
"x. c #DCD117",
"c. c #E2D803",
"v. c #E0D211",
"b. c #DFE005",
"n. c #E4E002",
"m. c #DBCF2A",
"M. c #DCD326",
"N. c #DFD437",
"B. c #E0D638",
"V. c #CCC533",
"C. c #E0D331",
"Z. c #E0D521",
"A. c #BCB447",
"S. c #E3DA51",
"D. c #E1D84E",
"F. c #E4DD5B",
"G. c #D5CE57",
"H. c #E6DA57",
"J. c #E3DA52",
"K. c #E3DC60",
"L. c #E8DD65",
"P. c #5E5D5D",
"I. c #6C6869",
"U. c #696868",
"Y. c #666464",
"T. c #6E6A6B",
"R. c #736E6F",
"E. c #82806E",
"W. c #656467",
"Q. c #BA727B",
"!. c #747273",
"~. c #BDB97A",
"^. c #7A7778",
"/. c #BB7A7C",
"(. c #DCD89E",
"). c #D7D5D6",
"_. c #BA927B",
"`. c #9C9A6E",
"'. c #AEAC67",
"]. c #B5B06A",
"[. c #ECE590",
"{. c #BFA97C",
"}. c #E4DE7D",
"|. c #E6DF71",
" X c #E6E280",
".X c #C1C177",
"XX c #E8E393",
"oX c #EDE497",
"OX c #E6D4AB",
"+X c #E5DC83",
"@X c #8D8B8C",
"#X c #BFB8B6",
"$X c #848283",
"%X c #DBB6B4",
"&X c #E2DE9E",
"*X c #E2E4BF",
"=X c #9A999A",
"-X c #C0BFA4",
";X c #FAF4D5",
":X c #EFECE0",
">X c #F9E9E8",
",X c #E5E5E5",
"<X c None",
/* pixels */
"<X<X<X<X<X<X<X<X<X<X<X<X<X<X<X<X<X<X<X<X<X<X<X<X<X<X<X<X<X<X<X<X<X<X<X<X<X<X<X<X<X<X<X<X<X<X<X<X<X<X<X<X<X<X<X<X<X<X<X<X<X<X<X<X<X<X<X<X<X<X<X<X<X<X<X<X<X<X<X<X",
"<X<X<X<X<X<X<X<X<X<X<X<X<X<X<X<X<X<X<X<X<X<X<X<X<X<X<X<X<X<X<X<X<X<X<X<X<X<X<X<X<X<X<X<X<X<X<X<X<X<X<X<X<X<X<X<X<X<X<X<X<X<X<X<X<X<X<X<X<X<X<X<X<X<X<X<X<X<X<X<X",
"<X<X<X<X<X<X<X<X<X<X<X<X<X<X<X<X<X<X<X<X<X<X<X<X<X<X<X<X<X<X<X<X<X<X<X<X<X<X<X<X<X<X<X<X<X<X<X<X<X<X<X<X<X<X<X<X<X<X<X<X<X<X<X<X<X<X<X<X<X<X<X<X<X<X<X<X<X<X<X<X",
"<X<X<X<X<X<X<X<X<X<X<X<X<X<X<X<X<X<X<X<X<X<X<X<X<X<X<X<X<X<X<X<X<X<X<X<X<X<X<X<X<X<X<X<X<X<X<X<X<X<X<X<X<X<X<X<X<X<X<X<X<X<X<X<X<X<X<X<X<X<X<X<X<X<X<X<X<X<X<X<X",
"<X<X<X<X<X<X<X<X<X<X<X<X<X<X<X<X<X<X<X<X<X<X<X<X<X<X<X<X<X<X<X<X<X<X<X<X<X<X<X<X<X<X<X<X<X<X<X<X<X<X<X<X<X<X<X<X<X<X<X<X<X<X<X<X<X<X<X<X<X<X<X<X<X<X<X<X<X<X<X<X",
"<X<X<X<X<X<X<X<X<X<X<X<X<X<X<X<X<X<X<X<X<X<X<X<X<X<X<X<X<X<X<X<X<X<X<X<X<X<X<X<X<X<X<X<X<X<X<X<X<X<X<X<X<X<X<X<X<X<X<X<X<X<X<X<X<X<X<X<X<X<X<X<X<X<X<X<X<X<X<X<X",
"<X<X<X<X<X<X<X<X<X<X<X<X<X<X<X<X<X<X<X<X<X<X<X<X<X<X<X<X<X<X<X<X<X<X<X<X<X<X<X<X<X<X<X<X<X<X<X<X<X<X<X<X<X<X<X<X<X<X<X<X<X<X<X<X<X<X<X<X<X<X<X<X<X<X<X<X<X<X<X<X",
"<X<X<X<X<X<X<X<X<X<X<X<X<X<X<X<X<X<X^..XN b 3.K.3.K.+.b +.L.F a ~.#X<X<X<X<X<X<X<X<X<X<X<X<X<X<X<X<X<X<X<X<X<X<X<X<X<X<X<X<X<X<X<X<X<X<X<X<X<X<X<X<X<X<X<X<X<X<X",
"<X<X<X<X<X<X<X<X<X<X<X<X<X.Xm o.3.1.+.+.+.+.+.O.O.O.#.=.#.=.#.#.C.8.1.K.m :X<X<X<X<X<X<X<X<X<X<X<X<X<X<X<X<X<X<X<X<X<X<X<X<X<X<X<X<X<X<X<X<X<X<X<X<X<X<X<X<X<X<X",
"<X<X<X<X<X<X<X<X<X^.m ..0.2./ / ` O.:.:.p.l.l.h.v.z.z.j.j.j.z.s.Z.x.,.>.=.6.K.N *X<X<X<X<X<X<X<X<X<X<X<X<X<X<X<X<X<X<X<X<X<X<X<X<X<X<X<X<X<X<X<X<X<X<X<X<X<X<X<X",
"<X<X<X<X<X<XW.N G.2.$./ $.#.:.a.s.v.k.c.c.c.j.c.c.j.k.j.k.k.k.k.c.c.c.j.j.h.a.>.7.b *X<X<X<X<X<X<X<X<X<X<X<X<X<X<X<X<X<X<X<X<X<X<X<X<X<X<X<X<X<X<X<X<X<X<X<X<X<X",
"<X<X<X<X<X:X5._ +.@.=.a.h.j.c.c.k.k.j.k.j.j.j.j.j.j.j.k.k.k.k.k.j.j.j.j.j.c.j.j.z.a.8.N <X<X<X<X<X<X<X<X<X<X<X<X<X<X<X<X<X<X<X<X<X<X<X<X<X<X<X<X<X<X<X<X<X<X<X<X",
"<X<X<X<X<X,XA.+.p.z.c.c.c.j.j.j.k.k.k.k.k.k.k.k.c.j.j.j.c.j.j.c.j.j.c.j.j.j.k.j.c.c.j.a.A.:X<X<X<X<X<X<X<X<X<X<X<X<X<X<X<X<X<X<X<X<X<X<X<X<X<X<X<X<X<X<X<X<X<X<X",
"<X<X<X<X<X<XL.:.n.k.k.j.j.c.j.c.k.k.k.k.k.k.k.k.j.c.j.c.j.c.c.j.j.c.j.j.j.c.c.j.j.j.c.j.k.m.N <X<X<X<X<X<X<X<X<X<X<X<X<X<X<X<X<X<X<X<X<X<X<X<X<X<X<X<X<X<X<X<X<X",
"<X<X<X<X<X<X) O.v.c.c.j.j.c.c.j.k.k.k.c.k.j.j.c.j.c.c.j.j.j.j.j.c.j.j.c.c.j.c.c.j.j.j.j.j.k.l.L.<X<X<X<X<X<X<X*XN ..K.b m .X:X<X<X<X<X<X<X<X<X<X<X<X<X<X<X<X<X<X",
"<X<X<X<X<X<X8 $.v.j.j.j.j.j.c.j.k.k.k.k.k.c.c.j.c.j.j.c.c.j.c.c.j.c.c.j.j.c.j.j.c.j.c.j.k.j.j.j.A.<X<X<X<X:X8 2.$./ O.O.#.6.6.9.a <X<X<X<X<X<X<X<X<X<X<X<X<X<X<X",
"<X<X<X<X<X<X8 @.j.c.k.k.k.k.k.k.c.k.k.k.k.k.k.k.j.c.j.j.c.j.c.j.j.k.c.j.c.j.j.c.k.k.k.k.j.k.j.j.c.5.<X<X].2./ / @.a.h.z.h.h.u.a.t.0.m #X<X<X<X<X<X<X<X<X<X<X<X<X",
"<X<X<X<X<X<Xb +.h.k.j.k.k.k.k.k.k.k.k.k.k.k.k.k.c.j.j.c.c.j.j.j.c.c.j.c.j.c.j.j.k.k.k.k.k.k.k.k.j.j.A.L._ 5 +.a.v.v.c.k.c.c.c.c.j.j.s.K.^.<X<X<X<X<X<X<X<X<X<X<X",
"<X<X<X<X<X<XA +.h.j.j.j.k.k.k.k.k.k.k.k.k.k.k.k.c.j.j.j.k.j.j.k.k.j.j.j.j.j.j.c.k.k.k.k.k.k.k.j.c.h.n.V.3 =.v.c.j.j.j.k.j.j.j.j.j.k.j.j.N.^.<X<X<X<X<X<X<X<X<X<X",
"<X<X<X<X<X<X].+.h.c.j.k.k.k.k.c.k.k.k.k.j.j.j.k.j.j.c.c.j.c.c.c.c.c.j.c.j.c.j.j.j.k.k.k.j.k.k.k.c.c.c.c.a.v.j.j.j.c.k.k.j.c.j.j.k.j.j.j.k.m..X<X<X<X<X<X<X<X<X<X",
"<X<X<X<X<X<X.X+.a.c.j.k.k.k.k.k.k.k.j.j.j.k.c.c.c.z.z.h.a.a.a.a.p.a.s.l.z.z.k.j.k.k.k.k.c.k.j.k.j.j.j.j.c.j.j.j.j.c.j.c.c.j.c.j.k.k.k.k.c.c.C.#X<X<X<X<X<X<X<X<X",
"<X<X<X<X<X<X,X6 >.c.j.k.j.k.k.k.k.j.k.c.c.z.a.:.=.+./ @.=.=.:.,.a.a.a.l.s.z.x.x.v.z.j.k.j.j.c.k.j.j.c.j.j.j.j.c.j.j.c.j.j.c.j.c.k.k.k.k.c.c.n.C.>X<X<X<X<X<X<X<X",
"<X<X<X<X<X<X.X9.<.k.k.k.k.k.k.j.j.c.z.a.=.$._ O.=.>.s.j.j.v.c.c.c.c.c.k.k.k.k.k.j.v.j.k.j.c.j.c.c.j.j.j.j.c.j.j.c.j.c.j.j.c.j.c.k.k.k.k.k.k.j.j.D.<X<X<X<X<X<X<X",
"<X<X<X<X<X<X<Xm :.k.j.j.j.k.j.c.x.>.+.6 _ =.a.z.v.c.c.c.j.j.j.j.j.k.j.k.k.j.k.k.k.k.k.k.j.c.j.j.j.c.c.j.c.j.j.c.j.c.j.c.j.j.c.j.c.k.k.k.k.k.j.j.n.K.<X<X<X<X<X<X",
"<X<X<X<X<X<X<X<Xk Z.n.n.j.k.c.,.+.6 +.>.z.c.c.k.j.j.j.j.j.j.j.j.j.j.j.k.k.j.j.k.j.j.j.j.c.j.j.c.c.k.k.k.k.k.k.k.c.j.j.c.j.c.k.j.c.k.k.k.c.k.k.j.v.C.<X<X<X<X<X<X",
"<X<X<X<X<X<X<X<X<X~.Z.n.c.x.=.5 $.,.z.c.c.j.k.k.k.k.k.k.c.j.k.j.k.j.j.j.j.j.j.k.c.j.c.j.c.j.j.c.k.k.k.c.k.k.c.k.c.j.c.j.c.j.k.c.k.k.k.k.k.k.k.j.v.C.K.<X<X<X<X<X",
"<X<X<X<X<X<X<X<X<X<XOXZ.a.+.6 :.z.c.j.j.c.j.j.c.k.k.k.k.j.j.j.j.c.c.n.n.n.c.c.k.j.j.j.c.j.c.j.j.k.k.k.k.k.k.k.k.j.c.j.c.k.k.k.j.k.k.k.k.k.c.k.k.j.n.S.<X<X<X<X<X",
"<X<X<X<X<X<X<X<X<X<X8 @.5 +.l.c.c.j.j.c.j.j.j.j.k.k.k.j.c.c.c.j.;.%.{ ( %.*.y.j.c.c.c.j.j.j.j.c.k.k.k.k.k.c.k.k.j.j.j.j.j.j.k.c.k.k.k.k.k.k.k.k.c.c.C.>X<X<X<X<X",
"<X<X<X<X<X<X<X<X`.K./ 5 =.v.k.j.j.j.j.j.c.j.k.j.k.k.j.c.c.*.1 %           # # & 1 %.i.c.c.j.j.j.k.k.c.k.k.k.k.j.j.c.c.c.c.c.c.j.k.k.k.k.k.k.k.k.j.h.z..X<X<X<X<X",
"<X<X<X<X<X<X<X^.0.+.6 ,.v.k.j.k.c.j.c.j.c.j.k.k.j.j.c.i.1     # # $ & * * * * * $ # & Q i.c.j.j.j.k.k.k.k.k.k.j.k.p.~ ! ~ t.v.c.j.k.k.k.k.k.k.k.c.h.n.&X<X<X<X<X",
"<X<X<X<X<X<XW.5.4 _ a.c.k.k.j.j.j.j.c.j.j.j.j.k.j.c.y.%   # # $ = = = = = = = = = = * * & *.c.c.j.k.k.k.k.k.j.b.p.K = G G = ` k.k.k.k.k.k.k.c.k.n.n.n.K.<X<X<X<X",
"<X<X<X<X<X%X4._ _ a.c.j.k.k.k.k.c.j.j.c.j.c.c.k.c.y.#     # * - = = = = = = = = = = = = = * *.c.j.k.k.k.k.k.j.x.P G G G G G - :.v.k.k.k.k.k.c.c.c.n.n.H.<X<X<X<X",
"<X<X<X<X<X..6 ) a.c.k.c.j.j.j.c.k.k.k.k.k.k.j.k.j.% # # $ = = * = = = = = = = = = = = = - * *.c.j.j.j.c.j.j.c.t.= G G G G G H ) l.k.j.k.j.k.c.k.k.k.j.g.<X<X<X<X",
"<X<X<X<X`.+.5 a.c.j.k.j.c.j.c.j.k.k.c.k.k.k.j.n.2   # # = = = = = = = = = = = = = = = = * - j.k.j.c.j.j.k.j.n.[ G G G G G G G 5 >.c.j.j.k.k.k.k.k.k.k.g.<X<X<X<X",
"<X<X<X<X..6 =.c.j.k.j.j.j.j.c.j.k.k.k.k.k.j.n.*.    # * = = = = = = = = = = = = = = = = * W c.j.j.j.c.j.j.j.x.U G G G G G G G 3 =.c.j.j.k.k.k.k.k.k.k.g.<X<X<X<X",
"<X<X<X<X8 _ s.j.k.k.j.c.j.c.j.c.k.c.k.k.k.j.c.;   # * = = = = = = = = = = = = - = = = = * &.c.j.k.c.j.j.k.j.j.H = G G G G G G ' #.c.k.j.k.k.k.k.k.j.k.g.<X<X<X<X",
"<X<X<X<XF :.v.c.j.k.k.k.j.c.j.j.k.k.k.c.j.c.;.    % = = = = = = = = = = = - = = = = = = = i.c.j.k.k.k.j.j.k.s.G G G G G G G G 3 @.v.k.k.j.c.c.j.k.k.n.7.<X<X<X<X",
"<X<X<X<X>X5.x.c.k.k.k.k.c.j.j.c.k.k.k.k.j.n.Q   # * = = = = = = = = = = = = = = = = = * L k.j.k.k.k.k.k.j.c.p.G G G G G G G H 4 #.c.j.k.j.j.j.c.k.j.n.K.<X<X<X<X",
"<X<X<X<X<Xm >.j.j.j.k.j.c.j.j.c.k.k.j.j.k.j.%   # = = = = = = = = - = = = = = = = = = * ] n.j.j.k.j.k.k.k.c.&.G G G G G G G H 6 -.c.j.j.j.c.j.k.k.j.j.K.<X<X<X<X",
"<X<X<X<X<X<X3.j.c.j.c.j.j.c.j.j.k.k.k.k.j.j.;   * = = = = = = = = = = - = = = = = = = * r.c.j.k.j.c.k.j.j.n.| = G G G G G G I 6 :.c.j.c.j.j.c.k.k.j.z.].<X<X<X<X",
"<X<X<X<X<X<X_.:.c.c.c.j.c.j.j.c.k.k.j.k.j.c.c.Q = G = * * * * = = = = = = = = = = = * - j.j.j.j.k.k.k.k.j.n.! G G G G G G G Q _ p.c.k.k.j.k.k.k.n.n.C.`.<X<X<X<X",
"<X<X<X<X<X<X<X8 h.c.j.j.j.c.c.j.k.k.k.j.k.j.k.c.j.i.u.*.} W H * * * = = = = = = = = * W n.j.j.k.k.k.k.k.j.x.P G G G G G G G ) _ s.k.k.k.k.k.k.k.Z.n.C.,X<X<X<X<X",
"<X<X<X<X<X<X<X>X8.n.k.k.j.j.c.j.k.k.k.c.k.k.j.j.j.c.c.c.n.c.j.y.] : * * = = = = = = * } n.j.k.k.k.k.k.j.k.z.H G G G G G G H / +.v.j.k.k.k.k.k.j.n.c.C.<X<X<X<X<X",
"<X<X<X<X<X<X<X<Xf >.k.j.j.c.j.c.k.k.k.k.k.k.j.k.j.k.j.j.j.j.c.c.c.k.-.R = * = = = = = u.k.k.k.c.j.c.k.j.k.i.G G G G G H G L 6 =.c.j.k.k.c.j.k.k.v.c.H.<X<X<X<X<X",
"<X<X<X<X<X<X<X<X#X3.j.k.k.k.k.k.k.k.k.k.j.j.k.k.k.k.k.j.j.k.k.j.j.c.c.c.*.L * = = * L k.k.k.k.k.c.c.j.j.n.t.G G G G G G G E 6 >.c.j.k.k.k.k.k.k.j.c.K.<X<X<X<X<X",
"<X<X<X<X<X<X<X#X<Xm :.k.j.j.k.k.k.k.j.k.j.j.j.j.c.j.j.j.j.j.j.k.j.j.j.j.c.k.{ = * = ] n.j.k.k.k.j.k.j.j.n.| = G G G G G G E 6 a.c.k.k.k.c.k.k.k.j.z. X<X<X<X<X<X",
"<X<X<X<X<X<X<X<X<X<Xm h.j.j.j.j.k.k.k.k.k.c.n.k.c.v.c.c.c.c.k.j.j.c.j.k.j.k.n.u.L * y.c.j.k.k.k.j.c.j.j.n.^ G G G G G G G ) +.h.k.k.k.k.k.k.c.c.n.C.>X<X<X<X<X<X",
"<X<X<X<X<X<X<X<X<X<X<XK.k.h.j.j.j.b.k.z.p.| ~ ! U U ! ~ | p.v.c.c.k.j.j.k.j.j.c.k.] i.k.k.k.k.k.j.j.c.j.k.U G G G G G G G 6 +.j.k.k.k.k.k.k.v.n.n.C.>X<X<X<X<X<X",
"<X<X<X<X<X<X<X<X<X<X<X<XL.x.k.k.C.p.! J G G G G G G G G G G P ~ p.x.c.j.j.k.k.j.j.c.k.j.k.k.c.j.c.j.j.c.j.P G G G G G G H 6 #.c.j.c.j.c.j.j.j.j.j.g.<X<X<X<X<X<X",
"<X<X<X<X<X<X<X<X<X<X<X<X<X Xw.F./.R J J G G G G G G G G G G G G G U p.c.k.j.k.k.j.j.j.k.j.k.k.k.j.c.j.c.s.G G G G G G G L 6 =.c.j.j.c.j.j.c.c.j.j.K.<X<X<X<X<X<X",
"<X<X<X<X<X<X<X<X<X<X<X<X<X<X<X<X>X! G G G G G G G G G G G G G G G = = ^ x.k.j.k.c.k.k.j.k.k.j.c.c.j.j.c.t.G G G G G G G E 6 ,.c.j.c.j.c.c.j.j.h.v.K.<X<X<X<X<X<X",
"<X<X<X<X<X<X<X<X<X<X<X<X<X<X<X<X<XR G G G G G G G G G G G G G G G G G G / z.k.k.k.k.j.k.k.k.c.j.j.c.j.c.&.= G G G G G G Q 6 a.c.j.c.j.j.j.c.c.j.v..X<X<X<X<X<X<X",
"<X<X<X<X<X<X<X<X<X<X<X<X<X<X<X<X>XR P J G P G G G G G G G G G G G G G G : :.c.k.k.j.k.k.c.j.c.c.c.j.j.c.~ G G G G G G G ' _ z.k.j.c.j.c.c.j.c.j.C.<X<X<X<X<X<X<X",
"<X<X<X<X<X<X<X<X<X<X<X<X<X<X<X<X>XR P P G G G G G G G G G P G G G G G G H +.x.k.k.k.k.k.j.c.j.j.c.j.j.c.U G G G G G G G ) +.x.k.j.c.c.j.j.c.j.j.C.<X<X<X<X<X<X<X",
"<X<X<X<X<X<X<X<X<X<X<X<X<X<X<X<X>XT G G G G G G G G G G G G G G G G G G G ) a.c.j.k.k.k.j.j.j.j.j.j.c.z.P G G G G G G H 5 #.c.j.j.j.j.c.c.j.j.j.0.<X<X<X<X<X<X<X",
"<X<X<X<X<X<X<X<X<X<X<X<X<X<X<X<X<XR G P G G J G G J G G G G G J G G G G G Q =.c.j.k.k.k.c.j.c.c.j.j.c.i.G G G G G G G L _ =.c.j.j.j.c.j.c.j.j.j.K.<X<X<X<X<X<X<X",
"<X<X<X<X<X<X<X<X<X<X<X<X<X<X<X<X>XR P P J G G G G G G G G J G G G G G G G E =.v.j.k.k.j.c.j.j.j.k.j.c.t.= G G G G G G I 6 >.c.j.j.c.j.c.j.c.c.v. X<X<X<X<X<X<X<X",
"<X<X<X<X<X<X<X<X<X<X<X<X<X<X<X<X>XR P P G G P G G G G G G G G G G G G G G I +.j.k.k.k.j.j.c.c.j.j.k.n.} G G G G G G G E 6 a.k.j.j.j.c.j.k.k.v.Z..X<X<X<X<X<X<X<X",
"<X<X<X<X<X<X<X<X<X<X<X<X<X<X<X<X>XT G G G G G G P G G G G G G G G G G G G I +.h.c.k.j.j.j.c.j.j.k.j.k.~ = G G G G G G Q +.u.c.j.j.c.j.j.k.k.j.B.<X<X<X<X<X<X<X<X",
"<X<X<X<X<X<X<X<X<X<X<X<X<X<X<X<X<XR G G P G G G G G G J G G G G K G G G G I _ l.j.k.c.c.c.j.j.c.j.j.c.U G G G G G G G ' +.z.k.j.j.j.c.k.k.k.j.t.<X<X<X<X<X<X<X<X",
"<X<X<X<X<X<X<X<X<X<X<X<X<X<X<X<X>XR J G G G G G G G G J G G K G G G G G G : 6 a.c.j.j.j.c.j.c.j.k.k.z.H G G G G G G H / +.x.k.j.k.k.j.k.c.n.n.S.<X<X<X<X<X<X<X<X",
"<X<X<X<X<X<X<X<X<X<X<X<X<X<X<X<X>XR G J G J G G G G G G H G G G G G G G G H 6 ,.c.j.j.c.j.c.j.k.j.c.s.G G G G G G G H 6 #.k.k.k.k.c.j.c.v.n.n.K.<X<X<X<X<X<X<X<X",
"<X<X<X<X<X<X<X<X<X<X<X<X<X<X<X<X>XT G J G G G G G G G G G G G G G G G G G L 6 >.c.j.c.j.c.j.k.j.j.c.t.G G G G G G G L 6 =.c.k.k.c.j.j.j.c.j.Z.(.<X<X<X<X<X<X<X<X",
"<X<X<X<X<X<X<X<X<X<X<X<X<X<X<X<X<XR G G G G G G G J G G K G G G G G G G G H 6 >.c.j.j.c.j.j.j.c.j.c.| = G G G G G G I 6 >.c.j.k.j.j.c.c.j.j.C.#X<X<X<X<X<X<X<X<X",
"<X<X<X<X<X<X<X<X<X<X<X<X<X<X<X<X%XJ G G G G G G G G G G G G G G J G G G G P _ >.c.j.j.k.k.j.j.j.j.v.! G G G G G G G W _ >.c.n.n.b.c.n.n.n.c.Z.<X<X<X<X<X<X<X<X<X",
"<X<X<X<X<X<X<X<X<X<X<X<X<X<X<X<X%XR K J R R P J J J U R P J J J R R J J K P ` p.c.j.k.j.k.c.k.j.k.k.T J J J J K Y R J ` l.v.C.C.v.Z.Z.Z.Z.Z.C.<X<X<X<X<X<X<X<X<X",
"<X<X<X<X<X<X<X<X<X<X<X<X<X<X<X<X%X>X^.^.,XQ._.>X>X%XQ.Q.Q.Q.>XQ.,XQ._.>X>X_.m D.C.C.M.m.C.N.V.d.V.D.OX^._._.>X,X_.,X>X_.N E *X'.OX%X.X%X%X#X>X<X<X<X<X<X<X<X<X<X",
"<X<X<X<X<X<X<X<X<X<X<X<X<X<X<X<X<X<X<X<X<X<X<X<X<X<X<X<X<X<X<X<X<X<X<X<X<X<X<X>X>X>X>X<X:X<X<X#X<X<X<X<X<X<X<X<X<X<X<X<X<X<X<X<X<X<X<X<X>X<X<X<X<X<X<X<X<X<X<X<X",
"<X<X<X<X<X<X<X<X<X<X<X<X<X<X<X<X%Xl < < @ s s <X<X>XO <X<X>XOXp <X<X<XY.Y.^.s s i A s W.Y.$X<X<X<X<X<X<Xs l <X<X<X<X:XA f p p < X s <X<X<X<XA >X<X<X<X<X<X<X<X<X",
"<X<X<X<X<X<X<X<X<X<X<X<X<X<X<X<X>X, l _.Y.l y <X<Xu w l <X>Xi m Y.<X<X@ A A e _.h `.A t e r <X<X<X<X<X%Xy , Y.<X<X<X#Xh h @ , h s S W.<X<XA D <X<X<X<X<X<X<X<X<X",
"<X<X<X<X<X<X<X<X<X<X<X<X<X<X<X<XW., l ,XY.l , <Xl , <Xr ,X<Xi , . h #X:Xp u A <X<X:XW.,Xs j <X<X<X<X<X, Y.^., <X<X<X<X<X<XW.y <X<Xj S <X<Xy A <X<X<X<X<X<X<X<X<X",
"<X<X<X<X<X<X<X<X<X<X<X<X<X<X<X<XW., o s l o < <X, s W.y y <Xr >X*Xe s A s u A <XA r r u A A <X<X<X<XY., Y.^., s <X<X<X<X<Xh y <X<XW.t ,X^.y <X<X<X<X<X<X<X<X<X<X",
"<X<X<X<X<X<X<X<X<X<X<X<X<X<X<X<X>X, >X<X<XW., u , , r , , s i Y.<X%X, , s , o <X<X<Xs , l o <X%X#X%Xo , u u @ . #X<X<X<X<XY.X <X<X<X^.r e ^.<X<X<X<X<X<X<X<X<X<X",
"<X<X<X<X<X<X<X<X<X<X<X<X<X<X<X<XW.w r u y , r t <X<X<X<XY.t t W.<X<X<X, A s e y t e , l l , r r e w u <X<X<X<Xu A <X<X<X<XY.y <X<X<XW.S @ <X<X<X<X<X<X<X<X<X<X<X",
"<X<X<X<X<X<X<X<X<X<X<X<X<X<X<X<X<X<X<X<X<X<X<X<X<X<X<X<X<X<X<X<X<X<X<X<X<X<X<X<X<X<X<X<X<X<X<X<X<X<X<X<X<X<X<X<X<X<X<X<X<X<X<X<X<X<X<X<X<X<X<X<X<X<X<X<X<X<X<X<X",
"<X<X<X<X<X<X<X<X<X<X<X<X<X<X<X<X<X<X<X<X<X<X<X<X<X<X<X<X<X<X<X<X<X<X<X<X<X<X<X<X<X<X<X<X<X<X<X<X<X<X<X<X<X<X<X<X<X<X<X<X<X<X<X<X<X<X<X<X<X<X<X<X<X<X<X<X<X<X<X<X",
"<X<X<X<X<X<X<X<X<X<X<X<X<X<X<X<X<X<X<X<X<X<X<X<X<X<X<X<X<X<X<X<X<X<X<X<X<X<X<X<X<X<X<X<X<X<X<X<X<X<X<X<X<X<X<X<X<X<X<X<X<X<X<X<X<X<X<X<X<X<X<X<X<X<X<X<X<X<X<X<X",
"<X<X<X<X<X<X<X<X<X<X<X<X<X<X<X<X<X<X<X<X<X<X<X<X<X<X<X<X<X<X<X<X<X<X<X<X<X<X<X<X<X<X<X<X<X<X<X<X<X<X<X<X<X<X<X<X<X<X<X<X<X<X<X<X<X<X<X<X<X<X<X<X<X<X<X<X<X<X<X<X",
"<X<X<X<X<X<X<X<X<X<X<X<X<X<X<X<X<X<X<X<X<X<X<X<X<X<X<X<X<X<X<X<X<X<X<X<X<X<X<X<X<X<X<X<X<X<X<X<X<X<X<X<X<X<X<X<X<X<X<X<X<X<X<X<X<X<X<X<X<X<X<X<X<X<X<X<X<X<X<X<X",
"<X<X<X<X<X<X<X<X<X<X<X<X<X<X<X<X<X<X<X<X<X<X<X<X<X<X<X<X<X<X<X<X<X<X<X<X<X<X<X<X<X<X<X<X<X<X<X<X<X<X<X<X<X<X<X<X<X<X<X<X<X<X<X<X<X<X<X<X<X<X<X<X<X<X<X<X<X<X<X<X"
};
