/* XPM */
static char *xpm_[] = {
/* columns rows colors chars-per-pixel */
"80 80 35 1 ",
"  c #0086CB",
". c #0086CB",
"X c #0086CB",
"o c #0086CB",
"O c #0086CB",
"+ c #0086CB",
"@ c #0086CB",
"# c #0086CB",
"$ c #0086CB",
"% c #0086CB",
"& c #0086CB",
"* c #0086CB",
"= c #0086CB",
"- c #0086CB",
"; c #0086CB",
": c #0086CB",
"> c #0086CB",
", c #0086CB",
"< c #0086CB",
"1 c #0086CB",
"2 c #0086CB",
"3 c #0086CB",
"4 c #0086CB",
"5 c #0086CB",
"6 c #0086CB",
"7 c #0086CB",
"8 c #0086CB",
"9 c #0086CB",
"0 c #0086CB",
"q c #0086CB",
"w c #0086CB",
"e c #0086CB",
"r c #0086CB",
"t c #0086CB",
"y c None",
/* pixels */
"yyyyyyyyyyyyyyyyyyyyyyyyyyyyyyyyyyyyyyyyyyyyyyyyyyyyyyyyyyyyyyyyyyyyyyyyyyyyyyyy",
"yyyyyyyyyyyyyyyyyyyyyyyyyyyyyyyyyyyyyyyyyyyyyyyyyyyyyyyyyyyyyyyyyyyyyyyyyyyyyyyy",
"yyyyyyyyyyyyyyyyyyyyyyyyyyyyyyyyyyyyyyyyyyyyyyyyyyyyyyyyyyyyyyyyyyyyyyyyyyyyyyyy",
"yyyyyyyyyyyyyyyyyyyyyyyyyyyyyyyyyyyyyyyyyyyyyyyyyyyyyyyyyyyyyyyyyyyyyyyyyyyyyyyy",
"yyyyyyyyyyyyyyyyyyyyyyyyyyyyyyyyyyyyyyyyyyyyyyyyyyyyyyyyyyyyyyyyyyyyyyyyyyyyyyyy",
"yyyyyyyyyyyyyyyyyyyyyyyyyyyyyyyyyyyyyyyyyyyyyyyyyyyyyyyyyyyyyyyyyyyyyyyyyyyyyyyy",
"yyyyyyyyyyyyyyyyyyyyyyyyyyyyyyyyyyyyyyyyyyyyyyyyyyyyyyyyyyyyyyyyyyyyyyyyyyyyyyyy",
"yyyyyyyyyyyyyyyyyyyyyyyyyyyyyyyyyyyyyyyyyyyyyyyyyyyyyyyyyyyyyyyyyyyyyyyyyyyyyyyy",
"yyyyyyyyyyyyyyyyyyyyyyyyyyyyyyyyyyyyyyyyyyyyyyyyyyyyyyyyyyyyyyyyyyyyyyyyyyyyyyyy",
"yyyyyyyyyyyyyyyyyyyyyyyyyyyyyyyyyyyyyyyyyyyyyyyyyyyyyyyyyyyyyyyyyyyyyyyyyyyyyyyy",
"yyyyyyyyyyyyyyyyyyyyyyyyyyyyyyyyyyyyyyyyyyyyyyyyyyyyyyyyyyyyyyyyyyyyyyyyyyyyyyyy",
"yyyyyyyyyyyyyyyyyyyyyyyyyyyyyyyyyyyyyyyyyyyyyyyyyyyyyyyyyyyyyyyyyyyyyyyyyyyyyyyy",
"yyyyyyyyyyyyyyyyyyyyyyyyyyyyyyyyyyyyyyyyyyyyyyyyyyyyyyyyyyyyyyyyyyyyyyyyyyyyyyyy",
"yyyyyyyyyyyyyyyyyyyyyyyyyyyyyyyyyyyyyyyyyyyyyyyyyyyyyyyyyyyyyyyyyyyyyyyyyyyyyyyy",
"yyyyyyyyyyyyyyyyyyyyyyyyyyyyyyyyyyyyyyyyyyyyyyyyyyyyyyyyyyyyyyyyyyyyyyyyyyyyyyyy",
"yyyyyyyyyyyyyyyyyyyyyyyyyyyyyyyyyyyyyyyyyyyyyyyyyyyyyyyyyyyyyyyyyyyyyyyyyyyyyyyy",
"yyyyyyyyyyyyyyyyyyyyyyyyyyyyyyyyyyyyyyyyyyyyyyyyyyyyyyyyyyyyyyyyyyyyyyyyyyyyyyyy",
"yyyyyyyyyyyyyyyyyyyyyyyyyyyyyyyyyyyyyyyyyyyyyyyyyyyyyyyyyyyyyyyyyyyyyyyyyyyyyyyy",
"yyyyyyyyyyyyyyyyyyyyyyyyyyyyyyyyyyyyyyyyyyyyyyyyyyyyyyyyyyyyyyyyyyyyyyyyyyyyyyyy",
"yyyyyyyyyyyyyyyyyyyyyyyyyyyyyyyyyyyyyyyyyyyyyyyyyyyyyyyyyyyyyyyyyyyyyyyyyyyyyyyy",
"yyyyyyyyyyyyyyyyyyyyyyyyyyyyyyyyyyyyyyyyyyyyyyyyyyyyyyyyyyyyyyyyyyyyyyyyyyyyyyyy",
"yyyyyyyyyyyyyyyyyyyyyyyyyyyyyyyyyyyyyyyyyyyyyyyyyyyyyyyyyyyyyyyyyyyyyyyyyyyyyyyy",
"yyyyyyyyyyyyyyyyyyyyyyyyyyyyyyyyyyyyyyyyyyyyyyyyyyyyyyyyyyyyyyyyyyyyyyyyyyyyyyyy",
"yyyyyyyyyyyyyyyyyyyyyyyyyyyyyyyyyyyyyyyyyyyyyyyyyyyyyyyyyyyyyyyyyyyyyyyyyyyyyyyy",
"yyy@,,,,,,,,,,::6yyyy8,*,,,**#:3yyyyyyyyyyyyyyyyyyyyyyyyyyyyyyyyyyyyyyyyyyyyyyyy",
"yyy,,,,,,,,,,,,,,#6yyy:,,,,,,,,,,:yyyyyyyyyyyyyyyyyyyyyyyyyyyyyyyyyyyyyyyyyyyyyy",
"yyy,,,,,,,,,,,,,,,,8yyy#,,,,,,,,,,,1yyyyyyyyyyyyyyyyyyyyyyyyyyyyyyyyyyyyyyyyyyyy",
"yyy,,,,,,,,,,,,,,,,,3yy6,,,,,,,,,,,,6yyyyyyyyyyyyyyyyyyyyyyyyyyyyyyyyyyyyyyyyyyy",
"yyy,,,,*yyee8:,,,,,,,yyyqqe68>,,,,,,*yyyyyyyyyyyyyyyyyyyyyyyyyyyyyyyyyyyyyyyyyyy",
"yyy,,,,@yyyyyye,,,,,,6yyyyyyyy6,,,,,,6yyyyyyyyyyyyyyyyyyyyyyyyyyyyyyyyyyyyyyyyyy",
"yyy,,,,*yyyyyyye,,,,,:yyyyyyyyy6,,,,,>yyyyyyyyyyyyyyyyyyyyyyyyyyyyyyyyyyyyyyyyyy",
"yyy,,,,*yyyyyyyy:,,,,#yyyyyyyyyy#,,,,*yyyyyyyyyyyyyyyyyyyyyyyyyyyyyyyyyyyyyyyyyy",
"yyy,,,,,yyyyyyyy6,,,,*yyyyyyyyyyo,,,,#yyyyyyyyyyyyyyyyyyyyyyyyyyyyyyyyyyyyyyyyyy",
"yyy,,,,*yyyyyyyy6,,,,>yyyyyyyyyyo,,,,:yyyyyyyyyyyyyyyyyyyyyyyyyyyyyyyyyyyyyyyyyy",
"yyy,,,,*yyyyyyyy8,,,,3yyyyyyyyyy:,,,,oyyyyyyyyyyyyyyyyyyyyyyyyyyyyyyyyyyyyyyyyyy",
"yyy,,,,#yyyyyyyy*,,,,yyyyyyyyyyy,,,,,wyyyyyyyyyyyyyyyyyyyyyyyyyyyyyyyyyyyyyyyyyy",
"yyy,,,,,yyyyyyy3,,,,3yyyyyyyyyy:,,,,>yyyyyyyyyyyyyyyyyyyyyyyyyyyyyyyyyyyyyyyyyyy",
"yyy,,,,*yyyyyy3,,,,8yyyyyyyyyq>,,,,,yyyyyyyyyqyyyyyyyyyyy9yyyyy9eye6eqyyyyyyyyyy",
"yyy,,,,*yyy18*,,,,3yyyyyyyw3:,,,,,,eyyyyyyyyq,,,oyyyyyy3,,,1yy>,,,,,,,,:8yyyyyyy",
"yyy,,,,*yyy>,,,,,,@:qyyyo,,,,,,,,:yyyyyyyyyyq,,,oyyyyyy3,,,6yy>,,,,,,,,,,,wyyyyy",
"yyy,,,,*yyyyywo,,,,,,6yyy*,,,,,@qyyyyyyyyyyyw,,,oyyyyyy3,,,1yy>,,,,,,,,,,,,wyyyy",
"yyy,,,,*yyyyyyyyo,,,,,6yyy:,,,,,8yyyyyyyyyyyy,,,oyyyyyy6,,,1yy:,,,yyyyo,,,,*yyyy",
"yyy,,,,,yyyyyyyyy:,,,,,yyyy#,,,,,wyyyyyyyyyyq,,,oyyyyyy3,,,6yy>,,,yyyyy6,,,,3yyy",
"yyy,,,,#yyyyyyyyyy,,,,,oyyyq=,,,,,yyyyyyyyyyq,,,oyyyyyy6,,,6yy>,,,yyyyyyo,,,>yyy",
"yyy,,,,*yyyyyyyyyy:,,,,:yyyy6,,,,,:yyyyyyyyyq,,,:yyyyyy6,,,6yy:,,*yyyyyyq,,,=yyy",
"yyy,,,,,yyyyyyyyyy8,,,,,yyyyy:,,,,,6yyyyyyyyq,,,,@@,@@,,,,,1yy>,,,yyyyyyy,,,,yyy",
"yyy,,,,#yyyyyyyyyy8,,,,*yyyyyy=,,,,,qyyyyyyyq,,,,,,,,,,,,,,6yy>,,,yyyyyyy*,,,yyy",
"yyy,,,,#yyyyyyyyyyo,,,,#yyyyyy6,,,,,>yyyyyyyq,,,,,,,,,,,,,,1yy>,,,yyyyyyy,,,,yyy",
"yyy,,,,#yyyyyyyyyy*,,,,:yyyyyyy:,,,,,8yyyyyy9,,,:w1166qo,,,6yy:,,@yyyyyyq,,,,yyy",
"yyy,,,,,yyyyyyyyyo,,,,,6yyyyyyyy*,,,,,wyyyyy9,,,oyyyyyy6,,,1yy>,,@yyyyyy6,,,:yyy",
"yyy,,,,:yyyyyyyr:,,,,,=yyyyyyyyy6,,,,,*yyyyy9,,,oyyyyyy3,,,1yy>,,@yyyyyy*,,,8yyy",
"yyy,,,,,8888::,,,,,,,,6yyyyyyyyyyo,,,,,:yyyyq,,,oyyyyyy3,,,6yy>,,,yyyyy:,,,*yyyy",
"yyy,,,,,,,,,,,,,,,,,,3yyyyyyyyyyyy,,,,,,6yyy9,,,oyyyyyy3,,,6yy:,,@wq13*,,,,6yyyy",
"yyy,,,,,,,,,,,,,,,,,6yyyyyyyyyyyyyw,,,,,,yyy9,,,oyyyyyy3,,,1yy>,,,,,,,,,,,3yyyyy",
"yyy,,,,,,,,,,,,,,#oyyyyyyyyyyyyyyyyo,,,,,*yy9,,,oyyyyyy3,,,1yy>,,,,,,,,,*6yyyyyy",
"yyy,,,,,,,#,,,:qwyyyyyyyyyyyyyyyyyyy*,@,,,3yq@@,oyyyyyy3,@,1yy:,,,,,,@:6yyyyyyyy",
"yyyyyyyyyyyyyyyyyyyyyyyyyyyyyyyyyyyyyyyyyyyyyyyyyyyyyyyyyyyyyyyyyyyyyyyyyyyyyyyy",
"yyyyyyyyyyyyyyyyyyyyyyyyyyyyyyyyyyyyyyyyyyyyyyyyyyyyyyyyyyyyyyyyyyyyyyyyyyyyyyyy",
"yyyyyyyyyyyyyyyyyyyyyyyyyyyyyyyyyyyyyyyyyyyyyyyyyyyyyyyyyyyyyyyyyyyyyyyyyyyyyyyy",
"yyyyyyyyyyyyyyyyyyyyyyyyyyyyyyyyyyyyyyyyyyyyyyyyyyyyyyyyyyyyyyyyyyyyyyyyyyyyyyyy",
"yyyyyyyyyyyyyyyyyyyyyyyyyyyyyyyyyyyyyyyyyyyyyyyyyyyyyyyyyyyyyyyyyyyyyyyyyyyyyyyy",
"yyyyyyyyyyyyyyyyyyyyyyyyyyyyyyyyyyyyyyyyyyyyyyyyyyyyyyyyyyyyyyyyyyyyyyyyyyyyyyyy",
"yyyyyyyyyyyyyyyyyyyyyyyyyyyyyyyyyyyyyyyyyyyyyyyyyyyyyyyyyyyyyyyyyyyyyyyyyyyyyyyy",
"yyyyyyyyyyyyyyyyyyyyyyyyyyyyyyyyyyyyyyyyyyyyyyyyyyyyyyyyyyyyyyyyyyyyyyyyyyyyyyyy",
"yyyyyyyyyyyyyyyyyyyyyyyyyyyyyyyyyyyyyyyyyyyyyyyyyyyyyyyyyyyyyyyyyyyyyyyyyyyyyyyy",
"yyyyyyyyyyyyyyyyyyyyyyyyyyyyyyyyyyyyyyyyyyyyyyyyyyyyyyyyyyyyyyyyyyyyyyyyyyyyyyyy",
"yyyyyyyyyyyyyyyyyyyyyyyyyyyyyyyyyyyyyyyyyyyyyyyyyyyyyyyyyyyyyyyyyyyyyyyyyyyyyyyy",
"yyyyyyyyyyyyyyyyyyyyyyyyyyyyyyyyyyyyyyyyyyyyyyyyyyyyyyyyyyyyyyyyyyyyyyyyyyyyyyyy",
"yyyyyyyyyyyyyyyyyyyyyyyyyyyyyyyyyyyyyyyyyyyyyyyyyyyyyyyyyyyyyyyyyyyyyyyyyyyyyyyy",
"yyyyyyyyyyyyyyyyyyyyyyyyyyyyyyyyyyyyyyyyyyyyyyyyyyyyyyyyyyyyyyyyyyyyyyyyyyyyyyyy",
"yyyyyyyyyyyyyyyyyyyyyyyyyyyyyyyyyyyyyyyyyyyyyyyyyyyyyyyyyyyyyyyyyyyyyyyyyyyyyyyy",
"yyyyyyyyyyyyyyyyyyyyyyyyyyyyyyyyyyyyyyyyyyyyyyyyyyyyyyyyyyyyyyyyyyyyyyyyyyyyyyyy",
"yyyyyyyyyyyyyyyyyyyyyyyyyyyyyyyyyyyyyyyyyyyyyyyyyyyyyyyyyyyyyyyyyyyyyyyyyyyyyyyy",
"yyyyyyyyyyyyyyyyyyyyyyyyyyyyyyyyyyyyyyyyyyyyyyyyyyyyyyyyyyyyyyyyyyyyyyyyyyyyyyyy",
"yyyyyyyyyyyyyyyyyyyyyyyyyyyyyyyyyyyyyyyyyyyyyyyyyyyyyyyyyyyyyyyyyyyyyyyyyyyyyyyy",
"yyyyyyyyyyyyyyyyyyyyyyyyyyyyyyyyyyyyyyyyyyyyyyyyyyyyyyyyyyyyyyyyyyyyyyyyyyyyyyyy",
"yyyyyyyyyyyyyyyyyyyyyyyyyyyyyyyyyyyyyyyyyyyyyyyyyyyyyyyyyyyyyyyyyyyyyyyyyyyyyyyy",
"yyyyyyyyyyyyyyyyyyyyyyyyyyyyyyyyyyyyyyyyyyyyyyyyyyyyyyyyyyyyyyyyyyyyyyyyyyyyyyyy",
"yyyyyyyyyyyyyyyyyyyyyyyyyyyyyyyyyyyyyyyyyyyyyyyyyyyyyyyyyyyyyyyyyyyyyyyyyyyyyyyy",
"yyyyyyyyyyyyyyyyyyyyyyyyyyyyyyyyyyyyyyyyyyyyyyyyyyyyyyyyyyyyyyyyyyyyyyyyyyyyyyyy"
};
