/* XPM */
static char *xpm_[] = {
/* columns rows colors chars-per-pixel */
"80 80 220 2 ",
"   c #000000",
".  c #010101",
"X  c #020202",
"o  c #030303",
"O  c #000000",
"+  c #040404",
"@  c #050505",
"#  c #060606",
"$  c #070707",
"%  c #080808",
"&  c #090909",
"*  c #0A0A0A",
"=  c #0B0B0B",
"-  c #0C0C0C",
";  c #0D0D0D",
":  c #0E0E0E",
">  c #0F0F0F",
",  c #101010",
"<  c #111111",
"1  c #131313",
"2  c #141414",
"3  c #151515",
"4  c #161616",
"5  c #171717",
"6  c #181818",
"7  c #191919",
"8  c #1A1A1A",
"9  c #1B1B1B",
"0  c #1E1E1E",
"q  c #1F1F1F",
"w  c #202020",
"e  c #212121",
"r  c #232323",
"t  c #252525",
"y  c #262626",
"u  c #272727",
"i  c #282828",
"p  c #292929",
"a  c #2A2A2A",
"s  c #2C2C2C",
"d  c #2D2D2D",
"f  c #2E2E2E",
"g  c #2F2F2F",
"h  c #303030",
"j  c #313131",
"k  c #323232",
"l  c #343434",
"z  c #353535",
"x  c #363636",
"c  c #373737",
"v  c #383838",
"b  c #393939",
"n  c #3A3A3A",
"m  c #3B3B3B",
"M  c #3C3C3C",
"N  c #3D3D3D",
"B  c #3E3E3E",
"V  c #404040",
"C  c #414141",
"Z  c #434343",
"A  c #444444",
"S  c #454545",
"D  c #464646",
"F  c #474747",
"G  c #484848",
"H  c #4A4A4A",
"J  c #4B4B4B",
"K  c #4C4C4C",
"L  c #4D4D4D",
"P  c #4E4E4E",
"I  c #4F4F4F",
"U  c #505050",
"Y  c #515151",
"T  c #525252",
"R  c #545454",
"E  c #555555",
"W  c #565656",
"Q  c #575757",
"!  c #595959",
"~  c #5A5A5A",
"^  c #5B5B5B",
"/  c #5D5D5D",
"(  c #5F5F5F",
")  c #606060",
"_  c #616161",
"`  c #626262",
"'  c #646464",
"]  c #656565",
"[  c #666666",
"{  c #676767",
"}  c #686868",
"|  c #6A6A6A",
" . c #6B6B6B",
".. c #6C6C6C",
"X. c #6F6F6F",
"o. c #707070",
"O. c #727272",
"+. c #737373",
"@. c #747474",
"#. c #757575",
"$. c #767676",
"%. c #787878",
"&. c #7A7A7A",
"*. c #7B7B7B",
"=. c #7C7C7C",
"-. c #7D7D7D",
";. c #7E7E7E",
":. c #7F7F7F",
">. c #808080",
",. c #818181",
"<. c #848484",
"1. c #858585",
"2. c #878787",
"3. c #888888",
"4. c #898989",
"5. c #8A8A8A",
"6. c #8B8B8B",
"7. c #8C8C8C",
"8. c #8D8D8D",
"9. c #8F8F8F",
"0. c #909090",
"q. c #919191",
"w. c #929292",
"e. c #939393",
"r. c #949494",
"t. c #959595",
"y. c #969696",
"u. c #979797",
"i. c #989898",
"p. c #999999",
"a. c #9A9A9A",
"s. c #9B9B9B",
"d. c #9C9C9C",
"f. c #9D9D9D",
"g. c #9E9E9E",
"h. c #9F9F9F",
"j. c #A0A0A0",
"k. c #A1A1A1",
"l. c #A2A2A2",
"z. c #A3A3A3",
"x. c #A4A4A4",
"c. c #A5A5A5",
"v. c #A7A7A7",
"b. c #A8A8A8",
"n. c #ABABAB",
"m. c #ACACAC",
"M. c #AEAEAE",
"N. c #AFAFAF",
"B. c #B1B1B1",
"V. c #B3B3B3",
"C. c #B4B4B4",
"Z. c #B5B5B5",
"A. c #B6B6B6",
"S. c #B9B9B9",
"D. c #BABABA",
"F. c #BCBCBC",
"G. c #BFBFBF",
"H. c #C1C1C1",
"J. c #C2C2C2",
"K. c #C3C3C3",
"L. c #C4C4C4",
"P. c #C5C5C5",
"I. c #C6C6C6",
"U. c #C7C7C7",
"Y. c #C8C8C8",
"T. c #C9C9C9",
"R. c #CACACA",
"E. c #CBCBCB",
"W. c #CCCCCC",
"Q. c #CDCDCD",
"!. c #CECECE",
"~. c #CFCFCF",
"^. c #D0D0D0",
"/. c #D1D1D1",
"(. c #D2D2D2",
"). c #D3D3D3",
"_. c #D4D4D4",
"`. c #D5D5D5",
"'. c #D6D6D6",
"]. c #D7D7D7",
"[. c #D8D8D8",
"{. c #D9D9D9",
"}. c #DADADA",
"|. c #DBDBDB",
" X c #DCDCDC",
".X c #DDDDDD",
"XX c #DEDEDE",
"oX c #DFDFDF",
"OX c #E0E0E0",
"+X c #E1E1E1",
"@X c #E2E2E2",
"#X c #E3E3E3",
"$X c #E4E4E4",
"%X c #E5E5E5",
"&X c #E6E6E6",
"*X c #E7E7E7",
"=X c #E8E8E8",
"-X c #E9E9E9",
";X c #EAEAEA",
":X c #EBEBEB",
">X c #EDEDED",
",X c #EEEEEE",
"<X c #EFEFEF",
"1X c #F0F0F0",
"2X c #F1F1F1",
"3X c #F2F2F2",
"4X c #F3F3F3",
"5X c #F4F4F4",
"6X c #F5F5F5",
"7X c #F6F6F6",
"8X c #F7F7F7",
"9X c #F8F8F8",
"0X c #F9F9F9",
"qX c #FAFAFA",
"wX c #FBFBFB",
"eX c #FCFCFC",
"rX c #FDFDFD",
"tX c #FEFEFE",
"yX c #FFFFFF",
"uX c None",
/* pixels */
"uXuXuXuXuXuXuXuXuXuXuXuXuXuXuXuXuXuXuXuXuXuXuXuXuXuXuXuXuXuXuXuXuXuXuXuXuXuXuXuXuXuXuXuXuXuXuXuXuXuXuXuXuXuXuXuXuXuXuXuXuXuXuXuXuXuXuXuXuXuXuXuXuXuXuXuXuXuXuXuX",
"uXuXuXuXuXuXuXuXuXuXuXuXuXuXuXuXuXuXuXuXuXuXuXuXuXuXuXuXuXuXuXuXuXuXuXuXuXuXuXuXuXuXuXuXuXuXuXuXuXuXuXuXuXuXuXuXuXuXuXuXuXuXuXuXuXuXuXuXuXuXuXuXuXuXuXuXuXuXuXuX",
"uXuXuXuXuXuXuXuXuXuXuXuXuXuXuXuXuXuXuXuXuXuXuXuXuXuXuXuXuXuXuXuXuXuXuXuXuXuXuXuXuXuXuXuXuXuXuXuXuXuXuXuXuXuXuXuXuXuXuXuXuXuXuXuXuXuXuXuXuXuXuXuXuXuXuXuXuXuXuXuX",
"uXuXuXuXuXuXuXuXuXuXuXuXuXuXuXuXuXuXuXuXuXuXuXuXuXuXuXuXuXuXuXuXuXuXuXuXuXuXuXuXuXuXuXuXuXuXuXuXuXuXuXuXuXuXuXuXuXuXuXuXuXuXuXuXuXuXuXuXuXuXuXuXuXuXuXuXuXuXuXuX",
"uXuXuXuXuXuXuXuXuXuXuXuXuXuXuXuXuXuXuXuXuXuXuXuXuXuXuXuXuXuXuXuXuXuXuXuXuXuXuXuXuXuXuXuXuXuXuXuXuXuXuXuXuXuXuXuXuXuXuXuXuXuXuXuXuXuXuXuXuXuXuXuXuXuXuXuXuXuXuXuX",
"uXuXuXuXuXuXuXuXuXuXuXuXuXuXuXuXuXuXuXuXuXuXuXuXuXuXuXuXuXuXuXuXuXuXuXuXuXuXuXuXuXuXuXuXuXuXuXuXuXuXuXuXuXuXuXuXuXuXuXuXuXuXuXuXuXuXuXuXuXuXuXuXuXuXuXuXuXuXuXuX",
"uXuXuXuXuXuXuXuXuXuXuXuXuXuXuXuXuXuXuXuXuXuXuXuXuXuXuXuXuXuXuXuXuXuXuXuXuXuXuXuXuXuXuXuXuXuXuXuXuXuXuXuXuXuXuXuXuXuXuXuXuXuXuXuXuXuXuXuXuXuXuXuXuXuXuXuXuXuXuXuX",
"uXuXuXuXuXuXuXuXuXuXuXuXuXuXuXuXuXuXuXuXuXuXuXuXuXuXuXuXuXuXuXuXuXuXuXuXuXuXuXuXuXuXuXuXuXuXuXuXuXuXuXuXuXuXuXuXuXuXuXuXuXuXuXuXuXuXuXuXuXuXuXuXuXuXuXuXuXuXuXuX",
"uXuXuXuXuXuXuXuXuXuXuXuXuXuXuXuXuXuXuXuXuXuXuXuXuXuXuXuXuXuXuXuXuXuXuXuXuXuXuXuXuXuXuXuXuXuXuXuXuXuXuXuXuXuXuXuXuXuXuXuXuXuXuXuXuXuXuXuXuXuXuXuXuXuXuXuXuXuXuXuX",
"uXuXuXuXuXuXuXuXuXuXuXuXuXuXuXuXuXuXuXuXuXuXuXuXuXuXuXuXuXuXuXuXuXuXuXuXuXuXuXuXuXuXuXuXuXuXuXuXuXuXuXuXuXuXuXuXuXuXuXuXuXuXuXuXuXuXuXuXuXuXuXuXuXuXuXuXuXuXuXuX",
"uXuXuXuXuXuXuXuXuXuXuXuXuXuXuXuXuXuXuXuXuXuXuXuXuXuXuXuXuXuXuXuXuXuXuXuXuXuXuXuXuXuXuXuXuXuXuXuXuXuXuXuXuXuXuXuXuXuXuXuXuXuXuXuXuXuXuXuXuXuXuXuXuXuXuXuXuXuXuXuX",
"uXuXuXuXuXuXuXuXuXuXuXuXuXuXuXuXuXuXuXuXuXuXuXuXuXuXuXuXuXuXuXuXuXuXuXuXuXuXuXuXuXuXuXuXuXuXuXuXuXuXuXuXuXuXuXuXuXuXuXuXuXuXuXuXuXuXuXuXuXuXuXuXuXuXuXuXuXuXuXuX",
"uXuXuXuXuXuXuXuXuXuXuXuXuXuXuXuXuXuXuXuXuXuXuXuXuXuXuXuXuXuXuXuXuXuXuXuXuXuXuXuXuXuXuXuXuXuXuXuXuXuXuXuXuXuXuXuXuXuXuXuXuXuXuXuXuXuXuXuXuXuXuXuXuXuXuXuXuXuXuXuX",
"uXuXuXO O O O O O O O O O O O O O O O O O O O O O O O O O O O O O O O O O O O O O O O O O O O O O O O O O O O O O O O O O O O O O O O O O O O O O O O O O uXuXuX",
"uXuXuXO O O O O O O O O O O O O O O O O O O O O O O O O O O O O O O O O O O O O O O O O O O O O O O O O O O O O O O O O O O O O O O O O O O O O O O O O O uXuXuX",
"uXuXuXO O O O O O O O O O O O O O O O O O O O O O O O O O O O O O O O O O O O O O O O O O O O O O O O O O O O O O O O O O O O O O O O O O O O O O O O O O uXuXuX",
"uXuXuXO O O O O O O O O O O O O O O O O O O O O O O O O O O O O O O O O O O O O O O O O O O O O O O O O O O O O O O O O O O O O O O O O O O O O O O O O O uXuXuX",
"uXuXuXO O O O O O O O O O O O O O O O O O O O O O O O O O O O O O O O O O O O O O O O O O O O O O O O O O O O O O O O O O O O O O O O O O O O O O O O O O uXuXuX",
"uXuXuXO O O O O O O O O O O O O O O O O O O O O O O O O O O O O O O O O O O O O O O O O O O O O O O O O O O O O O O O O O O O O O O O O O O O O O O O O O uXuXuX",
"uXuXuXO O O O O O O O O O O O O O O O O O O O O O O O O O O O O O O O O O O O O O O O O O O O O O O O O O O O O O O O O O O O O O O O O O O O O O O O O O uXuXuX",
"uXuXuXO O O O O O O O O O O O O O O O O O O O O O O O O O O O O O O O O O O O O O O O O O O O O O O O O O O O O O O O O O O O O O O O O O O O O O O O O O uXuXuX",
"uXuXuXO O O O O O O O O O O O O O O O O O O O O O O O O O O O O O O O O O O O O O O O O O O O O O O O O O O O O O O O O O O O O O O O O O O O O O O O O O uXuXuX",
"uXuXuXO O O O O O O O O O O O O O O O O O O O O O O O O O O O O O O O O O O O O O O O O O O O O O O O O O O O O O O O O O O O O O O O O O O O O O O O O O uXuXuX",
"uXuXuXO O O O O O O O O O O O O O O O O O O O O O O @ O O @ O O @ O O O @ O O O @ O O @ O O O O O @ O O @ O O O O O O O O O O O O O O O O O O O O O O O O uXuXuX",
"uXuXuXO O O O O O O O O O O O O O O O O O O O O O O O O O O O O O O O O O O O O O O O O O O O O O O O O O O O O O O O O O O O O O O O O O O O O O O O O O uXuXuX",
"uXuXuXO O O O O O O O O O O O O O O O O O O O O c /.I.'.XXXX/.I.~.S.O %.'.E.{.XXXXE.K.'.%.O S.E.E.{.XX{.XXE.~.c O @ O O O O O O O O O O O O O O O O O O O uXuXuX",
"uXuXuXO O O O O O O O O O O O O O O O O O O @ O F yXyXw._ ] ~.yXyXqXO k.yX=XX._ :.qXyXyXk.O qXyXyXh.Q Q 3.4XyXF O @ O O O O O O O O O O O O O O O O O O O uXuXuX",
"uXuXuXO O O O O O O O O O O O O O O O O O O @ O Z yXyX3 ~ :.O '.yX=XO r.yXF.O r.n c yXyXr.O >XyXn 0 w.r.Z x.yXB O @ O O O O O O O O O O O O O O O O O O O uXuXuX",
"uXuXuXO O O O O O O O O O O O O O O O O O O O O F yXyXt N.&X6 {.yX>XO a.yXF.6 yX<.B yXyXa.O yXa.< yXyXyXyXqXyXZ O @ O O O O O O O O O O O O O O O O O O O uXuXuX",
"uXuXuXO O O O O O O O O O O O O O O O O O O @ O Z yXyXd < - 0 &XyX=XO r.yXI.O t O | yXyXa.O yX~ _ yX4XqXqXyXyXZ O O O O O O O O O O O O O O O O O O O O O uXuXuX",
"uXuXuXO O O O O O O O O O O O O O O O O O O O O Z yXyXt n.yX| c yX=XO a.yXF.6 yXyX6 r.yXr.O yX9.6 yXyXyXyXqXyXF O @ O O O O O O O O O O O O O O O O O O O uXuXuX",
"uXuXuXO O O O O O O O O O O O O O O O O O O @ O Z yXyX3 ~ n.r T yX=XO r.yXS.O a.3.O N.yXr.O >XyXd i h.k.F r.yXZ O O O O O O O O O O O O O O O O O O O O O uXuXuX",
"uXuXuXO O O O O O O O O O O O O O O O O O O O O F yXyX3.~ Q 3.yXyX7XO h.yX#X] ~ ~ A.yXyXk.O 7XyXyX3.I I #.=XyXF O O O O O O O O O O O O O O O O O O O O O uXuXuX",
"uXuXuXO O O O O O O O O O O O O O O O O O O @ O c '.~.XX#X#X&X/./.K.O :.XX~.XX#X&XXXE.XX:.O K./.~.&X#XXX&X'.{.c O @ O O O O O O O O O O O O O O O O O O O uXuXuX",
"uXuXuXO O O O O O O O O O O O O O O O O O O O O O O O O O O O O O O O O O O O O O O O O O O O O O O O O O O O O O O O O O O O O O O O O O O O O O O O O O uXuXuX",
"uXuXuXO O O O O O O O O O O O O O O O O O O O O O O O O O O O O O O O O O O O O O O @ O O O O O O O O O O O O O O O O O O O O O O O O O O O O O O O O O O uXuXuX",
"uXuXuXO O O O O O O O O O O O O O O O O O O O O O O O @ O O O O O @ @ O O O O O O O O O O O O O O O O O O O O O O O O O O O O @ @ O O O O O O O O O O O O uXuXuX",
"uXuXuXO O O O O O O O O O O O O O O O O O O O O O @ O O O = 3 3 O O O O O O O O O O O O O O O O O O O O O O O O O O O O O O O O O O O O O O O O O O O O O uXuXuX",
"uXuXuXO O O O O O O O 3 I././././././.XXB O @ O O O < +.F.&X7X4XXXn.T O O @ O O O x.&XQ O @ O O O O @ O ,.>X%.O O n {./././.E.a.Z O O O O O O O O O O O O uXuXuX",
"uXuXuXO O O O O O @ O 6 yXyXyXyXyXyXyXyXT O @ O O Q &XyXyXyX4X7XyXyXyXI.t O @ O O /.yX| O @ O O O O @ O x.yXh.O O J yXyXyXyXyXyXyX9.O O O O O O O O O O O uXuXuX",
"uXuXuXO O O O O O O O 6 4XyX~ t d d d d - O @ O | yXyX{.] t 3 6 c 9.7XyX>Xi O @ O E.yX] O @ O O O O O O h.yXr.O O F yX&Xt 6 d 9.yXyXT O O O O O O O O O O uXuXuX",
"uXuXuXO O O O O O @ O 6 4XyXd O O O O O O @ O B yXyXx.@ O O O O O O d #XyX{.@ O O E.yX] O @ O O O O @ O h.yXr.O O F yX&X@ O O O N.yXn.O @ O O O O O O O O uXuXuX",
"uXuXuXO O O O O O O O 6 4XyXn O = @ @ = O O O I.yXI.O O @ O @ O @ @ O h qXyX#.O O E.yX] O @ O O O O @ O h.yXa.O O F yX&X< O = O :.yXK.O O O O O O O O O O uXuXuX",
"uXuXuXO O O O O O O O 6 4XyXi O O O O O O O c yXyXB O @ O O O O O O @ O r.yX~.O O E.yX| O @ O O O O O O h.yXr.O O F yX&X@ O O O A.yXn.O @ O O O O O O O O uXuXuX",
"uXuXuXO O O O O O @ O 6 4XyXh.,.<.<.,.9.d O +.yXXX@ O O O O O O O O @ O F yX7X0 O ~.yX] O @ O O O O @ O h.yXr.O O F yX=Xt 6 d a.yXyXI O O O O O O O O O O uXuXuX",
"uXuXuXO O O O O O O O 6 4XyXyXyXyXyXyXyX~ O 3.yXF.O O O O O O O O O O O t yXyXc O E.yX] O @ O O O O @ O h.yXr.O O F yXyXyXqXyXyX7X%.O O O O O O O O O O O uXuXuX",
"uXuXuXO O O O O O O O 6 4XyXw.| #.+.+.#.t O 3.yXF.O O O O O O O O O O O t yXyXc O E.yX| O @ O O O O @ O h.yXr.O O F yXqX&X>XyXyXh.O @ O O O O O O O O O O uXuXuX",
"uXuXuXO O O O O O O O 3 4XyXi O O O O O O O ] yX#X= O O O O O O O O @ O I yX4X6 O ~.yX] O @ O O O O O O k.yXr.O O F yX=X3 = +.yXyX<.O @ O O O O O O O O O uXuXuX",
"uXuXuXO O O O O O O O 6 4XyXn O = @ O @ @ O i yXyXT O @ O O O O O O @ O x.yXI.O O K.yX+.O @ O O O O @ O N.yX3.O O F yX&X= O O | yXyXI O @ O O O O O O O O uXuXuX",
"uXuXuXO O O O O O O O 6 4XyXc O O O O O O O O A.yX{.= O @ O @ @ @ @ O I yXyX( O O a.yXN.O @ @ O @ @ O @ #XyX( O O F yX&X- O @ O h.yX&X- O O O O O O O O O uXuXuX",
"uXuXuXO O O O O O O O 6 4XyXc O @ O O O O @ O t qXyXE.0 O O O O O O Q 4XyXF.O @ O J yXyX| O O O O O O r.yX4X3 O O F yX&X- O O O = XXyXr.O @ O O O O O O O uXuXuX",
"uXuXuXO O O O O O @ O 6 >XyXc O O O O O O O @ O J yXyX4Xw.I h c ( A.yXyX/.- O O O O n.yXyXx.I d n _ I.yXyXX.O @ O F yX#X- O O @ O I yXyXB O @ O O O O O O uXuXuX",
"uXuXuXO O O O O O @ O 6 yXyXn O @ O O O O O O @ O h E.yXyXyXyXyXyXyXyXa.= O O O O O O k.yXyXyXyXyXyXyXqX+.O @ @ O J yX7X< O O O @ O k.yX4X6 O O O O O O O uXuXuX",
"uXuXuXO O O O O O O O < k.V.t O @ O O O O O O O @ O O J r.I.'./.A.%.i O O @ O O O O O O B r.K.'.~.V.%.r O O O O O d A.a.= O O O @ O 3 x.S.( O @ O O O O O uXuXuX",
"uXuXuXO O O O O O O O O O O O O O O O O O O O O O O O O O O O O O O O @ O O O O O O O @ O O O O O O O O @ O O O O O O O O O O O O O O O O O O O O O O O O uXuXuX",
"uXuXuXO O O O O O O O O O @ O O O O O O O O O O O O O @ @ O O O O @ O O O O O O O O O O @ @ O O O O @ O O O O O O O @ @ O O O O O O O O @ O O O O O O O O uXuXuX",
"uXuXuXO O O O O O O O O O O O O O O O O O O O O O O O O O O O O O O O O O O O O O O O O O O O O O O O O O O O O O O O O O O O O O O O O O O O O O O O O O uXuXuX",
"uXuXuXO O O O O O O O O O O O O O O O O O O O O O O O O O O O O O O O O O O O O O O O O O O O O O O O O O O O O O O O O O O O O O O O O O O O O O O O O O uXuXuX",
"uXuXuXO O O O O O O O O O O O O O O O O O O O O O O O O O O O O O O O O O O O O O O O O O O O O O O O O O O O O O O O O O O O O O O O O O O O O O O O O O uXuXuX",
"uXuXuXO O O O O O O O O O O O O O O O O O O O O O O O O O O O O O O O O O O O O O O O O O O O O O O O O O O O O O O O O O O O O O O O O O O O O O O O O O uXuXuX",
"uXuXuXO O O O O O O O O O O O O O O O O O O O O O O O O O O O O O O O O O O O O O O O O O O O O O O O O O O O O O O O O O O O O O O O O O O O O O O O O O uXuXuX",
"uXuXuXO O O O O O O O O O O O O O O O O O O O O O O O O O O O O O O O O O O O O O O O O O O O O O O O O O O O O O O O O O O O O O O O O O O O O O O O O O uXuXuX",
"uXuXuXO O O O O O O O O O O O O O O O O O O O O O O O O O O O O O O O O O O O O O O O O O O O O O O O O O O O O O O O O O O O O O O O O O O O O O O O O O uXuXuX",
"uXuXuXO O O O O O O O O O O O O O O O O O O O O O O O O O O O O O O O O O O O O O O O O O O O O O O O O O O O O O O O O O O O O O O O O O O O O O O O O O uXuXuX",
"uXuXuXO O O O O O O O O O O O O O O O O O O O O O O O O O O O O O O O O O O O O O O O O O O O O O O O O O O O O O O O O O O O O O O O O O O O O O O O O O uXuXuX",
"uXuXuXO O O O O O O O O O O O O O O O O O O O O O O O O O O O O O O O O O O O O O O O O O O O O O O O O O O O O O O O O O O O O O O O O O O O O O O O O O uXuXuX",
"uXuXuXO O O O O O O O O O O O O O O O O O O O O O O O O O O O O O O O O O O O O O O O O O O O O O O O O O O O O O O O O O O O O O O O O O O O O O O O O O uXuXuX",
"uXuXuXuXuXuXuXuXuXuXuXuXuXuXuXuXuXuXuXuXuXuXuXuXuXuXuXuXuXuXuXuXuXuXuXuXuXuXuXuXuXuXuXuXuXuXuXuXuXuXuXuXuXuXuXuXuXuXuXuXuXuXuXuXuXuXuXuXuXuXuXuXuXuXuXuXuXuXuXuX",
"uXuXuXuXuXuXuXuXuXuXuXuXuXuXuXuXuXuXuXuXuXuXuXuXuXuXuXuXuXuXuXuXuXuXuXuXuXuXuXuXuXuXuXuXuXuXuXuXuXuXuXuXuXuXuXuXuXuXuXuXuXuXuXuXuXuXuXuXuXuXuXuXuXuXuXuXuXuXuXuX",
"uXuXuXuXuXuXuXuXuXuXuXuXuXuXuXuXuXuXuXuXuXuXuXuXuXuXuXuXuXuXuXuXuXuXuXuXuXuXuXuXuXuXuXuXuXuXuXuXuXuXuXuXuXuXuXuXuXuXuXuXuXuXuXuXuXuXuXuXuXuXuXuXuXuXuXuXuXuXuXuX",
"uXuXuXuXuXuXuXuXuXuXuXuXuXuXuXuXuXuXuXuXuXuXuXuXuXuXuXuXuXuXuXuXuXuXuXuXuXuXuXuXuXuXuXuXuXuXuXuXuXuXuXuXuXuXuXuXuXuXuXuXuXuXuXuXuXuXuXuXuXuXuXuXuXuXuXuXuXuXuXuX",
"uXuXuXuXuXuXuXuXuXuXuXuXuXuXuXuXuXuXuXuXuXuXuXuXuXuXuXuXuXuXuXuXuXuXuXuXuXuXuXuXuXuXuXuXuXuXuXuXuXuXuXuXuXuXuXuXuXuXuXuXuXuXuXuXuXuXuXuXuXuXuXuXuXuXuXuXuXuXuXuX",
"uXuXuXuXuXuXuXuXuXuXuXuXuXuXuXuXuXuXuXuXuXuXuXuXuXuXuXuXuXuXuXuXuXuXuXuXuXuXuXuXuXuXuXuXuXuXuXuXuXuXuXuXuXuXuXuXuXuXuXuXuXuXuXuXuXuXuXuXuXuXuXuXuXuXuXuXuXuXuXuX",
"uXuXuXuXuXuXuXuXuXuXuXuXuXuXuXuXuXuXuXuXuXuXuXuXuXuXuXuXuXuXuXuXuXuXuXuXuXuXuXuXuXuXuXuXuXuXuXuXuXuXuXuXuXuXuXuXuXuXuXuXuXuXuXuXuXuXuXuXuXuXuXuXuXuXuXuXuXuXuXuX",
"uXuXuXuXuXuXuXuXuXuXuXuXuXuXuXuXuXuXuXuXuXuXuXuXuXuXuXuXuXuXuXuXuXuXuXuXuXuXuXuXuXuXuXuXuXuXuXuXuXuXuXuXuXuXuXuXuXuXuXuXuXuXuXuXuXuXuXuXuXuXuXuXuXuXuXuXuXuXuXuX",
"uXuXuXuXuXuXuXuXuXuXuXuXuXuXuXuXuXuXuXuXuXuXuXuXuXuXuXuXuXuXuXuXuXuXuXuXuXuXuXuXuXuXuXuXuXuXuXuXuXuXuXuXuXuXuXuXuXuXuXuXuXuXuXuXuXuXuXuXuXuXuXuXuXuXuXuXuXuXuXuX",
"uXuXuXuXuXuXuXuXuXuXuXuXuXuXuXuXuXuXuXuXuXuXuXuXuXuXuXuXuXuXuXuXuXuXuXuXuXuXuXuXuXuXuXuXuXuXuXuXuXuXuXuXuXuXuXuXuXuXuXuXuXuXuXuXuXuXuXuXuXuXuXuXuXuXuXuXuXuXuXuX",
"uXuXuXuXuXuXuXuXuXuXuXuXuXuXuXuXuXuXuXuXuXuXuXuXuXuXuXuXuXuXuXuXuXuXuXuXuXuXuXuXuXuXuXuXuXuXuXuXuXuXuXuXuXuXuXuXuXuXuXuXuXuXuXuXuXuXuXuXuXuXuXuXuXuXuXuXuXuXuXuX",
"uXuXuXuXuXuXuXuXuXuXuXuXuXuXuXuXuXuXuXuXuXuXuXuXuXuXuXuXuXuXuXuXuXuXuXuXuXuXuXuXuXuXuXuXuXuXuXuXuXuXuXuXuXuXuXuXuXuXuXuXuXuXuXuXuXuXuXuXuXuXuXuXuXuXuXuXuXuXuXuX",
"uXuXuXuXuXuXuXuXuXuXuXuXuXuXuXuXuXuXuXuXuXuXuXuXuXuXuXuXuXuXuXuXuXuXuXuXuXuXuXuXuXuXuXuXuXuXuXuXuXuXuXuXuXuXuXuXuXuXuXuXuXuXuXuXuXuXuXuXuXuXuXuXuXuXuXuXuXuXuXuX"
};
