/* XPM */
static char *xpm_[] = {
/* columns rows colors chars-per-pixel */
"80 80 19 1 ",
"  c #000000",
". c #181818",
"X c #282828",
"o c #373737",
"O c #464646",
"+ c #575757",
"@ c #676767",
"# c #777777",
"$ c #888888",
"% c #918F8F",
"& c #989898",
"* c #A7A7A7",
"= c #B9B9B9",
"- c #C8C8C8",
"; c #D0CFCF",
": c #D7D7D7",
"> c #E6E6E6",
", c #FDFDFD",
"< c None",
/* pixels */
"<<<<<<<<<<<<<<<<<<<<<<<<<<<<<<<<<<<<<<<<<<<<<<<<<<<<<<<<<<<<<<<<<<<<<<<<<<<<<<<<",
"<<<<<<<<<<<<<<<<<<<<<<<<<<<<<<<<<<<<<<<<<<<<<<<<<<<<<<<<<<<<<<<<<<<<<<<<<<<<<<<<",
"<<<<<<<<<<<<<<<<<<<<<<<<<<<<<<<<<<<<<<<<<<<<<<<<<<<<<<<<<<<<<<<<<<<<<<<<<<<<<<<<",
"<<<<<<<<<<<<<<<<<<<<<<<<<<<<<<<<<<<<<<<<<<<<<<<<<<<<<<<<<<<<<<<<<<<<<<<<<<<<<<<<",
"<<<<<<<<<<<<<<<<<<<<<<<<<<<<<<<<<<<<<<<<<<<<<<<<<<<<<<<<<<<<<<<<<<<<<<<<<<<<<<<<",
"<<<<<<<<<<<<<<<<<<<<<<<<<<<<<<<<<<<<<<<<<<<<<<<<<<<<<<<<<<<<<<<<<<<<<<<<<<<<<<<<",
"<<<<<<<<<<<<<<<<<<<<<<<<<<<<<<<<<<<<<<<<<<<<<<<<<<<<<<<<<<<<<<<<<<<<<<<<<<<<<<<<",
"<<<<<<<<<<<<<<<<<<<<<<<<<<<<<<<<<<<<<<<<<<<<<<<<<<<<<<<<<<<<<<<<<<<<<<<<<<<<<<<<",
"<<<<<<<<<<<<<<<<<<<<<<<<<<<<<<<<<<<<<<<<<<<<<<<<<<<<<<<<<<<<<<<<<<<<<<<<<<<<<<<<",
"<<<<<<<<<<<<<<<<<<<<<<<<<<<<<<<<<<<<<<<<<<<<<<<<<<<<<<<<<<<<<<<<<<<<<<<<<<<<<<<<",
"<<<<<<<<<<<<<<<<<<<<<<<<<<<<<<<<<<<<<<<<<<<<<<<<<<<<<<<<<<<<<<<<<<<<<<<<<<<<<<<<",
"<<<<<<<<<<<<<<<<<<<<<<<<<<<<<<<<<<<<<<<<<<<<<<<<<<<<<<<<<<<<<<<<<<<<<<<<<<<<<<<<",
"<<<<<<<<<<<<<<<<<<<<<<<<<<<<<<<<<<<<<<<<<<<<<<<<<<<<<<<<<<<<<<<<<<<<<<<<<<<<<<<<",
"<<<                                                                          <<<",
"<<<                                                                          <<<",
"<<<                                                                          <<<",
"<<<                                                                          <<<",
"<<<                                                                          <<<",
"<<<                                                                          <<<",
"<<<                                                                          <<<",
"<<<                                                                          <<<",
"<<<                                                                          <<<",
"<<<                                                                          <<<",
"<<<                                                                          <<<",
"<<<                                                                          <<<",
"<<<                     o:-::>;-;= #:-:::--;# =--::::-;o                     <<<",
"<<<                     O,,%@@;,,, &,>#@$,,,* ,,,*++%,,O                     <<<",
"<<<                     O,,.+# :,> &,= &oo,,& >,o.%&O&,o                     <<<",
"<<<                     O,,X*>.:,> &,=.,$o,,& ,&.,,,,,,O                     <<<",
"<<<                     O,,X...>,> &,- X @,,& ,+@,>,,,,O                     <<<",
"<<<                     O,,X*,@o,> &,-.,,.&,& ,%.,,,,,,O       XX   @&&%X    <<<",
"<<<                     O,,.+*X+,> &,= &% *,& >,oX&*O&,O       =%  #:+O@:+   <<<",
"<<<                     O,,$++$,,, *,>@++=,,* ,,,$OO#>,O       -&. %-   o;   <<<",
"<<<                     o:;:>>>::= #:;:>>:;:# -;;>>>>::o       =:==:=X   ;.  <<<",
"<<<                                                            -%. $-   O;   <<<",
"<<<                                                            *%  @;@+#:O   <<<",
"<<<                                                            XX   +$%$X    <<<",
"<<<                           ..                                             <<<",
"<<<        .-:;;;;;:o     .#=>,>:*+      *>+        $>#  o:;;:-&O            <<<",
"<<<        .,,,,,,,,+    +>,,,,,,,,-X    :,@        *,*  O,,,,,,,%           <<<",
"<<<        .,,+XoXXo.   @,,:@X..o%,,>X   -,@        &,&  O,>X.X%,,+          <<<",
"<<<        .>,o        o,,*       X>,:   ;,@      . &,&  O,>    =,*          <<<",
"<<<        .,,o   .    -,-       . X,,#  -,@ .      *,&  O,>. . #,-          <<<",
"<<<        .>,X       o,,O          &,;  ;,@        &,&  O,>    =,*          <<<",
"<<<        .,,&$$$$$X #,:           O,>X ;,@        *,&  O,>X.X&,,O          <<<",
"<<<        .>,,,,,,,+ %,=           X,,o -,@        &,%  O,,,,,,,#           <<<",
"<<<        .,,%@#@##X $,=           X,,o ;,@        *,&  O,,>,,,&            <<<",
"<<<        .>,X       @,>.          O,,. -,@        &,&  O,>. #,,$           <<<",
"<<<        .>,o   .   X,,+          *,-  -,#        =,$  O,>.  @,,+          <<<",
"<<<        .,,o        =,:.        O,,@  &,*     .  >,+  O,>    &,>          <<<",
"<<<        .>,o        X,,-.      +,,=   O,,@      &,>.  O,>.   .:,&         <<<",
"<<<        .,,o         O,,,%Ooo@=,,;.    *,,*Ooo@-,,#   O,>.    O,,O        <<<",
"<<<        .,,o          o;,,,,,,,,&       *,,,,,,,,#    O,,      *,,.       <<<",
"<<<        .**X            O&-:;=#X         o&-:;=#X     X=*      .*=+       <<<",
"<<<                                                                          <<<",
"<<<                                                                          <<<",
"<<<                                                                          <<<",
"<<<                                                                          <<<",
"<<<                                                                          <<<",
"<<<                                                                          <<<",
"<<<                                                                          <<<",
"<<<                                                                          <<<",
"<<<                                                                          <<<",
"<<<                                                                          <<<",
"<<<                                                                          <<<",
"<<<                                                                          <<<",
"<<<                                                                          <<<",
"<<<<<<<<<<<<<<<<<<<<<<<<<<<<<<<<<<<<<<<<<<<<<<<<<<<<<<<<<<<<<<<<<<<<<<<<<<<<<<<<",
"<<<<<<<<<<<<<<<<<<<<<<<<<<<<<<<<<<<<<<<<<<<<<<<<<<<<<<<<<<<<<<<<<<<<<<<<<<<<<<<<",
"<<<<<<<<<<<<<<<<<<<<<<<<<<<<<<<<<<<<<<<<<<<<<<<<<<<<<<<<<<<<<<<<<<<<<<<<<<<<<<<<",
"<<<<<<<<<<<<<<<<<<<<<<<<<<<<<<<<<<<<<<<<<<<<<<<<<<<<<<<<<<<<<<<<<<<<<<<<<<<<<<<<",
"<<<<<<<<<<<<<<<<<<<<<<<<<<<<<<<<<<<<<<<<<<<<<<<<<<<<<<<<<<<<<<<<<<<<<<<<<<<<<<<<",
"<<<<<<<<<<<<<<<<<<<<<<<<<<<<<<<<<<<<<<<<<<<<<<<<<<<<<<<<<<<<<<<<<<<<<<<<<<<<<<<<",
"<<<<<<<<<<<<<<<<<<<<<<<<<<<<<<<<<<<<<<<<<<<<<<<<<<<<<<<<<<<<<<<<<<<<<<<<<<<<<<<<",
"<<<<<<<<<<<<<<<<<<<<<<<<<<<<<<<<<<<<<<<<<<<<<<<<<<<<<<<<<<<<<<<<<<<<<<<<<<<<<<<<",
"<<<<<<<<<<<<<<<<<<<<<<<<<<<<<<<<<<<<<<<<<<<<<<<<<<<<<<<<<<<<<<<<<<<<<<<<<<<<<<<<",
"<<<<<<<<<<<<<<<<<<<<<<<<<<<<<<<<<<<<<<<<<<<<<<<<<<<<<<<<<<<<<<<<<<<<<<<<<<<<<<<<",
"<<<<<<<<<<<<<<<<<<<<<<<<<<<<<<<<<<<<<<<<<<<<<<<<<<<<<<<<<<<<<<<<<<<<<<<<<<<<<<<<",
"<<<<<<<<<<<<<<<<<<<<<<<<<<<<<<<<<<<<<<<<<<<<<<<<<<<<<<<<<<<<<<<<<<<<<<<<<<<<<<<<",
"<<<<<<<<<<<<<<<<<<<<<<<<<<<<<<<<<<<<<<<<<<<<<<<<<<<<<<<<<<<<<<<<<<<<<<<<<<<<<<<<"
};
