/* XPM */
static char *xpm_[] = {
/* columns rows colors chars-per-pixel */
"80 80 65 1 ",
"  c #000000",
". c #000000",
"X c #000000",
"o c #000000",
"O c #000000",
"+ c #000000",
"@ c #000000",
"# c #000000",
"$ c #D3021D",
"% c #D3021D",
"& c #D3021D",
"* c #D3021D",
"= c #D3021D",
"- c #D3021D",
"; c #D3021D",
": c #CE0005",
"> c #D0000E",
", c #D3021C",
"< c #D3021C",
"1 c #D3021D",
"2 c #D40722",
"3 c #D6132C",
"4 c #D71B33",
"5 c #D9223A",
"6 c #DB3349",
"7 c #DE3E53",
"8 c #DF4458",
"9 c #E04E61",
"0 c #E25668",
"q c #E35F70",
"w c #E56777",
"e c #D3021D",
"r c #D3021D",
"t c #D3021D",
"y c #D3021D",
"u c #E87987",
"i c #E9808D",
"p c #EA8995",
"a c #EC919C",
"s c #EE9BA6",
"d c #EFA2AC",
"f c #F0A7B0",
"g c #F2B4BC",
"h c #F3B9C1",
"j c #F5C6CC",
"k c #F6CED3",
"l c #F8D6DB",
"z c #FBE7EA",
"x c #FCEFF0",
"c c #FFFEFE",
"v c #000000",
"b c #000000",
"n c #000000",
"m c #000000",
"M c #D3021D",
"N c #D3021D",
"B c #D3021D",
"V c #D3021D",
"C c #000000",
"Z c #000000",
"A c #D3021D",
"S c #D3021D",
"D c #260005",
"F c #D3021D",
"G c None",
/* pixels */
"GGGGGGGGGGGGGGGGGGGGGGGGGGGGGGGGGGGGGGGGGGGGGGGGGGGGGGGGGGGGGGGGGGGGGGGGGGGGGGGG",
"GGGGGGGGGGGGGGGGGGGGGGGGGGGGGGGGGGGGGGGGGGGGGGGGGGGGGGGGGGGGGGGGGGGGGGGGGGGGGGGG",
"GGGGGGGGGGGGGGGGGGGGGGGGGGGGGGGGGGGGGGGGGGGGGGGGGGGGGGGGGGGGGGGGGGGGGGGGGGGGGGGG",
"GGGGGGGGGGGGGGGGGGGGGGGGGGGGGGGGGGGGGGGGGGGGGGGGGGGGGGGGGGGGGGGGGGGGGGGGGGGGGGGG",
"GGGGGGGGGGGGGGGGGGGGGGGGGGGGGGGGGGGGGGGGGGGGGGGGGGGGGGGGGGGGGGGGGGGGGGGGGGGGGGGG",
"GGGGGGGGGGGGGGGGGGGGGGGGGGGGGGGGGGGGGGGGGGGGGGGGGGGGGGGGGGGGGGGGGGGGGGGGGGGGGGGG",
"GGGGGGGGGGGGGGGGGGGGGGGGGGGGGGGGGGGGGGGGGGGGGGGGGGGGGGGGGGGGGGGGGGGGGGGGGGGGGGGG",
"GGGGGGGGGGGGGGGGGGGGGGGGGGGGGGGGGGGGGGGGGGGGGGGGGGGGGGGGGGGGGGGGGGGGGGGGGGGGGGGG",
"GGGGGGGGGGGGGGGGGGGGGGGGGGGGGGGGGGGGGGGGGGGGGGGGGGGGGGGGGGGGGGGGGGGGGGGGGGGGGGGG",
"GGGGGGGGGGGGGGGGGGGGGGGGGGGGGGGGGGGGGGGGGGGGGGGGGGGGGGGGGGGGGGGGGGGGGGGGGGGGGGGG",
"GGGGGGGGGGGGGGGGGGGGGGGGGGGGGGGGGGGGGGGGGGGGGGGGGGGGGGGGGGGGGGGGGGGGGGGGGGGGGGGG",
"GGGGGGGGGGGGGGGGGGGGGGGGGGGGGGGGGGGGGGGGGGGGGGGGGGGGGGGGGGGGGGGGGGGGGGGGGGGGGGGG",
"GGGGGGGGGGGGGGGGGGGGGGGGGGGGGGGGGGGGGGGGGGGGGGGGGGGGGGGGGGGGGGGGGGGGGGGGGGGGGGGG",
"GGGGGGGGGGGGGGGGGGGGGGGGGGGGGGGGGGGGGGGGGGGGGGGGGGGGGGGGGGGGGGGGGGGGGGGGGGGGGGGG",
"GGGGGGGGGGGGGGGGGGGGGGGGGGGGGGGGGGGGGGGGGGGGGGGGGGGGGGGGGGGGGGGGGGGGGGGGGGGGGGGG",
"GGGGGGGGGGGGGGGGGGGGGGGGGGGGGGGGGGGGGGGGGGGGGGGGGGGGGGGGGGGGGGGGGGGGGGGGGGGGGGGG",
"GGGGGGGGGGGGGGGGGGGGGGGGGGGGGGGGZZZZGGGGGGGGGGGGGGGGGGGGGGGGGGGGGGGGGGGGGGGGGGGG",
"GGGGGGGGGGGGGGGGGGGGGGGGGGGGGGGGZZZZGGGGGGGGGGGGGGGGGGGGGGGGGGGGGGGGGGGGGGGGGGGG",
"GGGGGGGGGGGGGGGGGGGGGGGGGGGGGGGGZZZZGGGGGGGGGGGGGGGGGGGGGGGGGGGGGGGGGGGGGGGGGGGG",
"GGGGGGGGGGGGGGGGGGGGGGGGGGGGGGGGZZGGGGGGGGGGGGGGGGGGGGGGGGGGGGGGGGGGGGGGGGGGGGGG",
"GGGGGGGGGGGGGGGGGGGGGGGGGGGGGGGGZZZZGGGGGGGGGGGGGGGGGGGGGGGGGGGGGGGGGGGGGGGGGGGG",
"GGGGGGGGGGGGGGGGGGGGGGGGGGGGGGGGZZZZGGGGGGGGGGGGGGGGGGGGGGGGGGGGGGGGGGGGGGGGGGGG",
"GGGGGGGGGGGGGGGGGGGGGGGGGGGGGGGGZZZZGGGGGGGGGGGGGGGGGGGGGGGGGGGGGGGGGGGGGGGGGGGG",
"GGGGGGGGGGGGGGGGGGGGGGGGGGGGGGGGZZZZGGGGGGGGGGGGGGGGGGGGGGGGGGGGGGGGGGGGGGGGGGGG",
"GGGGGGGGGGGGGGGGGGGGGGGGGGGGGGGGZZZZZZZZGGGDGGGGGGGGGGGGGGGGGGGGGGGGGGGGGGGGGGGG",
"GGGGGGGGGGGGGGGGGGGGGGGGGGGGGGGGGZZZZZZZGGGGGGGGGGGGGGGGGGGGGGGGGGGGGGGGGGGGGGGG",
"GGGGGGGGGGGGGGGGGGGGGGGGGGGGGGGGGGGZDFSyrryBVGGGGGGGGGGGGGGGGGGGGGGGGGGGGGGGGGGG",
"GGGGG+.@O.#n.++.oCXX@+XnGGGGGGGDGGDy22222<,,<;%DGGGGGGGGGGGGGGGGGGGGGGGGGGGGGGGG",
"GGGGGXOnb Ob nbO m b##.bGGGGGGGGGB<<2<2<,222,<<1VGGGGGGGGGGGGGGGGGGGGGGGGGGGGGGG",
"GGGGGXOnm +b mn+ m@#   nGGGGGGGGy<<<2<><<<>>2,22<%GGGGGGGGGGGGGGGGGGGGGGGGGGGGGG",
"GGGGGo+bb+Ob.m@b.mOn.o.bGGGGGGG;22<<<2ujlld7>22><<rGGGGGGGGGGGGGGGGGGGGGGGGGGGGG",
"GGGGGX.v@ Ob ##X m ov# bGGGGGGy<<<<<3kd77fcca>262<<%GGGGGGGGGGGGGGGGGGGGGGGGGGGG",
"GGGGGmbbbbZZbbbmmZmbmmmDGGGGDA<<<<2>gcuq>:fcc09c7>22AGGGGGGGGGGGGGGGGGGGGGGGGGGG",
"GGGGGZmGGGZGGZmmGGZGmmmGGGGGD1<<<<<2xccci:0cch3u3>2<;GGGGGGGGGGGGGGGGGGGGGGGGGGG",
"GGGGG+b#GZ.ZG+m##mbb#momGGGGN2<<<22<gcccw:0ccj<4<2<,<VGGGGGGGGGGGGGGGGGGGGGGGGGG",
"GGGGG#+bGb##G+GG#bb+GDD#GGZZ122<<<2<3ufw<>uccp9c7>2,2rGGGGGGGGGGGGGGGGGGGGGGGGGG",
"GGGGG+##G+#oZ#GG#bb#mDm#GGGF<<<<<2<2<>>><<lcc44a3<2<<1GGGGGGGGGGGGGGGGGGGGGGGGGG",
"GGGGG#Gb#bGmb##+mmbZ#F#AGDDM2<<<<<<<<222>wcc0><><<<<<<AGGGGGGGGGGGGGGGGGGGGGGGGG",
"GGGGGGGGGGGGGZZGGGGGZGZZZZDy<<<<<2<<<22:7czq>>22<<<<,<VGGGGGGGGGGGGGGGGGGGGGGGGG",
"GGGGGGGGGGGGGGGGGGGGZZZZZZZy2<<<<<<2<2>0cgqlzq><2<<22<NGGGGGGGGGGGGGGGGGGGGGGGGG",
"GGGGGGGGGGGGGGGGGGGGGGGGZZZy22<2<<<<<<<sw:0cccu>2<<<<<NGGGGGGGGGGGGGGGGGGGGGGGGG",
"GGGGGGGGGGGGGGGGGGGGGGGGZZZV2<<2<2<222<>>2>dccc8>22<<2VGGGGGGGGGGGGGGGGGGGGGGGGG",
"GGGGGGGGGGGGGGGGGGGGGGGGZZDV<<<<2<2<><<22<>6ccch<<2<<2AGGGGGGGGGGGGGGGGGGGGGGGGG",
"GGGGGGGGGGGGGGGGGGGGGGGGZDGF<2<<<<>573><<<<3zccx3<<<<1GGGGGGGGGGGGGGGGGGGGGGGGGG",
"GGGGGGGGGGGGGGGGGGGGGGGGGGGG-<<<2>qccx8<2<<2zccx4<<<<rGGGGGGGGGGGGGGGGGGGGGGGGGG",
"GGGGGGGGGGGGGGGGGGGGGGGGGGDGM2<<<<kcccl>2<<3xccz2<<<<MGGGGGGGGGGGGGGGGGGGGGGGGGG",
"GGGGGGGGGGGGGGGGGGGGGGGGGGGGD2<2<<hczcu>22:wcxca>2<<;GGGGGGGGGGGGGGGGGGGGGGGGGGG",
"GGGGGGGGGGGGGGGGGGGGGGGGGGGDDM<<2>7cp2:>>>8xccl3<2<<MGGGGGGGGGGGGGGGGGGGGGGGGGGG",
"GGGGGGGGGGGGGGGGZZZZZZZZZZGGGGy2,2>0zjiqujxxxh3<<,<VZGZZZZZZZZZZGGGGGGGGGGGGGGGG",
"GGGGGGGGGGGGGGGGZZZZZZZZZZGGGGD-<<2>5azxxxzs9><2,<rDZZZZZZZZZZZZGGGGGGGGGGGGGGGG",
"GGGGGGGGGGGGGGGGZZZZZZZZZZZGGGGGy22<,><3532>>2<<2yGGZZZZZZZZZZZZGGGGGGGGGGGGGGGG",
"GGGGGGGGGGGGGGGGZZZZZZZZZZZZGGGGDV1<<2<<,1,,2<2<VGGGZZZZZZZZZZZZGGGGGGGGGGGGGGGG",
"GGGGGGGGGGGGGGGGZZZZGGGGZZZZZGZGGGDy222<<22<21MDGZZZZZZZZZZZZZZZGGGGGGGGGGGGGGGG",
"GGGGGGGGGGGGGGGGZZZZGGGGZZZZZZZZGDGGDFyyryyVFGDDZGZZZZZZZZZZZZZZGGGGGGGGGGGGGGGG",
"GGGGGGGGGGGGGGGGZZZZGGGGZZZZZZZZGGGGGGGGGGDGGGGGZZZZZZZZZZZZZZZZGGGGGGGGGGGGGGGG",
"GGGGGGGGGGGGGGGGZZZGGGGGZZZZZZZZGGGGGGDGGGGDGGGZZZZZZZZZZZZZZZZZGGGGGGGGGGGGGGGG",
"GGGGGGGGGGGGGGGGGGGGGGGGGGGGGGGGGGGGGGGGZZZZZZZZZZZZZZZZZZZZZZZZGGGGGGGGGGGGGGGG",
"GGGGGGGGGGGGGGGGGGGGGGGGGGGGGGGGGGGGGGGGZZZZZZZZZZZZZZZZZZZZZZZZGGGGGGGGGGGGGGGG",
"GGGGGGGGGGGGGGGGGGGGGGGGGGGGGGGGGGGGGGGGZZZZZZZZZZZZZZZZZZZZZZZZGGGGGGGGGGGGGGGG",
"GGGGGGGGGGGGGGGGGGGGGGGGGGGGGGGGGGGGGGGGZZZZZZZZZZZZZZZZZZZZZZZZGGGGGGGGGGGGGGGG",
"GGGGGGGGGGGGGGGGGGGGGGGGGGGGGGGGGGGGGGGGZZZZZZZZZZZZZZZZZZZZZZZZGGGGGGGGGGGGGGGG",
"GGGGGGGGGGGGGGGGGGGGGGGGGGGGGGGGGGGGGGGGZZZZZZZZZZZZZZZZZZZZZZZZGGGGGGGGGGGGGGGG",
"GGGGGGGGGGGGGGGGGGGGGGGGGGGGGGGGGGGGGGGGZZZZZZZZZZZZZZZZZZZZZZZZGGGGGGGGGGGGGGGG",
"GGGGGGGGGGGGGGGGGGGGGGGGGGGGGGGGGGGGGGGGZZZZZZZZZZZZZZZZZZZZZZZZGGGGGGGGGGGGGGGG",
"GGGGGGGGGGGGGGGGGGGGGGGGGGGGGGGGGGGGGGGGGGGGGGGGGGGGGGGGGGGGGGGGGGGGGGGGGGGGGGGG",
"GGGGGGGGGGGGGGGGGGGGGGGGGGGGGGGGGGGGGGGGGGGGGGGGGGGGGGGGGGGGGGGGGGGGGGGGGGGGGGGG",
"GGGGGGGGGGGGGGGGGGGGGGGGGGGGGGGGGGGGGGGGGGGGGGGGGGGGGGGGGGGGGGGGGGGGGGGGGGGGGGGG",
"GGGGGGGGGGGGGGGGGGGGGGGGGGGGGGGGGGGGGGGGGGGGGGGGGGGGGGGGGGGGGGGGGGGGGGGGGGGGGGGG",
"GGGGGGGGGGGGGGGGGGGGGGGGGGGGGGGGGGGGGGGGGGGGGGGGGGGGGGGGGGGGGGGGGGGGGGGGGGGGGGGG",
"GGGGGGGGGGGGGGGGGGGGGGGGGGGGGGGGGGGGGGGGGGGGGGGGGGGGGGGGGGGGGGGGGGGGGGGGGGGGGGGG",
"GGGGGGGGGGGGGGGGGGGGGGGGGGGGGGGGGGGGGGGGGGGGGGGGGGGGGGGGGGGGGGGGGGGGGGGGGGGGGGGG",
"GGGGGGGGGGGGGGGGGGGGGGGGGGGGGGGGGGGGGGGGGGGGGGGGGGGGGGGGGGGGGGGGGGGGGGGGGGGGGGGG",
"GGGGGGGGGGGGGGGGGGGGGGGGGGGGGGGGGGGGGGGGGGGGGGGGGGGGGGGGGGGGGGGGGGGGGGGGGGGGGGGG",
"GGGGGGGGGGGGGGGGGGGGGGGGGGGGGGGGGGGGGGGGGGGGGGGGGGGGGGGGGGGGGGGGGGGGGGGGGGGGGGGG",
"GGGGGGGGGGGGGGGGGGGGGGGGGGGGGGGGGGGGGGGGGGGGGGGGGGGGGGGGGGGGGGGGGGGGGGGGGGGGGGGG",
"GGGGGGGGGGGGGGGGGGGGGGGGGGGGGGGGGGGGGGGGGGGGGGGGGGGGGGGGGGGGGGGGGGGGGGGGGGGGGGGG",
"GGGGGGGGGGGGGGGGGGGGGGGGGGGGGGGGGGGGGGGGGGGGGGGGGGGGGGGGGGGGGGGGGGGGGGGGGGGGGGGG",
"GGGGGGGGGGGGGGGGGGGGGGGGGGGGGGGGGGGGGGGGGGGGGGGGGGGGGGGGGGGGGGGGGGGGGGGGGGGGGGGG",
"GGGGGGGGGGGGGGGGGGGGGGGGGGGGGGGGGGGGGGGGGGGGGGGGGGGGGGGGGGGGGGGGGGGGGGGGGGGGGGGG",
"GGGGGGGGGGGGGGGGGGGGGGGGGGGGGGGGGGGGGGGGGGGGGGGGGGGGGGGGGGGGGGGGGGGGGGGGGGGGGGGG"
};
