/* XPM */
static char *xpm_[] = {
/* columns rows colors chars-per-pixel */
"80 80 37 1 ",
"  c #8D0000",
". c #9C090D",
"X c #9E0D11",
"o c #9F1014",
"O c #A2171A",
"+ c #A51E21",
"@ c #A8262A",
"# c #AB2E31",
"$ c #AE3337",
"% c #B03A3D",
"& c #B23E41",
"* c #B5474A",
"= c #B84E51",
"- c #BC5759",
"; c #BF5E61",
": c #C3696B",
"> c #C56E70",
", c #C87678",
"< c #CB7E80",
"1 c #CE8586",
"2 c #D18C8E",
"3 c #D28E90",
"4 c #D69799",
"5 c #D89FA0",
"6 c #DCA7A8",
"7 c #DFAFB1",
"8 c #DFB0B1",
"9 c #E2B6B7",
"0 c #E5BFC0",
"q c #E8C6C7",
"w c #EED4D4",
"e c #F1DCDC",
"r c #F2DFE0",
"t c #F6E8E8",
"y c #F9EFF0",
"u c #FEFDFD",
"i c None",
/* pixels */
"iiiiiiiiiiiiiiiiiiiiiiiiiiiiiiiiiiiiiiiiiiiiiiiiiiiiiiiiiiiiiiiiiiiiiiiiiiiiiiii",
"iiiiiiiiiiiiiiiiiiiiiiiiiiiiiiiiiiiiiiiiiiiiiiiiiiiiiiiiiiiiiiiiiiiiiiiiiiiiiiii",
"iiiiiiiiiiiiiiiiiiiiiiiiiiiiiiiiiiiiiiiiiiiiiiiiiiiiiiiiiiiiiiiiiiiiiiiiiiiiiiii",
"iiiiiiiiiiiiiiiiiiiiiiiiiiiiiiiiiiiiiiiiiiiiiiiiiiiiiiiiiiiiiiiiiiiiiiiiiiiiiiii",
"iiiiiiiiiiiiiiiiiiiiiiiiiiiiiiiiiiiiiiiiiiiiiiiiiiiiiiiiiiiiiiiiiiiiiiiiiiiiiiii",
"iiiiiiiiiiiiiiiiiiiiiiiiiiiiiiiiiiiiiiiiiiiiiiiiiiiiiiiiiiiiiiiiiiiiiiiiiiiiiiii",
"iiiiiiiiiiiiiiiiiiiiiiiiiiiiiiiiiiiiiiiiiiiiiiiiiiiiiiiiiiiiiiiiiiiiiiiiiiiiiiii",
"iiiiiiiiiiiiiiiiiiiiiiiiiiiiiiiiiiiiiiiiiiiiiiiiiiiiiiiiiiiiiiiiiiiiiiiiiiiiiiii",
"iiiiiiiiiiiiiiiiiiiiiiiiiiiiiiiiiiiiiiiiiiiiiiiiiiiiiiiiiiiiiiiiiiiiiiiiiiiiiiii",
"iiiiiiiiiiiiiiiiiiiiiiiiiiiiiiiiiiiiiiiiiiiiiiiiiiiiiiiiiiiiiiiiiiiiiiiiiiiiiiii",
"iiiiiiiiiiiiiiiiiiiiiiiiiiiiiiiiiiiiiiiiiiiiiiiiiiiiiiiiiiiiiiiiiiiiiiiiiiiiiiii",
"iiiiiiiiiiiiiiiiiiiiiiiiiiiiiiiiiiiiiiiiiiiiiiiiiiiiiiiiiiiiiiiiiiiiiiiiiiiiiiii",
"iiiiiiiiiiiiiiiiiiiiiiiiiiiiiiiiiiiiiiiiiiiiiiiiiiiiiiiiiiiiiiiiiiiiiiiiiiiiiiii",
"iii..X.X.X....X.X.XXX.XXXXXX..XXXX..XX..XX..XX..XXXXX.XXX.XXXXXX..X..X.XXXXX.iii",
"iii...X....X........X.......X......X...X...X...X........X.......X.X..........iii",
"iii.X....X..X.X.X..X....X.X...XX.X...X...X...X..X.X.X..X....X.X......X..X.X.Xiii",
"iiiX...X..X.X...X................XX..X.......X....X..X.X...X...X.X.X...X.X...iii",
"iii..X..X......XX...X..XX..X.XX.X......XX.X....X...........X.X.X.....X....X..iii",
"iii...X....XX.X..X..X........X.....X.X....X......X.XX.X.X....X..X.X...XXX....iii",
"iiiXX.X.X..............XX..X...X...X...X.....X.X..........X....X....X......X.iii",
"iii...X.XX.......XX....X..X.X.X.X..X.X..X.X...X....X..........X......X.X..X..iii",
"iiiX....X.X....X....X........................X...X....X.X.X.....X.X......X...iii",
"iiiX.X.X...X.X..X..X.X.X.X....X.X..X.XX.X..X.......XX.....X..X.X...X.XX......iii",
"iii.....X.......X..X......X..X...............X.X.X....X.X.......X........X.X.iii",
"iiiXX..X.X...X.X...X.......XoooXXX..X.XXOoXXX.oXXXXOooX.....X..X.X....X..X.X.iii",
"iiiX.............X.....X....  . .... ..   . .. .. . .  .X..........X.X.......iii",
"iiiXX..X.XX..X....X.....#3,34311<,.-31343113=.,1,344212@...XX..X.X.......XX..iii",
"iii...........X..X......=uuw9quuuu.6uu99wuuu5.uuut66euu*.X........X..X.XXX...iii",
"iii..X...X..X..XX..X....*uu@@$#tutX4u9 =O,uu3.tu1X*=O6u*.X.......X.X..X....X.iii",
"iiiX..X....X.......XX...=uu@quXqut.4u9@u4@uu4.u9.wuutru*.XX..XX.....X....X...iii",
"iii.XX....X.XX.XX.X..XX.=uu#$@$uut.4uqX*.<uu4.u::uyuuuu*...X.....X.......X.X.iii",
"iii....XX.............X.=uu#,q=>ut.4u9O97#9u3.u>*uuuuuu&...X..X.....X.X......iii",
"iii....XX..X.....X.X..X =uu@6u-$ut.4u9+yrX4u4.ue.<tt49u* XX......XX.X..X.X...iii",
"iiiX.X.......X........X.=uu*@#%wutX4uq+$@:yu4.tuq%@##qu*.X...XX...........X..iii",
"iiiXX.X.....X..X.....XX.=uuytyuuut.4uuyyuuyu4.yuuuttuuu* X.......XX.X.XX.....iii",
"iii.....X.X......XX.....O$$$$%#@$$.@$$$$$#$#@.#$$#%%$##X...X..X..........X...iii",
"iiiX..XX.X..X..X......... ............ .......... .. ...X.X.X..X........X..X.iii",
"iiiX.X...........XX..XX......X.....X....XX.....XXXXX..X.........X..XX.X......iii",
"iiiX......X...........X......X.....X...........X.......X....X..X...X...X.X...iii",
"iiiX..XooXX.X.XXX..XXXX.X.XX.X......X.XX.X.......XXX.XXXXXXX....XX.XXXooXX.X.iii",
"iiiX..... .... .X... ...... .X.......X..........X. ... .... X.... ...     ..Xiii",
"iii.X.@:,,@...-#.X.@>,;...O;X...#-...X;O...%= XX.+:.O>,,,+#=....X:O-,>:><:XX.iii",
"iiiX..:u6qu*.Ou5.X.-u5wwO.*uO.X >t...%u:.o 4u=.o.qu.=u689@;u- o.Oy#199uq95oX.iii",
"iiiXX :w  4q <tt+..-e .t> *tO.X.:q.. 7tq...2tt@ 6teX-e. ..:yy*..Oe# .Xt@  ...iii",
"iiiXX :w..99 y=93 .;e.@u= *tO...>w..@t#t-. 54,e2e*t.=tOOO.,9;u# Ot#.XOt%.....iii",
"iii.X.:uwreO;e *tX.-ueu3..%tO.X >w. 48 ,0..49 9u@$y.=ueer@:q 3uOOt#..@t%.....iii",
"iiiX..:e%$..qu9qu> ;t%99..*tO.X.>w.Oyt0wu% 48 O% *y.=t$$%.>q. 6eOe#..Ot$.X.X.iii",
"iii.X :w ..&t=;*2e ;e .t2 *r. . >w >e*;*97 67.X..%t.-e    >9...qww#..Ot#.X...iii",
"iiiXX.>t...96 . .t-=y..$u%%u<,1%>r.t: ..@u+49.XX.%u.=u,,2@>w....eu#..Ou% X...iii",
"iiiX..*1..X4@.Xo.;>$3...,,@686q:%<@4O..o.1=-,.XX.@4.#6999**,....@5+..o4@.....iii",
"iiiX.X. .....X.........X... .. ....................... . ........ ......X..X.iii",
"iiiX...X...X...X...X.....X.XXXXX...XX.........X......XXXO.......XX...X.......iii",
"iiiX..X.X..X.X..X......X..X...X...X..X.X.....X..X...X..XX...XX...X.X.........iii",
"iii..X........X....XXX.......X.......X.......X.X...X......X...X......X.X.X...iii",
"iii...XX........X.....X...........X.......X....XX.X.XX.X...X.....X..X....X.X.iii",
"iii.X....XX..X....X.X......X.X.X.X...X.X.X..X............X..X.X..X.X..X......iii",
"iiiXX.......X..X..X.X..X.X......X..X.X..X...........X..X.......XX....X.......iii",
"iiiX..XXX..X.....X..X..X...XX.X.......X....X.XX..X......X..XX.....X...X..X.X.iii",
"iiiX.X...X...X................X.X.XX....X.X.....X..X..X..X..X...X.X.....X....iii",
"iii...X........X.X.X.XX..X.X..........X......XX.....X..........X....X.X......iii",
"iiiX..X.X..XXX....X..X.X.....X....X.X.X..X.X...X...X..XXX..X.X..X.......X.X..iii",
"iiiX.X.........XX........X.X.X.XX...........XX..X...X.........X....X.X.X.....iii",
"iiiX...........X...X.XX.X.....X...X..X.X.X....X....XX...........X...X...XXX..iii",
"iiiX..X..XX..X..X..........XX...X.........X.X...XX....X..XX..X.........X.X...iii",
"iiiXX..X.X.X....X..X.X.X....X..X..XX...X...X..XX...X...XX...X...X...XX..X....iii",
"iiiX...........X...........X....X......X.X..X....X.X.X....X.X.X.X.X....X...X.iii",
"iiiXXX.XXXXXXX.XXX.XXXXXXX.XXX.XX.XXXX..X..XX....X.....X.X.X..X...X....X.X.X.iii",
"iiiiiiiiiiiiiiiiiiiiiiiiiiiiiiiiiiiiiiiiiiiiiiiiiiiiiiiiiiiiiiiiiiiiiiiiiiiiiiii",
"iiiiiiiiiiiiiiiiiiiiiiiiiiiiiiiiiiiiiiiiiiiiiiiiiiiiiiiiiiiiiiiiiiiiiiiiiiiiiiii",
"iiiiiiiiiiiiiiiiiiiiiiiiiiiiiiiiiiiiiiiiiiiiiiiiiiiiiiiiiiiiiiiiiiiiiiiiiiiiiiii",
"iiiiiiiiiiiiiiiiiiiiiiiiiiiiiiiiiiiiiiiiiiiiiiiiiiiiiiiiiiiiiiiiiiiiiiiiiiiiiiii",
"iiiiiiiiiiiiiiiiiiiiiiiiiiiiiiiiiiiiiiiiiiiiiiiiiiiiiiiiiiiiiiiiiiiiiiiiiiiiiiii",
"iiiiiiiiiiiiiiiiiiiiiiiiiiiiiiiiiiiiiiiiiiiiiiiiiiiiiiiiiiiiiiiiiiiiiiiiiiiiiiii",
"iiiiiiiiiiiiiiiiiiiiiiiiiiiiiiiiiiiiiiiiiiiiiiiiiiiiiiiiiiiiiiiiiiiiiiiiiiiiiiii",
"iiiiiiiiiiiiiiiiiiiiiiiiiiiiiiiiiiiiiiiiiiiiiiiiiiiiiiiiiiiiiiiiiiiiiiiiiiiiiiii",
"iiiiiiiiiiiiiiiiiiiiiiiiiiiiiiiiiiiiiiiiiiiiiiiiiiiiiiiiiiiiiiiiiiiiiiiiiiiiiiii",
"iiiiiiiiiiiiiiiiiiiiiiiiiiiiiiiiiiiiiiiiiiiiiiiiiiiiiiiiiiiiiiiiiiiiiiiiiiiiiiii",
"iiiiiiiiiiiiiiiiiiiiiiiiiiiiiiiiiiiiiiiiiiiiiiiiiiiiiiiiiiiiiiiiiiiiiiiiiiiiiiii",
"iiiiiiiiiiiiiiiiiiiiiiiiiiiiiiiiiiiiiiiiiiiiiiiiiiiiiiiiiiiiiiiiiiiiiiiiiiiiiiii",
"iiiiiiiiiiiiiiiiiiiiiiiiiiiiiiiiiiiiiiiiiiiiiiiiiiiiiiiiiiiiiiiiiiiiiiiiiiiiiiii"
};
