/* XPM */
static char *xpm_[] = {
/* columns rows colors chars-per-pixel */
"80 80 65 1 ",
"  c #000000",
". c #000000",
"X c #000000",
"o c #000000",
"O c #000000",
"+ c #000000",
"@ c #000000",
"# c #000000",
"$ c #00AFD8",
"% c #00AFD8",
"& c #00AFD8",
"* c #00AFD8",
"= c #00AFD8",
"- c #00AFD8",
"; c #00AFD8",
": c #00AFD8",
"> c #00AFD8",
", c #00AFD8",
"< c #00AFD8",
"1 c #00AFD8",
"2 c #00AFD8",
"3 c #00AED8",
"4 c #05B1D9",
"5 c #15B6DB",
"6 c #00AFD8",
"7 c #29BCDE",
"8 c #31BEE0",
"9 c #3CC2E1",
"0 c #40C3E2",
"q c #55CAE5",
"w c #63CEE7",
"e c #6AD0E8",
"r c #7BD6EB",
"t c #00AFD8",
"y c #00AFD8",
"u c #86D9ED",
"i c #9DE0F0",
"p c #A9E4F2",
"a c #B8E9F4",
"s c #C4EDF6",
"d c #D4F1F8",
"f c #E7F8FB",
"g c #FDFEFF",
"h c #000000",
"j c #000000",
"k c #000000",
"l c #000000",
"z c #00AFD8",
"x c #00AFD8",
"c c #00AFD8",
"v c #00AFD8",
"b c #00AFD8",
"n c #00AFD8",
"m c #00AFD8",
"M c #000000",
"N c #000000",
"B c #00AFD8",
"V c #00AFD8",
"C c #00AFD8",
"Z c #00AFD8",
"A c #00AFD8",
"S c #003947",
"D c #00AFD8",
"F c #00AFD8",
"G c None",
/* pixels */
"GGGGGGGGGGGGGGGGGGGGGGGGGGGGGGGGGGGGGGGGGGGGGGGGGGGGGGGGGGGGGGGGNNNNNNNNNNNNNNNN",
"GGGGGGGGGGGGGGGGGGGGGGGGGGGGGGGGGGGGGGGGGGGGGGGGGGGGGGGGGGGGGGGGNNNNNNNNNNNNNNNN",
"GGGGGGGGGGGGGGGGGGGGGGGGGGGGGGGGGGGGGGGGGGGGGGGGGGGGGGGGGGGGGGGGNNNNNNNNNNNNNNNN",
"GGGGGGGGGGGGGGGGGGGGGGGGGGGGGGGGGGGGGGGGGGGGGGGGGGGGGGGGGGGGGGGGNNNNNNNNNNNNNNNN",
"GGGGGGGGGGGGGGGGGGGGGGGGGGGGGGGGGGGGGGGGGGGGGGGGGGGGGGGGGGGGGGGGNNNNNNNNNNNNNNNN",
"GGGGGGGGGGGGGGGGGGGGGGGGGGGGGGGGGGGGGGGGGGGGGGGGGGGGGGGGGGGGGGGGNNNNNNNNNNNNNNNN",
"GGGGGGGGGGGGGGGGGGGGGGGGGGGGGGGGGGGGGGGGGGGGGGGGGGGGGGGGGGGGGGGGNNNNNNNNNNNNNNNN",
"GGGGGGGGGGGGGGGGGGGGGGGGGGGGGGGGGGGGGGGGGGGGGGGGGGGGGGGGGGGGGGGGNNNNNNNNNNNNNNNN",
"GGGGGGGGGGGGGGGGGGGGGGGGGGGGGGGGGGGGGGGGGGGGGGGGGGGGGGGGGGGGGGGGNNNNNNNNNNNNNNNN",
"GGGGGGGGGGGGGGGGGGGGGGGGGGGGGGGGGGGGGGGGGGGGGGGGGGGGGGGGGGGGGGGGNNNNNNNNNNNNNNNN",
"GGGGGGGGGGGGGGGGGGGGGGGGGGGGGGGGGGGGGGGGGGGGGGGGGGGGGGGGGGGGGGGGNNNNNNNNNNNNNNNN",
"GGGGGGGGGGGGGGGGGGGGGGGGGGGGGGGGGGGGGGGGGGGGGGGGGGGGGGGGGGGGGGGGNNNNNNNNNNNNNNNN",
"GGGGGGGGGGGGGGGGGGGGGGGGGGGGGGGGGGGGGGGGGGGGGGGGGGGGGGGGGGGGGGGGNNNNNNNNNNNNNNNN",
"GGGGGGGGGGGGGGGGGGGGGGGGGGGGGGGGGGGGGGGGGGGGGGGGGGGGGGGGGGGGGGGGNNNNNNNNNNNNNNNN",
"GGGGGGGGGGGGGGGGGGGGGGGGGGGGGGGGGGGGGGGGGGGGGGGGGGGGGGGGGGGGGGGGNNNNNNNNNNNNNNNN",
"GGGGGGGGGGGGGGGGGGGGGGGGGGGGGGGGGGGGGGGGGGGGGGGGGGGGGGGGGGGGGGGGNNNNNNNNNNNNNNNN",
"GGGGGGGGGGGGGGGGGGGGGGGGGGGGGGGGGGGGGGGGGGGGGGGGGGGGGGGGGGGGGGGGNNNNNNNNNNNNNNNN",
"GGGGGGGGGGGGGGGGGGGGGGGGGGGGGGGGGGGGGGGGGGGGGGGGGGGGGGGGGGGGGGGGNNNNNNNNNNNNNNNN",
"GGGGGGGGGGGGGGGGGGGGGGGGGGGGGGGGGGGGGGGGGGGGGGGGGGGGGGGGGGGGGGGGNNNNNNNNNNNNNNNN",
"GGGGGGGGGGGGGGGGGGGGGGGGGGGGGGGGGGGGGGGGGGGGGGGGGGGGGGGGGGGGGGGGNNNNNNNNNNNNNNNN",
"GGGGGGGGGGGGGGGGGGGGGGGGGGGGGGGGGGGGGGGGGGGGGGGGGGGGGGGGGGGGGGGGNNNNNNNNNNNNNNNN",
"GGGGGGGGGGGGGGGGGGGGGGGGGGGGGGGGGGGGGGGGGGGGGGGGGGGGGGGGGGGGGGGGNNNNNNNNNNNNNNNN",
"GGGGGGGGGGGGGGGGGGGGGGGGGGGGGGGGGGGGGGGGGGGGGGGGGGGGGGGGGGGGGGGGNNNNNNNNNNNNNNNN",
"GGGGGGGGGGGGGGGGGGGGGGGGGGGGGGGGGGGGGGGGGGGGGGGGGGGGGGGGGGGGGGGGNNNNNNNNNNNNNNNN",
"GGGGGGGGGGGGGGGGGGGGGGGGGGGGGGGGGGGGGGGGGGGSGGGGGGGGGGGGGGGGGGGGNNNNNNNNNNNNNNNN",
"GGGGGGGGGGGGGGGGGGGGGGGGGGGGGGGGGGGGGGGGGGGGGGGGGGGGGGGGGGGGGGGGNNNNNNNNNNNNNNNN",
"GGGGGGGGGGGGGGGGGGGGGGGGGGGGGGGGGGGGSD:t-::nvGGGGGGGGGGGGGGGGGGGNNNNNNNNNNNNNNNN",
"GGGGG+.@O.#k.+OXoMoX@@.lGGGGGGGGGGS:4333434446bSGGGGGGGGGGGGGGGGNNNNNNNNNNNNNNNN",
"GGGGGXOkj Oj khO l h#h jGGGGGGGGGn24444432423446vGGGGGGGGGGGGGGGNNNNNNNNNNNNNNNN",
"GGGGGoOll +j lk+ l@h   kGGGGGGGGy4424444333333634:GGGGGGGGGGGGGGNNNNNNNNNNNNNNNN",
"GGGGGo+jh+Oj.l@k lok.o.jGGGGGGG<423390999009990734:GGGGGGGGGGGGGNNNNNNNNNNNNNNNN",
"GGGGGX h# Oj ##X M oh# jGGGGGG%43433fggfgggggggi344nGGGGGGGGGGGGNNNNNNNNNNNNNNNN",
"GGGGGMkjjjMNjkkklNljlljNGGGGGb334437gggggggggggw3233AGGGGGGGGGGGNNNNNNNNNNNNNNNN",
"GGGGGMkGGGNGGMkMGGNGljNGGGGGG634443qggggggggggg83434<GGGGGGGGGGGNNNNNNNNNNNNNNNN",
"GGGGG@j@GG.MGOkh#ljj#l+lGGGG$424343ugggfdddddds534334vGGAAGSDGGGNNNNNNNNNNNNNNNN",
"GGGGG@#hGh##G#GG#jj#GGG+GGGG<434443agggu2333333333334yGG<1G4<GGGNNNNNNNNNNNNNNNN",
"GGGGG@#hGO#oM#GG#jj#NGl#GGGz3333334dgggq59743443434336GG4tGDSSSGNNNNNNNNNNNNNNNN",
"GGGGG+Gh@kGMj+#+lljN+#+NGGGb3344437ggggdgggfr333343433AG4tF4Ay,GNt2SA26tNNNNNNNN",
"GGGGGGGGGGGGGGMGGGGGGNGGGGG*333443qgggggggggga33443334vV4CB5V-5SS5,Z5t25CNNNNNNN",
"GGGGGGGGGGGGGGGGGGGGGGGGGGG:334342ugggggggggggu3433433vv5Vt5DZ5Fv5V24SV5;NNNNNNN",
"GGGGGGGGGGGGGGGGGGGGGGGGGGG:433433aggggdidggggf5444455xc5Dt4NG5b4=D55555:GGGGGGG",
"GGGGGGGGGGGGGGGGGGGGGGGGGGG:433434sfffp323pggggq444455Zn5S=4NN455DF5tDABNGGGGGGG",
"GGGGGGGGGGGGGGGGGGGGGGGGGGGb434434544533438ggggr444455S<5G4=GGt42NS56A<tNNGGGGGG",
"GGGGGGGGGGGGGGGGGGGGGGGGGGGA333333333334447ggggr444454N4<S5tGGz4BNNZ555tNNGGGGGG",
"GGGGGGGGGGGGGGGGGGGGGGGGGGGG<4343455555232eggggw44435:NGDGFSGGSDNNNNGSNNNNNNGGGG",
"GGGGGGGGGGGGGGGGGGGGGGGGGGGGb33435fffgfw5qggggg544435FNNGGSGGGGSNNNNNNNNNNNNGGGG",
"GGGGGGGGGGGGGGGGGGGGGGGGGGGGV14443agggggggggggi244333NGGGGGGGGGGNNNNNNNNNNNNGGGG",
"GGGGGGGGGGGGGGGGGGGGGGGGGGGGGb44435ggggggggggf533334DNSGGGGGGGGGNNNNNNNNNNNNGGGG",
"GGGGGGGGGGGGGGGGGGGGGGGGGGGGGG-43438dggfddddi544334zNNNNNNNNNNNNGGGGGGGGGGGGGGGG",
"GGGGGGGGGGGGGGGGGGGGGGGGGGGGGGG<32335eadddaq544424tGNNNNNNNNNNNNGGGGGGGGGGGGGGGG",
"GGGGGGGGGGGGGGGGGGGGGGGGGGGGGGGG-4434355714425445vNNNNNNNNNNNNNNGGGGGGGGGGGGGGGG",
"GGGGGGGGGGGGGGGGGGGGGGGGGGGGGGGGGn24335569244244CNNNNNNNNNNNNNNNGGGGGGGGGGGGGGGG",
"GGGGGGGGGGGGGGGGGGGGGGGGGGGGGGGGGGV:4445424453xNSGNNNNNNNNNNNNNNGGGGGGGGGGGGGGGG",
"GGGGGGGGGGGGGGGGGGGGGGGGGGGGGGGGGGGGGDv-tt:bSNNNSGNNNNNNNNNNNNNNGGGGGGGGGGGGGGGG",
"GGGGGGGGGGGGGGGGGGGGGGGGGGGGGGGGGGGGNNNNNNNNNNNNNNNNNNNNNNNNNNNNGGGGGGGGGGGGGGGG",
"GGGGGGGGGGGGGGGGGGGGGGGGGGGGGGGGGGGGNNNNNNNNNNNNNNNNNNNNNNNNNNNNGGGGGGGGGGGGGGGG",
"GGGGGGGGGGGGGGGGGGGGGGGGGGGGGGGGGGGGGGGGNNNNNNNNNNNNNNNNNNNNNNNNGGGGGGGGGGGGGGGG",
"GGGGGGGGGGGGGGGGGGGGGGGGGGGGGGGGGGGGGGGGNNNNNNNNNNNNNNNNNNNNNNNNGGGGGGGGGGGGGGGG",
"GGGGGGGGGGGGGGGGGGGGGGGGGGGGGGGGGGGGGGGGNNNNNNNNNNNNNNNNNNNNNNNNGGGGGGGGGGGGGGGG",
"GGGGGGGGGGGGGGGGGGGGGGGGGGGGGGGGGGGGGGGGNNNNNNNNNNNNNNNNNNNNNNNNGGGGGGGGGGGGGGGG",
"GGGGGGGGGGGGGGGGGGGGGGGGGGGGGGGGGGGGGGGGNNNNNNNNNNNNNNNNNNNNNNNNGGGGGGGGGGGGGGGG",
"GGGGGGGGGGGGGGGGGGGGGGGGGGGGGGGGGGGGGGGGNNNNNNNNNNNNNNNNNNNNNNNNGGGGGGGGGGGGGGGG",
"GGGGGGGGGGGGGGGGGGGGGGGGGGGGGGGGGGGGGGGGNNNNNNNNNNNNNNNNNNNNNNNNGGGGGGGGGGGGGGGG",
"GGGGGGGGGGGGGGGGGGGGGGGGGGGGGGGGGGGGGGGGNNNNNNNNNNNNNNNNNNNNNNNNGGGGGGGGGGGGGGGG",
"GGGGGGGGGGGGGGGGGGGGGGGGGGGGGGGGGGGGGGGGGGGGGGGGGGGGGGGGGGGGGGGGGGGGGGGGGGGGGGGG",
"GGGGGGGGGGGGGGGGGGGGGGGGGGGGGGGGGGGGGGGGGGGGGGGGGGGGGGGGGGGGGGGGGGGGGGGGGGGGGGGG",
"GGGGGGGGGGGGGGGGGGGGGGGGGGGGGGGGGGGGGGGGGGGGGGGGGGGGGGGGGGGGGGGGGGGGGGGGGGGGGGGG",
"GGGGGGGGGGGGGGGGGGGGGGGGGGGGGGGGGGGGGGGGGGGGGGGGGGGGGGGGGGGGGGGGGGGGGGGGGGGGGGGG",
"GGGGGGGGGGGGGGGGGGGGGGGGGGGGGGGGGGGGGGGGGGGGGGGGGGGGGGGGGGGGGGGGGGGGGGGGGGGGGGGG",
"GGGGGGGGGGGGGGGGGGGGGGGGGGGGGGGGGGGGGGGGGGGGGGGGGGGGGGGGGGGGGGGGGGGGGGGGGGGGGGGG",
"GGGGGGGGGGGGGGGGGGGGGGGGGGGGGGGGGGGGGGGGGGGGGGGGGGGGGGGGGGGGGGGGGGGGGGGGGGGGGGGG",
"GGGGGGGGGGGGGGGGGGGGGGGGGGGGGGGGGGGGGGGGGGGGGGGGGGGGGGGGGGGGGGGGGGGGGGGGGGGGGGGG",
"GGGGGGGGGGGGGGGGGGGGGGGGGGGGGGGGGGGGGGGGGGGGGGGGGGGGGGGGGGGGGGGGGGGGGGGGGGGGGGGG",
"GGGGGGGGGGGGGGGGGGGGGGGGGGGGGGGGGGGGGGGGGGGGGGGGGGGGGGGGGGGGGGGGGGGGGGGGGGGGGGGG",
"GGGGGGGGGGGGGGGGGGGGGGGGGGGGGGGGGGGGGGGGGGGGGGGGGGGGGGGGGGGGGGGGGGGGGGGGGGGGGGGG",
"GGGGGGGGGGGGGGGGGGGGGGGGGGGGGGGGGGGGGGGGGGGGGGGGGGGGGGGGGGGGGGGGGGGGGGGGGGGGGGGG",
"GGGGGGGGGGGGGGGGGGGGGGGGGGGGGGGGGGGGGGGGGGGGGGGGGGGGGGGGGGGGGGGGGGGGGGGGGGGGGGGG",
"GGGGGGGGGGGGGGGGGGGGGGGGGGGGGGGGGGGGGGGGGGGGGGGGGGGGGGGGGGGGGGGGGGGGGGGGGGGGGGGG",
"GGGGGGGGGGGGGGGGGGGGGGGGGGGGGGGGGGGGGGGGGGGGGGGGGGGGGGGGGGGGGGGGGGGGGGGGGGGGGGGG",
"GGGGGGGGGGGGGGGGGGGGGGGGGGGGGGGGGGGGGGGGGGGGGGGGGGGGGGGGGGGGGGGGGGGGGGGGGGGGGGGG"
};
