/* XPM */
static char *xpm_[] = {
/* columns rows colors chars-per-pixel */
"80 80 143 2 ",
"   c #000002",
".  c #040014",
"X  c #01000A",
"o  c #030013",
"O  c #0E0020",
"+  c #130025",
"@  c #1C0130",
"#  c #220137",
"$  c #26023C",
"%  c #25013B",
"&  c #010006",
"*  c #0A001B",
"=  c #000001",
"-  c #0D001F",
";  c #1B002F",
":  c #240139",
">  c #1E0032",
",  c #28033F",
"<  c #290540",
"1  c #2D0846",
"2  c #2C0646",
"3  c #320C4D",
"4  c #2E0650",
"5  c #350D55",
"6  c #391357",
"7  c #3B0C67",
"8  c #3F1661",
"9  c #340F4F",
"0  c #3C1659",
"q  c #461E68",
"w  c #3F175E",
"e  c #4A2071",
"r  c #4E2379",
"t  c #401B5D",
"y  c #441B68",
"u  c #481A76",
"i  c #4C276A",
"p  c #512E6E",
"a  c #4E2377",
"s  c #51267E",
"d  c #573179",
"f  c #4F247B",
"g  c #552984",
"h  c #4F247A",
"j  c #5C2D90",
"k  c #5B2C8F",
"l  c #5B2C8F",
"z  c #684C7F",
"x  c #000005",
"c  c #0D001E",
"v  c #010008",
"b  c #120024",
"n  c #1A002D",
"m  c #210136",
"M  c #2B0642",
"N  c #27043E",
"B  c #310B4B",
"V  c #371053",
"C  c #40185F",
"Z  c #000003",
"A  c #160028",
"S  c #1E0032",
"D  c #030008",
"F  c #160029",
"G  c #25013B",
"H  c #28043E",
"J  c #371153",
"K  c #3E165D",
"L  c #471E6B",
"P  c #431A64",
"I  c #4C2275",
"U  c #3A1458",
"Y  c #3C165C",
"T  c #471D6B",
"R  c #4F247A",
"E  c #421A64",
"W  c #4A1F70",
"Q  c #592B8B",
"!  c #5C2D91",
"~  c #4C2275",
"^  c #582A88",
"/  c #592B8C",
"(  c #51267E",
")  c #592B8B",
"_  c #5B2D8F",
"`  c #4C1D81",
"'  c #4E2081",
"]  c #572A87",
"[  c #5E3881",
"{  c #5C2D91",
"}  c #623E81",
"|  c #674387",
" . c #715588",
".. c #7C5B9F",
"X. c #917CA0",
"o. c #8262A5",
"O. c #8C70A8",
"+. c #9277AD",
"@. c #9C88AD",
"#. c #9B83B2",
"$. c #A28DB4",
"%. c #A894BA",
"&. c #AF9BC5",
"*. c #B29EC6",
"=. c #B9A8C9",
"-. c #C1B4CB",
";. c #CABDD5",
":. c #CCC1D6",
">. c #D9D1E0",
",. c #EAE6EE",
"<. c #EDE9F1",
"1. c #FEFEFE",
"2. c #030009",
"3. c #19002C",
"4. c #290440",
"5. c #03000B",
"6. c #200135",
"7. c #29033F",
"8. c #330E4F",
"9. c #441B66",
"0. c #461D6A",
"q. c #4F247A",
"w. c #4D2276",
"e. c #5C2D91",
"r. c #0B0015",
"t. c #210235",
"y. c #360F51",
"u. c #0B0015",
"i. c #26033D",
"p. c #421A63",
"a. c #421A65",
"s. c #572A88",
"d. c #5C2D91",
"f. c #090013",
"g. c #431B66",
"h. c #4F247A",
"j. c #190429",
"k. c #4E2379",
"l. c #5A2C8D",
"z. c #5D308D",
"x. c #250C3D",
"c. c #5C2D91",
"v. c None",
/* pixels */
"v.v.v.v.v.v.v.v.v.v.v.v.v.v.v.v.v.v.v.v.v.v.v.v.v.v.v.v.v.v.v.v.v.v.v.v.v.v.v.v.v.v.v.v.v.v.v.v.v.v.v.v.v.v.v.v.v.v.v.v.v.v.v.v.v.v.v.v.v.v.v.v.v.v.v.v.v.v.v.v.",
"v.v.v.v.v.v.v.v.v.v.v.v.v.v.v.v.v.v.v.v.v.v.v.v.v.v.v.v.v.v.v.v.v.v.v.v.v.v.v.v.v.v.v.v.v.v.v.v.v.v.v.v.v.v.v.v.v.v.v.v.v.v.v.v.v.v.v.v.v.v.v.v.v.v.v.v.v.v.v.v.",
"v.v.v.v.v.v.v.v.v.v.v.v.v.v.v.v.v.v.v.v.v.v.v.v.v.v.v.v.v.v.v.v.v.v.v.v.v.v.v.v.v.v.v.v.v.v.v.v.v.v.v.v.v.v.v.v.v.v.v.v.v.v.v.v.v.v.v.v.v.v.v.v.v.v.v.v.v.v.v.v.",
"v.v.v.v.v.v.v.v.v.v.v.v.v.v.v.v.v.v.v.v.v.v.v.v.v.v.v.v.v.v.v.v.v.v.v.v.v.v.v.v.v.v.v.v.v.v.v.v.v.v.v.v.v.v.v.v.v.v.v.v.v.v.v.v.v.v.v.v.v.v.v.v.v.v.v.v.v.v.v.v.",
"v.v.v.v.v.v.v.v.v.v.v.v.v.v.v.v.v.v.v.v.v.v.v.v.v.v.v.v.v.v.v.v.v.v.v.v.v.v.v.v.v.v.v.v.v.v.v.v.v.v.v.v.v.v.v.v.v.v.v.v.v.v.v.v.v.v.v.v.v.v.v.v.v.v.v.v.v.v.v.v.",
"v.v.v.v.v.v.v.v.v.v.v.v.v.v.v.v.v.v.v.v.v.v.v.v.v.v.v.v.v.v.v.v.v.v.v.v.v.v.v.v.v.v.v.v.v.v.v.v.v.v.v.v.v.v.v.v.v.v.v.v.v.v.v.v.v.v.v.v.v.v.v.v.v.v.v.v.v.v.v.v.",
"v.v.v.v.v.v.v.v.v.v.v.v.v.v.v.v.v.v.v.v.v.v.v.v.v.v.v.v.v.v.v.v.v.v.v.v.v.v.v.v.v.v.v.v.v.v.v.v.v.v.v.v.v.v.v.v.v.v.v.v.v.v.v.v.v.v.v.v.v.v.v.v.v.v.v.v.v.v.v.v.",
"v.v.v.v.v.v.v.v.v.v.v.v.v.v.v.v.v.v.v.v.v.v.v.v.v.v.v.v.v.v.v.v.v.v.v.v.v.v.v.v.v.v.v.v.v.v.v.v.v.v.v.v.v.v.v.v.v.v.v.v.v.v.v.v.v.v.v.v.v.v.v.v.v.v.v.v.v.v.v.v.",
"v.v.v.v.v.v.v.v.v.v.v.v.v.v.v.v.v.v.v.v.v.v.v.v.v.v.v.v.v.v.v.v.v.v.v.v.v.v.v.v.v.v.v.v.v.v.v.v.v.v.v.v.v.v.v.v.v.v.v.v.v.v.v.v.v.v.v.v.v.v.v.v.v.v.v.v.v.v.v.v.",
"v.v.v.v.v.v.v.v.v.v.v.v.v.v.v.v.v.v.v.v.v.v.v.v.v.v.v.v.v.v.v.v.v.v.v.v.v.v.v.v.v.v.v.v.v.v.v.v.v.v.v.v.v.v.v.v.v.v.v.v.v.v.v.v.v.v.v.v.v.v.v.v.v.v.v.v.v.v.v.v.",
"v.v.v.v.v.v.v.v.v.v.v.v.v.v.v.v.v.v.v.v.v.v.v.v.v.v.v.v.v.v.v.v.v.v.v.v.v.v.v.v.v.v.v.v.v.v.v.v.v.v.v.v.v.v.v.v.v.v.v.v.v.v.v.v.v.v.v.v.v.v.v.v.v.v.v.v.v.v.v.v.",
"v.v.v.v.v.v.v.v.v.v.v.v.v.v.v.v.v.v.v.v.v.v.v.v.v.v.v.v.v.v.v.v.v.v.v.v.v.v.v.v.v.v.v.v.v.v.v.v.v.v.v.v.v.v.v.v.v.v.v.v.v.v.v.v.v.v.v.v.v.v.v.v.v.v.v.v.v.v.v.v.",
"v.v.v.v.v.v.v.v.v.v.v.v.v.v.v.v.v.v.v.v.v.v.v.v.v.v.v.v.v.v.v.v.v.v.v.v.v.v.v.v.v.v.v.v.v.v.v.v.v.v.v.v.v.v.v.v.v.v.v.v.v.v.v.v.v.v.v.v.v.v.v.v.v.v.v.v.v.v.v.v.",
"v.v.v.v.v.v.v.v.v.v.v.v.v.v.v.v.v.v.v.v.v.v.v.v.v.v.v.v.v.v.v.v.v.v.v.v.v.v.v.v.v.v.v.v.v.v.v.v.v.v.v.v.v.v.v.v.v.v.v.v.v.v.v.v.v.v.v.v.v.v.v.v.v.v.v.v.v.v.v.v.",
"v.v.v.v.v.v.v.v.v.v.v.v.v.v.v.v.v.v.v.v.v.v.v.v.v.v.v.v.v.v.v.v.v.v.v.v.v.v.v.v.v.v.v.v.v.v.v.v.v.v.v.v.v.v.v.v.v.v.v.v.v.v.v.v.v.v.v.v.v.v.v.v.v.v.v.v.v.v.v.v.",
"v.v.v.v.v.v.v.v.v.v.v.v.v.v.v.v.v.v.v.v.v.v.v.v.v.v.v.v.v.v.v.v.v.v.v.v.v.v.v.v.v.v.v.v.v.v.v.v.v.v.v.v.v.v.v.v.v.v.v.v.v.v.v.v.v.v.v.v.v.v.v.v.v.v.v.v.v.v.v.v.",
"v.v.v.v.v.v.v.v.v.v.v.v.v.v.v.v.v.v.v.v.v.v.v.v.v.v.v.v.v.v.v.v.v.v.v.v.v.v.v.v.v.v.v.v.v.v.v.v.v.v.v.v.v.v.v.v.v.v.v.v.v.v.v.v.v.v.v.v.v.v.v.v.v.v.v.v.v.v.v.v.",
"v.v.v.v.v.v.v.v.v.v.v.v.v.v.v.v.v.v.v.v.v.v.v.v.v.v.v.v.v.v.v.v.v.v.v.v.v.v.v.v.v.v.v.v.v.v.v.v.v.v.v.v.v.v.v.v.v.v.v.v.v.v.v.v.v.v.v.v.v.v.v.v.v.v.v.v.v.v.v.v.",
"v.v.v.v.v.v.v.v.v.v.v.v.v.v.v.v.v.v.v.v.v.v.v.v.v.v.v.v.v.v.v.v.v.v.v.v.v.v.v.v.v.v.v.v.v.v.v.v.v.v.v.v.v.v.v.v.v.v.v.v.v.v.v.v.v.v.v.v.v.v.v.v.v.v.v.v.v.v.v.v.",
"v.v.v.v.v.v.v.v.v.v.v.v.v.v.v.v.v.v.v.v.v.v.v.v.v.v.v.v.v.v.v.v.v.v.v.v.v.v.v.v.v.v.v.v.v.v.v.v.v.v.v.v.v.v.v.v.v.v.v.v.v.v.v.v.v.v.v.v.v.v.v.v.v.v.v.v.v.v.v.v.",
"v.v.v.v.v.v.v.v.v.v.v.v.v.v.v.v.v.v.v.v.v.v.v.v.v.v.v.v.v.v.v.v.v.v.v.v.v.v.v.v.v.v.v.v.v.v.v.v.v.v.v.v.v.v.v.v.v.v.v.v.v.v.v.v.v.v.v.v.v.v.v.v.v.v.v.v.v.v.v.v.",
"v.v.v.v.v.v.v.v.v.v.v.v.v.v.v.v.v.v.v.v.v.v.v.v.v.v.v.v.v.v.v.v.v.v.v.v.v.v.v.v.v.v.v.v.v.v.v.v.v.v.v.v.v.v.v.v.v.v.v.v.v.v.v.v.v.v.v.v.v.v.v.v.v.v.v.v.v.v.v.v.",
"v.v.v.v.v.v.v.v.v.v.v.v.v.v.v.v.v.v.v.v.v.v.v.v.v.v.v.v.v.v.v.v.v.v.v.v.v.v.v.v.v.v.v.v.v.v.v.v.v.v.v.v.v.v.v.v.v.v.v.v.v.v.v.v.v.v.v.v.v.v.v.v.v.v.v.v.v.v.v.v.",
"v.v.v.v.v.v.v.v.v.v.v.v.v.v.v.v.v.v.v.v.v.v.v.v.v.v.v.v.v.v.v.v.v.v.v.v.v.v.v.v.v.v.v.v.v.v.v.v.v.v.v.v.v.v.v.v.v.v.v.v.v.v.v.v.v.v.v.v.v.v.v.v.v.v.v.v.v.v.v.v.",
"v.v.v.v.v.v.v.v.v.v.v.v.v.v.v.v.v.v.v.v.v.v.v.v.v.v.v.v.v.v.v.v.v.v.v.v.v.v.v.v.v.v.v.v.v.v.v.v.v.v.v.v.v.v.v.v.v.v.v.v.v.v.v.v.v.v.v.v.v.v.v.v.v.v.v.v.v.v.v.v.",
"v.v.v.v.v.v.v.v.v.v.v.v.v.v.v.v.v.v.v.v.v.v.v.v.v.v.v.v.v.v.v.v.v.v.v.v.v.v.v.v.v.v.v.v.v.v.v.v.v.v.v.v.v.v.v.v.v.v.v.v.v.v.v.v.v.v.v.v.v.v.v.v.v.v.v.v.v.v.v.v.",
"v.v.v.  f.v.v.v.v.v.v.v.v.v.v.v.v.v.v.v.v.v.v.v.v.v.v.v.v.v.v.v.v.v.v.v.v.v.v.v.v.v.v.v.v.v.v.v.v.v.v.v.v.v.v.v.v.v.v.v.v.v.v.v.v.v.v.v.v.v.v.v.v.v.v.v.v.v.v.v.",
"v.v.v.  f.v.v.v.v.v.v.v.v.v.v.v.v.v.v.v.v.v.v.v.v.v.v.v.v.v.v.v.v.v.v.v.v.v.v.v.v.v.v.v.v.v.v.v.v.v.v.v.v.v.v.v.v.v.v.v.v.v.v.v.v.v.v.v.v.v.v.v.v.v.v.v.v.v.v.v.",
"v.v.v.  f.v.v.v.v.v.v.v.v.v.v.v.v.v.v.v.v.v.v.v.v.v.v.v.v.v.v.v.v.v.v.v.v.v.v.v.v.v.v.v.v.v.v.v.v.v.v.v.v.v.v.v.v.v.v.v.v.v.v.v.v.v.v.v.v.v.v.v.v.v.v.v.v.v.v.v.",
"v.v.v.  f.v.v.v.v.v.v.v.v.v.v.v.v.v.v.v.v.v.v.v.v.v.v.v.v.v.v.v.v.v.v.v.v.v.v.v.v.v.v.v.v.v.v.v.v.v.v.v.v.v.v.v.v.v.v.v.v.v.v.v.v.v.v.v.v.v.v.v.v.v.v.v.v.v.v.v.",
"v.v.v.  f.v.v.v.v.f.f.f.v.v.v.v.v.v.v.v.v.v.v.v.v.u.u.f.v.v.v.v.v.v.v.f.j.v.v.v.v.v.j.j.j.v.v.v.v.v.v.v.v.v.v.v.v.v.c.2.v.f.z.a.z.z.z.z.a.z.z.z.a.r.r.a.v.v.v.v.",
"v.v.v.  v.v.v.x   X & X X v f.v.v.v.v.v.v.v.f.c @ : % % % m v.v.v.v.v.0 u t.v.v.5.t { { { h x.v.v.v.v.v.v.v.v.v.v.5 ..I v.s.{ ] { { ] ' u u u a a f f y ( v.v.v.",
"v.v.v.  v.f.  = u.v.v.v.u.v o 2.v.v.v.v.v.5.@ b r.v.v.v.r.1 2 u.v.v.f.6 6 K v.j.y i y ] s ] i v.v.v.v.v.v.v.v.v.v.{ { y v.C { { { ] ' ..&.=.$.] y y y t U v.v.v.",
"v.v.v.  2.  2.v.v.v.v.v.v.v.u.o 5.v.v.v.5.+ u.v.v.v.v.v.v.v.5.4 a.v.f.3 5 8.v.0 y a J 6.C s { C v.v.v.v.v.v.v.v.v.' ../ v.6 { { { ' &.1.1.1.1.<.} 8 y 6 U v.v.v.",
"v.v.v.    2.v.v.v.v.v.v.v.v.v.u.. f.v.f.+ u.v.v.v.v.v.v.v.v.v.8.2 v.v.3 y t.f.y y J v.v.v.t ] ] g.v.v.v.v.v.v.v.v.f { q v.w { { ` o.1.<.o.} =.1.:.6 y 6 U v.v.v.",
"v.v.v.  = v.v.v.v.v.v.v.v.v.v.v.c v v.c c v.v.v.v.v.v.v.v.v.v.v.2 a.v.4 5 8.f.y a t.v.f.v.x.a ] { f.v.v.v.v.v.v.v.[ { q v.0.{ { ` =.1.+.7 y u <.<.p 6 6 U v.v.v.",
"v.v.v.  2.v.v.v.v.v.v.v.v.v.v.v.f.o v.. u.v.v.v.v.v.v.v.v.v.v.v.5.1 v.2 3 8.f.6 y i.v.v.v.v.y.{ { E v.f.v.v.v.v.v.f { k v.! ..{ u =.1.O.y f d <.1.i 6 6 J v.v.v.",
"v.v.v.  u.v.v.v.v.v.v.v.v.v.v.v.v.o u.. v.v.v.v.v.r.r.a.r.r.a.r.7.$ u.2 3 8.f.5 y 7.v.v.v.v.v.i { { g.v.v.v.v.v.v.' { ! v.l { { u o.1.1.} 7 =.1.-.5 6 6 9 v.v.v.",
"v.v.v.  f.v.v.v.v.v.v.v.v.v.v.v.v.& 2.* v.v.v.v.v.O ; ; ; ; ; # 2 G x.3 4 w.f.t y i.v.v.v.v.v.j.] ' t v.v.v.v.v.v.{ { r v.J { { ] u &.&.} ;.1.<.p 6 6 3 B v.v.v.",
"v.v.v.  u.v.v.v.v.v.v.v.v.v.v.v.f.X f.o f.v.v.v.v.v.v.v.v.v.v.v.v.v.v.$ 4 i.f.5 a p.v.v.v.v.v.v.U a ] s.v.v.v.v.v.] { ` v.$ { { ' s 7 | <.1.>.p 6 6 5 3 B v.v.v.",
"v.v.v.= Z v.v.v.v.v.v.v.v.v.v.v.2.& v.o 5.v.v.v.v.v.v.v.v.v.v.v.v.v.f.3 3 i.r.t 3 i.v.v.v.v.v.v.v.` { { l.v.v.v.v.] { R v.( { { s u +.1.1.%.5 2 5 3 3 3 B v.v.v.",
"v.v.v.u.  v.v.v.v.v.v.v.v.v.v.v.o 5.v.5.o v.v.v.v.v.v.v.v.v.v.v.F v.v.2 3 A j.t 4 i.v.f.v.v.v.v.v.j.' { { v.v.v.v.s { e v.u { { u %.1.1.=.|  . .z 6 3 2 m v.v.v.",
"v.v.v.v.x = v.v.v.v.v.v.v.v.v.x & v.v.v.o v v.v.v.v.v.v.v.v.v.; G v.f.$ 2 i.f.4 y 6.v.v.v.v.v.v.v.v.I { { ( v.v.h.{ { y.v.w.{ { u ;.1.1.1.1.1.1.1.t 2 2 B v.v.v.",
"v.v.v.v.v.=   f.v.v.v.v.v.v.&   v.v.v.v.v.o * v.v.v.v.v.v.f.@ ; v.v.f.$ 3 i.f.3 t i.v.v.v.v.v.v.v.v.v.' { { ` ) ..{ { o v.v.' ] f d #.$.$.@.@.@.X.0 2 2 m v.v.v.",
"v.v.v.v.v.v.Z   x Z u.Z x   v v.v.v.v.v.v.v.& . c 5.5.D - : c v.v.v.j.2 $ 3.j.3 3 r.v.v.v.v.v.v.v.v.v.z...{ { ] o.+.I v.= = v.] s u 6 6 5 5 4 2 2 2 2 $ 1 v.v.v.",
"v.v.v.v.v.v.v.f.Z = = = Z u.v.v.v.v.v.v.v.v.v.f.D * * c F v.v.v.v.v.v.G 1 f.v.B , v.v.v.v.v.v.v.v.v.v.v.v.( ` 7 7 c.v.v.= = v.v.U q 0 h w w 9 9 9 % 1 % 5.v.v.v.",
"v.v.v.v.v.v.v.v.v.v.v.v.v.v.v.v.v.v.v.v.v.v.v.v.v.v.v.v.v.v.v.v.f.3.5.v.v.v.j.t.j.v.v.v.j.y.y.v.v.v.v.i.s.f.v.v.v.v.j.v.v.v.v.v.v.v.v.v.v.v.v.v.v.v.v.v.v.v.v.v.",
"v.v.v.v.v.v.v.v.v.v.v.v.v.v.v.v.v.v.v.v.v.v.v.v.v.f.v.v.v.v.v.f.> F A H v.3.1 i.1 6.v.H 9 p.M t i.v.U ~ y.` e.@ 7 { l I v.v.v.v.u.u.v.v.f.D v.2.x Z x f.v.v.v.v.",
"v.v.v.v.v.v.v.v.v.v.v.v.v.v.v.v.v.v.v.v.v.v.v.v.v.v.v.v.v.v.v.m u.v.v.H r.m v.v.v.H 8.U v.v.v.v.r j.) f.v.v.k v.x._ v.v.v.v.v.v.2.Z v.v.f.= v.= 2.f.u.  f.v.v.v.",
"v.v.v.v.v.v.v.v.v.v.v.v.v.v.v.v.v.v.v.v.v.v.v.v.v.v.v.v.v.v.v.5.m u.f.v.f.m v.v.v.B B f.v.v.v.v.i.U U v.v.v.t v.c.P v.v.v.v.v.v.2.Z v.v.u.= v.x f.v.v.2.x v.v.v.",
"v.v.v.v.v.v.v.v.v.v.v.v.v.v.v.v.v.v.v.v.v.v.v.v.v.v.v.v.v.v.v.v.u.F m c v.B u.f.H H G f.v.v.v.v.z.U ( c.j.U ( v.k._ v.v.v.v.v.v.u.  x x = = v.= f.v.v.u.= v.v.v.",
"v.v.v.v.v.v.v.v.v.v.v.v.v.v.v.v.v.v.v.v.v.v.v.v.v.v.v.v.v.v.v.5.f.v.v.F F m H H 3.v.H 8.v.v.v.v.K w.6 ( h U v.v.g._ v.v.v.v.v.v.2.Z v.v.f.= v.x f.v.v.u.= v.v.v.",
"v.v.v.v.v.v.v.v.v.v.v.v.v.v.v.v.v.v.v.v.v.v.v.v.v.v.v.v.v.v.v.5.c v.v.m r.m v.v.v.v.v.1 8.v.v.H K v.U v.v.U v.v.d.~ v.v.v.v.v.v.2.Z v.v.f.= v.x f.v.f.= u.v.v.v.",
"v.v.v.v.v.v.v.v.v.v.v.v.v.v.v.v.v.v.v.v.v.v.v.v.v.v.v.v.v.v.v.v.5.O O r.v.H v.v.v.v.v.f.G B 1 K v.f.( v.v.w.w.v.z.( v.v.v.v.v.v.2.Z v.v.f.x v.x = = = 2.v.v.v.v.",
"v.v.v.v.v.v.v.v.v.v.v.v.v.v.v.v.v.v.v.v.v.v.v.v.v.v.v.v.v.v.v.v.v.v.v.v.v.v.v.v.v.v.v.v.v.v.v.v.v.v.v.v.v.v.v.v.v.v.v.v.v.v.v.v.v.v.v.v.v.v.v.v.v.v.v.v.v.v.v.v.",
"v.v.v.v.v.v.v.v.v.v.v.v.v.v.v.v.v.v.v.v.v.v.v.v.v.v.v.v.v.v.v.v.v.v.v.v.v.v.v.v.v.v.v.v.v.v.v.v.v.v.v.v.v.v.v.v.v.v.v.v.v.v.v.v.v.v.v.v.v.v.v.v.v.v.v.v.v.v.v.v.",
"v.v.v.v.v.v.v.v.v.v.v.v.v.v.v.v.v.v.v.v.v.v.v.v.v.v.v.v.v.v.v.v.v.v.v.v.v.v.v.v.v.v.v.v.v.v.v.v.v.v.v.v.v.v.v.v.v.v.v.v.v.v.v.v.v.v.v.v.v.v.v.v.v.v.v.v.v.v.v.v.",
"v.v.v.v.v.v.v.v.v.v.v.v.v.v.v.v.v.v.v.v.v.v.v.v.v.v.v.v.v.v.v.v.v.v.v.v.v.v.v.v.v.v.v.v.v.v.v.v.v.v.v.v.v.v.v.v.v.v.v.v.v.v.v.v.v.v.v.v.v.v.v.v.v.v.v.v.v.v.v.v.",
"v.v.v.v.v.v.v.v.v.v.v.v.v.v.v.v.v.v.v.v.v.v.v.v.v.v.v.v.v.v.v.v.v.v.v.v.v.v.v.v.v.v.v.v.v.v.v.v.v.v.v.v.v.v.v.v.v.v.v.v.v.v.v.v.v.v.v.v.v.v.v.v.v.v.v.v.v.v.v.v.",
"v.v.v.v.v.v.v.v.v.v.v.v.v.v.v.v.v.v.v.v.v.v.v.v.v.v.v.v.v.v.v.v.v.v.v.v.v.v.v.v.v.v.v.v.v.v.v.v.v.v.v.v.v.v.v.v.v.v.v.v.v.v.v.v.v.v.v.v.v.v.v.v.v.v.v.v.v.v.v.v.",
"v.v.v.v.v.v.v.v.v.v.v.v.v.v.v.v.v.v.v.v.v.v.v.v.v.v.v.v.v.v.v.v.v.v.v.v.v.v.v.v.v.v.v.v.v.v.v.v.v.v.v.v.v.v.v.v.v.v.v.v.v.v.v.v.v.v.v.v.v.v.v.v.v.v.v.v.v.v.v.v.",
"v.v.v.v.v.v.v.v.v.v.v.v.v.v.v.v.v.v.v.v.v.v.v.v.v.v.v.v.v.v.v.v.v.v.v.v.v.v.v.v.v.v.v.v.v.v.v.v.v.v.v.v.v.v.v.v.v.v.v.v.v.v.v.v.v.v.v.v.v.v.v.v.v.v.v.v.v.v.v.v.",
"v.v.v.v.v.v.v.v.v.v.v.v.v.v.v.v.v.v.v.v.v.v.v.v.v.v.v.v.v.v.v.v.v.v.v.v.v.v.v.v.v.v.v.v.v.v.v.v.v.v.v.v.v.v.v.v.v.v.v.v.v.v.v.v.v.v.v.v.v.v.v.v.v.v.v.v.v.v.v.v.",
"v.v.v.v.v.v.v.v.v.v.v.v.v.v.v.v.v.v.v.v.v.v.v.v.v.v.v.v.v.v.v.v.v.v.v.v.v.v.v.v.v.v.v.v.v.v.v.v.v.v.v.v.v.v.v.v.v.v.v.v.v.v.v.v.v.v.v.v.v.v.v.v.v.v.v.v.v.v.v.v.",
"v.v.v.v.v.v.v.v.v.v.v.v.v.v.v.v.v.v.v.v.v.v.v.v.v.v.v.v.v.v.v.v.v.v.v.v.v.v.v.v.v.v.v.v.v.v.v.v.v.v.v.v.v.v.v.v.v.v.v.v.v.v.v.v.v.v.v.v.v.v.v.v.v.v.v.v.v.v.v.v.",
"v.v.v.v.v.v.v.v.v.v.v.v.v.v.v.v.v.v.v.v.v.v.v.v.v.v.v.v.v.v.v.v.v.v.v.v.v.v.v.v.v.v.v.v.v.v.v.v.v.v.v.v.v.v.v.v.v.v.v.v.v.v.v.v.v.v.v.v.v.v.v.v.v.v.v.v.v.v.v.v.",
"v.v.v.v.v.v.v.v.v.v.v.v.v.v.v.v.v.v.v.v.v.v.v.v.v.v.v.v.v.v.v.v.v.v.v.v.v.v.v.v.v.v.v.v.v.v.v.v.v.v.v.v.v.v.v.v.v.v.v.v.v.v.v.v.v.v.v.v.v.v.v.v.v.v.v.v.v.v.v.v.",
"v.v.v.v.v.v.v.v.v.v.v.v.v.v.v.v.v.v.v.v.v.v.v.v.v.v.v.v.v.v.v.v.v.v.v.v.v.v.v.v.v.v.v.v.v.v.v.v.v.v.v.v.v.v.v.v.v.v.v.v.v.v.v.v.v.v.v.v.v.v.v.v.v.v.v.v.v.v.v.v.",
"v.v.v.v.v.v.v.v.v.v.v.v.v.v.v.v.v.v.v.v.v.v.v.v.v.v.v.v.v.v.v.v.v.v.v.v.v.v.v.v.v.v.v.v.v.v.v.v.v.v.v.v.v.v.v.v.v.v.v.v.v.v.v.v.v.v.v.v.v.v.v.v.v.v.v.v.v.v.v.v.",
"v.v.v.v.v.v.v.v.v.v.v.v.v.v.v.v.v.v.v.v.v.v.v.v.v.v.v.v.v.v.v.v.v.v.v.v.v.v.v.v.v.v.v.v.v.v.v.v.v.v.v.v.v.v.v.v.v.v.v.v.v.v.v.v.v.v.v.v.v.v.v.v.v.v.v.v.v.v.v.v.",
"v.v.v.v.v.v.v.v.v.v.v.v.v.v.v.v.v.v.v.v.v.v.v.v.v.v.v.v.v.v.v.v.v.v.v.v.v.v.v.v.v.v.v.v.v.v.v.v.v.v.v.v.v.v.v.v.v.v.v.v.v.v.v.v.v.v.v.v.v.v.v.v.v.v.v.v.v.v.v.v.",
"v.v.v.v.v.v.v.v.v.v.v.v.v.v.v.v.v.v.v.v.v.v.v.v.v.v.v.v.v.v.v.v.v.v.v.v.v.v.v.v.v.v.v.v.v.v.v.v.v.v.v.v.v.v.v.v.v.v.v.v.v.v.v.v.v.v.v.v.v.v.v.v.v.v.v.v.v.v.v.v.",
"v.v.v.v.v.v.v.v.v.v.v.v.v.v.v.v.v.v.v.v.v.v.v.v.v.v.v.v.v.v.v.v.v.v.v.v.v.v.v.v.v.v.v.v.v.v.v.v.v.v.v.v.v.v.v.v.v.v.v.v.v.v.v.v.v.v.v.v.v.v.v.v.v.v.v.v.v.v.v.v.",
"v.v.v.v.v.v.v.v.v.v.v.v.v.v.v.v.v.v.v.v.v.v.v.v.v.v.v.v.v.v.v.v.v.v.v.v.v.v.v.v.v.v.v.v.v.v.v.v.v.v.v.v.v.v.v.v.v.v.v.v.v.v.v.v.v.v.v.v.v.v.v.v.v.v.v.v.v.v.v.v.",
"v.v.v.v.v.v.v.v.v.v.v.v.v.v.v.v.v.v.v.v.v.v.v.v.v.v.v.v.v.v.v.v.v.v.v.v.v.v.v.v.v.v.v.v.v.v.v.v.v.v.v.v.v.v.v.v.v.v.v.v.v.v.v.v.v.v.v.v.v.v.v.v.v.v.v.v.v.v.v.v.",
"v.v.v.v.v.v.v.v.v.v.v.v.v.v.v.v.v.v.v.v.v.v.v.v.v.v.v.v.v.v.v.v.v.v.v.v.v.v.v.v.v.v.v.v.v.v.v.v.v.v.v.v.v.v.v.v.v.v.v.v.v.v.v.v.v.v.v.v.v.v.v.v.v.v.v.v.v.v.v.v.",
"v.v.v.v.v.v.v.v.v.v.v.v.v.v.v.v.v.v.v.v.v.v.v.v.v.v.v.v.v.v.v.v.v.v.v.v.v.v.v.v.v.v.v.v.v.v.v.v.v.v.v.v.v.v.v.v.v.v.v.v.v.v.v.v.v.v.v.v.v.v.v.v.v.v.v.v.v.v.v.v.",
"v.v.v.v.v.v.v.v.v.v.v.v.v.v.v.v.v.v.v.v.v.v.v.v.v.v.v.v.v.v.v.v.v.v.v.v.v.v.v.v.v.v.v.v.v.v.v.v.v.v.v.v.v.v.v.v.v.v.v.v.v.v.v.v.v.v.v.v.v.v.v.v.v.v.v.v.v.v.v.v.",
"v.v.v.v.v.v.v.v.v.v.v.v.v.v.v.v.v.v.v.v.v.v.v.v.v.v.v.v.v.v.v.v.v.v.v.v.v.v.v.v.v.v.v.v.v.v.v.v.v.v.v.v.v.v.v.v.v.v.v.v.v.v.v.v.v.v.v.v.v.v.v.v.v.v.v.v.v.v.v.v.",
"v.v.v.v.v.v.v.v.v.v.v.v.v.v.v.v.v.v.v.v.v.v.v.v.v.v.v.v.v.v.v.v.v.v.v.v.v.v.v.v.v.v.v.v.v.v.v.v.v.v.v.v.v.v.v.v.v.v.v.v.v.v.v.v.v.v.v.v.v.v.v.v.v.v.v.v.v.v.v.v."
};
