/* XPM */
static char *xpm_[] = {
/* columns rows colors chars-per-pixel */
"80 80 42 1 ",
"  c #000000",
". c #000000",
"X c #000000",
"o c #000000",
"O c #000000",
"+ c #000000",
"@ c #000000",
"# c #000000",
"$ c #97BE0D",
"% c #97BE0D",
"& c #97BE0D",
"* c #97BE0D",
"= c #97BE0D",
"- c #97BE0D",
"; c #97BE0D",
": c #97BE0D",
"> c #97BE0D",
", c #97BE0D",
"< c #97BE0D",
"1 c #97BE0D",
"2 c #97BE0D",
"3 c #97BE0D",
"4 c #97BE0D",
"5 c #000000",
"6 c #000000",
"7 c #000000",
"8 c #000000",
"9 c #97BE0D",
"0 c #97BE0D",
"q c #97BE0D",
"w c #97BE0D",
"e c #97BE0D",
"r c #000000",
"t c #000000",
"y c #97BE0D",
"u c #97BE0D",
"i c #97BE0D",
"p c #97BE0D",
"a c #090B01",
"s c #97BE0D",
"d c #97BE0D",
"f c None",
/* pixels */
"ffffffffffffffffrrrrrrrrrrrrrrrrrrrrrrrrrrrrrrrrrrrrrrrrrrrrrrrrrrrrrrrrrrrrrrrr",
"ffffffffffffffffrrrrrrrrrrrrrrrrrrrrrrrrrrrrrrrrrrrrrrrrrrrrrrrrrrrrrrrrrrrrrrrr",
"ffffffffffffffffrrrrrrrrrrrrrrrrrrrrrrrrrrrrrrrrrrrrrrrrrrrrrrrrrrrrrrrrrrrrrrrr",
"ffffffffffffffffrrrrrrrrrrrrrrrrrrrrrrrrrrrrrrrrrrrrrrrrrrrrrrrrrrrrrrrrrrrrrrrr",
"ffffffffffffffffrrrrrrrrrrrrrrrrrrrrrrrrrrrrrrrrrrrrrrrrrrrrrrrrrrrrrrrrrrrrrrrr",
"ffffffffffffffffrrrrrrrrrrrrrrrrrrrrrrrrrrrrrrrrrrrrrrrrrrrrrrrrrrrrrrrrrrrrrrrr",
"ffffffffffffffffrrrrrrrrrrrrrrrrrrrrrrrrrrrrrrrrrrrrrrrrrrrrrrrrrrrrrrrrrrrrrrrr",
"ffffffffffffffffrrrrrrrrrrrrrrrrrrrrrrrrrrrrrrrrrrrrrrrrrrrrrrrrrrrrrrrrrrrrrrrr",
"ffffffffffffffffrrrrrrrrrrrrrrrrrrrrrrrrrrrrrrrrrrrrrrrrrrrrrrrrrrrrrrrrrrrrrrrr",
"ffffffffffffffffrrrrrrrrrrrrrrrrrrrrrrrrrrrrrrrrrrrrrrrrrrrrrrrrrrrrrrrrrrrrrrrr",
"ffffffffffffffffrrrrrrrrrrrrrrrrrrrrrrrrrrrrrrrrrrrrrrrrrrrrrrrrrrrrrrrrrrrrrrrr",
"ffffffffffffffffrrrrrrrrrrrrrrrrrrrrrrrrrrrrrrrrrrrrrrrrrrrrrrrrrrrrrrrrrrrrrrrr",
"ffffffffffffffffrrrrrrrrrrrrrrrrrrrrrrrrrrrrrrrrrrrrrrrrrrrrrrrrrrrrrrrrrrrrrrrr",
"ffffffffffffffffrrrrrrrrrrrrrrrrrrrrrrrrrrrrrrrrrrrrrrrrrrrrrrrrrrrrrrrrrrrrrrrr",
"ffffffffffffffffrrrrrrrrrrrrrrrrrrrrrrrrrrrrrrrrrrrrrrrrrrrrrrrrrrrrrrrrrrrrrrrr",
"ffffffffffffffffrrrrrrrrrrrrrrrrrrrrrrrrrrrrrrrrrrrrrrrrrrrrrrrrrrrrrrrrrrrrrrrr",
"ffffffffrrrrrrrrrrrrrrrrrrrrrrrrrrrrrrrrrrrrrrrrrrrrrrrrrrrrrrrrrrrrrrrrrrrrrrrr",
"ffffffffrrrrrrrrrrrrrrrrrrrrrrrrrrrrrrrrrrrrrrrrrrrrrrrrrrrrrrrrrrrrrrrrrrrrrrrr",
"ffffffffrrrrrrrrrrrrrrrrrrrrrrrrrrrrrrrrrrrrrrrrrrrrrrrrrrrrrrrrrrrrrrrrrrrrrrrr",
"ffffffffrrrrrrrrrrrrrrrrrrrrrrrrrrrrrrrrrrrrrrrrrrrrrrrrrrrrrrrrrrrrrrrrrrrrrrrr",
"ffffffffrrrrrrrrrrrrrrrrrrrrrrrtrrrrrrrrrrrrrrrrrrrrrrrrrrrrrrrrrrrrrrrrrrrrrrrr",
"ffffffffrrrrrrrrrrrrrrrrrrrrrrrtrrrrrrrrrrrrrrrrrrrrrrrrrrrrrrrrrrrrrrrrrrrrrrrr",
"ffffffffrrrrrrrrrrrrrrrrrrrrrrttrrrrrrrrrrrrrrrrrrrrrrrrrrrrrrrrrrrrrrrrrrrrrrrr",
"ffffffffrrrrrrrrrrrrrrrrrrrrrrttrrrrrrrrrrrrrrrrrrrrrrrrrrrrrrrrrrrrrrrrrrrrrrrr",
"ffffttttttttrrrrrrrrrrrrrrrrttttrrrrrrrrrrrrrrrrrrrrrrrrrrrrrrrrrrrrrrrrrrrrrrrr",
"ffffttttttttrrrrrrrrrrrrrrrrttttrrrrrrrrrrrrrrrrrrrrrrrrrrrrrrrrrrrrrrrrrrrrrrrr",
"ffffttttttttrrrrrrrrrrrrrrrrttttrrrrrrrrrrrrrrrrrrrrrrrrrrrrrrrrrrrrrrrrrrrrrrrr",
"ffffttttttttrrrrrrrrrrrrrrrrttttrrrrrrrrrrrrrrrrrrrrrrrrrrrrrrrrrrrrrrrrrrrrrrrr",
"ffffffttttrrrrrrrrrrrrrrrrrrrrttrrrrrrrrrrrrrrrrrrrrrrrrrrrrrrrrrrrrrrrrrrrrrrrr",
"ffffffttttrrrrrrrrrrrrrrrrrrrrttrrrrrrrrrrrrrrrrrrrrrrrrrrrrrrrrrrrrrrrrrrrrrrrr",
"ffffffftta,;421;wdrrrrrrrrrs*aaarrrrrrrrarrrrrrrrrrraarrrrrrrrrrrrrrrrrrrrrrrrrr",
"ffffffft,322222222;arrrrrrrr#d#atatrrtrra6aa6arraaraaaarrrrrrrrrrrrrrrrrrrrrrrrr",
"rrrrrau2222:&we;2222irrrffffo7#+6o6o#6o6o6#o6oa#6###.7o7ffffffffrrrrrrrrrrrrrrrr",
"rrrrrq222*rrrrrrs%222srrfffaoffo6#a##66a#r6#a#6o6666+f+7ffffffffrrrrrrrrrrrrrrrr",
"rrrrr222drrrrrrrrru222atffff.76+6ota#a66o6##ao6#6t66ofo#ffffffffrrrrrrrrrrrrrrrr",
"rrrr&22drrrrrrrrrrai224affffa76aa66r66at6a6aa66t67a67t77ffffffffrrrrrrrrrrrrrrrr",
"rrra22*rrrrrrrrrrrrr*22sfffffffftttattttrrrrrrrrffffffffffffffffatrraaaarraaatrr",
"rrr&22arrrrrrrrrrrrra32,fafffft66#66tttt66rrrrrrttt77aft7#67ffffaarr####rra#rrrr",
"rrr12:rrrrrrrrrrrrrrf,24ffffa+..oooo6tttoooooarr.....6#.....+affaa##########atrr",
"rrr22errrrrrrrrrrrrrf*21affa...taa6oo6tt6#ooo6rr66.....#76...+ffa#####aaa###aarr",
"rrr22errrrrrd%yrrrrrrw22iff+..7farraoo#arr6oo#arff#...7ffft...tfa###aaaaaa##arrr",
"rrr22wrrrrrr:2,rrrrrr022aft..offrrrroooarrooo6trff+..+fafffo..tfa#####aaaa##arrr",
"rrr22,rrrrrr&2,rrrrrr,23af6...++#o6#oo#rta#oo6rrff#..#fffff...tfa#########aaatrr",
"rrre22rrrrrr$2,rrrrrr22eff#.....ooooooorraoooarrff+..6fffffo..tfaa#########arrta",
"rrra22*rrrrr=2,rrrraw22yff#..#faaarrrrrrrrooo#rrff+..#fffff...7faaaa#########aaa",
"rrrr&22yrrrr$2,rrrau224rff7..+ffaarrr66rrrooo6rrff+..6fffffo..tfa##aaaat#####aaa",
"rrrrs222yrrr$2<rrry222arfft...afarrraoorrr6oo6arff#..#fffffo..tfa###ttttaa###arr",
"rrrrap222*rr%2,rre222irrfff6..ottrrr#o6rrr#oo#trff+..#fffft...tfa###ataaa####rrr",
"rrrrrrd2222%223%2222parrrrrrs*..+#+..7ft.......6o......6fo......aqq#########rrrr",
"rrrrrrrr&222222222$starrrrrrrr+....+tfff+o+++++7#o++++o7f#+++++oad#s########rrrr",
"rrrrrrrrra%12224*6ffrrrrrrrrrrrrftffffffffffffffffffffffffffffffrrrraaarrraarrrr",
"rrrrrrrrrrrrrrrrffffrrrrrrrrrrrrffffffffffffffffffffffffffffffffrrrraaatrrtarrrr",
"rrrrrrrrrrrrrrrrffffffffrrrrrrrrffffffffffffffffffffffffffffffffrrrrrrrrrrrrrrrr",
"rrrrrrrrrrrrrrrrffffffffrrrrrrrrffffffffffffffffffffffffffffffffrrrrrrrrrrrrrrrr",
"rrrrrrrrrrrrrrrrffffffffrrrrrrrrffffffffffffffffffffffffffffffffrrrrrrrrrrrrrrrr",
"rrrrrrrrrrrrrrrrffffffffrrrrrrrrffffffffffffffffffffffffffffffffrrrrrrrrrrrrrrrr",
"rrrrrrrrrrrrrrrrffffffffffffffffffffffffffffffffffffffffffffffffrrrrrrrrrrrrrrrr",
"rrrrrrrrrrrrrrrrffffffffffffffffffffffffffffffffffffffffffffffffrrrrrrrrrrrrrrrr",
"rrrrrrrrrrrrrrrrffffffffffffffffffffffffffffffffffffffffffffffffrrrrrrrrrrrrrrrr",
"rrrrrrrrrrrrrrrrffffffffffffffffffffffffffffffffffffffffffffffffrrrrrrrrrrrrrrrr",
"rrrrrrrrrrrrrrrrffffffffffffffffffffffffffffffffffffffffffffffffrrrrrrrrrrrrrrrr",
"rrrrrrrrrrrrrrrrffffffffffffffffffffffffffffffffffffffffffffffffrrrrrrrrrrrrrrrr",
"rrrrrrrrrrrrrrrrffffffffffffffffffffffffffffffffffffffffffffffffrrrrrrrrrrrrrrrr",
"rrrrrrrrrrrrrrrrffffffffffffffffffffffffffffffffffffffffffffffffrrrrrrrrrrrrrrrr",
"rrrrrrrrrrrrrrrrrrrrrrrrrrrrrrrrrrrrrrrrrrrrrrrrrrrrrrrrrrrrrrrrrrrrrrrrrrrrrrrr",
"rrrrrrrrrrrrrrrrrrrrrrrrrrrrrrrrrrrrrrrrrrrrrrrrrrrrrrrrrrrrrrrrrrrrrrrrrrrrrrrr",
"rrrrrrrrrrrrrrrrrrrrrrrrrrrrrrrrrrrrrrrrrrrrrrrrrrrrrrrrrrrrrrrrrrrrrrrrrrrrrrrr",
"rrrrrrrrrrrrrrrrrrrrrrrrrrrrrrrrrrrrrrrrrrrrrrrrrrrrrrrrrrrrrrrrrrrrrrrrrrrrrrrr",
"rrrrrrrrrrrrrrrrrrrrrrrrrrrrrrrrrrrrrrrrrrrrrrrrrrrrrrrrrrrrrrrrrrrrrrrrrrrrrrrr",
"rrrrrrrrrrrrrrrrrrrrrrrrrrrrrrrrrrrrrrrrrrrrrrrrrrrrrrrrrrrrrrrrrrrrrrrrrrrrrrrr",
"rrrrrrrrrrrrrrrrrrrrrrrrrrrrrrrrrrrrrrrrrrrrrrrrrrrrrrrrrrrrrrrrrrrrrrrrrrrrrrrr",
"rrrrrrrrrrrrrrrrrrrrrrrrrrrrrrrrrrrrrrrrrrrrrrrrrrrrrrrrrrrrrrrrrrrrrrrrrrrrrrrr",
"rrrrrrrrrrrrrrrrrrrrrrrrrrrrrrrrrrrrrrrrrrrrrrrrrrrrrrrrrrrrrrrrrrrrrrrrrrrrrrrr",
"rrrrrrrrrrrrrrrrrrrrrrrrrrrrrrrrrrrrrrrrrrrrrrrrrrrrrrrrrrrrrrrrrrrrrrrrrrrrrrrr",
"rrrrrrrrrrrrrrrrrrrrrrrrrrrrrrrrrrrrrrrrrrrrrrrrrrrrrrrrrrrrrrrrrrrrrrrrrrrrrrrr",
"rrrrrrrrrrrrrrrrrrrrrrrrrrrrrrrrrrrrrrrrrrrrrrrrrrrrrrrrrrrrrrrrrrrrrrrrrrrrrrrr",
"rrrrrrrrrrrrrrrrrrrrrrrrrrrrrrrrrrrrrrrrrrrrrrrrrrrrrrrrrrrrrrrrrrrrrrrrrrrrrrrr",
"rrrrrrrrrrrrrrrrrrrrrrrrrrrrrrrrrrrrrrrrrrrrrrrrrrrrrrrrrrrrrrrrrrrrrrrrrrrrrrrr",
"rrrrrrrrrrrrrrrrrrrrrrrrrrrrrrrrrrrrrrrrrrrrrrrrrrrrrrrrrrrrrrrrrrrrrrrrrrrrrrrr",
"rrrrrrrrrrrrrrrrrrrrrrrrrrrrrrrrrrrrrrrrrrrrrrrrrrrrrrrrrrrrrrrrrrrrrrrrrrrrrrrr"
};
