/* XPM */
static char *xpm_[] = {
/* columns rows colors chars-per-pixel */
"80 80 168 2 ",
"   c #050301",
".  c #120E0F",
"X  c #0E0E19",
"o  c #130F10",
"O  c #1A1616",
"+  c #050301",
"@  c #211D1E",
"#  c #26211F",
"$  c #171622",
"%  c #060B23",
"&  c #231F20",
"*  c #262223",
"=  c #312E2E",
"-  c #332F30",
";  c #383435",
":  c #050301",
">  c #050301",
",  c #231F20",
"<  c #231F20",
"1  c #423E3E",
"2  c #857614",
"3  c #4A4747",
"4  c #524F4F",
"5  c #54504E",
"6  c #595657",
"7  c #615E5F",
"8  c #625F60",
"9  c #686566",
"0  c #797777",
"q  c #050301",
"w  c #050301",
"e  c #050301",
"r  c #050301",
"t  c #847314",
"y  c #CFE753",
"u  c #976E15",
"i  c #9B7114",
"p  c #AE7E13",
"a  c #817F7F",
"s  c #F3DB13",
"d  c #7EA276",
"f  c #CCE657",
"g  c #9E8711",
"h  c #B29C0E",
"j  c #B08014",
"k  c #AF940F",
"l  c #BEAB3F",
"z  c #D9E147",
"x  c #D79B0F",
"c  c #F6AF0C",
"v  c #FCB608",
"b  c #EFB115",
"n  c #EEB319",
"m  c #F2B112",
"M  c #D7AE29",
"N  c #D4B135",
"B  c #FDDD04",
"V  c #FDDD04",
"C  c #F9CC07",
"Z  c #FDDC04",
"A  c #F9DD04",
"S  c #FFEA02",
"D  c #9EA75B",
"F  c #ADA94E",
"G  c #B9A942",
"H  c #CBBD54",
"J  c #8BA269",
"K  c #8FA568",
"L  c #CAE75A",
"P  c #CAE558",
"I  c #C0E05E",
"U  c #CCE657",
"Y  c #8FCC80",
"T  c #9AD079",
"R  c #A9D66F",
"E  c #B9DD64",
"W  c #CEE756",
"Q  c #C9E559",
"!  c #C9E459",
"~  c #D9EB4E",
"^  c #CBE658",
"/  c #D3E952",
"(  c #FFF201",
")  c #FDDD04",
"_  c #CBE557",
"`  c #D5EA51",
"'  c #CCE657",
"]  c #FDDD04",
"[  c #CAE558",
"{  c #65CDF5",
"}  c #6DD3FB",
"|  c #817F80",
" . c #2A94BC",
".. c #3997B0",
"X. c #3AABBC",
"o. c #2EA7C5",
"O. c #47B7DA",
"+. c #5E9C8F",
"@. c #509B9D",
"#. c #6E9F83",
"$. c #6CBE98",
"%. c #58B7A7",
"&. c #4CB2B0",
"*. c #72BCBE",
"=. c #66CEF5",
"-. c #81C68A",
";. c #1A99CE",
":. c #078FD9",
">. c #0995DB",
",. c #109CDA",
"<. c #28A7D8",
"1. c #008FEA",
"2. c #0094E7",
"3. c #3EB5EB",
"4. c #38B4EF",
"5. c #66CEF5",
"6. c #4DBEEE",
"7. c #66CEF5",
"8. c #5DCFFF",
"9. c #5CC8F2",
"0. c #66CEF5",
"q. c #6CD2F7",
"w. c #6DCEEC",
"e. c #65CDF5",
"r. c #898787",
"t. c #908E8F",
"y. c #989697",
"u. c #A09F9F",
"i. c #A9A7A7",
"p. c #B0AEAF",
"a. c #B8B7B7",
"s. c #C0BFBF",
"d. c #C8C7C7",
"f. c #D0CFCF",
"g. c #D0CFD0",
"h. c #D8D8D8",
"j. c #E7E7E7",
"k. c #F0EFEF",
"l. c #FDFDFD",
"z. c #060402",
"x. c #231F20",
"c. c #272320",
"v. c #060404",
"b. c #1B1717",
"n. c #050306",
"m. c #C7E45B",
"M. c #FEDC03",
"N. c #C8E45A",
"B. c #CCE657",
"V. c #CAE559",
"C. c #FFFF00",
"Z. c #DDE33B",
"A. c #64CCF3",
"S. c #66CEF5",
"D. c #69CEEF",
"F. c #050301",
"G. c #050301",
"H. c #CCE657",
"J. c #E7CA07",
"K. c #C5E35C",
"L. c #ECDF20",
"P. c #C9E559",
"I. c #100C02",
"U. c #CCE657",
"Y. c #44CAF8",
"T. c None",
"R. c #CAE558",
"E. c #66CEF5",
/* pixels */
"T.T.T.T.T.T.T.T.T.T.T.T.T.T.T.T.T.T.T.T.T.T.T.T.T.T.T.T.T.T.T.T.T.T.T.T.T.T.T.T.T.T.T.T.T.T.T.T.T.T.T.T.T.T.T.T.T.T.T.T.T.T.T.T.T.T.T.T.T.T.T.T.T.T.T.T.T.T.T.T.",
"T.T.T.T.T.T.T.T.T.T.T.T.T.T.T.T.T.T.T.T.T.T.T.T.T.T.T.T.T.T.T.T.T.T.T.T.T.T.T.T.T.T.T.T.T.T.T.T.T.T.T.T.T.T.T.T.T.T.T.T.T.T.T.T.T.T.T.T.T.T.T.T.T.T.T.T.T.T.T.T.",
"T.T.T.T.T.T.T.T.T.T.T.T.T.T.T.T.T.T.T.T.T.T.T.T.T.T.T.T.T.T.T.T.T.T.T.T.T.T.T.T.T.T.T.T.T.T.T.T.T.T.T.T.T.T.T.T.T.T.T.T.T.T.T.T.T.T.T.T.T.T.T.T.T.T.T.T.T.T.T.T.",
"T.T.T.T.T.T.T.T.T.T.T.T.T.T.T.T.T.T.T.T.T.T.T.T.T.T.T.T.T.T.T.T.T.T.T.T.T.T.T.T.T.T.T.T.T.T.T.T.T.T.T.T.T.T.T.T.T.T.T.T.T.T.T.T.T.T.T.T.T.T.T.T.T.T.T.T.T.T.T.T.",
"T.T.T.T.T.T.T.T.T.T.T.T.T.T.T.T.T.T.T.T.T.T.T.T.T.T.T.T.T.T.T.T.T.T.T.T.T.T.T.T.T.T.T.T.T.T.T.T.T.T.T.T.T.T.T.T.T.T.T.T.T.T.T.T.T.T.T.T.T.T.T.T.T.T.T.T.T.T.T.T.",
"T.T.T.T.T.T.T.T.T.T.T.T.T.T.T.T.T.T.T.T.T.T.T.T.T.T.T.T.T.T.T.T.T.T.T.T.T.T.T.T.T.T.T.T.T.T.T.T.T.T.T.T.T.T.T.T.T.T.T.T.T.T.T.T.T.T.T.T.T.T.T.T.T.T.T.T.T.T.T.T.",
"T.T.T.T.T.T.T.T.T.T.T.T.T.T.T.T.T.T.T.T.T.T.T.T.T.T.T.T.T.T.T.T.T.T.T.T.T.T.T.T.T.T.T.T.T.T.T.T.T.T.T.T.T.T.T.T.T.T.T.T.T.T.T.T.T.T.T.T.T.T.T.T.T.T.T.T.T.T.T.T.",
"T.T.T.T.T.T.T.T.T.T.T.T.T.T.T.T.T.T.T.T.T.T.T.T.T.T.T.T.T.T.T.T.T.T.T.T.T.T.T.T.T.T.T.T.T.T.T.T.T.T.T.T.T.T.T.T.T.T.T.T.T.T.T.T.T.T.T.T.T.T.T.T.T.T.T.T.T.T.T.T.",
"T.T.T.T.T.T.T.T.T.T.T.T.T.T.T.T.T.T.T.T.T.T.T.T.T.T.T.T.T.T.T.T.T.T.T.T.T.T.T.T.T.T.T.T.T.T.T.T.T.T.T.T.T.T.T.T.T.T.T.T.T.T.T.T.T.T.T.T.T.T.T.T.T.T.T.T.T.T.T.T.",
"T.T.T.T.T.T.T.T.T.T.T.T.T.T.T.T.T.T.T.T.T.T.T.T.T.T.T.T.T.T.T.T.T.T.T.T.T.T.T.T.T.T.T.T.T.T.T.T.T.T.T.T.T.T.T.T.T.T.T.T.T.T.T.T.T.T.T.T.T.T.T.T.T.T.T.T.T.T.T.T.",
"T.T.T.T.T.T.T.T.T.T.T.T.T.T.T.T.T.T.T.T.T.T.T.T.T.T.T.T.T.T.T.T.T.T.T.T.T.T.T.T.T.T.T.T.T.T.T.T.T.T.T.T.T.T.T.T.T.T.T.T.T.T.T.T.T.T.T.T.T.T.T.T.T.T.T.T.T.T.T.T.",
"T.T.T.T.T.T.T.T.T.T.T.T.T.T.T.T.T.T.T.T.T.T.T.T.T.T.T.T.T.T.T.T.T.T.T.T.T.T.T.T.T.T.T.T.T.T.T.T.T.T.T.T.T.T.T.T.T.T.T.T.T.T.T.T.T.T.T.T.T.T.T.T.T.T.T.T.T.T.T.T.",
"T.T.T.T.T.T.T.T.T.T.T.T.T.T.T.T.T.T.T.T.T.T.T.T.T.T.T.T.T.T.T.T.T.T.T.T.T.T.T.T.T.T.T.T.T.T.T.T.T.T.T.T.T.T.T.T.T.T.T.T.T.T.T.T.T.T.T.T.T.T.T.T.T.T.T.T.T.T.T.T.",
"T.T.T.T.T.T.T.T.T.T.T.T.T.T.T.T.T.T.T.T.T.T.T.T.T.T.T.T.T.T.T.T.T.T.T.T.T.T.T.T.T.T.T.T.T.T.T.T.T.T.T.T.T.T.T.T.T.T.T.T.T.T.T.T.T.T.T.T.T.T.T.T.T.T.T.T.T.T.T.T.",
"T.T.T.T.T.T.T.T.T.T.T.T.T.T.T.T.T.T.T.T.T.T.T.T.T.T.T.T.T.T.T.T.T.T.T.T.T.T.T.T.T.T.T.T.T.T.T.T.T.T.T.T.T.T.T.T.T.T.T.T.T.T.T.T.T.T.T.T.T.T.T.T.T.T.T.T.T.T.T.T.",
"T.T.T.T.T.T.T.T.T.T.T.T.T.T.T.T.T.T.T.T.T.T.T.T.T.T.T.T.T.T.T.T.T.T.T.T.T.T.T.T.T.T.T.T.T.T.T.T.T.T.T.T.T.T.T.T.T.T.T.T.T.T.T.T.T.T.T.T.T.T.T.T.T.T.T.T.T.T.T.T.",
"T.T.T.T.T.T.T.T.T.T.T.T.T.T.T.T.T.T.T.T.T.T.T.T.T.T.T.T.T.T.T.T.T.T.T.T.T.T.T.T.T.T.T.T.T.T.T.T.T.T.T.T.T.T.T.T.T.T.T.T.T.T.T.T.T.T.T.T.T.T.T.T.T.T.T.T.T.T.T.T.",
"T.T.T.T.T.T.T.T.T.T.T.T.T.T.T.T.T.T.T.T.T.T.T.T.T.T.T.T.T.T.T.T.T.T.T.T.T.T.T.T.T.T.T.T.T.T.T.T.T.T.T.T.T.T.T.T.T.T.T.T.T.T.T.T.T.T.T.T.T.T.T.T.T.T.T.T.T.T.T.T.",
"T.T.T.T.T.T.T.T.T.T.T.T.T.T.T.T.T.T.T.T.T.T.T.T.T.T.T.T.T.T.T.T.T.T.T.T.T.T.T.T.T.T.T.T.T.T.T.T.T.T.T.T.T.T.T.T.T.T.T.T.T.T.T.T.T.T.T.T.T.T.T.T.T.T.T.T.T.T.T.T.",
"T.T.T.T.T.T.T.T.T.T.T.T.T.T.T.T.T.T.T.T.T.T.T.T.T.T.T.T.T.T.T.T.T.T.T.T.T.T.T.T.T.T.T.T.T.T.T.T.T.T.T.T.T.T.T.T.T.T.T.T.T.T.T.T.T.T.T.T.T.T.T.T.T.T.T.T.T.T.T.T.",
"T.T.T.T.T.T.T.T.T.T.T.T.T.T.T.T.T.T.T.T.T.T.T.T.T.T.T.T.T.T.T.T.T.T.T.T.T.T.T.T.T.T.T.T.T.T.T.T.T.T.T.T.T.T.T.T.T.T.T.T.T.T.T.T.T.T.T.T.T.T.T.T.T.T.T.T.T.T.T.T.",
"T.T.T.T.T.T.T.T.T.T.T.T.T.T.T.T.T.T.T.T.T.T.T.T.T.T.T.T.T.T.T.T.T.T.T.T.T.T.T.T.T.T.T.T.T.T.T.T.T.T.T.T.T.T.T.T.T.T.T.T.T.T.T.T.T.T.T.T.T.T.T.T.T.T.T.T.T.T.T.T.",
"T.T.T.T.T.T.T.T.T.T.T.T.T.T.T.T.T.T.T.T.T.T.T.T.T.T.T.T.T.T.T.T.T.T.T.T.T.T.T.T.T.T.T.T.T.T.T.T.T.T.T.T.T.T.T.T.T.T.T.T.T.T.T.T.T.T.T.T.T.T.T.T.T.T.T.T.T.T.T.T.",
"T.T.T.T.T.T.T.T.T.T.T.T.T.T.T.T.T.T.T.T.T.T.T.T.T.T.T.T.T.T.T.T.T.T.T.T.T.T.T.T.T.T.T.T.T.T.T.T.T.T.T.T.T.T.T.T.T.T.T.T.T.T.T.T.T.T.T.T.T.T.T.T.T.T.T.T.T.T.T.T.",
"T.T.T.T.T.T.T.T.T.T.T.T.T.T.T.T.T.T.T.T.T.T.T.T.T.T.T.T.T.T.T.v.T.T.T.T.T.I.T.T.T.T.T.T.T.T.T.T.T.T.T.T.T.T.T.T.T.T.T.T.T.T.T.T.T.T.T.T.T.T.T.T.T.T.T.T.T.T.T.T.",
"T.T.T.T.T.T.T.T.I.T.T.I.T.T.T.T.T.T.T.T.T.b.T.T.T.T.T.v.I.L.U.C.Z.B.f _ _ Q ~ y T.T.T.T.T.T.T.T.T.T.T.T.T.T.T.T.T.T.T.T.T.T.T.T.T.T.T.T.T.T.T.T.T.T.T.T.T.T.T.T.",
"T.T.T.T.T.T.T.T.T.b.T.T.T.T.T.T.T.v.I.R.H.m.C.f f y [ E U ^ / ~ ~ ~ / E T ^ ~ W I.z.T.G.r T.T.T.T.T.T.T.T.T.T.T.T.T.T.T.T.T.T.T.T.T.T.T.T.T.T.T.T.T.T.T.T.T.T.T.",
"T.T.T.T.T.T.  b.K.m.N.B.f [ W W E / / ~ ^ ^ / / ~ ~ ~ ~ / I R -.s.6.,.>.1.Y ~ W C.] ] Z R.T.T.T.T.T.T.T.T.T.T.T.T.T.T.T.T.T.T.T.T.T.T.T.T.T.T.T.T.T.T.T.T.T.T.T.",
"T.T.T.T.T.L ^ ^ ~ ~ ^ ^ ^ ^ ^ ^ ^ ^ / / ~ ~ ^ ! ^ a.$.X.;.2.2.1.;...+.K G n m c S S Z Z ] T.T.T.T.T.T.T.T.T.T.T.T.T.T.T.T.T.T.T.T.T.T.T.T.T.T.T.T.T.T.T.T.T.T.T.",
"T.T.T.T.T.L ^ ^ / / ^ ^ ^ / ~ ~ / ^ E T $.&.;.:.2.2.:. .@.d F M b v v C v v c c A Z Z Z g T.T.T.T.T.T.T.T.T.T.T.T.T.T.T.T.T.T.T.T.T.T.T.T.T.T.T.T.T.T.T.T.T.T.T.",
"T.T.T.T.T._ / ^ / ~ ~ ^ I R -.%.7.,.2.1.:.;...d T N n c c v v v c c c m c v c c Z S Z Z ) T.T.T.T.T.T.T.T.T.T.T.T.T.T.T.T.T.T.T.T.T.T.T.T.T.T.T.T.T.T.T.T.T.T.T.",
"T.T.T.T.T.t ^ R s.$.7.<.2.2.2.,.7.%.J G M c c v v v c c c b c c c c c v c c c c A S Z Z A b.T.T.G.T.T.T.T.T.G.T.T.T.T.T.G.T.T.T.T.T.T.I.T.T.T.T.T.T.T.T.T.T.T.T.",
"T.T.G.D.D...;.>.2.1. .@.d F N n v v C v v C v v v C v v v C v v v v v C v v v v C S S S S U.T.T.T.T.T.T.T.T.T.T.T.T.T.T.T.T.T.T.T.T.T.T.T.T.T.T.T.T.T.T.T.T.T.T.",
"T.T.T.9.q.3.:.2.>.2.l v v v v v x p p j p j j p j j j j j j j p j j j j j j j j g h h h ( t n.b.b.b.b.b.b.n.b.b.b.b.b.n.b.b.b.b.b.n.b.b.b.b.b.n.b.b.b.b.n.T.T.T.",
"T.T.T.e.q.8.:.>.,.1.K v c c c v u X $ $ $ $ O X X X $ $ $ $ $ $ O $ $ $ $ $ $ $ $ $ $ $ * @ # * & & = * * * * * - * * & * * = * & & & & = & O * & & = * & T.T.T.",
"T.T.T.{ q.9.:.2.:.1.+.v c v m C i $ * * * O * 3 5 3 @ O * # # O # # O * # # # # @ O @ # = # O O @ & * * O O @ O * * & & O O & * & & & @ - - - * & & * * & T.T.T.",
"T.T.T.E.q.9.<.4.3.4.*.v m v m v i $ # O O 0 j.l.l.l.h.7 O * O i.h.h.y.O * O ; f.h.a.* * O 0 h.d.; O * O r.h.h.p.@ * O = d.j.t.O * & * O a.l.h.- @ & & & & T.T.T.",
"T.T.T.D.0.q.q.q.q.q.w.b v v v v i $ * O i.l.l.l.l.l.l.y.o O 4 l.l.l.j.* * O 6 l.l.l.r.O O p.l.k.= * O - k.l.l.k.- * O 1 l.l.u.o * * * O d.l.k.- O & & & & T.T.T.",
"T.T.T.n.7.q.0.0.0.0.q.M C m A A u $ O 9 l.l.j.0 3 6 p.9 O O a.l.l.l.l.1 O O 9 l.k.l.k.- o d.l.g.O * o y.l.l.l.l.6 O O 6 l.l.0 O * @ & O d.l.j.- & & & & & T.T.T.",
"T.T.T.T.=.0.0.0.0.q.q.H V C S A g $ O a.l.l.6 . O O O * O 4 l.l.p.k.l.9 O O t.l.l.l.l.i.o j.l.a.O & - k.l.p.j.l.0 O O 0 l.l.6 . 6 h.g.g.k.l.l.h.h.j.0 o * T.T.T.",
"T.T.T.T.e.q.@.A.{ D.G.P.S S s s 2 O * h.l.h.@ * * * * * O p.l.h.= j.l.y.O O p.l.g.i.l.k.9 j.l.y.O O t.l.k.= d.l.p.O o y.l.l.3 . 9 l.l.l.l.l.l.l.l.l.t.o * T.T.T.",
"T.T.T.T.n.T.T.T.T.T.T.z.T.    T.v.* $ h.l.h.O * * * * O 3 l.l.i.* g.l.d.O O d.l.a.= k.l.j.k.l.0 . ; k.l.a.* a.l.h.* O a.l.k.- o 6 j.h.j.k.l.l.j.h.k.0 o * T.T.T.",
"T.T.T.T.G.G.T.G.T.I.T.T.T.T.T.T.b.* , s.l.l.9 . o O * O p.l.l.l.l.l.l.j.* * j.l.i.  r.l.l.l.l.9   y.l.l.l.l.l.l.k.; O g.l.g.o o O * * O d.l.k.- * * * & * T.T.T.",
"T.T.T.T.G.G.G.G.T.T.T.I.T.T.T.T.q = O 9 l.l.l.p.r.a.9 ; l.l.k.j.j.k.l.l.3 = j.l.r.O * h.l.l.l.; * k.l.k.h.j.j.l.l.6 & j.l.j.t.y.9 O * O d.l.j.= O * & # * T.T.T.",
"T.T.T.T.G.T.T.T.T.T.T.T.T.T.T.T.v.& * O y.l.l.l.l.l.6 a.l.l.4 * * 3 l.l.0 3 l.l.9 O O 9 l.l.l.@ u.l.l.9 O * ; l.l.r.- l.l.l.l.l.t.o = O f.l.l.- O * & & # T.T.T.",
"T.T.T.T.T.T.T.T.T.T.T.T.T.T.T.T.b.& @ & O 8 p.h.f.i.; y.i.r.O @ & O r.p.7 ; i.i.1 @ & & t.p.r.* y.i.t.@ @ @ @ r.p.0 ; i.i.i.y.i.3 O * O 0 i.y.= * * & & * T.T.T.",
"T.T.T.T.T.T.T.T.T.T.T.T.T.T.T.T.b.= & & * o O @ O O O . . o * @ * & o . O O o o O & & & o . o & o . o * * & & O o O & . o o o o O * O * O o o O & & & & # T.T.T.",
"T.T.T.T.T.T.T.T.T.T.T.T.T.T.I.T.b.* & & * * * & * * * * * * @ * & & * * * * * * * * & & * * * * * * * & & & & * * * * * * * * * * * * * * * * & & & & & * T.T.T.",
"T.T.T.T.T.T.T.T.T.T.T.T.T.T.T.T.v.< O O O o , , O , , , , , , , , , , , , , , , O @ q O , , , , , , , , , , , , , , O q < < < , O o o < , , O O o , , , O T.T.T.",
"T.T.T.T.T.T.T.T.T.T.T.T.T.T.T.T.T.T.T.T.T.T.T.T.T.T.T.T.T.T.T.T.T.T.T.T.T.T.T.T.T.T.T.T.T.T.T.T.T.T.T.T.T.T.T.T.T.T.T.T.T.T.T.T.T.T.T.T.T.T.T.T.T.T.T.T.T.T.T.T.",
"T.T.T.T.T.T.T.T.T.T.T.T.T.T.T.T.T.T.T.T.T.T.T.n.q F.T.T.T.z.n.T.T.T.n.r T.T.T.T.n.v.r T.T.n.r r n.T.r G.T.G.r T.T.T.z.n.T.T.v.n.T.T.z.G.I.z.z.n.T.T.b.q z.T.T.T.",
"T.T.T.T.T.T.T.T.T.T.T.T.T.T.T.T.T.T.T.T.T.T.I.. . e T.T.T.  r T.T.T.    n.T.T.G.  . +   T.w   > n.G.  : T.>   n.T.n.    T.T.  . F.T.  z.q . :   q T.    q T.T.T.",
"T.T.T.T.T.T.T.T.T.T.T.T.T.T.T.T.T.T.T.T.T.T.v.+ > > T.T.T.  r T.T.z.  : w T.T.T.  v.T.  w r   v.T.v.  + n.    v.T.w :   z.T.      T.  z.v.  T.v.  I.  z.F.T.T.T.",
"T.T.T.T.T.T.T.T.T.T.T.T.T.T.T.T.T.T.T.T.T.T.> > z.  G.T.T.  z.T.T.: w z.  T.T.T.  z.T.: > r   + n.r + >   > + r T.  z.w : T.  z.: :   z.e   T.n.  z.    q T.T.T.",
"T.T.T.T.T.T.T.T.T.T.T.T.T.T.T.T.T.T.T.T.T.G.  + +   z.T.T.  r T.G.    :   z.T.T.  r n.  v.r + G.T.: w n.  n.w w v.        G.  z.T.    z.z.  b.X   F.  z.G.T.T.T.",
"T.T.T.T.T.T.T.T.T.T.T.T.T.T.T.T.T.T.T.T.T.r   G.T.> > T.T.      w   G.T.: : T.T.      q T.r     r : r T.+ T.w > > > T.G.  r : r T.n.  z.z.  % E.I.F.      T.T.T.",
"T.T.T.T.T.T.T.T.T.T.T.T.T.T.T.T.T.T.T.T.T.T.T.T.T.T.T.T.T.T.T.T.T.T.T.T.T.T.T.T.T.T.T.T.T.T.T.T.T.T.T.T.T.T.T.T.T.T.T.T.T.T.T.T.T.T.T.T.T.T.T.T.T.T.T.T.T.T.T.T.",
"T.T.T.T.T.T.T.T.T.T.T.T.T.T.T.T.T.T.T.T.T.T.T.T.T.T.T.T.T.T.T.T.T.T.T.T.T.T.T.T.T.T.T.T.T.T.T.T.T.T.T.T.T.T.T.T.T.T.T.T.T.T.T.T.T.T.T.T.T.T.T.T.T.T.T.T.T.T.T.T.",
"T.T.T.T.T.T.T.T.T.T.T.T.T.T.T.T.T.T.T.T.T.T.T.T.T.T.T.T.T.T.T.T.T.T.T.T.T.T.T.T.T.T.T.T.T.T.T.T.T.T.T.T.T.T.T.T.T.T.T.T.T.T.T.T.T.T.T.T.T.T.T.T.T.T.T.T.T.T.T.T.",
"T.T.T.T.T.T.T.T.T.T.T.T.T.T.T.T.T.T.T.T.T.T.T.T.T.T.T.T.T.T.T.T.T.T.T.T.T.T.T.T.T.T.T.T.T.T.T.T.T.T.T.T.T.T.T.T.T.T.T.T.T.T.T.T.T.T.T.T.T.T.T.T.T.T.T.T.T.T.T.T.",
"T.T.T.T.T.T.T.T.T.T.T.T.T.T.T.T.T.T.T.T.T.T.T.T.T.T.T.T.T.T.T.T.T.T.T.T.T.T.T.T.T.T.T.T.T.T.T.T.T.T.T.T.T.T.T.T.T.T.T.T.T.T.T.T.T.T.T.T.T.T.T.T.T.T.T.T.T.T.T.T.",
"T.T.T.T.T.T.T.T.T.T.T.T.T.T.T.T.T.T.T.T.T.T.T.T.T.T.T.T.T.T.T.T.T.T.T.T.T.T.T.T.T.T.T.T.T.T.T.T.T.T.T.T.T.T.T.T.T.T.T.T.T.T.T.T.T.T.T.T.T.T.T.T.T.T.T.T.T.T.T.T.",
"T.T.T.T.T.T.T.T.T.T.T.T.T.T.T.T.T.T.T.T.T.T.T.T.T.T.T.T.T.T.T.T.T.T.T.T.T.T.T.T.T.T.T.T.T.T.T.T.T.T.T.T.T.T.T.T.T.T.T.T.T.T.T.T.T.T.T.T.T.T.T.T.T.T.T.T.T.T.T.T.",
"T.T.T.T.T.T.T.T.T.T.T.T.T.T.T.T.T.T.T.T.T.T.T.T.T.T.T.T.T.T.T.T.T.T.T.T.T.T.T.T.T.T.T.T.T.T.T.T.T.T.T.T.T.T.T.T.T.T.T.T.T.T.T.T.T.T.T.T.T.T.T.T.T.T.T.T.T.T.T.T.",
"T.T.T.T.T.T.T.T.T.T.T.T.T.T.T.T.T.T.T.T.T.T.T.T.T.T.T.T.T.T.T.T.T.T.T.T.T.T.T.T.T.T.T.T.T.T.T.T.T.T.T.T.T.T.T.T.T.T.T.T.T.T.T.T.T.T.T.T.T.T.T.T.T.T.T.T.T.T.T.T.",
"T.T.T.T.T.T.T.T.T.T.T.T.T.T.T.T.T.T.T.T.T.T.T.T.T.T.T.T.T.T.T.T.T.T.T.T.T.T.T.T.T.T.T.T.T.T.T.T.T.T.T.T.T.T.T.T.T.T.T.T.T.T.T.T.T.T.T.T.T.T.T.T.T.T.T.T.T.T.T.T.",
"T.T.T.T.T.T.T.T.T.T.T.T.T.T.T.T.T.T.T.T.T.T.T.T.T.T.T.T.T.T.T.T.T.T.T.T.T.T.T.T.T.T.T.T.T.T.T.T.T.T.T.T.T.T.T.T.T.T.T.T.T.T.T.T.T.T.T.T.T.T.T.T.T.T.T.T.T.T.T.T.",
"T.T.T.T.T.T.T.T.T.T.T.T.T.T.T.T.T.T.T.T.T.T.T.T.T.T.T.T.T.T.T.T.T.T.T.T.T.T.T.T.T.T.T.T.T.T.T.T.T.T.T.T.T.T.T.T.T.T.T.T.T.T.T.T.T.T.T.T.T.T.T.T.T.T.T.T.T.T.T.T.",
"T.T.T.T.T.T.T.T.T.T.T.T.T.T.T.T.T.T.T.T.T.T.T.T.T.T.T.T.T.T.T.T.T.T.T.T.T.T.T.T.T.T.T.T.T.T.T.T.T.T.T.T.T.T.T.T.T.T.T.T.T.T.T.T.T.T.T.T.T.T.T.T.T.T.T.T.T.T.T.T.",
"T.T.T.T.T.T.T.T.T.T.T.T.T.T.T.T.T.T.T.T.T.T.T.T.T.T.T.T.T.T.T.T.T.T.T.T.T.T.T.T.T.T.T.T.T.T.T.T.T.T.T.T.T.T.T.T.T.T.T.T.T.T.T.T.T.T.T.T.T.T.T.T.T.T.T.T.T.T.T.T.",
"T.T.T.T.T.T.T.T.T.T.T.T.T.T.T.T.T.T.T.T.T.T.T.T.T.T.T.T.T.T.T.T.T.T.T.T.T.T.T.T.T.T.T.T.T.T.T.T.T.T.T.T.T.T.T.T.T.T.T.T.T.T.T.T.T.T.T.T.T.T.T.T.T.T.T.T.T.T.T.T.",
"T.T.T.T.T.T.T.T.T.T.T.T.T.T.T.T.T.T.T.T.T.T.T.T.T.T.T.T.T.T.T.T.T.T.T.T.T.T.T.T.T.T.T.T.T.T.T.T.T.T.T.T.T.T.T.T.T.T.T.T.T.T.T.T.T.T.T.T.T.T.T.T.T.T.T.T.T.T.T.T.",
"T.T.T.T.T.T.T.T.T.T.T.T.T.T.T.T.T.T.T.T.T.T.T.T.T.T.T.T.T.T.T.T.T.T.T.T.T.T.T.T.T.T.T.T.T.T.T.T.T.T.T.T.T.T.T.T.T.T.T.T.T.T.T.T.T.T.T.T.T.T.T.T.T.T.T.T.T.T.T.T.",
"T.T.T.T.T.T.T.T.T.T.T.T.T.T.T.T.T.T.T.T.T.T.T.T.T.T.T.T.T.T.T.T.T.T.T.T.T.T.T.T.T.T.T.T.T.T.T.T.T.T.T.T.T.T.T.T.T.T.T.T.T.T.T.T.T.T.T.T.T.T.T.T.T.T.T.T.T.T.T.T.",
"T.T.T.T.T.T.T.T.T.T.T.T.T.T.T.T.T.T.T.T.T.T.T.T.T.T.T.T.T.T.T.T.T.T.T.T.T.T.T.T.T.T.T.T.T.T.T.T.T.T.T.T.T.T.T.T.T.T.T.T.T.T.T.T.T.T.T.T.T.T.T.T.T.T.T.T.T.T.T.T.",
"T.T.T.T.T.T.T.T.T.T.T.T.T.T.T.T.T.T.T.T.T.T.T.T.T.T.T.T.T.T.T.T.T.T.T.T.T.T.T.T.T.T.T.T.T.T.T.T.T.T.T.T.T.T.T.T.T.T.T.T.T.T.T.T.T.T.T.T.T.T.T.T.T.T.T.T.T.T.T.T.",
"T.T.T.T.T.T.T.T.T.T.T.T.T.T.T.T.T.T.T.T.T.T.T.T.T.T.T.T.T.T.T.T.T.T.T.T.T.T.T.T.T.T.T.T.T.T.T.T.T.T.T.T.T.T.T.T.T.T.T.T.T.T.T.T.T.T.T.T.T.T.T.T.T.T.T.T.T.T.T.T.",
"T.T.T.T.T.T.T.T.T.T.T.T.T.T.T.T.T.T.T.T.T.T.T.T.T.T.T.T.T.T.T.T.T.T.T.T.T.T.T.T.T.T.T.T.T.T.T.T.T.T.T.T.T.T.T.T.T.T.T.T.T.T.T.T.T.T.T.T.T.T.T.T.T.T.T.T.T.T.T.T.",
"T.T.T.T.T.T.T.T.T.T.T.T.T.T.T.T.T.T.T.T.T.T.T.T.T.T.T.T.T.T.T.T.T.T.T.T.T.T.T.T.T.T.T.T.T.T.T.T.T.T.T.T.T.T.T.T.T.T.T.T.T.T.T.T.T.T.T.T.T.T.T.T.T.T.T.T.T.T.T.T.",
"T.T.T.T.T.T.T.T.T.T.T.T.T.T.T.T.T.T.T.T.T.T.T.T.T.T.T.T.T.T.T.T.T.T.T.T.T.T.T.T.T.T.T.T.T.T.T.T.T.T.T.T.T.T.T.T.T.T.T.T.T.T.T.T.T.T.T.T.T.T.T.T.T.T.T.T.T.T.T.T."
};
