/* XPM */
static char *xpm_[] = {
/* columns rows colors chars-per-pixel */
"80 80 85 1 ",
"  c #010101",
". c #171717",
"X c #0A2E0A",
"o c #142F0B",
"O c #09310D",
"+ c #1F2323",
"@ c #282828",
"# c #383838",
"$ c #5C0000",
"% c #6F0000",
"& c #7F0000",
"* c #484848",
"= c #555555",
"- c #676867",
"; c #777777",
": c #1E470F",
"> c #000403",
", c #840101",
"< c #A90000",
"1 c #BB0000",
"2 c #CA0000",
"3 c #DA0101",
"4 c #E90909",
"5 c #FD0202",
"6 c #ED1111",
"7 c #FF3534",
"8 c #FF4B4B",
"9 c #FE5E5E",
"0 c #FF6B6A",
"q c #FF706E",
"w c #FF7D7C",
"e c #2C8D0B",
"r c #308F10",
"t c #3C951D",
"y c #3E9721",
"u c #429B23",
"i c #4C9E31",
"p c #55A33B",
"a c #5DA744",
"s c #63AB4B",
"d c #69AE52",
"f c #6EB158",
"g c #72B35C",
"h c #7AB766",
"j c #82BB6E",
"k c #86BD73",
"l c #8DC17B",
"z c #90C37F",
"x c #868786",
"c c #8F908F",
"v c #969696",
"b c #A7A7A7",
"n c #B9B9B9",
"m c #FE8D8D",
"M c #FE9A9A",
"N c #FDACAC",
"B c #FFBAB9",
"V c #98C788",
"C c #9FCB90",
"Z c #A4CE96",
"A c #A9D19C",
"S c #ADD3A1",
"D c #B6D8AB",
"F c #C0C1BF",
"G c #BCDBB2",
"H c #C3DFBA",
"J c #C5E0BD",
"K c #C9C9C9",
"L c #D6D6D6",
"P c #FFC9C8",
"I c #FED9D9",
"U c #CBE3C3",
"Y c #D3E7CD",
"T c #DBEBD5",
"R c #E1EFDC",
"E c #E3F0DF",
"W c #E7E7E7",
"Q c #FFE7E7",
"! c #EAF4E7",
"~ c #F0F7EE",
"^ c #FEFEFD",
"/ c #000000",
"( c #3D951F",
") c #47B024",
"_ c None",
/* pixels */
"________________________________________________________________////////////////",
"________________________________________________________________////////////////",
"________________________________________________________________////////////////",
"________________________________________________________________////////////////",
"________________________________________________________________////////////////",
"________________________________________________________________////////////////",
"________________________________________________________________////////////////",
"________________________________________________________________////////////////",
"________________________________________________________________////////////////",
"________________________________________________________________////////////////",
"________________________________________________________________////////////////",
"________________________________________________________________////////////////",
"________________________________________________________________////////////////",
"________________________________________________________________////////////////",
"________________________________________________________________////////////////",
"________________________________________________________________////////////////",
"________________________________________________________________////////////////",
"________________________________________________________________////////////////",
"________________________________________________________________////////////////",
"________________________________________________________________////////////////",
"________________________________________________________________////////////////",
"________________________________________________________________////////////////",
"________________________________________________________________////////////////",
"________________________________________________________________////////////////",
"________________________________________________________________////////////////",
"________________________________________________________________////////////////",
"___                                                    >________////////////////",
"___   .--@  .*.  @#  @#  .*@  @#   *x.   2434333343334%>________////////////////",
"___  =^^^^. K^n  L^- K~  b^K  K^   x^#   5Im5mI5wQQI95,>________////////////////",
"___ .^W#.= *^~W  W^W WK @^W~. WK =-n^c-@ 4^N5M^5M^9B~8,/________////////////////",
"___ *^-    Ln-^..^n^b~b bL*^# ^b W^^^^^- 6Q^Q^Q5M^55^N,>________////////////////",
"___ *^v   *^Ln^*@^*v^^; ^Wn^=.^; *=b^x=+ 4QP8B^5M^55^N,>________////////////////",
"___ .L!bb*K~nFQ;*~@.^~*v^nF^b*^Kb. x^#   6^N5M^5M^mI^7%>________////////////////",
"___  +K!W*K-  bg=K+ -H#bx  cc*FHn. -K@   4Nw5qB50PPN75,/________////////////////",
"___                                      <111111111112$/________//__////////////",
"___ooooXoo+ooOoooooooooooooooooooooooooooXOXXXXXOOOOOXo:((((((((>>>/////////////",
"___uuuyuuuyuyutuuyyuuuuuuyuuutuuuuuuyuuuuuuuuuuuuuuuuuuuttttuytyyytttyytiiyyt///",
"___ttttuuyutytttyyttttttytttytttttttttttyttttttttttttttttuttutttttttyttyyityt///",
"___tturereertyytytyttyytytttyttyuttytyttytyttytyttytyuytuttyytytytyttyytyyyyy///",
"___yytdVVlVhiryytytyyytytytytyytttytytyttytyytyttytutrttttyytytytytyyttyyyyyy///",
"___yurJ^^^^^~Vruyttyytttytyyytuyutttytyuytytytyytyuyippuuttyuutyytyyyyyttyyty___",
"___tyrD^^~~^^^ZryyutttuytyytyyrtutttyytrtyyytyytuytrS^Wityutryyytyyyttttyytyt___",
"___yurG^^fuV^^^dryruiurtytttrtpirtuttripitruutttrturD^!ituetiirruytruputtyyty___",
"___turG^^sreV^^DruZW~~JpraTTZU~~SuttiG!^~YhrrZ!GhTGl~^~WjeVT^^YdrtiG^^^Crutyt___",
"___tyrG^^sttp^^RrG^^JY^!us^^^^^^^JriR^^^^^^jeU^^^^TZ^^^^Vl^^HU^^deG^~H~hrutyt___",
"___yyrG^^sryp^^Yd^^ZusW^lp^^~hgT^^sV^^JaV^^!tJ^^UkjaY^~lf~^HiiU^Gr!^Raurutyty___",
"___turG^^stej^^Dl^^^^^^^Ja^^leeh^^lG^~preG^^pH^~ieteS^!rs^^^^^^^~rH^^^!hryytt___",
"___yyrG^^sef~^^fj^^Zjlhjss^^Ceek^^lG^^aerU^^iG^RyuurD^~ud^^DjkhjhytlU~^!utyyy___",
"___yyrD^^TT^^^Hrs^^ZeiADda^^^CV~^^pl^^RkD^^TrH^RuturD^!uu~^GruVDkrCfuU^~itytt___",
"___tyrH^^^^^^GytrA^^~^^^aa^^^^^^^SryU^^^^^^feY^!yturH^^irk^^^^^^ha^^^^^Srutyy___",
"___yytlHDDDZfrtyttkY~!Dped^^AZRYVrytyVYRTDprtVHAyyyrkHSuyrhU!!HfriZY!TVytyytt___",
"___tyyrrrrrrryytyyrtuyrtrs^^keutryyttrtutrtytrrryyyytrrtyurruurrttrtutrttytyy___",
"___ytyuyyuyuuytyytuyttuurd^^Vryyutytyuytyuyttuuutyytuyuytyyyytyyyyuttyuyytyty___",
"___tyttyytyyyttytyytytyyrs!~kruttytytytytytyyttttytytytyytyyyyyytytytytttytyy___",
"___ytyyttyyttyytyttyytytyuuuutyytyytyttytyyttyytytytytyttytyyttyyttyyttyytytt___",
"________________________________________________________________________________",
"________________________________________________________________________________",
"________________________________________________________________________________",
"________________________________________________________________________________",
"________________________________________________________________________________",
"________________________________________________________________________________",
"________________________________________________________________________________",
"________________________________________________________________________________",
"________________________________________________________________________________",
"________________________________________________________________________________",
"________________________________________________________________________________",
"________________________________________________________________________________",
"________________________________________________________________________________",
"________________________________________________________________________________",
"________________________________________________________________________________",
"________________________________________________________________________________",
"________________________________________________________________________________",
"________________________________________________________________________________",
"________________________________________________________________________________",
"________________________________________________________________________________",
"________________________________________________________________________________",
"________________________________________________________________________________",
"________________________________________________________________________________",
"________________________________________________________________________________",
"________________________________________________________________________________"
};
