/* XPM */
static char *xpm_[] = {
/* columns rows colors chars-per-pixel */
"80 80 77 1 ",
"  c #010101",
". c #1B0001",
"X c #10110F",
"o c #161616",
"O c #320000",
"+ c #272727",
"@ c #363636",
"# c #4D0000",
"$ c #680000",
"% c #7B0000",
"& c #413D3D",
"* c #206014",
"= c #276014",
"- c #4A4A4A",
"; c #595959",
": c #6C6C6C",
"> c #787878",
", c #830000",
"< c #9D0101",
"1 c #A30000",
"2 c #FD0303",
"3 c #FF1414",
"4 c #FF2525",
"5 c #FE3737",
"6 c #FE4949",
"7 c #FF5555",
"8 c #FF6262",
"9 c #FF7979",
"0 c #2C8D0B",
"q c #308F10",
"w c #3B951D",
"e c #3E9721",
"r c #439926",
"t c #4C9E30",
"y c #41A021",
"u c #4FA033",
"i c #55A33B",
"p c #5CA742",
"a c #63AA4A",
"s c #6AAE52",
"d c #6EB158",
"f c #74B45F",
"g c #7AB766",
"h c #82BB6E",
"j c #85BD73",
"k c #8CC17A",
"l c #90C37F",
"z c #8A8A8A",
"x c #979797",
"c c #A8A8A8",
"v c #B6B6B6",
"b c #FE8686",
"n c #FF9C9C",
"m c #FEA8A8",
"M c #FFB0B0",
"N c #98C788",
"B c #9FCB90",
"V c #A3CD94",
"C c #AAD19C",
"Z c #ADD3A0",
"A c #B4D7A9",
"S c #BDDBB2",
"D c #C3DFBA",
"F c #C7E1BE",
"G c #CACACA",
"H c #DBDBDB",
"J c #FFDCDC",
"K c #CCE3C4",
"L c #D1E6CA",
"P c #DBEBD5",
"I c #E1EFDC",
"U c #E8E8E8",
"Y c #FDECEC",
"T c #EBF4E7",
"R c #F1F7EE",
"E c #FEFEFD",
"W c None",
/* pixels */
"WWWWWWWWWWWWWWWWWWWWWWWWWWWWWWWWWWWWWWWWWWWWWWWWWWWWWWWWWWWWWWWWWWWWWWWWWWWWWWWW",
"WWWWWWWWWWWWWWWWWWWWWWWWWWWWWWWWWWWWWWWWWWWWWWWWWWWWWWWWWWWWWWWWWWWWWWWWWWWWWWWW",
"WWWWWWWWWWWWWWWWWWWWWWWWWWWWWWWWWWWWWWWWWWWWWWWWWWWWWWWWWWWWWWWWWWWWWWWWWWWWWWWW",
"WWWWWWWWWWWWWWWWWWWWWWWWWWWWWWWWWWWWWWWWWWWWWWWWWWWWWWWWWWWWWWWWWWWWWWWWWWWWWWWW",
"WWWWWWWWWWWWWWWWWWWWWWWWWWWWWWWWWWWWWWWWWWWWWWWWWWWWWWWWWWWWWWWWWWWWWWWWWWWWWWWW",
"WWWWWWWWWWWWWWWWWWWWWWWWWWWWWWWWWWWWWWWWWWWWWWWWWWWWWWWWWWWWWWWWWWWWWWWWWWWWWWWW",
"WWWWWWWWWWWWWWWWWWWWWWWWWWWWWWWWWWWWWWWWWWWWWWWWWWWWWWWWWWWWWWWWWWWWWWWWWWWWWWWW",
"WWWWWWWWWWWWWWWWWWWWWWWWWWWWWWWWWWWWWWWWWWWWWWWWWWWWWWWWWWWWWWWWWWWWWWWWWWWWWWWW",
"WWWWWWWWWWWWWWWWWWWWWWWWWWWWWWWWWWWWWWWWWWWWWWWWWWWWWWWWWWWWWWWWWWWWWWWWWWWWWWWW",
"WWWWWWWWWWWWWWWWWWWWWWWWWWWWWWWWWWWWWWWWWWWWWWWWWWWWWWWWWWWWWWWWWWWWWWWWWWWWWWWW",
"WWWWWWWWWWWWWWWWWWWWWWWWWWWWWWWWWWWWWWWWWWWWWWWWWWWWWWWWWWWWWWWWWWWWWWWWWWWWWWWW",
"WWWWWWWWWWWWWWWWWWWWWWWWWWWWWWWWWWWWWWWWWWWWWWWWWWWWWWWWWWWWWWWWWWWWWWWWWWWWWWWW",
"WWWWWWWWWWWWWWWWWWWWWWWWWWWWWWWWWWWWWWWWWWWWWWWWWWWWWWWWWWWWWWWWWWWWWWWWWWWWWWWW",
"WWWWWWWWWWWWWWWWWWWWWWWWWWWWWWWWWWWWWWWWWWWWWWWWWWWWWWWWWWWWWWWWWWWWWWWWWWWWWWWW",
"WWWWWWWWWWWWWWWWWWWWWWWWWWWWWWWWWWWWWWWWWWWWWWWWWWWWWWWWWWWWWWWWWWWWWWWWWWWWWWWW",
"WWWWWWWWWWWWWWWWWWWWWWWWWWWWWWWWWWWWWWWWWWWWWWWWWWWWWWWWWWWWWWWWWWWWWWWWWWWWWWWW",
"WWWWWWWWWWWWWWWWWWWWWWWWWWWWWWWWWWWWWWWWWWWWWWWWWWWWWWWWWWWWWWWWWWWWWWWWWWWWWWWW",
"WWWWWWWWWWWWWWWWWWWWWWWWWWWWWWWWWWWWWWWWWWWWWWWWWWWWWWWWWWWWWWWWWWWWWWWWWWWWWWWW",
"WWWWWWWWWWWWWWWWWWWWWWWWWWWWWWWWWWWWWWWWWWWWWWWWWWWWWWWWWWWWWWWWWWWWWWWWWWWWWWWW",
"WWWWWWWWWWWWWWWWWWWWWWWWWWWWWWWWWWWWWWWWWWWWWWWWWWWWWWWWWWWWWWWWWWWWWWWWWWWWWWWW",
"WWW                                                                          WWW",
"WWW                                                     O,%%%%%%%%%%%%%%%%,# WWW",
"WWW    +xGGc-   :zx@   >x;  oxzo  ozx:   -x>    @HH@    $2342224422334322221 WWW",
"WWW   ;EEEEEE  +EEEz  oEEE@ -EEo  zEERX  xEG    -EE&    $3UE625EY23YEEEYb22< WWW",
"WWW  oEEH;@:z  xEEEv  @EEEv :EG  XUERE@  vEz X+o;EE;X+X $3YE524EY33YEmmEEm21 WWW",
"WWW  zER+     oERzEH  -EREE@>Ev  >EcvE: XHE> >EREEEERE& $3YE969EY23YE527EE5< WWW",
"WWW  xEG      xEx EE@ :EvzEGvEx oUEo>Ex oRE; zEEEEEEEE- $3YEEEEEY33YE622JE81 WWW",
"WWW  xEUX    +REvzRE; xEx REEE> zEUzvEG @EE+ +:;zEEz;:o $3YEb79EY33YE522YE7< WWW",
"WWW  -EEv++- zEEEEEEz cE> >ERE- UEEEEER -ER-@o  @EE@    $3UE524EY32YE62nEY3< WWW",
"WWW   cEEEEU@EEz@@xEG UE;  HEE+>EU---RE@>EEEE:  -EE- X  $3EE625ER33EEEEEE62< WWW",
"WWW    >GUR:-vz   +czXzc+  &vxXzv-   >v@;ccxc+  +cc+    $2nm424Mn22nmmn9422< WWW",
"WWW      XX                                             $222222222222222222< WWW",
"WWW                                                      ................... WWW",
"WWW====*====*=========================================*==**=*****=*****=****=WWW",
"WWWyrwryyywyyyrerweyyyryyyryryyyyryyyyryyyyrryeyeryyyyyyreyyeeyyryyyyyyryryyyWWW",
"WWWwwwwwwwrwwwwwwwewwwwewwwwwweweewwwwwwwwwwwwwwwwwwwewwwwwwerwwwwwwwwewwwwwwWWW",
"WWWywwrwrrwrrrrrrwwwewerweeeewewweewwwererweewewwwweweweewewweewwerrewewwwwewWWW",
"WWWwwwwwqqqqqqqqqrweweeqtqwwewweeewewewqqqqrweweeeewewewweweewweewqqqwwwweeweWWW",
"WWWewrruhhdfhgghiwrwwe0hRjwwewwwerreeergggiwewewweweweweewewewewewaggdrweewewWWW",
"WWWewrqhTTTTRRRRV0rwrqkEERiweewwq00qrqaEEEV0reweewewewewwewewewewwLEERrweweweWWW",
"WWWwweqfRRRRRRRRVqrwqsRRKpwewwwejNkgwqaEREV0rewwwwwwrwwrewwwwweeewKEETrwrweweWWW",
"WWWwerqfRRRRRRRRVqrrreVVqwrwerwtREEKqwaEEEVqrrrewrwwwwwryerwrwewwqKEETrwwewewWWW",
"WWWrweqgRRRKppipywqqq0wqwwqqqwwwTEEF00aEEEV0qqqqwrwrwwrqqqq0qwrwewKEETrwweeweWWW",
"WWWwwrqfRRRK0000weshggrrwigggirhREELgsaERENrVAZjrqwwrwrdNDDDkuqeewKEETrwewwewWWW",
"WWWwweqfRRRUhNkNuqURRRurqhEEEgiEEEEEELaEEELTEEEELarrrrZTTTTTTTBrwwKEETrwewewwWWW",
"WWWeerqfRRRRRRRRiwKRRUrrqhEEEgpEEEEEEPaEEEEEEEERTUtwrKTTTTTTTTTNqwKEETrwweweeWWW",
"WWWwwrwfRRRRRRRRiqLRRTrwqgEEEhtKREETKVaEEEEINZEETTV0NTTTTGNKTTTTpqLEETrwrwewwWWW",
"WWWwwwqfRRRRRRTTiqLRRUrwqgEEEh0eTEEF0qaEEEPrq0gETTPqLTTTNqqwKTTTV0LEETrwweweeWWW",
"WWWewrqfEEEFwurtrwKEETrwqgEEEhqtREEFwwaEEEk0rwwPTTTpITTTprrwdTTTS0KEETrweewewWWW",
"WWWwwwqgEEEFqwwwwqKEETerwgEEEhqtTEEKqwaEEEV0rwwTTTUiITTTpqrqhTTTA0LEETrweweweWWW",
"WWWewrqfEEEFwwwwewLEEEp00VEEEh0tREEKwqaEEEEdwwCETTLqKTTTKuraTTTTl0LEETrwewwewWWW",
"WWWwwrqfEEEFqrwweqAEEETAFEEEEaqtTEEFqwaEEEEEPTEETTkqhTTTTTLTTTTTrwKEETrweeeweWWW",
"WWWwerqgEEEKqrwwewpEEEEEEEEEFwwtREEKqwaEEEEEEEEETKqrqNTTTTTTTTThwqLEERywweeweWWW",
"WWWeweqfRTESqrwwwrqsPEEEEEEAwwwrIRESwwpRTEVAEEERBrwrrqhLTTTTTKpwewDRRPrwewwewWWW",
"WWWwwewrtrrrwwwrewrqwaglkguqwewerrrrwewrtrwwigduqrwwwrqqskhduqqrwerrtrrweweweWWW",
"WWWewewwwwwwrwwwwwwewwqq0qwwwwwewwwwwewwwwwwwqqwrrwwwwrwwqqqwwrrwewwwwwewewewWWW",
"WWWewwrwwerwwwewweweerrrerrwewewrweeweweeewerwrwwewewewerrrwwwwweweeewewewwewWWW",
"WWWwrwwwwwwwweweewewwwwewwweweweweweewweweeweweweweweweewwwrwrwrweweweweweeweWWW",
"WWWwwwwwrwwwweewwewewwewweewewewewewewewewwewewewewewewwwrwwwwwwewewewewewwewWWW",
"WWWrwwrwwwrweweeewewweweewweweweweweweweewewewewewewewwrwwwwwwrwweweweweweeweWWW",
"WWWWWWWWWWWWWWWWWWWWWWWWWWWWWWWWWWWWWWWWWWWWWWWWWWWWWWWWWWWWWWWWWWWWWWWWWWWWWWWW",
"WWWWWWWWWWWWWWWWWWWWWWWWWWWWWWWWWWWWWWWWWWWWWWWWWWWWWWWWWWWWWWWWWWWWWWWWWWWWWWWW",
"WWWWWWWWWWWWWWWWWWWWWWWWWWWWWWWWWWWWWWWWWWWWWWWWWWWWWWWWWWWWWWWWWWWWWWWWWWWWWWWW",
"WWWWWWWWWWWWWWWWWWWWWWWWWWWWWWWWWWWWWWWWWWWWWWWWWWWWWWWWWWWWWWWWWWWWWWWWWWWWWWWW",
"WWWWWWWWWWWWWWWWWWWWWWWWWWWWWWWWWWWWWWWWWWWWWWWWWWWWWWWWWWWWWWWWWWWWWWWWWWWWWWWW",
"WWWWWWWWWWWWWWWWWWWWWWWWWWWWWWWWWWWWWWWWWWWWWWWWWWWWWWWWWWWWWWWWWWWWWWWWWWWWWWWW",
"WWWWWWWWWWWWWWWWWWWWWWWWWWWWWWWWWWWWWWWWWWWWWWWWWWWWWWWWWWWWWWWWWWWWWWWWWWWWWWWW",
"WWWWWWWWWWWWWWWWWWWWWWWWWWWWWWWWWWWWWWWWWWWWWWWWWWWWWWWWWWWWWWWWWWWWWWWWWWWWWWWW",
"WWWWWWWWWWWWWWWWWWWWWWWWWWWWWWWWWWWWWWWWWWWWWWWWWWWWWWWWWWWWWWWWWWWWWWWWWWWWWWWW",
"WWWWWWWWWWWWWWWWWWWWWWWWWWWWWWWWWWWWWWWWWWWWWWWWWWWWWWWWWWWWWWWWWWWWWWWWWWWWWWWW",
"WWWWWWWWWWWWWWWWWWWWWWWWWWWWWWWWWWWWWWWWWWWWWWWWWWWWWWWWWWWWWWWWWWWWWWWWWWWWWWWW",
"WWWWWWWWWWWWWWWWWWWWWWWWWWWWWWWWWWWWWWWWWWWWWWWWWWWWWWWWWWWWWWWWWWWWWWWWWWWWWWWW",
"WWWWWWWWWWWWWWWWWWWWWWWWWWWWWWWWWWWWWWWWWWWWWWWWWWWWWWWWWWWWWWWWWWWWWWWWWWWWWWWW",
"WWWWWWWWWWWWWWWWWWWWWWWWWWWWWWWWWWWWWWWWWWWWWWWWWWWWWWWWWWWWWWWWWWWWWWWWWWWWWWWW",
"WWWWWWWWWWWWWWWWWWWWWWWWWWWWWWWWWWWWWWWWWWWWWWWWWWWWWWWWWWWWWWWWWWWWWWWWWWWWWWWW",
"WWWWWWWWWWWWWWWWWWWWWWWWWWWWWWWWWWWWWWWWWWWWWWWWWWWWWWWWWWWWWWWWWWWWWWWWWWWWWWWW",
"WWWWWWWWWWWWWWWWWWWWWWWWWWWWWWWWWWWWWWWWWWWWWWWWWWWWWWWWWWWWWWWWWWWWWWWWWWWWWWWW",
"WWWWWWWWWWWWWWWWWWWWWWWWWWWWWWWWWWWWWWWWWWWWWWWWWWWWWWWWWWWWWWWWWWWWWWWWWWWWWWWW",
"WWWWWWWWWWWWWWWWWWWWWWWWWWWWWWWWWWWWWWWWWWWWWWWWWWWWWWWWWWWWWWWWWWWWWWWWWWWWWWWW",
"WWWWWWWWWWWWWWWWWWWWWWWWWWWWWWWWWWWWWWWWWWWWWWWWWWWWWWWWWWWWWWWWWWWWWWWWWWWWWWWW"
};
