/* XPM */
static char *xpm_[] = {
/* columns rows colors chars-per-pixel */
"80 80 60 1 ",
"  c #010101",
". c #181818",
"X c #292929",
"o c #373837",
"O c #010101",
"+ c #1D480F",
"@ c #1F4A11",
"# c #215111",
"$ c #214C13",
"% c #454645",
"& c #575857",
"* c #60615F",
"= c #696A69",
"- c #777777",
"; c #1B8300",
": c #2B8C0B",
"> c #308F10",
", c #3B951D",
"< c #3E9721",
"1 c #439926",
"2 c #4C9E30",
"3 c #42A121",
"4 c #4FA034",
"5 c #54A23A",
"6 c #5CA743",
"7 c #63AA4B",
"8 c #6AAE53",
"9 c #6EB158",
"0 c #72B35C",
"q c #7AB765",
"w c #81BB6D",
"e c #86BE73",
"r c #8EC27C",
"t c #90C37F",
"y c #888988",
"u c #969696",
"i c #A9AAA9",
"p c #B6B6B6",
"a c #97C687",
"s c #9FCB90",
"d c #A3CD95",
"f c #AAD19D",
"g c #AED3A2",
"h c #B4D7A9",
"j c #BEDCB3",
"k c #C1DEB8",
"l c #C7E1BE",
"z c #CBCBCB",
"x c #D6D6D6",
"c c #CDE4C5",
"v c #D2E7CC",
"b c #DBEBD5",
"n c #E1EFDD",
"m c #E3F0DE",
"M c #E9E9E9",
"N c #EAF3E6",
"B c #F0F7ED",
"V c #FEFEFD",
"C c #3D961F",
"Z c None",
/* pixels */
"ZZZZZZZZZZZZZZZZZZZZZZZZZZZZZZZZZZZZZZZZZZZZZZZZZZZZZZZZZZZZZZZZZZZZZZZZZZZZZZZZ",
"ZZZZZZZZZZZZZZZZZZZZZZZZZZZZZZZZZZZZZZZZZZZZZZZZZZZZZZZZZZZZZZZZZZZZZZZZZZZZZZZZ",
"ZZZZZZZZZZZZZZZZZZZZZZZZZZZZZZZZZZZZZZZZZZZZZZZZZZZZZZZZZZZZZZZZZZZZZZZZZZZZZZZZ",
"ZZZZZZZZZZZZZZZZZZZZZZZZZZZZZZZZZZZZZZZZZZZZZZZZZZZZZZZZZZZZZZZZZZZZZZZZZZZZZZZZ",
"ZZZZZZZZZZZZZZZZZZZZZZZZZZZZZZZZZZZZZZZZZZZZZZZZZZZZZZZZZZZZZZZZZZZZZZZZZZZZZZZZ",
"ZZZZZZZZZZZZZZZZZZZZZZZZZZZZZZZZZZZZZZZZZZZZZZZZZZZZZZZZZZZZZZZZZZZZZZZZZZZZZZZZ",
"ZZZZZZZZZZZZZZZZZZZZZZZZZZZZZZZZZZZZZZZZZZZZZZZZZZZZZZZZZZZZZZZZZZZZZZZZZZZZZZZZ",
"ZZZZZZZZZZZZZZZZZZZZZZZZZZZZZZZZZZZZZZZZZZZZZZZZZZZZZZZZZZZZZZZZZZZZZZZZZZZZZZZZ",
"ZZZZZZZZZZZZZZZZZZZZZZZZZZZZZZZZZZZZZZZZZZZZZZZZZZZZZZZZZZZZZZZZZZZZZZZZZZZZZZZZ",
"ZZZZZZZZZZZZZZZZZZZZZZZZZZZZZZZZZZZZZZZZZZZZZZZZZZZZZZZZZZZZZZZZZZZZZZZZZZZZZZZZ",
"ZZZZZZZZZZZZZZZZZZZZZZZZZZZZZZZZZZZZZZZZZZZZZZZZZZZZZZZZZZZZZZZZZZZZZZZZZZZZZZZZ",
"ZZZZZZZZZZZZZZZZZZZZZZZZZZZZZZZZZZZZZZZZZZZZZZZZZZZZZZZZZZZZZZZZZZZZZZZZZZZZZZZZ",
"ZZZZZZZZZZZZZZZZZZZZZZZZZZZZZZZZZZZZZZZZZZZZZZZZZZZZZZZZZZZZZZZZZZZZZZZZZZZZZZZZ",
"ZZZZZZZZZZZZZZZZZZZZZZZZZZZZZZZZZZZZZZZZZZZZZZZZZZZZZZZZZZZZZZZZZZZZZZZZZZZZZZZZ",
"ZZZZZZZZZZZZZZZZZZZZZZZZZZZZZZZZZZZZZZZZZZZZZZZZZZZZZZZZZZZZZZZZZZZZZZZZZZZZZZZZ",
"ZZZZZZZZZZZZZZZZZZZZZZZZZZZZZZZZZZZZZZZZZZZZZZZZZZZZZZZZZZZZZZZZZZZZZZZZZZZZZZZZ",
"ZZZZZZZZZZZZZZZZZZZZZZZZZZZZZZZZZZZZZZZZZZZZZZZZZZZZZZZZZZZZZZZZZZZZZZZZZZZZZZZZ",
"ZZZZZZZZZZZZZZZZZZZZZZZZZZZZZZZZZZZZZZZZZZZZZZZZZZZZZZZZZZZZZZZZZZZZZZZZZZZZZZZZ",
"ZZZZZZZZZZZZZZZZZZZZZZZZZZZZZZZZZZZZZZZZZZZZZZZZZZZZZZZZZZZZZZZZZZZZZZZZZZZZZZZZ",
"ZZZZZZZZZZZZZZZZZZZZZZZZZZZZZZZZZZZZZZZZZZZZZZZZZZZZZZZZZZZZZZZZZZZZZZZZZZZZZZZZ",
"ZZZZZZZZZZZZZZZZZZZZZZZZZZZZZZZZZZZZZZZZZZZZZZZZZZZZZZZZZZZZZZZZZZZZZZZZZZZZZZZZ",
"ZZZZZZZZZZZZZZZZZZZZZZZZZZZZZZZZZZZZZZZZZZZZZZZZZZZZZZZZZZZZZZZZZZZZZZZZZZZZZZZZ",
"ZZZ                                       ZZZZZZZZZZZZZZZZZZZZZZZZZZZZZZZZZZZZZZ",
"ZZZ   .=-o  .%X  X%. .o.  oo  .%.  Xy%    ZZZZZZZZZZZZZZZZZZZZZZZZZZZZZZZZZZZZZZ",
"ZZZ  &VVVVX pVx  pVi iVX -VV. -Vo  XVu    ZZZZZZZZZZZZZZZZZZZZZZZZZZZZZZZZZZZZZZ",
"ZZZ .VMo.% oVMV. xVVoiV  MMV& iV.oyuVzy&  ZZZZZZZZZZZZZZZZZZZZZZZZZZZZZZZZZZZZZZ",
"ZZZ %V-    zz%V% VzBxMx -VoVy xM yVVVVVz  ZZZZZZZZZZZZZZZZZZZZZZZZZZZZZZZZZZZZZZ",
"ZZZ oVp   oVBzV-.V-=VVp MVzVp Mz X%-Vioo..ZZZZZZZZZZZZZZZZZZZZZZZZZZZZZZZZZZZZZZ",
"ZZZ  pVzx&zVuuVpoV= xVy=ViuMBXVVn% oVy   ZZZZZZZZZZZZZZZZOZZZZZZZZZZZOZZZZZZZZZZ",
"ZZZ  .yxx%u*  =-oiX %i%-y  %uouuio Xi&  . ZZOOOZ ZZZZZ ZOOOZZZZZZZ ZOOOOZZZZZZZZ",
"ZZZ                                     $.ZZOZZZZZZZZZZZOZZZZOZZZZZZZZZZZOZZZZZZ",
"ZZZ+++$$++$$$+$$+$+++$++$+++$+$$@++@$$@@,,$+Z+Z.:Z+>CCC+Z.Z .CZ.Z.:CCCZ .CZ.CZZZ",
"ZZZ333>,3333>,333133313333313333331<3<>313,,,,,<,<,<<,<<<,,,,1,,,<,<,<<<,<<<<ZZZ",
"ZZZ,,,re5>,2t5,1,,,,,,,,,,,,,,,,<<,<>7a7,,,,,,<,<,,,,<,,,,1,,,,,<,<,,,,,,,,,,ZZZ",
"ZZZ<,3VVq>:dVv>1<<,11,<1<<1<1,,1<<<1>dBj>1<111<<,<,,<,<,,1,,,1,1,,,,<<,<,,,,,ZZZ",
"ZZZ<,1NVq>,7cr>,>>>>>,1>>>>>>,,,<,:,:aVg>,>>:><,<<<<,<,<,,,,,,,,,1,,<,<,,,1,<ZZZ",
"ZZZ<,2NVq>,7hw>4fvaah7>qvvafg2,,,1dcdgVg:5gbc0>1,<<,<<<,,1,1,,,,,<,1,<<,1,<,<ZZZ",
"ZZZ<,1BVq>>aVk,NVVVVVq9VVVVVV5,,>cVVVVVg2BVgvVq><<,<<,<,<,,,,11,<,<,<,<<,,,<,ZZZ",
"ZZZ<,1BVq>>aVfeVm56NVqlVh<rVB4,,8VBq2cVdaVbtgVN><,<,,<,<<<,,,,,,,<,<,<<,1,<,<ZZZ",
"ZZZ,,2NV8::rVgsVj;:jVqvVq;1VV4,>qVn>;aVdfVmvcjg1,<,<<,<,<,,1,,1,,,1,<,,<,<,<,ZZZ",
"ZZZ<,2NVchdaVgqVBaaVV0hVbqlVB5,>6VVdwNVdwVk>6dw,1<,<<,<,,<<,<,<,,,1,<,3,<,<,,ZZZ",
"ZZZ<,1VVVVVdVk>lVVVBVq2BVVVVV5,1>aVVVVVj>vVVVVe>,,<,,<,<<,,<,<<<,,,,,<,,,<,<<ZZZ",
"ZZZ,,190q095q7,<qq1cVq:4tt5901,,1>8a05q6><qda5>1,<,<<<<,,<,,,<,<,1,<1,,,<,,<,ZZZ",
"ZZZ<<<>>>>>,>>qVbqaVV5,,:>,>>,<<<1>>>,>,1,>>:,<<<,<,<,,<<,<<<,<,<,<,,,1,,<<,<ZZZ",
"ZZZ<,<<11<,,1<,gVVVVr>1<11,11,<,,<11,<1<<<11<<<,,<,1,<,<,<,<,<<,<,<<<,<,<<,<<ZZZ",
"ZZZ,<,,,>151,<,>5q04><,,,,,,,<,<,<,,,,,,<,,,,,,<<,,,<,<,<,<,<,,<,,<,,<,,<,<,,ZZZ",
"ZZZ<,<,<dNBVs><1,>>,<,1,,,,,<1<,<1<,1<,,,,11<,,,,<1,,<,,<<<<<<<<,<<,<,,11,,<<ZZZ",
"ZZZ,<,<vVVVVb>1,>,,,,,,,,,,1,>,1,>,,>,1,1,>>,1,<,>>,<<,,,,,><,<,,>,<,1,>>,<,,ZZZ",
"ZZZ,<>dVVf7wa,>7q246125,27<>271>451592><><791,1,,707,>152,75>1>1792>1>5095,,<ZZZ",
"ZZZ<,,bVh:>>>1jVVBBV7jVvVVcaVVv,jVbVVBq:8NVVVq:5bVVVv17VNbVVd>7mVVVw:9BVVg><,ZZZ",
"ZZZ<,2BVw>12>rVVdkVV8lVbdBVmdVV9gVVfcVB2NVr6NV4cVbsNVk6VVhhVV2bVt6NV2lVd72,,<ZZZ",
"ZZZ,<,bVh:>>>kVd:,bV7kVw;vVq;vV0gVr;1BVaBVBBBVaBV7;8VNqVN>1VB0VVBBBVqsVVbq,<,ZZZ",
"ZZZ,1>sVVh9ragVk,5NV7kVq>cVq>cV9gVg>7BVeVBq7qq8BVw>rVN9Vm12BB9VV070q5<qgVB1,,ZZZ",
"ZZZ<,,1cVVVVc7VVNVVV8lVr:vVe:bV9gVVNVVb,vVgaNM1gVVbVVs6VB,2VV5jVjaBN4vjgVN<,<ZZZ",
"ZZZ,,1,,abBBs:wmBjjb6dM9>fm9>fm7hVkbBk5>2jVVnq><dNBNa>6bj,2cv21hBVNq1jBVv7,1,ZZZ",
"ZZZ<<,,,><21>1><2>>,,,>,,,><,,,>jVe:2>,<,>11,>1,>12<><<,,,<>,<,>11,>,>11,><,<ZZZ",
"ZZZ<<,,<1,,,<,<<,<<<,<<,<<<,<<1>jVa><<<<<<,,,<,<<,,,<<,<,,,<<<<<,>1<<<,,<<,<,ZZZ",
"ZZZ<<<,<,<<<,<,<<<,<<,<<,,<<<<<>sNq>1,<,<<,<<<,<<,<<<,<<,<<<<,,<<<<<<,<<<,<<<ZZZ",
"ZZZ,,,<,,<,,,,,<<,,<,,<,,,,<,,,<,><<,<,,,,<,,,,<<,<,,,<,,<,,,,,<,<,<,,<,,,,,,ZZZ",
"ZZZZZZZZZZZZZZZZZZZZZZZZZZZZZZZZZZZZZZZZZZZZZZZZZZZZZZZZZZZZZZZZZZZZZZZZZZZZZZZZ",
"ZZZZZZZZZZZZZZZZZZZZZZZZZZZZZZZZZZZZZZZZZZZZZZZZZZZZZZZZZZZZZZZZZZZZZZZZZZZZZZZZ",
"ZZZZZZZZZZZZZZZZZZZZZZZZZZZZZZZZZZZZZZZZZZZZZZZZZZZZZZZZZZZZZZZZZZZZZZZZZZZZZZZZ",
"ZZZZZZZZZZZZZZZZZZZZZZZZZZZZZZZZZZZZZZZZZZZZZZZZZZZZZZZZZZZZZZZZZZZZZZZZZZZZZZZZ",
"ZZZZZZZZZZZZZZZZZZZZZZZZZZZZZZZZZZZZZZZZZZZZZZZZZZZZZZZZZZZZZZZZZZZZZZZZZZZZZZZZ",
"ZZZZZZZZZZZZZZZZZZZZZZZZZZZZZZZZZZZZZZZZZZZZZZZZZZZZZZZZZZZZZZZZZZZZZZZZZZZZZZZZ",
"ZZZZZZZZZZZZZZZZZZZZZZZZZZZZZZZZZZZZZZZZZZZZZZZZZZZZZZZZZZZZZZZZZZZZZZZZZZZZZZZZ",
"ZZZZZZZZZZZZZZZZZZZZZZZZZZZZZZZZZZZZZZZZZZZZZZZZZZZZZZZZZZZZZZZZZZZZZZZZZZZZZZZZ",
"ZZZZZZZZZZZZZZZZZZZZZZZZZZZZZZZZZZZZZZZZZZZZZZZZZZZZZZZZZZZZZZZZZZZZZZZZZZZZZZZZ",
"ZZZZZZZZZZZZZZZZZZZZZZZZZZZZZZZZZZZZZZZZZZZZZZZZZZZZZZZZZZZZZZZZZZZZZZZZZZZZZZZZ",
"ZZZZZZZZZZZZZZZZZZZZZZZZZZZZZZZZZZZZZZZZZZZZZZZZZZZZZZZZZZZZZZZZZZZZZZZZZZZZZZZZ",
"ZZZZZZZZZZZZZZZZZZZZZZZZZZZZZZZZZZZZZZZZZZZZZZZZZZZZZZZZZZZZZZZZZZZZZZZZZZZZZZZZ",
"ZZZZZZZZZZZZZZZZZZZZZZZZZZZZZZZZZZZZZZZZZZZZZZZZZZZZZZZZZZZZZZZZZZZZZZZZZZZZZZZZ",
"ZZZZZZZZZZZZZZZZZZZZZZZZZZZZZZZZZZZZZZZZZZZZZZZZZZZZZZZZZZZZZZZZZZZZZZZZZZZZZZZZ",
"ZZZZZZZZZZZZZZZZZZZZZZZZZZZZZZZZZZZZZZZZZZZZZZZZZZZZZZZZZZZZZZZZZZZZZZZZZZZZZZZZ",
"ZZZZZZZZZZZZZZZZZZZZZZZZZZZZZZZZZZZZZZZZZZZZZZZZZZZZZZZZZZZZZZZZZZZZZZZZZZZZZZZZ",
"ZZZZZZZZZZZZZZZZZZZZZZZZZZZZZZZZZZZZZZZZZZZZZZZZZZZZZZZZZZZZZZZZZZZZZZZZZZZZZZZZ",
"ZZZZZZZZZZZZZZZZZZZZZZZZZZZZZZZZZZZZZZZZZZZZZZZZZZZZZZZZZZZZZZZZZZZZZZZZZZZZZZZZ",
"ZZZZZZZZZZZZZZZZZZZZZZZZZZZZZZZZZZZZZZZZZZZZZZZZZZZZZZZZZZZZZZZZZZZZZZZZZZZZZZZZ",
"ZZZZZZZZZZZZZZZZZZZZZZZZZZZZZZZZZZZZZZZZZZZZZZZZZZZZZZZZZZZZZZZZZZZZZZZZZZZZZZZZ",
"ZZZZZZZZZZZZZZZZZZZZZZZZZZZZZZZZZZZZZZZZZZZZZZZZZZZZZZZZZZZZZZZZZZZZZZZZZZZZZZZZ"
};
