/* XPM */
static char *xpm_[] = {
/* columns rows colors chars-per-pixel */
"80 80 121 2 ",
"   c #000108",
".  c #070B14",
"X  c #0D121B",
"o  c #11151E",
"O  c #161A23",
"+  c #1D212A",
"@  c #24252D",
"#  c #272B33",
"$  c #2D3139",
"%  c #32353D",
"&  c #1D1F27",
"*  c #3B3C44",
"=  c #4A3F43",
"-  c #3D4048",
";  c #4D4347",
":  c #52474B",
">  c #494C53",
",  c #5C5054",
"<  c #4F5259",
"1  c #55555C",
"2  c #65595E",
"3  c #5A5D63",
"4  c #6C5F64",
"5  c #776A70",
"6  c #5E6167",
"7  c #68666B",
"8  c #776A70",
"9  c #6A6D72",
"0  c #796C72",
"q  c #6E7176",
"w  c #73767B",
"e  c #7A6D73",
"r  c #7B6E74",
"t  c #796C72",
"y  c #786B71",
"u  c #7B6E74",
"i  c #7A6D73",
"p  c #85767D",
"a  c #7F7278",
"s  c #91828A",
"d  c #93848B",
"f  c #151922",
"g  c #131821",
"h  c #302F38",
"j  c #786B71",
"k  c #7B6E74",
"l  c #786B71",
"z  c #7A6D73",
"x  c #76696F",
"c  c #796D72",
"v  c #7B6E74",
"b  c #7B6E74",
"n  c #7A6D73",
"m  c #998991",
"M  c #96868E",
"N  c #796C72",
"B  c #9E8D96",
"V  c #87787F",
"C  c #908188",
"Z  c #7A7C81",
"A  c #8E7F86",
"S  c #7D8085",
"D  c #89848A",
"F  c #96868E",
"G  c #8C8E92",
"H  c #9D8B94",
"J  c #8F9195",
"K  c #95979B",
"L  c #A18E98",
"P  c #A5949D",
"I  c #9B9DA1",
"U  c #AB99A2",
"Y  c #9FA1A5",
"T  c #A6A7AA",
"R  c #B4A5AD",
"E  c #ADAEB1",
"W  c #B9ACB3",
"Q  c #AFB0B3",
"!  c #B9B5B9",
"~  c #C2B6BD",
"^  c #BEBFC2",
"/  c #C7BCC2",
"(  c #CAC4C8",
")  c #D1C8CD",
"_  c #CDCED0",
"`  c #D5CDD1",
"'  c #DAD7DA",
"]  c #E1DBDE",
"[  c #DFDFE0",
"{  c #E4DFE1",
"}  c #E9E7E8",
"|  c #F0EDEF",
" . c #EFEFF0",
".. c #F1EFF0",
"X. c #EFF0F0",
"o. c #FDFDFD",
"O. c #151922",
"+. c #42383C",
"@. c #0E131C",
"#. c #473C40",
"$. c #483D41",
"%. c #4F4449",
"&. c #4E4347",
"*. c #52474B",
"=. c #6E6167",
"-. c #73676C",
";. c #807279",
":. c #7A6D73",
">. c #7D6F76",
",. c #594D52",
"<. c #7D7076",
"1. c #786B71",
"2. c #948388",
"3. c #9E8E96",
"4. c #A5949D",
"5. c #4F4448",
"6. c #766A6F",
"7. c #594E52",
"8. c #7A6D73",
"9. c #75696F",
"0. c None",
/* pixels */
"0.0.0.0.0.0.0.0.0.0.0.0.0.0.0.0.0.0.0.0.0.0.0.0.0.0.0.0.0.0.0.0.0.0.0.0.0.0.0.0.0.0.0.0.0.0.0.0.0.0.0.0.0.0.0.0.0.0.0.0.0.0.0.0.0.0.0.0.0.0.0.0.0.0.0.0.0.0.0.0.",
"0.0.0.0.0.0.0.0.0.0.0.0.0.0.0.0.0.0.0.0.0.0.0.0.0.0.0.0.0.0.0.0.0.0.0.0.0.0.0.0.0.0.0.0.0.0.0.0.0.0.0.0.0.0.0.0.0.0.0.0.0.0.0.0.0.0.0.0.0.0.0.0.0.0.0.0.0.0.0.0.",
"0.0.0.0.0.0.0.0.0.0.0.0.0.0.0.0.0.0.0.0.0.0.0.0.0.0.0.0.0.0.0.0.0.0.0.0.0.0.0.0.0.0.0.0.0.0.0.0.0.0.0.0.0.0.0.0.0.0.0.0.0.0.0.0.0.0.0.0.0.0.0.0.0.0.0.0.0.0.0.0.",
"0.0.0.0.0.0.0.0.0.0.0.0.0.0.0.0.0.0.0.0.0.0.0.0.0.0.0.0.0.0.0.0.0.0.0.0.0.0.0.0.0.0.0.0.0.0.0.0.0.0.0.0.0.0.0.0.0.0.0.0.0.0.0.0.0.0.0.0.0.0.0.0.0.0.0.0.0.0.0.0.",
"0.0.0.0.0.0.0.0.0.0.0.0.0.0.0.0.0.0.0.0.0.0.0.0.0.0.0.0.0.0.0.0.0.0.0.0.0.0.0.0.0.0.0.0.0.0.0.0.0.0.0.0.0.0.0.0.0.0.0.0.0.0.0.0.0.0.0.0.0.0.0.0.0.0.0.0.0.0.0.0.",
"0.0.0.0.0.0.0.0.0.0.0.0.0.0.0.0.0.0.0.0.0.0.0.0.0.0.0.0.0.0.0.0.0.0.0.0.0.0.0.0.0.0.0.0.0.0.0.0.0.0.0.0.0.0.0.0.0.0.0.0.0.0.0.0.0.0.0.0.0.0.0.0.0.0.0.0.0.0.0.0.",
"0.0.0.0.0.0.0.0.0.0.0.0.0.0.0.0.0.0.0.0.0.0.0.0.0.0.0.0.0.0.0.0.0.0.0.0.0.0.0.0.0.0.0.0.0.0.0.0.0.0.0.0.0.0.0.0.0.0.0.0.0.0.0.0.0.0.0.0.0.0.0.0.0.0.0.0.0.0.0.0.",
"0.0.0.0.0.0.0.0.0.0.0.0.0.0.0.0.0.0.0.0.0.0.0.0.0.0.0.0.0.0.0.0.0.0.0.0.0.0.0.0.0.0.0.0.0.0.0.0.0.0.0.0.0.0.0.0.0.0.0.0.0.0.0.0.0.0.0.0.0.0.0.0.0.0.0.0.0.0.0.0.",
"0.0.0.0.0.0.0.0.0.0.0.0.0.0.0.0.0.0.0.0.0.0.0.0.0.0.0.0.0.0.0.0.0.0.0.0.0.0.0.0.0.0.0.0.0.0.0.0.0.0.0.0.0.0.0.0.0.0.0.0.0.0.0.0.0.0.0.0.0.0.0.0.0.0.0.0.0.0.0.0.",
"0.0.0.0.0.0.0.0.0.0.0.0.0.0.0.0.0.0.0.0.0.0.0.0.0.0.0.0.0.0.0.0.0.0.0.0.0.0.0.0.0.0.0.0.0.0.0.0.0.0.0.0.0.0.0.0.0.0.0.0.0.0.0.0.0.0.0.0.0.0.0.0.0.0.0.0.0.0.0.0.",
"0.0.0.0.0.0.0.0.0.0.0.0.0.0.0.0.0.0.0.0.0.0.0.0.0.0.0.0.0.0.0.0.0.0.0.0.0.0.0.0.0.0.0.0.0.0.0.0.0.0.0.0.0.0.0.0.0.0.0.0.0.0.0.0.0.0.0.0.0.0.0.0.0.0.0.0.0.0.0.0.",
"0.0.0.0.0.0.0.0.0.0.0.0.0.0.0.0.0.0.0.0.0.0.0.0.0.0.0.0.0.0.0.0.0.0.0.0.0.0.0.0.0.0.0.0.0.0.0.0.0.0.0.0.0.0.0.0.0.0.0.0.0.0.0.0.0.0.0.0.0.0.0.0.0.0.0.0.0.0.0.0.",
"0.0.0.0.0.0.0.0.0.0.0.0.0.0.0.0.0.0.0.0.0.0.0.0.0.0.0.0.0.0.0.0.0.0.0.0.0.0.0.0.0.0.0.0.0.0.0.0.0.0.0.0.0.0.0.0.0.0.0.0.0.0.0.0.0.0.0.0.0.0.0.0.0.0.0.0.0.0.0.0.",
"0.0.0.0.0.0.0.0.0.0.0.0.0.0.0.0.0.0.0.0.0.0.0.0.0.0.0.0.0.0.0.0.0.0.0.0.0.0.0.0.0.0.0.0.0.0.0.0.0.0.0.0.0.0.0.0.0.0.0.0.0.0.0.0.0.0.0.0.0.0.0.0.0.0.0.0.0.0.0.0.",
"0.0.0.0.0.0.0.0.0.0.0.0.0.0.0.0.0.0.0.0.0.0.0.0.0.0.0.0.0.0.0.0.0.0.0.0.0.0.0.0.0.0.0.0.0.0.0.0.0.0.0.0.0.0.0.0.0.0.0.0.0.0.0.0.0.0.0.0.0.0.0.0.0.0.0.0.0.0.0.0.",
"0.0.0.0.0.0.0.0.0.0.0.0.0.0.0.0.0.0.0.0.0.0.0.0.0.0.0.0.0.0.0.0.0.0.0.0.0.0.0.0.0.0.0.0.0.0.0.0.0.0.0.0.0.0.0.0.0.0.0.0.0.0.0.0.0.0.0.0.0.0.0.0.0.0.0.0.0.0.0.0.",
"0.0.0.0.0.0.0.0.0.0.0.0.0.0.0.0.0.0.0.0.0.0.0.0.0.0.0.0.0.0.0.0.0.0.0.0.0.0.0.0.0.0.0.0.0.0.0.0.0.0.0.0.0.0.0.0.0.0.0.0.0.0.0.0.0.0.0.0.0.0.0.0.0.0.0.0.0.0.0.0.",
"0.0.0.0.0.0.0.0.0.0.0.0.0.0.0.0.0.0.0.0.0.0.0.0.0.0.0.0.0.0.0.0.0.0.0.0.0.0.0.0.0.0.0.0.0.0.0.0.0.0.0.0.0.0.0.0.0.0.0.0.0.0.0.0.0.0.0.0.0.0.0.0.0.0.0.0.0.0.0.0.",
"0.0.0.0.0.0.0.0.0.0.0.0.0.0.0.0.0.0.0.0.0.0.0.0.0.0.0.0.0.0.0.0.0.0.0.0.0.0.0.0.0.0.0.0.0.0.0.0.0.0.0.0.0.0.0.0.0.0.0.0.0.0.0.0.0.0.0.0.0.0.0.0.0.0.0.0.0.0.0.0.",
"0.0.0.0.0.0.0.0.0.0.0.0.0.0.0.0.0.0.0.0.0.0.0.0.0.0.0.0.0.0.0.0.0.0.0.0.0.0.0.0.0.0.0.0.0.0.0.0.0.0.0.0.0.0.0.0.0.0.0.0.0.0.0.0.0.0.0.0.0.0.0.0.0.0.0.0.0.0.0.0.",
"0.0.0.0.0.0.0.0.0.0.0.0.0.0.0.0.0.0.0.0.0.0.0.0.0.0.0.0.0.0.0.0.0.0.0.0.0.0.0.0.0.0.0.0.0.0.0.0.0.0.0.0.0.0.0.0.0.0.0.0.0.0.0.0.0.0.0.0.0.0.0.0.0.0.0.0.0.0.0.0.",
"0.0.0.0.0.0.0.0.0.0.0.0.0.0.0.0.0.0.0.0.0.0.0.0.0.0.0.0.0.0.0.0.0.0.0.0.0.0.0.0.0.0.0.0.0.0.0.0.0.0.0.0.0.0.0.0.0.0.0.0.0.0.0.0.0.0.0.0.0.0.0.0.0.0.0.0.0.0.0.0.",
"0.0.0.0.0.0.0.0.0.0.0.0.0.0.0.0.0.0.0.0.0.0.0.0.0.0.0.0.0.0.0.0.0.0.0.0.0.0.0.0.0.0.0.0.0.0.0.0.0.0.0.0.0.0.0.0.0.0.0.0.0.0.0.0.0.0.0.0.0.0.0.0.0.0.0.0.0.0.0.0.",
"0.0.0.O O O O O O + O O O O O O O O O + O O O O O O O O O O O O O + O O O O O O O O O O O O O O O O O O O O O O O O O O O O O O & . 0.0.0.0.0.0.0.0.0.0.0.0.0.0.",
"0.0.0.O O O O O X . . X . . o O O O . . . . O O O O . . . o O O O . . . O O O O . . . . O O O O . . . O O O O O X . . o O O O O O @.0.0.0.0.0.0.0.0.0.0.0.0.0.0.",
"0.0.0.O O O O . > K ^ ^ T 6 O O O X < w w 1 o O O O 3 9 9 + O o + 7 q > o O O o 3 w w > X O O + 9 w < O O O O X 7 T Y * X O O O O @.0.0.0.0.0.0.0.0.0.0.0.0.0.0.",
"0.0.0.O O O X J o.o.o.o.o.o.9 . O # o.o.o.[ o O O + X.o.o.D . o - o.o.I . O X * o.o.o.! . O X - o.o.T . O O @ . T o.o.3 X + O O O @.0.0.0.0.0.0.0.0.0.0.0.0.0.0.",
"0.0.0.O O . w o.o.o._ ! _ o.< X . G o.o.o.X.$ o X * o.o.o.X.$ . 3 o.o.q . + . E o.o.o.' O O . 3 o.o.Z . O . X   K o.o.>   . . o + @.0.0.0.0.0.0.0.0.0.0.0.0.0.0.",
"0.0.0.O O + } o.o.9 X . O 3 # X @  .o.} o.o.3 . . < o.o.o.o.T   S o.o.< . o - o.o.[ o.o.% o . Z o.o.7 . $ 3 3 3 ( X.X.J < 7 < O O @.0.0.0.0.0.0.0.0.0.0.0.0.0.0.",
"0.0.0.O . 1 o.o.E   + O O . O . G o...9 X.o.S . X q o.o.[ o.o.% J o.o.* o . T o.[ 9 o.o.3 X . Y o.o.>   3 X.X.X.X.X.X.X.o.o._ O + @.0.0.0.0.0.0.0.0.0.0.0.0.0.0.",
"0.0.0.O . q o.o.Z . O O O O O @ } o.E   ' o.! X . J o.X.<  .o.! ! o.} # . * o.o.D . X.o.G . X ! o. .$ . < X.X.X.X.X.X.X.X.X.} O O @.0.0.0.0.0.0.0.0.0.0.0.0.0.0.",
"0.0.0.O . 6 o.o.I   O O X O . D o.o.E q ' o.[ + . E o.} X G o.o.o.o._ O . E o.o.J w } o.! . O ' o.[ O X * T T J } X.X.^ Y Y S o & . 0.0.0.0.0.0.0.0.0.0.0.0.0.0.",
"0.0.0.O X $ o.o.X.3 X X # @ # ..o.o.o.o.o.o.o.* . _ o._ X @ } o.o.o.!   - o.o.o.o.o.o.o.} O # } o.( . o o . .   K o.o.>   . . O O @.0.0.0.0.0.0.0.0.0.0.0.0.0.0.",
"0.0.0.O O . T o.o.o._ ^  .* S ..o._ Q E ^ o.o.7 X } o.Q X . w o.X.o.K   T o.o.! T T _ o.o.$ % o.o. ._ ' S X + . I o.o.1 X + O O + @.0.0.0.0.0.0.0.0.0.0.0.0.0.0.",
"0.0.0.O O O O Q o.o.o.o.o.* | ..} O . . + o.o.K + o.o.K . O o ' o.o.q * o.o._ . X   > o.o.6 < o.o.o.o.o.D . O . T o.o.3 . O O O O @.0.0.0.0.0.0.0.0.0.0.0.0.0.0.",
"0.0.0.O O O o X 1 I E Y 6 $ q 9 > o O O O 3 w > + q q * o O X * Z Z # - Z w * X O O @ q Z * % Z w q q w * O O X > q q $ O O X O # @.0.0.0.0.0.0.0.0.7.7.0.0.0.0.",
"0.0.0.O O O O O . . . . . o . . X O O O h X . X O . . X O O O o . . o o . . o O O O O . . O X . . . . . o O O O X . . O O O O O o g 7.*.l N N u 7 e 0 b 0.0.0.0.",
"0.0.0.O O O O O O + O O O O O O O o o O o o O o O O O O O & O O O O O O O O O o O & X O X X X O o o o o o X X O X o o O X X X X . ; F A 0 0 0 8 0 A V b 0.0.0.0.",
"0.0.0.g g g g g g g o @ @ @ @ @ @ @ @ @ @ @ @ @ @ @ + @ @ @ + + h h h h + @ @ @ # % * * * * = * * * * = * * * * * % ; - - ; * = = 4 V V V V V V A r 0 i 0.0.0.0.",
"0.0.0.0.0.0.0.0.0.0.1.; ; : : : : ; ; ; ; = ; ; ; ; ; ; : , , 4 e 0 V V A D F L H L U U U U U U U U U U U U U U P L P P L U P L U ~ U ~ T L P P U V 0 e 0.0.0.0.",
"0.0.0.0.0.0.0.0.0.0.*.: : = ; ; : : 2 2 e e 0 V A A D L L F U U U U U U U U U L P R R U L L P P P U T R L U L U L P ~ P P P L ( o.o.o.o...R P P P V V e 0.0.0.0.",
"0.0.0.0.0.0.0.0.0.0.&.: = 0 F F H P L R o.o.o.o...) U L U P L U L L L P P P H ~ } o.o...] R P P U } ....R L U L L _ { { P P H ( o.o.o.o.o.W P U P V 0 0 @.0.0.0.",
"0.0.0.0.0.0.0.0.0.0.$.: = A U U U U L R o.o.o.o.o.o.} U U P / } { { { R P L ) o.o.o.o.o.o.! L P / ......) L U U P [ { { P U L ( o.o.) / / U P P P V V V @.0.0.0.",
"0.0.0.0.0.0.0.0.0.0.$.: = V U U P P L R o.o.` W { o.o.{ L P ....o.o.o.] H ~ o.o.o.( ! / { R P L } ......| U L U P { { ] L P L ( o.o.W P U P P P P C C L 8.0.0.0.",
"0.0.0.0.0.0.0.0.0.0.&., ; 0 U P P P P W o.o./ H L } o.o.R U ....o...o.) H { o.o.R H L L P P L R ........X.( L U U | | ( L U L ( o.o.o.o.o.U P P P C 0 V *.0.0.0.",
"0.0.0.0.0.0.0.0.0.0.O., = 8 U P U P L R o.o./ P L / o.o./ T ....` H L P U ..o.] L P P U P U L ) ..../ ..X.} L U ~ | | ( L P L ( o.o.o.o.o.R P P P C 0 0 k 0.0.0.",
"0.0.0.0.0.0.0.0.0.0.$.: = e U P P P L R o.o./ P L ( ..../ L ....| ) ` W U ..o.' L U P U P P P ....} L ] X.X.R L ~ | | ( F ~ L ( o.o.W R R L P P P V 8 0 b 0.0.0.",
"0.0.0.0.0.0.0.0.0.0.$.; = 4 U P P U P W o.o.~ H U | ....R U ....o.o.o.` H | o.o.U L L L U L ! o.....} | X.X.( F ( | } ~ H L L ( o.o.~ R W P P P P V 0 0 b 0.0.0.",
"0.0.0.0.0.0.0.0.0.0.$.: ; 2 L U P P P R o.o.' ~ } o.o.' L T | ....] { ~ H ( o.o.| ( / ` / L } ..........o.o.} H ( o.o.( ~ ~ P ( o.o.o.o.o.W P P P V 0 0 u 0.0.0.",
"0.0.0.0.0.0.0.0.0.0.$.: = , L P P U P R o.o.o.o.o.o.} U L U ....` A H L P P } o.o.o.o.o.( R ....| W ~ W ] o.o.R ` o.o.o.o.o.U / o.o.o...o.R P P U V 0 0 i 0.0.0.",
"0.0.0.0.0.0.0.0.0.0.&.; ; , L U P P P R ........} ( P P U U ......] } / L P P ) | ......R ~ } | W H U H W ..o./ ` o.| | | } P P U U U U P P P P U F 0 0 0 0.0.0.",
"0.0.0.0.0.0.0.0.0.0.&.: ; : F U P P P P P P P P L L P P U R ....o.o.o.] L U P L U R U U L L P P U U P U P L P P P P P P P U U U U U U P P P P L H e b b N 0.0.0.",
"0.0.0.0.0.0.0.0.0.0.$.: ; ; D L P P P P P P P P P U P P P P ) ] ` ) ) ~ P P P P L L L L R P P P L U U U U U P U P U U U L F D A V V e 4 2 2 2 , : ,.0.0.0.0.0.0.",
"0.0.0.0.0.0.0.0.0.0.*.: ; ; F U U U U U U U U P U U U U U U L P L L L P U U P U U U U U ~ ` P P L F F F C V V V e 2 2 4 : : ; = : , = = = ; = 2 ; ,.0.0.0.0.0.0.",
"0.0.0.0.0.0.0.0.0.0.0.k O.$.c P C A A C F A F F A A F A A F D L F L D A H D A D m N N 4.-.-.8.@ ,.h ,.j $.$.O.8.g O.f ,.,.k O.,.,.k f h $.5.f ,.*.7.0.0.0.0.0.0.",
"0.0.0.0.0.0.0.0.0.0.0.0.0.0.N V 8 8 V e V V D ~ 8 e 4 u ; N N $.,.O.<.7.0.0.0.0.0.0.0.0.0.0.0.0.0.0.0.0.0.0.0.0.0.0.0.0.0.0.0.0.0.0.0.0.0.0.0.0.0.0.0.0.0.0.0.0.",
"0.0.0.0.0.0.0.0.0.0.0.0.0.0.k V V , l = *.$.1.#.O.7.0.0.0.0.0.0.0.0.0.0.0.0.0.0.0.0.0.0.0.0.7.0.0.0.0.0.0.0.0.0.0.0.0.0.0.0.0.0.0.0.0.0.0.0.0.0.0.0.0.0.0.0.0.0.",
"0.0.0.0.0.0.0.0.0.0.0.0.0.0.0.0.0.0.0.0.0.0.0.0.0.0.0.0.0.0.0.0.0.0.0.0.0.0.0.0.0.0.0.0.0.0.0.0.0.0.0.0.0.0.0.0.0.0.0.0.0.0.0.0.0.0.0.0.0.0.0.0.0.0.0.0.0.0.0.0.",
"0.0.0.0.0.0.0.0.0.0.0.0.0.0.0.0.0.0.0.0.0.0.0.0.0.0.0.0.0.0.0.0.0.0.0.0.0.0.0.0.0.0.0.0.0.0.0.0.0.0.0.0.0.0.0.0.0.0.0.0.0.0.0.0.0.0.0.0.0.0.0.0.0.0.0.0.0.0.0.0.",
"0.0.0.0.0.0.0.0.0.0.0.0.0.0.0.0.0.0.0.0.0.0.0.0.0.0.0.0.0.0.0.0.0.0.0.0.0.0.0.0.0.0.0.0.0.0.0.0.0.0.0.0.0.0.0.0.0.0.0.0.0.0.0.0.0.0.0.0.0.0.0.0.0.0.0.0.0.0.0.0.",
"0.0.0.0.0.0.0.0.0.0.0.0.0.0.0.0.0.0.0.0.0.0.0.0.0.0.0.0.0.0.0.0.0.0.0.0.0.0.0.0.0.0.0.0.0.0.0.0.0.0.0.0.0.0.0.0.0.0.0.0.0.0.0.0.0.0.0.0.0.0.0.0.0.0.0.0.0.0.0.0.",
"0.0.0.0.0.0.0.0.0.0.0.0.0.0.0.0.0.0.0.0.0.0.0.0.0.0.0.0.0.0.0.0.0.0.0.0.0.0.0.0.0.0.0.0.0.0.0.0.0.0.0.0.0.0.0.0.0.0.0.0.0.0.0.0.0.0.0.0.0.0.0.0.0.0.0.0.0.0.0.0.",
"0.0.0.0.0.0.0.0.0.0.0.0.0.0.0.0.0.0.0.0.0.0.0.0.0.0.0.0.0.0.0.0.0.0.0.0.0.0.0.0.0.0.0.0.0.0.0.0.0.0.0.0.0.0.0.0.0.0.0.0.0.0.0.0.0.0.0.0.0.0.0.0.0.0.0.0.0.0.0.0.",
"0.0.0.0.0.0.0.0.0.0.0.0.0.0.0.0.0.0.0.0.0.0.0.0.0.0.0.0.0.0.0.0.0.0.0.0.0.0.0.0.0.0.0.0.0.0.0.0.0.0.0.0.0.0.0.0.0.0.0.0.0.0.0.0.0.0.0.0.0.0.0.0.0.0.0.0.0.0.0.0.",
"0.0.0.0.0.0.0.0.0.0.0.0.0.0.0.0.0.0.0.0.0.0.0.0.0.0.0.0.0.0.0.0.0.0.0.0.0.0.0.0.0.0.0.0.0.0.0.0.0.0.0.0.0.0.0.0.0.0.0.0.0.0.0.0.0.0.0.0.0.0.0.0.0.0.0.0.0.0.0.0.",
"0.0.0.0.0.0.0.0.0.0.0.0.0.0.0.0.0.0.0.0.0.0.0.0.0.0.0.0.0.0.0.0.0.0.0.0.0.0.0.0.0.0.0.0.0.0.0.0.0.0.0.0.0.0.0.0.0.0.0.0.0.0.0.0.0.0.0.0.0.0.0.0.0.0.0.0.0.0.0.0.",
"0.0.0.0.0.0.0.0.0.0.0.0.0.0.0.0.0.0.0.0.0.0.0.0.0.0.0.0.0.0.0.0.0.0.0.0.0.0.0.0.0.0.0.0.0.0.0.0.0.0.0.0.0.0.0.0.0.0.0.0.0.0.0.0.0.0.0.0.0.0.0.0.0.0.0.0.0.0.0.0.",
"0.0.0.0.0.0.0.0.0.0.0.0.0.0.0.0.0.0.0.0.0.0.0.0.0.0.0.0.0.0.0.0.0.0.0.0.0.0.0.0.0.0.0.0.0.0.0.0.0.0.0.0.0.0.0.0.0.0.0.0.0.0.0.0.0.0.0.0.0.0.0.0.0.0.0.0.0.0.0.0.",
"0.0.0.0.0.0.0.0.0.0.0.0.0.0.0.0.0.0.0.0.0.0.0.0.0.0.0.0.0.0.0.0.0.0.0.0.0.0.0.0.0.0.0.0.0.0.0.0.0.0.0.0.0.0.0.0.0.0.0.0.0.0.0.0.0.0.0.0.0.0.0.0.0.0.0.0.0.0.0.0.",
"0.0.0.0.0.0.0.0.0.0.0.0.0.0.0.0.0.0.0.0.0.0.0.0.0.0.0.0.0.0.0.0.0.0.0.0.0.0.0.0.0.0.0.0.0.0.0.0.0.0.0.0.0.0.0.0.0.0.0.0.0.0.0.0.0.0.0.0.0.0.0.0.0.0.0.0.0.0.0.0.",
"0.0.0.0.0.0.0.0.0.0.0.0.0.0.0.0.0.0.0.0.0.0.0.0.0.0.0.0.0.0.0.0.0.0.0.0.0.0.0.0.0.0.0.0.0.0.0.0.0.0.0.0.0.0.0.0.0.0.0.0.0.0.0.0.0.0.0.0.0.0.0.0.0.0.0.0.0.0.0.0.",
"0.0.0.0.0.0.0.0.0.0.0.0.0.0.0.0.0.0.0.0.0.0.0.0.0.0.0.0.0.0.0.0.0.0.0.0.0.0.0.0.0.0.0.0.0.0.0.0.0.0.0.0.0.0.0.0.0.0.0.0.0.0.0.0.0.0.0.0.0.0.0.0.0.0.0.0.0.0.0.0.",
"0.0.0.0.0.0.0.0.0.0.0.0.0.0.0.0.0.0.0.0.0.0.0.0.0.0.0.0.0.0.0.0.0.0.0.0.0.0.0.0.0.0.0.0.0.0.0.0.0.0.0.0.0.0.0.0.0.0.0.0.0.0.0.0.0.0.0.0.0.0.0.0.0.0.0.0.0.0.0.0.",
"0.0.0.0.0.0.0.0.0.0.0.0.0.0.0.0.0.0.0.0.0.0.0.0.0.0.0.0.0.0.0.0.0.0.0.0.0.0.0.0.0.0.0.0.0.0.0.0.0.0.0.0.0.0.0.0.0.0.0.0.0.0.0.0.0.0.0.0.0.0.0.0.0.0.0.0.0.0.0.0.",
"0.0.0.0.0.0.0.0.0.0.0.0.0.0.0.0.0.0.0.0.0.0.0.0.0.0.0.0.0.0.0.0.0.0.0.0.0.0.0.0.0.0.0.0.0.0.0.0.0.0.0.0.0.0.0.0.0.0.0.0.0.0.0.0.0.0.0.0.0.0.0.0.0.0.0.0.0.0.0.0.",
"0.0.0.0.0.0.0.0.0.0.0.0.0.0.0.0.0.0.0.0.0.0.0.0.0.0.0.0.0.0.0.0.0.0.0.0.0.0.0.0.0.0.0.0.0.0.0.0.0.0.0.0.0.0.0.0.0.0.0.0.0.0.0.0.0.0.0.0.0.0.0.0.0.0.0.0.0.0.0.0.",
"0.0.0.0.0.0.0.0.0.0.0.0.0.0.0.0.0.0.0.0.0.0.0.0.0.0.0.0.0.0.0.0.0.0.0.0.0.0.0.0.0.0.0.0.0.0.0.0.0.0.0.0.0.0.0.0.0.0.0.0.0.0.0.0.0.0.0.0.0.0.0.0.0.0.0.0.0.0.0.0.",
"0.0.0.0.0.0.0.0.0.0.0.0.0.0.0.0.0.0.0.0.0.0.0.0.0.0.0.0.0.0.0.0.0.0.0.0.0.0.0.0.0.0.0.0.0.0.0.0.0.0.0.0.0.0.0.0.0.0.0.0.0.0.0.0.0.0.0.0.0.0.0.0.0.0.0.0.0.0.0.0.",
"0.0.0.0.0.0.0.0.0.0.0.0.0.0.0.0.0.0.0.0.0.0.0.0.0.0.0.0.0.0.0.0.0.0.0.0.0.0.0.0.0.0.0.0.0.0.0.0.0.0.0.0.0.0.0.0.0.0.0.0.0.0.0.0.0.0.0.0.0.0.0.0.0.0.0.0.0.0.0.0.",
"0.0.0.0.0.0.0.0.0.0.0.0.0.0.0.0.0.0.0.0.0.0.0.0.0.0.0.0.0.0.0.0.0.0.0.0.0.0.0.0.0.0.0.0.0.0.0.0.0.0.0.0.0.0.0.0.0.0.0.0.0.0.0.0.0.0.0.0.0.0.0.0.0.0.0.0.0.0.0.0."
};
