/* XPM */
static char *xpm_[] = {
/* columns rows colors chars-per-pixel */
"80 80 208 2 ",
"   c #0C0708",
".  c #110D0E",
"X  c #130F10",
"o  c #181518",
"O  c #120E19",
"+  c #231C1D",
"@  c #2A2821",
"#  c #1A1A21",
"$  c #231F20",
"%  c #1E2830",
"&  c #262222",
"*  c #322B29",
"=  c #3A3121",
"-  c #322F32",
";  c #2C2F29",
":  c #221D1F",
">  c #1B1219",
",  c #292020",
"<  c #292320",
"1  c #282D24",
"2  c #312B20",
"3  c #2D3129",
"4  c #582625",
"5  c #493A24",
"6  c #413E3F",
"7  c #4F2524",
"8  c #682926",
"9  c #7D2B28",
"0  c #5D4625",
"q  c #33492C",
"w  c #365430",
"e  c #35502F",
"r  c #395F33",
"t  c #634517",
"y  c #75631F",
"u  c #85701F",
"i  c #5B4626",
"p  c #705326",
"a  c #41753A",
"s  c #406A36",
"d  c #7B671F",
"f  c #1D3A46",
"g  c #434041",
"h  c #1B4151",
"j  c #145D7A",
"k  c #126382",
"l  c #18576F",
"z  c #484545",
"x  c #565456",
"c  c #605D5E",
"v  c #767474",
"b  c #676465",
"n  c #686566",
"m  c #8D8B8B",
"M  c #1E1A1F",
"N  c #190E17",
"B  c #2C3A28",
"V  c #1A4353",
"C  c #120C18",
"Z  c #292220",
"A  c #1B191C",
"S  c #4B401F",
"D  c #1D3946",
"F  c #53471F",
"G  c #5C4E1F",
"H  c #4D9945",
"J  c #CFAD1E",
"K  c #0F5772",
"L  c #97302C",
"P  c #872D29",
"I  c #A8312C",
"U  c #B4332E",
"Y  c #B5332E",
"T  c #CA3630",
"R  c #D33832",
"E  c #EE3B33",
"W  c #EC3B33",
"Q  c #F83C34",
"!  c #875D19",
"~  c #947C1E",
"^  c #8F791F",
"/  c #9D722A",
"(  c #8B6629",
")  c #A6792B",
"_  c #F23C33",
"`  c #FA3D34",
"'  c #FA3D34",
"]  c #F83C34",
"[  c #FF3F36",
"{  c #FB3D34",
"}  c #E9A430",
"|  c #FCB131",
" . c #FFED1E",
".. c #E8B227",
"X. c #56B24D",
"o. c #498C41",
"O. c #4B9243",
"+. c #56B24D",
"@. c #54AD4C",
"#. c #57B44E",
"$. c #5BC152",
"%. c #56B24D",
"&. c #56B24D",
"*. c #59BA4F",
"=. c #A68C1E",
"-. c #B7991E",
";. c #BC862C",
":. c #ECA630",
">. c #DBB71D",
",. c #C7A71E",
"<. c #F5CD1D",
"1. c #C48C2D",
"2. c #FCB131",
"3. c #D1942E",
"4. c #F1A82E",
"5. c #FBAE2A",
"6. c #FAB031",
"7. c #FDB431",
"8. c #F6AE2E",
"9. c #FFD61D",
"0. c #FCB131",
"q. c #FDB331",
"w. c #EDC61D",
"e. c #F7CE1D",
"r. c #FED71D",
"t. c #FED81D",
"y. c #FFE41D",
"u. c #FFE41D",
"i. c #FECA6B",
"p. c #F4CC1D",
"a. c #FFCA28",
"s. c #0E749A",
"d. c #11688A",
"f. c #0C7DA8",
"g. c #00ACEC",
"h. c #00AFF0",
"j. c #03B6FA",
"k. c #838181",
"l. c #0A87B6",
"z. c #01B0F1",
"x. c #049FD9",
"c. c #0792C6",
"v. c #02A6E3",
"b. c #00ADED",
"n. c #00B0F2",
"m. c #00B5F9",
"M. c #00B0F1",
"N. c #01ACEC",
"B. c #01B8FD",
"V. c #888687",
"C. c #9B9999",
"Z. c #A8A7A7",
"A. c #B9B7B8",
"S. c #DEDEDE",
"D. c #E2E1E2",
"F. c #C3C2C2",
"G. c #C7BFB2",
"H. c #F4CE8C",
"J. c #FEDFA9",
"K. c #FEE3B4",
"L. c #C8C7C7",
"P. c #D8D8D8",
"I. c #D0CFCF",
"U. c #ECECEC",
"Y. c #FEFEFE",
"T. c #F8F4ED",
"R. c #FCFCFC",
"E. c #FEFEFE",
"W. c #FFFFFF",
"Q. c #0F0D1D",
"!. c #231F20",
"~. c #121119",
"^. c #272120",
"/. c #0E3248",
"(. c #15141A",
"). c #1B121A",
"_. c #1E343F",
"`. c #5AB74E",
"'. c #0B82AF",
"]. c #00AEEF",
"[. c #6F5A28",
"{. c #F43C34",
"}. c #EE3B33",
"|. c #EC3B33",
" X c #F63D34",
".X c #FAB031",
"XX c #E9A530",
"oX c #55AF4C",
"OX c #56B24D",
"+X c #FCB82F",
"@X c #FCB131",
"#X c #E3C41E",
"$X c #01B8F6",
"%X c #03C1FF",
"&X c #0E131D",
"*X c #100A13",
"=X c #BC9921",
"-X c #F67533",
";X c #6DDB58",
":X c #6AD657",
">X c #7EFA61",
",X c #FFE51D",
"<X c #00B4F8",
"1X c #221F1B",
"2X c #DC6630",
"3X c #FDC52C",
"4X c None",
"5X c #0084B3",
/* pixels */
"4X4X4X4X4X4X4X4X4X4X4X4X4X4X4X4X4X4X4X4X4X4X4X4X4X4X4X4X4X4X4X4X4X4X4X4X4X4X4X4X4X4X4X4X4X4X4X4X4X4X4X4X4X4X4X4X4X4X4X4X4X4X4X4X4X4X4X4X4X4X4X4X4X4X4X4X4X4X4X4X",
"4X4X4X4X4X4X4X4X4X4X4X4X4X4X4X4X4X4X4X4X4X4X4X4X4X4X4X4X4X4X4X4X4X4X4X4X4X4X4X4X4X4X4X4X4X4X4X4X4X4X4X4X4X4X4X4X4X4X4X4X4X4X4X4X4X4X4X4X4X4X4X4X4X4X4X4X4X4X4X4X",
"4X4X4X4X4X4X4X4X4X4X4X4X4X4X4X4X4X4X4X4X4X4X4X4X4X4X4X4X4X4X4X4X4X4X4X4X4X4X4X4X4X4X4X4X4X4X4X4X4X4X4X4X4X4X4X4X4X4X4X4X4X4X4X4X4X4X4X4X4X4X4X4X4X4X4X4X4X4X4X4X",
"4X4X4X4X4X4X4X4X4X4X4X4X4X4X4X4X4X4X4X4X4X4X4X4X4X4X4X4X4X4X4X4X4X4X4X4X4X4X4X4X4X4X4X4X4X4X4X4X4X4X4X4X4X4X4X4X4X4X4X4X4X4X4X4X4X4X4X4X4X4X4X4X4X4X4X4X4X4X4X4X",
"4X4X4X4X4X4X4X4X4X4X4X4X4X4X4X4X4X4X4X4X4X4X4X4X4X4X4X4X4X4X4X4X4X4X4X4X4X4X4X4X4X4X4X4X4X4X4X4X4X4X4X4X4X4X4X4X4X4X4X4X4X4X4X4X4X4X4X4X4X4X4X4X4X4X4X4X4X4X4X4X",
"4X4X4X4X4X4X4X4X4X4X4X4X4X4X4X4X4X4X4X4X4X4X4X4X4X4X4X4X4X4X4X4X4X4X4X4X4X4X4X4X4X4X4X4X4X4X4X4X4X4X4X4X4X4X4X4X4X4X4X4X4X4X4X4X4X4X4X4X4X4X4X4X4X4X4X4X4X4X4X4X",
"4X4X4X4X4X4X4X4X4X4X4X4X4X4X4X4X4X4X4X4X4X4X4X4X4X4X4X4X4X4X4X4X4X4X4X4X4X4X4X4X4X4X4X4X4X4X4X4X4X4X4X4X4X4X4X4X4X4X4X4X4X4X4X4X4X4X4X4X4X4X4X4X4X4X4X4X4X4X4X4X",
"4X4X4X4X4X4X4X4X4X4X4X4X4X4X4X4X4X4X4X4X4X4X4X4X4X4X4X4X4X4X4X4X4X4X4X4X4X4X4X4X4X4X4X4X4X4X4X4X4X4X4X4X4X4X4X4X4X4X4X4X4X4X4X4X4X4X4X4X4X4X4X4X4X4X4X4X4X4X4X4X",
"4X4X4X4X4X4X4X4X4X4X4X4X4X4X4X4X4X4X4X4X4X4X4X4X4X4X4X4X4X4X4X4X4X4X4X4X4X4X4X4X4X4X4X4X4X4X4X4X4X4X4X4X4X4X4X4X4X4X4X4X4X4X4X4X4X4X4X4X4X4X4X4X4X4X4X4X4X4X4X4X",
"4X4X4X4X4X4X4X4X4X4X4X4X4X4X4X4X4X4X4X4X4X4X4X4X4X4X4X4X4X4X4X4X4X4X4X4X4X4X4X4X4X4X4X4X4X4X4X4X4X4X4X4X4X4X4X4X4X4X4X4X4X4X4X4X4X4X4X4X4X4X4X4X4X4X4X4X4X4X4X4X",
"4X4X4X4X4X4X4X4X4X4X4X4X4X4X4X4X4X4X4X4X4X4X4X4X4X4X4X4X4X4X4X4X4X4X4X4X4X4X4X4X4X4X4X4X4X4X4X4X4X4X4X4X4X4X4X4X4X4X4X4X4X4X4X4X4X4X4X4X4X4X4X4X4X4X4X4X4X4X4X4X",
"4X4X4X4X4X4X4X4X4X4X4X4X4X4X4X4X4X4X4X4X4X4X4X4X4X4X4X4X4X4X4X4X4X4X4X4X4X4X4X4X4X4X4X4X4X4X4X4X4X4X4X4X4X4X4X4X4X4X4X4X4X4X4X4X4X4X4X4X4X4X4X4X4X4X4X4X4X4X4X4X",
"4X4X4X4X4X4X4X4X4X4X4X4X4X4X4X4X4X4X4X4X4X4X4X4X4X4X4X4X4X4X4X4X4X4X4X4X4X4X4X4X4X4X4X4X4X4X4X4X4X4X4X4X4X4X4X4X4X4X4X4X4X4X4X4X4X4X4X4X4X4X4X4X4X4X4X4X4X4X4X4X",
"4X4X4X4X4X4X4X4X4X4X4X4X4X4X4X4X4X4X4X4X4X4X4X4X4X4X4X4X4X4X4X4X4X4X4X4X4X4X4X4X4X4X4X4X4X4X4X4X4X4X4X4X4X4X4X4X4X4X4X4X4X4X4X4X4X4X4X4X4X4X4X4X4X4X4X4X4X4X4X4X",
"4X4X4X4X4X4X4X4X4X4X4X4X4X4X4X4X4X4X4X4X4X4X4X4X4X4X4X4X4X4X4X4X4X4X4X4X4X4X4X4X4X4X4X4X4X4X4X4X4X4X4X4X4X4X4X4X4X4X4X4X4X4X4X4X4X4X4X4X4X4X4X4X4X4X4X4X4X4X4X4X",
"4X4X4X4X4X4X4X4X4X4X4X4X4X4X4X4X4X4X4X4X4X4X4X4X4X4X4X4X4X4X4X4X4X4X4X4X4X4X4X4X4X4X4X4X4X4X4X4X4X4X4X4X4X4X4X4X4X4X4X4X4X4X4X4X4X4X4X4X4X4X4X4X4X4X4X4X4X4X4X4X",
"4X4X4X4X4X4X4X4X4X4X4X4X4X4X4X4X4X4X4X4X4X4X4X4X4X4X4X4X4X4X4X4X4X4X4X4X4X4X4X4X4X4X4X4X4X4X4X4X4X4X4X4X4X4X4X4X4X4X4X4X4X4X4X4X4X4X4X4X4X4X4X4X4X4X4X4X4X4X4X4X",
"4X4X4X4X4X4X4X4X4X4X4X4X4X4X4X4X4X4X4X4X4X4X4X4X4X4X4X4X4X4X4X4X4X4X4X4X4X4X4X4X4X4X4X4X4X4X4X4X4X4X4X4X4X4X4X4X4X4X4X4X4X4X4X4X4X4X4X4X4X4X4X4X4X4X4X4X4X4X4X4X",
"4X4X4X4X4X4X4X4X4X4X4X4X4X4X4X4X4X4X4X4X4X4X4X4X4X4X4X4X4X4X4X4X4X4X4X4X4X4X4X4X4X4X4X4X4X4X4X4X4X4X4X4X4X4X4X4X4X4X4X4X4X4X4X4X4X4X4X4X4X4X4X4X4X4X4X4X4X4X4X4X",
"4X4X4X4X4X4X4X4X4X4X4X4X4X4X4X4X4X4X4X4X4X4X4X4X4X4X4X4X4X4X4X4X4X4X4X4X4X4X4X4X4X4X4X4X4X4X4X4X4X4X4X4X4X4X4X4X4X4X4X4X4X4X4X4X4X4X4X4X4X4X4X4X4X4X4X4X4X4X4X4X",
"4X4X4X4X4X4X4X4X4X4X4X4X4X4X4X4X4X4X4X4X4X4X4X4X4X4X4X4X4X4X4X4X4X4X4X4X4X4X4X4X4X4X4X4X4X4X4X4X4X4X4X4X4X4X4X4X4X4X4X4X4X4X4X4X4X4X4X4X4X4X4X4X4X4X4X4X4X4X4X4X",
"4X4X4X4X4X4X4X4X4X4X4X4X4X4X4X4X4X4X4X4X4X4X4X4X4X4X4X4X4X4X4X4X4X4X4X4X4X4X4X4X4X4X4X4X4X4X4X4X4X4X4X4X4X4X4X4X4X4X4X4X4X4X4X4X4X4X4X4X4X4X4X4X4X4X4X4X4X4X4X4X",
"4X4X4X4X4X4X4X4X4X4X4X4X4X4X4X4X4X4X4X4X4X4X4X4X4X4X4X4X4X4X4X4X4X4X4X4X4X4X4X4X4X4X4X4X4X4X4X4X4X4X4X4X4X4X4X4X4X4X4X4X4X4X4X4X4X4X4X4X4X4X4X4X4X4X4X4X4X4X4X4X",
"4X4X4X4X4X4X4X4X4X4X4X4X4X4X4X4X4X4X4X4X4X4X4X4X4X4X4X4X4X4X4X4X> $ $ $ & & o p 7.6.7.7.7.7.7.7.0.4X4X4X4X4X4X4X4X4X4X4X4X4X4X4X4X4X4X4X4X4X4X4X4X4X4X4X4X4X4X4X",
"4X4X4X4X4X4X4X4X4X4X4X4X4X4X4X4X4X4X4X4X4X4X4X4X4X4X4X4X4X4X4X4X: & & & & & # i 7.7.7.7.7.7.6.7.0.4X4X4X4X4X4X4X4X4X4X4X4X4X4X4X4X4X4X4X4X4X4X4X4X4X4X4X4X4X4X4X",
"4X4X4X4X4X4X4X4X4X4X4X4X4X4X4X4X4X4X4X4X4X4X4X4X4X4X4X4X4X4X4X4X: & & o o & O ! 7.7.7.7.7.7.6.6.0.4X4X4X4X4X4X4X4X4X4X4X4X4X4X4X4X4X4X4X4X4X4X4X4X4X4X4X4X4X4X4X",
"4X4X4X4X4X4X4X4X4X4X4X4X4X4X4X4X4X4X4X4X4X4X4X4X4X4X4X4X4X4X4X4X: o o & - ; x H.7.7.7.7.7.7.6.7.0.4X4X4X4X4X4X4X4X4X4X4X4X4X4X4X4X4X4X4X4X4X4X4X4X4X4X4X4X4X4X4X",
"4X4X4X4X4X4X4X4X4X4X4X4X4X4X4X4X4X4X4X4X4X4X4X4X4X4X4X4X4X4X4X4X$ m E.T.T.U.Y.Y.T.i.5.6.7.7.6.7.0.4X4X4X4X4X4X4X4X4X4X4X4X4X4X4X4X4X4X4X4X4X4X4X4X4X4X4X4X4X4X4X",
"4X4X4X4X4X4X4X4X4X4X4X4X4X4X4X4X4X4X4X4X4X4X4X4X4X4X4X4X4X4X4X4XR.I.k.L.U.Y.Y.Y.Y.Y.J.5.7.7.6.7.0.4X4X4X4X4X4X4X4X4X4X4X4X4X4X4X4X4X4X4X4X4X4X4X4X4X4X4X4X4X4X4X",
"4X4X4X4X4X4X4X4X4X4X4X4X4X4X4X4X4X4X4X4X4X4X4X4X4X4X4X4X4X4X4X4XV.+   & - 6 L.Y.Y.Y.Y.K.6.7.6.7.0.4X4X4X4X4X4X4X4X4X4X4X4X4X4X4X4X4X4X4X4X4X4X4X4X4X4X4X4X4X4X4X",
"4X4X4X4X4X4X4X4X4X4X4X4X4X4X4X4X4X4X4X4X4X4X4X4X4X4X4X4X4X4X4X4X6 $ z L.F.. z Y.Y.Y.Y.T.H.5.8.8.0.4X4X4X4X4X4X4X4X4X4X4X4X4X4X4X4X4X4X4X4X4X4X4X4X4X4X4X4X4X4X4X",
"4X4X4X4X4X4X4X4X4X4X4X4X4X4X4X4X4X4X4X4X4X4X4X4X4X4X4X4X4X4X4X4Xn : + o X . V.Y.Y.Y.Y.T.T.i.8.8.1.4X4X4X4X4X4X4X4X4X4X4X4X4X4X4X4X4X4X4X4X4X4X4X4X4X4X4X4X4X4X4X",
"4X4X4X4X4X4X4X4X4X4X4X4X4X4X4X4X4X4X4X4X4X4X4X4X4X4X4X4X4X4X4X4XW.W.& b V.A.Y.Y.Y.Y.Y.Y.Y.G.t 5 = 4X4X4X4X4X4X4X4X4X4X4X4X4X4X4X4X4X4X4X4X4X4X4X4X4X4X4X4X4X4X4X",
"4X4X4X4X4X4X4X4X4X4X4X4X4X4X4X4X4X4X4X4X4X4X4X4X4X4X4X4X4X4X4X4XR.Y.U.Y.Y.Y.Y.Y.b * L.Y.U.* O o M 4X4X4X4X4X4X4X4X4X4X4X4X4X4X4X4X4X4X4X4X4X4X4X4X4X4X4X4X4X4X4X",
"4X4X4X4X4X4X4X4X4X4X4X4X4X4X4X4X4X4X4X4X4X4X4X4X4X4X4X4X4X4X4X4XR.Y.U.6 c U.Y.Z.  + 6 Y.P.+ @ & < 4X4X4X4X4X4X4X4X4X4X4X4X4X4X4X4X4X4X4X4X4X4X4X4X4X4X4X4X4X4X4X",
"4X4X4X4X4X4X4X4X4X4X4X4X4X4X4X4X4X4X4X4X4X4X4X4X4X4X4X4X4X4X4X4XS.Y.Z.  X x Y.V.o Z.- Y.P.+ + & < 4X4X4X4X4X4X4X4X4X4X4X4X4X4X4X4X4X4X4X4X4X4X4X4X4X4X4X4X4X4X4X",
"4X4X4X4X4X4X4X4X4X4X4X4X4X4X4X4X4X4X4X4X4X4X4X4X4X4X4X4X4X4X4X4XF.U.Z.c   g Y.x $ S.; E.I.< & & < 4X4X4X4X4X4X4X4X4X4X4X4X4X4X4X4X4X4X4X4X4X4X4X4X4X4X4X4X4X4X4X",
"4X4X4X4X4X4X4X4X4X4X4X4X4X4X4X4X4X4X4X4X4X4X4X4X4X4X4X4X4X4X4X4XZ.E.W.Z.Z.I.U.+ $ z   C.S.> & @ < 4X4X4X4X4X4X4X4X4X4X4X4X4X4X4X4X4X4X4X4X4X4X4X4X4X4X4X4X4X4X4X",
"4X4X4X4X4X4X4X4X4X4X4X4X4X4X4X4X4X4X4X4X4X4X4X4X4X4X4X4X4X4X4X4XZ.A.Z.Z.Y.T.Y.v ; + n E.x o q * < 4X4X4X4X4X4X4X4X4X4X4X4X4X4X4X4X4X4X4X4X4X4X4X4X4X4X4X4X4X4X4X",
"4X4X4X4X4X4X4X4X4X4X4X4X4X4X4X4X4X4X4X4X4X4X4X4X4X4X4X4X4X4X4X4Xg V.v k.V.R.R.R.b b W.V.N o = i A 4X4X4X4X4X4X4X4X4X4X4X4X4X4X4X4X4X4X4X4X4X4X4X4X4X4X4X4X4X4X4X",
"4X4X4X4X4X4X4X4X4X*X4X4X4X4X4X4X4X4X4X4X4X4X4X4X4X4X4X4X4X4X4X4X4X4X4X4X4X4X4X4X4X4X4X4X4X4X4X4X4X4X4X4X4X4X4X4X4X4X4X4X4X4X4X4X4X4X4X4X4X4X4X4X4X4X4X4X4X4X4X4X",
"4X4X4X4X4X4X4X4X4X*X4X4X4X4X4X4X4X4X4X4X4X4X4X4X4X4X4X4X4X4X4X4X4X4X4X*X4X4X4X1X4X4X4X4X4X4X4X4X4X4X4X4X4X4X4X4X4X4X4X4X4X4X4X4X4X4X4X4X4X4X4X4X4X4X4X4X4X4X4X4X",
"4X4X4X4X4X4X&X4X-X[ [ -X-X2X2X4X4X4X4X4X4X4X4X).l.1X4X4X4X4X4X4X4X4X5 4X4X4X4X4X4X4X4X@XF S ^.4X4X1X4X4X4X4X4X4X4X4X4X4X4X4X4X4X4X4X1X,X .1X4X4X4X4X4X4X4X4X4X4X",
"4X4X4X!.!.Q.!.*X[ Q Q Q Q Q Q W P 4X4X4X4X4X4Xl.m.l.1X4X4X4X4X4X4X4Xk.x 4X4X4X4X4X4X1Xu.6.7.3.&X!.$.+.@.%.%.H r B (.4X4X4X4X4X4X4X4X).t.u.G 4X4X4X4X4X4X4X4X4X4X",
"4X4X4X~.Q.Q.^.4X[ Q Q W Q Q Q Q W R ^.4X4X4X_.m.v.b.V 4X4X4X4X4X4X0 >.8./ 4X1X4X4X4X4X8.i.w.) O (.$.$.$.#.#.#.#.$.$.*.!.4X4X1X4X4X4Xp.u.y.,.).4X4X4X4X4X4X4X4X4X",
"4X4X4X4X4X&X> &X[ Q Q Q L n Q Q R W T &X4X4Xl.m.b.b.c.(.4X1X4X4X4X=Xi.>.w.8.=X4X4X4X4X8.6.w./ Q.1X$.$.$.#.@.@.#.$.$.$.#.OX1X4X4X4X1Xu.u.r.u.^ 4X4X4X4X4X4X4X4X4X",
"4X4X4X4X4X!.1X*X[ Q W Q 8 ).-XQ R R R - 4XD v.v.b.b.b.d.1X4X4X4X4X=Xi.w.i.7.7.G 4X4X*X2.6.7./ Q.(.$.$.$.+.& B r @.$.#.#.%.: 4X4X4X1.r.r.r.r.w.2 4X4X4X4X4X4X4X4X",
"4X4X4X4X4X4X$ *X[ W W Q 8 *X4XR R R ;.h 4Xx.b.b.b.b.b.v.3 4X1X4X4Xy i.t.8.8.8.7.1.4X4X2.6.6.( ~.1X$.$.$.%.< 4X4X(.#.#.$.$.s >X4X@Xr.r.r.r.r.u.,.).4X4X4X4X4X4X4X",
"4X4X4X4X4X!.(.4X9 R W W x 4X XQ W W L A d.x.M.x.k b.b.m.l.).4X4X4X} 7.8.7.7.7.7.7.2.|.1.7.7.p ).(.$.$.$.o.: 4X4X4X@.#.#.$.e ).4X>.y.u.=.=.u.e.u.p 4X4X4X4X4X4X4X",
"4X4X4X4X*X^.).4X4 R W W L P Q Q W T * /.x.x.b.l.Z l.m.v.m.l 4X4X4X} 7.7.2.;.7.u.7.7.7.8.7.7.p ).1X$.$.$.o.: 4X4X4X@.$.$.#.6 *X} r.e.u.= B t.r.r.<.Z 4X4X4X4X4X4X",
"4X4X4X4X4X!.).4X|.W W W Q Q Q Q T * ).l.x.v.v.l 5X/.n.b.n.x.B 4X4Xp.7.7.;.O @Xi.7.7.7.7.6.7.p ).  $.$.$.O.< 4X1X`.$.$.$.@.3 3Xu.r.u.=.& 1Xp.u.r.u.-.).4X4X4X4X4X",
"4X4X4X4X4X4X+ 4X{.W W W Q Q W p f ~./.n.x.v.b.v.m.b.b.n.m.m.l.1X4Xp.7.7.1.A 4X[.8.7.8.7.7.7.i ).4X$.$.$.@.- 4X;X$.$.$.$.w Z p.u.r.y.w.w.u.u.u.u.r.u.d 4X4X4X4X4X",
"4X4X4X4X1X^.).*X{ W W Q L 6 # C 4X4XM.n.n.m.m.m.m.m.n.b.b.b.m.h 4X0 =.~ / [.4X4X1X=.8.8.7.6.i *X1X$.#.#.@.5 OX$.@.#.$.a . ,Xu.u.r.u.u.u.u.u.u.u.r.r.>.A 4X4X4X4X",
"4X4X4X4X4XQ., 4X{ W W Q 4 &X4X4X4Xh.m.b.m.v.l.l.l.l.l.v.m.b.m.v.O i ~ ~ ( O 4X4X4X4Xp.7.7.8.i 4X!.$.#.$.@.%.@.@.$.@.s = ).,.u.u.r.>.-.=.=.~ =.u.r.r.u.-.*X4X4X4X",
"4X4X4X4X*X(.).).[ Q W Q 8 ).4X4X4XB.b.n.m.w B (.(.).1X/.n.c.x.l.b ;./ / 1.o 4X4X4X4X4X=X8.6.i 1X&X$.$.$.#.@.#.@.a * S 1X1Xt.u.u.>.& C ).).).*Xp.r.u.e.y # 4X4X4X",
"4X4X4X4X4X~.(.4X-XU I U 4 ).4X4X4X*X5Xc.l.2 1X4X4X4X4X4Xl.l.l S 4X[./ / ;.q 4X4X4X4X4X*X4X=.i 4X!.$.$.#.O.o.n q N *X4X4X4X4XG e.p C 4X4X4X4X4X1X<.=.* C 4X4X4X4X",
"4X4X4X4X4X4X4X4X1X).!.(.~.1X4X4X4X4X4X4X% _.4X4X4X4X4X4X4X3 3 4X4X4XB : !.B 4X4X4X4X4X4X4X4X^.1X4X^.; 2 X   ).1X4X4X4X4X4X4X4X1X2 ).4X4X4X4X4X4X).C ).4X4X4X4X4X",
"4X4X4X4X4X4X4X4X4X*X4X4X4X4X4X4X4X4X4X4X4X4X4X4X4X4X4X4X4X4X4X4X4X4X4X4X4X4X4X4X4X4X4X4X4X4X4X4X4X4X4X4X4X4X4X4X4X4X4X4X4X4X4X4X4X4X4X4X4X4X4X4X4X4X4X4X4X4X4X4X",
"4X4X4X4X4X4X4X4X4X4X4X4X4X4X4X4X4X4X4X4X4X4X4X4X4X4X4X4X4X4X4X4X4X4X4X4X4X4X4X4X4X4X4X4X4X4X4X4X4X4X4X4X4X4X4X4X4X4X4X4X4X4X4X4X4X4X4X4X4X4X4X4X4X4X4X4X4X4X4X4X",
"4X4X4X4X4X4X4X4X4X4X4X4X4X4X4X4X4X4X4X4X4X4X4X4X4X4X4X4X4X4X4X4X4X4X4X4X4X4X4X4X4X4X4X4X4X4X4X4X4X4X4X4X4X4X4X4X4X4X4X4X4X4X4X4X4X4X4X4X4X4X4X4X4X4X4X4X4X4X4X4X",
"4X4X4X4X4X4X4X4X4X4X4X4X4X4X4X4X4X4X4X4X4X4X4X4X4X4X4X4X4X4X4X4X4X4X4X4X4X4X4X4X4X4X4X4X4X4X4X4X4X4X4X4X4X4X4X4X4X4X4X4X4X4X4X4X4X4X4X4X4X4X4X4X4X4X4X4X4X4X4X4X",
"4X4X4X4X4X4X4X4X4X4X4X4X4X4X4X4X4X4X4X4X4X4X4X4X4X4X4X4X4X4X4X4X4X4X4X4X4X4X4X4X4X4X4X4X4X4X4X4X4X4X4X4X4X4X4X4X4X4X4X4X4X4X4X4X4X4X4X4X4X4X4X4X4X4X4X4X4X4X4X4X",
"4X4X4X4X4X4X4X4X4X4X4X4X4X4X4X4X4X4X4X4X4X4X4X4X4X4X4X4X4X4X4X4X4X4X4X4X4X4X4X4X4X4X4X4X4X4X4X4X4X4X4X4X4X4X4X4X4X4X4X4X4X4X4X4X4X4X4X4X4X4X4X4X4X4X4X4X4X4X4X4X",
"4X4X4X4X4X4X4X4X4X4X4X4X4X4X4X4X4X4X4X4X4X4X4X4X4X4X4X4X4X4X4X4X4X4X4X4X4X4X4X4X4X4X4X4X4X4X4X4X4X4X4X4X4X4X4X4X4X4X4X4X4X4X4X4X4X4X4X4X4X4X4X4X4X4X4X4X4X4X4X4X",
"4X4X4X4X4X4X4X4X4X4X4X4X4X4X4X4X4X4X4X4X4X4X4X4X4X4X4X4X4X4X4X4X4X4X4X4X4X4X4X4X4X4X4X4X4X4X4X4X4X4X4X4X4X4X4X4X4X4X4X4X4X4X4X4X4X4X4X4X4X4X4X4X4X4X4X4X4X4X4X4X",
"4X4X4X4X4X4X4X4X4X4X4X4X4X4X4X4X4X4X4X4X4X4X4X4X4X4X4X4X4X4X4X4X4X4X4X4X4X4X4X4X4X4X4X4X4X4X4X4X4X4X4X4X4X4X4X4X4X4X4X4X4X4X4X4X4X4X4X4X4X4X4X4X4X4X4X4X4X4X4X4X",
"4X4X4X4X4X4X4X4X4X4X4X4X4X4X4X4X4X4X4X4X4X4X4X4X4X4X4X4X4X4X4X4X4X4X4X4X4X4X4X4X4X4X4X4X4X4X4X4X4X4X4X4X4X4X4X4X4X4X4X4X4X4X4X4X4X4X4X4X4X4X4X4X4X4X4X4X4X4X4X4X",
"4X4X4X4X4X4X4X4X4X4X4X4X4X4X4X4X4X4X4X4X4X4X4X4X4X4X4X4X4X4X4X4X4X4X4X4X4X4X4X4X4X4X4X4X4X4X4X4X4X4X4X4X4X4X4X4X4X4X4X4X4X4X4X4X4X4X4X4X4X4X4X4X4X4X4X4X4X4X4X4X",
"4X4X4X4X4X4X4X4X4X4X4X4X4X4X4X4X4X4X4X4X4X4X4X4X4X4X4X4X4X4X4X4X4X4X4X4X4X4X4X4X4X4X4X4X4X4X4X4X4X4X4X4X4X4X4X4X4X4X4X4X4X4X4X4X4X4X4X4X4X4X4X4X4X4X4X4X4X4X4X4X",
"4X4X4X4X4X4X4X4X4X4X4X4X4X4X4X4X4X4X4X4X4X4X4X4X4X4X4X4X4X4X4X4X4X4X4X4X4X4X4X4X4X4X4X4X4X4X4X4X4X4X4X4X4X4X4X4X4X4X4X4X4X4X4X4X4X4X4X4X4X4X4X4X4X4X4X4X4X4X4X4X",
"4X4X4X4X4X4X4X4X4X4X4X4X4X4X4X4X4X4X4X4X4X4X4X4X4X4X4X4X4X4X4X4X4X4X4X4X4X4X4X4X4X4X4X4X4X4X4X4X4X4X4X4X4X4X4X4X4X4X4X4X4X4X4X4X4X4X4X4X4X4X4X4X4X4X4X4X4X4X4X4X",
"4X4X4X4X4X4X4X4X4X4X4X4X4X4X4X4X4X4X4X4X4X4X4X4X4X4X4X4X4X4X4X4X4X4X4X4X4X4X4X4X4X4X4X4X4X4X4X4X4X4X4X4X4X4X4X4X4X4X4X4X4X4X4X4X4X4X4X4X4X4X4X4X4X4X4X4X4X4X4X4X",
"4X4X4X4X4X4X4X4X4X4X4X4X4X4X4X4X4X4X4X4X4X4X4X4X4X4X4X4X4X4X4X4X4X4X4X4X4X4X4X4X4X4X4X4X4X4X4X4X4X4X4X4X4X4X4X4X4X4X4X4X4X4X4X4X4X4X4X4X4X4X4X4X4X4X4X4X4X4X4X4X",
"4X4X4X4X4X4X4X4X4X4X4X4X4X4X4X4X4X4X4X4X4X4X4X4X4X4X4X4X4X4X4X4X4X4X4X4X4X4X4X4X4X4X4X4X4X4X4X4X4X4X4X4X4X4X4X4X4X4X4X4X4X4X4X4X4X4X4X4X4X4X4X4X4X4X4X4X4X4X4X4X",
"4X4X4X4X4X4X4X4X4X4X4X4X4X4X4X4X4X4X4X4X4X4X4X4X4X4X4X4X4X4X4X4X4X4X4X4X4X4X4X4X4X4X4X4X4X4X4X4X4X4X4X4X4X4X4X4X4X4X4X4X4X4X4X4X4X4X4X4X4X4X4X4X4X4X4X4X4X4X4X4X",
"4X4X4X4X4X4X4X4X4X4X4X4X4X4X4X4X4X4X4X4X4X4X4X4X4X4X4X4X4X4X4X4X4X4X4X4X4X4X4X4X4X4X4X4X4X4X4X4X4X4X4X4X4X4X4X4X4X4X4X4X4X4X4X4X4X4X4X4X4X4X4X4X4X4X4X4X4X4X4X4X",
"4X4X4X4X4X4X4X4X4X4X4X4X4X4X4X4X4X4X4X4X4X4X4X4X4X4X4X4X4X4X4X4X4X4X4X4X4X4X4X4X4X4X4X4X4X4X4X4X4X4X4X4X4X4X4X4X4X4X4X4X4X4X4X4X4X4X4X4X4X4X4X4X4X4X4X4X4X4X4X4X",
"4X4X4X4X4X4X4X4X4X4X4X4X4X4X4X4X4X4X4X4X4X4X4X4X4X4X4X4X4X4X4X4X4X4X4X4X4X4X4X4X4X4X4X4X4X4X4X4X4X4X4X4X4X4X4X4X4X4X4X4X4X4X4X4X4X4X4X4X4X4X4X4X4X4X4X4X4X4X4X4X",
"4X4X4X4X4X4X4X4X4X4X4X4X4X4X4X4X4X4X4X4X4X4X4X4X4X4X4X4X4X4X4X4X4X4X4X4X4X4X4X4X4X4X4X4X4X4X4X4X4X4X4X4X4X4X4X4X4X4X4X4X4X4X4X4X4X4X4X4X4X4X4X4X4X4X4X4X4X4X4X4X",
"4X4X4X4X4X4X4X4X4X4X4X4X4X4X4X4X4X4X4X4X4X4X4X4X4X4X4X4X4X4X4X4X4X4X4X4X4X4X4X4X4X4X4X4X4X4X4X4X4X4X4X4X4X4X4X4X4X4X4X4X4X4X4X4X4X4X4X4X4X4X4X4X4X4X4X4X4X4X4X4X"
};
