/* XPM */
static char *xpm_[] = {
/* columns rows colors chars-per-pixel */
"80 80 41 1 ",
"  c #010101",
". c #171717",
"X c #282828",
"o c #333333",
"O c #52240B",
"+ c #474747",
"@ c #595959",
"# c #696969",
"$ c #787878",
"% c #F25C0A",
"& c #F2600F",
"* c #F26618",
"= c #F06B21",
"- c #F36C21",
"; c #FB7225",
": c #F47B37",
"> c #F58749",
", c #F68D53",
"< c #F6925A",
"1 c #F79B68",
"2 c #F8A678",
"3 c #868686",
"4 c #989898",
"5 c #A5A5A5",
"6 c #B9B9B9",
"7 c #F8AC82",
"8 c #F9B38C",
"9 c #F9B995",
"0 c #FAC09F",
"q c #FAC5A7",
"w c #FBCDB4",
"e c #FBD1BA",
"r c #C6C6C6",
"t c #D7D7D7",
"y c #FCDBC9",
"u c #FDE4D7",
"i c #E6E6E6",
"p c #FEEDE4",
"a c #FEF2EB",
"s c #FEFEFE",
"d c None",
/* pixels */
"dddddddddddddddddddddddddddddddddddddddddddddddddddddddddddddddddddddddddddddddd",
"dddddddddddddddddddddddddddddddddddddddddddddddddddddddddddddddddddddddddddddddd",
"dddddddddddddddddddddddddddddddddddddddddddddddddddddddddddddddddddddddddddddddd",
"dddddddddddddddddddddddddddddddddddddddddddddddddddddddddddddddddddddddddddddddd",
"dddddddddddddddddddddddddddddddddddddddddddddddddddddddddddddddddddddddddddddddd",
"dddddddddddddddddddddddddddddddddddddddddddddddddddddddddddddddddddddddddddddddd",
"dddddddddddddddddddddddddddddddddddddddddddddddddddddddddddddddddddddddddddddddd",
"dddddddddddddddddddddddddddddddddddddddddddddddddddddddddddddddddddddddddddddddd",
"dddddddddddddddddddddddddddddddddddddddddddddddddddddddddddddddddddddddddddddddd",
"dddddddddddddddddddddddddddddddddddddddddddddddddddddddddddddddddddddddddddddddd",
"dddddddddddddddddddddddddddddddddddddddddddddddddddddddddddddddddddddddddddddddd",
"dddddddddddddddddddddddddddddddddddddddddddddddddddddddddddddddddddddddddddddddd",
"ddd                                                                          ddd",
"ddd                                                                          ddd",
"ddd         .                                                     ...        ddd",
"ddd      o4tiir3.    @444+    o444.   +44#    .444$    .344.     Xias@       ddd",
"ddd     $sssssss6   Xssss5    3sss4   4ss4    3ssss.   osss.     Xsss@       ddd",
"ddd    $ssssitis4   3sassr    5ssssX  6ss$   .issaso . +sst      .sss+       ddd",
"ddd   Xssst+  .3+  .issssa.   rssas6  tss+   3ssiss#   $ssr  .oXX+sss$.oX.   ddd",
"ddd   $sssX        3ss4rsso   tsssss+ asso  .ist$ss5   4ss5  3sssssssssss$   ddd",
"ddd   6ss6        .ass.5ss$  .asi4ssrXssa.  $ss3Xsst   6ss$  $sssssssssas$   ddd",
"ddd   6ss5        3ss5 @ss5  Xsst iss6sst  .isa. isa.  tss#  3sssssssssss$   ddd",
"ddd   5sst       .issr46sst  +ssr #sssssr  #ssi44iss+ .iss+  X@@@#sss4@@@X   ddd",
"ddd   #sss$    . $sssssssss. $ss4  rssss4  issssssss$ osss.      .sss+       ddd",
"ddd   .isss634t+ issiittsss+ 4ss$  +ssas$ #ssstiiiss5 +sss65r+   Xass@       ddd",
"ddd    +sssssss.$ssi. . 4ss3 rss@   6sss@ iss$ . ossi $ssssss+   Xsss@       ddd",
"ddd     Xrsssst.6ti#    +it3 5ttX   XtttX+itr     rtt $irttttX   .tti+       ddd",
"ddd       X@#+                                                               ddd",
"ddd                                                                          ddd",
"ddd                                                                          ddd",
"dddOOOOOOOOOOOOOOOOOOOOOOOOOOOOOOOOOOOOOOOOOOOOOOOOOOOOOOOOOOOOOOOOOOOOOOOOOOddd",
"ddd;;;;;;;;;;;;;;;;;;;;;;;;;;;;;;;;;;;;;;;;;;;;;;;;;;;;;;;;;;;;;;;;;;;;;;;;;;ddd",
"ddd-=---=-=-======-=-=--===-=-==*---=*==---=-=-==-==-*---=-===-=--==-=-===-==ddd",
"ddd----------------*---------------------------------------------------------ddd",
"ddd--------------------------*------------*----------------------------------ddd",
"ddd---------------------------------------;-*-------------------*---------*--ddd",
"ddd------------;--------------------------------------------*----------------ddd",
"ddd-------*--***------*-*--*-----------------------*--------------;----------ddd",
"ddd-----*qpyuyuy;*--*:yuuuuu9*---;-------------------------------------------ddd",
"ddd-----*>ssssss9*;-&qssssss:--=*****--------------------------------*-------ddd",
"ddd-----;&7ssssss:**,ssssss1%--;,,,,,----------------------------------------ddd",
"ddd-------*ysssssq*=usssssq&--*<ssssu*--------*------------------------------ddd",
"ddd----*--*>ssssss>1sssssp;---*<ssssu-------------------*----------=---------ddd",
"ddd------*-*2sssssypsssss<=---*<ssssu-----*--------*----;-*****---*=*--------ddd",
"ddd---------*yssssssssss9*----*<ssssu---;-------**::;---*-,272:*=:;:;:-----*-ddd",
"ddd-------*-*:assssssssu=-----yasssssupq&1auuaq%1yas2&-*1usssssq,aaaau;------ddd",
"ddd----------*2ssssssss>*;--*-assssssssy%7ssssw8ssss2&*8ssssssssassssa-------ddd",
"ddd-----------*wssssss7*------ussssssssy%2ssssasssss2%2ssssssssssssssp;------ddd",
"ddd-----*;----&9ssssss<&-----;assssssssu%2ssssssssss2-sssssssasssssssp;==----ddd",
"ddd---------;*<sssssssa:*;----19ssssp121&2sssssse219,2sssssu,-:9sssssp-------ddd",
"ddd---------*:asssssssse*-----%>ssssu&**&2sssss9&**&&essssp;*-*%9ssssp;------ddd",
"ddd---------*essssssssss2*----*<ssssu---*2ssssp---;-*ussss9&---*:ssssp-------ddd",
"ddd--------*2sssssassssss:*--;*,ssssu---&2sssse*-----ussss7&----:ssssp-*-----ddd",
"ddd-------*>ssssss>9sssssy*---*<ssssu---*2sssse&----*usssse&;--*<ssssa;------ddd",
"ddd----;---usssss9&-psssss8&--*<ssssu---&2sssse&---;&qsssss2&&*:ussssp:=-----ddd",
"ddd----*-*qsssssu--*<ssssss,=-*<ssssu--;&2sssse*----*<sssssse79asssssp-=-----ddd",
"ddd-----&1ssssss>*--*qsssssu--*,ssssu---&2ssssw*----**yssssssssssssssp;-;*---ddd",
"ddd----*:ssssss8*;----asssssq&*,ssssu*--*2ssssw*-----*:asssssssssssssp-------ddd",
"ddd----;usssssy*-----*1ssssss2&1ssssp--;&7ssssy*;-----*:usssssss9ssssa;------ddd",
"ddd---*>089999>*------*2989997&>99997---*,99891*-------**2yaauw:;99997-------ddd",
"ddd----*&*&*&**--------*&*&&&*--&&&**----*&&&**----------**;:-**-*&*&**------ddd",
"ddd---------------------;---;-=--;-------;;-----------------*---------;------ddd",
"ddd--------------------------------------------------------------------------ddd",
"ddd---;-------------------------------*--------------------------------------ddd",
"ddd-------------*-----------------------------*------------------------------ddd",
"ddd---------------------*---------------------;-------*----------------------ddd",
"ddd---------------------;---------------------------------------------*------ddd",
"ddd-==--==--==-=----==--==-==*--==-;*--==--=-=--===-===-==-;*--=---==-==-=-;=ddd",
"dddddddddddddddddddddddddddddddddddddddddddddddddddddddddddddddddddddddddddddddd",
"dddddddddddddddddddddddddddddddddddddddddddddddddddddddddddddddddddddddddddddddd",
"dddddddddddddddddddddddddddddddddddddddddddddddddddddddddddddddddddddddddddddddd",
"dddddddddddddddddddddddddddddddddddddddddddddddddddddddddddddddddddddddddddddddd",
"dddddddddddddddddddddddddddddddddddddddddddddddddddddddddddddddddddddddddddddddd",
"dddddddddddddddddddddddddddddddddddddddddddddddddddddddddddddddddddddddddddddddd",
"dddddddddddddddddddddddddddddddddddddddddddddddddddddddddddddddddddddddddddddddd",
"dddddddddddddddddddddddddddddddddddddddddddddddddddddddddddddddddddddddddddddddd",
"dddddddddddddddddddddddddddddddddddddddddddddddddddddddddddddddddddddddddddddddd",
"dddddddddddddddddddddddddddddddddddddddddddddddddddddddddddddddddddddddddddddddd",
"dddddddddddddddddddddddddddddddddddddddddddddddddddddddddddddddddddddddddddddddd",
"dddddddddddddddddddddddddddddddddddddddddddddddddddddddddddddddddddddddddddddddd"
};
