/* XPM */
static char *xpm_[] = {
/* columns rows colors chars-per-pixel */
"80 80 203 2 ",
"   c #1C0000",
".  c #290202",
"X  c #380202",
"o  c #2B1010",
"O  c #3A2525",
"+  c #470202",
"@  c #5A0202",
"#  c #481515",
"$  c #571A1A",
"%  c #640404",
"&  c #790808",
"*  c #6C1E1E",
"=  c #731414",
"-  c #522020",
";  c #623838",
":  c #6C2929",
">  c #782828",
",  c #763232",
"<  c #723E3E",
"1  c #604C4C",
"2  c #644444",
"3  c #524747",
"4  c #7F4747",
"5  c #7F5858",
"6  c #7F5050",
"7  c #8C8C8C",
"8  c #7F6F6F",
"9  c #6A6A6A",
"0  c #606060",
"q  c #6B6B6B",
"w  c #715D5D",
"e  c #905555",
"r  c #805C5C",
"t  c #8B6E6E",
"y  c #808080",
"u  c #909090",
"i  c #848484",
"p  c #929292",
"a  c #2B2B2B",
"s  c #4E4E4E",
"d  c #424242",
"f  c #585858",
"g  c #343434",
"h  c #2F2F2F",
"j  c #000000",
"k  c #222222",
"l  c #090909",
"z  c #3F3F3F",
"x  c #5C5D5D",
"c  c #626262",
"v  c #626262",
"b  c #7B7B7B",
"n  c #6C6C6C",
"m  c #808080",
"M  c #A18B8B",
"N  c #B19494",
"B  c #928080",
"V  c #999999",
"C  c #A9A9A9",
"Z  c #B88F8F",
"A  c #B7B3B3",
"S  c #9D9595",
"D  c #777777",
"F  c #949393",
"G  c #8B8B8B",
"H  c #B1B1B1",
"J  c #B2B2B2",
"K  c #C3B9B9",
"L  c #CEC4C4",
"P  c #C5C1C1",
"I  c #E8DFDF",
"U  c #880606",
"Y  c #960707",
"T  c #871616",
"R  c #991414",
"E  c #A50D0D",
"W  c #A51818",
"Q  c #8A2727",
"!  c #952929",
"~  c #873A3A",
"^  c #983535",
"/  c #A72727",
"(  c #B52A2A",
")  c #A93939",
"_  c #984747",
"`  c #874545",
"'  c #964848",
"]  c #885454",
"[  c #9A5656",
"{  c #A94747",
"}  c #B94646",
"|  c #A85858",
" . c #B85858",
".. c #8D6E6E",
"X. c #976969",
"o. c #8D7F7F",
"O. c #987474",
"+. c #A86666",
"@. c #B26262",
"#. c #A77575",
"$. c #BA7878",
"%. c #9D5050",
"&. c #C47979",
"*. c #C34848",
"=. c #C55757",
"-. c #D35555",
";. c #C06969",
":. c #D36D6D",
">. c #C87575",
",. c #D57777",
"<. c #E36D6D",
"1. c #D6C6C6",
"2. c #C68E8E",
"3. c #D1B6B6",
"4. c #E2C7C7",
"5. c #F2E2E2",
"6. c #9C8A8A",
"7. c #9B9B9B",
"8. c #A9A9A9",
"9. c #AA8484",
"0. c #BD8A8A",
"q. c #A59494",
"w. c #B89B9B",
"e. c #B4A0A0",
"r. c #B1AFAF",
"t. c #B2A8A8",
"y. c #BCBBBB",
"u. c #B8B8B8",
"i. c #C4C4C4",
"p. c #A0A0A0",
"a. c #AAAAAA",
"s. c #C1C1C1",
"d. c #B5B5B5",
"f. c #C7C7C7",
"g. c #DFDFDF",
"h. c #E4E5E5",
"j. c #C68686",
"k. c #D98585",
"l. c #C69797",
"z. c #DB9D9D",
"x. c #E78888",
"c. c #E69898",
"v. c #CAA9A9",
"b. c #D8A6A6",
"n. c #C8B9B9",
"m. c #D4BDBD",
"M. c #E6AAAA",
"N. c #E6BBBB",
"B. c #F2BBBB",
"V. c #C9C9C9",
"C. c #D7CACA",
"Z. c #CED2D2",
"A. c #D8D7D7",
"S. c #DEDEDE",
"D. c #E9E9E9",
"F. c #EAC7C7",
"G. c #F5CACA",
"H. c #E5D9D9",
"J. c #FADCDC",
"K. c #DCE1E1",
"L. c #EAE9E9",
"P. c #F7E7E7",
"I. c #EEF1F1",
"U. c #FDFDFD",
"Y. c #E4E4E4",
"T. c #C1C1C1",
"R. c #D9D9D9",
"E. c #D5D5D5",
"W. c #DDDDDD",
"Q. c #0D0D0D",
"!. c #0D0D0D",
"~. c #353535",
"^. c #797979",
"/. c #919191",
"(. c #696969",
"). c #121212",
"_. c #0C0C0C",
"`. c #565656",
"'. c #565656",
"]. c #707070",
"[. c #9B9A9A",
"{. c #C5C8C8",
"}. c #9E9E9E",
"|. c #B3B3B3",
" X c #7E7E7E",
".X c #C6CBCB",
"XX c #F5F7F7",
"oX c #F9F7F7",
"OX c #FCFCFC",
"+X c #DEE0E0",
"@X c #B3B3B3",
"#X c #FFFFFF",
"$X c #FFFFFF",
"%X c #101010",
"&X c #575757",
"*X c #0C0C0C",
"=X c #C7C2C2",
"-X c #FFFFFF",
";X c #FCFBFB",
":X c #A5A7A7",
">X c #1E1D1D",
",X c #E5DDDD",
"<X c None",
/* pixels */
"<X<X<X<X<X<X<X<X<X<X<X<X<X<X<X<Xj j j j j j j j j j j j j j j j j j j j j j j j j j j j j j j j j j j j j j j j j j j j j j j j <X<X<X<X<X<X<X<X<X<X<X<X<X<X<X<X",
"<X<X<X<X<X<X<X<X<X<X<X<X<X<X<X<Xj j j j j j j j j j j j j j j j j j j j j j j j j j j j j j j j j j j j j j j j j j j j j j j j <X<X<X<X<X<X<X<X<X<X<X<X<X<X<X<X",
"<X<X<X<X<X<X<X<X<X<X<X<X<X<X<X<Xj j j j j j j j j j j j j j j j j j j j j j j j j j j j j j j j j j j j j j j j j j j j j j j j <X<X<X<X<X<X<X<X<X<X<X<X<X<X<X<X",
"<X<X<X<X<X<X<X<X<X<X<X<X<X<X<X<Xj j j j j j j j j j j j j j j j j j j j j j j j j j j j j j j j j j j j j j j j j j j j j j j j <X<X<X<X<X<X<X<X<X<X<X<X<X<X<X<X",
"<X<X<X<X<X<X<X<X<X<X<X<X<X<X<X<Xj j j j j j j j j j j j j j j j j j j j j j j j j j j j j j j j j j j j j j j j j j j j j j j j <X<X<X<X<X<X<X<X<X<X<X<X<X<X<X<X",
"<X<X<X<X<X<X<X<X<X<X<X<X<X<X<X<Xj j j j j j j j j j j j j j j j j j j j j j j j j j j j j j j j j j j j j j j j j j j j j j j j <X<X<X<X<X<X<X<X<X<X<X<X<X<X<X<X",
"<X<X<X<X<X<X<X<X<X<X<X<X<X<X<X<Xj j j j j j j j j j j j j j j j j j j j j j j j j j j j j j j j j j j j j j j j j j j j j j j j <X<X<X<X<X<X<X<X<X<X<X<X<X<X<X<X",
"<X<X<X<X<X<X<X<X<X<X<X<X<X<X<X<Xj j j j j j j j j j j j j j j j j j j j j j j j j j j j j j j j j j j j j j j j j j j j j j j j <X<X<X<X<X<X<X<X<X<X<X<X<X<X<X<X",
"<X<X<X<X<X<X<X<X<X<X<X<X<X<X<X<Xj j j j j j j j j j j j j j j j j j j j j j j j j j j j j j j j j j j j j j j j j j j j j j j j <X<X<X<X<X<X<X<X<X<X<X<X<X<X<X<X",
"<X<X<X<X<X<X<X<X<X<X<X<X<X<X<X<Xj j j j j j j j j j j j j j j j j j j j j j j j j j j j j j j j j j j j j j j j j j j j j j j j <X<X<X<X<X<X<X<X<X<X<X<X<X<X<X<X",
"<X<X<X<X<X<X<X<X<X<X<X<X<X<X<X<Xj j j j j j j j j j j j j j j j j j j j j j j j j j j j j j j j j j j j j j j j j j j j j j j j <X<X<X<X<X<X<X<X<X<X<X<X<X<X<X<X",
"<X<X<X<X<X<X<X<X<X<X<X<X<X<X<X<Xj j j j j j j j j j j j j j j j j j j j j j j j j j j j j j j j j j j j j j j j j j j j j j j j <X<X<X<X<X<X<X<X<X<X<X<X<X<X<X<X",
"<X<X<X<X<X<X<X<X<X<X<X<X<X<X<X<Xj j j j j j j j j j j j j j j j j j j j j j j j j j j j j j j j j j j j j j j j j j j j j j j j <X<X<X<X<X<X<X<X<X<X<X<X<X<X<X<X",
"<X<X<X<X<X<X<X<X<X<X<X<X<X<X<X<Xj j j j j j j j j j j j j j j j j j j j j j j j j j j j j j j j j j j j j j j j j j j j j j j j <X<X<X<X<X<X<X<X<X<X<X<X<X<X<X<X",
"<X<X<X<X<X<X<X<X<X<X<X<X<X<X<X<Xj j j j j j j j j j j j j j j j j j j j j j j j j j j j j j j j j j j j j j j j j j j j j j j j <X<X<X<X<X<X<X<X<X<X<X<X<X<X<X<X",
"<X<X<X<X<X<X<X<X<X<X<X<X<X<X<X<Xj j j j j j j j j j j j j j j j j j j j j j j j j j j j j j j j j j j j j j j j j j j j j j j j <X<X<X<X<X<X<X<X<X<X<X<X<X<X<X<X",
"<X<X<X<X<X<X<X<Xj j j j j j j j j j j j j j j j j j j j j j j j j j j j j j j j j j j j j j j j j j j j j j j j j j j j j j j j <X<X<X<X<X<X<X<X<X<X<X<X<X<X<X<X",
"<X<X<X<X<X<X<X<Xj j j j j j j j j j j j j j j j j j j j j j j j j j j j j j j j j j j j j j j j j j j j j j j j j j j j j j j j <X<X<X<X<X<X<X<X<X<X<X<X<X<X<X<X",
"<X<X<X<X<X<X<X<Xj j j j j j j j j j j j j j j j j j j j j j j j j j j j j j j j j j j j j j j j j j j j j j j j j j j j j j j j <X<X<X<X<X<X<X<X<X<X<X<X<X<X<X<X",
"<X<X<X<X<X<X<X<Xj j j j j j j j j j j j j j j j j j j j j j j j j j j j j j j j j j j j j j j j j j j j j j j j j j j j j j j j <X<X<X<X<X<X<X<X<X<X<X<X<X<X<X<X",
"<X<X<X<X<X<X<X<Xj j j j j j j j j j j j j j j j j j j j j j j j j j j j j j j j j j j j j j j j j j j j j j j j j j j j j j j j <X<X<X<X<X<X<X<X<X<X<X<X<X<X<X<X",
"<X<X<X<X<X<X<X<Xj j j j j j j j j j j j j j j j j j j j j j j j j j j j j j j j j j j j j j j j j j j j j j j j j j j j j j j j <X<X<X<X<X<X<X<X<X<X<X<X<X<X<X<X",
"<X<X<X<X<X<X<X<Xj j j j j j j j j j j j j j j j j j j j j j j j j j j j j j j j j j j j j j j j j j j j j j j j j j j j j j j j <X<X<X<X<X<X<X<X<X<X<X<X<X<X<X<X",
"<X<X<X<X<X<X<X<Xj j j j j j j j j j j j j j j j j j j j j j j j j j j j j j j j j j j j j j j j j j j j j j j j j j j j j j j j <X<X<X<X<X<X<X<X<X<X<X<X<X<X<X<X",
"<X<X<X<Xj j j j j j j j <X>X).k j j j j *Xj j j j j j j j j j j j j j j j j j j j j j j j j j j j j j j j j j j j j j j j j j j <X<X<X<X<X<X<X<X<X<X<X<X<X<X<X<X",
"<X<X<X<Xj j j j j j j j ).@X[.H &X X}.'.a.@Xj j j j j j j j j j j j j j j j j j j j j j j j j j j j j j j j j j j j j j j j j j <X<X<X<X<X<X<X<X<X<X<X<X<X<X<X<X",
"<X<X<X<Xj j j j j j j j +X0 O # %.+.S.n.@.[ X.-Xj j j j j j j j j j j j j j j j j j j j j j j j j j j j j j j j j j j j j j j j <X<X<X<X<X<X<X<X<X<X<X<X<X<X<X<X",
"<X<X<X<Xj j j j j j j c o . + { z.V.V.V.P.P.F.X.@Xj j j j j j j j j j j j j j j j j j j j j j j j j j j j j j j j j j j j j j j <X<X<X<X<X<X<X<X<X<X<X<X<X<X<X<X",
"<X<X<X<X<X<Xj j j j n . . % k.I.K.H.K.K.K.K.K.K.g.e.a.Q.<X<Xj j j j j j j j j j j j j j j j j j j j j j j j j j j j j j j j j j <X<X<X<X<X<X<X<X<X<X<X<X<X<X<X<X",
"<X<X<X<X<X<Xj j j n . . % z.I.I.K.H.H.H.K.K.K.K.V.n.[ -Xj j j j j j j j j j j j j j j j j j j j j j j j j j j j j j j j j j j j <X<X<X<X<X<X<X<X<X<X<X<X<X<X<X<X",
"<X<X<X<X<X<X%Xg -X%.- @ >.I.I.I.K.K.H.F.F.C.H.H.Y.C.9.n j j j j j j j j j j j j j j j j j j j j j j j j j j j j j j j j j j j j <X<X<X<X<X<X<X<X<X<X<X<X<X<X<X<X",
"<X<X<X<X<X<X).@Xy.6.# Q N.I.I.I.K.F.F.H.K.K.H.F.N.b.b.X.;X).j j j j j j j j j j j j j j j j j j j j j j j j j j j j j j j j j j <X<X<X<X<X<X<X<X<X<X<X<X<X<X<X<X",
"j j j j j j '.n X + @ >.M.B.U.I.M.H.I.I.I.I.I.I.Z.l.m.Z...3 ).<Xj j j j j j j j >X<X<X<X<X<X<X<X<X<X<X<X<X<X<X<X<X<X<X<X<X<X<X<X<X<X<X<X<X<X<X<X<X<X<X<X<X<X<X<X",
"j j j j j *Xa.$ + + T k.c.c.B.z.F.I.I.I.I.I.I.I.Z.l.v.Z.W.@Xk ).).d W.+Xj j j ^.Z.*X@XT.S.@X<X<X].T.S.@X@Xf.S.T.T.S.S.T.S.T.T.S.f.T.<X<X<X<X;Xf.T.S.@X<X<X<X<X<X",
"j j j j j j 3.% @ % ) ,.x.c.k.v.I.I.I.I.P.H.H.I.Z.@.@.S.V.] f.U.8.V.Z.V.k j +XS.U.P }.U.I.a.<X<X}.U.I.S f.U.U.U.U.I.I.I.I.I.U.U.U.U.`.<X<X<XP U.I.I.n >X<X<X<X<X",
"j j j j j j %.U = & } ,.,.k.$.I.I.I.I.9.` ` , #.9.| @.j.9.y.U.U.u.g.V.V.'.m V.V.U.n n U.I.3.*X<X}.U.U.+Xa.U.U.U.I.I.I.I.I.I.I.I.U.U.y <X>X<XT.U.I.K.z >X<X<X<X<X",
"j j j j <X/.;.T > & / =.:.@.l.U.U.U.X.: S.F.9.T ) }  .^ n.U.U.U.8 u.U.U.q A.K.K.0 Q.P U.U.u.D @XT.U.U.y `.y y 0 I.U.U.r.0 0 y L.U.U.p.<X<X<XV.U.I.f.).*X<X<X<X<X",
"j j j j ).3.{ ^ > { F.b.c.| C.U.U.n.# 9.H.D.L.) ) } ) 9.U.U.D.0 j a.U.I.+XD.K.Z.g *XD U.I.U.U.I.I.I.U.i *X_.).).L.I.U.7._.!._.a.U.U.D.!.<X].I.I.I.y >X*X<X<X<X<X",
"j j j j ;X3.Q ^ Q 0.U.U.U.| D.U.U.` @ t.A.A.A.=.( =.) v.I.D.6.T.*XS I.D.S Z.K.C.).<XD L.L.L.U.I.I.H.I.y _.<X<X).Z.L.I.7.%X>X<Xn L.L.L.(.<XP L.L.Z.a *X<X<X<X<X<X",
"j j j j ;X3.! ' Q j.U.U.U.] L.I.L.: @ w.A.A.A.Z.b.*.| n.L.y.6./.]..XL.D.d S.D.Z.n <X}.A.D.7.9 0 7.A.D.y *X<X<X).S.Z.L.7.%X<X<X%XS.D.D.y <Xa.D.H.7.).<X<X<X<X<X<X",
"j j j j j '.u.w.Q j.U.U.U.` D.L.Z.* @ #.U.U.U.U.U.,. .V.V.r.6.@X%XH L.Z.z D V.Z.u.*Xz V.V.0 !.!.g V.A.y %X<X<X].n.V.Z.8 *X<X<X*Xa.V.Z.7._.u.S.V.}.j j j j j j j ",
"j j j j j k @.9.Q j.U.U.U.` n.D.S.: % ~ U.U.U.U.U.x.@.V.Z.h.o.P ].H D.V.g _.f.D.A.D (.Z.Z.y *X<X}.Z.D.9 %X<X<X%XS.Z.Z.7.*X<X<X<XD D.Z.u.a Z.A.V.m j j j j j j j ",
"j j j j j r @.| Q >.U.P.J.~ q.V.Z.5 @ Q I.U.U.U.U.<.@.K.L.D.Z.A.Z.D.L.D.d *XD K.I.7.D I.L.y *X<X}.A.I.y >X<X<X%XZ.H.L.7._.<X<X<X).D.L.Z.7.L.L.u.'.j j j j j j j ",
"j j j j j ,X| { { W } ) ) T ..Z.D.n.@ > H.F.N.N.,.-.+.I.L.U.U.U.U.U.I.L.n <X].L.U.y.n U.U.y *X<X}.L.U.a.>X*X<X;XL.I.U.7._.<X<X<X<Xf.U.I.U.I.U.y j j j j j j j j ",
"j j j j j j #XS.{ R U / / R : D.D.U.w.% Q ! / )  .} | U.K.K.E.V u.Z.U.U.n <XP U.U.u.0 U.U.y *X<X}.I.I.a.%X<X<X%XI.U.U.s.*X<X<X<X<XP U.U.U.U.U.XXj j j j j j j j ",
"j j j j j j Z j.Q Q T W / W % q.U.I.U.m.] ~ [ v.I.^ [ U.K.K.L g j a.U.U.n (.U.U.U.0 n U.U.a.*X<X}.I.U.a.%X<X<X%XL.U.U.u._.<X<X<X<X].U.U.U.U.U./.j j j j j j j j ",
"j j j j j j w  .& > U R E E U @ A.U.U.U.U.U.U.U.U.v.~ U.K.S.).j <Xa.U.U.n D.U.U.i.l P U.U.a.<X<X}.U.U.a.*X<X<X%XI.U.U.E._.<X<X<X<X*XS.U.U.U.a.>Xj j j j j j j j ",
"j j j j j j j 4 % * T U Y Y j.^ % A.U.U.U.U.U.U.U.l.` L.n.3.j j <X).n 0 l P U.u.a ).%Xn 0 g *X<X*Xn n g %X<X<X<Xz n 0 n %X<X<X<X<X<X).0 0 n '.j j j j j j j j j ",
"j j j j j j j ,Xy.&.Q T U 9.V.V.{ Q 9.S.K.K.K.C.O.% l.K.7.^.j j <X<X*X_.%X%Xn g ).*X*X*X*X_.<X<X<X*X*X%X<X<X<X<X*X_._.*X<X<X<X<Xj j j j j j j j j j j j j j j j ",
"j j j j j j j j ] ' - T ' V.V.V.V.&.T : ] ] ~ * T T ^ v.n j j j <X<X<X<X<X<X*X_.<X<X<X<X<X<X<X<X<X<X<X<X<X<X<X<X<X<X*X<X<X<X<X<Xj j j j j j j j j j j j j j j j ",
"j j j j j j j j g w.] - ` Z.V.V.i.0.) { ' [ ;.l.Q T T r j j j j <X<X<X<X<X<X<X<X<X<X<X<X<X<X<X<X<X<X<X<X<X<X<X<X<X<X<X<X<X<X<X<Xj j j j j j j j j j j j j j j j ",
"j j j j j j j j j =X_ - Q { Z.Z.w.)  .} ;.K.K.K.Q U , 3.j j j j <X<X<X<X<X<X<X<X<X<X<X<X<X<X<X<X<X<X<X<X<X<X<X<X<X<X<X<X<X<X<X<Xj j j j j j j j j j j j j j j j ",
"j j j j j j j j j j -XS o $ Q l.{ ) } } j.V.V.V.Q : ,X_.j j j j <X<X<X<X<X<X<X<X<X<X<X<X<X<X<X<X<X<X<X<X<X<X<X<X<X<X<X<X<X<X<X<Xj j j j j j j j j j j j j j j j ",
"j j j j j j j j j j k j n o X = ! } ) ( j.V.n.V.` s j j j j j j <X<X<X<X<X<X<X<X<X<X<X<X<X<X<X<X<X<X<X<X<X<X<X<X<X<X<X<X<X<X<X<Xj j j j j j j j j j j j j j j j ",
"j j j j j j j j j j j j g a.0 # $.[ [ +.' ` m -X&X=Xk j j j j j <X<X<X<X<X<X<X<X<X<X<X<X<X<X<X<X<X<X<X<X<X<X<X<X<X<X<X<X<X<X<X<Xj j j j j j j j j j j j j j j j ",
"j j j j j j j j j j j j j &X'.@Xc w [.f 1 '.j j <X<Xj j j j j j <X<X<X<X<X<X<X<X<X<X<X<X<X<X<X<X<X<X<X<X<X<X<X<X<X<X<X<X<X<X<X<Xj j j j j j j j j j j j j j j j ",
"j j j j j j j j j j j j j j j j %Xk *Xj j j j j <X<X<X<X<X<X<X<X<X<X<X<X<X<X<X<X<X<X<X<X<X<X<X<X<X<X<X<X<X<X<X<X<X<X<X<X<X<X<X<Xj j j j j j j j j j j j j j j j ",
"j j j j j j j j j j j j j j j j <X<Xj j j j j j <X<X<X<X<X<X<X<X<X<X<X<X<X<X<X<X<X<X<X<X<X<X<X<X<X<X<X<X<X<X<X<X<X<X<X<X<X<X<X<Xj j j j j j j j j j j j j j j j ",
"j j j j j j j j j j j j j j j j <X<X<X<Xj j j j <X<X<X<X<X<X<X<X<X<X<X<X<X<X<X<X<X<X<X<X<X<X<X<X<X<X<X<X<X<X<X<X<X<X<X<X<X<X<X<Xj j j j j j j j j j j j j j j j ",
"j j j j j j j j j j j j j j j j <X<X<X<Xj j j j <X<X<X<X<X<X<X<X<X<X<X<X<X<X<X<X<X<X<X<X<X<X<X<X<X<X<X<X<X<X<X<X<X<X<X<X<X<X<X<Xj j j j j j j j j j j j j j j j ",
"j j j j j j j j j j j j j j j j <X<X<X<X<X<X<X<X<X<X<X<X<X<X<X<X<X<X<X<X<X<X<X<X<X<X<X<X<X<X<X<X<X<X<X<X<X<X<X<X<X<X<X<X<X<X<X<Xj j j j j j j j j j j j j j j j ",
"j j j j j j j j j j j j j j j j <X<X<X<X<X<X<X<X<X<X<X<X<X<X<X<X<X<X<X<X<X<X<X<X<X<X<X<X<X<X<X<X<X<X<X<X<X<X<X<X<X<X<X<X<X<X<X<Xj j j j j j j j j j j j j j j j ",
"j j j j j j j j j j j j j j j j <X<X<X<X<X<X<X<X<X<X<X<X<X<X<X<X<X<X<X<X<X<X<X<X<X<X<X<X<X<X<X<X<X<X<X<X<X<X<X<X<X<X<X<X<X<X<X<Xj j j j j j j j j j j j j j j j ",
"j j j j j j j j j j j j j j j j <X<X<X<X<X<X<X<X<X<X<X<X<X<X<X<X<X<X<X<X<X<X<X<X<X<X<X<X<X<X<X<X<X<X<X<X<X<X<X<X<X<X<X<X<X<X<X<Xj j j j j j j j j j j j j j j j ",
"j j j j j j j j j j j j j j j j j j j j j j j j j j j j j j j j j j j j j j j j j j j j j j j j j j j j j j j j j j j j j j j j j j j j j j j j j j j j j j j j ",
"j j j j j j j j j j j j j j j j j j j j j j j j j j j j j j j j j j j j j j j j j j j j j j j j j j j j j j j j j j j j j j j j j j j j j j j j j j j j j j j j ",
"j j j j j j j j j j j j j j j j j j j j j j j j j j j j j j j j j j j j j j j j j j j j j j j j j j j j j j j j j j j j j j j j j j j j j j j j j j j j j j j j ",
"j j j j j j j j j j j j j j j j j j j j j j j j j j j j j j j j j j j j j j j j j j j j j j j j j j j j j j j j j j j j j j j j j j j j j j j j j j j j j j j j ",
"j j j j j j j j j j j j j j j j j j j j j j j j j j j j j j j j j j j j j j j j j j j j j j j j j j j j j j j j j j j j j j j j j j j j j j j j j j j j j j j j ",
"j j j j j j j j j j j j j j j j j j j j j j j j j j j j j j j j j j j j j j j j j j j j j j j j j j j j j j j j j j j j j j j j j j j j j j j j j j j j j j j j ",
"j j j j j j j j j j j j j j j j j j j j j j j j j j j j j j j j j j j j j j j j j j j j j j j j j j j j j j j j j j j j j j j j j j j j j j j j j j j j j j j j ",
"j j j j j j j j j j j j j j j j j j j j j j j j j j j j j j j j j j j j j j j j j j j j j j j j j j j j j j j j j j j j j j j j j j j j j j j j j j j j j j j j ",
"j j j j j j j j j j j j j j j j j j j j j j j j j j j j j j j j j j j j j j j j j j j j j j j j j j j j j j j j j j j j j j j j j j j j j j j j j j j j j j j j ",
"j j j j j j j j j j j j j j j j j j j j j j j j j j j j j j j j j j j j j j j j j j j j j j j j j j j j j j j j j j j j j j j j j j j j j j j j j j j j j j j j ",
"j j j j j j j j j j j j j j j j j j j j j j j j j j j j j j j j j j j j j j j j j j j j j j j j j j j j j j j j j j j j j j j j j j j j j j j j j j j j j j j j ",
"j j j j j j j j j j j j j j j j j j j j j j j j j j j j j j j j j j j j j j j j j j j j j j j j j j j j j j j j j j j j j j j j j j j j j j j j j j j j j j j j ",
"j j j j j j j j j j j j j j j j j j j j j j j j j j j j j j j j j j j j j j j j j j j j j j j j j j j j j j j j j j j j j j j j j j j j j j j j j j j j j j j j ",
"j j j j j j j j j j j j j j j j j j j j j j j j j j j j j j j j j j j j j j j j j j j j j j j j j j j j j j j j j j j j j j j j j j j j j j j j j j j j j j j j ",
"j j j j j j j j j j j j j j j j j j j j j j j j j j j j j j j j j j j j j j j j j j j j j j j j j j j j j j j j j j j j j j j j j j j j j j j j j j j j j j j j ",
"j j j j j j j j j j j j j j j j j j j j j j j j j j j j j j j j j j j j j j j j j j j j j j j j j j j j j j j j j j j j j j j j j j j j j j j j j j j j j j j j "
};
