/* XPM */
static char *xpm_[] = {
/* columns rows colors chars-per-pixel */
"80 80 43 1 ",
"  c #D10000",
". c #D10000",
"X c #D10000",
"o c #E92100",
"O c #D10000",
"+ c #D10000",
"@ c #D10000",
"# c #D10000",
"$ c #D10000",
"% c #D10000",
"& c #D10000",
"* c #D10000",
"= c #FF4000",
"- c #FF4000",
"; c #FF4000",
": c #FF4000",
"> c #FF4000",
", c #D10000",
"< c #D10000",
"1 c #FF4000",
"2 c #FF4000",
"3 c #FF4000",
"4 c #D00000",
"5 c #FF4000",
"6 c #FF4000",
"7 c #D10000",
"8 c #D10000",
"9 c #D10000",
"0 c #D30300",
"q c #D10000",
"w c #FF4000",
"e c #FF4000",
"r c #D00000",
"t c #FF4000",
"y c #FF4000",
"u c #D10000",
"i c #D10000",
"p c #EE2800",
"a c #FF4000",
"s c #EE2800",
"d c #D10000",
"f c #EC2500",
"g c None",
/* pixels */
"gggggggggggggggggggggggggggggggggggggggggggggggggggggggggggggggggggggggggggggggg",
"gggggggggggggggggggggggggggggggggggggggggggggggggggggggggggggggggggggggggggggggg",
"gggggggggggggggggggggggggggggggggggggggggggggggggggggggggggggggggggggggggggggggg",
"gggggggggggggggggggggggggggggggggggggggggggggggggggggggggggggggggggggggggggggggg",
"gggggggggggggggggggggggggggggggggggggggggggggggggggggggggggggggggggggggggggggggg",
"gggggggggggggggggggggggggggggggggggggggggggggggggggggggggggggggggggggggggggggggg",
"gggggggggggggggggggggggggggggggggggggggggggggggggggggggggggggggggggggggggggggggg",
"gggggggggggggggggggggggggggggggggggggggggggggggggggggggggggggggggggggggggggggggg",
"gggggggggggggggggggggggggggggggggggggggggggggggggggggggggggggggggggggggggggggggg",
"gggggggggggggggggggggggggggggggggggggggggggggggggggggggggggggggggggggggggggggggg",
"gggggggggggggggggggggggggggggggggggggggggggggggggggggggggggggggggggggggggggggggg",
"gggggggggggggggggggggggggggggggggggggggggggggggggggggggggggggggggggggggggggggggg",
"gggggggggggggggggggggggggggggggggggggggggggggggggggggggggggggggggggggggggggggggg",
"gggggggggggggggggggggggggggggggggggggggggggggggggggggggggggggggggggggggggggggggg",
"gggggggggggggggggggggggggggggggggggggggggggggggggggggggggggggggggggggggggggggggg",
"gggggggggggggggggggggggggggggggggggggggggggggggggggggggggggggggggggggggggggggggg",
"gggggggggggggggggggggggggggggggggggggggggggggggggggggggggggggggggggggggggggggggg",
"gggggggggggggggggggggggggggggggggggggggggggggggggggggggggggggggggggggggggggggggg",
"gggggggggggggggggggggggggggggggggggggggggggggggggggggggggggggggggggggggggggggggg",
"gggggggggggggggggggggggggggggggggggggggggggggggggggggggggggggggggggggggggggggggg",
"gggggggggggggggggggggggggggggggggggggggggggggggggggggggggggggggggggggggggggggggg",
"gggggggggggggggggggggggggggggggggggggggggggggggggggggggggggggggggggggggggggggggg",
"gggggggggggggggggggggggggggggggggggggggggggggggggggggggggggggggggggggggggggggggg",
"gggggggggggggggggggggggggggggggggggggggggggggggggggggggggggggggggggggggggggggggg",
"gggggggggggggggggggggggggggggggggggggggggggggggggggggggggggggggggggggggggggggggg",
"gggggggggggggggggggggggggggggggggggggggggggggggggggggggggggggggggggggggggggggggg",
"gggggggggggggggggggggggggggggggggggggggggggggggggggggggggggggggggggggggggggggggg",
"gggggggggggggggggggggggggggggggggggggggggggggggggggggggggggggggggggggggggggggggg",
"gggggggggggggggggggggggggggggggggggggggggggggggggggggggggggggggggggggggggggggggg",
"gggggggggggggggggggggggggggggggggggggggggggggggggggggggggggggggggggggggggggggggg",
"gggggggggggggggggggggggggggggggggggggggggggggggggggggggggggggggggggggggggggggggg",
"gggggggggggggggggggggggggggggggggggggggggggggggggggggggggggggggggggggggggggggggg",
"gggggggggggggggggggggggggggggggggggggggggggggggggggggggggggggggggggggggggggggggg",
"gggggggggggggggggggggggggggggggggggggggggggggggggggggggggggggggggggggggggggggggg",
"ggggggggggggggggggggggggggggggggggggggggggggggggggggdggf>>aggggggggggggggggggggg",
"ggggggggggggggggggggggggggggggggggggggggggggggdgggdatagy>>-gggggggggggdggggggggg",
"gggggggdggggddgdggggggggggggggggggggggggggggggggggg>>6df>>tggggggggggdgggggggggg",
"gggggddfdgdfudddggggsddsggggrdgggggdsqsgfffdggsayfd=>1fgsefgggsaagggdssgfyaggggg",
"ggggu4dd<4d4&fg<rgsrgr@rgg4&&&*dgggw>>>2->:gf=>>>w;>>>=f>>wgg3>>>>6gd>>5>>>-sggg",
"ggdf&fggs4gr&ugr&grrggsdg4&$++&&sga>>>>>>>1g;>>>>61>>>=d>>tg>>>>>>>eg>>>>>>>>ggg",
"ggg,&ggggsdr&dg4&g4*gggg7&r4%*q4:g>>>sf6>>6y>>6faag=>;as>>ey>>5fs>>>f>>-ss:>>ggg",
"ggg&<gggggg4&id,rgr&&4sg4rr&&&%g+.>>egdg:>21>>ggggg;>1gf=>t5>>ggda>>y;>6gg3>=ggg",
"ggg&$ggggggr&ud44ggr*&&4.gr&%&&gy.>>addg5>13>:ggggg=>6gs=>a1>>gggf>>e=>6gg3>>ggg",
"ggg&$gggggg4&ddu&rgggrO#r+7&&&4s#d>>:ggf>>:w>>agffg=>3gf=>ye>>tggt>>y>>egg3>>ggg",
"ggg@&ggggsgr&rgr&4ugggd*d&O.16y=4g>>>16>>>3f>>>3>3g>>6gf>>ef>>>12>>;g>>6gg3>=ggg",
"gggfOggg44g4&dg7&g44ggrrgf&&*;-3ggd>>>>>>>>ga>>>>3g>>;gf>>6gs>>>>>-dg>>:gg6>>ggg",
"ggggs9dd4sgrOrd7ggu4uddgggg+@+aggggs615sa6tggs1;2sgt3ygge5sggf6>;eggg46pggp:6ggg",
"gggddggggggggggggggddgggggggggggggggggggggdggggggggggggggggggggggggggggggggggggg",
"gggggggggggggggggggggggggggggggggggggggggggggggggggggggggggggggggggggggggggggggg",
"gggggggggggggggggggggggggggggggggggggggggggggggggggggggggggggggggggggggggggggggg",
"gggggggggggggggggggggggggggggggggggggggggggggggggggggggggggggggggggggggggggggggg",
"gggggggggggggggggggggggggggggggggggggggggggggggggggggggggggggggggggggggggggggggg",
"gggggggggggggggggggggggggggggggggggggggggggggggggggggggggggggggggggggggggggggggg",
"gggggggggggggggggggggggggggggggggggggggggggggggggggggggggggggggggggggggggggggggg",
"gggggggggggggggggggggggggggggggggggggggggggggggggggggggggggggggggggggggggggggggg",
"gggggggggggggggggggggggggggggggggggggggggggggggggggggggggggggggggggggggggggggggg",
"gggggggggggggggggggggggggggggggggggggggggggggggggggggggggggggggggggggggggggggggg",
"gggggggggggggggggggggggggggggggggggggggggggggggggggggggggggggggggggggggggggggggg",
"gggggggggggggggggggggggggggggggggggggggggggggggggggggggggggggggggggggggggggggggg",
"gggggggggggggggggggggggggggggggggggggggggggggggggggggggggggggggggggggggggggggggg",
"gggggggggggggggggggggggggggggggggggggggggggggggggggggggggggggggggggggggggggggggg",
"gggggggggggggggggggggggggggggggggggggggggggggggggggggggggggggggggggggggggggggggg",
"gggggggggggggggggggggggggggggggggggggggggggggggggggggggggggggggggggggggggggggggg",
"gggggggggggggggggggggggggggggggggggggggggggggggggggggggggggggggggggggggggggggggg",
"gggggggggggggggggggggggggggggggggggggggggggggggggggggggggggggggggggggggggggggggg",
"gggggggggggggggggggggggggggggggggggggggggggggggggggggggggggggggggggggggggggggggg",
"gggggggggggggggggggggggggggggggggggggggggggggggggggggggggggggggggggggggggggggggg",
"gggggggggggggggggggggggggggggggggggggggggggggggggggggggggggggggggggggggggggggggg",
"gggggggggggggggggggggggggggggggggggggggggggggggggggggggggggggggggggggggggggggggg",
"gggggggggggggggggggggggggggggggggggggggggggggggggggggggggggggggggggggggggggggggg",
"gggggggggggggggggggggggggggggggggggggggggggggggggggggggggggggggggggggggggggggggg",
"gggggggggggggggggggggggggggggggggggggggggggggggggggggggggggggggggggggggggggggggg",
"gggggggggggggggggggggggggggggggggggggggggggggggggggggggggggggggggggggggggggggggg",
"gggggggggggggggggggggggggggggggggggggggggggggggggggggggggggggggggggggggggggggggg",
"gggggggggggggggggggggggggggggggggggggggggggggggggggggggggggggggggggggggggggggggg",
"gggggggggggggggggggggggggggggggggggggggggggggggggggggggggggggggggggggggggggggggg",
"gggggggggggggggggggggggggggggggggggggggggggggggggggggggggggggggggggggggggggggggg",
"gggggggggggggggggggggggggggggggggggggggggggggggggggggggggggggggggggggggggggggggg",
"gggggggggggggggggggggggggggggggggggggggggggggggggggggggggggggggggggggggggggggggg",
"gggggggggggggggggggggggggggggggggggggggggggggggggggggggggggggggggggggggggggggggg"
};
