/* XPM */
static char *xpm_[] = {
/* columns rows colors chars-per-pixel */
"80 80 39 1 ",
"  c #559FD1",
". c #559FD1",
"X c #559FD1",
"o c #559FD1",
"O c #559FD0",
"+ c #559FD1",
"@ c #559FD1",
"# c #55A0D1",
"$ c #559FD1",
"% c #559FD1",
"& c #559FD1",
"* c #559FD0",
"= c #559FD0",
"- c #559FD0",
"; c #559FD1",
": c #559FD1",
"> c #559FD0",
", c #559FD0",
"< c #559FD0",
"1 c #559FD1",
"2 c #55A0D1",
"3 c #55A0D1",
"4 c #55A0D1",
"5 c #55A0D1",
"6 c #55A0D1",
"7 c #559FD1",
"8 c #55A0D1",
"9 c #55A0D1",
"0 c #55A0D1",
"q c #55A0D1",
"w c #55A0D1",
"e c #55A0D1",
"r c #56A0D2",
"t c #55A0D1",
"y c #55A0D1",
"u c #559FD0",
"i c #55A0D2",
"p c #54A0D1",
"a c None",
/* pixels */
"aaaaaaaaaaaaaaaaaaaaaaaaaaaaaaaaaaaaaaaaaaaaaaaaaaaaaaaaaaaaaaaaaaaaaaaaaaaaaaaa",
"aaaaaaaaaaaaaaaaaaaaaaaaaaaaaaaaaaaaaaaaaaaaaaaaaaaaaaaaaaaaaaaaaaaaaaaaaaaaaaaa",
"aaaaaaaaaaaaaaaaaaaaaaaaaaaaaaaaaaaaaaaaaaaaaaaaaaaaaaaaaaaaaaaaaaaaaaaaaaaaaaaa",
"aaaaaaaaaaaaaaaaaaaaaaaaaaaaaaaaaaaaaaaaaaaaaaaaaaaaaaaa4.aaaaaaaaaaaaaaaaaaaaaa",
"aaaaaaaaaaaaaaaaaaaaaaaaaaaaaaaaaaaaaaaaaaaaaaaaaaaaaaar>,%aaaaaaaaaaaaaaaaaaaaa",
"aaaaaaaaaaaaaaaaaaaaaaaaaaaaaaaaaaaaaaaaaaaaaaaaaaaaaaa0,1,:waaaaaaaaaaaaaaaaaaa",
"aaaaaaaaaaaaaaaaaaaaaaaaaaaaaaaaaaaaaaaaaaaaaaaaaaaaaaa0,>>,>7aaaaaaaaaaaaaaaaaa",
"aaaaaaaaaaaaaaaaaaaaaaaaaaaaaaaaaaaaaaaaaaaaaaaaaaaaata9,>,>,,.aaaaaaaaaaaaaaaaa",
"aaaaaaaaaaaaaaaaaaaaaaaaaaaaaaaaaaaaaaaaaaaaaaaaaaaa7,.9,,,,>,.aaaaaaaaaaaaaaaaa",
"aaaaaaaaaaaaaaaaaaaaaaaaaaaaaaaaaaaaaaaaaaaaaaaaaaaa1,,>,,,,,%aaaaaaaaaaaaaaaaaa",
"aaaaaaaaaaaaaaaaaaaaaaaaaaaaaaaaaaaaaaaaaaaaaaaaaaa:,,,,,,,1,Oaaaaaaaaaaaaaaaaaa",
"aaaaaaaaaaaaaaaaaaaaaaaaaaaaaaaaaaaaaaaaaaaaaaaaaa&,>,,,,,,,,&aaaaaaaaaaaaaaaaaa",
"aaaaaaaaaaaaaaaaaaaaaaaaaaaaaaaaaaaaaaaaaaaaaaaaa9,,,,,,,,,:,&aaaaaaaaaaaaaaaaaa",
"aaaaaaaaaaaaaaaaaaaaaaaaaaaaaaaaaaaaaaaaaaaaaaaa7,,,,,,,>,00,.aaaaaaaaaaaaaaaaaa",
"aaaaaaaaaaaaaaaaaaaaaaaaaaaaaaaaaaaaaaaaaaaaaaaa<,,,,,,,,Xa.,.aaap,taaaaaaaaaaaa",
"aaaaaaaaaaaaaaaaaaaaaaaaaaaaaaaaaaaaaaaaaaaaaaa%>,,,,,,,,aaO,&aaa,,%aaaaaaaaaaaa",
"aaaaaaaaaaaaaaaaaaaaaaaaaaaaaaaaaaaaaaaaaaaaaaa,,>,,,,,,uaaX,Xaa+,>aaaaaaaaaaaaa",
"aaaaaaaaaaaaaaaaaaaaaaaaaaaaaaaaaaaaaaaaaaaaaaa,,,,,,,,9aaaX,qaX,,uaaaaaaaaaaaaa",
"aaaaaaaaaaaaaaaaaaaaaaaaaaaaaaaaaaaaaaaaaaaaipa,,,,,,, aaaaX,5t,,3aaaaaaaaaaaaaa",
"aaaaaaaaaaaaaaaaaaaaaaaaaaaaaaaaaaaaaaaaaaaa,,r,,,,>,<aaaaa.,%,,Xaaaaaaaaaaaaaaa",
"aaaaaaaaaaaaaaaaaaaaaaaaaaaaaaaaaaaaaaaaaaa#,,,,,,,,,aaaaaao,,,1aaaaaaaaaaaaaaaa",
"aaaaaaaaaaaaaaaaaaaaaaaaaaaaaaaaaaaaaaaaaa4,,,,,,,,,,uaaaaao,,,uaaaaaaaaaaaaaaaa",
"aaaaaaaaaaaaaaaaaaaaaaaaaaaaaaaaaaaaaaaaaw,,,,,,,>,,,uaaaaaX,,taaaaaaaaaaaaaaaaa",
"aaaaaaaaaaaaaaaaaaaaaaaaaaaaaaaaaaaaaaaau,,,,,,,>,:<,aaaaaa0,$aaaaaaaaaaaaaaaaaa",
"aaaaaaaaaaaaaaaaaaaaaaaaaaaaaaaaaaaaaaaa;,,,,,,,,,p,,paaauaX,.aaaaaaaaaaaaaaaaaa",
"aaaaaaaaaaaaaaaaaaaaaaaaaaaaaaaaaaaaaaa&,,,,,,,,,pu,,iaaaaaX,.aaaaaaaaaaaaaaaaaa",
"aaaaaaaaaaaaaaaaaaaaaaaaaaaaaaaaaaaaaa7,,,,,,,,,tap,,uaaaaao, auaaaaaaaaaaaaaaaa",
"aaaaaaaaaaaaaaaaaaaaaaaaaaaaaaaaaaaaap,,,,,,,,,5aai,,iaaaaa , aaaaaaaaaaaaaaaaaa",
"aaaaaaaaaaaaaaaaaaaaaaaaaaaaaaaaaaaau,,,,,,,,,=aaap,,uaaaaaX,oaaaaaaaaaaaaaaaaaa",
"aaaaaaaaaaaaaaaaaaaaaaaaaaaaaaaaaaaa*,,,,,,,,,aaaai,,iaaaaaX,.aaaaaaaaaaaaaaaaaa",
"aaaaaaaaaaaaaaaaaaaaaaaaaaaaaaaaaaa8,,,,,,,,,iauaap,,uaaaaaX, aaaaaaaaaaaaaaaaaa",
"aaaaaaaaaaaaaaaaaaaaaaaaaaaaaaaaaai,,,,,,,,,6aaaaai,,paaaaaq,Oaaaaaaaaaaaaaaaaaa",
"aaaaaaaaaaaaaaaaauaaaaaaaaaaaaaaap,,,,,,,,,.aaaaaai,,uaaaaaX,oaaaaaaaaaaaaaaaaaa",
"aaaaaaaaaaaaaaaieerwrpaauaaaaaaaa=,,,,,,,,=aaaaaaaw,,iaaaaao,oaaaaaaaaaaaaaaaaaa",
"aaaaaaaaaaaaaaaX,,,,,,Oaaaaaaaaaau:,,,,,,,uaaaaaaa,,,uaaaaa , aaaaaaaaaaaaaaaaaa",
"aaaaaaaaaaaaaaaX,,,,,,,,waaaaaaaaaa9,,,,,yauaaaaa ,,,iaaaua ,Oaaaaaaaaaaaaaaaaaa",
"aaaaaaaaaaaaaaaX,,,,,,,,,3aaaaaaaaaaw,,,8aaaaaaa6,,,,uaaaaaX,oaaaaaaaaaaaaaaaaaa",
"aaaaaaaaaaaaaaa ,,,,,,,,,,-uaaaaaaaaau,@aaaaaaai,,,,,uaaaaaX,oaaaaaaaaaaaaaaaaaa",
"aaaaaaaaaaaaaaaX,,,,,;9q080taaaaaaaaaaaaaaaaaaa1,,,,,uaaaaaX, aaaaaaaaaaaaaaaaaa",
"aaaaaaaaaaaaaaa.,,,,,8aaaaaaaaaaaaaaaaaaaaaaaaa,,,,,,uaaaaaX,Oaaaaaaaaaaaaaaaaaa",
"aaaaaaaaaaaaaaaX,,,,,8aaaaaaaaaaaaaaaaaaaaaaaaa,,,,,,paaaaaX,oaaaaaaaaaaaaaaaaaa",
"aaaaaaaaaaaaaaaX,,,,,7aaaaaaaaaaaaaaaaaaaaaaaau,,,,,,paaaaao, aaaaaaaaaaaaaaaaaa",
"aaaaaaaaaaaaaaa.,,,,,qaaaaaaaaaaaaaaaaaaaaaaaaa>,,,,,uaaaaaO, aaaaaaaaaaaaaaaaaa",
"aaaaaaaaaaaaaaaq,,,,,.aaaaauaaaaaaaaaaaaaaaaaaa,,,,,,iaaaaa&,Oaaaaaaaaaaaaaaaaaa",
"aaaaa$=:+::---:,,,,,,0aaaaai@-:-<iaaaaaaaaaaaaa,,,,,,iaaaaao, aaaaaaaaaaaaaaaaaa",
"aaaaa,,,,,,,,,,,,,,,,8aaaaau,,,,,,7aauaaaaaaaaa,,,,,,iaaaaao, aaaaaaaaaaaaaaaaaa",
"aaaaa*,,,,,,,,,,,,,,,0aaaaau,,,,,,,Xaaaaaaaaaaa,,,,,,iaaaaao,Oaaaaaaaaaaaaaaaaaa",
"aaaaa1,,,,,,,,,,,,,,, aaaaau,,,,,,,,,uaaaaaaaau,,,,,,iaaaaao,Oaaaaaaaaaaaaaaaaaa",
"aaaaa>,,,,,,@;::*::-1taaaaau=------@1*uaaaaaaaa1,,,,,iaaaaa , aaaaaaaaaaaaaaaaaa",
"aaaaa,,,,,,paaaaaaaaaaaaaaaaaaaaaaaaaaaaaaaaaaa,,,,,,iaaaaa , aaaaaaaaaaaaaaaaaa",
"aaaaa*,,,,,uaaaaaaaaaaaaaaaaaaaaaaaaaaaaaaaaaaa,,,,,,uaaauaX, aaaaaaaaaaaaaaaaaa",
"aaaaaao,,,,uaaaaaaaaaaaaaaaaaaaaaaaaaaaaaaaaaaa,,,,,,paaaaa&,&aaaaaaaaaaaaaaaaaa",
"aaaaaaa2,,,waaaaaaaaaaaaaaaaaaaaaaaaaaaaaaaaaaa,,,,,,aaaaaa , aaaaaaaaaaaaaaaaaa",
"aaaaaaaai,,paaaaaaaaaaaaaaaaaaaaaaaaaaaaaaaaaau,,,,,,uaaaaaX, aaaaaaaaaaaaaaaaaa",
"aaaaaaaaau;paaaaaaaaaaaaaaaaaaaaaaaaaaaaaaaaaaa>,,,,,uaaaaaX, aaaaaaaaaaaaaaaaaa",
"aaaaaaaaaaauaaa3*+-;,6aaaaaaaaaaaaaaaaaaaaaaaaa,,,,,,uaaaaaX,Oaaaaaaaaaaaaaaaaaa",
"aaaaaaaaaaaaaaa ,,,,,2aaaaaaaaaaaaaaaaaaaaaaaaa,,,,,,paaaaaX, aaaaaaaaaaaaaaaaaa",
"aaaaaaaaaaaaaaa.,1,>,4auaaaaaaaaaaaaaaaaaaaaaaa,,,,,,paaaaaX, aaaaaaaaaaaaaaaaaa",
"aaaaaaaaaaaaaaaX,,,,,8aaaaaaaaaaaaaaaaaaaaaaaaa,,,,,,uaaaaa , aaaaaaaaaaaaaaaaaa",
"aaaaaaaaaaaaaaa.,,,,,8aaaaaaaaaaaaaaaaaaaaaaaau,,,,,,iaaaaa%,Oaaaaaaaaaaaaaaaaaa",
"aaaaaaaaaaaaaua ,,,,,8aaaaaaaaaaaaaaaaaaaaaaaaa,,,,,,uaaaaaX, aaaaaaaaaaaaaaaaaa",
"aaaaaaaaaaaaaauw,,,,,6aaaaaaaaaaaaaaaaaaaaaaaaa,,,,,,iaaaaaX, aaaaaaaaaaaaaaaaaa",
"aaaaaaaaaaaaaaaau*,,,5aaaaaaaaaaaaaaaaaaaaaaaaa,,,,,,uaaaaaX, aaaaaaaaaaaaaaaaaa",
"aaaaaaaaaaaaaaaaaa.,,8aaaaaaaaaaaaaaaaaaaaaaaaa,,,,,,iaaaaaX,Oaaaaaaaaaaaaaaaaaa",
"aaaaaaaaaaaaaaaaaaar,.aaaaaaaaaaaaaaaaaaauaaaau,,,,,,uaaaaao, aaaaaaaauaaaaaaaaa",
"aaaaaaaaaaaaaaaaaaaae2aaaaaaaaaaaaaaaaupwwwwiaa,,,,,,aaaaaa , aaaaaapraaaaaaaaaa",
"aaaaaaaaaaaaaaaaaaaaaaaaaaaaaaaaaaaaaa0,,,,,,oa,,,,,,iaaaaao, aaaaau,,@aauaaaaaa",
"aaaaaaaaaaaaaaaaaaaaaaaaaaaaaaaaaaaaaa0,,,,,,,,,,,,,,uaaaaao,Xaaaaau,,,,paaaaaaa",
"aaaaaaaaaaaaaaaaaaaaaaaaaaaaaaaaaaaaaa8,,,,,,,,,,,,,,uaaaaao,,.O  .%,,1,,yaaaaaa",
"aaaaaaaaaaaaaaaaaaaaaaaaaaaaaaaaaaaaaa0,,,,,,,,,,,,,,uaaaaaO,,,,,,,,,,,,,,$aaaaa",
"aaaaaaaaaaaaaaaaaaaaaaaaaaaaaaaaaaaaaa8,,,,,@0 X0q#,,paaaaao,@q .X.XXX70.X$2aaaa",
"aaaaaaaaaaaaaaaaaaaaaaaaaaaaaaaaaaaaua.,,,,,6aaaaau,,iaaaaa.,5aaaaaaaaaaaaaaaaaa",
"aaaaaaaaaaaaaaaaaaaaaaaaaaaaaaaaaaaaaae,,,,,.auaaap,,uaaaua , aaaaaaaaaaaaaaaaaa",
"aaaaaaaaaaaaaaaaaaaaaaaaaaaaaaaaaaaaaaai*,,,Xaaaaai,,iaaaaao,oaaaaaaaaaaaaaaaaaa",
"aaaaaaaaaaaaaaaaaaaaaaaaaaaaaaaaaaaaaaaaa.,,.aaaaap,,uaaaua&,Xaaaaaaaaaaaaaaaaaa",
"aaaaaaaaaaaaaaaaaaaaaaaaaaaaaaaaaaaaaaaaaa2,oaaaaaa*,iaaaaar,$aaaaaaaaaaaaaaaaaa",
"aaaaaaaaaaaaaaaaaaaaaaaaaaaaaaaaaaaaaaaaaaae3aaaaaaa.iaaaaaarqaaaaaaaaaaaaaaaaaa",
"aaaaaaaaaaaaaaaaaaaaaaaaaaaaaaaaaaaaaaaaaaaaaaaaaaaaaaaaaaaaaaaaaaaaaaaaaaaaaaaa",
"aaaaaaaaaaaaaaaaaaaaaaaaaaaaaaaaaaaaaaaaaaaaaaaaaaaaaaaaaaaaaaaaaaaaaaaaaaaaaaaa",
"aaaaaaaaaaaaaaaaaaaaaaaaaaaaaaaaaaaaaaaaaaaaaaaaaaaaaaaaaaaaaaaaaaaaaaaaaaaaaaaa"
};
