/* XPM */
static char *xpm_[] = {
/* columns rows colors chars-per-pixel */
"80 80 39 1 ",
"  c #000000",
". c #010101",
"X c #010101",
"o c #010101",
"O c #020202",
"+ c #020202",
"@ c #030303",
"# c #030303",
"$ c #CC0809",
"% c #CC0304",
"& c #CB0203",
"* c #CC0404",
"= c #CC0304",
"- c #CD0304",
"; c #CC0303",
": c #CC0001",
"> c #CD0304",
", c #CB0606",
"< c #CC0405",
"1 c #CC0707",
"2 c #010101",
"3 c #040404",
"4 c #050404",
"5 c #050505",
"6 c #C21111",
"7 c #CC0808",
"8 c #CA090A",
"9 c #C30909",
"0 c #CC0506",
"q c #CB0809",
"w c #CC0C0D",
"e c #060606",
"r c #090808",
"t c #C80808",
"y c #C60909",
"u c #C90808",
"i c #260B0B",
"p c #C50C0C",
"a c None",
/* pixels */
"aaaaaaaaaaaaaaaaaaaaaaaaaaaaaaaaaaaaaaaaaaaaaaaaaaaaaaaaaaaaaaaaaaaaaaaaaaaaaaaa",
"aaaaaaaaaaaaaaaaaaaaaaaaaaaaaaaaaaaaaaaaaaaaaaaaaaaaaaaaaaaaaaaaaaaaaaaaaaaaaaaa",
"aaaaaaaaaaaaaaaaaaaaaaaaaaaaaaaaaaaaaaaaaaaaaaaaaaaaaaaaaaaaaaaaaaaaaaaaaaaaaaaa",
"aaaaaaaaaaaaaaaaaaaaaaaaaaaaaaaaaaaaaaaaaaaaaaaaaaaaaaaaaaaaaaaaaaaaaaaaaaaaaaaa",
"aaaaaaaaaaaaaaaaaaaaaaaaaaaaaaaaaaaaaaaaaaaaaaaaaaaaaaaaaaaaaaaaaaaaaaaaaaaaaaaa",
"aaaaaaaaaaaaaaaaaaaaaaaaaaaaaaaaaaaaaaaaaaaaaaaaaaaaaaaaaaaaaaaaaaaaaaaaaaaaaaaa",
"aaaaaaaaaaaaaaaaaaaaaaaaaaaaaaaaaaaaaaaaaaaaaaaaaaaaaaaaaaaaaaaaaaaaaaaaaaaaaaaa",
"aaaaaaaaaaaaaaaaaaaaaaaaaaaaaaaaaaaaaaaaaaaaaaaaaaaaaaaaaaaaaaaaaaaaaaaaaaaaaaaa",
"aaaaaaaaaaaaaaaaaaaaaaaaaaaaaaaaaaaaaaaaaaaaaaaaaaaaaaaaaaaaaaaaaaaaaaaaaaaaaaaa",
"aaaaaaaaaaaaaaaaaaaaaaaaaaaaaaaaaaaaaaaaaaaaaaaaaaaaaaaaaaaaaaaaaaaaaaaaaaaaaaaa",
"aaaaaaaaaaaaaaaaaaaaaaaaaaaaaaaaaaaaaaaaaaaaaaaaaaaaaaaaaaaaaaaaaaaaaaaaaaaaaaaa",
"aaaaaaaaaaaaaaaaaaaaaaaaaaaaaaaaaaaaaaaaaaaaaaaaaaaaaaaaaaaaaaaaaaaaaaaaaaaaaaaa",
"aaaaaaaaaaaaaaaaaaaaaaaaaaaaaaaaaaaaaaaaaaaaaaaaaaaaaaaaaaaaaaaaaaaaaaaaaaaaaaaa",
"aaaaaaaaaaaaaaaaaaaaaaaaaaaaaaaaaaaaaaaaaaaaaaaaaaaaaaaaaaaaaaaaaaaaaaaaaaaaaaaa",
"aaaaaaaaaaaaaaaaaaaaaaaaaaaaaaaaaaaaaaaaaaaaaaaaaaaaaaaaaaaaaaaaaaaaaaaaaaaaaaaa",
"aaaaaaaaaaaaaaaaaaaaaaaaaaaaaaaaaaaaaaaaaaaaaaaaaaaaaaaaaaaaaaaaaaaaaaaaaaaaaaaa",
"aaaaaaaaaaaaaaaaaaaaaaaaaaaaaaaaaaaaaaaaaaaaaaaaaaaaaaaaaaaaaaaaaaaaaaaaaaaaaaaa",
"aaaaaaaaaaaaaaaaaaaaaaaaaaaaaaaaaaaaaaaaaaaaaaaaaaaaaaaaaaaaaaaaaaaaaaaaaaaaaaaa",
"aaaaaaaaaaaaaaaaaaaaaaaaaaaaaaaaaaaaaaaaaaaaaaaaaaaaaaaaaaaaaaaaaaaaaaaaaaaaaaaa",
"aaaaaaaaaaaaaaaaaaaaaaaaaaaaaaaaaaaaaaaaaaaaaaaaaaaaaaaaaaaaaaaaaaaaaaaaaaaaaaaa",
"aaaaaaaaaaaaaaaaaaaaaaaaaaaaaaaaaaaaaaaaaaaaaaaaaaaaaaaaaaaaaaaaaaaaaaaaaaaaaaaa",
"aaaaaaaaaaaaaaaaaaaaaaaaaaaaaaaaaaaaaaaaaaaaaaaaaaaaaaaaaaaaaaaaaaaaaaaaaaaaaaaa",
"aaaaaaaaaaaaaaaaaari4iaaaaaaaaaaaaaaaaaaaaaaaaaaaaaaaaaaaaaaaaaaaaaaaaaaaaaaaaaa",
"aaaaaaaariy=*yaaa@XXX@@6.....2aaaaa#.......oaaa#.......raaaao...........2aaaaaaa",
"aaaaaaaauw::::aaaXXX.........Oaaaaa2.......oaaa ......XaaaaaX...........#aaaaaaa",
"aaaaaaaau;::::iaaXXX.........Oaaaaa2.......Xaa5.......2aaaar............Oaaaaaaa",
"aaaaaaaaa9:::*aaiXXX..........aaaaa2.......oaa2.......5aaaar............+aaaaaaa",
"aaaaaaaaaw:::paa4XXX..........aaaaa#.......Xaao.......aaaaa5............Xaaaaaaa",
"aaaaaaaaaw:::waa4XX...........raaaa2.......oaa.......#aaaaa5............ raaaaaa",
"aaaaaaaai>::::ia4XXX..........5aaaa2.......oa2.......raaaaa2.............raaaaaa",
"aaaaaaaa1:::::t2@XXX..........2aaaa2.......oaO.......aaaaaaO.............5aaaaaa",
"aaaaaaa7::::::pi@XXX..........#aaaa#.......oaX......Oaaaaaao.............2aaaaaa",
"aaaaaaa;:::::;aao......@......+aaaa2.......Or.......2aaaaaaX......O      @aaaaaa",
"aaaaaip::::::1aa.......@ .....oaaaa2.......X2.......aaaaaar.......2      Oaaaaaa",
"aaaa2aw::::::waa ......5  .... aaaa2.......OO......oaaaaaar.......r      Xaaaaaa",
"aaaaaa-::::::wai.......ro .....rara#.......  ......2aaaaaa5.......a       aaaaaa",
"aaaaap:::::::i2u....  .a+......5aaa2.............. aaaaaaa2...... ao......raaaaa",
"aaa2a9::::::>ia4....  oaO......2aaa2..............Oaaaaaaa2......oaX......5aaaaa",
"aaaa21::::::1ar@....  oaO......#aaa2..............OaaaaaaaO......Oao......2aaaaa",
"aaaaw:::::::1ai@....  Oa#......Oaaa#..............Xaaaaaaao......#aO......#aaaaa",
"aaai::::::::i24@......Oa2......oara2...............aaaaaaa ......#a#......+aaaaa",
"aaip:::::::uaai@......2a2...... aaa2...............2aaaaaa.......5a2......Xaaaaa",
"aaay::::::iaaai@......5a5.......raa2.............. #aaaaar.......5a2...... aaaaa",
"aaa1:::::pa2aaiq......5ar.......raa2........ .....  raaaa5...... rar.......raaaa",
"aaa*::::1aaaaa5.......2r5...    2aa2.......XO ......raaaa2.......5r2.......5aaaa",
"aaa>:::::**=ua2.............    2aa2.......O2 ......2aaaa#.................2aaaa",
"aaa:::::::::9a#......... .      Oaa2.......Xr.......Oaaaa#.................#aaaa",
"aaa:::::::::4a+.........        Oaa2.......oa....... raaaO.................Oaaaa",
"aaa>::::::::ia@9............     aa2.......oaO  .... 5aaao.................oaaaa",
"aaa*:::::1,:ia@@............     aa2.......oa#  .... Oaaa ................. aaaa",
"aaaq::::w2a*au@@...... . ...    .5a#...... oa5  ......aar........ oX........raaa",
"aaii=:::piaaa@@@......raao..     2a#...... Xar  ......rar........raa .......5aaa",
"aaaay:::%aaaa4........raaO       3a#.......XaaX ......2a2....... aaaX.......2aaa",
"aaaap:::>iaaa3........raa#       @a2.......oaaO ......oa#....... aaaO.......#aaa",
"aaaai>:::waaa@........aaa#      .+a2.......Xaa2........a#.......oaaaO ......oaaa",
"aaaau:::>uaaa+........aaa2      . a2.......oaar........5O.......oaaa# ......Xaaa",
"aaaa;:::*aaaa@XX.....Xaaa2........a#.......Xaaa .......#X.......Oaaa#....... aaa",
"aaaaaaaaaaaaaaaraaaaaaaaaaaaaaaaaaaaaaaaaaaaaaaaaaaaaaaaaaaaaaaaaaaaaaaaaaaaaaaa",
"aaaaaaaaaaaaaaaaaaaaaaaaaaaaaaaaaaaaaaaaaaaaaaaaaaaaaaaaaaaaaaaaaaaaaaaaaaaaaaaa",
"aaaaaaaaaaaaaaaaaaaaaaaaaaaaaaaaaaaaaaaaaaaaaaaaaaaaaaaaaaaaaaaaaaaaaaaaaaaaaaaa",
"aaaaaaaaaaaaaaaaaaaaaaaaaaaaaaaaaaaaaaaaaaaaaaaaaaaaaaaaaaaaaaaaaaaaaaaaaaaaaaaa",
"aaaaaaaaaaaaaaaaaaaaaaaaaaaaaaaaaaaaaaaaaaaaaaaaaaaaaaaaaaaaaaaaaaaaaaaaaaaaaaaa",
"aaaaaaaaaaaaaaaaaaaaaaaaaaaaaaaaaaaaaaaaaaaaaaaaaaaaaaaaaaaaaaaaaaaaaaaaaaaaaaaa",
"aaaaaaaaaaaaaaaaaaaaaaaaaaaaaaaaaaaaaaaaaaaaaaaaaaaaaaaaaaaaaaaaaaaaaaaaaaaaaaaa",
"aaaaaaaaaaaaaaaaaaaaaaaaaaaaaaaaaaaaaaaaaaaaaaaaaaaaaaaaaaaaaaaaaaaaaaaaaaaaaaaa",
"aaaaaaaaaaaaaaaaaaaaaaaaaaaaaaaaaaaaaaaaaaaaaaaaaaaaaaaaaaaaaaaaaaaaaaaaaaaaaaaa",
"aaaaaaaaaaaaaaaaaaaaaaaaaaaaaaaaaaaaaaaaaaaaaaaaaaaaaaaaaaaaaaaaaaaaaaaaaaaaaaaa",
"aaaaaaaaaaaaaaaaaaaaaaaaaaaaaaaaaaaaaaaaaaaaaaaaaaaaaaaaaaaaaaaaaaaaaaaaaaaaaaaa",
"aaaaaaaaaaaaaaaaaaaaaaaaaaaaaaaaaaaaaaaaaaaaaaaaaaaaaaaaaaaaaaaaaaaaaaaaaaaaaaaa",
"aaaaaaaaaaaaaaaaaaaaaaaaaaaaaaaaaaaaaaaaaaaaaaaaaaaaaaaaaaaaaaaaaaaaaaaaaaaaaaaa",
"aaaaaaaaaaaaaaaaaaaaaaaaaaaaaaaaaaaaaaaaaaaaaaaaaaaaaaaaaaaaaaaaaaaaaaaaaaaaaaaa",
"aaaaaaaaaaaaaaaaaaaaaaaaaaaaaaaaaaaaaaaaaaaaaaaaaaaaaaaaaaaaaaaaaaaaaaaaaaaaaaaa",
"aaaaaaaaaaaaaaaaaaaaaaaaaaaaaaaaaaaaaaaaaaaaaaaaaaaaaaaaaaaaaaaaaaaaaaaaaaaaaaaa",
"aaaaaaaaaaaaaaaaaaaaaaaaaaaaaaaaaaaaaaaaaaaaaaaaaaaaaaaaaaaaaaaaaaaaaaaaaaaaaaaa",
"aaaaaaaaaaaaaaaaaaaaaaaaaaaaaaaaaaaaaaaaaaaaaaaaaaaaaaaaaaaaaaaaaaaaaaaaaaaaaaaa",
"aaaaaaaaaaaaaaaaaaaaaaaaaaaaaaaaaaaaaaaaaaaaaaaaaaaaaaaaaaaaaaaaaaaaaaaaaaaaaaaa",
"aaaaaaaaaaaaaaaaaaaaaaaaaaaaaaaaaaaaaaaaaaaaaaaaaaaaaaaaaaaaaaaaaaaaaaaaaaaaaaaa",
"aaaaaaaaaaaaaaaaaaaaaaaaaaaaaaaaaaaaaaaaaaaaaaaaaaaaaaaaaaaaaaaaaaaaaaaaaaaaaaaa",
"aaaaaaaaaaaaaaaaaaaaaaaaaaaaaaaaaaaaaaaaaaaaaaaaaaaaaaaaaaaaaaaaaaaaaaaaaaaaaaaa",
"aaaaaaaaaaaaaaaaaaaaaaaaaaaaaaaaaaaaaaaaaaaaaaaaaaaaaaaaaaaaaaaaaaaaaaaaaaaaaaaa"
};
