/* XPM */
static char *xpm_[] = {
/* columns rows colors chars-per-pixel */
"80 80 162 2 ",
"   c #1F574B",
".  c #255E52",
"X  c #1F705E",
"o  c #266859",
"O  c #35655C",
"+  c #26715F",
"@  c #286E60",
"#  c #346E62",
"$  c #2A7A66",
"%  c #377A6B",
"&  c #3C7E71",
"*  c #5E5C5D",
"=  c #615E5F",
"-  c #476D67",
";  c #53736F",
":  c #437F73",
">  c #597873",
",  c #6D6B6C",
"<  c #667F7D",
"1  c #7A7879",
"2  c #5C595A",
"3  c #646162",
"4  c #7D7B7C",
"5  c #9A9999",
"6  c #484546",
"7  c #434041",
"8  c #4E4C4D",
"9  c #787676",
"0  c #737172",
"q  c #868484",
"w  c #9E9D9D",
"e  c #AEADAD",
"r  c #9D9B9C",
"t  c #B1B0B1",
"y  c #7D7B7C",
"u  c #918F90",
"i  c #ABAAAA",
"p  c #D3D3D3",
"a  c #DBDBDB",
"s  c #807E7F",
"d  c #2A826C",
"f  c #36816F",
"g  c #2C8C74",
"h  c #398A75",
"j  c #2D9379",
"k  c #39947D",
"l  c #438275",
"z  c #54887D",
"x  c #63867E",
"c  c #817F80",
"v  c #3A9C82",
"b  c #2FA082",
"n  c #3BA688",
"m  c #36B18F",
"M  c #3EAC91",
"N  c #3DB191",
"B  c #5A8D82",
"V  c #459D87",
"C  c #5D9388",
"Z  c #648980",
"A  c #778C8A",
"S  c #69978D",
"D  c #799B96",
"F  c #40A88E",
"G  c #50A38F",
"H  c #40AD93",
"J  c #58AA96",
"K  c #41B293",
"L  c #56B39B",
"P  c #67AB9B",
"I  c #4DBBA1",
"U  c #57BCA5",
"Y  c #77ABA2",
"T  c #69BCAC",
"R  c #75BAAB",
"E  c #6BC0AB",
"W  c #72C0AF",
"Q  c #6DC2B0",
"!  c #76C5B6",
"~  c #898788",
"^  c #908E8F",
"/  c #888F95",
"(  c #918F90",
")  c #8C9599",
"_  c #979798",
"`  c #9C9B9B",
"'  c #A2A1A2",
"]  c #A09E9F",
"[  c #82A19D",
"{  c #93A19F",
"}  c #999EA3",
"|  c #A19FA0",
" . c #89A6A1",
".. c #9CA3A6",
"X. c #83B9AD",
"o. c #9DB0AD",
"O. c #8ABDB1",
"+. c #95BBB3",
"@. c #A6A8AA",
"#. c #B0AFAF",
"$. c #A8ADB1",
"%. c #ACB4B5",
"&. c #B6B9BA",
"*. c #BBBABA",
"=. c #BFBEBF",
"-. c #9C9A9B",
";. c #BBBABA",
":. c #D6D6D6",
">. c #DEDEDE",
",. c #C0BFBF",
"<. c #85C6B8",
"1. c #99C1B8",
"2. c #A8C4BD",
"3. c #B6C0BF",
"4. c #BBBEC1",
"5. c #C0BFC0",
"6. c #9DCFC5",
"7. c #9FD2CB",
"8. c #A2CBC3",
"9. c #BAC3C2",
"0. c #A9D5CE",
"q. c #BBD0CB",
"w. c #AED6D0",
"e. c #C8C9CA",
"r. c #D0CFCF",
"t. c #C3D1CE",
"y. c #CDCED0",
"u. c #D0CFD0",
"i. c #C9D4D3",
"p. c #D7D6D7",
"a. c #DEDEDE",
"s. c #E2DCDE",
"d. c #D4E0DE",
"f. c #DFDFE0",
"g. c #E0DFE0",
"h. c #DBE2E1",
"j. c #E7E7E7",
"k. c #F0EEEE",
"l. c #EFEFF0",
"z. c #F0EFF0",
"x. c #F5F5F5",
"c. c #D9D9D9",
"v. c #DDDDDD",
"b. c #DBDBDB",
"n. c #3F3C3D",
"m. c #3D3A3A",
"M. c #676565",
"N. c #828081",
"B. c #353233",
"V. c #3B3839",
"C. c #878686",
"Z. c #B0AFAF",
"A. c #A4A3A3",
"S. c #D7D6D6",
"D. c #DCDCDC",
"F. c #767474",
"G. c #353132",
"H. c #8F8D8D",
"J. c #B9B8B9",
"K. c #8C8B8B",
"L. c #DADADA",
"P. c None",
/* pixels */
"P.P.P.P.P.P.P.P.P.P.P.P.P.P.P.P.P.P.P.P.P.P.P.P.P.P.P.P.P.P.P.P.P.P.P.P.P.P.P.P.P.P.P.P.P.P.P.P.P.P.P.P.P.P.P.P.P.P.P.P.P.P.P.P.P.P.P.P.P.P.P.P.P.P.P.P.P.P.P.P.",
"P.P.P.P.P.P.P.P.P.P.P.P.P.P.P.P.P.P.P.P.P.P.P.P.P.P.P.P.P.P.P.P.P.P.P.P.P.P.P.P.P.P.P.P.P.P.P.P.P.P.P.P.P.P.P.P.P.P.P.P.P.P.P.P.P.P.P.P.P.P.P.P.P.P.P.P.P.P.P.P.",
"P.P.P.P.P.P.P.P.P.P.P.P.P.P.P.P.P.P.P.P.P.P.P.P.P.P.P.P.P.P.P.P.P.P.P.P.P.P.P.P.P.P.P.P.P.P.P.P.P.P.P.P.P.P.P.P.P.P.P.P.P.P.P.P.P.P.P.P.P.P.P.P.P.P.P.P.P.P.P.P.",
"P.P.P.P.P.P.P.P.P.P.P.P.P.P.P.P.S.b.:.e.j.j.j.j.j.p.j.p.p.s.d.p.p.d.s.p.p.p.p.p.p.u.p.i.u.u.r.y.y.a.a.a.a.e.a.a.e.e.e.&.*.| b.L.G.P.P.P.P.P.P.P.P.P.P.P.P.P.P.P.",
"P.P.P.P.P.P.P.P.P.P.P.P.P.K.b.j.x.z.x.x.x.x.x.x.x.x.x.z.z.x.x.l.l.l.l.l.k.k.j.k.k.j.j.j.j.j.j.j.j.j.j.j.p.j.g.d.j.p.j.p.g.p.u.a.@.i G.P.P.P.P.P.P.P.P.P.P.P.P.P.",
"P.P.P.P.P.P.P.P.P.P.P.P.b.x.x.x.x.x.x.x.x.x.x.x.x.x.x.z.z.z.l.l.l.l.l.j.j.k.k.j.j.j.j.j.j.j.g.j.j.s.j.p.p.j.j.p.p.j.p.p.s.p.p.p.g.a.p.b.G.P.P.P.P.P.P.P.P.P.P.P.",
"P.P.P.P.P.P.P.P.P.P.S.h.x.x.x.x.x.x.x.x.x.x.x.x.z.x.x.z.x.x.x.l.l.l.l.l.l.j.j.j.k.j.j.j.j.j.g.j.j.s.j.j.j.j.p.j.j.p.p.j.j.p.p.p.p.u.p.e.,.A.P.P.P.P.P.P.P.P.P.P.",
"P.P.P.P.P.P.P.P.P.b.k.x.x.x.x.x.x.x.x.x.x.x.x.x.x.x.x.z.z.z.l.l.l.k.l.j.l.l.j.k.j.j.j.j.j.j.j.j.h.j.p.j.h.s.j.p.j.p.j.p.p.p.p.j.s.p.p.u.p.,.i P.P.P.P.P.P.P.P.P.",
"P.P.P.P.P.P.P.P.c.z.x.x.x.x.x.x.x.x.x.x.x.x.x.x.x.l.l.x.x.z.l.l.j.l.l.j.j.l.j.j.j.j.j.j.j.j.h.j.j.p.j.p.j.h.j.p.p.j.j.p.p.p.p.h.s.p.p.p.p.p.5.r P.P.P.P.P.P.P.P.",
"P.P.P.P.P.P.P.A.k.x.x.x.x.x.x.x.x.x.x.x.x.x.x.x.x.x.x.z.l.z.l.l.l.l.l.l.l.l.j.l.l.j.j.j.j.j.j.g.j.j.j.j.s.j.p.j.j.p.p.p.j.p.s.p.p.p.p.p.p.p.r.&.y P.P.P.P.P.P.P.",
"P.P.P.P.P.P.n.p.x.x.x.x.x.x.x.x.x.x.x.x.x.x.x.x.x.x.l.x.l.l.l.l.l.l.j.l.l.j.l.j.j.k.l.j.j.j.j.f.j.h.p.j.p.j.j.p.p.p.j.j.s.p.p.p.p.p.p.p.p.p.u.y.a.A.P.P.P.P.P.P.",
"P.P.P.P.P.K.a.f.x.x.x.x.x.x.x.x.x.x.x.x.x.x.x.x.x.l.x.z.x.l.l.l.l.l.j.l.j.l.j.j.l.p.q.j.g.j.j.j.s.j.j.j.p.j.p.j.h.s.p.p.p.p.j.p.s.p.p.p.p.p.p.u.p.#.J.P.P.P.P.P.",
"P.P.P.P.P.-.f.p.x.x.x.x.x.x.x.x.x.x.x.x.x.x.x.x.l.x.l.l.z.l.l.l.l.j.l.j.l.j.j.l.p...9.k.j.j.g.j.j.j.j.p.j.p.j.s.p.j.p.p.h.p.d.s.p.p.p.p.p.p.p.u.p.,.0 P.P.P.P.P.",
"P.P.P.P.G.f.f.f.x.x.x.x.x.x.x.x.x.x.x.x.x.x.x.x.x.l.l.x.l.l.l.l.l.l.l.j.l.j.l.j.@.e.k.j.j.f.j.j.j.p.j.j.h.j.p.g.p.p.j.j.p.s.p.p.p.p.p.p.p.u.p.p.p.p.a.B.P.P.P.P.",
"P.P.P.P.b.g.x.x.x.x.x.x.x.x.x.x.x.x.x.x.l.x.x.l.l.x.l.l.l.l.l.l.l.l.j.l.j.l.j.j.h.j.j.j.j.j.j.f.d.j.p.j.j.p.j.p.j.p.p.p.p.s.p.s.p.p.p.p.p.p.p.p.p.p.u.y P.P.P.P.",
"P.P.P.G.e.x.x.x.x.x.x.x.x.x.x.x.j.x.x.x.x.x.x.l.x.l.l.x.z.k.l.j.j.l.l.j.l.j.j.j.k.j.j.j.j.g.f.j.j.s.j.h.p.j.p.j.p.j.j.p.s.d.p.p.p.p.p.p.p.u.u.p.p.p.s.#.P.P.P.P.",
"P.P.P.C.x.x.x.x.x.x.x.x.x.x.&.} } } 4.j.x.x.t.e.x.x.j...j.x.k.k.z.4.y.z.l.y.} } ......@.g.j.j.g.s.j.p.j.j.p.j.p.h.s.p.p.j.p.p.p.p.p.p.p.p.u.p.u.p.p.p.=.M.P.P.P.",
"P.P.P.u x.x.x.x.x.x.x.x.x...$.f.h.p.@.$.x.x.4.4.x.x.h./ ..l.k.k.x.$.e.z.l.4.@.p.r.u.y.u.j.j.g.j.j.s.j.g.p.j.p.j.j.p.s.s.p.p.s.d.p.p.p.p.p.p.p.u.p.u.p.e.r P.P.P.",
"P.P.P.*.k.x.x.x.x.x.x.x.4...x.x.x.x.x.f.x.x.4.4.x.x.p.$.$.$.x.j.z.%.9.z.l.4.4.z.j.k.k.j.j.g.j.g.j.p.p.j.j.p.j.p.p.p.p.d.s.p.p.p.p.p.p.p.u.p.u.p.p.p.p.a.-.P.P.P.",
"P.P.P.j.z.z.x.x.x.x.x.l.} f.x.x.x.z.x.x.z.x.4.%.x.x.p.$.k.} 9.x.z.%.e.l.l.4.$.k.f.j.d.j.g.j.g.g.j.j.j.p.p.j.p.j.p.j.g.p.p.p.s.p.p.p.p.p.p.p.p.p.u.u.p.p.] P.P.P.",
"P.P.P.u.z.x.x.z.x.z.x.j.} j.x.x.z.x.x.z.z.x.4.4.x.x.p...x.p.) p.x.$.5.x.k.4.} ..} ..} e.j.g.j.j.p.j.p.j.p.j.p.p.j.p.p.p.p.p.s.p.p.p.p.p.p.u.u.p.p.p.p.p.| P.P.P.",
"P.P.P.p.x.z.z.x.x.z.x.k.} j.x.x.x.z.z.z.z.x.4.4.x.l.d.@.l.x.a._ k.%.5.z.k.4.@.p.u.u.y.f.j.j.g.g.j.h.j.p.j.p.j.p.p.p.j.p.h.p.p.p.p.p.u.p.p.p.p.p.u.p.p.p.@.P.P.P.",
"P.P.P.p.x.z.z.z.z.x.x.x.$.4.x.x.z.z.x.z.z.x.4.4.x.l.p.@.l.j.z.%...4.e.l.k.4.%.z.j.j.k.j.j.d.g.j.s.j.p.j.p.d.s.j.p.j.p.j.p.s.p.p.p.p.p.p.p.u.u.p.p.p.p.p.@.P.P.P.",
"P.P.P.j.z.z.x.z.x.z.z.x.p.) e.z.x.z.5.$.z.x.4.%.x.x.p...k.k.k.j.$./ e.l.k.4.%.j.j.j.g.f.g.j.g.g.p.j.j.p.j.p.s.p.p.p.p.s.p.d.p.p.p.p.p.u.p.p.p.p.p.u.u.p.@.P.P.P.",
"P.P.P.p.l.l.l.l.l.l.l.l.x.p._ ..$.} } i.z.x.3.&.x.k.p.@.k.j.k.k.f.} y.l.j.4.} ..{ @.{ @.p.j.g.g.g.g.g.d.d.s.s.s.p.j.p.d.p.p.p.p.p.p.p.p.u.p.u.p.p.u.p.p.@.P.P.P.",
"P.P.P.p.l.l.l.l.l.l.l.l.k.x.j.i.e.y.k.z.k.x.g.g.k.k.j.p.j.j.j.j.j.p.f.g.j.f.y.y.r.a.r.r.g.g.j.g.g.g.g.s.s.s.d.p.p.p.p.p.p.p.p.p.u.p.u.p.p.p.p.p.p.p.p.p.@.P.P.P.",
"P.P.P.p.l.l.l.l.l.l.l.l.x.x.x.x.x.x.x.x.x.x.x.x.x.x.x.x.x.x.x.x.x.l.z.j.k.k.z.x.k.k.l.l.j.g.g.g.g.g.s.s.s.d.d.j.j.j.g.g.g.s.j.g.s.d.s.d.p.p.p.u.p.u.u.p.] P.P.P.",
"P.P.P.p.l.l.l.l.l.l.l.l.t.9.e.3.e.4.4.4.3.,.3.3.3.3.3.9.3.&.3.3.4.4.4.4.&.4.%.4.3.>.2.=.p.j.g.g.g.s.s.d.s.s.u.=.%.$.$.:.@.o.@.@.@.....{ 3.p.p.p.p.p.u.p.@.P.P.P.",
"P.P.P.u.l.k.l.j.l.j.l.j.# o + + @ $ + $ + $ $ $ $ $ d d d $ d + $ $ $ $ $ $ $ $ d d d d S j.g.s.d.g.s.d.s.s.- + + + + + o o . . . .   O e.p.u.p.u.p.u.p.@.P.P.P.",
"P.P.P.r.k.k.l.l.l.l.l.h.l k v l v v V F n n F H K K N K N N M N N M M M M M M m K K K K g o.j.d.g.s.s.p.k.x + k k k l l h l h h : % O %.s.p.p.p.p.p.p.p.| P.P.P.",
"P.P.P.r.j.l.k.j.j.l.l.j.& g k k k k v v n v n n n n n n n n n n n k v n v v v n m k F m F h t.j.d.s.d.j.3.. k k l k h h h f f % & + D s.u.p.p.u.p.p.p.p.] P.P.P.",
"P.P.P.r.k.j.j.l.l.j.l.h.: h k k v v v v n n n n M n n n n k n k v n v n v n v v k n k k n k x g.s.s.s.p.f k k k k k h h h f f l # z u.p.u.p.p.u.p.u.p.p.] P.P.P.",
"P.P.P.a.l.j.j.k.j.k.k.j.l k k k k v n n n n n m n n n n n v v n k n v v v v v v v v v v n H g  .j.p.j.x d n k k k k h h h h h f % 4.p.p.p.p.p.u.p.u.p.p.] P.P.P.",
"P.P.P.a.j.k.j.j.k.j.j.h.l k k n n k n n n n M n F n v v v n k v k k v k k v v k v v v v v v m % 4.k...@ N k n k k k k k h h l $  .g.u.p.p.u.p.u.p.p.p.p.] P.P.P.",
"P.P.P.a.j.j.j.k.j.j.k.g.l k k k k n n n M m M n n v n v k v b k k k k k k k k k h v v v v n F v z 9.# n n n n k n k k k h h f C p.u.u.p.p.p.u.p.u.p.u.f.] P.P.P.",
"P.P.P.a.j.l.j.j.j.j.k.d.l j k k n n n n n n n n n v v v v k k k k k k k k k n l v v h v v v v M k O k N n n n k k k k k h h h e.f.u.p.p.u.p.p.p.p.p.u.p._ P.P.P.",
"P.P.P.e.j.j.j.j.j.j.l.d.l k k m k n n n n n n n n v v v k k k v k k k k k k k k h v v v v v v v n b n N n n n n n k k k k f +.s.u.p.p.p.p.p.p.p.p.p.p.p._ P.P.P.",
"P.P.P.e.j.j.j.j.j.j.k.g.k k k k n n n M n n H ! ! ! ! ! ! <.! ! ! ! ! ! ! T j h v h h v v v v v n n n n n n n k k k k k j P s.u.p.u.p.u.u.p.u.p.p.u.p.p.} P.P.P.",
"P.P.P.e.j.j.j.j.j.j.j.d.l k k k n n n m n n m h.j.j.j.j.j.j.j.j.g.j.j.g.j.p.G h h v h v h V v v n n n n N M n n n k k k G a.p.u.p.p.u.p.p.p.p.u.p.p.p.p._ P.P.P.",
"P.P.P.,.j.j.j.j.j.j.j.g.l k m n n n M n n n M p.j.j.h.j.g.g.g.g.g.g.g.g.g.j.q.j h h v h h v v v v n n n n n n n k n k j 2.s.u.p.u.p.p.p.p.u.p.u.u.p.y.p._ P.P.P.",
"P.P.P.e.j.j.j.g.j.j.j.d.l k n n n n m F k n K d.g.g.g.g.g.g.g.g.f.g.g.g.p.h.j.O.g h k k h v v v k n n n n F m k n k k R s.u.p.p.u.p.p.p.p.u.p.p.p.p.p.p.' P.P.P.",
"P.P.P.e.g.j.j.j.g.j.j.p.l k k n n n n n m k K d.k.k.k.j.k.j.j.j.j.j.g.g.j.p.s.g.J f h h v h v v n k n n n m F n n n L i.p.u.p.p.p.p.u.p.p.p.p.u.p.u.p.p.' P.P.P.",
"P.P.P.5.j.s.s.j.j.g.j.d.h k k k n n n n n n k z x x x x x x x x Z > &.j.p.j.p.j.t.v h k h v h v k n n n n m n n k F 3.p.u.p.u.p.u.p.u.p.p.p.p.p.u.p.p.p.' P.P.P.",
"P.P.P.3.j.j.j.d.j.g.j.p.l k n m n m m F k n k j g g g g d d $ % o - p.f.g.p.j.p.g.+.j h v h v k k n n k n F m n m <.s.p.p.p.u.p.p.p.p.p.u.p.u.p.u.p.p.p.( P.P.P.",
"P.P.P.,.s.j.j.d.g.g.j.p.l m n k n n m n F n k n n k l k k h l h # e.j.p.g.p.p.g.p.g.P g v h v v k n n n n n m n E p.p.p.p.p.p.u.p.p.u.u.u.p.u.p.p.u.p.p.( P.P.P.",
"P.P.P.&.j.p.s.j.j.g.j.p.h k k F n n F n n k n k k k k k h h k + o.j.p.j.p.g.f.p.p.j.A $ V v k k n k n n n M F k Z p.u.p.u.p.p.p.p.u.p.p.p.p.p.p.p.p.p.p.( P.P.P.",
"P.P.P.&.p.j.j.s.h.j.j.p.l k k m n m n n n k k n k k k h h l d S j.f.f.p.j.f.p.p.j.*.. h h k v v n k k m n m n n g [ s.u.p.p.p.u.p.p.p.u.p.p.p.u.p.p.u.p.( P.P.P.",
"P.P.P.&.j.g.j.p.g.g.h.p.h k k K k F F m n n n k k k k k k h l p.p.p.p.f.p.p.p.j.p.O f v h k k v k n k F n n M n n f 3.s.u.u.p.p.u.p.p.p.p.u.p.p.u.p.p.p.^ P.P.P.",
"P.P.P.&.j.p.j.j.p.j.h.u.f v v n n n m n k n k n k k k k k h 2.j.p.g.p.s.p.p.p.j.x + l k k k k k n k K n m K k K k k z p.p.p.p.p.u.p.p.p.p.u.p.p.u.p.u.p.^ P.P.P.",
"P.P.P.&.p.j.d.s.j.p.j.p.l v v v n F F n n n n k k k k k j X.s.p.d.p.g.p.p.p.j...o k k k k k k n k m k n k K m k k m g  .s.u.p.u.p.p.p.u.p.p.p.u.p.p.p.p.^ P.P.P.",
"P.P.P.&.j.p.j.p.p.j.j.u.& v v n n m m n n m F K M M H n L d.s.d.s.p.s.p.p.g.y.O h h k k k k n k k m m F N m k K k k k g 3.s.u.p.p.u.p.p.p.p.u.p.p.u.p.p.^ P.P.P.",
"P.P.P.=.p.j.p.j.g.p.p.p.& v v v k n F m F k K 8.w.0.w.0.i.s.p.p.g.p.p.p.p.j.> $ k k k k k n k k F k n n k K m k m k k k z u.p.p.p.p.u.u.u.p.p.p.p.p.p.p.~ P.P.P.",
"P.P.P.=.s.s.s.p.s.d.h.u.& k v n n n n n n n F i.s.s.s.s.s.s.s.p.p.g.p.p.j._ o k h k k k k n k n k m k K m k k m m k k l d [ g.u.p.p.p.p.p.p.p.p.p.u.p.p.~ P.P.P.",
"P.P.P.&.p.s.p.j.s.p.s.r.& k k v k n n m M n H i.s.p.d.p.p.p.p.s.p.p.p.g.e.o j k k k k k k n n n k K F m n K K k k k k k k + 3.s.u.p.u.p.p.u.p.u.p.p.p.p.~ P.P.P.",
"P.P.P.=.j.s.p.p.p.d.j.y.& k v v n n n n M n M t.s.p.p.g.p.p.p.d.p.p.p.g.> d l k k k k n n k m k K m n m n F k m k k k h k f z u.p.p.p.p.u.p.p.p.u.p.u.p.~ P.P.P.",
"P.P.P.#.p.p.d.s.p.s.p.y.& k v k k n n n n n N i.s.p.p.p.p.s.p.p.p.u.j.) + n k n k k n k k n k m U 2.n n k m k k k k k k h h d D g.u.u.p.u.p.u.p.p.p.p.p.~ P.P.P.",
"P.P.P.#.s.h.s.p.s.p.d.u.: k k k k n n n n n H t.s.d.p.p.p.p.p.p.p.d.3.O k v k n k n k k m F k K 2.s.<.k K k k K F k k h h h f % &.p.p.p.i.p.p.p.p.u.p.p.~ P.P.P.",
"P.P.P.#.p.p.p.g.p.p.p.y.& h k k k n k n n n H t.s.p.p.p.p.p.p.p.p.s.- g n k n k n k n n m k n ! s.i.p.L k K k k k k k k h h f f l p.p.p.p.p.u.p.p.p.p.p.~ P.P.P.",
"P.P.P.#.p.p.p.p.d.p.s.y.% k k k k V v n n n n t.p.p.p.p.p.p.p.u.g./ $ n v k v n n n n n F m I i.p.p.s.3.k k k k k k h h l f f l @ D s.p.u.p.p.p.u.p.p.p.~ P.P.P.",
"P.P.P.@.p.p.p.p.s.p.p.u.% h k k k v k v n n N t.s.p.p.p.p.p.p.s.=.o n n n n v n k n n n k K 2.d.u.p.i.j.<.j k k k k h h f f f f & @ &.p.p.u.p.u.p.p.p.p.1 P.P.P.",
"P.P.P.~ u.p.p.p.p.p.p.t.% h h k k k k v v n F t.p.p.p.p.p.p.p.u.- j n n n n n n n n m K m ! d.u.p.u.p.p.p.P j k h h h h h l f f % # : u.p.u.p.p.u.u.p.u.1 P.P.P.",
"P.P.P.-.y.p.p.p.p.p.p.e.: h h h k k k v v k F t.p.p.p.u.u.p.g.A d N n n n n n n n n m k I t.p.p.p.p.p.u.p.a.k l l h h h f f f f % % O D g.p.u.u.p.p.p.e.3 P.P.P.",
"P.P.P.y e.u.p.p.p.p.p.e.% f h j j k k k k k n t.p.p.p.u.u.s...X m m n m n m m n m m k m 1.d.u.p.p.u.p.u.u.s.1.j j g d f f f # f # % % @ $.p.u.p.p.p.p.=.7 P.P.P.",
"P.P.P.C.#.p.p.p.p.p.p.e.Y ! ! ! ! ! ! ! ! ! ! a.p.u.p.p.p.p.Y W ! W ! ! Q Q ! Q Q ! Q <.p.p.p.u.p.p.p.p.u.p.p.<.W W R E R E R E T T T U Y p.p.p.p.p.p.' m.P.P.P.",
"P.P.P.P.] s.p.p.u.p.p.p.p.s.p.p.s.p.s.p.p.p.s.p.p.u.p.p.r.r.s.s.p.p.s.p.p.p.p.p.s.p.p.p.p.p.p.p.u.p.u.p.p.p.p.s.p.s.p.s.p.p.p.p.p.s.p.p.p.u.p.p.p.p.p., G.P.P.P.",
"P.P.P.P.8 p.u.p.p.p.p.u.p.u.p.p.u.p.p.u.p.r.u.p.p.p.p.r.p.p.u.r.p.p.u.p.p.p.r.p.u.p.p.p.u.p.u.p.p.p.p.p.u.p.s.5.u.p.p.u.p.p.p.u.p.u.p.u.p.p.u.p.p.p.*.7 P.P.P.P.",
"P.P.P.P.J.=.p.p.u.p.p.p.u.p.u.u.p.p.p.u.p.p.p.u.p.p.u.p.u.p.p.p.p.u.p.p.p.p.p.p.p.p.u.p.u.p.u.p.u.p.5.p.p.p.p.p.u.p.p.p.p.p.u.p.p.p.p.p.p.u.p.p.p.p.1 B.P.P.P.P.",
"P.P.P.P.P.8 9.u.p.u.p.u.p.p.p.p.u.u.p.p.u.p.p.p.u.p.p.p.p.p.p.u.p.u.p.u.p.u.p.u.u.u.p.p.p.p.p.p.p.p.s.p.u.p.u.p.p.p.u.p.u.p.p.p.u.p.u.p.p.p.p.u.g.*.M.P.P.P.P.P.",
"P.P.P.P.P.G.] p.s.p.p.p.p.p.p.p.p.p.u.p.p.p.p.p.u.p.u.p.p.p.p.u.u.p.p.p.p.p.p.p.p.p.p.p.u.p.p.u.s.5.p.u.p.u.p.p.p.p.u.u.p.p.p.p.p.p.p.p.u.u.p.p.u., P.P.P.P.P.P.",
"P.P.P.P.P.P.M.] a.s.u.p.u.p.u.u.u.p.p.p.p.u.u.p.p.p.p.p.u.p.p.p.p.p.u.p.p.u.p.u.p.u.u.p.p.p.p.p.p.p.p.p.p.p.p.u.u.p.p.p.u.u.p.u.p.u.p.u.p.p.p.p.1 m.P.G.P.P.P.P.",
"P.P.P.P.P.P.P.y @.r.p.u.p.p.p.p.p.u.p.p.p.p.p.p.p.u.p.u.p.p.p.u.u.p.p.p.u.p.p.p.p.p.p.p.u.u.p.u.p.p.u.p.u.p.p.p.p.p.u.p.p.p.p.p.u.p.p.p.p.p.g.c 7 P.P.P.P.P.P.P.",
"P.P.P.P.P.P.P.P.0 @.u.p.p.u.p.u.p.p.p.u.p.u.u.p.p.p.p.u.p.u.p.p.p.p.u.p.u.p.u.p.p.u.u.p.p.p.p.p.p.p.p.p.p.p.p.u.u.p.p.p.u.p.p.u.u.p.p.u.p.g.c 7 P.P.P.P.P.P.P.P.",
"P.P.P.P.P.P.P.P.P.y _ u.p.p.p.p.p.p.u.p.p.u.u.p.u.p.p.p.u.p.u.p.p.p.p.p.u.p.p.p.u.p.p.p.p.u.u.p.p.s.p.p.u.p.p.p.u.p.u.p.u.p.p.p.p.p.r.g.y.1 7 P.P.P.P.P.P.P.P.P.",
"P.P.P.P.P.P.P.P.P.P.M.~ &.s.p.p.u.u.p.p.p.p.p.p.p.p.u.p.p.p.u.p.u.p.u.p.p.p.u.p.p.p.u.p.p.p.p.p.p.5.p.p.p.p.u.p.p.p.u.p.p.p.u.p.p.p.g.| = 7 P.P.P.P.P.P.P.P.P.P.",
"P.P.P.P.P.P.P.P.P.P.P.G.y @.&.s.f.p.p.p.p.u.p.p.u.u.p.p.u.p.p.p.p.p.p.p.u.p.p.p.p.u.p.p.u.p.u.p.p.p.u.p.p.p.p.p.u.p.p.u.p.p.p.f.s.&.4 7 P.P.P.P.P.P.P.P.P.P.P.P.",
"P.P.P.P.P.P.P.P.P.P.P.P.P.G.0 ~ | &.a.u.p.p.p.p.p.s.p.p.s.p.p.p.p.p.p.p.p.p.p.p.p.p.p.p.p.p.p.p.p.p.p.p.p.p.p.p.f.p.p.f.u.e.=.^ = 7 B.P.P.P.P.P.P.P.P.P.P.P.P.P.",
"P.P.P.P.P.P.P.P.P.P.P.P.P.P.P.G.M.0 4 c ^ ( ( ( ( ( ( ( c ' ( ^ ~ ^ ~ ~ ~ ~ ~ ~ ~ ~ ~ ~ ~ ~ c ~ c c ~ c c c c c 5 5 1 1 , 2 7 m.G.P.P.P.P.P.P.P.P.P.P.P.P.P.P.P.",
"P.P.P.P.P.P.P.P.P.P.P.P.P.P.P.P.P.P.P.P.P.P.P.P.P.P.P.P.P.P.P.P.P.P.P.P.P.P.P.P.P.P.P.P.P.P.P.P.P.P.P.P.P.P.P.P.P.G.P.P.P.P.P.P.P.P.P.P.P.P.P.P.P.P.P.P.P.P.P.P.",
"P.P.P.P.P.P.P.P.P.P.P.P.P.P.P.P.P.P.P.P.P.P.P.P.P.P.P.P.P.P.P.P.P.P.P.P.P.P.P.P.P.P.P.P.P.P.P.P.P.P.P.P.P.P.P.P.P.P.P.P.P.P.P.P.P.P.P.P.P.P.P.P.P.P.P.P.P.P.P.P.",
"P.P.P.P.P.P.P.P.P.P.P.P.P.P.P.P.P.P.P.P.P.P.P.P.P.P.P.P.P.P.P.P.P.P.P.P.P.P.P.P.P.P.P.P.P.P.P.P.P.P.P.P.P.P.P.P.P.P.P.P.P.P.P.P.P.P.P.P.P.P.P.P.P.P.P.P.P.P.P.P."
};
