/* XPM */
static char *xpm_[] = {
/* columns rows colors chars-per-pixel */
"80 80 57 1 ",
"  c #F8A10E",
". c #F8A10E",
"X c #F8A10E",
"o c #F8A10E",
"O c #F8A10E",
"+ c #F8A10E",
"@ c #F8A10E",
"# c #F8A10E",
"$ c #F8A10E",
"% c #F8A10E",
"& c #F8A10E",
"* c #F8A10E",
"= c #F8A10E",
"- c #F8A10E",
"; c #F89E08",
": c #F8A10E",
"> c #F8A10E",
", c #F8A312",
"< c #F9AB28",
"1 c #F9AF31",
"2 c #F9B238",
"3 c #F8A10E",
"4 c #F8A10E",
"5 c #F8A10E",
"6 c #FAB747",
"7 c #FABD56",
"8 c #FAC15F",
"9 c #FBC467",
"0 c #FBC976",
"q c #FBCE82",
"w c #FCD28C",
"e c #FCD697",
"r c #FCDDA7",
"t c #FDE0AF",
"y c #FDE4BB",
"u c #FDE9C7",
"i c #FEEFD7",
"p c #FEF1DC",
"a c #FEF6E7",
"s c #FFFEFE",
"d c #F8A10E",
"f c #F8A10E",
"g c #F8A10E",
"h c #F8A10E",
"j c #F8A10E",
"k c #F8A10E",
"l c #F8A10E",
"z c #F8A10E",
"x c #F8A10E",
"c c #F8A10E",
"v c #F8A10E",
"b c #F8A10E",
"n c #F8A10E",
"m c #F8A10E",
"M c #F8A10E",
"N c #F8A10E",
"B c None",
/* pixels */
"BBBBBBBBBBBBBBBBBBBBBBBBBBBBBBBBBBBBBBBBBBBBBBBBBBBBBBBBBBBBBBBBBBBBBBBBBBBBBBBB",
"BBBBBBBBBBBBBBBBBBBBBBBBBBBBBBBBBBBBBBBBBBBBBBBBBBBBBBBBBBBBBBBBBBBBBBBBBBBBBBBB",
"BBBBBBBBBBBBBBBBBBBBBBBBBBBBBBBBBBBBBBBBBBBBBBBBBBBBBBBBBBBBBBBBBBBBBBBBBBBBBBBB",
"BBBBBBBBBBBBBBBBBBBBBBBBBBBBBBBBBBBBBBBBBBBBBBBBBBBBBBBBBBBBBBBBBBBBBBBBBBBBBBBB",
"BBBBBBBBBBBBBBBBBBBBBBBBBBBBBBBBBBBBBBBBBBBBBBBBBBBBBBBBBBBBBBBBBBBBBBBBBBBBBBBB",
"BBBBBBBBBBBBBBBBBBBBBBBBBBBBBBBBBBBBBBBBBBBBBBBBBBBBBBBBBBBBBBBBBBBBBBBBBBBBBBBB",
"BBBBBBBBBBBBBBBBBBBBBBBBBBBBBBBBBBBBBBBBBBBBBBBBBBBBBBBBBBBBBBBBBBBBBBBBBBBBBBBB",
"BBBBBBBBBBBBBBBBBBBBBBBBBBBBBBBBBBBBBBBBBBBBBBBBBBBBBBBBBBBBBBBBBBBBBBBBBBBBBBBB",
"BBBBBBBBBBBBBBBBBBBBBBBBBBBBBBBBBBBBBBBBBBBBBBBBBBBBBBBBBBBBBBBBBBBBBBBBBBBBBBBB",
"BBBBBBBBBBBBBBBBBBBBBBBBBBBBBBBBBBBBBBBBBBBBBBBBBBBBBBBBBBBBBBBBBBBBBBBBBBBBBBBB",
"BBBBBBBBBBBBBBBBBBBBBBBBBBBBBBBBBBBBBBBBBBBBBBBBBBBBBBBBBBBBBBBBBBBBBBBBBBBBBBBB",
"BBBBBBBBBBBBBBBBBBBBBBBBBBBBBBBBBBBBBBBBBBBBBBBBBBBBBBBBBBBBBBBBBBBBBBBBBBBBBBBB",
"BBBBBBBBBBBBBBBBBBBBBBBBBBBBBBBBBBBBBBBBBBBBBBBBBBBBBBBBBBBBBBBBBBBBBBBBBBBBBBBB",
"BBBBBBBBBBBBBBBBBBBBBBBBBBBBBBBBBBBBBBBBBBBBBBBBBBBBBBBBBBBBBBBBBBBBBBBBBBBBBBBB",
"BBBBBBBBBBBBBBBBBBBBBBBBBBBBBBBBBBBBBBBBBBBBBBBBBBBBBBBBBBBBBBBBBBBBBBBBBBBBBBBB",
"BBBBBBBBBBBBBBBBBBBBBBBBBBBBBBBBBBBBBBBBBBBBBBBBBBBBBBBBBBBBBBBBBBBBBBBBBBBBBBBB",
"BBBBBBBBBBBBBBBBBBBBBBBBBBBBBBBBBBBBBBBBBBBBBBBBBBBBBBBBBBBBBBBBBBBBBBBBBBBBBBBB",
"BBBBBBBBBBBBBBBBBBBBBBBBBBBBBBBBBBBBBBBBBBBBBBBBBBBBBBBBBBBBBBBBBBBBBBBBBBBBBBBB",
"BBBBBBBBBBBBBBBBBBBBBBBBBBBBBBBBBBBBBBBBBBBBBBBBBBBBBBBBBBBBBBBBBBBBBBBBBBBBBBBB",
"BBBBBBBBBBBBBBBBBBBBBBBBBBBBBBBBBBBBBBBBBBBBBBBBBBBBBBBBBBBBBBBBBBBBBBBBBBBBBBBB",
"BBBBBBBBBBBBBBBBBBBBBBBBBBBBBBBBBBBBBBBBBBBBBBBBBBBBBBBBBBBBBBBBBBBBBBBBBBBBBBBB",
"BBBBBBBBBBBBBBBBBBBBBBBBBBBBBBBBBBBBBBBBBBBBBBBBBBBBBBBBBBBBBBBBBBBBBBBBBBBBBBBB",
"BBBBBBBBBBBBBBBBBBBBBBBBBBBBBBBBBBBBBBBBBBBBBBBBBBBBBBBBBBBBBBBBBBBBBBBBBBBBBBBB",
"BBBBBBBBBBBBBBBBBBBBBBBBBBBBBBBBBBBBBBBBBBBBBBBBBBBBBBBBBBBBBBBBBBBBBBBBBBBBBBBB",
"BBBBBBBBBBBBBBBBBBBBBBBBBBBBBBBBBBBBBBBBBBBBBBBBBBBBBBBBBBBBBBBBBBBBBBBBBBBBBBBB",
"BBBBBBBBBBBBBj&@55*@&jBBBBBBBBBBBBBBBBBBBnc%@%@555555555X@@%ccjBBBBBBBBBBBBBBBBB",
"BBBBBBBBBBBo:>>>>>,,>>>%jBBBBBBBBBBBBBc@:>>>>>>,>>,>>>>>>,>>>>,-5&cBBBBBBBBBBBBB",
"BBBBBBBBBc>,,->>>>>>>>>>,5nBBBBBBBBB%:,,>>>>>>>,>>,>>>>>>;->>,>>>>,-@jBBBBBBBBBB",
"BBBBBBBB@,>>>>>>>>>>>>>->>>mBBBBBBm*,>>->>>>>>>>>>>>>>>>>>>>>>>>>>->>,5jBBBBBBBB",
"BBBBBBB@>;>>>>>>>>>>>>>>>>>5BBBBBc,>>>,,,>>>>>>>>>>>>>>>>>>>>>>>>>,>>->>&BBBBBBB",
"BBBBBB%,->>>>>>>>>>>->>>>>>@BBbBb,>>,;;;>>>>>>>>>>>>>>>>>>>>>>>>>>>>>>>>,@BBBBBB",
"BBBBBd>;,,>>>>;>>>>>>>>>>>>jBBBb>,>>;7ew,>>>>>>;>>>,>>>>>>>>>>>>>>>>>>>>;>@BBBBB",
"BBBBB5,>,,,,,,<,zvvbdz,<,<5BBmBl,>>>8sssu>>>>>;699<;>>>>>>>>>>>>>>>>>>>>>;>jBBBB",
"BBBBN>>,,,,,,,fBmmmBmBBh>:BBBBm,>>>>eaass2;>,;0sssa<>>>>>>>>>>>>>>>,>>>>>>,5BBBB",
"BBBB5,,,,,,,,dBBmBBBmBBBBBBmBBj<>>>>qssss<;>,;wssss6;>>>>>>>>>>>>>>>>>>>>>>>jBBB",
"BBBB>,,,,,<<&BmBBBBBBBBBBBBBBB#,>>>>,uss0;>>,;wssss6;,>>>>>>,,,>>>>>>,,>>>>>&BBB",
"BBBb,,,,,,,-mBBBBBBBBBBBBBBBBm<,>>>>>;,,;>>>>;essss2;;;;>>,>;;>>>>>>>>;>,>>>@BBB",
"BBm%,,,,,,,fBBBBBBBBBBBBBBBBmN,,>>>;17666,>>>;wssss0667,>>;,09>>>>>>;<8,>>>>5BBB",
"BBB5,,,,,,,NBBBBBBBBBBBBBBBBBb,,>>>;rssss2;>,;essssssss7;;8sss0;>>>,;wss0;>>5BBB",
"BBB*,,,,,<<NBBBBBBBBBBBBBBBBBN,,>>>;essss2;>;;esassssss9;<sssss<>>>>>iss0;>>5BBB",
"BBB4<,,,,,,mBBBBBBBBBBBBBBBBBd,,>>>;essss2;>>;wssssrtyu6;,assssr;;>;6ssa,;>>5BBB",
"BBB*,,,,,,,BBBBBBBBBBBBBBBBBv<,,>>>;essss2;,;;essss1;;;>>;0sssss6;,;esse;,>>@BBB",
"BBB5>>,,,,<vBBBBBBBBBBBBBBm%<,,,>>>;essss2;>>;essss6;>>>>><sssssu;;<sss1;>>>%BBB",
"BBBz>>,>,,<fBBBBBBBBBBBBBB:<<,,,>;>;essss2;>>;essss2;>>>>>,ssssss8;qssr;,>>>fBBB",
"BBB%>>>>,,,:mBBBBBBBBBBBBBmnx-,,>>>;wssss2;>,;tssss9;,;;,;7ssssssp,ass2>,>>:bBBB",
"BBBM>>>>,,,,lBmBBBBBBBBBBBBBBBg,;>>;9ssss0;;;<assssa<;;;;1assssssspsst>>>>,@BBBB",
"BBBB5>>>,,,,<vmBmBBBBmBmf,5mBBM<>>>>,asssse79asssssssw99eassp7sssssss<>>>>>jBBBB",
"BBBBv>;>,,,,<<cmBBBBmv%<,,<fBmB,>>>>;6ssssssssssussssssssssa2;wsssss0;>>>,5BBBBB",
"BBBBB,,,,,>>>>>*%%&5-,>>>>>-mmBd>>>>>>2tssssssi9;6yssssssaw,>,>usssu>>>>>>jBBBBB",
"BBBBB%,,,,>>>>>,>>,,>>>>>>>>zBBB@>>>>>>><70092>;,;;<89097,;>,>>,908>;>>->%BBBBBB",
"BBBBBB$<>>>>>>>>;;>>>>>>>>>><BBBB>>>>>,,;;;;;;>>>>>>>>>>;>>>>>>>;;;>>>>>@BBBBBBB",
"BBBBBBB->;>>>>>>>>>>>>>>>->>zBBBBm*>>>>>>>,>>>>>>>>>>>>,,>>>>>>>>>>>-,>oBBBBBBBB",
"BBBBBBBB5,,,>>>>,>>>>>>>>><nBBBBBBb%,,>>>;>>>>>>>>>>>>>>>>>>>>>>>>>>,>cBBBBBBBBB",
"BBBBBBBBBg,<>>>>,,>>>>>,,fmBmBBBBBBBj%=>>>>>>>>>>>>>>>>>->>>>>>>,,>:%BBBBBBBBBBB",
"BBBBBBBBBBmf=<>>,,,,>>5cmBBBBBBBBBBBBBBj%.5>>>,,>>>>>>>,>>>>>>>::&jBBBBBBBBBBBBB",
"BBBBBBBBBBBBBNb%$#%&bBBBBBBBBBBBBBBBBBBBBBBbjjccc%&&@@%@@@@&ccjBBBBBBBBBBBBBBBBB",
"BBBBBBBBBBBBBBBBBBBBBBBBBBBBBBBBBBBBBBBBBBBBBBBBBBBBBBBBBBBBBBBBBBBBBBBBBBBBBBBB",
"BBBBBBBBBBBBBBBBBBBBBBBBBBBBBBBBBBBBBBBBBBBBBBBBBBBBBBBBBBBBBBBBBBBBBBBBBBBBBBBB",
"BBBBBBBBBBBBBBBBBBBBBBBBBBBBBBBBBBBBBBBBBBBBBBBBBBBBBBBBBBBBBBBBBBBBBBBBBBBBBBBB",
"BBBBBBBBBBBBBBBBBBBBBBBBBBBBBBBBBBBBBBBBBBBBBBBBBBBBBBBBBBBBBBBBBBBBBBBBBBBBBBBB",
"BBBBBBBBBBBBBBBBBBBBBBBBBBBBBBBBBBBBBBBBBBBBBBBBBBBBBBBBBBBBBBBBBBBBBBBBBBBBBBBB",
"BBBBBBBBBBBBBBBBBBBBBBBBBBBBBBBBBBBBBBBBBBBBBBBBBBBBBBBBBBBBBBBBBBBBBBBBBBBBBBBB",
"BBBBBBBBBBBBBBBBBBBBBBBBBBBBBBBBBBBBBBBBBBBBBBBBBBBBBBBBBBBBBBBBBBBBBBBBBBBBBBBB",
"BBBBBBBBBBBBBBBBBBBBBBBBBBBBBBBBBBBBBBBBBBBBBBBBBBBBBBBBBBBBBBBBBBBBBBBBBBBBBBBB",
"BBBBBBBBBBBBBBBBBBBBBBBBBBBBBBBBBBBBBBBBBBBBBBBBBBBBBBBBBBBBBBBBBBBBBBBBBBBBBBBB",
"BBBBBBBBBBBBBBBBBBBBBBBBBBBBBBBBBBBBBBBBBBBBBBBBBBBBBBBBBBBBBBBBBBBBBBBBBBBBBBBB",
"BBBBBBBBBBBBBBBBBBBBBBBBBBBBBBBBBBBBBBBBBBBBBBBBBBBBBBBBBBBBBBBBBBBBBBBBBBBBBBBB",
"BBBBBBBBBBBBBBBBBBBBBBBBBBBBBBBBBBBBBBBBBBBBBBBBBBBBBBBBBBBBBBBBBBBBBBBBBBBBBBBB",
"BBBBBBBBBBBBBBBBBBBBBBBBBBBBBBBBBBBBBBBBBBBBBBBBBBBBBBBBBBBBBBBBBBBBBBBBBBBBBBBB",
"BBBBBBBBBBBBBBBBBBBBBBBBBBBBBBBBBBBBBBBBBBBBBBBBBBBBBBBBBBBBBBBBBBBBBBBBBBBBBBBB",
"BBBBBBBBBBBBBBBBBBBBBBBBBBBBBBBBBBBBBBBBBBBBBBBBBBBBBBBBBBBBBBBBBBBBBBBBBBBBBBBB",
"BBBBBBBBBBBBBBBBBBBBBBBBBBBBBBBBBBBBBBBBBBBBBBBBBBBBBBBBBBBBBBBBBBBBBBBBBBBBBBBB",
"BBBBBBBBBBBBBBBBBBBBBBBBBBBBBBBBBBBBBBBBBBBBBBBBBBBBBBBBBBBBBBBBBBBBBBBBBBBBBBBB",
"BBBBBBBBBBBBBBBBBBBBBBBBBBBBBBBBBBBBBBBBBBBBBBBBBBBBBBBBBBBBBBBBBBBBBBBBBBBBBBBB",
"BBBBBBBBBBBBBBBBBBBBBBBBBBBBBBBBBBBBBBBBBBBBBBBBBBBBBBBBBBBBBBBBBBBBBBBBBBBBBBBB",
"BBBBBBBBBBBBBBBBBBBBBBBBBBBBBBBBBBBBBBBBBBBBBBBBBBBBBBBBBBBBBBBBBBBBBBBBBBBBBBBB",
"BBBBBBBBBBBBBBBBBBBBBBBBBBBBBBBBBBBBBBBBBBBBBBBBBBBBBBBBBBBBBBBBBBBBBBBBBBBBBBBB",
"BBBBBBBBBBBBBBBBBBBBBBBBBBBBBBBBBBBBBBBBBBBBBBBBBBBBBBBBBBBBBBBBBBBBBBBBBBBBBBBB",
"BBBBBBBBBBBBBBBBBBBBBBBBBBBBBBBBBBBBBBBBBBBBBBBBBBBBBBBBBBBBBBBBBBBBBBBBBBBBBBBB",
"BBBBBBBBBBBBBBBBBBBBBBBBBBBBBBBBBBBBBBBBBBBBBBBBBBBBBBBBBBBBBBBBBBBBBBBBBBBBBBBB"
};
