/* XPM */
static char *xpm_[] = {
/* columns rows colors chars-per-pixel */
"80 80 55 1 ",
"  c #3A2D2F",
". c #382D30",
"X c #2D3837",
"o c #353537",
"O c #353535",
"+ c #3D3131",
"@ c #343438",
"# c #2F3A3A",
"$ c #373739",
"% c #363637",
"& c #3D3234",
"* c #37373A",
"= c #39393A",
"- c #39383A",
"; c #39393C",
": c #6F1113",
"> c #751112",
", c #800C0D",
"< c #860B0D",
"1 c #2E3E3D",
"2 c #3A393B",
"3 c #454548",
"4 c #39393B",
"5 c #3A3A3A",
"6 c #343438",
"7 c #3A3A3C",
"8 c #3C3C3E",
"9 c #3D3D3F",
"0 c #960201",
"q c #950508",
"w c #990000",
"e c #9B0305",
"r c #9F0607",
"t c #9A0505",
"y c #930D0D",
"u c #3A3A3B",
"i c #3F3F41",
"p c #47393B",
"a c #304245",
"s c #434344",
"d c #294147",
"f c #3C3C3E",
"g c #383839",
"h c #3D3D3B",
"j c #3E3E3F",
"k c #980C0F",
"l c #3D3D3E",
"z c #3E3E41",
"x c #414144",
"c c #404042",
"v c #6A0F10",
"b c #8E0F10",
"n c #474546",
"m c #9D0E10",
"M c None",
/* pixels */
"MMMMMMMMMMMMMMMMMMMMMMMMMMMMMMMMMMMMMMMMMMMMMMMMMMMMMMMMMMMMMMMMMMMMMMMMMMMMMMMM",
"MMMMMMMMMMMMMMMMMMMMMMMMMMMMMMMMMMMMMMMMMMMMMMMMMMMMMMMMMMMMMMMMMMMMMMMMMMMMMMMM",
"MMMMMMMMMMMMMMMMMMMMMMMMMMMMMMMMMMMMMMMMMMMMMMMMMMMMMMMMMMMMMMMMMMMMMMMMMMMMMMMM",
"MMMMMMMMMMMMMMMMMMMMMMMMMMMMMMMMMMMMMMMMMgqMMMMMMMMMMMMMMMMMMMMMMMMMMMMMMMMMMMMM",
"MMMMMMMMMMMMMMMMMMMMMMMMMMMMMMMMMMMMMMMMMeeMMMMMMMMMMMMMMMMMMMMMMMMMMMMMMMMMMMMM",
"MMMMMMMMMMMMMMMMMMMMMMMMMMMMMMMMMMMMMMMMMteMMMMMMMMMMMMMMMMMMMMMMMMMMMMMMMMMMMMM",
"MMMMMMMMMMMMMMMMMMMMMMMMMMMMMMMMMMMMMMMMMrqMMMMMMMMMMMMMMMMMMMMMMMMMMMMMMMMMMMMM",
"MMMMMMMMMMMMMMMMMMMMMMMMMMMMMMMMMMMMMMMMMrqMMMMMMMMMMMMMMMMMMMMMMMMMMMMMMMMMMMMM",
"MMMMMMMMMMMMMMMMMMMMMMMMMMMMMMMMMMMMMMMMcreMMMMMMMMMMMMMMMMMMMMMMMMMMMMMMMMMMMMM",
"MMMMMMMMMMMMMMMMMMMMMMMMMMMMMMMMMMMMMMMMMrqMcMMMMMMMMMMMMMMMMMMMMMMMMMMMMMMMMMMM",
"MMMMMMMMMMMMMMMMMMMMMMMMMMMMMMMMMMMMMMMMMreMMMMMMMMMMMMMMMMMMMMMMMMMMMMMMMMMMMMM",
"MMMMMMMMMMMMMMMMMMMMMMMMMMMMMMMMMMMMMMMnsr:xgcMMMMMMMMMMMMMMMMMMMMMMMMMMMMMMMMMM",
"MMMMMMMMMMMMMMMMMMMMMMMMMMMMMMMMMMMMMi-o r>ooo9cMMMMMMMMMMMMMMMMMMMMMMMMMMMMMMMM",
"MMMMMMMMMMMMMMMMMMMMMMMMMMMMMMMMMMMM4oo#4r<i54oogMMMMMMMMMMMMMMMMMMMMMMMMMMMMMMM",
"MMMMMMMMMMMMMMMMMMMMMMMMMMMMMMMMMMM4oo9cMreMMMMxogMMMMMMMMMMMMMMMMMMMMMMMMMMMMMM",
"MMMMMMMMMMMMMMMMMMMMMMMMMMMMMMMMMM9oOnMMMreMMMMMgogMMMMMMMMMMMMMMMMMMMMMMMMMMMMM",
"MMMMMMMMMMMMMMMMMMMMMMMMMMMMMMMMMhoonMMMMreMMMMMMg2MMMMMMMMMMMMMMMMMMMMMMMMMMMMM",
"MMMMMMMMMMMMMMMMMMMMMMMMMMMMMMMMMoolMMMMMrqMMMMMMM2nMMMMMMMMMMMMMMMMMMMMMMMMMMMM",
"MMMMMMMMMMMMMMMMMMMMMMMMMMMMMMMMpopMMMMMMreMMMMMg4ogMMMMMMMMMMMMMMMMMMMMMMMMMMMM",
"MMMMMMMMMMMMMMMMMMMMMMMMMMMMMMMMooMMMMMMMrqMMMM9ooogMMMMMMMMMMMMMMMMMMMMMMMMMMMM",
"MMMMMMMMMMMMMMMMMMMMMMMMMMMMMMMholMMMMMMnr<MMMv oooMMMMMMMMMMMMMMMMMMMMMMMMMMMMM",
"MMMMMMMMMMMMMMMMMMMMMMMMMMMMMMM= MMMMMMMMrqMMMM+o nMMMMMMMMMMMMMMMMMMMMMMMMMMMMM",
"MMMMMMMMMMMMMMMMMMMMMMMMMMMMMMcopMMMMMMMMreMMMMMMMMMMMMMMMMMMMMMMMMMMMMMMMMMMMMM",
"MMMMMMMMMMMMMMMMMMMMMMMMMMMMMMjonMMMMMMMMrqMMMMMMMMMMMMMMMMMMMMMMMMMMMMMMMMMMMMM",
"MMMMMMMMMMMMMMMMMMMMMMMMMMMMMM-oMMMMMMMMMr<MMMMMMMMMMMMMMMMMMMMMMMMMMMMMMMMMMMMM",
"MMMMMMMMMMMMMMMMMMMMMMMMMMMMMMo7MMMMMMMMMrkMMMMMMMMMMMMMMMMMMMMMMMMMMMMMMMMMMMMM",
"MMMMMMMMMMMMMMMMMMMMMMMMMMMMMMo9MMMMMMMMMreMMMMMMMMMMMMMMMMMMMMMMMMMMMMMMMMMMMMM",
"MMMMMMMMMMMMMMMMMMMMMMMMMMMMMMogMMMMMMMMMreMnMMMMMMMMMMMMMMMMMMMMMMMMMMMMMMMMMMM",
"MMMMMMMMMMMMMMMMMMMMMMMMMMMMMcoMMMMMMMMMMreMMMMMMMMMMMMMMMMMMMMMMMMMMMMMMMMMMMMM",
"MMMMMMMMMMMMMMMMMMMMMMMMMMMMMcocMMMMMMMMMreMMMMMMMMMMMMMMMMMMMMMMMMMMMMMMMMMMMMM",
"MMMMMMMMMMMMMMMMMMMMMMMMMMMMMcocMMMMMMMMMreMMMMMMMMMMMMMMMMMMMMMMMMMMMMMMMMMMMMM",
"MMMMMMMMMMMMMMMMMMMMMMMMMMMMMg@MMMMMMMMMMrqMMMMMMMMMMMMMMMMMMMMMMMMMMMMMMMMMMMMM",
"MMMMMMMMMMMMMMMMMMMMMMMMMMMMMnoMMMMMMMMMnr<MMMMMMMMMMMMMMMMMMMMMMMMMMMMMMMMMMMMM",
"MMMMMMMMMMMMMMMMMMMMMMMMMMMMMMonMMMMMMMMMreMMMMMMMMMMMMMMMMMMMMMMMMMMMMMMMMMMMMM",
"MMMMMMMMMMMMMMMMMMMMMMMMMMMMMMonMMMMMMMMMreMMMMMMMMMMMMMMMMMMMMMMMMMMMMMMMMMMMMM",
"MMMMMMMMMMMMMMMMMMMMMMMMMMMMMM$iMMMMMMMMMreMMMMMMMMMMMMMMMMMMMMMMMMMMMMMMMMMMMMM",
"MMMMMMMMMMMMMMMMMMMMMMMMMMMMMMsoMMMMMMMMnreMMMMMMMMMMMMMMMMMMMMMMMMMMMMMMMMMMMMM",
"MMMMMMMMMMMMMMMMMMMMMMMMMMMMMMlonMMMMMMMMr<MMMMMMMMMMMMMMMMMMMMMMMMMMMMMMMMMMMMM",
"MMMMMMMMMMMMMMMMMMMMMMMMMMMMMMMo9MMMMMMMMreMMMMMMMMMMMMMMMMMMMMMMMMMMMMMMMMMMMMM",
"MMMMMMMMMMMMMMMMMMMMMMMMMMMMMMM2oMMMMMMMMreMMMMMMMMMMMMMMMMMMMMMMMMMMMMMMMMMMMMM",
"MMMMMMMMMMMMMMMMMMMMMMMMMMMMMMMcopMMMMMMMr<MMMMMMMMMMMMMMMMMMMMMMMMMMMMMMMMMMMMM",
"MMMMMMMMMMMMMMMMMMMMMMMMMMMMMMMM ofMMMMMMreMMMMMMMMMMMMMMMMMMMMMMMMMMMMMMMMMMMMM",
"MMMMMMMMMMMMMMMMMMMMMMMMMMMMMMMMnoofMMMMMreMMMMMMM fMMMMMMMMMMMMMMMMMMMMMMMMMMMM",
"MMMMMMMMMMMMMMMMMMMMMMMMMMMMMMMMM4oo&MMMMreMMMMMhoonMMMMMMMMMMMMMMMMMMMMMMMMMMMM",
"MMMMMMMMMMMMMMMMMMMMMMMMMMMMMMMMMMoooofnnrkMMnhooolMMMMMMMMMMMMMMMMMMMMMMMMMMMMM",
"MMMMMMMMMMMMMMMMMMMMMMMMMMMMMMMMMMnoooooor:1 oooo&MMMMMMMMMMMMMMMMMMMMMMMMMMMMMM",
"MMMMMMMMMMMMMMMMMMMMMMMMMMMMMMMMMMMcooooorrooooo+MMMMMMMMMMMMMMMMMMMMMMMMMMMMMMM",
"MMMMMMMMMMMMMMMMMMMMMMMMMMMMMMMMMMMMM2oooryoooohMMMMMMMMMMMMMMMMMMMMMMMMMMMMMMMM",
"MMMMMMMMMMMMMMMMMMMMMMMMMMMMMMMMMMMMMMn+ ryoo8nMMMMMMMMMMMMMMMMMMMMMMMMMMMMMMMMM",
"MMMMMMMMMMMMMMMMMMMMMMMMMMMMMMMMMMMMMMMMMrqMMMMMMMMMMMMMMMMMMMMMMMMMMMMMMMMMMMMM",
"MMMMMMMMMMMMMMMMMMMMMMMMMMMMMMMMMMMMMMMMMreMMMMMMMMMMMMMMMMMMMMMMMMMMMMMMMMMMMMM",
"MMMMMMMMMMMMMMMMMMMMMMMMMMMMMMMMMMMMMMMMMreMMMMMMMMMMMMMMMMMMMMMMMMMMMMMMMMMMMMM",
"MMMMMMMMMMMMMMMMMMMMMMMMMMMMMMMMMMMMMMMMMr<MMMMMMMMMMMMMMMMMMMMMMMMMMMMMMMMMMMMM",
"MMMMMMMMMMMMMMMMMMMMMMMMMMMMMMMMMMMMMMMMMreMMMMMMMMMMMMMMMMMMMMMMMMMMMMMMMMMMMMM",
"MMMMMMMMMMMMMMMMMMMMMMMMMMMMMMMMMMMMMMMMMreMMMMMMMMMMMMMMMMMMMMMMMMMMMMMMMMMMMMM",
"MMMMMMMMMMMMMMMMMMMMMMMMMMMMMMMMMMMMMMMMnrbMMMMMMMMMMMMMMMMMMMMMMMMMMMMMMMMMMMMM",
"MMMMMMMMMMMMMMMMMMMMMMMMMMMMMMMMMMMMMMMMnrnMMMMMMMMMMMMMMMMMMMMMMMMMMMMMMMMMMMMM",
"MMMMMMMMMMMMMMMMMMMMMMMMMMMMMMMMMMMMMMMMMnMMMMMMMMMMMMMMMMMMMMMMMMMMMMMMMMMMMMMM",
"MMMMMMMMMMMMMMMMMMMMMMMMMMMMMMMMMMMMMMMMMMMMMMMMMMMMMMMMMMMMMMMMMMMMMMMMMMMMMMMM",
"MMMMMMMMMMMMMMMMlnMMnnMMMMMMMMMMMMMMMcnMMMMMncMMMMlcMMMMMlMMMMMMMMMMMMMMMMMMMMMM",
"MMMMMMMMMMMMMMM5oonM8uMMMMMMMMjMMMMMpoonMMMnoofMMMooMMMnoo.MMMMMcMMMMMMMMMMMMMMM",
"MMMMMMMMMMMMMMcX4olM5fMMMMMMMnOMMMMMo+ooMMMo$OonMM.5MMMoo8pMMMMn4MMMMMMMMMMMMMMM",
"MMMMMMMMMMMMMMo5MMMM5fMMMMMMMloMMMMi+MMocMnoMMojMMijMMfoMMMMMMMnoMMMMMMMMMMMMMMM",
"MMMMMMMMMMMMMnXMMMMMsiMMMMMMMionMMM2cMMpuMh9MMc-MM%iMMolMMMMMMMhonMMMMMMMMMMMMMM",
"MMMMMMMMMMMMM59MMMMMsiMMMMMMMu$nMMMscMMhjMfsMMniMMsfMnoMMMMMMMMiolMMMMMMMMMMMMMM",
"MMMMMMMMMMMMM%lMMMMMsiMMMMMMMOf5MMM=lMMMMMfsMMMMMM%iMj%MMMMMMMM5fsMMMMMMMMMMMMMM",
"MMMMMMMMMMMMM=MMMMMMsiMMMMMMM%n$MMM4OMMMMMhoMMMMMMOuMffMMMMMMMn2n4MMMMMMMMMMMMMM",
"MMMMMMMMMMMMM4MMMMnMsuMMMMMMl5M2MMMcooOMMMMooojMMMsfM4iMMMMMMMcOMXMMMMMMMMMMMMMM",
"MMMMMMMMMMMMM-nMMMMM9iMMMMMMi$conMMMfoooMMMlooonMM=iM%jMMMMMMMc=cocMMMMMMMMMMMMM",
"MMMMMMMMMMMMM=nMMMMMsfMMMMMM2ooohMMMMMMohMMMMM2sMM8iMsuMMMMMMM5oooiMMMMMMMMMMMMM",
"MMMMMMMMMMMMM%nMMMMMsfMMMMMMXin8uMMMMMMu4MMMMMn2MMsfMfsMMMMMMMs5l8sMMMMMMMMMMMMM",
"MMMMMMMMMMMMM8lMMMMMs5MMMMMM4MMnoMMinMMh4MchMMMoMM%uMc=MMMMMMMOMMMoMMMMMMMMMMMMM",
"MMMMMMMMMMMMM59MMMMMsfMMMMMh%MMMOMMOcMMjOMh5MMM4MM=jMnoMMMMMMc=MMMoMMMMMMMMMMMMM",
"MMMMMMMMMMMMMcoMMMMMsfMMMMMffMMMocMu5MMhfMc=MMnOMMOiMMOlMMMMMjsMMMOjMMMMMMMMMMMM",
"MMMMMMMMMMMMMM$1MnnMsfMMMMMsjMMM4fMcoMMocMMolM=iMM5hMMhoMMcMM5fMMMfsMMMMMMMMMMMM",
"MMMMMMMMMMMMMMnooosMso%oonMonMMMj2MMooo=MMMuooonMMo=MMMooooMMolMMMnXMMMMMMMMMMMM",
"MMMMMMMMMMMMMMMloolMuoooolMoMMMMloMMcoolMMMMoohMMMooMMMnooOMMoMMMMnoMMMMMMMMMMMM",
"MMMMMMMMMMMMMMMMMMMMMMMMMMMMMMMMMMMMMMMMMMMMMMMMMMMMMMMMMMMMMMMMMMMMMMMMMMMMMMMM",
"MMMMMMMMMMMMMMMMMMMMMMMMMMMMMMMMMMMMMMMMMMMMMMMMMMMMMMMMMMMMMMMMMMMMMMMMMMMMMMMM",
"MMMMMMMMMMMMMMMMMMMMMMMMMMMMMMMMMMMMMMMMMMMMMMMMMMMMMMMMMMMMMMMMMMMMMMMMMMMMMMMM"
};
