/* XPM */
static char *xpm_[] = {
/* columns rows colors chars-per-pixel */
"80 80 189 2 ",
"   c #0F0F36",
".  c #0D0D30",
"X  c #1C5D37",
"o  c #215E3B",
"O  c #2D552E",
"+  c #2A633C",
"@  c #3A6C3E",
"#  c #475634",
"$  c #475137",
"%  c #546F3F",
"&  c #436C3D",
"*  c #647D3C",
"=  c #090946",
"-  c #100E47",
";  c #14144A",
":  c #181853",
">  c #1F215F",
",  c #1D384B",
"<  c #21235C",
"1  c #2E344E",
"2  c #272B64",
"3  c #2D356B",
"4  c #34386D",
"5  c #343C73",
"6  c #1B474C",
"7  c #2E555A",
"8  c #375C54",
"9  c #2E534B",
"0  c #3C6B41",
"q  c #2E6148",
"w  c #395768",
"e  c #3A427B",
"r  c #324D6A",
"t  c #406E42",
"y  c #497245",
"u  c #567948",
"i  c #5F785E",
"p  c #657E4A",
"a  c #72765F",
"s  c #464776",
"d  c #516074",
"f  c #4C617D",
"g  c #556B77",
"h  c #5B7365",
"j  c #667D64",
"k  c #0A0A29",
"l  c #090921",
"z  c #35476C",
"x  c #326764",
"c  c #707070",
"v  c #31755D",
"b  c #6C6778",
"n  c #6C7C7F",
"m  c #8A8A8A",
"M  c #8E8D8C",
"N  c #D4020A",
"B  c #D60B14",
"V  c #D7131B",
"C  c #D81B23",
"Z  c #DA232B",
"A  c #DB2B33",
"S  c #DD343B",
"D  c #DE3C43",
"F  c #DF434A",
"G  c #E0474D",
"H  c #E14D53",
"J  c #E2545A",
"K  c #E35C62",
"L  c #E5666C",
"P  c #E66C72",
"I  c #E8757A",
"U  c #688149",
"Y  c #71824F",
"T  c #678555",
"R  c #77835A",
"E  c #628177",
"W  c #5BA57D",
"Q  c #898457",
"!  c #8F8555",
"~  c #818260",
"^  c #9A8D66",
"/  c #9C9174",
"(  c #888572",
")  c #A1926E",
"_  c #AA9879",
"`  c #B19D7D",
"'  c #B8A17D",
"]  c #3C4885",
"[  c #424989",
"{  c #42528B",
"}  c #575A86",
"|  c #485A93",
" . c #535E91",
".. c #546C99",
"X. c #536C83",
"o. c #627D98",
"O. c #636E80",
"+. c #5569A6",
"@. c #5B73AB",
"#. c #5A78B5",
"$. c #627DB6",
"%. c #607CAE",
"&. c #597EC1",
"*. c #E97D81",
"=. c #609095",
"-. c #678288",
";. c #75869A",
":. c #698B93",
">. c #66BB9C",
",. c #5E86BF",
"<. c #5C97BA",
"1. c #6585AA",
"2. c #7D8AA6",
"3. c #6683BA",
"4. c #6D90B8",
"5. c #5ABAA7",
"6. c #5AA8B4",
"7. c #59B6AC",
"8. c #65BFA3",
"9. c #53C29E",
"0. c #57C6A8",
"q. c #6DD2B6",
"w. c #5C86C3",
"e. c #5C95C5",
"r. c #6789C7",
"t. c #6E95D1",
"y. c #6F97C8",
"u. c #868C99",
"i. c #959493",
"p. c #A39A8A",
"a. c #B39F81",
"s. c #87AD8D",
"d. c #B6A183",
"f. c #BCAE95",
"g. c #ADA290",
"h. c #9198A6",
"j. c #919BB3",
"k. c #9EA3B7",
"l. c #8EA8A4",
"z. c #ACACAC",
"x. c #B8B6B3",
"c. c #EA858A",
"v. c #EC8E92",
"b. c #ED9598",
"n. c #EF9EA1",
"m. c #CABDAA",
"M. c #EFA0A3",
"N. c #F0A5A8",
"B. c #F3B6B9",
"V. c #F1AFB2",
"C. c #83CEBD",
"Z. c #D5C8B8",
"A. c #CDC3B5",
"S. c #8BA8D8",
"D. c #8DAECC",
"F. c #ADAEC0",
"G. c #B7B8CA",
"H. c #B1BDD8",
"J. c #9EBEE2",
"K. c #BCC5C5",
"L. c #ACC9CF",
"P. c #ADC4E6",
"I. c #C2C9C6",
"U. c #DCDCDB",
"Y. c #CDCFD1",
"T. c #F5C3C5",
"R. c #E3DACD",
"E. c #F8D5D7",
"W. c #EED6D1",
"Q. c #C6CEE1",
"!. c #C9D1E3",
"~. c #DEE9F2",
"^. c #EAE8E4",
"/. c #FBE6E7",
"(. c #E9ECF3",
"). c #FEFDFD",
"_. c #F4F4F5",
"`. c #0F1133",
"'. c #1C293F",
"]. c #2B322A",
"[. c #08081C",
"{. c #7F7F7E",
"}. c #5D5E63",
"|. c #0C0C0D",
" X c #020208",
".X c #212121",
"XX c #000000",
"oX c #000000",
"OX c None",
/* pixels */
"oXoXoXoXoXoXoXoXoXoXoXoXoXoXoXoXoXoXoXoXoXoXoXoXoXoXoXoXoXoXoXoXoXoXoXoXoXoXoXoXoXoXoXoXoXoXoXoXoXoXoXoXoXoXoXoXoXoXoXoXoXoXoXoXoXoXoXoXoXoXoXoXoXoXoXoXoXoXoXoX",
"oXoXoXoXoXoXoXoXoXoXoXoXoXoXoXoXoXoXoXoXoXoXoXoXoXoXoXoXoXoXoXoXoXoXoXoXoXoXoXoXoXoXoXoXoXoXoXoXoXoXoXoXoXoXoXoXoXoXoXoXoXoXoXoXoXoXoXoXoXoXoXoXoXoXoXoXoXoXoXoX",
"oXoXoXoXoXoXoXoXoXoXoXoXoXoXoXoXoXoXoXoXoXoXoXoXoXoXoXoXoXoXoXoXoXoXoXoXoXoXoXoXoXoXoXoXoXoXoXoXoXoXoXoXoXoXoXoXoXoXoXoXoXoXoXoXoXoXoXoXoXoXoXoXoXoXoXoXoXoXoXoX",
"oXoXoXoXoXoXoXoXoXoXoXoXoXoXoXoXoXoXoXoXoXoXoXoXoXoXoXoXoXoXoXoXoXoXoXoXoXoXoXoXoXoXoXoXoXoXoXoXoXoXoXoXoXoXoXoXoXoXoXoXoXoXoXoXoXoXoXoXoXoXoXoXoXoXoXoXoXoXoXoX",
"oXoXoXoXoXoXoXoXoXoXoXoXoXoXoXoXoXoXoXoXoXoXoXoXoXoXoXoXoXoXoXoXoXoXoXoXoXoXoXoXoXoXoXoXoXoXoXoXoXoXoXoXoXoXoXoXoXoXoXoXoXoXoXoXoXoXoXoXoXoXoXoXoXoXoXoXoXoXoXoX",
"oXoXoXoXoXoXoXoXoXoXoXoXoXoXoXoXoXoXoXoXoXoXoXoXoXoXoXoXoXoXoXoXoXoXoXoXoXoXoXoXoXoXoXoXoXoXoXoXoXoXoXoXoXoXoXoXoXoXoXoXoXoXoXoXoXoXoXoXoXoXoXoXoXoXoXoXoXoXoXoX",
"oXoXoXoXoXoXoXoXoXoXoXoXoXoXoXoXoXoXoXoXoXoXoXoXoXoXoXoXoXoXoXoXoXoXoXoXoXoXoXoXoXoXoXoXoXoXoXoXoXoXoXoXoXoXoXoXoXoXoXoXoXoXoXoXoXoXoXoXoXoXoXoXoXoXoXoXoXoXoXoX",
"oXoXoXoXoXoXoXoXoXoXoXoXoXoXoXoXoXoXoXoXoXoXoXoXoXoXoXoXoXoXoXoXoXoXoXoXoXoXoXoXoXoXoXoXoXoXoXoXoXoXoXoXoXoXoXoXoXoXoXoXoXoXoXoXoXoXoXoXoXoXoXoXoXoXoXoXoXoXoXoX",
"oXoXoXoXoXoXoXoXoXoXoXoXoXoXoXoXoXoXoXoXoXoXoXoXoXoXoXoXoXoXoXoXoXoXoXoXoXoXoXoXoXoXoXoXoXoXoXoXoXoXoXoXoXoXoXoXoXoXoXoXoXoXoXoXoXoXoXoXoXoXoXoXoXoXoXoXoXoXoXoX",
"oXoXoXoXoXoXoXoXoXoXoXoXoXoXoXoXoXoXoXoXoXoXoXoXoXoXoXoXoXoXoXoXoXoXoXoXoXoXoXoXoXoXoXoXoXoXoXoXoXoXoXoXoXoXoXoXoXoXoXoXoXoXoXoXoXoXoXoXoXoXoXoXoXoXoXoXoXoXoXoX",
"oXoXoXoXoXoXoXoXoXoXoXoXoXoXoXoXoXoXoXoXoXoXoXoXoXoXoXoXoXoXoXoXoXoXoXoXoXoXoXoXoXoXoXoXoXoXoXoXoXoXoXoXoXoXoXoXoXoXoXoXoXoXoXoXoXoXoXoXoXoXoXoXoXoXoXoXoXoXoXoX",
"oXoXoXoXoXoXoXoXoXoXoXoXoXoXoXoXoXoXoXoXoXoXoXoXoXoXoXoXoXoXoXoXoXoXoXoXoXoXoXoXoXoXoXoXoXoXoXoXoXoXoXoXoXoXoXoXoXoXoXoXoXoXoXoXoXoXoXoXoXoXoXoXoXoXoXoXoXoXoXoX",
"oXoXoXoXoXoXoXoXoXoXoXoXoXoXoXoXoXoXoXoXoXoXoXoXoXoXoXoXoXoXoXoXoXoXoXoXoXoXoXoXoXoXoXoXoXoXoXoXoXoXoXoXoXoXoXoXoXoXoXoXoXoXoXoXoXoXoXoXoXoXoXoXoXoXoXoXoXoXoXoX",
"oXoXoXoXoXoXoXoXoXoXoXoXoXoXoXoXoXoXoXoXoXoXoXoXoXoXoXoXoXoXoXoXoXoXoXoXoXoXoXoXoXoXoXoXoXoXoXoXoXoXoXoXoXoXoXoXoXoXoXoXoXoXoXoXoXoXoXoXoXoXoXoXoXoXoXoXoXoXoXoX",
"oXoXoXoXoXoXoXoXoXoXoXoXoXoXoXoXoXoXoXoXoXoXoXoXoXoXoXoXoXoXoXoXoXoXoXoXoXoXoXoXoXoXoXoXoXoXoXoXoXoXoXoXoXoXoXoXoXoXoXoXoXoXoXoXoXoXoXoXoXoXoXoXoXoXoXoXoXoXoXoX",
"oXoXoXoXoXoXoXoXoXoXoXoXoXoXoXoXoXoXoXoXoXoXoXoXoXoXoXoXoXoXoXoXoXoXoXoXoXoXoXoXoXoXoXoXoXoXoXoXoXoXoXoXoXoXoXoXoXoXoXoXoXoXoXoXoXoXoXoXoXoXoXoXoXoXoXoXoXoXoXoX",
"oXoXoXoXoXoXoXoXoXoXoXoXoXoXoXoXoXoXoXoXoXoXoXoXoXoXoXoXoXoXoXoXoXoXoXoXoXoXoXoXoXoXoXoXoXoXoXoXoXoXoXoXoXoXoXoXoXoXoXoXoXoXoXoXOXOXOXOXOXOXOXOXOXOXOXOXoXoXoXoX",
"oXoXoXoXoXoXoXoXoXoXoXoXoXoXoXoXoXoXoXoXoXoXoXoXoXoXoXoXoXoXoXoXoXoXoXoXoXoXoXoXoXoXoXoXoXoXoXoXoXoXoXoXoXoXoXoXoXoXoXoXoXoXoXoXOXOXOXOXOXOXOXOXOXOXOXOXoXoXoXoX",
"oXoXoXoXoXoXoXoXoXoXoXoXoXoXoXoXoXoXoXoXoXoXoXoXoXoXoXoXoXoXoXoXoXoXoXoXoXoXoXoXoXoXoXoXoXoXoXoXoXoXoXoXoXoXoXoXoXoXoXoXoXoXoXoXOXOXOXOXOXOXOXOXOXOXOXOXoXoXoXoX",
"oXoXoXoXoXoXoXoXoXoXoXoXoXoXoXoXoXoXoXoXoXoXoXoXoXoXoXoXoXoXoXoXoXoXoXoXoXoXoXoXoXoXoXoXoXoXoXoXoXoXoXoXoXoXoXoXoXoXoXoXoXoXoXoXOXOXOXOXOXOXOXOXOXOXOXOXoXoXoXOX",
"oXoXoXoXoXoXoXoXoXoXoXoXoXoXoXoXoXoXoXoXoXoXoXoXoXoXoXoXoXoXoXoXoXoXoXoXoXoXoXoXoXoXoXoXoXoXoXoXoXoXoXoXoXoXoXoXoXoXoXoXoXoXoXoXOXOXOXOXOXOXOXOXOXOXOXOXOXOXOXOX",
"oXoXoXoXoXoXoXoXoXoXoXoXoXoXoXoXoXoXoXoXoXoXoXoXoXoXoXoXoXoXoXoXoXoXoXoXoXoXoXoXoXoXoXoXoXoXoXoXoXoXoXoXoXoXoXoXoXoXoXoXoXoXoXoXOXOXOXOXOXOXOXOXOXOXOXOXOXOXOXOX",
"oXoXoXoXoXoXoXoXoXoXoXoXoXoXoXoXoXoXoXoXoXoXoXoXoXoXoXoXoXoXoXoXoXoXoXoXoXoXoXoXoXoXoXoXoXoXoXoXoXoXoXoXoXoXoXoXoXoXoXoXoXoXoXoXOXOXOXOXOXOXOXOXOXOXOXOXOXOXOXOX",
"oXoXoXoXoXoXoXoXoXoXoXoXoXoXoXoXoXoXoXoXoXoXoXoXoXoXoXoXoXoXoXoXoXoXoXoXoXoXoXoXoXoXoXoXoXoXoXoXoXoXoXoXoXoXoXoXoXoXoXoXoXoXoXoXOXOXOXOXOXOXOXOXOXOXOXOXOXOXOXOX",
"oXoXoXoXOXOXOXOXOXOXOXOXoXoXoXoXoXoXoXoXoXoXoXoXoXoXoXoXoXoXoXoXoXoXoXoXoXoXoXoXoXoXoXoXoXoXoXoXoXoXoXoXoXoXoXoXoXoXoXoXoXoXoXoXOXOXOXOXOXOXOXOXoXoXoXoXoXoXoXoX",
"oXoXoXoXOXOXOXOXOXOXOXOXoXoXoXoXoXoXoXoXoXoXoXoXoXoXoXoXoXoXoXoXoXoXoXoXoXoXoXoXoXoXoXoXoXoXoXoXoXoXoXoXoXoXoXoXoXoXoXoXoXoXoXoXOXOXOXOXOXOXOXOXoXoXoXoXoXoXoXoX",
"oXoXoXoXOXOXOXOXoX|.OXOXoXoXoXoXoXoXoXoXoXoXoXoXoXoXoXoXoXoXoXoXoXoXoXoXoXoXoXoXoXoXoXoXoXoXoXoXoXoXoXoXoXoXoXoXoXoXoXoXoXoXoXoXOXOXoXoXOXOXOXOXoXoXoXoXoXoXoXoX",
"oXoXoXoXOXOXOXOX.Xc n c n n c {.m m m m n n c {.m m m m n n c {.M M M M M M M M m m m }.M M M M }.1 z }.'.. n k c c v v x z b }.k k [.l k k k |.oXoXoXoXoXoXoXoX",
"oXoXoXoXoXoXOX[.I.(.^.^.^.^.U.U.^.^.U.U.U.U.U.U.^.^.U.U.U.U.U.U.U.U.U.U.^.^.^.^.x.x.x.x.x.x.x.x.I.K.u.j.w.<.e.e.0.r.6.9.C.C.D.r = : ; : ; : :    XoXoXoXoXoXoXoX",
"oXoXoXoXoXoXOXz.(.^.^.^.^.^.U.U.^.^.U.U.U.U.Y.U.^.^.U.U.U.U.Y.U.Y.U.U.U.^.^.U.U.x.x.z.x.x.x.x.x.K.K.#.#.w.=.-.=.7.0.9.9.q.0.C.!.} = : ; : ; ; : . oXoXoXoXoXoXoX",
"oXoXoXoXoXoXOXU.^.^.^.^.^.^.^.^.^.^.^.^.U.U.U.U.^.^.^.^.U.U.U.U.U.U.U.U.U.U.U.U.x.x.x.x.x.x.K.K.K.x.#.&.r.1.* T =.>.9.C.0.s.z.^.).} = : : ; : : ; XXoXoXoXoXoXoX",
"oXoXoXoXoXoXXX^.^.^.^.^.^.^.^.^.^.^.^.^.U.U.U.U.^.^.^.^.U.U.U.U.U.U.U.U.U.U.U.U.x.x.x.x.x.x.K.K.K.F.#.@.T T E =.-.=.0.0.4.4.C.D.).).s = : : ; : ; OXoXoXoXoXoXoX",
"oXoXoXoXoXoX XU.U.U.U.U.U.U.U.Z.c.H D S A c.U.c.D D v.U.U.U.U.U.b.G S c.U.U.U.U.H S c.Z c.U.U.U.U.Y.3.-.~ -.1.-.1.-.6.6.u.i.h.L.J.).(.2 - : : : - XXoXoXoXoXoXoX",
"oXoXoXoXoXoXoXU.U.U.U.U.U.U.c.V N V C C V c.V.N V V B *.U.U.U.b.B C B B c.U.U.U.S C c.N *.U.U.U.U.Y.+.X.~ ~ i.p.1.,.r.r.=.u.g.A.K._.).k.= : ; : - XXoXoXoXoXoXoX",
"oXoXoXoXoXoX|.Y.U.U.U.U.U.J B Z c.c.c.c.c.n.K B K c.C B R.U.U.K V *.c.Z A Y.U.U.D Z *.N K U.U.U.U.Q.-.~ ^ a.a.d.i.u.u.j.4.w.I.U.^._.).).4 = : : - XXoXoXoXoXoXoX",
"oXoXoXoXoXoX|.^.U.U.U.U.J V G c.D V B B N K H V c.K c.V K U.U.F C c.H K B K U.U.S Z K B *.U.U.U.U.A.( ^ ^ a.a.a.a.a.G.U.^.I.A.A.^.H.(.).j.= : : ; OXoXoXoXoXoXoX",
"oXoXoXoXoXoX.X^.U.U.U.A.N S c.C N D L *.c.b.K V v.C c.D N v.U.F C c.B c.S B b.U.S Z c.B c.U.U.U.U.Y.^ ! a.p.^ a.a._ m.I.I.R.h.p.R.~.P.P.!.: : :   XXoXoXoXoXoXoX",
"oXoXoXoXoXoX.X^.U.U.U.c.N c.D B c.U.U.U.U.U.H C v.Z A c.V A U.K C c.B A c.V F U.D C L B *.U.U.U.U.Y.Q ^ ) a.) a.a.a.a.) ) d.g.u.R.).).S.S.s = : ; XXoXoXoXoXoXoX",
"oXoXoXoXoXoX XY.Y.Y.U.F Z c.V H U.U.U.U.U.U.G C c.Z B K K N c.G C c.C B L J V c.F C *.B K U.U.U.U.Y.^ p.! ^ ) p.a.` a.a.a.a.a.i.k.).).t.t. .= :   XXoXoXoXoXoXoX",
"oXoXoXoXoXoXoXY.Y.U.Y.Z D L B v.U.U.U.U.U.U.G C c.C C V c.A V Z Z c.C C Z c.Z Z Z Z K V c.U.U.U.U.I.U T ~ Q Q ^ _ a.a.) a.a.a.a.u.A.D.&.t. .- : ; XXoXoXoXoXoXoX",
"oXoXoXoXoXoX.X^.U.U.U.A D c.N c.U.U.U.U.U.U.K Z c.A C V D c.V C Z c.C C V F c.B C Z *.N K U.U.U.(.K.$ U U U U U Q Q Q Q Q ^ Q ^ _ ;.3.r.r.{ - : ; XXoXoXoXoXoXoX",
"oXoXoXoXoXoX|.^.U.U.U.G Z c.B H U.U.U.U.U.U.G C c.C H H N *.G B Z c.B J F B *.D B Z *.B c.U.U.U.(.K.O O t t y U U U U U Q Q T R ` ` i.&.r.] - : ; OXoXoXoXoXoXoX",
"oXoXoXoXoXoX|.Y.U.U.U.c.N c.A B v.U.U.U.U.U.G C v.C *.R.B Z c.C Z c.B c.A.C A c.V Z K B *.U.U.U.(.I.6 7 7 s q q t y t t y U U T ` ` 3.&.r.] = : - XXoXoXoXoXoXoX",
"oXoXoXoXoXoX XU.U.U.U.Z.N S c.C C D c.c.c.L A C c.C H U.K N J *.C c.B J U.J B J J B *.B c.U.U.U.(.I.2 e ] [ [ 7 X o + + + y Y p.' u.$.$.r.2 - : ; XXoXoXoXoXoXoX",
"oXoXoXoXoXoX.X^.U.U.U.U.K N H c.F V N N V B V V v.C H U.U.A B c.F c.B K U.Y.A V c.F *.B K U.U.U.(.I.2 5 e e [ 9 X X X X X t T ~ i.@.#.$.#.: ; :   XXoXoXoXoXoXoX",
"oXoXoXoXoXoX|.^.U.U.U.U.U.F B S *.c.*.*.c.L L c.L B K U.U.c.B A v.K B c.U.U.c.V D v.J N c.U.U.U.(.I.> 4 3 e [ 7 X X X X o U ~ ~ ..@.@.$.| - : : ; XXoXoXoXoXoXoX",
"oXoXoXoXoXoX|.Y.U.U.U.U.U.U.c.C N B Z Z Z Z Z Z C B V.U.U.U.K B A C B v.U.U.U.J B C C N b.U.U.U.(.F.: 2 2 4 3 [ 9 o q + t y U i +.+.+.%.3 - : : ; XXoXoXoXoXoXoX",
"oXoXoXoXoXoX XU.U.U.U.U.U.U.U.Z.c.G S A A S S A H M.U.U.U.U.U.*.Z C K U.U.U.U.U.H Z C *.U.U.U.U.(.F.- > < 2 3 r 9 @ t t 0 u U i +...@.| : : : :   OXoXoXoXoXoXoX",
"oXoXoXoXoXoX|.U.Y.Y.Y.Y.Y.Y.Y.Y.U.U.U.U.U.U.U.U.U.U.U.U.U.U.U.U.U.U.U.U.^.^.^.^.U.U.U.U.^.^.^.^.(.G.; > : > 2 4 t t @ @ @ y u g X.X...< : : : : - OXOXOXoXoXoXoX",
"oXoXoXoXoXoX|.U.Y.Y.Y.Y.Y.Y.Y.Y.U.U.U.U.U.U.U.U.U.U.U.U.U.U.U.U.U.U.U.U.^.^.^.^.U.U.U.U.^.^.^.^.(.I.= : : : > 2 $ $ # % t y w g h  .5 : : : ; : - OXOXOXoXoXoXoX",
"oXoXoXoXoXoXoXz.Y.Y.Y.I.K.K.I.K.U.U.^.^.U.U.U.U.Y.Y.Y.Y.U.U.^.^.U.U.U.U.U.U.^.^.U.U.U.U.^.U.^.^.^.F.= : : : > 2 c # # # @ 8 [ d [ 4 : 2 ; ; ; : . OXOXOXoXoXoXoX",
"oXoXoXoXoXoXoX.Xx.Y.Y.Y.K.I.I.I.^.^.^.^.U.U.U.U.Y.Y.Y.Y.^.^.^.^.U.U.U.U.U.U.^.^.U.U.^.^.^.^.^.^.^.F.= : : : : 3 1 # # # 9 5 e r 1 : : e ; : ;    XOXOXOXoXoXoXoX",
"oXoXoXoXoXoXoXoX X}.{.{.].}.}.}.{.{.{.{.{.{.{.}.].].}.{.{.{.{.{.].}.}.}.}.{.{.{.].}.}.}.].}.}.}.].].'.'.'.'.'.'.`.].].].[.[.`.`.].'.'.'.].}.}.oXoXoXoXoXoXoXoXoX",
"oXoXoXoXoXoXoXoX XoXoXoXoXoXoXoXoXoXoXoXoXoXoXoXoXoXoXoXoXoXoXoXoXoXoXoXoXoXoXoXoXoXoXoXoXoXoXoXoXoXoXoXoXoXoXoXoXoXoXoXoXoXoXoXoXoXoXoXoXoXoXoXoXoXoXoXoXoXoXoX",
"oXoXoXoXoXoXoXoXoX XoXoXoXoXoXoXoXoXoXoXoXoXoXoXoXoXoXoXoXoXoXoXoXoXoXoXoXoXoXoXoXoXoXoXoXoXoXoXoXoXoXoXoXoXoXoXoXoXoXoXoXoXoXoXoXoXoXoXoXoXoXoXoXoXoXoXoXoXoXoX",
"oXoXoXoXoXoXoXoXoXoXoXoXoXoXoXoXoXoXoXoXoXoXoXoXoXoXoXoXoXoXoXoXoXoXoXoXoXoXoXoXoXoXoXoXoXoXoXoXoXoXoXoXoXoXoXoXoXoXoXoXoXoXoXoXoXoXoXoXoXoXoXoXoXoXoXoXoXoXoXoX",
"oXoXoXoXoXoXoXoXoXoXoXoXoXoXoXoXoXoXoXoXoXoXoXoXoXoXoXoXoXoXoXoXoXoXoXoXoXoXoXoXoXoXoXoXoXoXoXoXoXoXoXoXoXoXoXoXoXoXoXoXoXoXoXoXoXoXoXoXoXoXoXoXoXoXoXoXoXoXoXoX",
"oXoXoXoXoXoXoXoXoXoXoXoXoXoXoXoXoXoXoXoXoXoXoXoXoXoXoXoXoXoXoXoXoXoXoXoXoXoXoXoXoXoXoXoXoXoXoXoXoXoXoXoXoXoXoXoXoXoXoXoXoXoXoXoXoXoXoXoXoXoXoXoXoXoXoXoXoXoXoXoX",
"oXoXoXoXoXoXoXoXoXoXoXoXoXoXoXoXoXoXoXoXoXoXoXoXoXoXoXoXoXoXoXoXoXoXoXoXoXoXoXoXoXoXoXoXoXoXoXoXoXoXoXoXoXoXoXoXoXoXoXoXoXoXoXoXoXoXoXoXoXoXoXoXoXoXoXoXoXoXoXoX",
"oXoXoXoXoXoXoXoXoXoXoXoXoXoXoXoXoXoXoXoXoXoXoXoXoXoXoXoXoXoXoXoXoXoXoXoXoXoXoXoXoXoXoXoXoXoXoXoXoXoXoXoXoXoXoXoXoXoXoXoXoXoXoXoXoXoXoXoXoXoXoXoXoXoXoXoXoXoXoXoX",
"oXoXoXoXoXoXoXoXoXoXoXoXoXoXoXoXoXoXoXoXoXoXoXoXoXoXoXoXoXoXoXoXoXoXoXoXoXoXoXoXoXoXoXoXoXoXoXoXoXoXoXoXoXoXoXoXoXoXoXoXoXoXoXoXoXoXoXoXoXoXoXoXoXoXoXoXoXoXoXoX",
"oXoXoXoXoXoXoXoXoXoXoXoXoXoXoXoXoXoXoXoXoXoXoXoXoXoXoXoXoXoXoXoXoXoXoXoXoXoXoXoXoXoXoXoXoXoXoXoXoXoXoXoXoXoXoXoXoXoXoXoXoXoXoXoXoXoXoXoXoXoXoXoXoXoXoXoXoXoXoXoX",
"oXoXoXoXoXoXoXoXoXoXoXoXoXoXoXoXoXoXoXoXoXoXoXoXoXoXoXoXoXoXoXoXoXoXoXoXoXoXoXoXoXoXoXoXoXoXoXoXoXoXoXoXoXoXoXoXoXoXoXoXoXoXoXoXoXoXoXoXoXoXoXoXoXoXoXoXoXoXoXoX",
"oXoXoXoXoXoXoXoXoXoXoXoXoXoXoXoXoXoXoXoXoXoXoXoXoXoXoXoXoXoXoXoXoXoXoXoXoXoXoXoXoXoXoXoXoXoXoXoXoXoXoXoXoXoXoXoXoXoXoXoXoXoXoXoXoXoXoXoXoXoXoXoXoXoXoXoXoXoXoXoX",
"oXoXoXoXoXoXoXoXoXoXoXoXoXoXoXoXoXoXoXoXoXoXoXoXoXoXoXoXoXoXoXoXoXoXoXoXoXoXoXoXoXoXoXoXoXoXoXoXoXoXoXoXoXoXoXoXoXoXoXoXoXoXoXoXoXoXoXoXoXoXoXoXoXoXoXoXoXoXoXoX",
"oXoXoXoXoXoXoXoXoXoXoXoXoXoXoXoXoXoXoXoXoXoXoXoXoXoXoXoXoXoXoXoXoXoXoXoXoXoXoXoXoXoXoXoXoXoXoXoXoXoXoXoXoXoXoXoXoXoXoXoXoXoXoXoXoXoXoXoXoXoXoXoXoXoXoXoXoXoXoXoX",
"oXoXoXoXoXoXoXoXoXoXoXoXoXoXoXoXoXoXoXoXoXoXoXoXoXoXoXoXoXoXoXoXoXoXoXoXoXoXoXoXoXoXoXoXoXoXoXoXoXoXoXoXoXoXoXoXoXoXoXoXoXoXoXoXoXoXoXoXoXoXoXoXoXoXoXoXoXoXoXoX",
"oXoXoXoXoXoXoXoXoXoXoXoXoXoXoXoXoXoXoXoXoXoXoXoXoXoXoXoXoXoXoXoXoXoXoXoXoXoXoXoXoXoXoXoXoXoXoXoXoXoXoXoXoXoXoXoXoXoXoXoXoXoXoXoXoXoXoXoXoXoXoXoXoXoXoXoXoXoXoXoX",
"oXoXoXoXoXoXoXoXoXoXoXoXoXoXoXoXoXoXoXoXoXoXoXoXoXoXoXoXoXoXoXoXoXoXoXoXoXoXoXoXoXoXoXoXoXoXoXoXoXoXoXoXoXoXoXoXoXoXoXoXoXoXoXoXoXoXoXoXoXoXoXoXoXoXoXoXoXoXoXoX",
"oXoXoXoXoXoXoXoXoXoXoXoXoXoXoXoXoXoXoXoXoXoXoXoXoXoXoXoXoXoXoXoXoXoXoXoXoXoXoXoXoXoXoXoXoXoXoXoXoXoXoXoXoXoXoXoXoXoXoXoXoXoXoXoXoXoXoXoXoXoXoXoXoXoXoXoXoXoXoXoX",
"oXoXoXoXoXoXoXoXoXoXoXoXoXoXoXoXoXoXoXoXoXoXoXoXoXoXoXoXoXoXoXoXoXoXoXoXoXoXoXoXoXoXoXoXoXoXoXoXoXoXoXoXoXoXoXoXoXoXoXoXoXoXoXoXoXoXoXoXoXoXoXoXoXoXoXoXoXoXoXoX",
"oXoXoXoXoXoXoXoXoXoXoXoXoXoXoXoXoXoXoXoXoXoXoXoXoXoXoXoXoXoXoXoXoXoXoXoXoXoXoXoXoXoXoXoXoXoXoXoXoXoXoXoXoXoXoXoXoXoXoXoXoXoXoXoXoXoXoXoXoXoXoXoXoXoXoXoXoXoXoXoX",
"oXoXoXoXoXoXoXoXoXoXoXoXoXoXoXoXoXoXoXoXoXoXoXoXoXoXoXoXoXoXoXoXoXoXoXoXoXoXoXoXoXoXoXoXoXoXoXoXoXoXoXoXoXoXoXoXoXoXoXoXoXoXoXoXoXoXoXoXoXoXoXoXoXoXoXoXoXoXoXoX",
"oXoXoXoXoXoXoXoXoXoXoXoXoXoXoXoXoXoXoXoXoXoXoXoXoXoXoXoXoXoXoXoXoXoXoXoXoXoXoXoXoXoXoXoXoXoXoXoXoXoXoXoXoXoXoXoXoXoXoXoXoXoXoXoXoXoXoXoXoXoXoXoXoXoXoXoXoXoXoXoX",
"oXoXoXoXoXoXoXoXoXoXoXoXoXoXoXoXoXoXoXoXoXoXoXoXoXoXoXoXoXoXoXoXoXoXoXoXoXoXoXoXoXoXoXoXoXoXoXoXoXoXoXoXoXoXoXoXoXoXoXoXoXoXoXoXoXoXoXoXoXoXoXoXoXoXoXoXoXoXoXoX",
"oXoXoXoXoXoXoXoXoXoXoXoXoXoXoXoXoXoXoXoXoXoXoXoXoXoXoXoXoXoXoXoXoXoXoXoXoXoXoXoXoXoXoXoXoXoXoXoXoXoXoXoXoXoXoXoXoXoXoXoXoXoXoXoXoXoXoXoXoXoXoXoXoXoXoXoXoXoXoXoX",
"oXoXoXoXoXoXoXoXoXoXoXoXoXoXoXoXoXoXoXoXoXoXoXoXoXoXoXoXoXoXoXoXoXoXoXoXoXoXoXoXoXoXoXoXoXoXoXoXoXoXoXoXoXoXoXoXoXoXoXoXoXoXoXoXoXoXoXoXoXoXoXoXoXoXoXoXoXoXoXoX",
"oXoXoXoXoXoXoXoXoXoXoXoXoXoXoXoXoXoXoXoXoXoXoXoXoXoXoXoXoXoXoXoXoXoXoXoXoXoXoXoXoXoXoXoXoXoXoXoXoXoXoXoXoXoXoXoXoXoXoXoXoXoXoXoXoXoXoXoXoXoXoXoXoXoXoXoXoXoXoXoX",
"oXoXoXoXoXoXoXoXoXoXoXoXoXoXoXoXoXoXoXoXoXoXoXoXoXoXoXoXoXoXoXoXoXoXoXoXoXoXoXoXoXoXoXoXoXoXoXoXoXoXoXoXoXoXoXoXoXoXoXoXoXoXoXoXoXoXoXoXoXoXoXoXoXoXoXoXoXoXoXoX",
"oXoXoXoXoXoXoXoXoXoXoXoXoXoXoXoXoXoXoXoXoXoXoXoXoXoXoXoXoXoXoXoXoXoXoXoXoXoXoXoXoXoXoXoXoXoXoXoXoXoXoXoXoXoXoXoXoXoXoXoXoXoXoXoXoXoXoXoXoXoXoXoXoXoXoXoXoXoXoXoX"
};
