/* XPM */
static char *xpm_[] = {
/* columns rows colors chars-per-pixel */
"80 80 193 2 ",
"   c #152F5F",
".  c #18305E",
"X  c #152F5F",
"o  c #2B3B5D",
"O  c #323E5C",
"+  c #092C67",
"@  c #152F60",
"#  c #0C346C",
"$  c #143566",
"%  c #083A75",
"&  c #113E71",
"*  c #2B3E61",
"=  c #152F5F",
"-  c #152F5F",
";  c #152F5F",
":  c #304E5D",
">  c #0E487D",
",  c #114577",
"<  c #1B557D",
"1  c #19476E",
"2  c #274467",
"3  c #275069",
"4  c #395E6A",
"5  c #224A71",
"6  c #315669",
"7  c #2D666E",
"8  c #29677A",
"9  c #337779",
"0  c #376F72",
"q  c #434B57",
"w  c #585B58",
"e  c #625D56",
"r  c #6A5449",
"t  c #45695B",
"y  c #58695B",
"u  c #5A745E",
"i  c #4B7559",
"p  c #676755",
"a  c #787D57",
"s  c #71724E",
"d  c #425C6D",
"f  c #596565",
"g  c #477565",
"h  c #4B7373",
"j  c #4B6A68",
"k  c #757D61",
"l  c #65786C",
"z  c #152F5F",
"x  c #152F5F",
"c  c #152F5F",
"v  c #152F5F",
"b  c #152F5F",
"n  c #152F5F",
"m  c #152F5F",
"M  c #8B5F3F",
"N  c #957A3F",
"B  c #B26F35",
"V  c #DB7A2B",
"C  c #E87D26",
"Z  c #815F42",
"A  c #977840",
"S  c #AB7D43",
"D  c #528557",
"F  c #70995E",
"G  c #77904C",
"H  c #77A14B",
"J  c #69A258",
"K  c #77B957",
"L  c #74B352",
"P  c #4A8872",
"I  c #588477",
"U  c #45917F",
"Y  c #559777",
"T  c #5D9765",
"R  c #768A67",
"E  c #749968",
"W  c #698B73",
"Q  c #669070",
"!  c #55A27C",
"~  c #67A869",
"^  c #6DB96F",
"/  c #73BB64",
"(  c #65B77B",
")  c #7CC25D",
"_  c #73C06D",
"`  c #6EC17A",
"'  c #B68934",
"]  c #A9863D",
"[  c #9DBE3A",
"{  c #B7A438",
"}  c #AEBD36",
"|  c #BABB34",
" . c #FD8A1D",
".. c #FD981C",
"X. c #FAA81B",
"o. c #EDBE1F",
"O. c #FAB91A",
"+. c #C9872E",
"@. c #CD902D",
"#. c #EE8923",
"$. c #F28A22",
"%. c #F39921",
"&. c #E49727",
"*. c #DDA529",
"=. c #CBBE2B",
"-. c #D9BE26",
";. c #C6A636",
":. c #C9A12E",
">. c #E1A928",
",. c #F3A520",
"<. c #E6BD22",
"1. c #98C43C",
"2. c #9ED03A",
"3. c #B9C62D",
"4. c #A8C437",
"5. c #B5C232",
"6. c #FFC30F",
"7. c #E9C21E",
"8. c #FBC316",
"9. c #C6C12C",
"0. c #D3C127",
"q. c #E3C121",
"w. c #818349",
"e. c #968248",
"r. c #948352",
"t. c #8D9352",
"y. c #A98649",
"u. c #B29046",
"i. c #89A54D",
"p. c #95A947",
"a. c #86B649",
"s. c #9DBC40",
"d. c #97A456",
"f. c #B6A644",
"g. c #AAAC45",
"h. c #8B9960",
"j. c #86C54D",
"k. c #0B4C83",
"l. c #104E81",
"z. c #0D5589",
"x. c #125685",
"c. c #095C93",
"v. c #1A668B",
"b. c #0B6499",
"n. c #126693",
"m. c #197799",
"M. c #1C718F",
"N. c #266986",
"B. c #24738B",
"V. c #387884",
"C. c #257592",
"Z. c #005EA2",
"A. c #056AA4",
"S. c #0A74A8",
"D. c #1579A3",
"F. c #006FB0",
"G. c #0179B6",
"H. c #207CAC",
"J. c #0075C2",
"K. c #1F839C",
"L. c #3B8C88",
"P. c #3D9185",
"I. c #378993",
"U. c #2B8694",
"Y. c #1882A6",
"T. c #0981B3",
"R. c #2581A6",
"E. c #3EABB9",
"W. c #518C83",
"Q. c #449486",
"!. c #519182",
"~. c #438784",
"^. c #5BB58D",
"/. c #50AF9B",
"(. c #53B49C",
"). c #50A78C",
"_. c #45AAA8",
"`. c #4BB4AD",
"'. c #61C090",
"]. c #35A9C9",
"[. c #2BA3D5",
"{. c #38B2D2",
"}. c #152F5F",
"|. c #152F5F",
" X c #152F5F",
".X c #152F5F",
"XX c #152F5F",
"oX c #152F5F",
"OX c #152F5F",
"+X c #152F5F",
"@X c #152F5F",
"#X c #152F5F",
"$X c None",
/* pixels */
"$X$X$X$X$X$X$X$X$X$X$X$X$X$X$X$X$X$X$X$X$X$X$X$X$X$X$X$X$X$X$X$X$X$X$X$X$X$X$X$X$X$X$X$X$X$X$X$X$X$X$X$X$X$X$X$X$X$X$X$X$X$X$X$X$X$X$X$X$X$X$X$X$X$X$X$X$X$X$X$X",
"$X$X$X$X$X$X$X$X$X$X$X$X$X$X$X$X$X$X$X$X$X$X$X$X$X$X$X$X$X$X$X$X$X$X$X$X$X$X$X$X$X$X$X$X$X$X$X$X$X$X$X$X$X$X$X$X$X$X$X$X$X$X$X$X$X$X$X$X$X$X$X$X$X$X$X$X$X$X$X$X",
"$X$X$X$X$X$X$X$X$X$X$X$X$X$X$X$X$X$X$X$X$X$X$X$X$X$X$X$X$X$X$X$X$X$X$X$X$X$X$X$X$X$X$X$X$X$X$X$X$X$X$X$X$X$X$X$X$X$X$X$X$X$X$X$X$X$X$X$X$X$X$X$X$X$X$X$X$X$X$X$X",
"$X$X$X$X$X$X$X$X$X$X$X$X$X$X$X$X$X$X$X$X$X$X$X$X$X$X$X$X$X$X$X$X$X$X$X$X$X$X$X$X$X$X$X$X$X$X$X$X$X$X$X$X$X$X$X$X$X$X$X$X$X$X$X$X$X$X$X$X$X$X$X$X$X$X$X$X$X$X$X$X",
"$X$X$X$X$X$X$X$X$X$X$X$X$X$X$X$X$X$X$X$X$X$X$X$X$X$X$X$X+X.X.X|.c c c v m ; ; ; ; v ; v v v v .X.X.X+X$X$X$X$X$X$X$X$X$X$X$X$X$X$X$X$X$X$X$X$X$X$X$X$X$X$X$X$X$X",
"$X$X$X$X$X$X$X$X$X$X$X$X$X$X$X$X$X$X$X$X$X$X+X.X|.v ; ; X @ @ @ @ @ $ @ $ @ @ @ @ @ $ @ @ @ $ @ $ $ @ . X ; v .X.X$X$X$X$X$X$X$X$X$X$X$X$X$X$X$X$X$X$X$X$X$X$X$X",
"$X$X$X$X$X$X$X$X$X$X$X$X$X$X$X$X$X$X+X|.m X     $       @ @ @ @ $ @ @ @ @ @ @ @ $ @ $ @ @ @ @ @ . @ @ @ $ @ @ @ $ . ; v .X+X$X$X$X$X$X$X$X$X$X$X$X$X$X$X$X$X$X$X",
"$X$X$X$X$X$X$X$X$X$X$X$X$X$X$X.Xz X $ @ @ @     .     @ @ $ @ @ @ @ $ @ @ $ $ @ $ @ @ @ @ @ @ @ $ . @ @ @ @ @ @ . $ . $ $ @ ; v .X$X$X$X$X$X$X$X$X$X$X$X$X$X$X$X",
"$X$X$X$X$X$X$X$X$X$X$X$X.Xc X @             @ @   @ @ @ @   @ $ $ $ @ $ $ $ $ $ @ $ $ $ $ $ $ . $ @ @ @ @ @ @ @ . . @ @ @ @ @ @   X c +X$X$X$X$X$X$X$X$X$X$X$X$X",
"$X$X$X$X$X$X$X$X$X$X.X;     @ @             @ @ @   $ @ $ $ $ $ $ $ $ $ $ $ $ $ $ $ $ $ $ $ $ $ $ $ $ @ $ $ @ @ @ @ @ @ @ @ @ @     @   m oX$X$X$X$X$X$X$X$X$X$X",
"$X$X$X$X$X$X$X$XoX; @ @     @ @           @ @ @ $ @   $ $ $ $ $ $ $ $ $ $ $ $ $ $ $ $ $ $ $ $ $ $ $ $ $ $ @ $ @ @ @ @ @   . @ @         @ @ ; .X$X$X$X$X$X$X$X$X",
"$X$X$X$X$X$X$Xm @ @ @ @       @       @ @ @ @ $ @ $ $ $ $ $ # $ $ $ & $ & $ & $ $ & $ & $ & $ $ $ $ $ $ $ $ $ $ $ @ @ @ @ @ . @         @ @ .   m +X$X$X$X$X$X$X",
"$X$X$X$X$X+X@ @                     @ $ @ $ $ $ $ $ $ $ $ $ & $ & $ & $ & & & & & & & & $ & $ & $ $ $ $ $ $ $ $ @ $ $ @ @ @ @ @   @             @ X +X$X$X$X$X$X",
"$X$X$X$X$XX $ .     @             @ @ @ @ @ $ $ $ $ $ $ $ & $ & & & & & & & & & & & & & & & & & $ & # & & $ $ $ $ @ $ @ @ @ @ @                   @ @ +X$X$X$X$X",
"$X$X$X$Xc @               @   @ @ $ @ $ $ $ $ $ & $ & & & $ $ & & & & & & & & & & & & & & & & & & & & $ $ $ $ $ $ $ @ $ $ @ @ @ @     @         @   @ m $X$X$X$X",
"$X$X$X+X            @   .   @ @ @ @ $ @ $ $ $ $ $ $ & $ $ & , & & & & , & & & , & & , , & & & & & & & & & & & $ & $ $ $ $ @ @ @ @ @         @     @ @ @ .X$X$X$X",
"$X$X$Xc           @       @ @ $ @ $ $ $ $ $ & $ $ & & # , & , , , & , & l.c.l., , , > , , , , , & & & & & & $ $ & $ $ $ $ $ $ @ @ @ @ @ @ @             c $X$X$X",
"$X$X$X;                 @ @ @ @ @ $ $ $ $ $ $ & # & 1 & & , , , , , l.H.[.[.[.Y.> > , > , , , , & l.& & & & & & & $ & $ $ $ $ $ $ @ @ @   @     @       ; $X$X$X",
"$X$X$XX             @ @ @ @ @ @ $ $ $ $ $ $ & & & & , , , , , , l.& H.{.].].].{.R.> > > > > > > & l.l.& , , & & & & $ $ $ $ $ $ @ @ $ @       @         X $X$X$X",
"$X$X$XX         @   @ @ @ $ $ $ $ $ $ & & & & # & , , , , , > > l.x.E.E.E._.E.E.E.v.> z.k.< k.> l.& l.l., & & & & & & $ $ $ $ $ $ $ @ @ @ @             X $X$X$X",
"$X$X$XX         @   @ @ @ @ $ $ $ $ $ $ & # , < , , , , > > > l.k.C.`._._.`._._.`.C.k.x.> x.k.> l.N._._.Q.N.% , , & & & & # $ $ $ $ $ @ @ @             X $X$X$X",
"$X$X$X;             @ @ $ $ $ $ $ $ & & & V./.(./.N., > > l.l.l.k.C.(./././././.(.C.z.z.z.z.x.k.v.(.(./.(.(.N.& , & & & & $ & $ $ $ $ @ @ @ @ @ @     @ X $X$X$X",
"$X$X$XX       @ @ @ $ @ @ $ $ $ & $ & # 9 '.^.^.^.^.v.> x.k.k.z.z.v.^.^.^.^.^.^.^.v.z.z.z.z.z.k.Q.'.^.^.^.'.W., , , & & & & & $ $ $ $ @ $ @ @ @         X $X$X$X",
"$X$X$X;         @ @ @ @ $ $ $ $ $ & & , !.( ( ( ( ( U > x.x.z.x.z.z.~.( ( ( ( ` P.c.c.c.c.z.c.z.).^.( ( ^.^.! , > , & & & & & $ $ $ $ $ $ @ @ @         X $X$X$X",
"$X$X$X;         @ @ $ $ $ $ $ & & & & 1 ~ _ ^ ^ ^ _ Y k.z.z.z.x.z.c.c.L.^ ^ ( P.b.b.b.c.c.c.c.z.U ^ ^ ^ ^ _ Y > > , , 1 , & & $ $ $ $ $ $ $ @ @         X $X$X$X",
"$X$X$XX       @ @ @ @ $ $ $ & $ & & & % T ) / / / ) P k.x.x.c.c.c.c.c.c.n.M.n.c.b.b.b.c.n.c.c.c.9 ) ) ) ) ) 8 k.> > > , , & & & & $ $ $ $ $ $ @ @       X $X$X$X",
"$X$X$XX @ . @ @ @ @ $ $ $ $ $ & & & , & 7 j.j.j.) L v.z.x.c.c.c.b.b.b.b.b.b.b.A.b.b.b.b.b.b.b.b.c.9 L ) J 9 k.l.l.> > , , % 1 1 # $ $ $ $ $ @ @ @     @ X $X$X$X",
"$X$X$X; . @ @ @ @ $ $ @ + $ & # & & , , , 7 J L J 8 z.z.c.c.c.b.b.b.b.b.A.A.b.A.b.D.A.A.b.b.b.b.b.b.c.v.z.z.z.z.l.l.> , , D a.a.D & & $ $ @ $ @ @ @ @ @ X $X$X$X",
"$X$X$X; $ . @ @ $ @ + 2 t : # 1 & , 1 > > k.k.l.k.z.z.c.c.c.b.b.b.A.A.A.S.S.b.S.S.S.A.A.A.b.S.b.b.b.b.c.z.c.x.z.z.l.> > g 2.1.1.2.i # $ $ $ @ $ @ @ @ @ X $X$X$X",
"$X$X$XX   @ @ @ $ + t 1.2.1.i % , & , > > l.x.k.z.c.c.c.n.n.b.A.A.A.A.A.F.F.F.F.F.F.S.S.S.D.A.b.b.b.b.b.b.z.z.z.z.l.k.k.H 2.[ [ 4.H % # $ $ $ @ @ @ @ @ X $X$X$X",
"$X$X$X;     @ $ @ 2 [ 4.[ 1.4.3 % , , > l.l.z.z.z.c.c.c.b.b.A.A.m.K.L.L.P.P.Q.Q.I.U.K.D.S.F.F.A.b.A.b.b.c.c.c.z.z.k.> k.H 4.1.[ 4.H # & $ $ $ @ $ @     X $X$X$X",
"$X$X$XX   @ @ @ + : 5.4.4.} 5.t % , > > l.l.x.z.z.c.c.b.B.P J i.[ 4.4.4.3.3.5.3.5.5.4.[ a.~ U m.F.A.b.b.b.n.c.z.z.z.x.> 0 3.4.4.5.t # $ & $ $ $ @ @ @   X $X$X$X",
"$X$X$XX @ @ @ @ + 2 5.5.5.4.3.4 & > , > k.z.z.z.c.N.T p.4.9.3.3.5.5.5.} 5.5.4.} 4.5.5.5.3.3.3.5.i.Y m.A.b.b.c.c.x.z.l.l.k.g p.[ j & & $ $ $ $ $ $ $ @ @ X $X$X$X",
"$X$X$X; @ @ @ $ @ + G 9.9.0.G % , > > k.z.k.z.0 G } 9.9.3.5.| | 5.| | 3.| 5.3.| 5.| | 5.| | | 3.9.9.} F M.c.c.c.c.z.z.k.k.> % % % & & & $ & $ $ @ @ @ @ X $X$X$X",
"$X$X$XX @ @ @ $ $ $ # t G i & , , > k.k.k.8 i.9.0.9.| 3.=.=.=.5.3.=.| 9.=.9.=.| 5.=.=.9.9.9.9.| =.3.| 0.| F n.c.x.z.z.z.k.> > , , & & $ & $ $ $ $ @ @ @ X $X$X$X",
"$X$X$X; @ @ @ $ $ $ # + # # & , , > k.k.G =.0.=.9.9.9.=.9.9.9.9.=.=.9.9.9.9.9.9.=.9.9.=.9.9.=.9.=.9.9.9.9.0.| I c.c.z.l.l.> > > , & & & $ $ $ $ $ @ @ @ X $X$X$X",
"$X$X$X; @ @ $ @ $ $ $ & $ , , , > k.7 { q.0.9.0.9.0.0.0.0.=.0.0.=.0.=.0.=.0.=.0.0.0.0.0.0.0.0.0.0.=.9.0.=.=.0.0.i.c.z.z.z.l.> > , & & & $ & $ $ @ @ @ @ X $X$X$X",
"$X$X$XX @ @ @ $ $ $ $ $ & & & , > y -.0.-.-.0.-.0.q.0.0.-.0.-.-.-.-.0.-.-.0.-.-.0.q.-.0.0.0.0.f.| 7.q.0.-.-.-.-.7.{ 8 k.l.> > > , & & & & $ $ $ $ $ @ @ X $X$X$X",
"$X$X$X; @ @ $ $ $ $ & & & & , > G 7.-.-.-.-.-.7.<.t.~.g.7.<.0.<.q.q.=.q.-.-.q.-.0.q.<.0.q.q.q.g.G.!.g.7.7.0.0.q.-.7.<.h k.> > , , , & $ $ $ $ $ $ $ @ @ X $X$X$X",
"$X$X$XX @ @ @ $ $ $ $ $ & & % w.7.-.o.o.o.7.7.d.N.Z.A.=.q.q.<.<.8.E m.-.o.o.o.} Y.f.7.<.q.q.<.-.Y.G.G.~.{ 8.q.q.q.<.q.q.g k.< > , , & & & & & $ @ @ @ @ X $X$X$X",
"$X$X$X; $ @ $ $ $ $ & & & % w.8.o.o.7.<.8.-.h c.c.A.V.o.<.<.<.8.d.J.J.E 8.q.8.I.J.Y.-.8.q.o.<.o.I.G.D.F.A.E 7.q.<.o.<.<.7.u k.> , , & & & $ $ $ $ @ @ @ X $X$X$X",
"$X$X$XX @ @ $ @ $ $ $ & % s 8.7.o.o.o.8.;.v.c.c.c.A.P 8.o.o.7.<.Y.G.G.T.-.6.d.J.G.J.Q 8.o.<.8.8.Q.G.S.S.S.A.V.*.8.o.8.<.8.8.j % , , & & & $ $ $ $ $ @ @ X $X$X$X",
"$X$X$X; @ @ @ $ $ $ $ + p 6.o.O.O.7.8.{ k.c.z.c.b.c.Q 8.O.7.8.f.G.G.G.G.Y 8.K.G.G.G.Y.<.O.8.O.8.!.J.S.S.A.n.A.v.;.8.8.8.o.8.8.d % , & $ $ $ $ $ $ @ @ @ X $X$X$X",
"$X$X$XX @ @ $ @ $ $ # : O.8.O.8.O.6.:.x.z.z.z.c.b.b.R 6.8.O.6.d.J.G.G.G.S.!.G.G.G.J.G.-.8.8.O.6.Q G.S.S.S.A.b.c.c.{ 8.O.O.O.8.<.3 % , & & $ $ $ $ @ @ @ X $X$X$X",
"$X$X$XX . @ @ $ $ $ # s 6.O.O.O.8.>.< k.k.z.z.c.c.Z.R 6.O.O.O.d.G.G.G.G.G.G.T.G.G.G.G.<.O.O.O.8.!.G.S.S.S.b.b.n.c.c.{ O.O.O.O.8.:.& & & & & $ @ $ $ @ @ X $X$X$X",
"$X$X$X; @ @ @ $ $ $ + p 8.X.O.O.O.4 k.l.z.z.z.c.c.Z.l O.O.O.O.;.G.G.G.G.T.G.G.G.G.G.U.O.O.O.O.O.Q.J.S.A.b.A.b.c.c.z.x.:.O.O.O.O.8.A % & $ $ $ $ @ @ @ @ X $X$X$X",
"$X$X$XX @ @ @ $ $ $ $ $ *.8.O.O.s k.> l.x.z.z.c.b.c.V.O.O.X.O.O.I.G.G.T.G.G.G.G.T.J.h.O.,.X.O.,.D.S.S.A.b.b.n.c.z.z.z.x.>.O.O.X.O.O.w # $ $ $ $ @ $ @ @ X $X$X$X",
"$X$X$X; @ @ @ @ $ $ & # 2 N ' y % , > l.l.z.z.z.z.c.b.*.O.X.X.O.;.G.G.G.G.G.T.G.J.~.X.O.X.O.O.f.S.S.S.A.b.b.c.c.c.z.z.z.4 ,.O.X.X.O.*.& & $ $ $ $ @ @ @ X $X$X$X",
"$X$X$X;   @ @ $ $ $ $ & # % % % , , > l.l.z.z.z.c.n.c.r.X.X.X.,.X.;.R.J.J.J.G.G.!.,.X.X.X.X.X.W F.S.n.A.b.b.c.z.z.z.z.l.k.u X.,.X.,.O.A # $ $ $ @ @ @ @ X $X$X$X",
"$X$X$XX     @ @ @ $ $ $ & $ & & , , , l.k.l.k.z.z.c.c.B.X.X.X.X.X.X.X.y.W W.R { X.X.,.,.,.X.>.D.A.A.A.b.c.n.c.c.z.z.l.k.> % ] O.,.X.X.X.: # $ $ $ @ @ . X $X$X$X",
"$X$X$X;     @ $ $ $ $ $ $ & & & & , , > > x.k.z.z.c.c.Z.R X.%.,.X.,.X.X.X.X.X.X.,.X.X...,.X.l F.n.A.b.b.c.c.c.z.z.z.l.l.> > 5 &.X...X.X.+.+ @ @ @ @   @ X $X$X$X",
"$X$X$XX @ . @ @ @ $ $ $ $ $ & & , , , , > l.x.z.z.z.z.c.c.r.X.,.,.%.%.X.%...%...X.%.,...X.r.F.b.A.b.n.b.c.c.z.z.x.x.l.> > , % p X.%.%.%.X.w + $ @ @     X $X$X$X",
"$X$X$X; $ @ @ @ @ $ $ $ $ $ & & & , , , , k.l.l.z.z.z.c.c.c.k %.....%.%...%.%.%.%.%.....R A.A.b.b.b.b.c.c.z.z.z.x.l.k.k., , , & +...%.%...+.+ @ @ @     X $X$X$X",
"$X$X$XX @ @ @ @ @ @ $ $ $ & $ & & & , , , l.l.l.x.z.z.z.c.c.c.N.r.&...............%.u.V.A.b.b.b.b.b.c.c.n.z.z.z.l.> > > , 1 , % A ..%.%.....q X $ @     X $X$X$X",
"$X$X$X; @     @ @ $ $ $ $ $ # & & & & , , > > l.k.x.z.z.z.z.n.c.Z.n.h A y.u.y.A l N.A.Z.b.b.c.c.c.c.c.c.z.z.k.k.k.k.k.% > % % % +.%.%.$.%...r + @ . .   X $X$X$X",
"$X$X$XX         @ @ $ $ $ $ $ & & & & , , > > l.l.k.z.z.z.c.z.c.c.c.Z.A.Z.Z.A.Z.A.b.b.c.b.c.c.c.z.z.d f f f d f f w w w w e e B ..$.$.%.#...Z + . .   @ X $X$X$X",
"$X$X$XX         @ @ @ $ $ $ $ $ $ & & & , , , > > l.l.x.z.z.z.z.z.c.c.c.n.c.n.n.n.b.c.b.c.z.c.c.z.S .. ..... . . ... ......... .$.$.$.$.$...r + .     @ X $X$X$X",
"$X$X$X;         @ @ @ $ $ $ $ $ & $ & & & , , > > > k.l.l.z.z.z.z.z.c.z.z.c.c.z.c.c.z.c.c.z.c.c.f ..$.$.$.$.$.$.#.#.#.$.$.$.$.$.$.$. .%.$.$.o + .       X $X$X$X",
"$X$X$XX     @   @ @ @ @ $ $ $ $ $ & & & & & , , > > > > k.l.x.x.z.z.z.z.z.z.z.c.c.z.z.z.x.z.x.k.Z %.$.#.$.$.#.$.$.$.#.$.$.$.$.$.$.$.#.#...M +           X $X$X$X",
"$X$X$X;         @ @ @ $ $ $ $ $ & # $ $ & & & , , , > > > l.l.x.z.x.z.x.z.z.z.z.z.z.z.z.z.z.x.z.d $. .C $.$.$.$.$.$.$.$.C $.$.#. .C $. .B +           @ X $X$X$X",
"$X$X$X;         @ @ @ @ @ $ $ $ $ $ $ & & & & & , , , , > > > > k.l.l.x.x.z.z.l.z.z.l.z.l.k.k.l.k.e C C C C C C C C C C C C C C C C B r + @ . @         X $X$X$X",
"$X$X$XX         @ @ @ @ @ @ @ $ $ $ $ & $ $ & & , 1 , , , , > > > l.l.l.l.l.l.k.l.l.l.l.k.l.l.l.l.k.l.1 5 5 5 2 2 2 2 2 O O O O O o @ + .         @     X $X$X$X",
"$X$X$X;       @ . @ @ @ @ @ @ $ $ $ $ & $ & & & & & & , , , , > > > > > > > l.l.l.l.l.> > > l.l.& l.& > , & % & & $ % $ # $ $ # $ @ @ @                 X $X$X$X",
"$X$X$X;             @ @ @ @ @ @ @ $ $ $ $ $ $ & & & & & , , , , , , > , > > > > , > , > > , & l., , & & & & & & & $ $ $ $ $ $ $ $ @ @         @         ; $X$X$X",
"$X$X$Xc @ @ @ @       @   @ @ @ $ $ $ $ $ $ $ $ & & & & & & & & & , , , l.& l., , l.& , , , , , , & & & & & & & # & $ $ $ $ $ @ @ @ @   @     @   @ X @ c $X$X$X",
"$X$X$X+X@ @   .             @ @ @ @ $ @ $ $ $ & $ $ & & & & & & & & & , & , & , & , & , & & & & & & & & & $ $ $ $ $ $ $ $ @ @ @ $ @ . .         . @ @ @ .X$X$X$X",
"$X$X$X$Xv @                   @ @ @ @ $ $ $ $ $ $ $ $ $ & & & & & & & & & & & , , & & & & & & & & & & & $ & $ & $ $ $ $ $ @ @ $ @ @ @ @         @ . $ m $X$X$X$X",
"$X$X$X$X$XX @ X             @   @ @ @ @ @ @ $ $ $ & $ & $ $ & $ $ & & & & & & & & & & & & & & & & $ $ $ $ $ $ $ $ $ @ $ @ @ @ @ @ @ @ @     @   @ @ X +X$X$X$X$X",
"$X$X$X$X$X+X  @ .         @     @ @ @ @ @ $ $ $ $ $ $ $ $ $ $ & $ & & & $ & & & & & & & $ & & $ $ & $ $ $ $ $ $ $ @ $ @ @ @ . @ @ @ @ @ @ @ @ @ @ X +X$X$X$X$X$X",
"$X$X$X$X$X$X$Xm @ @             @ @   @ @ @ @ $ @ $ $ $ $ $ $ $ & $ $ $ $ & $ $ & $ $ & $ $ $ $ $ $ $ $ $ $ $ $ @ @ @ @ @ @ . @ . @ @ @   X @ @ ; +X$X$X$X$X$X$X",
"$X$X$X$X$X$X$X$X.X; @ @         @       @ @ @ @ @ $ $ $ $ $ $ $ $ $ $ $ $ & $ $ $ $ $ $ $ $ & $ $ $ $ $ $ $ @ @ @ @ @ @ @ @ @ @ @ . @ @ @ @ ; .X$X$X$X$X$X$X$X$X",
"$X$X$X$X$X$X$X$X$X$X.Xm     @ @         @   @ @ @ @ @ @ @ $ $ $ $ $ $ $ $ $ $ $ $ $ $ $ $ $ $ $ $ $ @ $ @ @ $ @ @ @ . . @ . @ @     @ @ ; |.$X$X$X$X$X$X$X$X$X$X",
"$X$X$X$X$X$X$X$X$X$X$X$X.Xc X @ @ @ @ @     @ @ @ @ @ $ @ @ $ @ $ $ $ $ $ $ $ $ $ $ $ $ $ $ @ $ $ $ $ @ @ @ @ @ @ @ @ @ @ @ @ .   X v .X$X$X$X$X$X$X$X$X$X$X$X$X",
"$X$X$X$X$X$X$X$X$X$X$X$X$X$X$XoXc ; @ $   . @ @   @ @ @ @ @ @ $ @ @ @ @ $ @ $ $ @ $ @ $ @ $ @ $ @ @ @ @ @ @ @ @ @ @ . @ @ @ X v .X+X$X$X$X$X$X$X$X$X$X$X$X$X$X$X",
"$X$X$X$X$X$X$X$X$X$X$X$X$X$X$X$X$X$X+X|.c X @ @   @ @ @ @ @ @ @ @ @ $ @ @ @ @ @ @ @ @ @ @ @ @ @ @ @ @ @ @ . $ $ @ $ X v c .X+X$X$X$X$X$X$X$X$X$X$X$X$X$X$X$X$X$X",
"$X$X$X$X$X$X$X$X$X$X$X$X$X$X$X$X$X$X$X$X$X$X+X.X|.z ; ; X @ @ @ @ @ @ $ @ @ @ @ @ @ @ @ @ @ @ $ @ @ @ @ @ ; v c .X+X$X$X$X$X$X$X$X$X$X$X$X$X$X$X$X$X$X$X$X$X$X$X",
"$X$X$X$X$X$X$X$X$X$X$X$X$X$X$X$X$X$X$X$X$X$X$X$X$X$X$X$X+X+XoX|..Xm m m ; ; ; ; ; ; ; ; ; m c c .X.X.X.X$X$X$X$X$X$X$X$X$X$X$X$X$X$X$X$X$X$X$X$X$X$X$X$X$X$X$X$X",
"$X$X$X$X$X$X$X$X$X$X$X$X$X$X$X$X$X$X$X$X$X$X$X$X$X$X$X$X$X$X$X$X$X$X$X$X$X$X$X$X$X$X$X$X$X$X$X$X$X$X$X$X$X$X$X$X$X$X$X$X$X$X$X$X$X$X$X$X$X$X$X$X$X$X$X$X$X$X$X$X",
"$X$X$X$X$X$X$X$X$X$X$X$X$X$X$X$X$X$X$X$X$X$X$X$X$X$X$X$X$X$X$X$X$X$X$X$X$X$X$X$X$X$X$X$X$X$X$X$X$X$X$X$X$X$X$X$X$X$X$X$X$X$X$X$X$X$X$X$X$X$X$X$X$X$X$X$X$X$X$X$X",
"$X$X$X$X$X$X$X$X$X$X$X$X$X$X$X$X$X$X$X$X$X$X$X$X$X$X$X$X$X$X$X$X$X$X$X$X$X$X$X$X$X$X$X$X$X$X$X$X$X$X$X$X$X$X$X$X$X$X$X$X$X$X$X$X$X$X$X$X$X$X$X$X$X$X$X$X$X$X$X$X"
};
