/* XPM */
static char *xpm_[] = {
/* columns rows colors chars-per-pixel */
"80 80 45 1 ",
"  c #000000",
". c #000000",
"X c #000000",
"o c #000000",
"O c #000000",
"+ c #000000",
"@ c #000000",
"# c #000000",
"$ c #E10019",
"% c #E10019",
"& c #E10018",
"* c #E10019",
"= c #E10019",
"- c #E10019",
"; c #E10019",
": c #E10019",
"> c #E10019",
", c #E10019",
"< c #E10019",
"1 c #E00018",
"2 c #E00019",
"3 c #E00019",
"4 c #E10019",
"5 c #E10019",
"6 c #E10019",
"7 c #000000",
"8 c #000000",
"9 c #000000",
"0 c #000000",
"q c #E10019",
"w c #E10019",
"e c #E10019",
"r c #E10019",
"t c #E10019",
"y c #E10019",
"u c #E00018",
"i c #000000",
"p c #000000",
"a c #E1001A",
"s c #E10019",
"d c #E10019",
"f c #E10019",
"g c #000000",
"h c #E10018",
"j c None",
/* pixels */
"ggggggggggggggggggggggggggggggggggggggggggggggggggggggggggggggggjjjjjjjjjjjjjjjj",
"ggggggggggggggggggggggggggggggggggggggggggggggggggggggggggggggggjjjjjjjjjjjjjjjj",
"ggggggggggggggggggggggggggggggggggggggggggggggggggggggggggggggggjjjjjjjjjjjjjjjj",
"ggggggggggggggggggggggggggggggggggggggggggggggggggggggggggggggggjjjjjjjjjjjjjjjj",
"ggggggggggggggggggggggggggggggggggggggggggggggggggggggggggggggggjjjjjjjjjjjjjjjj",
"ggggggggggggggggggggggggggggggggggggggggggggggggggggggggggggggggjjjjjjjjjjjjjjjj",
"ggggggggggggggggggggggggggggggggggggggggggggggggggggggggggggggggjjjjjjjjjjjjjjjj",
"ggggggggggggggggggggggggggggggggggggggggggggggggggggggggggggggggjjjjjjjjjjjjjjjj",
"ggggggggggggggggggggggggggggggggggggggggggggggggggggjjggggjjjjjjjjjjjjjjjjjjjjjj",
"ggggggggggggggggggggggggggggggggggggggggggggggggggggjjh55uajjjjjjjjjjhjjjjjjjjjj",
"ggggggggggggggggggggggggggggggggggggggggggggggggggggu5:>>>>,5jjjjjjj<yjjjjjjjjjj",
"gggggggggggggggggggggggggggggggggggggggggggggggggggu>>>>>>>>>-5uhhq4>*jjjjjjjjjj",
"gggggggggggggggggggggggggggggggggggggggggggggggggggt>->>>>>>>>>-&&>>>4jjjjjjjjjj",
"ggggggggggggggggggggggggggggggggggggggggggggggggggj5>>>--->>>>>>>>>>>=jjjjjjjjjj",
"ggggggggggggggggggggggggggggggggggggggggggggggggjjj5>>>>>>>->>>>>>>>>2jjjjjjjjjj",
"ggggggggggggggggggggggggggggggggggggggggggggggggjjj5>>>,51>>>>>>>>>>>*jjjjjjjjjj",
"ggggggggggggggggggggggggggggggggjjjjjjjjjjjjjjjjjjj%>*fjjhq4>>>>>>>>>fjjjjjjjjjj",
"ggggggggggggggggggggggggggggggggjjjjjjjjjjjjjjjjjjjs5jjjjjjju5;>>>>%ajjjjjjjjjjj",
"ggggggggggggggggggggggggggggggggjjjjjjjjjjjjjjjjjjjjjjjjjjjjjjjfuthjjjjjjjjjjjjj",
"ggggggggggggggggggggggggggggggggjjjjjjjjjjjjjjjjjjjjjjjjjjjjjjjjjjjjjjjjjjjjjjjj",
"ggggggggggggggggggggggggggggggggjjjjjjjjj0jjjjjjjjggggjjjjjjjjjjjjjjjjjjjjjjjjjj",
"ggggg8O+Opggggggggggggggggggggggjjjjp0oo#hjjj0<4*:,24$5,5jjjjjjjju:444434-$hjjjj",
"gggggX   0ggggggggggggggggggggggjjjj0o####jjj%>>>>>>>>>>>sjjjjjjj<>>>>>>>>>hjjjj",
"gggggo  .pggggggggggggggggggggggjjjjh#####jjju>->>>>>>>>>5jjjjjjj%>>>>>>>>;hjjjj",
"gggggo   0ggggggggggggggggggggggjjjjj#ooo#jjj2>->>>>>>>>>:hjjjjjj<>>>>>>>>>ajjjj",
"ggggpX  .0ggggggggggggggggggggggjjjjj#ooo#jjj%>>>>>>>>>>>>ujjjjjj3>>>>>>>>>hjjjj",
"ggggpX  .0ggggggggggggggggggggggjjjjj#oooojjj%>>>>>>>>>>>>5jjjjjj3>>>>>>>>>jjjjj",
"ggggpX  .pggggggggggggggggggggggjjjjjooooojjju>>>>>>>>>>>>:jjjjjj%>>>>>>>>>hjjjj",
"gggggo   0ggggggggggggggggggggggjjjjj#oo##hjju>>>>>>>>>>>>>ujjjjj<>>>>>>>>:hjjjj",
"ggggp.   0ggggggggggggggggggggggjjjjj#oo##h0ju>>>>>>>>>>>>>5jjjjj3>>>>>>>>>hjjjj",
"ggggp.  .9ggggggggggggggggggggggjjjjj#oo##jjj5>>>>>>>>>>>>>:ajjjj3>>>>>>>>>jjjjj",
"ggggi.  .0ggggggggggggggggggggggjjjjjooo##jjju>>>>>>>>>>>>>>5jjjj%>>>>>>>>>hjjjj",
"jjjj######jjjjjjjjjjjjjjjjjjjjjjjjjjj+..##hjj5>>>>>>>>>>>>>>5jjjj<>>>>>>>>-jjjjj",
"jjjjj############################+#++...##00ju>>>>>>>>>>>>>>>hjjj3>>>>>>>>>hjjjj",
"jjjj############################........##jjju>>>>>>>>>>>>>>>5jjj3>>>>>>>>>hjjjj",
"jjjjj###########################........#ajjj%>>>>>>>>>>>>>>>*jjj%>>>>>>>>>hjjjj",
"jjjjj###########################........#jjjju>>>>>>>>>=>>>>>>jjj<>>>>>>>>>hjjjj",
"jjjjjjj#########################.....oo8jjjjju>>>>>>>>:5>>>>>>ujj3>>>>>>>>>hjjjj",
"jjjjjjjjjj#j#jj##j#j#jjj#j#jj#j#ppppppjjjjjjj5>>>>>>>>;5->>>>>&jj6>>>>>>>>:hjjjj",
"jjjjjjjjjjjjjjjjjjjjjjjjjjjjjjjjjjjjjjjjjjjjju>>>>>>>>,u2>>>>>>hj%>>>>>>>>;hjjjj",
"jjjjjjjjjjjjjjjjjjjjjjjjjjjjjjjjjjjjjjjjjjjjju>>>>>>>>>s5>>>>>>sj5>>>>>>>>>ajjjj",
"jjjjjjjjjjjjjjjjjjjjjjj#jjj#jjjjjjjjjjjjjjjjj5>>>>>>>>>ss>>>>>>2j6>>>>>>>>>hjjjj",
"jjjjjjjjjjjjjjjjjjjjjjjjjjjjjjjjjjjjjjjjjjjjju>>>>>>>>>aa>>>>>>;j5>>>>>>>>-jjjjj",
"jjjjjjjjjj######################++##0jjjjjjjju>>>>>>>>>qj->>>>>>ft>>>>>>>>>hjjjj",
"jjjjjjjj########################......8jjjjjj%>>>>>>>>>uj5>>>>>>wr>>>>>>>>:jjjjj",
"jjjjjjj#########################.......#jjjjju>>>>>>>>>sja>>>>>>=e>>>>>>>>>hjjjj",
"jjjjjj##########################........8jjjju>>>>>>>>>5jj&>>>>>,%>>>>>>>>>hjjjj",
"jjjjj###########################........ojjjj%>>>>>>>>>tjj5>>>>>>*>>>>>>>>>hjjjj",
"jjjjj#######jj#jj#jjjj#jjj#jjjj#jj#######jjjj5>>>>>>>>>ujjd>>>>>>>>>>>>>>>:hjjjj",
"jjjjj#####jjjjjjjjjjjjjjjjjjjjjjjjjj#####hjjjs>>>>>>>>>sjjj>>>>>>>>>>>>>>>>hjjjj",
"jjjjj#####jjjjjjjjjjjjjjjjjjjjjjjjjjj#####jjjq>>>>>>>>>5jjj5>>>>>>>>>>>>>>>hjjjj",
"jjjj######jjjjjjjjjjjjjjjjjjjjjjjjjjj#####jjj5>>>>>>>>>ujjj5>>>>>>>>>>>>>>>hjjjj",
"jjjjj####jjjjjjjjjjjjjjjjjjjjjjjjjjjj#####jjj5>>>>>>>>>djjja;>>>>>>>>>>>>>>hjjjj",
"jjjj######jjjjjjjjjjjjjjjjjjjjjjjjjjj#####jjjq>>>>>>>>>5jhjj5>>>>>>>>>>>>>>hjjjj",
"jjjjj#####jjjjjjjjjjjjjjjjjjjjjjjjjjj#####jjj5>>>>>>>>>ujjjjs>>>>>>>>>>>>>:hjjjj",
"jjjjj#####jjjjjjjjjjjjjjjjjjjjjjjjjjj#####jjjs>>>>>>>>>sjjjjh&>>>>>>>>>>>>;hjjjj",
"jjjj######jjjjjjjjjjjjjjjjjjjjjjjjjjj#####hjjr>>>>>>>>>5jjjjj5>>>>>>>>>>>>>hjjjj",
"jjjjj####jjjjjjjjjjjjjjjjjjjjjjjjjjjj#####jjjr>>>>>>>>>ujjjjj5>>>>>>>>>>>>>hjjjj",
"jjjjj#####################################jjjr>>>>>>>>>djjjjjh:>>>>>>>>>>>:hjjjj",
"jjjj######################################jjjr>>>>>>>>>5jhjjjj5>>>>>>>>>>>>jjjjj",
"jjjjj#####################################hjjy>>>>>>>>>ujjjjjj5>>>>>>>>>>>;jjjjj",
"jjjj######################################jjju>>>>>>>>>djjjjjjj>>>>>>>>>>>>hjjjj",
"jjjjj#####################################jjjt>>>>>>>>>qjjjjjjj5>>>>>>>>>>-jjjjj",
"jjjjjj#j###j#j##j##j##j##j##j##j##j##j##hhjjjhssasahdsajjjjjjjjjssasahsfashjjjjj",
"jjjjjjjjjjjjjjjjjjjjjjjjjjjjjjjjjjjjjjjjjjjjjjjjjjjjjjjjjjjjjjjjjjjjjjjjjjjjjjjj",
"jjjjj###j####jjjjjjj###jjjjjjjjjjj##jjjj##jjjjjjjjjjjjjjjjjjjjjjjjjjjjjjjjjjjjjj",
"jjjjj###j##j#j###j#j##jj##jj##j#jj###j#jj#jjjjjjjjjjjjjjjjjjjjjjjjjjjjjjjjjjjjjj",
"jjjj##j###jj#j############j###j###########jjjjjjjjjjjjjjjjjjjjjjjjjjjjjjjjjjjjjj",
"jjjjj#j###jj###j#######j##j#j#########j#j#jjjjjjjjjjjjjjjjjjjjjjjjjjjjjjjjjjjjjj",
"jjjjj#####jj#######j##jjj##########j######jjjjjjjjjjjjjjjjjjjjjjjjjjjjjjjjjjjjjj",
"jjjjj###j###j##jj###j#########j##j#jj###j#jjjjjjjjjjjjjjjjjjjjjjjjjjjjjjjjjjjjjj",
"jjjjjjjjjjjjjjjjjjjjjjjjjjj##jjjjjjjjjjjjjjjjjjjjjjjjjjjjjjjjjjjjjjjjjjjjjjjjjjj",
"jjjjjjjjjjjjjjjjjjjjjjjjjjjjjjjjjjjjjjjjjjjjjjjjjjjjjjjjjjjjjjjjjjjjjjjjjjjjjjjj",
"jjjjjjjjjjjjjjjjjjjjjjjjjjjjjjjjjjjjjjjjjjjjjjjjjjjjjjjjjjjjjjjjjjjjjjjjjjjjjjjj",
"jjjjjjjjjjjjjjjjjjjjjjjjjjjjjjjjjjjjjjjjjjjjjjjjjjjjjjjjjjjjjjjjjjjjjjjjjjjjjjjj",
"jjjjjjjjjjjjjjjjjjjjjjjjjjjjjjjjjjjjjjjjjjjjjjjjjjjjjjjjjjjjjjjjjjjjjjjjjjjjjjjj",
"jjjjjjjjjjjjjjjjjjjjjjjjjjjjjjjjjjjjjjjjjjjjjjjjjjjjjjjjjjjjjjjjjjjjjjjjjjjjjjjj",
"jjjjjjjjjjjjjjjjjjjjjjjjjjjjjjjjjjjjjjjjjjjjjjjjjjjjjjjjjjjjjjjjjjjjjjjjjjjjjjjj",
"jjjjjjjjjjjjjjjjjjjjjjjjjjjjjjjjjjjjjjjjjjjjjjjjjjjjjjjjjjjjjjjjjjjjjjjjjjjjjjjj",
"jjjjjjjjjjjjjjjjjjjjjjjjjjjjjjjjjjjjjjjjjjjjjjjjjjjjjjjjjjjjjjjjjjjjjjjjjjjjjjjj"
};
