/* XPM */
static char *xpm_[] = {
/* columns rows colors chars-per-pixel */
"80 80 65 1 ",
"  c #1C3572",
". c #29426E",
"X c #243D70",
"o c #29436E",
"O c #263F6F",
"+ c #2A446E",
"@ c #314A6C",
"# c #29426E",
"$ c #354E6B",
"% c #2B456E",
"& c #344D6B",
"* c #3A5369",
"= c #314A6C",
"- c #354E6B",
"; c #324B6C",
": c #395269",
"> c #4C6564",
", c #566E61",
"< c #5C745F",
"1 c #647C5C",
"2 c #445C66",
"3 c #4B6464",
"4 c #546C61",
"5 c #587060",
"6 c #1B3573",
"7 c #2F486D",
"8 c #2E476D",
"9 c #243E70",
"0 c #2B446E",
"q c #263F6F",
"w c #29426E",
"e c #30496C",
"r c #2C466D",
"t c #2B456E",
"y c #6C845A",
"u c #748C57",
"i c #7C9455",
"p c #C3D93F",
"a c #CDE33C",
"s c #D4E93A",
"d c #849B52",
"f c #8FA64F",
"g c #93AA4E",
"h c #9CB34B",
"j c #8BA250",
"k c #A5BB48",
"l c #AEC446",
"z c #B4CB43",
"x c #BED440",
"c c #C1D740",
"v c #27416F",
"b c #324B6C",
"n c #334C6B",
"m c #314A6C",
"M c #364F6B",
"N c #122B75",
"B c #334C6B",
"V c #243E70",
"C c #1E3772",
"Z c #3B5469",
"A c #3B5369",
"S c #354E6B",
"D c #445D66",
"F c #3D5469",
"G c None",
/* pixels */
"GGGGGGGGGGGGGGGGGGGGGGGGGGGGGGGGGGGGGGGGGGGGGGGGGGGGGGGGGGGGGGGGGGGGGGGGGGGGGGGG",
"GGGGGGGGGGGGGGGGGGGGGGGGGGGGGGGGGGGGGGGGGGGGGGGGGGGGGGGGGGGGGGGGGGGGGGGGGGGGGGGG",
"GGGGGGGGGGGGGGGGGGGGGGGGGGGGGGGGGGGGGGGGGGGGGGGGGGGGGGGGGGGGGGGGGGGGGGGGGGGGGGGG",
"GGGGGGGGGGGGGGGGGGGGGGGGGGGGGGGGGGGGGGGGGGGGGGGGGGGGGGGGGGGGGGGGGGGGGGGGGGGGGGGG",
"GGGGGGGGGGGGGGGGGGGGGGGGGGGGGGGGGGGGGGGGGGGGGGGGGGGGGGGGGGGGGGGGGGGGGGGGGGGGGGGG",
"GGGGGGGGGGGGGGGGGGGGGGGGGGGGGGGGGGGGGGGGGGGGGGGGGGGGGGGGGGGGGGGGGGGGGGGGGGGGGGGG",
"GGGGGGGGGGGGGGGGGGGGGGGGGGGGGGGGGGGGGGGGGGGGGGGGGGGGGGGGGGGGGGGGGGGGGGGGGGGGGGGG",
"GGGGGGGGGGGGGGGGGGGGGGGGGGGGGGGGGGGGGGGGGGGGGGGGGGGGGGGGGGGGGGGGGGGGGGGGGGGGGGGG",
"GGGGGGGGGGGGGGGGGGGGGGGGGGGGGGGGGGGGGGGGGGGGGGGGGGGGGGGGGGGGGGGGGGGGGGGGGGGGGGGG",
"GGGGGGGGGGGGGGGGGGGGGGGGGGGGGGGGGGGGGGGGGGGGGGGGGGGGGGGGGGGGGGGGGGGGGGGGGGGGGGGG",
"GGGGGGGGGGGGGGGGGGGGGGGGGGGGGGGGGGGGGGGGGGGGGGGGGGGGGGGGGGGGGGGGGGGGGGGGGGGGGGGG",
"GGGGGGGGGGGGGGGGGGGGGGGGGGGGGGGGGGGGGGGGGGGGGGGGGGGGGGGGGGGGGGGGGGGGGGGGGGGGGGGG",
"GGGGGGGGGGGGGGGGGGGGGGGGGGGGGGGGGGGGGGGGGGGGGGGGGGGGGGGGGGGGGGGGGGGGGGGGGGGGGGGG",
"GGGGGGGGGGGGGGGGGGGGGGGGGGGGGGGGGGGGGGGGGGGGGGGGGGGGGGGGGGGGGGGGGGGGGGGGGGGGGGGG",
"GGGGGGGGGGGGGGGGGGGGGGGGGGGGGGGGGGGGGGGGGGGGGGGGGGGGGGGGGGGGGGGGGGGGGGGGGGGGGGGG",
"GGGGGGGGGGGGGGGGGGGGGGGGGGGGGGGGGGGGGGGGGGGGGGGGGGGGGGGGGGGGGGGGGGGGGGGGGGGGGGGG",
"GGGGGGGGGGGGGGGGGGGGGGGGGGGGGGGGGGGGGGGGGGGGGGGGGGGGGGGGGGGGGGGGGGGGGGGGGGGGGGGG",
"GGGGGGGGGGGGGGGGGGGGGGGGGGGGGGGGGGGGGGGGGGGGGGGGGGGGGGGGGGGGGGGGGGGGGGGGGGGGGGGG",
"GGGGGGGGGGGGGGGGGGGGGGGGGGGGGGGGGGGGGGGGGGGGGGGGGGGGGGGGGGGGGGGGGGGGGGGGGGGGGGGG",
"GGGGt;22&OtGGGGGGGGGGGGGGGGGGGGGGGGGGGGGGGGGGGGGGGGGGGGGGGGGGGGGGGGGGGGGGGGGGGGG",
"GGGe5fghljy29FGGAe2;tGGGGGGGGGGGGGGGGGGGGGGGGGGGGGGGGGGGGGGGGGGGGGGGGGGGGGGGGGGG",
"GGG&42%&2<fld*tN4gxj2tGGGGGGGGGGGGGGGGGGGGGGGGGGGGGGGGGGGGGGGGGGGGGGGGGGGGGGGGGG",
"GGGM;tAN#*%2jz4%hz4i<OGGGGGGGGGGGGGGGGGGGGGGGGGGGGGGGGGGGGGGGGGGGGGGGGGGGGGGGGGG",
"GGGGGGGG%h*XX<z3dzd1XtNGF%8FNCFGNGGGGGGGGGGGGGGGGGGGGGGGGGGGGGGGGGGGGGGGGGGGGGGG",
"GGGGGG8=3zy42 <z24*&5y4&Xy4&3<3%5%oSGGGGGGGGGGGGGGGGGGGGGGGGGGGGGGGGGGGGGGGGGGGG",
"GGGGGe4fkxklzy%luu4hgj<5d4f2zhu4duh*VGGGGGGGGGGGGGGGGGGGGGGGGGGGGGGGGGGGGGGGGGGG",
"GGGGA*u&*z*%ig hdj4jjd4uxyfyzd&djfd5*VGGGGGGGGGGGGGGGGGGGGGGGGGGGGGGGGGGGGGGGGGG",
"GGGGGe3y5z&X%%4c4k4yghhhulhjgy2hcuf2&28GGGGGGGGGGGGGGGGGGGGGGGGGGGGGGGGGGGGGGGGG",
"GGGGGG=2gadyugzyXh35gk<i3yyuch*hpk3&*&&VGGGGGGGGGGGGGGGGGGGGGGGGGGGGGGGGGGGGGGGG",
"GGGGGGA=*hddjy*%&&&XXXXX%XX&4**c5X&&&&&&++#+o###=++=##o+;+=@###%++++%%VGGGGGGGGG",
"GGGGGGGA=*%%%%&&&&<hhhhhghgyX%yl&&&&*%3fgggggghu&ihggggghgggggjfgffffd&VGGGGGGGG",
"GGGGGGGGG-&&&&&&&%dsaapapaapy dfX*&*%2zapaaaaaal&zsaaaaaaaaapaapaaaapah*6GGGGGGG",
"GGGGGGGGGF%*&&&&*%dacccccccpcy25&&*&2zacccccccpk*zpccpccccccccccccccccsg&VGGGGGG",
"GGGGGGGGGGF&&&&&*Xiacppppppccp<%*&X2zpccpppppcak*zpcppppppppppppccaccccsf&tGGGGG",
"GGGGGGGGGGGF%&&&&XdaccppppppcppyXX3zacpcpppppcak*zppppppppppppppccccccccag&VGGGG",
"GGGGGGGGGGGGG&&&*%dacppppppppppa13zacpppcppppcak*zppppppppcppppcaccacacccag*NGGG",
"GGGGGGGGGGGGGF2*&%dacppcppcpppcpccacccppcppppcak*zppppppppppppppcaccccacccadXGGG",
"GGGGGGGGGGGGFGF**Xdacppppppppcppcpcppppppppppcak*zpppppppppppcppccccacccccafXGGG",
"GGGGGGGGGGGGGGGF&%dacpppcpppppppcpppcppppppppcak*zpppppppppcppppacccccccccaj#GGG",
"GGGGGGGGGGGGGGGGG%<cpcpppppppppppppppppppppppcai&zpppppppcpppppccccaccacpcaf%GGG",
"GGGGGGGGGGGGGGGGGF&1ppppppppppcppcppppppppppcadX*zpppppppppppcppccaccaccccaj%GGG",
"GGGGGGGGGGGGGGGGGGF&1pppppppppppppppppppcppcajX**zapcpppppppppppcccccccaccaj#GGG",
"GGGGGGGGGGGGGGGGGGGAXypppppppppppcpppcppppcaj&***zppppppppcppcppcaaccaccccajXGGG",
"GGGGGGGGGGGGGGGGGGGGGXyppppppppppppppppppcagX&&X*zpcppcpppppppppccccccccccajoGGG",
"GGGGGGGGGGGGGGGGGGGGGF&yppppppppppppppppcaj&&&&&*zapppppppppppppccccccccacsj#GGG",
"GGGGGGGGGGGGGGGGGGGGGFX1ppppppcppppppcpccaj&&&&&*zppppppppppppcpcaaccaccccajXGGG",
"GGGGGGGGGGGGGGGGGGGGG%<cpppcppppppcpppppccajX**&*zppcpppcpcpppppccaccacaccajoGGG",
"GGGGGGGGGGGGGGGGGGGG%<cccpppppppppppppppppcajX*&*zppppppppppppppccccccccccaj%GGG",
"GGGGGGGGGGGGGGGGGGFX5xppppppppcpppppppppcppcad%&*zappppppppppppppppcpppppcsj.GGG",
"GGGGGGGGGGGGGGGGGF%<cpcppppppppppppppcppppppcad%*zpppppppppppppppppppppppcaj%GGG",
"GGGGGGGGGGGGGGGGG64cpcpppppppppppcpcppppppppccai*zppppppppppppppppppppppccajXGGG",
"GGGGGGGGGGGGGGGGGtdaccpppppppppppppppppppppcpccl*zppppppppppppcppcpppppcccaj%GGG",
"GGGGGGGGGGGGGGGGG9dacpppppppppppccccpppppppcccak*zppppppppppppppcpppppppccajXGGG",
"GGGGGGGGGGGGGGGGG9iacpppppppppppaappppcpppppacak&zppppppcppppppcpppppppcccadXGGG",
"GGGGGGGGGGGGGGGGG9iacppcppppcpcaguacppppppppccak&zppppppppppppppppppppcccah*ZGGG",
"GGGGGGGGGGGGGGGGG9iacppppppppcag&%yapcppcpppccck&zppppppppcpppppppppcpccsh&VGGGG",
"GGGGGGGGGGGGGGGGG9iaccpppppppah*NA&yaccpcccaccal*zpcppccppppppppppppppcaf%tGGGGG",
"GGGGGGGGGGGGGGGGG9iaccccccccag&BGAN&yppcccccccck*zpcccccccppppccccccccsh&tGGGGGG",
"GGGGGGGGGGGGGGGGG9dspaaaaaasg&6GGGGAXypaaaaaaasl&zaaaaaapaapaapapaapaah*VGGGGGGG",
"GGGGGGGGGGGGGGGGGt4gfggfgfgi*NGGGGGGGXyhfgffgfhu&ugfggffgggggggggggjgj*VGGGGGGGG",
"GGGGGGGGGGGGGGGGGF&%%%%%XXXXCGGGGGGGGF%%%o%o=%%%&XX.X%X%%%X%XXXX%%#%%&6GGGGGGGGG",
"GGGGGGGGGGGGGGGGGGGGGGGGGGGGGGGGGGGGGGGGGGGGGGGGGGGGGGGGGGGGGGGGGGGGGGGGGGGGGGGG",
"GGGGGGGGGGGGGGGGGGGGGGGGGGGGGGGGGGGGGGGGGGGGGGGGGGGGGGGGGGGGGGGGGGGGGGGGGGGGGGGG",
"GGGGGGGGGGGGGGGGGGGGGGGGGGGGGGGGGGGGGGGGGGGGGGGGGGGGGGGGGGGGGGGGGGGGGGGGGGGGGGGG",
"GGGGGGGGGGGGGGGGGGGGGGGGGGGGGGGGGGGGGGGGGGGGGGGGGGGGGGGGGGGGGGGGGGGGGGGGGGGGGGGG",
"GGGGGGGGGGGGGGGGGGGGGGGGGGGGGGGGGGGGGGGGGGGGGGGGGGGGGGGGGGGGGGGGGGGGGGGGGGGGGGGG",
"GGGGGGGGGGGGGGGGGGGGGGGGGGGGGGGGGGGGGGGGGGGGGGGGGGGGGGGGGGGGGGGGGGGGGGGGGGGGGGGG",
"GGGGGGGGGGGGGGGGGGGGGGGGGGGGGGGGGGGGGGGGGGGGGGGGGGGGGGGGGGGGGGGGGGGGGGGGGGGGGGGG",
"GGGGGGGGGGGGGGGGGGGGGGGGGGGGGGGGGGGGGGGGGGGGGGGGGGGGGGGGGGGGGGGGGGGGGGGGGGGGGGGG",
"GGGGGGGGGGGGGGGGGGGGGGGGGGGGGGGGGGGGGGGGGGGGGGGGGGGGGGGGGGGGGGGGGGGGGGGGGGGGGGGG",
"GGGGGGGGGGGGGGGGGGGGGGGGGGGGGGGGGGGGGGGGGGGGGGGGGGGGGGGGGGGGGGGGGGGGGGGGGGGGGGGG",
"GGGGGGGGGGGGGGGGGGGGGGGGGGGGGGGGGGGGGGGGGGGGGGGGGGGGGGGGGGGGGGGGGGGGGGGGGGGGGGGG",
"GGGGGGGGGGGGGGGGGGGGGGGGGGGGGGGGGGGGGGGGGGGGGGGGGGGGGGGGGGGGGGGGGGGGGGGGGGGGGGGG",
"GGGGGGGGGGGGGGGGGGGGGGGGGGGGGGGGGGGGGGGGGGGGGGGGGGGGGGGGGGGGGGGGGGGGGGGGGGGGGGGG",
"GGGGGGGGGGGGGGGGGGGGGGGGGGGGGGGGGGGGGGGGGGGGGGGGGGGGGGGGGGGGGGGGGGGGGGGGGGGGGGGG",
"GGGGGGGGGGGGGGGGGGGGGGGGGGGGGGGGGGGGGGGGGGGGGGGGGGGGGGGGGGGGGGGGGGGGGGGGGGGGGGGG",
"GGGGGGGGGGGGGGGGGGGGGGGGGGGGGGGGGGGGGGGGGGGGGGGGGGGGGGGGGGGGGGGGGGGGGGGGGGGGGGGG",
"GGGGGGGGGGGGGGGGGGGGGGGGGGGGGGGGGGGGGGGGGGGGGGGGGGGGGGGGGGGGGGGGGGGGGGGGGGGGGGGG",
"GGGGGGGGGGGGGGGGGGGGGGGGGGGGGGGGGGGGGGGGGGGGGGGGGGGGGGGGGGGGGGGGGGGGGGGGGGGGGGGG",
"GGGGGGGGGGGGGGGGGGGGGGGGGGGGGGGGGGGGGGGGGGGGGGGGGGGGGGGGGGGGGGGGGGGGGGGGGGGGGGGG"
};
