/* XPM */
static char *xpm_[] = {
/* columns rows colors chars-per-pixel */
"80 80 129 2 ",
"   c #E95E0F",
".  c #E95E0F",
"X  c #006BB3",
"o  c #006BB3",
"O  c #929396",
"+  c #939496",
"@  c #949597",
"#  c #949698",
"$  c #949598",
"%  c #959698",
"&  c #959699",
"*  c #969799",
"=  c #96979A",
"-  c #96989A",
";  c #97989A",
":  c #97989B",
">  c #97999B",
",  c #98999B",
"<  c #999A9C",
"1  c #9B9C9E",
"2  c #9C9D9F",
"3  c #9D9E9F",
"4  c #9B9C9E",
"5  c #9E9FA1",
"6  c #9D9EA0",
"7  c #9E9EA0",
"8  c #9E9FA1",
"9  c #9FA0A2",
"0  c #A0A0A2",
"q  c #A0A1A3",
"w  c #A1A2A4",
"e  c #A3A4A6",
"r  c #A4A5A7",
"t  c #A7A8AA",
"y  c #AAABAC",
"u  c #AAABAD",
"i  c #ABACAD",
"p  c #ACADAF",
"a  c #ADADAF",
"s  c #AEAFB1",
"d  c #AFAFB1",
"f  c #AFB0B1",
"g  c #B0B1B3",
"h  c #B1B2B3",
"j  c #B1B2B4",
"k  c #B2B2B4",
"l  c #B2B3B5",
"z  c #B3B3B5",
"x  c #B5B6B8",
"c  c #BABBBC",
"v  c #BDBEBF",
"b  c #BEBEC0",
"n  c #BEBFC0",
"m  c #BFBFC1",
"M  c #C3C3C4",
"N  c #C4C4C6",
"B  c #C4C5C6",
"V  c #C7C7C9",
"C  c #C7C8C9",
"Z  c #C8C8C9",
"A  c #C8C9CA",
"S  c #C9CACB",
"D  c #CACACB",
"F  c #CACBCC",
"G  c #CBCBCD",
"H  c #CCCDCE",
"J  c #CDCECF",
"K  c #CFCFD0",
"L  c #D0D1D1",
"P  c #D0D1D2",
"I  c #D1D1D2",
"U  c #D2D2D3",
"Y  c #D2D3D4",
"T  c #D3D3D4",
"R  c #D3D4D5",
"E  c #D5D5D6",
"W  c #D5D6D7",
"Q  c #DBDBDC",
"!  c #DBDCDD",
"~  c #DDDDDE",
"^  c #DEDEDF",
"/  c #E0E0E1",
"(  c #E3E4E4",
")  c #E4E4E5",
"_  c #E5E5E6",
"`  c #E6E6E7",
"'  c #E9E9EA",
"]  c #EAEBEB",
"[  c #EBEBEB",
"{  c #ECECED",
"}  c #ECEDED",
"|  c #EDEDED",
" . c #EFEFEF",
".. c #F0F0F0",
"X. c #F0F0F1",
"o. c #F1F1F2",
"O. c #F2F2F2",
"+. c #F2F2F3",
"@. c #F2F3F3",
"#. c #F3F3F3",
"$. c #F4F4F5",
"%. c #F5F5F5",
"&. c #F5F5F6",
"*. c #F6F6F6",
"=. c #F7F7F7",
"-. c #FAFAFA",
";. c #F7F7F8",
":. c #F9F9F9",
">. c #FBFBFB",
",. c #FBFCFC",
"<. c #FCFCFC",
"1. c #FCFDFD",
"2. c #FDFDFD",
"3. c #FDFDFE",
"4. c #FEFEFE",
"5. c #FFFFFF",
"6. c #FFFFFF",
"7. c #006BB3",
"8. c #E95E0F",
"9. c #8D8F91",
"0. c #8E8F91",
"q. c #8F9092",
"w. c #959799",
"e. c #9C9D9F",
"r. c #9D9EA0",
"t. c #9C9D9F",
"y. c #E95E0F",
"u. c #006BB3",
"i. c None",
/* pixels */
"i.i.i.i.i.i.i.i.i.i.i.i.i.i.i.i.i.i.i.i.i.i.i.i.i.i.i.i.i.i.i.i.i.i.i.i.i.i.i.i.i.i.i.i.i.i.i.i.i.i.i.i.i.i.i.i.i.i.i.i.i.i.i.i.i.i.i.i.i.i.i.i.i.i.i.i.i.i.i.i.",
"i.i.i.i.i.i.i.i.i.i.i.i.i.i.i.i.i.i.i.i.i.i.i.i.i.i.i.i.i.i.i.i.i.i.i.i.i.i.i.i.i.i.i.i.i.i.i.i.i.i.i.i.i.i.i.i.i.i.i.i.i.i.i.i.i.i.i.i.i.i.i.i.i.i.i.i.i.i.i.i.",
"i.i.i.i.i.i.i.i.i.i.i.i.i.i.i.i.i.i.i.i.i.i.i.i.i.i.i.i.i.i.i.i.i.i.i.i.i.i.i.i.i.i.i.i.i.i.i.i.i.i.i.i.i.i.i.i.i.i.i.i.i.i.i.i.i.i.i.i.i.i.i.i.i.i.i.i.i.i.i.i.",
"i.i.i.i.i.i.i.i.i.i.i.i.i.i.i.i.i.i.i.i.i.i.i.i.i.i.i.i.i.i.i.i.i.i.i.i.i.i.i.i.i.i.i.i.i.i.i.i.i.i.i.i.i.i.i.i.i.i.i.i.i.i.i.i.i.i.i.i.i.i.i.i.i.i.i.i.i.i.i.i.",
"i.i.i.i.i.i.i.i.i.i.i.i.i.i.i.i.i.i.i.i.i.i.i.i.i.i.i.i.i.i.i.i.i.i.i.i.i.i.i.i.i.i.i.i.i.i.i.i.i.i.i.i.i.i.i.i.i.i.i.i.i.i.i.i.i.i.i.i.i.i.i.i.i.i.i.i.i.i.i.i.",
"i.i.i.i.i.i.i.i.i.i.i.i.i.i.i.i.i.i.i.i.i.i.i.i.i.i.i.i.i.i.i.i.i.i.i.i.i.i.i.i.i.i.i.i.i.i.i.i.i.i.i.i.i.i.i.i.i.i.i.i.i.i.i.i.i.i.i.i.i.i.i.i.i.i.i.i.i.i.i.i.",
"i.i.i.i.i.i.i.i.i.i.i.i.i.i.i.i.i.i.i.i.i.i.i.i.i.i.i.i.i.i.i.i.i.i.i.i.i.i.i.i.i.i.i.i.i.i.i.i.i.i.i.i.i.i.i.i.i.i.i.i.i.i.i.i.i.i.i.i.i.i.i.i.i.i.i.i.i.i.i.i.",
"i.i.i.i.i.i.i.i.i.i.i.i.i.i.i.i.i.i.i.i.i.i.i.i.i.i.i.i.i.i.i.i.i.i.i.i.i.i.i.i.i.i.i.i.i.i.i.i.i.i.i.i.i.i.i.i.i.i.i.i.i.i.i.i.i.i.i.i.i.i.i.i.i.i.i.i.i.i.i.i.",
"i.i.i.i.i.i.i.i.i.i.i.i.i.i.i.i.i.i.i.i.i.i.i.i.i.i.i.i.i.i.i.i.i.i.i.i.i.i.i.i.i.i.i.i.i.i.i.i.i.i.i.i.i.i.i.i.i.i.i.i.i.i.i.i.i.i.i.i.i.i.i.i.i.i.i.i.i.i.i.i.",
"i.i.i.i.i.i.i.i.i.i.i.i.i.i.i.i.i.i.i.i.i.i.i.i.i.i.i.i.i.i.i.i.i.i.i.i.i.i.i.i.i.i.i.i.i.i.i.i.i.i.i.i.i.i.i.i.i.i.i.i.i.i.i.i.i.i.i.i.i.i.i.i.i.i.i.i.i.i.i.i.",
"i.i.i.i.i.i.i.i.i.i.i.i.i.i.i.i.i.i.i.i.i.i.i.i.i.i.i.i.i.i.i.i.i.i.i.i.i.i.i.i.i.i.i.i.i.i.i.i.i.i.i.i.i.i.i.i.i.i.i.i.i.i.i.i.i.i.i.i.i.i.i.i.i.i.i.i.i.i.i.i.",
"i.i.i.i.i.i.i.i.i.i.i.i.i.i.i.i.i.i.i.i.i.i.i.i.i.i.i.i.i.i.i.i.i.i.i.i.i.i.i.i.i.i.i.i.i.i.i.i.i.i.i.i.i.i.i.i.i.i.i.i.i.i.i.i.i.i.i.i.i.i.i.i.i.i.i.i.i.i.i.i.",
"i.i.i.i.i.i.i.i.i.i.i.i.i.i.i.i.i.i.i.i.i.i.i.i.i.i.i.i.i.i.i.i.i.i.i.i.i.i.i.i.i.i.i.i.i.i.i.i.i.i.i.i.i.i.i.i.i.i.i.i.i.i.i.i.i.i.i.i.i.i.i.i.i.i.i.i.i.i.i.i.",
"i.i.i.i.i.i.i.i.i.i.i.i.i.i.i.i.i.i.i.i.i.i.i.i.i.i.i.i.i.i.i.i.i.i.i.i.i.i.i.i.i.i.i.i.i.i.i.i.i.i.i.i.i.i.i.i.i.i.i.i.i.i.i.i.i.i.i.i.i.i.i.i.i.i.i.i.i.i.i.i.",
"i.i.i.i.i.i.i.i.i.i.i.i.i.i.i.i.i.i.i.i.i.i.i.i.i.i.i.i.i.i.i.i.i.i.i.i.i.i.i.i.i.i.i.i.i.i.i.i.i.i.i.i.i.i.i.i.i.i.i.i.i.i.i.i.i.i.i.i.i.i.i.i.i.i.i.i.i.i.i.i.",
"i.i.i.i.i.i.i.i.i.i.i.i.i.i.i.i.i.i.i.i.i.i.i.i.i.i.i.i.i.i.i.i.i.i.i.i.i.i.i.i.i.i.i.i.i.i.i.i.i.i.i.i.i.i.i.i.i.i.i.i.i.i.i.i.i.i.i.i.i.i.i.i.i.i.i.i.i.i.i.i.",
"i.i.i.i.i.i.i.i.i.i.i.i.i.i.i.i.i.i.i.i.i.i.i.i.i.i.i.i.i.i.i.i.i.i.i.i.i.i.i.i.i.i.i.i.i.i.i.i.i.i.i.i.i.i.i.i.i.i.i.i.i.i.i.i.i.i.i.i.i.i.i.i.i.i.i.i.i.i.i.i.",
"i.i.i.i.i.i.i.i.i.i.i.i.i.i.i.i.i.i.i.i.i.i.i.i.i.i.i.i.i.i.i.i.i.i.i.i.i.i.i.i.i.i.i.i.i.i.i.i.i.i.i.i.i.i.i.i.i.i.i.i.i.i.i.i.i.i.i.i.i.i.i.i.i.i.i.i.i.i.i.i.",
"i.i.i.i.i.i.i.i.i.i.i.i.i.i.i.i.i.i.i.i.i.i.i.i.i.i.i.i.i.i.i.i.i.i.i.i.i.i.i.i.i.i.i.i.i.i.i.i.i.i.i.i.i.i.i.i.i.i.i.i.i.i.i.i.i.i.i.i.i.i.i.i.i.i.i.i.i.i.i.i.",
"i.i.i.i.i.i.i.i.i.i.i.i.i.i.i.i.i.i.i.i.i.i.i.i.i.i.i.i.i.i.i.i.i.i.i.i.i.i.i.i.i.i.i.i.i.i.i.i.i.i.i.i.i.i.i.i.i.i.i.i.i.i.i.i.i.i.i.i.i.i.i.i.i.i.i.i.i.i.i.i.",
"i.i.i.i.i.i.i.i.i.i.i.i.i.i.i.i.i.i.i.i.i.i.i.i.i.i.i.i.i.i.i.i.i.i.i.i.i.i.i.i.i.i.i.i.i.i.i.i.i.i.i.i.i.i.i.i.i.i.i.i.i.i.i.i.i.i.i.i.i.i.i.i.i.i.i.i.i.i.i.i.",
"i.i.i.2 2 2 2 2 2 2 2 2 2 2 2 2 1 1 2 2 1 4 2 e.u.u.i.u.i.7.X X X X X X X X X X X X X X X X X X X X 7.i.i.i.u.i.8.. . . . . . . . . . . . . . . . . . . . i.i.i.",
"i.i.i.2 2 2 2 2 2 2 2 2 2 2 1 2 7 7 9 9 7 5 7 e.i.u.i.i.i.7.X X X X X X X X X X X X X X X X X X X X 7.i.u.i.u.i.8.. . . . . . . . . . . . . . . . . . . . i.i.i.",
"i.i.i.2 2 2 2 2 2 2 2 2 2 7 > s &.o.o.o.o.-.M q.i.u.i.i.i.7.X X X X X X X X X X X X X X X X X X X X 7.i.u.i.u.i.8.. . . . . . . . . . . . . . . . . . . . i.i.i.",
"i.i.i.2 2 2 2 2 2 2 2 2 2 7 > l 5.5.5.5.O.| F 9.i.i.i.i.t.7.X X X X X X X X X X X X X X X X X X X X 7.t.u.i.t.i.8.. . . . . . . . . . . . . . . . . . . . i.i.i.",
"i.i.i.2 2 2 2 2 2 2 2 2 2 2 > h 5.5.5.5.O.| A 9.i.i.i.i.t.7.X X X X X X X X X X X X X X X X X X X X 7.t.u.i.y.i.8.. . . . . . . . . . . . . . . . . . . . i.i.i.",
"i.i.i.2 2 2 2 2 2 2 2 2 2 7 > h 5.5.5.5.*.O.A 9.i.u.i.i.t.7.X X X X X X X X X X X X X X X X X X X X 7.t.u.i.t.i.8.. . . . . . . . . . . . . . . . . . . . i.i.i.",
"i.i.i.2 2 2 2 2 2 2 2 2 2 7 , h 5.5.5.5.*.O.A 9.i.u.i.i.t.t.X X X X X X X X X X X X X X X X X X X X t.i.u.i.u.i.8.. . . . . . . . . . . . . . . . . . . . i.i.i.",
"i.i.i.2 2 2 2 2 2 2 2 2 2 7 > h 5.5.5.5.5.:.A 9.i.u.i.u.i.t.X X X X X X X X X X X X X X X X X X X X t.t.u.i.u.i.7..   . . . . . . . . . . . . . . . . . . i.i.i.",
"i.i.i.2 2 2 2 2 2 2 2 2 2 7 > h 5.5.5.5.:.:.A 9.i.u.i.u.t.7.X X X X X X X X X X X X X X X X X X X X 7.t.u.i.u.i.8..   . . . . . . . . . . . . . . . . . . i.i.i.",
"i.i.i.2 2 2 2 2 2 7 2 1 2 7 , h 5.5.5.5.:.*.S 9.i.u.u.u.t.7.X X X X X X X X X X X X X X X X X X X X 7.t.u.i.u.i.8.. . . . . . . . . . . . . . . . . . . . i.i.i.",
"i.i.i.2 2 2 2 7 , * 2 0 1 * * l 5.5.5.5.:.*.S 9.i.u.u.u.t.7.X X X X X X X X X X X X X X X X X X X X 7.t.u.i.u.i.8.. . . . . . . . . . . . . . . . . . . . i.i.i.",
"i.i.i.2 2 2 2 * s Q } o.} T 0 a | | | | O.O.A 9.u.u.i.u.i.7.X X X X X X X X X X X X X X X X X X X X 7.i.u.i.u.i.8.. . . . . . . . . . . . . . . . . . . . i.i.i.",
"i.i.i.2 2 7 * V 5.5.5.5.5.5.&.B | | | | O.O.A 9.i.u.i.i.i.7.X X X X X X X X X X X X X X X X X X X X 7.i.u.i.u.i.8.. . . . . . . . . . . . . . . . . . . . i.i.i.",
"i.i.i.2 7 * M 5.5.5.5.5.5.5.5.5.| | | | O.| A 9.i.u.i.i.i.7.X X X X X X X X X X X X X X X X X X X X 7.i.u.i.u.i.8.. . . . . . . . . . . . . . . . . . . . i.i.i.",
"i.i.i.1 1 y 5.5.5.5.5.5.5.5.5.5.| | | | | | A 9.u.u.i.i.i.7.X X X X X X X X X X X X X X X X X X X X 7.i.u.u.u.i.8.. . . . . . . . . . . . . . . . . . . . i.i.i.",
"i.i.i.7 * ~ 5.5.5.5.5.5.5.5.5.5.| | | | :.*.A 9.i.u.i.u.t.7.X X X X X X X X X X X X X X X X X X X X 7.t.t.t.u.i.7.. . . . . . . . . . . . . . . . . . . . i.i.i.",
"i.i.i.1 t >.5.5.5.5.5.5.6.` >.5.| | | | :.$.A 9.i.u.i.u.t.7.X X X X X X X X X X X X X X X X X X X X 7.t.t.t.u.u.8.. . . . . . . . . . . . . . . . . . . . i.i.i.",
"i.i.i.* M 5.5.5.5.5.5.o.y @ a >.| | | | >.&.[ 9.u.u.i.u.t.7.X X X X X X X X X X X X X X X X X X X X t.t.t.u.u.u.8.. . . . . . . . . . . . . . . . . . . . i.i.i.",
"i.i.i.* Q 5.5.5.5.5.5.n @ 0 O H | | | | :.%.Q 9.u.u.i.u.t.t.X X X X X X X X X X X X X X X X X X X X 7.t.t.u.t.u.8.. . . . . . . . . . . . . . . . . . . . i.i.i.",
"i.i.i.1 } 5.5.5.5.5.&.0 2 7 , x | | | | | ] D 9.i.u.i.u.i.7.X X X X X X X X X X X X X X X X X X X X 7.t.u.i.y.i.8.. . . . . . . . . . . . . . . . . . . . i.i.i.",
"i.i.i.e &.5.5.5.6.5.( , 7 2 , h | | | | | ] D 9.i.u.i.u.i.7.X X X X X X X X X X X X X X X X X X X X 7.t.u.i.y.i.8.. . . . . . . . . . . . . . . . . . . . i.i.i.",
"i.i.i.y >.5.5.5.5.5.E * 7 2 , h | | | | ` ` A 9.u.u.u.u.i.7.X X X X X X X X X X X X X X X X X X X X 7.t.u.i.t.i.8.. . . . . . . . . . . . . . . . . . . . i.i.i.",
"i.i.i.s 5.5.5.5.5.5.H * 7 7 , h | | | | ` ` A 9.u.u.u.u.i.7.X X X X X X X X X X X X X X X X X X X X t.i.u.i.t.i.8.. . . . . . . . . . . . . . . . . . . . i.i.i.",
"i.i.i.h 5.5.5.5.5.5.A @ 7 2 > h 5.5.5.5.` / G 7.u.u.u.u.t.7.X X X X X X X X X X X X X X X X X X X X t.t.u.i.u.i.t.. . . . . . . . . . . . . . . . . . . . i.i.i.",
"i.i.i.f 5.5.5.5.6.5.A * 7 2 > h 5.5.5.5.` / :.9.u.u.u.u.t.t.X X X X X X X X X X X X X X X X X X X X 7.t.u.i.u.i.8.. . . . . . . . . . . . . . . . . . . . i.i.i.",
"i.i.i.y >.5.5.5.5.5.I @ 7 2 > h 5.5.5.5.6.6.( 7.u.u.u.t.t.7.X X X X X X X X X X X X X X X X X X X X 7.t.u.u.t.u.8.. . . . . . . . . . . . . . . . . . . . i.i.i.",
"i.i.i.t &.5.5.5.5.5.~ > 7 7 > h 5.5.5.5.5.6.{ 9.u.t.u.t.t.7.X X X X X X X X X X X X X X X X X X X X 7.t.u.u.t.t.8.. . . . . . . . . . . . . . . . . . . . i.i.i.",
"i.i.i.7 } 5.5.5.5.5.} 7 2 7 , l 5.5.5.5.5.:.A 9.i.i.i.i.t.7.X X X X X X X X X X X X X X X X X X X X 7.i.u.i.u.i.8.. . . . . . . . . . . . . . . . . . . . i.i.i.",
"i.i.i.* / 5.5.5.5.5.5.l * w * n 5.6.5.5.:.:.S 9.i.i.i.i.t.7.X X X X X X X X X X X X X X X X X X X X 7.i.u.i.u.i.8.. . . . . . . . . . . . . . . . . . . . i.i.i.",
"i.i.i.* A 5.5.5.5.5.5.' 7 @ 1 ' 5.5.5.5.:.*.S 9.i.u.i.i.t.7.X X X X X X X X X X X X X X X X X X X X 7.i.u.i.u.i.8.. . . . . . . . . . . . . . . . . . . . i.i.i.",
"i.i.i.> a 5.5.5.5.5.5.5.o.R } 5.5.5.5.5.:.*.H 9.i.i.i.i.t.t.X X X X X X X X X X X X X X X X X X X X 7.i.u.i.u.i.8.. . . . . . . . . . . . . . . . . . . . i.i.i.",
"i.i.i.7 1 ' 5.5.5.5.5.5.5.5.5.5.5.5.5.5.:.-.] 9.i.u.i.u.i.t.X X X X X X X X X X X X X X X X X X X X 7.t.t.t.u.u.9.. . . . . . . . . . . . . . . . . . . . i.i.i.",
"i.i.i.7 * c 5.5.5.5.5.5.5.5.>.5.5.5.5.5.:.-.^ 9.u.u.i.u.t.7.X X X X X X X X X X X X X X X X X X X X 7.t.t.t.u.u.8.. . . . . . . . . . . . . . . . . . . . i.i.i.",
"i.i.i.2 2 * Q 5.>.5.5.5.5.5.5.&.H 5.5.6.:.-.E 7.i.u.i.u.t.7.X X X X X X X X X X X X X X X X X X X X t.t.t.u.t.u.8.. . . . . . . . . . . . . . . . . . . . i.i.i.",
"i.i.i.2 2 1 2 ~ 5.5.5.5.5.5.o.i y 5.5.6.6.=.` 9.i.u.i.u.t.7.X X X X X X X X X X X X X X X X X X X X 7.t.t.u.t.u.8.. . . . . . . . . . . . . . . . . . . . i.i.i.",
"i.i.i.2 1 7 1 , v / o.&.` M 7 * r K I I K L L 9.u.u.u.u.t.7.X X X X X X X X X X X X X X X X X X X X 7.t.i.i.i.i.8.. . . . . . . . . . . . . . . . . . . . i.i.i.",
"i.i.i.2 2 2 2 7 > , 7 7 > * 1 7 3 4 % % 4 # m 9.u.u.u.u.t.t.X X X X X X X X X X X X X X X X X X X X 7.t.u.i.i.i.8.. . . . . . . . . . . . . . . . . . . . i.i.i.",
"i.i.i.2 2 2 2 2 7 7 1 1 7 7 2 2 t r a v 7 0 q 7.u.u.u.u.t.7.X X X X X X X X X X X X X X X X X X X X t.t.u.i.i.i.8.. . . . . . . . . . . . . . . . . . . . i.i.i.",
"i.i.i.i.i.i.i.i.i.i.i.i.i.i.i.i.i.i.i.i.i.i.i.i.u.u.t.t.t.t.i.i.i.i.i.i.i.i.i.i.i.i.i.i.i.i.i.i.i.i.i.i.i.i.i.i.i.i.i.i.i.i.i.i.i.i.i.i.i.i.i.i.i.i.i.i.i.i.i.i.",
"i.i.i.i.i.i.i.i.i.i.i.i.i.i.i.i.i.i.i.i.i.i.i.i.i.i.i.i.i.i.i.i.i.i.i.i.i.i.i.i.i.i.i.i.i.i.i.i.i.i.i.i.i.i.i.i.i.i.i.i.i.i.i.i.i.i.i.i.i.i.i.i.i.i.i.i.i.i.i.i.",
"i.i.i.i.i.i.i.i.i.i.i.i.i.i.i.i.i.i.i.i.i.i.i.i.i.i.i.i.i.i.i.i.i.i.i.i.i.i.i.i.i.i.i.i.i.i.i.i.i.i.i.i.i.i.i.i.i.i.i.i.i.i.i.i.i.i.i.i.i.i.i.i.i.i.i.i.i.i.i.i.",
"i.i.i.i.i.i.i.i.i.i.i.i.i.i.i.i.i.i.i.i.i.i.i.i.i.i.i.i.i.i.i.i.i.i.i.i.i.i.i.i.i.i.i.i.i.i.i.i.i.i.i.i.i.i.i.i.i.i.i.i.i.i.i.i.i.i.i.i.i.i.i.i.i.i.i.i.i.i.i.i.",
"i.i.i.i.i.i.i.i.i.i.i.i.i.i.i.i.i.i.i.i.i.i.i.i.i.i.i.i.i.i.i.i.i.i.i.i.i.i.i.i.i.i.i.i.i.i.i.i.i.i.i.i.i.i.i.i.i.i.i.i.i.i.i.i.i.i.i.i.i.i.i.i.i.i.i.i.i.i.i.i.",
"i.i.i.i.i.i.i.i.i.i.i.i.i.i.i.i.i.i.i.i.i.i.i.i.i.i.i.i.i.i.i.i.i.i.i.i.i.i.i.i.i.i.i.i.i.i.i.i.i.i.i.i.i.i.i.i.i.i.i.i.i.i.i.i.i.i.i.i.i.i.i.i.i.i.i.i.i.i.i.i.",
"i.i.i.i.i.i.i.i.i.i.i.i.i.i.i.i.i.i.i.i.i.i.i.i.i.i.i.i.i.i.i.i.i.i.i.i.i.i.i.i.i.i.i.i.i.i.i.i.i.i.i.i.i.i.i.i.i.i.i.i.i.i.i.i.i.i.i.i.i.i.i.i.i.i.i.i.i.i.i.i.",
"i.i.i.i.i.i.i.i.i.i.i.i.i.i.i.i.i.i.i.i.i.i.i.i.i.i.i.i.i.i.i.i.i.i.i.i.i.i.i.i.i.i.i.i.i.i.i.i.i.i.i.i.i.i.i.i.i.i.i.i.i.i.i.i.i.i.i.i.i.i.i.i.i.i.i.i.i.i.i.i.",
"i.i.i.i.i.i.i.i.i.i.i.i.i.i.i.i.i.i.i.i.i.i.i.i.i.i.i.i.i.i.i.i.i.i.i.i.i.i.i.i.i.i.i.i.i.i.i.i.i.i.i.i.i.i.i.i.i.i.i.i.i.i.i.i.i.i.i.i.i.i.i.i.i.i.i.i.i.i.i.i.",
"i.i.i.i.i.i.i.i.i.i.i.i.i.i.i.i.i.i.i.i.i.i.i.i.i.i.i.i.i.i.i.i.i.i.i.i.i.i.i.i.i.i.i.i.i.i.i.i.i.i.i.i.i.i.i.i.i.i.i.i.i.i.i.i.i.i.i.i.i.i.i.i.i.i.i.i.i.i.i.i.",
"i.i.i.i.i.i.i.i.i.i.i.i.i.i.i.i.i.i.i.i.i.i.i.i.i.i.i.i.i.i.i.i.i.i.i.i.i.i.i.i.i.i.i.i.i.i.i.i.i.i.i.i.i.i.i.i.i.i.i.i.i.i.i.i.i.i.i.i.i.i.i.i.i.i.i.i.i.i.i.i.",
"i.i.i.i.i.i.i.i.i.i.i.i.i.i.i.i.i.i.i.i.i.i.i.i.i.i.i.i.i.i.i.i.i.i.i.i.i.i.i.i.i.i.i.i.i.i.i.i.i.i.i.i.i.i.i.i.i.i.i.i.i.i.i.i.i.i.i.i.i.i.i.i.i.i.i.i.i.i.i.i.",
"i.i.i.i.i.i.i.i.i.i.i.i.i.i.i.i.i.i.i.i.i.i.i.i.i.i.i.i.i.i.i.i.i.i.i.i.i.i.i.i.i.i.i.i.i.i.i.i.i.i.i.i.i.i.i.i.i.i.i.i.i.i.i.i.i.i.i.i.i.i.i.i.i.i.i.i.i.i.i.i.",
"i.i.i.i.i.i.i.i.i.i.i.i.i.i.i.i.i.i.i.i.i.i.i.i.i.i.i.i.i.i.i.i.i.i.i.i.i.i.i.i.i.i.i.i.i.i.i.i.i.i.i.i.i.i.i.i.i.i.i.i.i.i.i.i.i.i.i.i.i.i.i.i.i.i.i.i.i.i.i.i.",
"i.i.i.i.i.i.i.i.i.i.i.i.i.i.i.i.i.i.i.i.i.i.i.i.i.i.i.i.i.i.i.i.i.i.i.i.i.i.i.i.i.i.i.i.i.i.i.i.i.i.i.i.i.i.i.i.i.i.i.i.i.i.i.i.i.i.i.i.i.i.i.i.i.i.i.i.i.i.i.i.",
"i.i.i.i.i.i.i.i.i.i.i.i.i.i.i.i.i.i.i.i.i.i.i.i.i.i.i.i.i.i.i.i.i.i.i.i.i.i.i.i.i.i.i.i.i.i.i.i.i.i.i.i.i.i.i.i.i.i.i.i.i.i.i.i.i.i.i.i.i.i.i.i.i.i.i.i.i.i.i.i.",
"i.i.i.i.i.i.i.i.i.i.i.i.i.i.i.i.i.i.i.i.i.i.i.i.i.i.i.i.i.i.i.i.i.i.i.i.i.i.i.i.i.i.i.i.i.i.i.i.i.i.i.i.i.i.i.i.i.i.i.i.i.i.i.i.i.i.i.i.i.i.i.i.i.i.i.i.i.i.i.i.",
"i.i.i.i.i.i.i.i.i.i.i.i.i.i.i.i.i.i.i.i.i.i.i.i.i.i.i.i.i.i.i.i.i.i.i.i.i.i.i.i.i.i.i.i.i.i.i.i.i.i.i.i.i.i.i.i.i.i.i.i.i.i.i.i.i.i.i.i.i.i.i.i.i.i.i.i.i.i.i.i.",
"i.i.i.i.i.i.i.i.i.i.i.i.i.i.i.i.i.i.i.i.i.i.i.i.i.i.i.i.i.i.i.i.i.i.i.i.i.i.i.i.i.i.i.i.i.i.i.i.i.i.i.i.i.i.i.i.i.i.i.i.i.i.i.i.i.i.i.i.i.i.i.i.i.i.i.i.i.i.i.i.",
"i.i.i.i.i.i.i.i.i.i.i.i.i.i.i.i.i.i.i.i.i.i.i.i.i.i.i.i.i.i.i.i.i.i.i.i.i.i.i.i.i.i.i.i.i.i.i.i.i.i.i.i.i.i.i.i.i.i.i.i.i.i.i.i.i.i.i.i.i.i.i.i.i.i.i.i.i.i.i.i.",
"i.i.i.i.i.i.i.i.i.i.i.i.i.i.i.i.i.i.i.i.i.i.i.i.i.i.i.i.i.i.i.i.i.i.i.i.i.i.i.i.i.i.i.i.i.i.i.i.i.i.i.i.i.i.i.i.i.i.i.i.i.i.i.i.i.i.i.i.i.i.i.i.i.i.i.i.i.i.i.i."
};
