/* XPM */
static char *xpm_[] = {
/* columns rows colors chars-per-pixel */
"80 80 50 1 ",
"  c #030204",
". c #0F0F10",
"X c #100F10",
"o c #0F1010",
"O c #151516",
"+ c #040206",
"@ c #1C1C1D",
"# c #212122",
"$ c #272727",
"% c #383839",
"& c #2E2E2F",
"* c #353535",
"= c #353536",
"- c #040106",
"; c #040107",
": c #202021",
"> c #272728",
", c #3A3A3B",
"< c #484848",
"1 c #5A5A5C",
"2 c #737475",
"3 c #040306",
"4 c #151516",
"5 c #202122",
"6 c #040107",
"7 c #2A2B2B",
"8 c #2E2F30",
"9 c #333334",
"0 c #020103",
"q c #29292B",
"w c #09080A",
"e c #383839",
"r c #363637",
"t c #383839",
"y c #515152",
"u c #626263",
"i c #868686",
"p c #9F9E9F",
"a c #A8A8A8",
"s c #888889",
"d c #929293",
"f c #040305",
"g c #222223",
"h c #030106",
"j c #040305",
"k c #050306",
"l c #040205",
"z c #0A0B0E",
"x c #030205",
"c c None",
/* pixels */
"cccccccccccccccccccccccccccccccccccccccccccccccccccccccccccccccccccccccccccccccc",
"cccccccccccccccccccccccccccccccccccccccccccccccccccccccccccccccccccccccccccccccc",
"cccccccccccccccccccccccccccccccccccccccccccccccccccccccccccccccccccccccccccccccc",
"ccccccccccc.o...++               ;cccccccccccccccccccccccccccccccccccccccccccccc",
"ccccccccccc.++++                +3cccccccccccccccccccccccccccccccccccccccccccccc",
"ccccccccccc++                   .Occcccccccccccccccccccccccccccccccccccccccccccc",
"ccccccccccc+                    +:cccccccccccccccccccccccccccccccccccccccccccccc",
"ccccccccccc+                    o:cccccccccccccccccccccccccccccccccccccccccccccc",
"ccccccccccc;.                   o8cccccccccccccccccccccccccccccccccccccccccccccc",
"ccccccccccc;                    o8cccccccccccccccccccccccccccccccccccccccccccccc",
"ccccccccccc;+                   O8cccccccccccccccccccccccccccccccccccccccccccccc",
"ccccccccccc;+                  ;Otcccccccccccccccccccccccccccccccccccccccccccccc",
"ccccccccccc3+            +++.   Otcccccccccccccccccccccccccccccccccccccccccccccc",
"ccccccccccc3.          ..@&**&$..fcccccccccccccccccccccccccccccccccccccccccccccc",
"ccccccccccc6+         +.clccclcccccccccccccccccccccccccccccccccccccccccccccccccc",
"ccccccccccc6.         +4cccccccccccccccccccccccccccccccccccccccccccccccccccccccc",
"ccccccccccc0.          4cccccccccccccccccccccccccccccccccccccccccccccccccccccccc",
"ccccccccccc0+         .4cccccccccccccccccccccccccccccccccccccccccccccccccccccccc",
"ccccccccccc0.         +:cccccccccccccccccccccccccccccccccccccccccccccccccccccccc",
"ccccccccccch.         .5cccccccccccccccccccccccccccccccccccccccccccccccccccccccc",
"ccccccccccch..        +5cccccccccccccccccccccccccccccccccccccccccccccccccccccccc",
"ccccccccccch++        .:cccccccccccccccccccccccccccccccccccccccccccccccccccccccc",
"cccccccccccj.+        .8cccccccccccccccccccccccccccccccccccccccccccccccccccccccc",
"cccccccccccj..        .ejjhjhhjjhlcchfhhhcccccxhhhhjccjhhhhhhhjlxccccccccccccccc",
"cccccccccccj+.                  +lcc-+++-cccccl-+.+-cc+++++++++++6lccccccccccccc",
"cccccccccccl..+                 .lcc-+++-cccccl-+++6cx-+++.+++.++++hcccccccccccc",
"cccccccccccl+.+                 .lcc-+++-cccccl.+++6cc-+++++++++.+++zccccccccccc",
"cccccccccccl...+                5lcc-+.+-cccccl-+..6cc-++++++.+++++.-ccccccccccc",
"cccccccccccl...+                &xcc-++.-cccccz+++.6cc-+++-hhhf-+.++-hcccccccccc",
"cccccccccccc+..+                &xcc-+++-ccccxz++++6cc-.+.-cxccl-++++6cccccccccc",
"cccccccccccl+O.+                =xcc-+++-cccccl+.++-cc-++.-cccccz++.+-cccccccccc",
"cccccccccccc+@.+                =ccl-+.+-cccccz++++6cx-+++-cccccx+++++cccccccccc",
"cccccccccccc Oo+      .>@@..+  +7xcc-+++-cccccl+.++-cc-+.+-cccccc6.+++cccccccccc",
"cccccccccccc;OO.+     .Okkjfjjjhhccc-++.-cccccz++++6cc-+++-cccccc6+++.cccccccccc",
"cccccccccccc;.O.++    .wcccccccccccc-+++-cccccl+++.6cc-+++-cccccc6+++.xccccccccc",
"cccccccccccc +O..+    :occcccccccccc-.++-cccccl-.++6cx-++.-xcccxc-++++cccccccccc",
"cccccccccccc; Oo.+++  .rcxcccccccccc-+.+-cccccl.+++6xc-..+-cccccc6+.++cccccccccc",
"cccccccccccc; .O.+++  .wcxcccccccccc-+++-hhlhlh+++.6cc-+++-cccccc6++++cccccccccc",
"cccccccccccc; +@o+++  @gcccccccccccc-+++.++.-++++++6cc-+++-cccccc6+..+cccccccccc",
"cccccccccccc6  OO..+ +OOcccccccccccl-++.++++++++.++-cc-+++-ccccxc-++++cccccccccc",
"cccccccccccc6  +@XX++ oocccccccccccc-.++.++.+++..++6cc-+.+-cccccc6++.+cccccccccc",
"cccccccccccc6   @oX+++@gcccccccccccc++++++++.++++++6cx-+++-cccccc6++++cccccccccc",
"cccccccccccc0   X@X++;Oocccccccccccc-+.+-ffhhh6+++.6cc-+++-ccccxc6++++xccccccccc",
"cccccccccccc0   +OX...:gcccccccccccc-+++-ccxccx++++6cc-.+.-xccccx6.++.cccccccccc",
"cccccccccccc0    .O.. owcccccccccccc-+++-cccxcl-.++-cc-++.-cccccc6++.+cccccccccc",
"cccccccccccch     Oo. OOcccccccccccc-++.-cccccl++++6cc-+++-cccccx6.+++cccccccccc",
"cccccccccccch     .O....;; ; ;; hccc-.++-cccccl.++.6cc-+++-cccccc6++++cccccccccc",
"cccccccccccch      OOo+;        hccc-+++-cccccx-.++6cx-+.+-cccccc-++.+cccccccccc",
"cccccccccccch       @o.         hccc-+++-cccccz++++-cc-+.+-cccccx-+++.cccccccccc",
"ccccccccccccj       .@..++     .fccc-.++-ccccxz+++.6cc-+++-cccccz++++-cccccccccc",
"ccccccccccccj        oO..+     Ozccc-++.-cccccl++++6cc-+++-lcccc-+.++6xccccccccc",
"ccccccccccccj         @Oo+     @zccl-+++-cccccz+.++6cx-+.+-zllh6+++++hcccccccccc",
"ccccccccccccj         XtX..+   $zccc-+++-cccccl++++6xc-..+++-.+++++++ccccccccccc",
"ccccccccccccl          :@X.++  *zlcc-+.+-cccccx-++.6cc-++++.++++++++jccccccccccc",
"ccccccccccccl         y$+OOX.++,zccc-+++-cccccl+.++6cc-++++++++.+++0cccccccccccc",
"ccccccccccccl  .$%<<<<12@O@@OoO*lccc.++.-cccccl++++-cc-+.+++.+++++jccccccccccccc",
"ccccccccccccc0fwgy%%e>1tggwfwff0ccccww666cccccx6666hccf66666666hjccccccccccccccc",
"cccccccccccccccccccccccccccccccccccccccccccccccccccccccccccccccccccccccccccccccc",
"cccccccccccccxxccxcccfccxccxcxcccccccxcccccccccccccccccccccxcccccccccccccccccccc",
"cccccccccccccccccccccccccccccccccccccccccccccccccccccccccccccccccccccccccccccccc",
"ccccccccccccxw3000000000w3w30000xccccccccccccccccccccccccccccccccccccccccccccccc",
"cccccccccccczo          o+      xccccccccccccccccccccccccccccccccccccccccccccccc",
"ccccccccccccl.                +-xccccccccccccccccccccccccccccccccccccccccccccccc",
"ccccccccccccl+              +++.lccccccccccccccccccccccccccccccccccccccccccccccc",
"ccccccccccccl.                 .lccccccccccccccccccccccccccccccccccccccccccccccc",
"ccccccccccccl.                 .cccccccccccccccccccccccccccccccccccccccccccccccc",
"ccccccccccccc+                 Olccccccccccccccccccccccccccccccccccccccccccccccc",
"ccccccccccccl.                 $cccccccccccccccccccccccccccccccccccccccccccccccc",
"ccccccccccccz+                 >lccccccccccccccccccccccccccccccccccccccccccccccc",
"ccccccccccccz+                +,cccccccccccccccccccccccccccccccccccccccccccccccc",
"ccccccccccccz.                +%lccccccccccccccccccccccccccccccccccccccccccccccc",
"ccccccccccccl+                 icccccccccccccccccccccccccccccccccccccccccccccccc",
"ccccccccccccc+                 %lccccccccccccccccccccccccccccccccccccccccccccccc",
"ccccccccccccl.                 <cccccccccccccccccccccccccccccccccccccccccccccccc",
"ccccccccccccl+                 <cccccccccccccccccccccccccccccccccccccccccccccccc",
"ccccccccccccl     ++.o@@$#@@o.+<lccccccccccccccccccccccccccccccccccccccccccccccc",
"ccccccccccccl+.oO@&%<12sddd21%O$cccccccccccccccccccccccccccccccccccccccccccccccc",
"cccccccccccccccccccccccccccccccccccccccccccccccccccccccccccccccccccccccccccccccc",
"cccccccccccccccccccccccccccccccccccccccccccccccccccccccccccccccccccccccccccccccc",
"cccccccccccccccccccccccccccccccccccccccccccccccccccccccccccccccccccccccccccccccc"
};
