/* XPM */
static char *xpm_[] = {
/* columns rows colors chars-per-pixel */
"80 80 75 1 ",
"  c #000002",
". c #000002",
"X c #413903",
"o c #000003",
"O c #010103",
"+ c #423A02",
"@ c #483F02",
"# c #010102",
"$ c #010103",
"% c #4F4502",
"& c #534903",
"* c #000003",
"= c #000002",
"- c #5B5003",
"; c #665A03",
": c #F9AB00",
"> c #F5A200",
", c #F29E00",
"< c #FBB000",
"1 c #FCB100",
"2 c #F7A400",
"3 c #FCB400",
"4 c #F7A300",
"5 c #F7A500",
"6 c #FAAE00",
"7 c #FEC900",
"8 c #FCB700",
"9 c #FFD500",
"0 c #FAAE00",
"q c #F6A300",
"w c #F7A300",
"e c #F7A300",
"r c #F8A500",
"t c #F7A400",
"y c #F9A900",
"u c #F9AB00",
"i c #FFD100",
"p c #FBBC00",
"a c #FCB400",
"s c #FFD200",
"d c #FDC200",
"f c #FFE300",
"g c #FFE500",
"h c #FFDC00",
"j c #010103",
"k c #443B03",
"l c #877702",
"z c #030303",
"x c #030203",
"c c #FBA700",
"v c #FAA901",
"b c #F7A601",
"n c #F6A601",
"m c #FDC401",
"M c #FBAF00",
"N c #F9A800",
"B c #F8A700",
"V c #FCB900",
"C c #FBB100",
"Z c #FFD900",
"A c #FFDC00",
"S c #FEDD01",
"D c #FED000",
"F c #FFE000",
"G c #F5A100",
"H c #F69F00",
"J c #F9AE01",
"K c #F9B001",
"L c #F7B001",
"P c #FEDD00",
"I c #FFE200",
"U c #231E04",
"Y c #FAAE01",
"T c #FBB501",
"R c None",
/* pixels */
"RRRRRRRRRRRRRRRRRRRRRRRRRRRRRRRRRRRRRRRRRRRRRRRRRRRRRRRRRRRRRRRRRRRRRRRRRRRRxxxx",
"RRRRRRRRRRRRRRRRRRRRRRRRRRRRRRRRRRRRRRRRRRRRRRRRRRRRRRRRRRRRRRRRRRRRRRRRRRRRxxxx",
"RRRRRRRRRRRRRRRRRRRRRRRRRRRRRRRRRRRRRRRRRRRRRRRRRRRRRRRRRRRRRRRRRRRRRRRRRRRRRRRR",
"RRRRRRRRRRRRRRRRRRRRRRRRRRRRRRRRRRRRRRRRRRRRRRRRRRRRRRRRRRRRRRRRRRRRRRRRRRRRRRRR",
"RRRRRRRRRRRRRRRRRRRRRRRRRRRRRRRRRRRRRRRRRRRRRRRRRRRRRRRRRRRRRRRRRRRRRRRRRRRRRRRR",
"RRRRRRRRRRRRRRRRRRRRRRRRRRRRRRRRRRRRRRRRRRRRRRRRRRRRRRRRRRRRRRRRRRRRRRRRRRRRRRRR",
"RRRRRRRRRRRRRRRRRRRRRRRRRRRRRRRRRRRRRRRRRRRRRRRRRRRRRRRRRRRRRRRRRRRRRRRRRRRRRRRR",
"RRRRRRRRRRRRRRRRRRRRRRRRRRRRRRRRRRRRRRRRRRRRRRRRRRRRRRRRRRRRRRRRRRRRRRRRRRRRRRRR",
"RRRRRRRRRRRRRRRRRRRRRRRRRRRRRRRRRRRRRRRRRRRRRRRRRRRRRRRRRRRRRRRRRRRRRRRRRRRRRRRR",
"RRRRRRRRRRRRRRRRRRRRRRRRRRRRRRRRRRRRRRRRRRRRRRRRRRRRRRRRRRRRRRRRRRRRRRRRRRRRRRRR",
"RRRRRRRRRRRRRRRRRRRRRRRRRRRRRRRRRRRRRRRRRRRRRRRRRRRRRRRRRRRRRRRRRRRRRRRRRRRRRRRR",
"RRRRRRRRRRRRRRRRRRRRRRRRRRRRRRRRRRRRRRRRRRRRRRRRRRRRRRRRRRRRRRRRRRRRRRRRRRRRRRRR",
"RRRRRRRRRRRRRRRRRRRRRRRRRRRRRRRRRRRRRRRRRRRRRRRRRRRRRRRRRRRRRRRRRRRRRRRRRRRRRRRR",
"RRRRRRRRRRRRRRRRRRRRRRRRRRRRRRRRRRRRRRRRRRRRRRRRRRRRRRRRRRRRRRRRRRRRRRRRRRRRRRRR",
"RRRRRRRRRRRRRRRRRRRRRRRRRRRRRRRRRRRRRRRRRRRRRRRRRRRRRRRRRRRRRRRRRRRRRRRRRRRRRRRR",
"RRRRRRRRRRRRRRRRRRRRRRRRRRRRRRRRRRRRRRRRRRRRRRRRRRRRRRRRRRRRRRRRRRRRRRRRRRRRRRRR",
"RRRRRRRRRRRRRRRRRRRRRRRRRRRRRRRRRRRRRRRRRRRRRRRRRRRRRRRRRRRRRRRRRRRRRRRRRRRRRRRR",
"RRRRRRRRRRRRRRRRRRRRRRRRRRRRRRRRRRRRRRRRRRRRRRRRRRRRRRRRRRRRRRRRRRRRRRRRRRRRRRRR",
"RRRRRRRRRRRRRRRRRRRRRRRRRRRRRRRRRRRRRRRRRRRRRRRRRRRRRRRRRRRRRRRRRRRRRRRRRRRRRRRR",
"RRRRRRRRRRRRRRRRRRRRRRRRRRRRRRRRRRRRRRRRRRRRRRRRRRRRRRRRRRRRRRRRRRRRRRRRRRRRRRRR",
"RRRRRRRRRRRRRRRRRRRRRRRRRRRRRRRRRRRRRRRRRRRRRRRRRRRRRRRRRRRRRRRRRRRRRRRRRRRRRRRR",
"RRRRRRRRRRRRRRRRRRRRRRRRRRRRRRRRRRRRRRRRRRRRRRRRRRRRRRRRRRRRRRRRRRRRRRRRRRRRRRRR",
"RRRRRRRRRRRRRRRRRRRRRRRRRRRRRRRRRRRRRRRRRRRRRRRRRRRRRRRRRRRRRRRRRRxxRRRRRRRRRRRR",
"RRRRRRRRRRRRRRRRRRRRRRRRRRRRRRRRRRRRRRRRRRRRRRRRRRRRRRRRRRRRRRRRRRRxxxRRRRRRRRRR",
"RRRRRRRRRRRRRRRRRRRRRRRRRRRRRRRRRRRRRRRRRRRRRRRRRRRRRRRRRRRRRRRRRRRRRRRRRRRRRRRR",
"RRRRRRRRRRRRRRRRRRRRRRRRRRRRRRRRRRRRRRRRRRRRRRRRRRRRRRRRRRRRRRRRRRRRRRRRRRRRRRRR",
"RRRRRRRRRRRRRRRRRRRRRRRRRRRRRRRRRRRRRRRRRRRRRRRRRRRRRRRRRRRRRRRRRRRRRRRRRRRRRRRR",
"RRRRRRRRRRRRRRRRRRRRRRRRRRRRRRRRRRRRRRRRRRRRRRRRRRRRRRRRRRRRRRRRRRRRRRRRRRRRRRRR",
"RRRRRRRRRRRRRRRRRRRRRRRRRRRRRRRRRRzzRRRRRRRRRRRRRRRRRRRRRRRRRRRRRRRRRRRRRRRRRRRR",
"RRRRRRRRRRRRRRRRRRRRRRRRRRRRRRRRRRRRRRRRRRkkFhCRRRRRRRRRRRRRRRRRRRRRRRRRRRRRRRRR",
"RRRRRRRRRRRRRRRRRRRRRRRRRRRRRRRRRRUzRRRRxUhuufARRRRRRRRRRRRRRRRRRRRRRRRRRRRRRRRR",
"RRRRRRRRRRRRRRRRRRRRRRRRRRFFFCFFSFFIURRUUUuhguCRRRRRRRRRRRRRRRRRRRRRRRRRRRRRRRRR",
"RRRRRRRRRRRRRRRRRRRRRRRRUTisiggsgggsdFUURUddpsMUURRRRRRRRRRRRRRRRRRRRRRRRRRRRRRR",
"RRRRRRRRRRRRRRRRRRRRRRRzUYdp3ddsgg3pdi9URU3d7umUURRRRRRRRRRxRRRRRRRRRRRRRRRRRRRR",
"RRRRRRRRRRRRRRRRzRRRRRRRxRppdda8Adsap3imRU71arcUxxxxRxUURRxxxxxxRRRxRRRRRRRxRRRR",
"RRRRRRRRRRRRRRRRRRRRRRRRRU1p<smUUUmipasaUU3a1svURRRRRRRURRRRxRRRRRRRRRRURRRRRRRR",
"RRR=============;JRRRRRRRYgs3rcURRU70<1aYU3u3iHRxRPDZhPUUUIDJDAYRRRULZ9998DlURRR",
"RRR             XORRRRRRRYpa3uDURUUCs110YU3saevRRUigiivRUYAiffgYRRUVisiiggssURRR",
"RRR O          O jRRRRRzRUa0<rnRURUCupa0YU6uaw5zRYgddamRURDi3dfYxRhisai683spURRR",
"RRR Ozxj $j=O*=* jRRRRRRRU0a<uhRRRYp0au3UU7r3rcRRYfddihRURnspssYUY,33umUUUGVURRR",
"RRR OR=O ##$==O  jRRRRRRRUs0ai5UYKuyaayhRxBuaePRUY31uivUxRSeda<URJi1puKURRRURRRR",
"RRR ORz# #zj ==O jRRRRRRUYuu0u0aiirapeaURR6uprhRUU1aaiMUxRPiasuYUYi0aa2hJURURRRR",
"RRR OR=$ O ;O=O  =RRRRRRRUauuu0au30riiTRxx3yaeMURUpuaybURRneaaaURU6yaa0yiunURRRR",
"RRR+XFUkX;+D;;++m+RRRRRRRUuuuuryyyy2NYUUxU6yyeBUxUpu3ycRRRbiaurUUUTsyaa0pyy4URRR",
"RRUfAisfhfffff9puARRRRRRRUyu0y5TTJYUxxRRxx3e0eNUxRdiayPRUUciu0aURxRUhyyyu0aevUUR",
"RRR3hdppu9uhu7uhhJRRRRRRRUrrue5UUURRRRRRxx8yaybRxRuiay5UUUveuriURRRRRYJ2y0u0,RzR",
"RRR2pppa9uu9i6ppuFRRRRRRzRrruenUURRRRRRRxR2erq5RRU0yuy2UURneuurUUUUURRRU2ruruURR",
"RRU0ua00uuuuuuuuuARxRRRRUYrrae5RURRRRRRRxR1ire5xRU3rure:Jv0rryyYUT2YRRUU0y0y5RRR",
"RRRu0u000u0u00u0rLUzRRRxRYeeue5RxRRRRRRRUUutieBRUR:eatuwywyururURIeu>552eq<eJUUR",
"RRRyrutrrtr0trrre5UURRRRRYewye5RRRRRRRRRRUpeee2xRRUewywrqrueqyeYRnequeewree5RRzR",
"RRRwyyyyqttttrwrecRRRRRRUYr0uw5RRRRRRRRRRUaw0q5URxRT1eie0Jce06eYRU5utrqre2JURRRR",
"RRRRRRRRRRRRRRRxRRRRRRRRRRRxRRRRRRRRRRRRRRRRRRRRRRUURRzRRRUURzUURRRRRRRRzUUURRRR",
"RRRRRRRRRRRRRRRRRRRRRRRRRRRRRRRRRRRRRRRRRRRRRRRRRRRRRRRRRRRRRRRRRRRRRRRRRRRRRRRR",
"RRRRRRRRRRRRRRRRRRRRRRRRRRRRRRRRRRRRRRRRRRRRRRRRRRRRRRRRRRRRRRRRRRRRRRRRRRRRRRRR",
"RRRRRRRRRRRRRRRRRRRRRRRRRRRRRRRRRRRRRRRRRRRRRRRRRRRRRRRRRRRRRRRRRRRRRRRRRRRRRRRR",
"RRRRRRRRRRRRRRRRRRRRRRRRRRRRRRRRRRRRRRRRRRRRRRRRRRRRRRRRRRRRRRRRRRRRRRRRRRRRRRRR",
"RRRRRRRRRRRRRRRRRRRRRRRRRRRRRRRRRRRRRRRRRRRRRRRRRRRRRRRRRRRRRRRRRRRRRRRRRRRRRRRR",
"RRRRRRRRRRRRRRRRRRRRRRRRRRRRRRRRRRRRRRRRRRRRRRRRRRRRRRRRRRRRRRRRRRRRRRRRRRRRRRRR",
"RRRRRRRRRRRRRRRRRRRRRRRRRRRRRRRRRRRRRRRRRRRRRRRRRRRRRRRRRRRRRRRRRRRRRRRRRRRRRRRR",
"RRRRRRRRRRRRRRRRRRRRRRRRRRRRRRRRRRRRRRRRRRRRRRRRRRRRRRRRRRRRRRRRRRRRRRRRRRRRRRRR",
"RRRRRRRRRRRRRRRRRRRRRRRRRRRRRRRRRRRRRRRRRRRRRRRRRRRRRRRRRRRRRRRRRRRRRRRRRRRRRRRR",
"RRRRRRRRRRRRRRRRRRRRRRRRRRRRRRRRRRRRRRRRRRRRRRRRRRRRRRRRRRRRRRRRRRRRRRRRRRRRRRRR",
"RRRRRRRRRRRRRRRRRRRRRRRRRRRRRRRRRRRRRRRRRRRRRRRRRRRRRRRRRRRRRRRRRRRRRRRRRRRRRRRR",
"RRRRRRRRRRRRRRRRRRRRRRRRRRRRRRRRRRRRRRRRRRRRRRRRRRRRRRRRRRRRRRRRRRRRRRRRRRRRRRRR",
"RRRRRRRRRRRRRRRRRRRRRRRRRRRRRRRRRRRRRRRRRRRRRRRRRRRRRRRRRRRRRRRRRRRRRRRRRRRRRRRR",
"RRRRRRRRRRRRRRRRRRRRRRRRRRRRRRRRRRRRRRRRRRRRRRRRRRRRRRRRRRRRRRRRRRRRRRRRRRRRRRRR",
"RRRRRRRRRRRRRRRRRRRRRRRRRRRRRRRRRRRRRRRRRRRRRRRRRRRRRRRRRRRRRRRRRRRRRRRRRRRRRRRR",
"RRRRRRRRRRRRRRRRRRRRRRRRRRRRRRRRRRRRRRRRRRRRRRRRRRRRRRRRRRRRRRRRRRRRRRRRRRRRRRRR",
"RRRRRRRRRRRRRRRRRRRRRRRRRRRRRRRRRRRRRRRRRRRRRRRRRRRRRRRRRRRRRRRRRRRRRRRRRRRRRRRR",
"RRRRRRRRRRRRRRRRRRRRRRRRRRRRRRRRRRRRRRRRRRRRRRRRRRRRRRRRRRRRRRRRRRRRRRRRRRRRRRRR",
"RRRRRRRRRRRRRRRRRRRRRRRRRRRRRRRRRRRRRRRRRRRRRRRRRRRRRRRRRRRRRRRRRRRRRRRRRRRRRRRR",
"RRRRRRRRRRRRRRRRRRRRRRRRRRRRRRRRRRRRRRRRRRRRRRRRRRRRRRRRRRRRRRRRRRRRRRRRRRRRRRRR",
"RRRRRRRRRRRRRRRRRRRRRRRRRRRRRRRRRRRRRRRRRRRRRRRRRRRRRRRRRRRRRRRRRRRRRRRRRRRRRRRR",
"RRRRRRRRRRRRRRRRRRRRRRRRRRRRRRRRRRRRRRRRRRRRRRRRRRRRRRRRRRRRRRRRRRRRRRRRRRRRRRRR",
"RRRRRRRRRRRRRRRRRRRRRRRRRRRRRRRRRRRRRRRRRRRRRRRRRRRRRRRRRRRRRRRRRRRRRRRRRRRRRRRR",
"RRRRRRRRRRRRRRRRRRRRRRRRRRRRRRRRRRRRRRRRRRRRRRRRRRRRRRRRRRRRRRRRRRRRRRRRRRRRRRRR",
"RRRRRRRRRRRRRRRRRRRRRRRRRRRRRRRRRRRRRRRRRRRRRRRRRRRRRRRRRRRRRRRRRRRRRRRRRRRRRRRR",
"RRRRRRRRRRRRRRRRRRRRRRRRRRRRRRRRRRRRRRRRRRRRRRRRRRRRRRRRRRRRRRRRRRRRRRRRRRRRRRRR",
"RRRRRRRRRRRRRRRRRRRRRRRRRRRRRRRRRRRRRRRRRRRRRRRRRRRRRRRRRRRRRRRRRRRRRRRRRRRRRRRR",
"RRRRRRRRRRRRRRRRRRRRRRRRRRRRRRRRRRRRRRRRRRRRRRRRRRRRRRRRRRRRRRRRRRRRRRRRRRRRRRRR"
};
