/* XPM */
static char *xpm_[] = {
/* columns rows colors chars-per-pixel */
"80 80 240 2 ",
"   c #2A081D",
".  c #3A051C",
"X  c #2F121F",
"o  c #390721",
"O  c #39182A",
"+  c #2D0E21",
"@  c #3C2334",
"#  c #393334",
"$  c #460220",
"%  c #42423A",
"&  c #45031D",
"*  c #57031D",
"=  c #480121",
"-  c #58121E",
";  c #690D1C",
":  c #760D1D",
">  c #6A111C",
",  c #73111D",
"<  c #490122",
"1  c #5A0327",
"2  c #5C1627",
"3  c #490634",
"4  c #560B34",
"5  c #5A183B",
"6  c #4E1830",
"7  c #670428",
"8  c #750726",
"9  c #661725",
"0  c #731423",
"q  c #650D37",
"w  c #661A39",
"e  c #771739",
"r  c #740E34",
"t  c #462234",
"y  c #502E39",
"u  c #68223C",
"i  c #752638",
"p  c #722B30",
"a  c #671A27",
"s  c #5D1126",
"d  c #5C1A35",
"f  c #561431",
"g  c #603840",
"h  c #753031",
"j  c #3D403B",
"k  c #4D1645",
"l  c #521944",
"z  c #661C41",
"x  c #7B1A43",
"c  c #5D2346",
"v  c #593B4B",
"b  c #52304D",
"n  c #692648",
"m  c #772947",
"M  c #69394D",
"N  c #773647",
"B  c #6A2D53",
"V  c #722D51",
"C  c #673458",
"Z  c #783555",
"A  c #7C3F4F",
"S  c #703B62",
"D  c #3C4141",
"F  c #5D424E",
"G  c #5E4251",
"H  c #4E5050",
"J  c #644455",
"K  c #784653",
"L  c #6D4369",
"P  c #72466B",
"I  c #795A6A",
"U  c #794F74",
"Y  c #706D6F",
"T  c #400F25",
"R  c #3B2232",
"E  c #4B1F2F",
"W  c #621826",
"Q  c #60242B",
"!  c #5C232C",
"~  c #3D3738",
"^  c #6E2430",
"/  c #6E2330",
"(  c #712734",
")  c #69353F",
"_  c #4E4843",
"`  c #8B172C",
"'  c #862A3A",
"]  c #8F3031",
"[  c #A73036",
"{  c #892C1E",
"}  c #CF3C3A",
"|  c #984639",
" . c #8E4931",
".. c #A94737",
"X. c #BB523D",
"o. c #852B47",
"O. c #87354A",
"+. c #973A4A",
"@. c #833C53",
"#. c #943954",
"$. c #922B4B",
"%. c #AC3A4A",
"&. c #843F64",
"*. c #CE384E",
"=. c #894358",
"-. c #964858",
";. c #975659",
":. c #904E49",
">. c #A6444B",
",. c #BA5448",
"<. c #A74755",
"1. c #B74A56",
"2. c #BA5859",
"3. c #AA554E",
"4. c #B86A58",
"5. c #B46957",
"6. c #874865",
"7. c #8D5369",
"8. c #975B69",
"9. c #855979",
"0. c #985B75",
"q. c #904868",
"w. c #AE5868",
"e. c #9A6467",
"r. c #886A79",
"t. c #9A687C",
"y. c #8C727B",
"u. c #90717B",
"i. c #906A6D",
"p. c #A86965",
"a. c #B76A67",
"s. c #A7746C",
"d. c #AB7973",
"f. c #AE7074",
"g. c #C84749",
"h. c #D75849",
"j. c #C85A5A",
"k. c #CE544E",
"l. c #E15C47",
"z. c #C66455",
"x. c #D76858",
"c. c #D77053",
"v. c #E87857",
"b. c #F46D51",
"n. c #CF5C68",
"m. c #CA6963",
"M. c #D96964",
"N. c #C9796B",
"B. c #C87C76",
"V. c #D47072",
"C. c #E67864",
"Z. c #FC7869",
"A. c #F3716B",
"S. c #DB553D",
"D. c #BC837C",
"F. c #F1865C",
"G. c #C88479",
"H. c #D78F7C",
"J. c #F58A6B",
"K. c #EA877A",
"L. c #F98977",
"P. c #FA957A",
"I. c #EF8D6A",
"U. c #F5AD7B",
"Y. c #DAA27F",
"T. c #EFC77D",
"R. c #8B6585",
"E. c #8B7581",
"W. c #93748A",
"Q. c #967793",
"!. c #986885",
"~. c #A36B84",
"^. c #A8768C",
"/. c #AC7B92",
"(. c #B57F98",
"). c #E37C80",
"_. c #978E93",
"`. c #B78986",
"'. c #A78498",
"]. c #B3869B",
"[. c #BB979B",
"{. c #AC8A8F",
"}. c #A78DA4",
"|. c #AD95AA",
" X c #B997A6",
".X c #B893A7",
"XX c #B7A6AB",
"oX c #BAA8B7",
"OX c #B2ABAD",
"+X c #C88886",
"@X c #CB948A",
"#X c #D4948A",
"$X c #D69B95",
"%X c #CB9391",
"&X c #FA8B86",
"*X c #FC9887",
"=X c #EC9291",
"-X c #D3A299",
";X c #FBA686",
":X c #FBA994",
">X c #F5B396",
",X c #C49BAC",
"<X c #CC9CAD",
"1X c #C6A9AB",
"2X c #D5A9A9",
"3X c #C6AAB5",
"4X c #C7B4B8",
"5X c #D8B8B6",
"6X c #D3B0AF",
"7X c #EBB9B0",
"8X c #DAC1BE",
"9X c #EDD2AF",
"0X c #F3E4B3",
"qX c #C7B9C7",
"wX c #D6B9C6",
"eX c #D1AAC1",
"rX c #E1BECD",
"tX c #D8C4C9",
"yX c #D9C8D4",
"uX c #DAD4D8",
"iX c #CBC8C8",
"pX c #E3CBC9",
"aX c #E3CCD4",
"sX c #E7D6DA",
"dX c #E1D3CC",
"fX c #E9E4DF",
"gX c #D9D5E4",
"hX c #E6DAE4",
"jX c #EAE4E7",
"kX c #F2E6EC",
"lX c #F3ECF0",
"zX c #FBF9F9",
"xX c #EFEDF5",
"cX c #74635D",
"vX c #85766F",
"bX c #797576",
"nX c #A08A8B",
"mX c #692C44",
"MX c None",
"NX c #D0BCB6",
/* pixels */
"MXMXMXMXMXMXMXMXMXMXMXMXMXMXMXMXMXMXMXMXMXMXMXMXMXMXMXMXMXMXMXMXMXMXMXMXMXMXMXMXMXMXMXMXMXMXMXMXMXMXMXMXMXMXMXMXMXMXMXMXMXMXMXMXMXMXMXMXMXMXMXMXMXMXMXMXMXMXMXMX",
"MXMXMXMXMXMXMXMXMXMXMXMXMXMXMXMXMXMXMXMXMXMXMXMXMXMXMXMXMXMXMXMXMXMXMXMXMXMXMXMXMXMXMXMXMXMXMXMXMXMXMXMXMXMXMXMXMXMXMXMXMXMXMXMXMXMXMXMXMXMXMXMXMXMXMXMXMXMXMXMX",
"MXMXMXMXMXMXMXMXMXMXMXMXMXMXMXMXMXMXMXMXMXMXMXMXMXMXMXMXMXMXMXMXMXMXMXMXMXMXMXMXMXMXMXMXMXMXMXMXMXMXMXMXMXMXMXMXMXMXMXMXMXMXMXMXMXMXMXMXMXMXMXMXMXMXMXMXMXMXMXMX",
"MXMXMXMXMXMXMXMXMXMXMXMXMXMXMXMXMXMXMXMXMXMXMXMXMXMXMXMXMXMXMXMXMXMXMXMXMXMXMXMXMXMXMXMXMXMXMXMXMXMXMXMXMXMXMXMXMXMXMXMXMXMXMXMXMXMXMXMXMXMXMXMXMXMXMXMXMXMXMXMX",
"MXMXMXMXMXMXMXMXMXMXMXMXMXMXMXMXMXMXMXMXMXMXMXMXMXMXMXMXMXMXMXMXMXMXMXMXMXMXMXMXMXMXMXMXMXMXMXMXMXMXMXMXMXMXMXMXMXMXMXMXMXMXMXMXMXMXMXMXMXMXMXMXMXMXMXMXMXMXMXMX",
"MXMXMXMXMXMXMXMXMXMXMXMXMXMXMXMXMXMXMXMXMXMXMXMXMXMXMXMXMXMXMXMXMXMXMXMXMXMXMXMXMXMXMXMXMXMXMXMXMXMXMXMXMXMXMXMXMXMXMXMXMXMXMXMXMXMXMXMXMXMXMXMXMXMXMXMXMXMXMXMX",
"MXMXMXMXMXMXMXMXMXMXMXMXMXMXMXMXMXMXMXMXMXMXMXMXMXMXMXMXMXMXMXMXMXMXMXMXMXMXMXMXMXMXMXMXMXMXMXMXMXMXMXMXMXMXMXMXMXMXMXMXMXMXMXMXMXMXMXMXMXMXMXMXMXMXMXMXMXMXMXMX",
"MXMXMXMXMXMXMXMXMXMXMXMXMXMXMXMXMXMXMXMXMXMXMXMXMXMXMXMXMXMXMXMXMXMXMXMXMXMXMXMXMXMXMXMXMXMXMXMXMXMXMXMXMXMXMXMXMXMXMXMXMXMXMXMXMXMXMXMXMXMXMXMXMXMXMXMXMXMXMXMX",
"MXMXMXMXMXMXMXMXMXMXMXMXMXMXMXMXMXMXMXMXMXMXMXMXMXMXMXMXMXMXMXMXMXMXMXMXMXMXMXMXMXMXMXMXMXMXMXMXMXMXMXMXMXMXMXMXMXMXMXMXMXMXMXMXMXMXMXMXMXMXMXMXMXMXMXMXMXMXMXMX",
"MXMXMXMXMXMXMXMXMXMXMXMXMXMXMXMXMXMXMXMXMXMXMXMXMXMXMXMXMXMXMXMXMXMXMXMXMXMXMXMXMXMXMXMXMXMXMXMXMXMXMXMXMXMXMXMXMXMXMXMXMXMXMXMXMXMXMXMXMXMXMXMXMXMXMXMXMXMXMXMX",
"MXMXMXMXMXMXMXMXMXMXMXMXMXMXMXMXMXMXMXMXMXMXMXMXMXMXMXMXMXMXMXMXMXMXMXMXMXMXMXMXMXMXMXMXMXMXMXMXMXMXMXMXMXMXMXMXMXMXMXMXMXMXMXMXMXMXMXMXMXMXMXMXMXMXMXMXMXMXMXMX",
"MXMXMXMXMXMXMXMXMXMXMXMXMXMXMXMXMXMXMXMXMXMXMXMXMXMXMXMXMXMXMXMXMXMXMXMXMXMXMXMXMXMXMXMXMXMXMXMXMXMXMXMXMXMXMXMXMXMXMXMXMXMXMXMXMXMXMXMXMXMXMXMXMXMXMXMXMXMXMXMX",
"MXMXMXMXMXMXMXMXMXMXMXMXMXMXMXMXMXMXMXMXMXMXMXMXMXMXMXMXMXMXMXMXMXMXMXMXMXMXMXMXMXMXMXMXMXMXMXMXMXMXMXMXMXMXMXMXMXMXMXMXMXMXMXMXMXMXMXMXMXMXMXMXMXMXMXMXMXMXMXMX",
"MXMXMXMXT T W W W T T T ! ! ! ! NXT W W T ! ! ! ! ! ! ! NXT ( ! T T NXT W W ! T ! T T T T T T T bXMXMXMXMXMXMXMXMXMXMXMXMXMXMXMXMXMXMXMXMXMXMXMXMXMXMXMXMXMXMXMX",
"MXMXMXMX- 9 9 9 ` 0 9 9 h > , , ; : , > ` , > , , > ` , 0 0 0 8 ` ; ; 8 ` 8 8 7 1 7 7 7 7 7 7 & N nXMXMXMXMXMXMXMXMXMXMXMXMXMXMXMXMXMXMXMXMXMXMXMXMXMXMXMXMXMXMX",
"MXMXMXMXW 9 9 9 9 9 9 9 9 > : ` : ` : : ` , ` : : ` : , : : : ` ` ` : 8 ` 8 8 8 8 8 8 8 8 8 8 0 , ' g ~ MXMXMXMXMXMXMXMXMXMXMXMXMXMXMXMXMXMXMXMXMXMXMXMXMXMXMXMX",
"MXMXMXMX9 0 9 9 9 9 2 h 9 > ` : : : : : 8 : 8 : 8 8 8 8 8 , 8 0 8 0 8 8 8 8 8 8 8 8 8 8 r 8 8 ` ` : 8 9 t bXMXmXMXMXMXMXMXMXMXMXMXMXMXMXMXMXMXMXMXMXMXMXMXMXMXMX",
"MXMXMXMXa { 9 9 9 9 9 9 9 0 , 8 : : : : 8 8 8 8 8 8 8 8 8 8 8 8 8 8 8 8 8 8 8 8 r 8 r 8 8 8 8 8 ` : 8 8 7 6 g nXmXMXMXMXMXMXMXMXMXMXMXMXMXMXMXMXMXMXMXMXMXMXMXMX",
"MXMXMXMX( 9 9 9 9 9 9 9 9 , , 0 8 8 8 8 7 8 7 7 7 8 7 7 8 7 7 7 7 7 r 7 8 7 8 r ` 8 8 r 8 8 8 8 8 8 8 8 7 1 6 y _ mXMXmXMXMXMXMXMXMXMXMXMXMXMXMXMXMXMXMXMXMXMXMX",
"MXMXMXMX( 9 9 9 9 9 9 9 9 , : 8 8 7 7 7 7 7 7 7 7 7 r 7 7 7 7 7 7 7 7 7 7 7 7 r 7 8 8 8 8 r 8 r 8 7 8 7 8 8 7 1 A _ bXmXMXMXMXMXMXMXMXMXMXMXMXMXMXMXMXMXMXMXMXMX",
"MXMXMXMXQ 9 9 9 9 9 9 9 > : ` 8 8 8 7 7 7 7 8 7 7 7 7 8 7 7 7 7 7 7 7 7 7 q 7 8 8 8 7 8 r 8 8 8 8 r r 7 7 8 7 7 h F _ ~ vXmXMXMXMXMXMXMXMXMXMXMXMXMXMXMXMXMXMXMX",
"MXMXMXMXp e 9 9 9 9 9 9 > > : 0 8 8 7 7 7 7 7 7 7 7 7 7 7 7 7 7 7 7 7 q 7 7 7 7 r 7 8 7 7 8 7 8 8 7 7 7 q 7 7 1 1 K Y _ H _ nXmXMXMXMXMXMXMXMXMXMXMXMXMXMXMXMXMX",
"MXMXMXmXA 9 9 9 9 9 9 9 > > , 0 ; 7 7 7 q 7 7 7 7 1 1 q 7 7 7 7 r 7 7 7 7 7 7 r 7 q r 7 7 8 7 8 8 8 r 7 7 7 7 7 1 w i._.Y j H % mXMXMXMXMXMXMXMXMXMXMXMXMXMXMXMX",
"MXMXMXMXA 9 9 9 9 9 9 9 9 9 0 , : ; 7 7 1 7 1 7 1 7 7 7 7 7 7 7 1 1 q 7 7 7 q 7 7 7 7 7 7 7 7 7 7 7 7 7 1 1 7 q 1 1 F OXOXE.Y H D j nXMXMXMXMXMXMXMXMXMXMXMXMXMX",
"MXMXMXmXK 9 9 9 9 9 9 9 9 0 , > 8 8 7 1 7 1 7 1 q r r ` ` r r ` 8 7 * 1 1 ; 1 1 7 7 7 7 7 7 7 7 7 7 7 7 7 1 1 7 7 * 1 !.hX4X_.E.H D j nXNXMXMXMXMXMXMXMXMXMXMXMX",
"MXMXMXmXA 9 9 9 9 9 9 9 9 9 , , : ; 7 7 1 7 7 1 1 7 q o.#.q.f.~.V.w.<.[ ` ` : ; 7 7 1 7 7 1 1 7 7 7 * 7 7 ; 1 7 7 8 * w rXzXuXOX_.Y H j j % mXMXMXMXMXMXMXMXMXMX",
"MXMXMXmXh p 9 9 9 9 9 9 > > > : : ; 7 1 7 1 7 1 q x q.~.^.(.].<X,X<X2X=XA.x.k.} [ { 8 ; 1 1 7 1 1 7 7 7 1 7 7 * 1 7 7 * 7.jXzXxXiXOX_.Y H j % NXmXMXMXMXMXMXMXMX",
"MXMXMXMXQ 9 9 9 9 9 9 9 > > > : : 7 ; 7 7 1 1 w S 9.!.^.(..X<XeXwXwXrXeX3X+Xj.l.b.b.l.g.%.` 8 7 * 1 1 7 1 * 7 * 1 1 8 7 1 '.xXzXxXfXiXOX_.Y H j Y NXMXMXMXMXMXMX",
"MXMXMXMXA ' 9 9 9 9 9 9 0 > > : : 7 7 1 1 1 w V &.7.0./.]..X3XwXaXsXhXhXhXrX<Xw.%.l.b.Z.b.b.h.} [ ` 7 1 7 1 * 7 ; 1 1 8 7 5 {.yXxXxXzXfXiXOX_.J M t R MXMXMXMXMX",
"MXMXMXMXa p 9 9 9 9 9 9 0 > ; , : : 7 7 1 w m Z &.q.0.^.]. X3XwXaXhXkXlXlXkXaXeX0.$.*.M.b.b.b.b.b.k.%.` ; 7 1 1 1 7 1 7 8 8 p _.4XuXxXzXzXpXt.n 9 4 u g mXMXMXMX",
"MXMXMXMXa 9 9 9 9 9 9 9 > , > , : ; 7 7 q 5 n n Z 6.0.~./..X<XeXaXhXkXzXzXzXkXaX,Xq.o.%.k.v.Z.b.b.b.b.A.*.` ; * 1 1 1 1 1 8 7 A y._.iXyX<X7.2 1 7 * 2 f mXmXMXMX",
"MXMXMXmXa h 9 9 9 9 9 9 > , > , 8 7 7 1 w u w m Z 6.7.~.^.]..X3XrXaXkXzXzXzXzXhXrX/.z ' $.<.m.Z.J.b.l.l.A.A.g.[ 7 < 1 7 1 1 8 7 u I 9.Z z 4 7 - 7 1 * d NXMXMXMX",
"MXMXMXMXs 9 9 9 9 9 9 9 > > ; , : 8 7 5 w w w w V #.q.0.~.^.}.,X4XrXsXlXzXzXzXzXhX6Xq.1 z o.#.1.K.P.L.b.h.A.Z.A.k.` 7 1 7 1 1 7 7 7 q 2 7 7 7 7 7 * < f mXMXMXMX",
"MXMXMXMXQ 9 9 9 9 9 9 9 > > ; , : ; q w u w n n #.1.1.0.0.t./.].<XeXyXsXkXlXzXlXhXwX(.z 1 q x $.1.).P.P.J.x.M.Z.Z.A.%.: * 7 1 * < 1 1 1 1 7 7 1 1 * < f mXMXMXMX",
"MXMXMXMXa 0 9 9 9 9 9 9 > > ; : : ; 9 w w n n m w.*.*.V.w.0.~./..X,XwXyXsXjXkXkXhXrX,X@.1 1 1 r $.<.K.;XP.P.j.M.Z.Z.).n.8 * 7 1 * < < 1 1 1 7 1 1 < 6 ( mXMXMXMX",
"MXMXMXMXs h 9 9 9 9 9 9 > > > : 8 0 r w w n n m w.g.*.n.q.q.0.~./.]. XeXwXuXsXsXgXwXeX0.1 7 7 1 r o.3.=X;X;X*Xj.n.L.Z.&XV.` * 1 7 < & < & < < 1 < & 3 M mXMXMXMX",
"MXMXMXMX^ 0 p 9 9 9 9 9 > > > , : 0 q 5 z n n m 2.k.*.g.$.q.7.0.~.^.]. X3XwXrXyXrXwX3X~.4 7 q 1 1 q o.w.:X:X:X=X1.V.L.L.&XV.0 7 * < < < < < * < * < < M MXMXMXMX",
"MXMXMXMXQ 9 > 9 9 9 9 9 , > > > 8 > 9 u u x w u 2.k.*.h.j.-.&.7.0.~./.].,X<XeXwXeX3X,X~.q 1 7 1 7 1 x $.=X:X:X>XV.#.&X*XL.&Xn.; 1 * * < < < < < < < 1 B mXMXMXMX",
"MXMXMXMXa p 9 9 9 9 9 9 , > > > 0 0 w w z u u w 2.l.S.l.c.3.A =.q.0.~.^.].]..X3X,X,X,X~.w 1 7 1 1 1 q o.w.7X:X:X=X#.n.*XP.&X*X+.* * * & & < < < < < < ( mXMXMXMX",
"MXMXMXMXQ 9 9 9 9 9 9 9 > > ; : 8 9 9 w w u u w a.J.v.I.F.F.=.Z &.7.7.t.~./.].].,X.X(.t.w 1 q 1 1 1 7 q 1.:X:X:X:X-.$.&X*X&X&XV.- & & = & < < & < & < f MXMXMXMX",
"MXMXMXmX/ 0 9 9 9 9 9 9 > > > : 8 9 w w w u n m a.m.G.5.U.U.5.O.o.#.q.q.t.~.^./.]././.0.q 1 7 7 1 1 1 7 <.:X;X;X:X#.' ).&XP.&XK.i * & . & & < < < < 1 d mXMXMXMX",
"MXMXMXMX/ i 9 9 9 9 2 9 > > ; > ; 9 w z z u z @.N.5.5.h Y.T.I.c.z.N.B.p.;.8.0.!.~.~.~.q.4 1 1 1 1 4 7 7 2.;XP.U.=X' w V.*XL.L.K.] & & . & & < < < < < d mXMXMXMX",
"MXMXMXMXQ 9 9 9 9 9 9 9 9 > > > : ; w z w n n Z N.B.-.m D.0XT.T.U.>X#X>X$XH.d.t.8.8.t.Z 1 1 1 1 1 1 1 0 #XL.I.*XV.7 r V.*XI.J.P.] * & . & < < < < < s d mXMXMXMX",
"MXMXMXMXa 9 9 9 9 9 9 > > > > > 8 7 9 w w n N p.#Xf.A B ;.9X0X9X>Xs.N ;.D.H.$X%X@X#X%XO.1 4 1 1 1 4 ; 2.P.I.J.K.' * ' I.I.I.L.C.p & & & & < < < < < 4 5 mXMXMXMX",
"MXMXMXMXa 0 9 9 9 9 9 9 - ; > > ; 9 2 5 w w =.8.=.Z n Z N 7.t.8.K M V M n A Z :.8.p.;.9 1 1 1 1 1 7 j.K.F.I.I.:.1 1 1.I.F.F.K.2.* < & . < < < < < < < f mXMXMXMX",
"MXMXMXMXa p 9 9 9 9 9 9 > ; ; > 8 7 1 5 5 w w u n n B V V B m V V M B B B B n n n n 5 1 4 3 < ; ' m.C.v.v.M.o.1 1 ] C.F.F.C.C.p * 2 & = < < < < < < < f MXMXMXMX",
"MXMXMXMXs 9 9 9 9 9 9 9 2 ; ; > ; 7 1 4 w 5 5 u n n B B B C B B B B B n n n n c n 5 < 1 1 8 ] j.M.C.C.m.1.i 3 1 ' c.c.l.c.M.$.1 3 & = . . < < < < < < f mXMXMXMX",
"MXMXMXMX( 9 9 9 9 9 9 9 9 - ; > > 7 1 1 5 c c n n n n n B n n B n c n n z c 5 5 w 9 i $.>.j.M.M.z.j.+.o.q 3 r >.c.h.c.c.z.' 1 4 1 < = . . < < < < < < f mXMXMXMX",
"MXMXMXMX( 0 9 9 9 9 9 9 9 > - > 9 1 1 1 3 4 n n n C Z Z Z Z Z Z @.Z @.=.@.:.-.-.3.1.2.j.2.1.<.#.o.w 4 1 9 [ 2.z.S.h.k.>.e 1 3 1 < < . . . < < < < < < f mXMXMXMX",
"MXMXMXMXs 0 9 9 9 9 9 9 9 2 - > 9 1 4 3 1 3 4 5 c c n n B Z Z @.@.=.=.=.=.=.=.O.o.m i n n w q q q q ' +.,.k.k.,.3.>.o.4 3 3 3 < 3 < o   . = & < < < < = mXMXMXMX",
"MXMXMXMX^ p 9 9 9 9 9 9 9 ; ; 9 7 1 1 3 4 4 l l 5 c c c u y 5 c c c c 5 5 5 4 4 4 q q w w i o.] >.1.k.,.1.>.#.$.m 4 3 3 3 3 3 3 < < o . . . < < & < < f mXMXMXMX",
"MXMXMXMXQ 9 9 9 9 9 9 9 9 - 2 ; - 4 4 3 3 3 4 5 4 l n n n B Z V N V m Z m o.o.o.#.+.+.-.+.%.+.#.+.+.O.N m n l 3 3 3 3 3 3 3 3 3 3 o o o   & < < < < < = mXMXMXMX",
"MXMXMXMX/ i 9 9 9 9 9 9 9 9 2 > 2 n B C C C C C C n k 3 3 5 k 5 5 l B 6.P 6.6.6.=.6.q.=.C z c c C S S S S B k k 3 3 o 3 l B B c 5 O o   . < < < < < < = MXMXMXMX",
"MXMXMXMX( 0 9 9 9 2 9 9 9 9 2 9 i =.9.R.R.R.R.r.R.9.S k k k k k b C U R.R.R.R.R.R.R.W.R.U C k S U 9.R.R.R.R.U C k k k B P 9.R.9.C 6 o   < < < & < < < = MXMXMXMX",
"MXMXMXMXa 9 9 9 9 9 9 9 9 9 2 p =.t.].|.|.|.|.|.|.Q.R.L L L L L P R.Q.}.|.|.|.|.|.|.|.}.Q.U S U Q.}.|.|.}.|.Q.R.S S P 9.W.}.|.}.r.M O   < < < < < < < = MXMXMXMX",
"MXMXMXMX( p 9 9 9 9 9 9 9 9 h p 8.].4XhXgXhXfXuXyXoXQ.Q.Q.W.Q.Q.Q.}.oXiXyXyXhXgXgXgXhXqX}.Q.Q._.XXqXgXhXhXqXoXQ.Q.Q.Q.}.|.qXgXoXW.L t   = < < < & & & = mXMXMXMX",
"MXMXMXMXQ 9 9 9 9 9 9 9 9 2 2 N e.[.aX5X1X4X1X1XsXqXXXoXoXoX3XoXoXoXhXuXuXhX6X5XfX1XtXuXoXoXoX|.iXfX1X{.[.uXyXoXoXqXOXoXgXhXuXtX_.7.v O X < < < < < < = mXMXMXMX",
"MXMXMXMXd 9 9 9 9 2 9 9 9 h 9 N 8.[.aX;.h N K K tXkXhXfXgXgXjXjXhXgXiX:.1XjXu i.pXp d.xXsXjXyX3XhX`.p ;.p i.fXfXgXgXhXfXhXe.s.hXXXu.G @ O & < & & < < = mXMXMXMX",
"MXMXMXMX( p 9 9 h 9 9 9 9 9 h N 8. XpXp. .@X1X5XsX`.d.s.wX5Xs.s.2XfXe.{ ;.4X:.8.dX .D.1Xs.iXxXgXhX;. .`.p.[.jX6X^.s.`.sX[.{  .[.qXu.G @ f < < < < < < = mXMXMXMX",
"MXMXMXMXQ 0 9 9 9 9 9 9 9 h p i 8.[.dXf. .X.3.d.sX3.] d.-X:.5.a.:.6XD.| 5.5X3.d.dX| >.| d.jX5X5XsX8X3. .| +XjX`.-.a.] `.1X| :.-X4XE.G @ O < < < < < & * mXMXMXMX",
"MXMXMXMXa 0 9 9 9 9 9 9 9 w h N e. XyXN.,.2XpXpXjX4.a.lX-X..tXpX..-X5X..5XkX3.G.dX2.X...#XkXd...-X7X%X5X4...8X-Xp.+XX.G.sX,.G.jXXXy.J @ O < & < < < < = mXMXMXMX",
"MXMXMXMX( 9 9 9 9 9 9 9 h 9 h i 8.[.dXN.X.N.N.G.8Xm.4.fXpX,.G.G.,.pX5XX.G.8Xz.H.dXk.G.G.,.9XsXtXsXd.,.#Xx.m.8X,.m.#XX.+XdXz.z.6X4XE.J @ O < < < < & < = mXMXMXMX",
"MXMXMXMXf h 9 2 9 9 9 9 9 9 9 N e. XtX-XG.G.G.G.8X%X@XtXtX6XG.G.2XdX8X@XG.6XG.-XpXG.2XpXG.1XaX4XiX5XG.N.B.6XdX-XG.#X+X-XdX-XD.-X4XE.J @ d < < < < & < = mXMXMXMX",
"MXMXMXmX( 9 9 9 9 9 9 9 9 h 9 i ;.{.XXoX3X6X1X4XXX1X1XXX}.1X1XoX4X].[.4X1XoX4X1XXX3X1XXX3X3XXX'.'.XXoX1X4XOX|.4X1X3X3X4XXXoX1X3X|.y.J @ O & < < < < < = mXMXMXMX",
"MXMXMXMX2 0 9 9 9 9 9 9 9 w 2 u K I y.y.y.y.y.y.Y E.y.r.9.y.y.y.y.r.r.y.y.y.y.y.u.u.y.u.u.y.E.I I r.y.u.y.r.r.y.y.y.y.y.u.y.y.y.r.I H X O < < < < < & = MXMXMXMX",
"MXMXMXmX( i 9 9 9 9 9 9 9 2 2 f t b F F F F F F G J F F y F G G F F v F F F F F J F F F H G v b b F G G G F v F F G J G F F F F v b ~   X = < < < < < = MXMXMXMX",
"MXMXMXMXs p 9 9 p 0 9 0 6 X .   O @ @ @ @ @ @ @ @ @ @ @ @ @ @ @ t @ @ @ @ t # t # t t @ @ k t O O @ # @ t # @ @ @ @ @ @ @ @ @ @ @ @ X   X < < < & & < = MXMXMXMX",
"MXMXMXMXT a ( ! ( ! ( ( (   T T R R T T R R R R R R T R R R R R R R T R T R T R R R R R R R R R T R R R R R R T R R R R R R R R T R     T $ = T = T = T MXMXMXMX",
"MXMXMXMXMXMXMXMXMXMXMXMXMXMXMXMXMXMXMXMXMXMXMXMXMXMXMXMXMXMXMXMXMXMXMXMXMXMXMXMXMXMXMXMXMXMXMXMXMXMXMXMXMXMXMXMXMXMXMXMXMXMXMXMXMXMXMXMXMXMXMXMXMXMXMXMXMXMXMXMX",
"MXMXMXMXMXMXMXMXMXMXMXMXMXMXMXMXMXMXMXMXMXMXMXMXMXMXMXMXMXMXMXMXMXMXMXMXMXMXMXMXMXMXMXMXMXMXMXMXMXMXMXMXMXMXMXMXMXMXMXMXMXMXMXMXMXMXMXMXMXMXMXMXMXMXMXMXMXMXMXMX",
"MXMXMXMXMXMXMXMXMXMXMXMXMXMXMXMXMXMXMXMXMXMXMXMXMXMXMXMXMXMXMXMXMXMXMXMXMXMXMXMXMXMXMXMXMXMXMXMXMXMXMXMXMXMXMXMXMXMXMXMXMXMXMXMXMXMXMXMXMXMXMXMXMXMXMXMXMXMXMXMX",
"MXMXMXMXMXMXMXMXMXMXMXMXMXMXMXMXMXMXMXMXMXMXMXMXMXMXMXMXMXMXMXMXMXMXMXMXMXMXMXMXMXMXMXMXMXMXMXMXMXMXMXMXMXMXMXMXMXMXMXMXMXMXMXMXMXMXMXMXMXMXMXMXMXMXMXMXMXMXMXMX",
"MXMXMXMXMXMXMXMXMXMXMXMXMXMXMXMXMXMXMXMXMXMXMXMXMXMXMXMXMXMXMXMXMXMXMXMXMXMXMXMXMXMXMXMXMXMXMXMXMXMXMXMXMXMXMXMXMXMXMXMXMXMXMXMXMXMXMXMXMXMXMXMXMXMXMXMXMXMXMXMX",
"MXMXMXMXMXMXMXMXMXMXMXMXMXMXMXMXMXMXMXMXMXMXMXMXMXMXMXMXMXMXMXMXMXMXMXMXMXMXMXMXMXMXMXMXMXMXMXMXMXMXMXMXMXMXMXMXMXMXMXMXMXMXMXMXMXMXMXMXMXMXMXMXMXMXMXMXMXMXMXMX",
"MXMXMXMXMXMXMXMXMXMXMXMXMXMXMXMXMXMXMXMXMXMXMXMXMXMXMXMXMXMXMXMXMXMXMXMXMXMXMXMXMXMXMXMXMXMXMXMXMXMXMXMXMXMXMXMXMXMXMXMXMXMXMXMXMXMXMXMXMXMXMXMXMXMXMXMXMXMXMXMX",
"MXMXMXMXMXMXMXMXMXMXMXMXMXMXMXMXMXMXMXMXMXMXMXMXMXMXMXMXMXMXMXMXMXMXMXMXMXMXMXMXMXMXMXMXMXMXMXMXMXMXMXMXMXMXMXMXMXMXMXMXMXMXMXMXMXMXMXMXMXMXMXMXMXMXMXMXMXMXMXMX",
"MXMXMXMXMXMXMXMXMXMXMXMXMXMXMXMXMXMXMXMXMXMXMXMXMXMXMXMXMXMXMXMXMXMXMXMXMXMXMXMXMXMXMXMXMXMXMXMXMXMXMXMXMXMXMXMXMXMXMXMXMXMXMXMXMXMXMXMXMXMXMXMXMXMXMXMXMXMXMXMX",
"MXMXMXMXMXMXMXMXMXMXMXMXMXMXMXMXMXMXMXMXMXMXMXMXMXMXMXMXMXMXMXMXMXMXMXMXMXMXMXMXMXMXMXMXMXMXMXMXMXMXMXMXMXMXMXMXMXMXMXMXMXMXMXMXMXMXMXMXMXMXMXMXMXMXMXMXMXMXMXMX",
"MXMXMXMXMXMXMXMXMXMXMXMXMXMXMXMXMXMXMXMXMXMXMXMXMXMXMXMXMXMXMXMXMXMXMXMXMXMXMXMXMXMXMXMXMXMXMXMXMXMXMXMXMXMXMXMXMXMXMXMXMXMXMXMXMXMXMXMXMXMXMXMXMXMXMXMXMXMXMXMX",
"MXMXMXMXMXMXMXMXMXMXMXMXMXMXMXMXMXMXMXMXMXMXMXMXMXMXMXMXMXMXMXMXMXMXMXMXMXMXMXMXMXMXMXMXMXMXMXMXMXMXMXMXMXMXMXMXMXMXMXMXMXMXMXMXMXMXMXMXMXMXMXMXMXMXMXMXMXMXMXMX"
};
