/* XPM */
static char *xpm_[] = {
/* columns rows colors chars-per-pixel */
"80 80 237 2 ",
"   c #101117",
".  c #1E361B",
"X  c #253918",
"o  c #3D3617",
"O  c #2A2A2B",
"+  c #363636",
"@  c #454545",
"#  c #34312F",
"$  c #25381E",
"%  c #3D3E21",
"&  c #3E403D",
"*  c #253F28",
"=  c #433514",
"-  c #574A25",
";  c #28491A",
":  c #2B521D",
">  c #3B5A20",
",  c #365822",
"<  c #345325",
"1  c #386A27",
"2  c #387330",
"3  c #435F24",
"4  c #445E2B",
"5  c #46612B",
"6  c #435F29",
"7  c #476B35",
"8  c #2D5A2A",
"9  c #4D4508",
"0  c #594F0F",
"q  c #675C13",
"w  c #644F15",
"e  c #796C04",
"r  c #6F690D",
"t  c #44433E",
"y  c #456129",
"u  c #4E5631",
"i  c #4B6B29",
"p  c #497729",
"a  c #4A7934",
"s  c #787F3B",
"d  c #3C3A43",
"f  c #433E4A",
"g  c #3F4141",
"h  c #464646",
"j  c #4F514A",
"k  c #565656",
"l  c #53514D",
"z  c #556745",
"x  c #5F7447",
"c  c #637C46",
"v  c #797A5B",
"b  c #676767",
"n  c #787878",
"m  c #888888",
"M  c #616161",
"N  c #858584",
"B  c #28382C",
"V  c #253B27",
"C  c #3A3A2A",
"Z  c #444640",
"A  c #2B372D",
"S  c #314634",
"D  c #473E2F",
"F  c #3F4738",
"G  c #5A5529",
"H  c #464B44",
"J  c #324432",
"K  c #476C38",
"L  c #77926E",
"P  c #5A7D50",
"I  c #4F722B",
"U  c #6C8A62",
"Y  c #869464",
"T  c #899531",
"R  c #686771",
"E  c #79986F",
"W  c #9EA89D",
"Q  c #79986E",
"!  c #A6A6A6",
"~  c #87878A",
"^  c #B3B3B3",
"/  c #989877",
"(  c #877706",
")  c #917713",
"_  c #99862F",
"`  c #C3B593",
"'  c #4C842D",
"]  c #578B36",
"[  c #569634",
"{  c #4C8934",
"}  c #669738",
"|  c #5DA138",
" . c #65AC3C",
".. c #69B63F",
"X. c #72BC3F",
"o. c #73AD3D",
"O. c #77A745",
"+. c #5C8F49",
"@. c #79A667",
"#. c #6E9952",
"$. c #76A843",
"%. c #69BD45",
"&. c #73BD44",
"*. c #70AD55",
"=. c #7BA969",
"-. c #74A16B",
";. c #7FB863",
":. c #7BAA6A",
">. c #99C881",
",. c #73B84A",
"<. c #6DC448",
"1. c #77C748",
"2. c #7CC758",
"3. c #7EC264",
"4. c #A2CF6E",
"5. c #BCE2A7",
"6. c #C6E5B0",
"7. c #978603",
"8. c #B6A403",
"9. c #B0A614",
"0. c #B29E2B",
"q. c #D6D12D",
"w. c #AC9D00",
"e. c #C8B702",
"r. c #D6BB04",
"t. c #CBAD14",
"y. c #CCB62A",
"u. c #E7B717",
"i. c #DCC702",
"p. c #D4D01A",
"a. c #ECD501",
"s. c #FADF04",
"d. c #EBD00F",
"f. c #FEE802",
"g. c #FFF407",
"h. c #FCEB17",
"j. c #D8D230",
"k. c #FAE927",
"l. c #FDEA38",
"z. c #FFF031",
"x. c #F2DF2D",
"c. c #80B765",
"v. c #92C074",
"b. c #AED691",
"n. c #E0E098",
"m. c #A4AC64",
"M. c #CBAE59",
"N. c #83C75A",
"B. c #81C846",
"V. c #87C869",
"C. c #94CC6B",
"Z. c #97CC76",
"A. c #97D17A",
"S. c #90C971",
"D. c #B1D96B",
"F. c #FAE94B",
"G. c #F9F354",
"H. c #F9EE6F",
"J. c #F8EC69",
"K. c #FFFF51",
"L. c #DCE8AD",
"P. c #F6ED7F",
"I. c #898989",
"U. c #999999",
"Y. c #9B9B9B",
"T. c #A19FA0",
"R. c #A5A5A5",
"E. c #B9B9B9",
"W. c #C4C4C3",
"Q. c #B2B2B2",
"!. c #AED3A5",
"~. c #BEE0A6",
"^. c #C8C8C8",
"/. c #A2CE94",
"(. c #97CB87",
"). c #A6D78C",
"_. c #ACD993",
"`. c #B1DB9B",
"'. c #B3DC99",
"]. c #B7D6A1",
"[. c #EEDF97",
"{. c #DCD6AA",
"}. c #CCCCCC",
"|. c #D7D7D7",
" X c #D1D0D0",
".X c #FCFCD3",
"XX c #E7E7E7",
"oX c #FDFDFD",
"OX c #FBFBFB",
"+X c #F9F9F9",
"@X c #DCDCE7",
"#X c #F4F4F4",
"$X c #DDDDDD",
"%X c #2D392E",
"&X c #444444",
"*X c #38523D",
"=X c #515840",
"-X c #687264",
";X c #474F49",
":X c #4E5347",
">X c #33403F",
",X c #576742",
"<X c #566B43",
"1X c #667445",
"2X c #9D9A9C",
"3X c #D1E1C7",
"4X c #8C8E7F",
"5X c #46513F",
"6X c #77916E",
"7X c #9DB99C",
"8X c #CDE9B6",
"9X c #B6D795",
"0X c #A7B375",
"qX c #D6E8A4",
"wX c #B2B3C6",
"eX c #B3BAAE",
"rX c #AAD59E",
"tX c #CCCCBB",
"yX c #FFFFFF",
"uX c #C4E5C2",
"iX c #FBEF9E",
"pX c #647465",
"aX c #57556B",
"sX c #9E9C9D",
"dX c #414751",
"fX c #C7D37E",
"gX c #858D8D",
"hX c #B6BBB0",
"jX c #D2E9BB",
"kX c #D3DECC",
"lX c #E2ECCF",
"zX c #7C7685",
"xX c #7D709D",
"cX c #CCCFC4",
"vX c None",
"bX c #CDB6E2",
"nX c #C4C2BE",
/* pixels */
"vXvXvXvXvXvXvXvXvXvXvXvXvXvXvXvXvXvXvXvXvXvXvXvXvXvXvXvXvXvXvXvXvXvXvXvXvXvXvXvXvXvXvXvXvXvXvXvXvXvXvXvXvXvXvXvXvXvXvXvXvXvXvXvXvXvXvXvXvXvXvXvXvXvXvXvXvXvXvXvX",
"vXvXvXvXvXvXvXvXvXvXvXvXvXvXvXvXvXvXvXvXvXvXvXvXvXvXvXvXvXvXvXvXvXvXvXvXvXvXvXvXvXvXvXvXvXvXvXvXvXvXvXvXvXvXvXvXvXvXvXvXvXvXvXvXvXvXvXvXvXvXvXvXvXvXvXvXvXvXvXvX",
"vXvXvXvXvXvXvXvXvXvXvXvXvXvXvXvXvXvXvXvXvXvXvXvXvXvXvXvXvXvXvXvXvXvXvXvXvXvXvXvXvXvXvXvXvXvXvXvXvXvXvXvXvXvXvXvXvXvXvXvXvXvXvXvXvXvXvXvXvXvXvXvXvXvXvXvXvXvXvXvX",
"vXvXvXvXvXvXvXvXvXvXvXvXvXvXvXvXvXvXvXvXvXvXvXvXvXvXvXvXvXvXvXvXvXvXvXvXvXvXvXvXvXvXvXvXvXvXvXvXvXvXvXvXvXvXvXvXvXvXvXvXvXvXvXvXvXvXvXvXvXvXvXvXvXvXvXvXvXvXvXvX",
"vXvXvXvXvXvXvXvXvXvXvXvXvXvXvXvXvXvXvXvXvXvXvXvXvXvXvXvXvXvXvXvXvXvXvXvXvXvXvXvXvXvXvXvXvXvXvXvXvXvXvXvXvXvXvXvXvXvXvXvXvXvXvX&X~ #XtXvXvXvXvXvXvXvXvXvXvXvXvXvX",
"vXvXvXvXvXvXvXvXvXvXvXvXvXvXvXvXvXvXvXvXvXvXvXvXvXvXvXvXvXvXvXvXvXvXvXvXvXvXvXvXvXvXvXvXvXvXvXvXvXvXvXvXvXvXvXvXvXvXvX>X-XI.Y.E.b  XXXE.Y.gXvXvXvXvXvXvXvXvXvXvX",
"vXvXvXvXvXvXvXvXvXvXvXvXvXvXvXvXvXvXvXvXvXvXvXvXvXvXvXvXvXvXvXvXvXvXvXvXvXvXvXvXvXvXvXvXvXvXvXvXvXvXvXvXvXvXvXhX~ Q.I.Y.n b b j h }.XXXXXXXX XI.&XvXvXvXvXvXvXvX",
"vXvXvXvXvXvXvXvXvXvXvXvXvXvXvXvXvXvXvXvXvXvXvXvXvXvXvXvXvXvXvXvXvXvXvXvXvXvXvXvXvXvXvXvXvXvXvXvXvXvXvXvX~ ~ R.R.m n M h d h l l M  XXXXXOXXXoXXXXX}.k vXvXvXvXvX",
"vXvXvXvXvXvXvXvXvXvXvXvXvXvXvXvXvXvXvXvXvXvXvXvXvXvXvXvXvXvXvXvXvXvXvXvXvXvXvXvXvXvXvXvXvXvXvXvXvXvXvX2Xn b k h h h h h h h h h t }.XXXXXXXXXXOXOXXX}.b vXvXvXvX",
"vXvXvXvXvXvXvXvXvXvXvXvXvXvXvXvXvXvXvXvXvXvXvXvXvXvXvXvXvXvXvXvXvXvXvXvXvXvXvXvXvXvXvXvXvXvXvXvXvXvXvXvX# h d h h h h h h h h h h  XoXOXXXXXoXXXoX|.n A vXvXvXvX",
"vXvXvXvXvXvXvXvXvXvXvXvXvXvXvXvXvXvXvXvXvXvXvXvXvXvXvXvXvXvXvXvXvXvXvXvXvXvXvXvXvXvXvXvXvXvXvXvXvXvXvXvX:Xk h h h h h h h h h h h  XXXXXXXXXXXXXXX Xk dXvXvXvXvX",
"vXvXvXvXvXvXvXvXvXvXvXvXvXvXvXvXvXvXvXvXvXvXvXvXvXvXvXvXvXvXvXvXvXvXvXvXvXvXvXvXvXvXvXvXvXvXvXvXvXvXvXvXdXM M h h h h h h h h h h |.oXXXXXXXXXXXOXR.+ vXvXvXvXvX",
"vXvXvXvXvXvXvXvXvXvXvXvXvXvXvXvXvXvXvXvXvXvXvXvXvXvXvXvXvXvXvXvXvXvXvXvXvXvXvXvXvXvXvXvXvXvXvXvXvXvXvXvXvXh k h h h h h h h h h l +XXXXXXXOXOXXXOXN F vXvXvXvXvX",
"vXvXvXvXvXvXvXvXvXvXvXvXvXvXvXvXvXvXvXvXvXvXvXvXvXvXvXvXvXvXvXvXvXvXvXvXvXvXvXvXvXvXvXvXvXvXvXvXvXvXvXvXvX>Xl h h h h h h h h h k +XXXXXOXOXOXXXE.M >XvXvXvXvXvX",
"vXvXvXvXvXvXvXvXvXvXvXvXvXvXvXvXvXvXvXvXvXvXvXvXvXvXvXvXvXvXvXvXvXvXvXvXvXvXvXvXvXvXvXvXvXvXvXvXvXvXvXvXvXvXh M h h l h h h h h k OXOXOXOXOXOXOXQ.f vXvXvXvXvXvX",
"vXvXvXvXvXvXvXvXvXvXvXvXvXvXvXvXvXvXvXvXvXvXvXvXvXvXvXvXvXvXvXvXvXvXvXvXvXvXvXvXvXvXvXvXvXvXvXvXvXvXvXvXdXvXF h h l h h h h h h k OXOX@XOXOXOX|.^ A vXvXvXvXvXvX",
"vXvXvXvXvXvXvXvXvXvXvXvXvXvXvXvXvXvXvXvXvXvXvXvXvXvXvXvXvXvXvXvXvXvXvXvXvXvXvXvXvXvXvXvXvXvXvXvXvXvXvXvXvXvX>Xk M h M h h h h h b XXOX|.XXOXXXE.h dXvXvXvXvXvXvX",
"vXvXvXvXvXvXvXvXvXvXvXvXvXvXvXvXvXvXvXvXvXvXvXvXvXvXvXvXvXvXvXvXvXvXvXvXvXvXvXvXvXvXvXvXvXvXvXvXvXvXvXvXvXvXvX^ M h h h h M l d b XXOXOXOXOXXXI.A vXvXvXvXvXvXvX",
"vXvXvXvXvXvXvXvXvXvXvXvXvXvXvXvXvXvXvXvXvXvXvXvXvXvXvXvXvXvXvXvXvXvXvXvXvXvXvXvXvXvXvXvXvXvXvXvXvXvXvXvXvXvXvXF h h h h h l l d b XXOX|.|.XX X! zXvXvXvXvXvXvXvX",
"vXvXvXvXvXvXvXvXvXvXvXvXvXvXvXvXvXvXvXvXvXvXvXvXvXvXvXvXvXvXvXvXvXvXvXvXvXvXvXvXvXvXvXvXvXvXvXvXvXvXvXvXvXvXvX2XM l M h l h h d n XXOXOX|.XXR.+ dXvXvXvXvXvXvXvX",
"vXvXvXvXvXvXvXvXvXvXvXvXvXvXvXvXvXvXvXvXvXvXvXvXvXvXvXvXvXvXvXvXvXvXvXvXvXvXvXvXvXvXvXvXvXvXvXvXvXvXvXvXvXvXvXvXh M d d @ + + O b oXoXoXoXoXQ.O vXvXvXvXvXvXvXvX",
"vXvXvXvXvXvXvXvXvXvXvXvXvXvXvXvXvXvXvXvXvXvXvXvXvXvXvXvXvXvXvXvXvXvXvXvXvXvXvXvXvXvXvXvXvXvXvXvXvXvXvXvXvXvXvXvX~ j O & & & + O k oXoXoXoXoX+XtXvXvXvXvXvXvXvXvX",
"vXvXvXvXvXvXvXvXvXvXvXvXvXvXvXvXvXvXvXvXvXvXvXvXvXvXvXvXvXvXvXvXvXvXvXvXvXvXvXvXvXvXvXvXvXvXvXvXvXvXvXvXvXvXvXzXU.h # + + + + & j oXoXoXoXoXoXQ.vXvXvXvXvXvXvXvX",
"vXvXvXvXvXvXvXvXvXvXvXvXvXvXvXvXvXvXvXvXvXvXvXvXvXvXvXvXvXvXvXvXvXvXvXvXvXvXvXvXvXvXvXvXvXvXvXvXvXvXvXvXvXvXvX~ N + & + + + + O j XXoXoXoXoXoX|.hXvXvXvXvXvXvXvX",
"vXvXvXvXvXvXvXvXvXvXvXvXvXvXvXvXvXvXvXvXvXvXvXvXvXvXvXvXvXvXvXvXvXvXvXvXvXvXvXvXvXvXvXvXvXvXvXvXvXvXvXvXvXvXvXb k # + + + + + O h XXoXoXoXoXoXXX~ vXvXvXvXvXvXvX",
"vXvXvXvXvXvXvXvXvXvXvXvXvXvXvXvXvXvXvXvXvXvXvXvXvXvXvXvXvXvXvXvXvXvXvXvXvXvXvXvXvXvXvXvXvXvXvXvXvXvXvXvXvXvXhXI.+ & + + + # + + @ XXoXoXoXoXoXoX}.vXvXvXvXvXvXvX",
"vXvXvXvXvXvXvXvXvXvXvXvXvXvXvXvXvXvXvXvXvXvXvXvXvXvXvXvXvXvXvXvXvXvXvXvXvXvXvXvXvXvXvXvXvXvXvXvXvXvXvXvXvXvXR n & & + & + + + + + OXoXoXoXoXoXoX|.tXvXvXvXvXvXvX",
"vXvXvXvXvXvXvXvXvXvXvXvXvXvXvXvXvXvXvXvXvXvXvXvXvXvXvXvXvXvXvXvXvXvXvXvXvXvXvXvXvXvXvXvXvXvXvXvXvXvXvXvXvXvXN g # & & + # # + + + |.oXoXoXoXoXoX}.I.vXvXvXvXvXvX",
"vXvXvXvXvXvXvXvXvXvXvXvXvXvXvXvXvXvXvXvXvXvXvXvXvXvXvXvXvXvXvXvXvXvXvXvXvXvXvXvXvXvXvXvXvXvXvXvXvXvXvXvXvXtXm d + # + # + # + + O }.oXoXXXXXXXXX X}.vXvXvXvXvXvX",
"vXvXvXvXvXvXvXvXvXvXvXvXvXvXvXvXvXvXvXvXvXvXvXvXvXvXvXvXvXvXvXvXvXvXvXvXvXvXvXvXvXvXvXvXvXvXvXvXvXvXvXvXvXk ^ + & + + + + + + + O }.oXoXXXXXXXXX}. XM vXvXvXvXvX",
"vXvXvXvXvXvXvXvXvXvXvXvXvXvXvXvXvXvXvXvXvXvXvXvXvXvXvXvXvXvXvXvXvXvXvXvXvXvXvXvXvXvXvXvXvXvXvXvXvXvXvXvXvXY.g # + O & + & + + + # }.XXXXXXXXXXXXXXXXY.vXvXvXvXvX",
"vXvXvXvXvXvXvXvXvXvXvXvXvXvXvXvXvXvXvXvXvXvXvXvXvXvXvXvXvXvXvXvXvXvXvXvXvXvXvXvXvXvXvXvXvXvXvXvXvXvXvXvX~ b + + O d & + + + O d + }.XXXXXXXXXXXXXXXXXXzXvXvXvXvX",
"vXvXvXvXvXvX>XzXzXhXhX9X>XvXzXaXdX9X9X9XaXqX9XvXpXcX<XvXvXvXdX2XtX9XvXvXvXvXvXvXvXvXvXvXvXvXzXqXvXvXvXvXb k # + + # + + + + + + O ^.oXoXoXoXoXoXoXoXXX~ vXvXvXvX",
"vXvXvXvXkX].].).`.).).C.m.vXQ `.`.).).).].S.] vX_.`._.m.vXzX].`.V.' vXvXvXvXvXvXvXvXtXm./.].'.).`.!.' fXn + + # + + + + + + + + O R.oXoXoXoXoXoXoXoXXX}.vXvXvXvX",
"vXvXvXvX4.).<.<.2.1.1.,.y vXP V.2.1.<...N.<.i dXc.V.<.N.m.>Xv.2.[ 6 vXvXvXvXvXvXvXI._.Z.A.2.1.B.B.N./.'.#.# # # # # + # + + + + O W.oXoXoXoXoXoXoXoXXX@XtXvXvXvX",
"vXvXvXvX* (.<.<.%... .[ 7 vXP ;.<.<.<.<.<.[ 7 vX@.N.<.2.A._.;.<.[ 6 vXvXvXvXvXtX(.Z.1.<.1.<.%...B.B.B.B.B.B.l @ h f h h h h l l @ U.|. X|.|.|.|.+XXX+X}.b vXvXvX",
"vXvXvXvXP ).2.<.2 8 8 ; 6 vXA 2 2 <.<...2 * . vX#.N.%.*.%.1.%.1.,.i vXvXvXvX*X].N.....p , < ; 1 1 ] ,.<.<.B.B.l h h h h h l h l @ U.|. X X}.}.}.|. X Xm O vXvXvX",
"vXvXvXvXpXV.<.<.[ zXvXvXdXvXvXdXP <.<. .u xXvXvX+.N.%.| 8 ,.%.&. .+.vXvXvXtX`.C.X.] ; $ A >XvX>X>X; ' %.B.<.X.B.h h M h l h h h @ T.|. X X X X X X X}.k zXvXvXvX",
"vXvXvX*XI.B.<.<.N.+.4.^ 4.vXvXvXP ;.<.| a vXvXvX+.B.%.' P 8 <.<.[ 6 vXvXvX!.A.<.{ X A vXvXvXvXvXvXvXP 7 <.<.<.B.c f M h h h M h @ T.|. X X X X X X XR.h dXvXvXvX",
"vXvXvX4.V.<.<.<.1.2.(.A.o.vXvXvXZ 2.<.| +.vXvXvXL.N.| ' >XvX*.1.[ 6 vXvX9X(.<.| 6 >XvXvXvXvXvXvXvXvXvX  a <.1.1.B.M h h M h h M f R.|.}. X X}. X X Xm F vXvXvXvX",
"vXvXvX-X(.<.<.<.<.%.%.| : vXvXvXP A.%. ., vXvXvX@.2.<.p <XdX3.<.[ % vXvX!.N...: >XvXvXvXvXvXvXvXvXvXvXvXV [ 1.<.1.c f l l h h M @ R.|.}. X X X}. X}.N >XvXvXvXvX",
"vXvXvX' 2.<.%.%. .p 2 , : vXvXvXK V.%.| , vXvXvX@.2...p >XzX3.1.[ ; vX5X(.<.' X vXvXvXvXvXvXvXvXvXvXvXvXdX2 1.<.&.$.f l h l M h f ^.|.}. X}. X}. XR.l vXvXvXvXvX",
"vXvXvXB 8 %.<.%.2 $ A $ B vXvXvXP A.<. .a vXvXhX@.2...p >X>XD.1.+.% vXI.C.%.i A vXvXvXvXvXvXvXvXvXvXvXvXvX8 | 1.&.X.j h h M h M h E.|.}.}. X}.}. Xn h vXvXvXvXvX",
"vXvXvXvX%X*.%.%.s zXvXvXvXvXvXvXP A.<...a vXvXdX@.2...p %XzXV.2.[ ' vX+.N..., >XvXvXvXvXvXvXvXvXvXvXvXvXvX>X+.1.&.B.z l M h l h h E. X}. X}.}. XE.k >XvXvXvXvXvX",
"vXvXvXvX* /.<.%.i >XvXvXvXvXvXvXY 3.<.| u dXvXvX@.2.<.p >XzX3.1.[ ; zX`.C.%.y vXvXvXvXvXvXvXvXvXvXvXvXvXvX>X@.1.&.1.x f h h M h h E.|.}.}.}.}. XR.h vXvXvXvXvXvX",
"vXvXvXvX%X(.<.%.] zXvXvXvXvXvXvX-X2.%.| i vXvXvX@.2.%.p >XdX;.1.' $ zXD.1...p vXvXvXvXvXvXvXvXvXvXvXvXvXvXzX-.2.&.1.c h l M M h l E. X}. X}.}. Xn F vXvXvXvXvXvX",
"vXvXvXvX*X3.<.%.a dXvXvXvXvXvXvXQ V.<.| x zXvXzX@.2.%.p 9X<X;.<.] <XvX).1. .1 vXvXvXvXvXvXvXvXvXvXvXvXvXvXzX-.B.&.1.x f M h h h M }.}.}.}.}. XE.b A vXvXvXvXvXvX",
"vXvXvXvXtX2.%. .] >XvXvXvXvXvXvXP 3.<.,.u zXvXzX@.2.%.p <X<X;.1.] X vX`.2.%.' vXvXvXvXvXvXvXvXvXvXvXvXvXvXzX>.1.X.1.x h l M M h M }.}.}.}.}. XT.f vXvXvXvXvXvXvX",
"vXvXvXvX>X/.N...' vXvXvXvXvXvXvX' c.,.| ' vXvXvXc.N.%.p <XvXV.<.| 6 vX#.1.%.[ 9XvXvXvXvXvXvXvXvXvXvXvXvXvXtX(.<.<.1.z h M M h h k }.}.}.}.}. Xn A vXvXvXvXvXvXvX",
"vXvXvXvX$ (.N.B.*.vXvXvXvXvXvXvXP V.%.| z vXvXdX-.V.%.p <X<X3.2.[ 6 vXU 1.&...K vXvXvXvXvXvXvXvXvXvXvXvXvX+.S.<.1.&.j l h M k h k }.}.}.}.}.E.^ >XvXvXvXvXvXvXvX",
"vXvXvXvX*X/.%. .] >XvXvXvXvXvXvXP A.<.| 1 hXvXvX@.2.%.p 9X<X3.<.[ 6 vXA ,.1.%.$.9XvXvXvXvXvXvXvXvXvXvXvXvX`.B.X.1.$.h l M l M h b }.}. X}. XE.M dXvXvXvXvXvXvXvX",
"vXvXvXvXA ;.%.B.a zXvXvXvXvXvXvXZ 2.<. .U vXvXdX@.1. .p >XvX3.1.[ 6 vXvX{ 1.%.&.B.vXvXvXvXvXvXvXvXvXvXvXI.V.<.1.B.z d h d h h d b XXXXXXXXoXXXI.vXvXvXvXvXvXvXvX",
"vXvXvXvX* (.%.*.a zXvXvXvXvXvXvXP S.<. .u hXvXzX-.2. .' >XvX3.<.[ 6 vXvX6 %.&.%.B.m.vXvXvXvXvXvXvXvXvX+.(.N.1.X.$.d t d d @ g + k oXoXoXoXoXoX}.hXvXvXvXvXvXvXvX",
"vXvXvXvXV N.%.&.O.vXvXvXvXvXvXvX& 2.<.,.y zXvXzX=.2. .p >X>X3.1.[ 6 vXvXvX{ %.&.1.N.D.<XvXvXvXvXvXtXL.A.%.<.<.1.z @ h t h h h @ k XXoXoXoXoXoXOXtXvXvXvXvXvXvXvX",
"vXvXvXvX%X>.;.1.B.Z qXqXP vXvXvXE 3.<.,.y vXvXvX:.2.<.p >X>XD.1.| 4 vXvXvX>X' %.<.<.C.A.n.n.7X' /._.C.<.<.<.B.+.+ g h @ @ h h + k oXoXoXoXoXoXoXI.vXvXvXvXvXvXvX",
"vXvXvXvXV :.*.<.B.A._.D.N.vXvXvXE 3.%.,.a vXvXdX=.2.%.' pX>XV.2.[ 4 vXvXvXvXA ' ..<. .j.G.G.[.3.C.2.<.1.<.[ +.h g h d t @ @ h @ k XXoXoXoXoXoXoX XzXvXvXvXvXvXvX",
"vXvXvXvXS 3.%.%.1.<.<. .> vXvXvXQ C.<.| , vXvXvX@.2. .p >XzX;.<.[ 6 vXvXvXvXvXA a +.7.f.f.f.p.%.<.1.&.] 8 z h h g h @ @ h h @ @ l XXoXoXoXoXoXoXXX~ vXvXvXvXvXvX",
"vXvXvXvXtX3.<.<.<.<.<. .3 vXvXvXP N.<.| a vXvXdX=.1.%.p >XdX3.1.[ 6 vXvXvXvXvXvXbXu y.f.f.f.j.,.| p < < A vXb h f 7 h @ @ @ h t h XXoXoXoXoXoXoXXXU.vXvXvXvXvXvX",
"vXvXvXvXP +.p 1 1 2 2 , X >XvXvX8 2 : ; & dXvX<X{ 2 , ; %X9X+.2 ; < vXvXvXvXvXdXvXnXp.f.s.i.r ; X $ B zXvXtXn g f @ @ t f f d h f |.oXoXoXoXoXoXXX+XtXvXvXvXvXvX",
"vXvXvXvXzX. A $ A B B A >XvXvXvX>XA >XB >XvXvXvX>X%XA P vX>X* A A A vXvXvXvXvXvXvXxXj.g.s.( S <X>XvXvXvXvX~ b @ f @ f @ f 7 f t h |.oXoXoXoXoXoXoXoX~ vXvXvXvXvX",
"vXvXvXvXvXvXvXvXvXvXvXvXvXvXvXvXvXvXvXvXvXvXvXvXvXvXvXvXvXvXvXvXvXvXvXvXvXvXvXvXvX&XH.g.s.r tXvXvXvXvXvXzXU.k @ f @ f f @ t h @ d |.oXoXXXXXXXXXoXoXQ.vXvXvXvXvX",
"vXvXvXvXvXvXvXvXvXvXvXvXvXvXvXvXvXvXvXvXvXvXvXvXvXvXvXvXvXvXvXvXvXvXvXvXvXvXvXvXvXaXj.z.i.0.zXvXvXvXvXvXgXm h f @ @ f 7 t f @ h 7  XoXoXXXXXXXXXoXoX|.zXvXvXvXvX",
"vXvXvXvXvXvXvXvXvXvXvXvXvXvXvXvXvXvXvXvXvXvXvXvXvXvXvXvXvXvXvXvXvXvXvXvXvXvXvXvXvXvX0.d.e.w zXvXvXvXvXvXm.L.+ t t @ f t @ h h h + E.oX{.M.F.G..XXX+XXX~ vXvXvXvX",
"vXvXvXvXvXvXvXvXvXvXvXvXvXvXvXvXvXvXvXvXvXvXvXvXvXvXvXvXvXvXvXvXvXvXvXvXvXvXvXvXvXvX7.p.e.0 vXvXvX,Xm.[.G.d.l @ f t t @ h @ @ h +  XE.= d.h.f.k.XX@X@XI.vXvXvXvX",
"vXvXvXvXvXvXvXvXvXvXvXvXvXvXvXvXvXvXvXvXvXvXvXvXvXvXvXvXvXvXvXvXvXvXvXvXvXvXvXvXvXvX- F.s.j.- u m.n.j.p.p.i.q.j t f d f t t @ h t Y.D t.f.f.g.f..XoXoX}.>XvXvXvX",
"vXvXvXvXvXvXvXvXvXvXvXvXvXvXvXvXvXvXvXvXvXvXvXvXvXvXvXvXvXvXvXvXvXvXvXvXvXvXvXvXqXzXL.F.f.k.J.J.y.y.e.e.i.i.9.g @ l u f t f t f @   ) h.f.f.f.J.XXE.U.^ h vXvXvX",
"vXvXvXvXvXvXvXvXvXvXvXvXvXvXvXvXvXvXvXvXvXvXvXvXvXvXvXvXvXvXvXvXvXvXvXvXvXvXsX[.H.H.F.f.s.f.s.s.e.e.e.e.g.e.q P t y.h.s + + + h   w d.f.f.i.) b N h O >XdXvXvXvX",
"vXvXvXvXvXvXvXvXvXvXvXvXvXvXvXvXvXvXvXvXvXvXvXvXvXvXvXvXvXvXvXvXvXvXvXvXvXzX.XF.f.f.f.f.f.f.f.f.e.e.e.e.( s zX& 0.f.g.i.# O t O = d.f.f.w.0 B >XvXvXvXvXvXvXvXvX",
"vXvXvXvXvXvXvXvXvXvXvXvXvXvXvXvXvXvXvXvXvXvXvXvXvXvXvXvXvXvXvXvXvXvXvXvXvX_ F.s.f.f.i.r.s.f.s.d.p.i.9.r o zXd M.h.f.f.a.K.:X# - u.f.f.e.9 A vXvXvXvXvXvXvXvXvXvX",
"vXvXvXvXvXvXvXvXvXvXvXvXvXvXvXvXvXvXvXvXvXvXvXvXvXvXvXvXvXvXvXvXvXvXvXvXvX_ d.d.i.( w s 7.s.s.d.u.y.m.zXvXvXP.x.f.f.f.f.G.P.m.y.f.g.i.q F vXvXvXvXvXvXvXvXvXvXvX",
"vXvXvXvXvXvXvXvXvXvXvXvXvXvXvXvXvXvXvXvXvXvXvXvXvXvXvXvXvXvXvXvXvXvXvXvXvXzXr ( 0 w >XvXA ) d.s.f.g.h._ 1XvX- t.a.f.f.f.g.z.k.f.f.a.( G vXvXvXvXvXvXvXvXvXvXvXvX",
"vXvXvXvXvXvXvXvXvXvXvXvXvXvXvXvXvXvXvXvXvXvXvXvXvXvXvXvXvXvXvXvXvXvXvXvXvXvX>XA >XvXvXvXvXzXq e.s.f.z.z.H.K.zXC q 7.i.f.g.g.f.g.f.e u vXvXvXvXvXvXvXvXvXvXvXvXvX",
"vXvXvXvXvXvXvXvXvXvXvXvXvXvXvXvXvXvXvXvXvXvXvXvXvXvXvXvXvXvXvXvXvXvXvXvXvXvXvXvXvXvXvXvXvXvXvX= 7.s.f.s.h.h.7.vXvXD q 7.i.s.f.i.e 9 vXvXvXvXvXvXvXvXvXvXvXvXvXvX",
"vXvXvXvXvXvXvXvXvXvXvXvXvXvXvXvXvXvXvXvXvXvXvXvXvXvXvXvXvXvXvXvXvXvXvXvXvXvXvXvXvXvXvXvXvXvXvXvXA ) r.f.f.a.p.qXvXvXvXA w ) e 9 o dXvXvXvXvXvXvXvXvXvXvXvXvXvXvX",
"vXvXvXvXvXvXvXvXvXvXvXvXvXvXvXvXvXvXvXvXvXvXvXvXvXvXvXvXvXvXvXvXvXvXvXvXvXvXvXvXvXvXvXvXvXvXvXvXvX>Xw 8.f.f.w.o vXvXvXvXvXC D C vXvXvXvXvXvXvXvXvXvXvXvXvXvXvXvX",
"vXvXvXvXvXvXvXvXvXvXvXvXvXvXvXvXvXvXvXvXvXvXvXvXvXvXvXvXvXvXvXvXvXvXvXvXvXvXvXvXvXvXvXvXvXvXvXvXvXvXdXG ) 7.9 >XvXvXvXvXvXvXvXvXvXvXvXvXvXvXvXvXvXvXvXvXvXvXvXvX",
"vXvXvXvXvXvXvXvXvXvXvXvXvXvXvXvXvXvXvXvXvXvXvXvXvXvXvXvXvXvXvXvXvXvXvXvXvXvXvXvXvXvXvXvXvXvXvXvXvXvXvXvXA - D vXvXvXvXvXvXvXvXvXvXvXvXvXvXvXvXvXvXvXvXvXvXvXvXvX",
"vXvXvXvXvXvXvXvXvXvXvXvXvXvXvXvXvXvXvXvXvXvXvXvXvXvXvXvXvXvXvXvXvXvXvXvXvXvXvXvXvXvXvXvXvXvXvXvXvXvXvXvXvXvXvXvXvXvXvXvXvXvXvXvXvXvXvXvXvXvXvXvXvXvXvXvXvXvXvXvX",
"vXvXvXvXvXvXvXvXvXvXvXvXvXvXvXvXvXvXvXvXvXvXvXvXvXvXvXvXvXvXvXvXvXvXvXvXvXvXvXvXvXvXvXvXvXvXvXvXvXvXvXvXvXvXvXvXvXvXvXvXvXvXvXvXvXvXvXvXvXvXvXvXvXvXvXvXvXvXvXvX",
"vXvXvXvXvXvXvXvXvXvXvXvXvXvXvXvXvXvXvXvXvXvXvXvXvXvXvXvXvXvXvXvXvXvXvXvXvXvXvXvXvXvXvXvXvXvXvXvXvXvXvXvXvXvXvXvXvXvXvXvXvXvXvXvXvXvXvXvXvXvXvXvXvXvXvXvXvXvXvXvX"
};
