/* XPM */
static char *xpm_[] = {
/* columns rows colors chars-per-pixel */
"80 80 194 2 ",
"   c #020818",
".  c #080D18",
"X  c #020B22",
"o  c #08132A",
"O  c #000E36",
"+  c #0A1939",
"@  c #121F3A",
"#  c #131D30",
"$  c #17233B",
"%  c #242D3D",
"&  c #101723",
"*  c #590317",
"=  c #4A000F",
"-  c #65031B",
";  c #71041F",
":  c #5D1425",
">  c #6C0A22",
",  c #7B0926",
"<  c #6D1128",
"1  c #7A132D",
"2  c #7A1931",
"3  c #722638",
"4  c #7E142E",
"5  c #0A1C45",
"6  c #172648",
"7  c #0D2357",
"8  c #162955",
"9  c #1D305B",
"0  c #0F2044",
"q  c #212D45",
"w  c #253559",
"e  c #2B364D",
"r  c #162E64",
"t  c #1D3366",
"y  c #243969",
"u  c #283F75",
"i  c #394459",
"p  c #364567",
"a  c #294076",
"s  c #3B4D75",
"d  c #424853",
"f  c #434F6A",
"g  c #535F7A",
"h  c #4E5971",
"j  c #5B657B",
"k  c #646C7D",
"l  c #192234",
"z  c #6F1128",
"x  c #1B273F",
"c  c #941636",
"v  c #A1173B",
"b  c #B3B5B7",
"n  c #B3B5B7",
"m  c #B3B5B7",
"M  c #B3B5B7",
"N  c #B3B5B7",
"B  c #B3B5B7",
"V  c #B3B5B7",
"C  c #9E0015",
"Z  c #A1001D",
"A  c #860828",
"S  c #9B0B31",
"D  c #871633",
"F  c #991437",
"G  c #951536",
"H  c #A60327",
"J  c #AA0D32",
"K  c #A71539",
"L  c #B01C3F",
"P  c #8C223D",
"I  c #B01E40",
"U  c #9F2B49",
"Y  c #92364D",
"T  c #A42C4B",
"R  c #B32748",
"E  c #BA3A58",
"W  c #B7304F",
"Q  c #994459",
"!  c #8E4F5E",
"~  c #BC405D",
"^  c #995C6B",
"/  c #BF4965",
"(  c #B4506A",
")  c #9D767F",
"_  c #C2516C",
"`  c #C65B74",
"'  c #C9657D",
"]  c #4D5F87",
"[  c #5B6886",
"{  c #646D82",
"}  c #6A758E",
"|  c #747C8D",
" . c #737E95",
".. c #B3B5B7",
"X. c #B17E8B",
"o. c #CC6D83",
"O. c #D0788D",
"+. c #D27F92",
"@. c #D38194",
"#. c #798296",
"$. c #7D8390",
"%. c #7884A1",
"&. c #B3B5B7",
"*. c #828A99",
"=. c #8A909B",
"-. c #BD8C98",
";. c #858EA4",
":. c #8994AE",
">. c #9A9FA9",
",. c #B3B5B7",
"<. c #969FB3",
"1. c #9FA4AE",
"2. c #9DA4B4",
"3. c #B3B5B7",
"4. c #ADAFB3",
"5. c #AEB2B9",
"6. c #B0B3B9",
"7. c #B3B5B8",
"8. c #B3B5B7",
"9. c #B3B5B7",
"0. c #B3B5B7",
"q. c #B3B5B7",
"w. c #B3B5B7",
"e. c #B3B5B7",
"r. c #D6899B",
"t. c #C88D9C",
"y. c #D890A1",
"u. c #DB99A9",
"i. c #C7A2AB",
"p. c #DEA2B0",
"a. c #CCABB3",
"s. c #E0A5B3",
"d. c #C4A3AB",
"f. c #E2ACB9",
"g. c #E4B1BD",
"h. c #ACB3C1",
"j. c #B6BBC5",
"k. c #DBC0C7",
"l. c #E7B9C4",
"z. c #C1C4CB",
"x. c #C2C6CD",
"c. c #DFC4CB",
"v. c #C9CCD2",
"b. c #CCD3DC",
"n. c #D7D8DC",
"m. c #EAC4CD",
"M. c #EECDD5",
"N. c #EBD7DC",
"B. c #F1D7DE",
"V. c #F1C8D0",
"C. c #F5DDE2",
"Z. c #E0E7ED",
"A. c #E3E5E8",
"S. c #F6E8EB",
"D. c #F8EEF1",
"F. c #FEFDFE",
"G. c #EDEEF0",
"H. c #B3B5B7",
"J. c #151B27",
"K. c #192336",
"L. c #121926",
"P. c #5B1324",
"I. c #661529",
"U. c #670A21",
"Y. c #1C2943",
"T. c #222F4C",
"R. c #0D1E40",
"E. c #784550",
"W. c #243559",
"Q. c #2D416D",
"!. c #711129",
"~. c #A31B3E",
"^. c #A62D4C",
"/. c #2F4679",
"(. c #B3B5B7",
"). c #B2B4B6",
"_. c #B3B6B9",
"`. c #B3B5B7",
"'. c #B3B5B7",
"]. c #B3B5B7",
"[. c #B3B5B8",
"{. c #B3B5B7",
"}. c #FEFBFC",
"|. c #B3B5B7",
" X c #FCF6F7",
".X c #B2B4B6",
"XX c #30233C",
"oX c #B3B5B7",
"OX c #B3B5B7",
"+X c #B8BABC",
"@X c #989CA1",
"#X c #B4B6B7",
"$X c None",
"%X c #B3B5B7",
/* pixels */
"$X$X$X$X$X$X$X$X$X$X$X$X$X$X$X$X$X$X$X$X$X$X$X$X$X$X$X$X$X$X$X$X$X$X$X$X$X$X$X$X$X$X$X$X$X$X$X$X$X$X$X$X$X$X$X$X$X$X$X$X$X$X$X$X$X$X$X$X$X$X$X$X$X$X$X$X$X$X$X$X",
"$X$X$X$X$X$X$X$X$X$X$X$X$X$X$X$X$X$X$X$X$X$X$X$X$X$X$X$X$X$X$X$X$X$X$X$X$X$X$X$X$X$X$X$X$X$X$X$X$X$X$X$X$X$X$X$X$X$X$X$X$X$X$X$X$X$X$X$X$X$X$X$X$X$X$X$X$X$X$X$X",
"$X$X$X$X$X$X$X$X$X$X$X$X$X$X$X$X$X$X$X$X$X$X$X$X$X$X$X$X$X$X$X$X$X$X$X$X$X$X$X$X$X$X$X$X$X$X$X$X$X$X$X$X$X$X$X$X$X$X$X$X$X$X$X$X$X$X$X$X$X$X$X$X$X$X$X$X$X$X$X$X",
"$X$X$X$X$X$X$X$X$X$X$X$X$X$X$X$X$X$X$X$X$X$X$X$X$X$X$X$X$X$X$X$X$X$X$X$X$X$X$X$X$X$X$X$X$X$X$X$X$X$X$X$X$X$X$X$X$X$X$X$X$X$X$X$X$X$X$X$X$X$X$X$X$X$X$X$X$X$X$X$X",
"$X$X$X$X$X$X$X$X$X$X$X$X$X$X$X$X$X$X$X$X$X$X$X$X$X$X$X$X$X$X$X$X$X$X$X$X$X$X$X$X$X$X$X$X$X$X$X$X$X$X$X$X$X$X$X$X$X$X$X$X$X$X$X$X$X$X$X$X$X$X$X$X$X$X$X$X$X$X$X$X",
"$X$X$X$X$X$X$X$X$X$X$X$X$X$X$X$X$X$X$X$X$X$X$X$X$X$X$X$X$X$X$X$X$X$X$X$X$X$X$X$X$X$X$X$X$X$X$X$X$X$X$X$X$X$X$X$X$X$X$X$X$X$X$X$X$X$X$X$X$X$X$X$X$X$X$X$X$X$X$X$X",
"$X$X$X$X$X$X$X$X$X$X$X$X$X$X$X$X$X$X$X$X$X$X$X$X$X$X$X$X$X$X$X$X$X$X$X$X$X$X$X$X$X$X$X$X$X$X$X$X$X$X$X$X$X$X$X$X$X$X$X$X$X$X$X$X$X$X$X$X$X$X$X$X$X$X$X$X$X$X$X$X",
"$X$X$X$X$X$X$X$X$X$X$X$X$X$X$X$X$X$X$X$X$X$X$X$X$X$X$X$X$X$X$X$X$X$X$X$X$X$X$X$X$X$X$X$X$X$X$X$X$X$X$X$X$X$X$X$X$X$X$X$X$X$X$X$X$X$X$X$X$X$X$X$X$X$X$X$X$X$X$X$X",
"$X$X$X$X$X$X$X$X$X$X$X$X$X$X$X$X$X$X$X$X$X$X$X$X$X$X$X$X$X$X$X$X$X$X$X$X$X$X$X$X$X$X$X$X$X$X$X$X$X$X$X$X$X$X$X$X$X$X$X$X$X$X$X$X$X$X$X$X$X$X$X$X$X$X$X$X$X$X$X$X",
"$X$X$X$X$X$X$X$X$X$X$X$X$X$X$X$X$X$X$X$X$X$X$X$X$X$X$X$X$X$X$X$X$X$X$X$X$X$X$X$X$X$X$X$X$X$X$X$X$X$X$X$X$X$X$X$X$X$X$X$X$X$X$X$X$X$X$X$X$X$X$X$X$X$X$X$X$X$X$X$X",
"$X$X$X$X$X$X$X$X$X$X$X$X$X$X$X$X$X$X$X$X$X$X$X$X$X$X$X$X$X$X$X$X$X$X$X$X$X$X$X$X$X$X$X$X$X$X$X$X$X$X$X$X$X$X$X$X$X$X$X$X$X$X$X$X$X$X$X$X$X$X$X$X$X$X$X$X$X$X$X$X",
"$X$X$X$X$X$X$X$X$X$X$X$X$X$X$X$X$X$X$X$X$X$X$X$X$X$X$X$X$X$X$X$X$X$X$X$X$X$X$X$X$X$X$X$X$X$X$X$X$X$X$X$X$X$X$X$X$X$X$X$X$X$X$X$X$X$X$X$X$X$X$X$X$X$X$X$X$X$X$X$X",
"$X$X$X$X$X$X$X$X$X$X$X$X$X$X$X$X$X$X$X$X$X$X$X$X$X$X$X$X$X$X$X$X$X$X$X$X$X$X$X$X$X$X$X$X$X$X$X$X$X$X$X$X$X$X$X$X$X$X$X$X$X$X$X$X$X$X$X$X$X$X$X$X$X$X$X$X$X$X$X$X",
"$X$X$X$X$X$X$X$X$X$X$X$X$X$X$X$X$X$X$X$X$X$X$X$X$X$X$X$X$X$X$X$X$X$X$X$X$X$X$X$X$X$X$X$X$X$X$X$X$X$X$X$X$X$X$X$X$X$X$X$X$X$X$X$X$X$X$X$X$X$X$X$X$X$X$X$X$X$X$X$X",
"$X$X$X$X$X$X$X$X$X$X$X$X$X$X$X$X$X$X$X$X$X$X$X$X$X$X$X$X$X$X$X$X$X$X$X$X$X$X$X$X$X$X$X$X$X$X$X$X$X$X$X$X$X$X$X$X$X$X$X$X$X$X$X$X$X$X$X$X$X$X$X$X$X$X$X$X$X$X$X$X",
"$X$X$X$X$X$X$X$X$X$X$X$X$X$X$X$X$X$X$X$X$X$X$X$X$X$X$X$X$X$X$X$X$X$X$X$X$X$X$X$X$X$X$X$X$X$X$X$X$X$X$X$X$X$X$X$X$X$X$X$X$X$X$X$X$X$X$X$X$X$X$X$X$X$X$X$X$X$X$X$X",
"$X$X$X$X$X$X$X$X$X$X$X$X$X$X$X$X$X$X$X$X$X$X$X$X$X$X$X$X$X$X$X$X$X$X$X$X$X$X$X$X$X$X$X$X$X$X$X$X$X$X$X$X$X$X$X$X$X$X$X$X$X$X$X$X$X$X$X$X$X$X$X$X$X$X$X$X$X$X$X$X",
"$X$X$X$X$X$X$X$X$X$X$X$X$X$X$X$X$X$X$X$X$X$X$X$X$X$X$X$X$X$X$X$X$X$X$X$X$X$X$X$X$X$X$X$X$X$X$X$X$X$X$X$X$X$X$X$X$X$X$X$X$X$X$X$X$X$X$X$X$X$X$X$X$X$X$X$X$X$X$X$X",
"$X$X$X$X$X$X$X$X$X$X$X$X$X$X$X$X$X$X$X$X$X$X$X$X$X$X$X$X$X$X$X$X$X$X$X$X$X$X$X$X$X$X$X$X$X$X$X$X$X$X$X$X$X$X$X$X$X$X$X$X$X$X$X$X$X$X$X$X$X$X$X$X$X$X$X$X$X$X$X$X",
"$X$X$X$X$X$X$X$X$X$X$X$X$X$X$X$X$X$X$X$X$X$X$X$X$X$X$X$X$X$X$X$X$X$X$X$X$X$X$X$X$X$X$X$X$X$X$X$X$X$X$X$X$X$X$X$X$X$X$X$X$X$X$X$X$X$X$X$X$X$X$X$X$X$X$X$X$X$X$X$X",
"$X$X$X$X$X$X$X$X$X$X$X$X$X$X$X$X$X$X$X$X$X$X$X$X$X$X$X$X$X$X$X$X$X$X$X$X$X$X$X$X$XXXOX$X$X$X$X$X$X$X$X$X$X$X$X$X$X$X$X$X$X$X$X$X$X$X$X$X$X$X$X$X$X$X$X$X$X$X$X$X",
"$X$X$X$X$X$X$X$X$X$X$X$X$X$X$X$X$X$X$X$X$X$X$X$X$X$X$X$X$X$X$X$X$X$X$X$X$X$X@XXX$X4.N $X@X$X$X$X$X$X$X$X$X$X$X$X$X$X$X$X$X$X$X$X$X$X$X$X$X$X$X$X$X$X$X$X$X$X$X$X",
"$X$X$X$X$X$X$X$X$X$X$X$X$X$X$X$X$X$X$X$X$X$X$X$X$X$X$X$X$X$X$X$X%X%X$X$X$X$X).9.9.7.C.H..X$X$X$X$X$XXXXX$X$X$X$X$X$X$X$X$X$X$X$X$X$X$X$X$X$X$X$X$X$X$X$X$X$X$X$X",
"$X$X$X$X$X$X$X$X$X$X$X$X$X$X$X$X$X$X$X$X$X$X$X$X$X$X$X$X$X$X$X$Xv.@X$X$X$X$X$XB z.z.H.$X$X$X$X$X$X$X8.$X$X$X$X$X$X$X$X$X$X$X$X$X$X$X$X$X$X$X$X$X$X$X$X$X$X$X$X$X",
"$X$X$X$X$X$X$X$X$X$X$X$X$X$X$X$X$X$X$X$X$X$X$X$X$X$X$X$X$Xm H.0.n.V {.#X@X$X).H..X9.H.$X$X$X@XH.d H.A.H.{.@X$X$X$X$X$X$X$X$X$X$X$X$X$X$X$X$X$X$X$X$X$X$X$X$X$X$X",
"$X$X$X$X$X$X$X$X$X$X$X$X$X$X$X$X$X$X$X$X$X$X$X$X$X$X$X$X$X|.z.7.n.[.@X$XXX$X%X$X$X$X$X$X$X$X$X#X4.z.x.{.%X$X$X$X$X$X$X$X$X$X$X$X$X$X$X$X$X$X$X$X$X$X$X$X$X$X$X$X",
"$X$X$X$X$X$X$X$X$X$X$X$X$X$X$X$X$X$X$X$X$X$X$X$X$X$X$X$X$X|.0.m z.%XXX$X$X$XXX$X$X$X$X$X$X$X$XH.H.(.G.XXXX$X$X$X$X$X$X$X$X$X$X$X$X$X$X$X$X$X$X$X$X$X$X$X$X$X$X$X",
"$X$X$X$X$X$X$X$X$X$X$X$X$X$X$X$X$X$X$X$X$X$X$X$X).$X$X$XXX|.$X$X#X%X$X$X$X$X$X$X$X$X$X$X$X$X@XOX$X$XOX%X$X$X$X$X@XXX$X$X$X$X$X$X$X$X$X$X$X$X$X$X$X$X$X$X$X$X$X$X",
"$X$X$X$X$X$X$X$X$X$X$X$X$X$X$X$X$X$X$X$X$X$X$X{.0.$X$X$X$X$X$X$X$X$X$X$X$X$X$X$X$X$X$X$X$X$X$X$X$X$X$X$XXX$X$X@Xx.$X$X$X$X$X$X$X$X$X$X$X$X$X$X$X$X$X$X$X$X$X$X$X",
"$X$X$X$X$X$X$X$X$X$X$X$X$X$X$X$X$X$X$X$X).b b 7.8.b {.$X$X$X$X$X$X$X$X$X$X$X$X$X$X$X$X$X$X$X$X$X$X$X$X$X%XM H.e.v.w.'.XX$X$X$X$X$X$X$X$X$X$X$X$X$X$X$X$X$X$X$X$X",
"$X$X$X$X$X$X$X$X$X$X$X$X$X$X$X$X$X$X$X$X$Xb 7.7.0.).$X$X$X$X$X$X$X$X$X$X$X$X$X$X$X$X$X$X$X$X$X$X$X$X$X$X$X|.z.n.7.+X$X$X$X$X$X$X$X$X$X$X$X$X$X$X$X$X$X$X$X$X$X$X",
"$X$X$X$X$X$X$X$X$X$X$X$X$X$X$X$X$X$X$X$X+X0.M 0.0.$X$X$X$X$X$X$X$X$X$X$X$X$X$X$X$X$X$X$X$X$X$X$X$X$X$X$XXXV [.[.n.$X$X$X$X$X$X$X$X$X$X$X$X$X$X$X$X$X$X$X$X$X$X$X",
"$X$X$X$X$X$X$X$X$X$X$X$X$X$X$X$X$X$X$X$X.X@X$X$X].$X$X$X$X$X$X$X$X$X$X$X$X$X$X$X$X$X$X$X$XXX$X$X$X$X$X$X%X|.$X$X|.$X$X$X$X$X$X$X$X$X$X$X$X$X$X$X$X$X$X$X$X$X$X$X",
"$X$X$X$X$X$X$X$X$X$X$X$X$X$X$X$X$X$X$X$XXX$X$X$X$X$X$X$X$X$X$X$X$X$X$X$X$X$X$X$X$X$X$X$X$X$X$X$X$X$X$X$X$X$X$X$X$X$X$X$X$X$X$X$X$XXX$X$X$X$X$X$X$X$X$X$X$X$X$X$X",
"$X$X$X$X$X$X$XL.L.$XW.W.W.W.W.W././.XX/.'.L.XXXXL.XXXXL.L.XXXXL.#X@X.X|.+X%X|.|.|.%XoX%X.X|.#X|.%X|.|.#X|.#X%X|.+X|.#X|.%X|.|.#X#X+X|.XX.X!.!.!.!.!.!.!.!.$X$X$X",
"$X$X$X$X$X$Xq 0 0 8 5 0 8 6 6 w 9 8 9 t r r r t a a u u u a y a #.s G.F.F.G.G.G.F.F.F.G.F.F.F.F.F.F.F.F.F.F.F.F.F.F.F.F.F.F.F.F.D.D.D.T _ R I J I L I W G $X$X$X",
"$X$X$X$X$XL.6 d | } | { 6 { [ 8 w #.s w #.%.#.[ u u r ] :.<.] a t [ D.D.l.y.u.V.G.c.u.u.c.A.A.A.C.u.y.C.F.D.g.p.p.l.F.S.g.f.f.u.u.D.m.A F U ( ( W J F I v $X$X$X",
"$X$X$X$X$X& $ x.F.F.F.j.6 F.7.O j F.[ [ D.D.D.D.:.7 :.G.G.G.G.[ 7 ;.F._ J W H y.G.H J L J ` A.r.H L H J S.B.Z H J Z o.g.J J H J R F.-., G N.F.F.S.R K I ~.$X$X$X",
"$X$X$X$X$X# 6 F.>.O q $ g F.j O 2.F.6 6.G.a p D.h.y G.z.8 [ G.%.7 x.C.Z g.F.D.F.l.H m.G.E W B.J O.F.g.Z M.u.H S.F.R _ F.D.E E F.F.F.Y , D Q D t.F.T S F $X$X$X$X",
"$X$X$X$XL.o h F.n.z.5.o 4.F.q 6 Z.b.0 G.z.5 { D.{ [ G.[ 7 :.G.] a G.l.Z E u.D.F.` R G.S.H r.s.H B.F.+.H F.~ E F.B.H r.F.S.H r.F.F.N.1 1 D , D S.l.A F z $X$X$X$X",
"$X$X$X$Xl o 3.F.7.v.=.o A.x.o e F.| i F.F.A.F.b.0 h.Z.p 7 x.n.8 } A.A.p._ Z ` G.W H R J R A.o.R F.F.R _ D.J H R J W S.F.f.Z M.F.D.d.< 2 > Y D.S.P A K !.$X$X$X$X",
"$X$X$X$X# # Z.j.    X i F.$.  *.F.e #.F.#.A.F.w i A.z.5 p G.<.5 h.A.A.A.A.J o.N.H o.r.y.A.A.J o.F.N.Z f.m.H y./ H S.F.F.' L F.F.D.^ > > Q D.k.1 A G G L.$X$X$X$X",
"$X$X$X$X. i F.D.n.A.d e F.G.x.F.j.o A.A.X { F.*.0 n.A.z.G.G.f 8 n.m.E ` E H B.y.J A.G.G.A.A.I L _ J R D._ J F.C.C ' F.D.H ' F.F.G.3 - ! F.F.N.a.2 1 v $X$X$X$X$X",
"$X$X$X. & d 1.3.5.8.% o j 7.z.$.$ $ 1.k + q >.*.6 f z.j.1.f 8 f n.m.o._ o.c.A.l.r.A.A.A.A.A.m.r._ O.S.G.r.u.F.F.r.O.D.S.o.m.D.F.a.* * ! d.-.a.X.> 1 z $X$X$X$X$X",
"$X$X$Xl & .     . . & $ & o o $ $ $ + 6 $ 6 # + q 6 0 8 $ w i v.n.n.G.G.G.G.G.G.A.A.G.G.G.G.G.G.D.G.G.G.F.F.F.F.F.F.A.A.F.F.F.F.) = : - * - - ; < < L.$X$X$X$X$X",
"$X$X$XL.  L.L.L.L.. L.L.l L.l l L.l R.l L.R.XX. & x L.J.W.K.l {.m (.V B [.'.V M m (.N N m '.V M (.H.[.'. XH. XH.{.[.'.H.}.}.}.}.v z !.l l z !.z U.U.$X$X$X$X$X$X",
"$X$X$X$X$X$X$X$X$X$X$X$X$X$X$X$X$X$X$X$X$X$X$X$X$X$X$X$X$X$X$X$X$X$X$X$X$X$X$X$X$X$X$X$X$X$X$X$X$X$X$X$X$X$X$X$X$X$X$X$X$X$X$X$X$X$X$X$X$X$X$X$X$X$X$X$X$X$X$X$X",
"$X$X$X$X$X$X$X$X$X$X$X$X$X$X$X$XXX$X$X$X$X$X$X$X$X$X$X$X$X$X$X$X$X$X$X$X$X$X$XXX$X$X$X$X$X$XXX$X@X#X$X$X$X$X$XXX$X$X$X$X$X$X$X$X$X$X$X$X$X$X$X$X$X$X$X$X$X$X$X$X",
"$X$X$X$X$X$X$X$X$X$X$X$X$X$X$XXXH.$X$XXX$X$X$X$X$X$X$X$X$X$X$X$X$X$X$X$X$X$X$X$X$X$X$X$X$X$X$X$Xw.#X$X$X$X$X$X$X$X$X$X$X$X$X$X$X$X$X$X$X$X$X$X$X$X$X$X$X$X$X$X$X",
"$X$X$X$X$X$X$X$X$X$X$X$XJ.V |.w.v.[.OX@X$X$X$X$X$X$X$X$X$X$X$X$X$X$X$X$X$X$X$X$X$X$X$X$XXXm `.m D.H.H.%X$X$X$X$X$X$X$X$X$X$X$X$X$X$X$X$X$X$X$X$X$X$X$X$X$X$X$X$X",
"$X$X$X$X$X$X$X$X$X$X$X$XXX[.b.z.7.'.%X$X$X$X$X$X$X$X$X$X$X$X$X$X$X$X$X$X$X$X$X$X$X$X$X$X$X%Xv.x.Z.3.%X$X$X$X$X$X$X$X$X$X$X$X$X$X$X$X$X$X$X$X$X$X$X$X$X$X$X$X$X$X",
"$X$X$X$X$X$X$X$X$X$X$X$X$X[.H.H.7.$X@X$X$X$X$X$X$X$X$X$X$X$X$X$X$X$X$X$X$X$X$X$X$X$X$X$XXX+X3.H.x.oX$X$X$X$X$X$X$X$X$X$X$X$X$X$X$X$X$X$X$X$X$X$X$X$X$X$X$X$X$X$X",
"$X$X$X$X$X$X$X$X$X$X$X$X|.|.$X$X].@X@X$XXX@X$X$X$X$X$X$X$X$X$X$X$X$X$X$X$X$X$X$X$X$X$X$XXX).@X$X|.@X$X$X$X$X$X$X$X$X$X$X$X$X$X$X$X$X$X$X$X$X$X$X$X$X$X$X$X$X$X$X",
"$X$X$X$X$X$X$X$X$X$X$X$X$X$X$X$X$X$X$X$X$X#X[.$X$X$X$X$X$X$X$XXX$X$X$X$XXX@X$X@XH.$X$X$X$X$XXX$X$X$X$X$X$X$X$X$X$X$X$X$X$X$X$X$X$X$X$X$X$X$X$X$X$X$X$X$X$X$X$X$X",
"$X$X$X$X$X$X$X$X$X$X$X$X$X$X$X$X@X$X.X#X@X7.0.@X%XXX$X$X$X$X$X@X$X$X$X$X%X.XXXH.7.%X%X$X$X$X$X$X$X$X$X$X$X$X$X$X$X$X$X$X$X$X$X$X$X$X$X$X$X$X$X$X$X$X$X$X$X$X$X$X",
"$X$X$X$X$X$X$X$X$X$X$X$X$X$X$X$X@X@X+X}.z.v.n.}..X@X$X$X$X$X'.).$X$X$X$X@XH.v.z.v.9.oX$X$X$X$X$X$X$X$X$X$X$X$X$X$X$X$X$X$X$X$X$X$X$X$X$X$X$X$X$X$X$X$X$X$X$X$X$X",
"$X$X$X$X$X$X$X$X$X$X$X$X$X$X$X$X$X$X$XH.v.z.0.$X$X$X@XOX.X.Xn.]..X#X$X$X$XH.k.z.q.$X$X$X$X$X$X$X$X$X$X$X$X$X$X$X$X$X$X$X$X$X$X$X$X$X$X$X$X$X$X$X$X$X$X$X$X$X$X$X",
"$X$X$X$X$X$X$X$X$X$X$X$X$X$X$X$X$X$X`.H.XX+XM $X$X$XXXOXn.7.z.z.m %X$X$XOXH.XX.X[.$X$X$X$X$X$X$X$X$X$X$X$X$X$X$X$X$X$X$X$X$X$X$X$X$X$X$X$X$X$X$X$X$X$X$X$X$X$X$X",
"$X$X$X$X$X$X$X$X$X$X$X$X$X$X$X$X$X$X$X$X$X$X$X$X$X$XXXXX8.3.n..XXX$X$X$X$X$X$X$X$X$X$X$X$X$X$X$X$X$X$X$X$X$X$X$X$X$X$X$X$X$X$X$X$X$X$X$X$X$X$X$X$X$X$X$X$X$X$X$X",
"$X$X$X$X$X$X$X$X$X$X$X$X$X$X$X$X$X$X$X$X$X$X$X$X$X$X@X[.oX$XH.OX$X$X$X$X$X$X$X$X$X$X$X$X$X$X$X$X$X$X$X$X$X$X$X$X$X$X$X$X$X$X$X$X$X$X$X$X$X$X$X$X$X$X$X$X$X$X$X$X",
"$X$X$X$X$X$X$X$X$X$X$X$X$X$X$X$X$X$X$X$X$X$X$X$X$X$X$X$X$X$X$X$X$X$X$X$X$X$X$X$X$X$X$X$X$X$X$X$X$X$X$X$X$X$X$X$X$X$X$X$X$X$X$X$X$X$X$X$X$X$X$X$X$X$X$X$X$X$X$X$X",
"$X$X$X$X$X$X$X$X$X$X$X$X$X$X$X$X$X$X$X$X$X$X$X$X$X$X$X$X$X$X$X$X$X$X$X$X$X$X$X$X$X$X$X$X$X$X$X$X$X$X$X$X$X$X$X$X$X$X$X$X$X$X$X$X$X$X$X$X$X$X$X$X$X$X$X$X$X$X$X$X",
"$X$X$X$X$X$X$X$X$X$X$X$X$X$X$X$X$X$X$X$X$X$X$X$X$X$X$X$X$X$X$X$X$X$X$X$X$X$X$X$X$X$X$X$X$X$X$X$X$X$X$X$X$X$X$X$X$X$X$X$X$X$X$X$X$X$X$X$X$X$X$X$X$X$X$X$X$X$X$X$X",
"$X$X$X$X$X$X$X$X$X$X$X$X$X$X$X$X$X$X$X$X$X$X$X$X$X$X$X$X$X$X$X$X$X$X$X$X$X$X$X$X$X$X$X$X$X$X$X$X$X$X$X$X$X$X$X$X$X$X$X$X$X$X$X$X$X$X$X$X$X$X$X$X$X$X$X$X$X$X$X$X",
"$X$X$X$X$X$X$X$X$X$X$X$X$X$X$X$X$X$X$X$X$X$X$X$X$X$X$X$X$X$X$X$X$X$X$X$X$X$X$X$X$X$X$X$X$X$X$X$X$X$X$X$X$X$X$X$X$X$X$X$X$X$X$X$X$X$X$X$X$X$X$X$X$X$X$X$X$X$X$X$X",
"$X$X$X$X$X$X$X$X$X$X$X$X$X$X$X$X$X$X$X$X$X$X$X$X$X$X$X$X$X$X$X$X$X$X$X$X$X$X$X$X$X$X$X$X$X$X$X$X$X$X$X$X$X$X$X$X$X$X$X$X$X$X$X$X$X$X$X$X$X$X$X$X$X$X$X$X$X$X$X$X",
"$X$X$X$X$X$X$X$X$X$X$X$X$X$X$X$X$X$X$X$X$X$X$X$X$X$X$X$X$X$X$X$X$X$X$X$X$X$X$X$X$X$X$X$X$X$X$X$X$X$X$X$X$X$X$X$X$X$X$X$X$X$X$X$X$X$X$X$X$X$X$X$X$X$X$X$X$X$X$X$X",
"$X$X$X$X$X$X$X$X$X$X$X$X$X$X$X$X$X$X$X$X$X$X$X$X$X$X$X$X$X$X$X$X$X$X$X$X$X$X$X$X$X$X$X$X$X$X$X$X$X$X$X$X$X$X$X$X$X$X$X$X$X$X$X$X$X$X$X$X$X$X$X$X$X$X$X$X$X$X$X$X",
"$X$X$X$X$X$X$X$X$X$X$X$X$X$X$X$X$X$X$X$X$X$X$X$X$X$X$X$X$X$X$X$X$X$X$X$X$X$X$X$X$X$X$X$X$X$X$X$X$X$X$X$X$X$X$X$X$X$X$X$X$X$X$X$X$X$X$X$X$X$X$X$X$X$X$X$X$X$X$X$X",
"$X$X$X$X$X$X$X$X$X$X$X$X$X$X$X$X$X$X$X$X$X$X$X$X$X$X$X$X$X$X$X$X$X$X$X$X$X$X$X$X$X$X$X$X$X$X$X$X$X$X$X$X$X$X$X$X$X$X$X$X$X$X$X$X$X$X$X$X$X$X$X$X$X$X$X$X$X$X$X$X",
"$X$X$X$X$X$X$X$X$X$X$X$X$X$X$X$X$X$X$X$X$X$X$X$X$X$X$X$X$X$X$X$X$X$X$X$X$X$X$X$X$X$X$X$X$X$X$X$X$X$X$X$X$X$X$X$X$X$X$X$X$X$X$X$X$X$X$X$X$X$X$X$X$X$X$X$X$X$X$X$X",
"$X$X$X$X$X$X$X$X$X$X$X$X$X$X$X$X$X$X$X$X$X$X$X$X$X$X$X$X$X$X$X$X$X$X$X$X$X$X$X$X$X$X$X$X$X$X$X$X$X$X$X$X$X$X$X$X$X$X$X$X$X$X$X$X$X$X$X$X$X$X$X$X$X$X$X$X$X$X$X$X",
"$X$X$X$X$X$X$X$X$X$X$X$X$X$X$X$X$X$X$X$X$X$X$X$X$X$X$X$X$X$X$X$X$X$X$X$X$X$X$X$X$X$X$X$X$X$X$X$X$X$X$X$X$X$X$X$X$X$X$X$X$X$X$X$X$X$X$X$X$X$X$X$X$X$X$X$X$X$X$X$X",
"$X$X$X$X$X$X$X$X$X$X$X$X$X$X$X$X$X$X$X$X$X$X$X$X$X$X$X$X$X$X$X$X$X$X$X$X$X$X$X$X$X$X$X$X$X$X$X$X$X$X$X$X$X$X$X$X$X$X$X$X$X$X$X$X$X$X$X$X$X$X$X$X$X$X$X$X$X$X$X$X",
"$X$X$X$X$X$X$X$X$X$X$X$X$X$X$X$X$X$X$X$X$X$X$X$X$X$X$X$X$X$X$X$X$X$X$X$X$X$X$X$X$X$X$X$X$X$X$X$X$X$X$X$X$X$X$X$X$X$X$X$X$X$X$X$X$X$X$X$X$X$X$X$X$X$X$X$X$X$X$X$X",
"$X$X$X$X$X$X$X$X$X$X$X$X$X$X$X$X$X$X$X$X$X$X$X$X$X$X$X$X$X$X$X$X$X$X$X$X$X$X$X$X$X$X$X$X$X$X$X$X$X$X$X$X$X$X$X$X$X$X$X$X$X$X$X$X$X$X$X$X$X$X$X$X$X$X$X$X$X$X$X$X",
"$X$X$X$X$X$X$X$X$X$X$X$X$X$X$X$X$X$X$X$X$X$X$X$X$X$X$X$X$X$X$X$X$X$X$X$X$X$X$X$X$X$X$X$X$X$X$X$X$X$X$X$X$X$X$X$X$X$X$X$X$X$X$X$X$X$X$X$X$X$X$X$X$X$X$X$X$X$X$X$X",
"$X$X$X$X$X$X$X$X$X$X$X$X$X$X$X$X$X$X$X$X$X$X$X$X$X$X$X$X$X$X$X$X$X$X$X$X$X$X$X$X$X$X$X$X$X$X$X$X$X$X$X$X$X$X$X$X$X$X$X$X$X$X$X$X$X$X$X$X$X$X$X$X$X$X$X$X$X$X$X$X",
"$X$X$X$X$X$X$X$X$X$X$X$X$X$X$X$X$X$X$X$X$X$X$X$X$X$X$X$X$X$X$X$X$X$X$X$X$X$X$X$X$X$X$X$X$X$X$X$X$X$X$X$X$X$X$X$X$X$X$X$X$X$X$X$X$X$X$X$X$X$X$X$X$X$X$X$X$X$X$X$X",
"$X$X$X$X$X$X$X$X$X$X$X$X$X$X$X$X$X$X$X$X$X$X$X$X$X$X$X$X$X$X$X$X$X$X$X$X$X$X$X$X$X$X$X$X$X$X$X$X$X$X$X$X$X$X$X$X$X$X$X$X$X$X$X$X$X$X$X$X$X$X$X$X$X$X$X$X$X$X$X$X"
};
