/* XPM */
static char *xpm_[] = {
/* columns rows colors chars-per-pixel */
"80 80 91 1 ",
"  c #157BC0",
". c #187CC0",
"X c #197CC0",
"o c #187CC0",
"O c #187CC0",
"+ c #177CC0",
"@ c #167BC0",
"# c #0069B7",
"$ c #0C75BD",
"% c #167BBF",
"& c #1A7DC0",
"* c #1C7DC0",
"= c #1D7EC1",
"- c #2681C2",
"; c #2983C2",
": c #1A7DC0",
"> c #1A7DC0",
", c #1D7EC1",
"< c #1E7EC1",
"1 c #2682C2",
"2 c #0E78C0",
"3 c #187CC0",
"4 c #217FC1",
"5 c #1C7EC1",
"6 c #1A7DC0",
"7 c #2B83C2",
"8 c #3789C4",
"9 c #1F80C2",
"0 c #2A83C2",
"q c #3788C4",
"w c #468CC6",
"e c #4893C9",
"r c #5595C8",
"t c #639BC7",
"y c #669FD1",
"u c #57A0D1",
"i c #69A3CA",
"p c #79A7C8",
"a c #69A9D5",
"s c #78B2DA",
"d c #86AECA",
"f c #91ADC2",
"g c #97B3C6",
"h c #88B9DA",
"j c #9DBED4",
"k c #A9B9C5",
"l c #B8BDC1",
"z c #A0BFD4",
"x c #8DBEE0",
"c c #9CC0D9",
"v c #BCC2C6",
"b c #A8C0D1",
"n c #B9CCD8",
"m c #95C3E2",
"M c #A5CCE6",
"N c #AFD2E9",
"B c #B8D7EB",
"V c #CACACA",
"C c #D3CCC8",
"Z c #D9D1CC",
"A c #CED1D2",
"S c #D8D8D8",
"D c #E2DDD9",
"F c #E9E3DE",
"G c #C7D9E6",
"H c #D8DDE0",
"J c #DDE1E4",
"K c #CFE4F2",
"L c #DCEBF5",
"P c #E7E7E7",
"I c #F1EDEB",
"U c #F3F0EE",
"Y c #E2EEF6",
"T c #EBF2F7",
"R c #FEFEFE",
"E c #0776BE",
"W c #0C78BE",
"Q c #1179BF",
"! c #157BC0",
"~ c #0F79BF",
"^ c #0D77BE",
"/ c #167BC0",
"( c #167BC0",
") c #157BC0",
"_ c #006FBC",
"` c #0E78BF",
"' c #0D77BE",
"] c #0F79BF",
"[ c #0D78BF",
"{ c #0773BD",
"} c None",
/* pixels */
"}}}}}}}}}}}}}}}}}}}}}}}}}}}}}}}}}}}}}}}}}}}}}}}}}}}}}}}}}}}}}}}}}}}}}}}}}}}}}}}}",
"}}}}}}}}}}}}}}}}}}}}}}}}}}}}}}}}}}}}}}}}}}}}}}}}}}}}}}}}}}}}}}}}}}}}}}}}}}}}}}}}",
"}}}}}}}}}}}}}}}}}}}}}}}}}}}}}}}}}}}}}}}}}}}}}}}}}}}}}}}}}}}}}}}}}}}}}}}}}}}}}}}}",
"}}}}}}}}}}}}}}}}}}}}}}}}}}}}}}}}}}}}}}}}}}}}}}}}}}}}}}}}}[ 6,46}}}}}}}}}}}}}}}}}",
"}}}}}}}}}}}}}}}}}}}}}}}}}}}}}}}}}}}}}}}}}}}}}}}}}}}}[) 6,qwrar4}}}}}}}}}}}}}}}}}",
"}}}}}}}}}}}}}}}}}}}}}}}}}}}}}}}}}}}}}}}}}}}}}}}}))6,4ewryttruyq}}}}}}}}}}}}}}}}}",
"}}}}}}}}}}}}}}}}}}}}}}}}}}}}}}}}}}}}}}}}}}}[)66qeerryrrryrrrrr4}}}}}}}}}}}}}}}}}",
"}}}}}}}}}}}}}}}}}}}}}}}}}}}}}}}}}}}}}}})6644wurrurrruerrrerwrrq}}}}}}}}}}}}}}}}}",
"}}}}}}}}}}}}}}}}}}}}}}}}}}}}}}}}}})(6148wwrrrwrrwrwwrwwwwwwwww4}}}}}}}}}}}}}}}}}",
"}}}}}}}}}}}}}}}}}}}}}}}}}}}}}]~@&0qqwrrrwrwwwwwwwwwwwwwwwwwwww4}}}}}}}}}}}}}}}}}",
"}}}}}}}}}}}}}}}}}}}}}}}}])@6;qqwwwwwrwwwwwrwwwwwwwwwwwwwwwwwww8}}}}}}}}}}}}}}}}}",
"}}}}}}}}}}}}}}}}}}}}Q(610qqweewwwrwwwwwrwwwwwwwwwwwwwwwqwwqwwr4}}}}}}}}}}}}}}}}}",
"}}}}}}}}}}}}}}}}}]:44wwweewwwqwwwwwqwqw4wwqwqwwwwwwqqwqwqwwqqq4}}}}}}}}}}}}}}}}}",
"}}}}}}}}}}}}}}}}}<qqw844444439333333333333434444qqqqwwwqqqqwqw4}}}}}}}}}}}}}}}}}",
"}}}}}}}}}}}}}}}}}3333323333332333333333333333333%%24444wwqqqqw;}}}}}}}}}}}}}}}}}",
"}}}}}}}}}}}}}}}}}33333333333929933333333333433334%4%%4-444qwwr4}}}}}}}}}}}}}}}}}",
"}}}}}}}}}}}}}}}}}333%3333333332222$222$222$222$2#22222$22$900q=}}}}}}}}}}}}}}}}}",
"}}}}}}}}}}}}}}}}}3333333333%33qeeeeeeeeeeeeeeeeewwwreeeeeeequyr}}}}}}}}}}}}}}}}}",
"}}}}}}}}}}}}}}}}}333333333333$NRRRRRRRRRRRRRRRRRRRUURRRRRRRRRRR}}}}}}}}}}}}}}}}}",
"}}}}}}}}}}}}}}}}}333333333333$NRRRRRRRRRRRRRRRRRRRRRRRRRRRRRRRT}}}}}}}}}}}}}}}}}",
"}}}}}}}}}}}}}}}}}333333333333$NRRRRRRRRRRRRRRRRRRRRRRRRRRRRRRRT}}}}}}}}}}}}}}}}}",
"}}}}}}}}}}}}}}}}}32333%333333$NRRRRRRRRRRRRRRRRRRRRRRRRRRRRRRRR}}}}}}}}}}}}}}}}}",
"}}}}}}}}}}}}}}}}}333333333333$NRRRRRRRRRRRRRRRRRRRRRRRRRRRRRRRR}}}}}}}}}}}}}}}}}",
"}}}}}}}}}}}}}}}}}333333333333$NRRRRRRRRRRRRRRRRRRRRRRRRRRRRRRRR}}}}}}}}}}}}}}}}}",
"}}}}}}}}}}}}}}}}}333333333333$NRRRRRRRRRRRRRRRRRRRRRRRRRRRRRRRR}}}}}}}}}}}}}}}}}",
"}}}}}}}}}}}}}}}}}33333%333233$NRRRRRRRRRRRRRRRRRRRRRRRRRRRRRRRT}}}}}}}}}}}}}}}}}",
"}}}}}}}}}}}}}}}}}333333333339$NRRRRRRRRRRRRRRRRRRRRRRRRRRRRRRRR}}}}}}}}}}}}}}}}}",
"}}}}}}}}}}}}}}}}}%33333333339$mTLLLLLLYLLLLLLYYKTRRRRRRRRRRRRTu}}}}}}}}}}}}}}}}}",
"}}}}}}}}}}}}}}}}}33333333333333333333339333399$eYRRRRRRRRRRRKq#}}}}}}}}}}}}}}}}}",
"}}}}}}}}}}}}}}}}}3333333333333333333333333333$aRRRRRRRRRRRRM3%9}}}}}}}}}}}}}}}}}",
"}}}}}}}}}}}}}}}}}333333333%333333333333333923mRRRRRRRRRRRRs$%3%}}}}}}}}}}}}}}}}}",
"}}}}}}}}}}}}}}}}}333%333333323333333333339$qKRRRRRRRRRRRTe$399%}}}}}}}}}}}}}}}}}",
"}}}}}}}}}}}}}}}}}99$$99$$99$$99$333333333$uTRRRRRRRRRRRG023333%}}}}}}}}}}}}}}}}}",
"}}}}}}}}}}}}}}}}}$999$9999$999$93333333$2hRRRRRRRRRRRRx$293333%}}}}}}}}}}}}}}}}}",
"}}}}}}}}}}}}}}}}}3$99$$99$$99$$9333399$0BRRRRRRRRRRRLe#3933333%}}}}}}}}}}}}}}}}}",
"}}}}}}}}}}}}}}}}}39$999$$999$999333392qLRRRRRRRRRRRRKmsq2$3333%}}}}}}}}}}}}}}}}}",
"}}}}}}}}}}}}}}}}}9%3$999999$$99$33332aRRRRRRRRRRRRRRRRRRKu223%%}}}}}}}}}}}}}}}}}",
"}}}}}}}}}}}}}}}}}0339$$99$$999$93339$sRRRRRRRRRRRRRRRRRRRRKq$9%}}}}}}}}}}}}}}}}}",
"}}}}}}}}}}}}}}}}}03399$99$999$$933333$NRRRRRRRRRRRRRRRRRRRRTq2=}}}}}}}}}}}}}}}}}",
"}}}}}}}}}}}}}}}}}q33$999$99$$9993333320RRRRRRRRRRRRRRRRRRRRRRq3}}}}}}}}}}}}}}}}}",
"}}}}}}}}}}}}}}}}}q99%9%3$99$999$333399$aRRRRRRRRRRRRRRRRRRRRRB%}}}}}}}}}}}}}}}}}",
"}}}}}}}}}}}}}}}}}w0%923399$99$$933339$$$BRRRRTTTRRRRRRURRRRRURi}}}}}}}}}}}}}}}}}",
"}}}}}}}}}}}}}}}}}wq393339$$99$993333999$0TLhe000whTRURRRTRUTTRB}}}}}}}}}}}}}}}}}",
"}}}}}}}}}}}}}}}}}ww$2%33$999$99$3323$9$99q0#$99$$#qTUTTUUTURUTP}}}}}}}}}}}}}}}}}",
"}}}}}}}}}}}}}}}}}wr%93%9$99$9$$93329%9299$999$$999#aRIUTTUTTUTI}}}}}}}}}}}}}}}}}",
"}}}}}}}}}}}}}}}}}qr9$92399$999993339929999$9$9999990YUIIUUIIUUP}}}}}}}}}}}}}}}}}",
"}}}}}}}}}}}}}}}}}qr0$39%9$$9$$9$$929$9$9$9$9999$9999GUIIIIIIPIP}}}}}}}}}}}}}}}}}",
"}}}}}}}}}}}}}}}}}qi099$9$999900000000000999$9$$9$$9$GIPPYPYIPTP}}}}}}}}}}}}}}}}}",
"}}}}}}}}}}}}}}}}}ete%99%9%329ALJJJJJJJJFc$9999$999$9BIFPPPPPPPH}}}}}}}}}}}}}}}}}",
"}}}}}}}}}}}}}}}}}qrr9%%%33939HPPPFPFFPJIn$9$$$99$9$9HFFJJPPFJFH}}}}}}}}}}}}}}}}}",
"}}}}}}}}}}}}}}}}}qrr0%993%%39nFJJJJJJJJFH999999$$9$eFJDJJJJJFJS}}}}}}}}}}}}}}}}}",
"}}}}}}}}}}}}}}}}}qrre%%%3929$cFDJDDHJDDHFs#99$9999$cFHJDDDDJHPS}}}}}}}}}}}}}}}}}",
"}}}}}}}}}}}}}}}}}qrrr79$3339$iFSSHSDSSHHDDi9$9$9$$pDHHDHSHSSSSv}}}}}}}}}}}}}}}}}",
"}}}}}}}}}}}}}}}}}qrrr8$933299qSASSSSSSSSSSSbie8einFSSSSSSHDSSDp}}}}}}}}}}}}}}}}}",
"}}}}}}}}}}}}}}}}}qrrer7933339$bFASSSSSSSSSASDSSDDSASSSASSSSAAAq}}}}}}}}}}}}}}}}}",
"}}}}}}}}}}}}}}}}}8reee8%33%3$2eSAZAAAZAAAAZAAAZAAAAZAZAAAZSASd7}}}}}}}}}}}}}}}}}",
"}}}}}}}}}}}}}}}}}qeweer8$99$$9$pDVAACAAZVCCAAAACAAAVAAAVVAAAbw7}}}}}}}}}}}}}}}}}",
"}}}}}}}}}}}}}}}}}0reweew9$999999bZVVVVVVVCVVVVVVVCVVVVCVVVZvew7}}}}}}}}}}}}}}}}}",
"}}}}}}}}}}}}}}}}}qeewwweq9$99$9$9dCVVVVVVVVVVVVVVVVVVVVVVCbeqw7}}}}}}}}}}}}}}}}}",
"}}}}}}}}}}}}}}}}}8eewwwweq9$99$99$tlCVvVVVlVVVVvVVVvVVVCVp8qwq7}}}}}}}}}}}}}}}}}",
"}}}}}}}}}}}}}}}}}qeqwe8w8wq799999$99iklCVVvVlCCvvvCCVvlpwqqqqq7}}}}}}}}}}}}}}}}}",
"}}}}}}}}}}}}}}}}}0qw8qeeqeqeq799999999rpgllllllvllkfpr88qwqqqq7}}}}}}}}}}}}}}}}}",
"}}}}}}}}}}}}}}}}}qqeeqeqqeqeeqq8998q8e87qqwerrreeq870qqqqqqqqq7}}}}}}}}}}}}}}}}}",
"}}}}}}}}}}}}}}}}}7w8wq8wqqq8qqqqq8eqq8888888880q8q88qqqqqqq0qq7}}}}}}}}}}}}}}}}}",
"}}}}}}}}}}}}}}}}}0qqqqqqqqqqqqqqqqqqqqqqqqqqqqqqqqqq0qqqq0qq0q-}}}}}}}}}}}}}}}}}",
"}}}}}}}}}}}}}}}}}0wqqqqqqqqqqqqq0qqqqq0qqqq0q0q00qqqq0q0q00q0q4}}}}}}}}}}}}}}}}}",
"}}}}}}}}}}}}}}}}}&0qqqqqqqqqqqqqqq0q0qqq0q0qqq0qqq000q000q0q00;}}}}}}}}}}}}}}}}}",
"}}}}}}}}}}}}}}}}}],-00qqqq0q80q0q0qqq00qqq000q0q000qq00qq0000q3}}}}}}}}}}}}}}}}}",
"}}}}}}}}}}}}}}}}}}}_Q@6&90qqqq00q00q0q0q000q0000000000000000003}}}}}}}}}}}}}}}}}",
"}}}}}}}}}}}}}}}}}}}}}}}}[~@:&9000000000000000000000000000000004}}}}}}}}}}}}}}}}}",
"}}}}}}}}}}}}}}}}}}}}}}}}}}}}_E'6999000090000000000000000040040;}}}}}}}}}}}}}}}}}",
"}}}}}}}}}}}}}}}}}}}}}}}}}}}}}}}}[[]Q699e00090909009090990444443}}}}}}}}}}}}}}}}}",
"}}}}}}}}}}}}}}}}}}}}}}}}}}}}}}}}}}}}}}[E6:999900999999099999033}}}}}}}}}}}}}}}}}",
"}}}}}}}}}}}}}}}}}}}}}}}}}}}}}}}}}}}}}}}}}}})E6>999999999990930=}}}}}}}}}}}}}}}}}",
"}}}}}}}}}}}}}}}}}}}}}}}}}}}}}}}}}}}}}}}}}}}}}}}[)@6,9999993333=}}}}}}}}}}}}}}}}}",
"}}}}}}}}}}}}}}}}}}}}}}}}}}}}}}}}}}}}}}}}}}}}}}}}}}}}[)@:&333333}}}}}}}}}}}}}}}}}",
"}}}}}}}}}}}}}}}}}}}}}}}}}}}}}}}}}}}}}}}}}}}}}}}}}}}}}}}}})(6<36}}}}}}}}}}}}}}}}}",
"}}}}}}}}}}}}}}}}}}}}}}}}}}}}}}}}}}}}}}}}}}}}}}}}}}}}}}}}}}}}}}}}}}}}}}}}}}}}}}}}",
"}}}}}}}}}}}}}}}}}}}}}}}}}}}}}}}}}}}}}}}}}}}}}}}}}}}}}}}}}}}}}}}}}}}}}}}}}}}}}}}}",
"}}}}}}}}}}}}}}}}}}}}}}}}}}}}}}}}}}}}}}}}}}}}}}}}}}}}}}}}}}}}}}}}}}}}}}}}}}}}}}}}"
};
