/* XPM */
static char *xpm_[] = {
/* columns rows colors chars-per-pixel */
"80 80 54 1 ",
"  c #D81729",
". c #D8192B",
"X c #D91E30",
"o c #D81729",
"O c #D81729",
"+ c #D81729",
"@ c #D2000A",
"# c #D6091C",
"$ c #D60E20",
"% c #D81729",
"& c #D91F30",
"* c #D81729",
"= c #DB2839",
"- c #DC3040",
"; c #DD3645",
": c #DF414F",
"> c #E04655",
", c #E04957",
"< c #E2525F",
"1 c #E35966",
"2 c #E25462",
"3 c #E4616D",
"4 c #E56773",
"5 c #E8747F",
"6 c #E97D87",
"7 c #EA838D",
"8 c #EB8A93",
"9 c #ED969E",
"0 c #EE9CA4",
"q c #F0A5AC",
"w c #F0A4AB",
"e c #F1ADB3",
"r c #F1ACB3",
"t c #F3B7BC",
"y c #F4BCC2",
"u c #F5C5C9",
"i c #F7CED2",
"p c #F8D8DB",
"a c #FADFE2",
"s c #FBE7E9",
"d c #FFFEFE",
"f c #D81729",
"g c #D81629",
"h c #D8182A",
"j c #D81729",
"k c #D81729",
"l c #D8172A",
"z c #DA2032",
"x c #D81729",
"c c #D81729",
"v c #D81729",
"b c #D81729",
"n c #D81729",
"m c None",
/* pixels */
"mmmmmmmmmmmmmmmmmmmmmmmmmmmmmmmmmmmmmmmmmmmmmmmmmmmmmmmmmmmmmmmmmmmmmmmmmmmmmmmm",
"mmmmmmmmmmmmmmmmmmmmmmmmmmmmmmmmmmmmmmmmmmmmmmmmmmmmmmmmmmmmmmmmmmmmmmmmmmmmmmmm",
"mmmmmmmmmmmmmmmmmmmmmmmmmmmmmmmmmmmmmmmmmmmmmmmmmmmmmmmmmmmmmmmmmmmmmmmmmmmmmmmm",
"mmmmmmmmmmmmmmmmmmmmmmmmmmmmmmmmmmmmmmmmmmmmmmmmmmmmmmmmmmmmmmmmmmmmmmmmmmmmmmmm",
"mmmmmmmmmmmmmmmmmmmmmmmmmmmmmmmmmmmmmmmmmmmmmmmmmmmmmmmmmmmmmmmmmmmmmmmmmmmmmmmm",
"mmmmmmmmmmmmmmmmmmmmmmmmmmmmmmmmmmmmmmmmmmmmmmmmmmmmmmmmmmmmmmmmmmmmmmmmmmmmmmmm",
"mmmmmmmmmmmmmmmmmmmmmmmmmmmmmmmmmmmmmmmmmmmmmmmmmmmmmmmmmmmmmmmmmmmmmmmmmmmmmmmm",
"mmmmmmmmmmmmmmmmmmmmmmmmmmmmmmmmmmmmmmmmmmmmmmmmmmmmmmmmmmmmmmmmmmmmmmmmmmmmmmmm",
"mmmmmmmmmmmmmmmmmmmmmmmmmmmmmmmmmmmmmmmmmmmmmmmmmmmmmmmmmmmmmmmmmmmmmmmmmmmmmmmm",
"mmmmmmmmmmmmmmmmmmmmmmmmmmmmmmmmmmmmmmmmmmmmmmmmmmmmmmmmmmmmmmmmmmmmmmmmmmmmmmmm",
"mmmmmmmmmmmmmmmmmmmmmmmmmmmmmmmmmmmmmmmmmmmmmmmmmmmmmmmmmmmmmmmmmmmmmmmmmmmmmmmm",
"mmmmmmmmmmmmmmmmmmmmmmmmmmmmmmmmmmmmmmmmmmmmmmmmmmmmmmmmmmmmmmmmmmmmmmmmmmmmmmmm",
"mmm%%%%%%%ommj%*%%%%%%%%%%%%%%%%%%%%%%%%%%%%%%%%Ommx%%%%%%&jmmo%%%*%%%%*&%%%+mmm",
"mmm%%%%%%%ommg%%%%%%%%%%%%%%%%%%%%%%%%%%%%%%%%%%Ommx%%%%%%%fmmo%%%%%$#%%%%%%*mmm",
"mmm%%%%%%%ommj%%%%%%%%%%%%%%%%%%%%%%%%%%%%%%%%%%%mmx%%%%%%%lmmo%*%%$8i6$%%%%+mmm",
"mmm%%%%%*%ommg%%%%%%%%%%%%%%%%%%%%%%%%%%%%%%%%%%Obbg%%%%%%&xmmo%%%&$udt#&%%%*mmm",
"mmm%%%%%%%ommx%%%%%%%%%%%%%%%%%%%%%%%%%%%%%%%%%%Ommx%%%%%%&lmm*%*%%#tdr#%$%%+mmm",
"mmm%%%%%%%ombx%%%%%%%%%%%%%%%%%%%%%%%%%%%%%%%%%%Ombx%%%%%$&jmmo%%&=$ydr$&&&%*mmm",
"mmm%%%%%%%ommh&%%%%%%%%%%%%%%%%%%%%%%%%%%%%%%%%%%mmx%%%%%%%hmmo$8spaddspps7#+mmm",
"mmm%%%%%%%ommk%%%%%%%%%%%%%%%%%%%%%%%%%%%%%%%%%%Obbl%%%%%%%xmmo#tdddddddddq#*mmm",
"mmm%%%%%%%ommx%%%%%%%%%%%%%%%%%%%%%%%%%%%%%%%%%%Ommk&&%%%%&jmm+%1876adp6782$+mmm",
"mmm%%%%%%%ommx%%%%%%%%%%%%%%%%%%%%%%%%%%%%%%%%%%Ombk%%%%%%%fmmo%###@ydr@##$%+mmm",
"mmm%%%%%%%*mmg%%%%%%%%%%%%%%%%%%%%%%%%%%%%%%%%%%Ommx%%%%%%%lmmo%%&&$udr$&&%%*mmm",
"mmm%%%%%%%ombh%%%%%%%%%%%%%%%%%%%%%%%%%%%%%%%%%%Ommx%%%%%%&kmmo%%%&$idy#&$%%+mmm",
"mmm%%%%%%%omml&%%%%%%%%%%%%%%%%%%%%%%%%%%%%%%%%%%mbg%$%%%%&lmm*%%%%%<6<$*%%%+mmm",
"mmm%%%%%%%ombg%%%%%%%%%%%%%%%%%%%%%%%%%%%%%%%%%%Ombk%%%%%%&fmmO%%&%%##%&%%%%*mmm",
"mmm%%%%%%%ommx%%%%%%%%%%%%%%%%%%%%%%%%%%%%%%%%%%Ommx%%%%%%%fmmxfjjjhxf f    jmmm",
"mmm%%%%%%%ommx%%%%%%%%%%%%%%%%%%%%%%%%%%%%%%%%%%*mmv%%%%%$%xmbmmmmmmmmbmmmmmmmmm",
"mmm%%%%%%%ommx%%%%%%%%%%%%%%%%%%%%%%%%%%%%%%%%%%Ommx%%%%%%&jmmbxmbbbvvmvvvvmcmmm",
"mmm%%%%%%%ombk%%%%%%%%&%%%%%%%%%%%%%%%%%%%%%%%%%Ommx%%%%%%%fmmo%%*&&%%&%%*%%+mmm",
"mmm%%%%%%%.mvk&%%%%%%%%%%%%%%%%%%%%%%%%%%%%%%%%%%mmx%%%%%%%lmm+%%%%$#$$%%%%%*mmm",
"mmm%%%%%%%Ommx&%%%%%%%%%%%%%%%%%%%%%%%%%%%%%%%%&Obbg%%%%%%&kmmo%%%$7uur%%%%%*mmm",
"mmm%%%%%%%ommx%%%%%%%%%%%%%%%%%%%%%%%%%%%%%%%%%%ommx%%%%%%&lmm*%*%$idds&%%%%+mmm",
"mmm%%%%%%%ommx%%%%%%%%%%%%%%%%%%%%%%%%%%%%%%%%%%Omvx%%%%%%&fmmo%%%$6adp%%%%%+mmm",
"mmm%%%%%%%ommg%%%%%%%%%%%%%%%%%%%%%%%%%%%%%%%%%%*mmj%%%%%%%lmmo&%%&@6da&%%%%*mmm",
"mmm%%%%%%%*mbf%%%%%%%%%%%%%%%%%%%%%%%%%%%%%%%%%%+mmx%%%%%$%xmmo%%%%#8dp&%%%%+mmm",
"mmm%%%%%%%ommk&%%%%%%%%%%%%%%%%%%%%%%%%%%%%%%%%%*mmx&%%%%%&jmmo%%%%#7da%%%%%+mmm",
"mmm%%%%%%%ombk%%%%%%%%%%%%%%%%%%%%%%%%%%%%%%%%*%+mmj%%%%%%%fmmo%%%&#8da%%%%%*mmm",
"mmm%%%%%%%ommx%%%%%%%%%%%%%%%%%%%%%%%%%%%%%%%%%%*mmx%%%%%%%lmmo%%%%#7da%$%%%+mmm",
"mmm%%%%%%%ommx%%%%%%%%%%%%%%%%%%%%%%%%%%%%%%%%%%ommj%%%%%%&kmmo%%%%#8dp&%&%%*mmm",
"mmm%%%%%%%ommx%%&%&%%&%%&%%%&%%%%%%%%%&%%%%&%&%%$bbg%%%%%%%lmm*%%%%#8ds&%%%%Ommm",
"mmm%%%%%%%ommx&$#$#$#$$%##%$##%%%%%%$$$#$$#$$##%Omml%%%%%%&fmmo%%%%$;32%%%%%Ommm",
"mmm%%%%%%%+mmh%5uttttu3=uu;,it=%%&$,yyyyyyyyyue%Ommx%%%%%%%fmmO%&%&&%%$&%%=%$mmm",
"mmm%%%%%%&+mmg$0dddddd9;dd24dd;$%&#<dddddddddds&Ommv%%%%%%%xmmxxgxxxxxxxxxgxcmmm",
"mmm%%%%%%%+mcx#8dswwwt2;dd<3ds;$%&#<ddywsdp0ida&Ommx%%%%%%%jmmmmmmmmmmmmmmmmmmmm",
"mmm%%%%%%%.mmx#9dp$####,dd,3dd;$%%$<dd;@pd9@7ds&Ombx%%%%%%%fmmmmmmmbmbmmmmmbmmmm",
"mmm%%%%%%%+mmx#9dp$##$#,dd<3dd;$%%#<dd,$pd0@8ds&$mmx%%%%%%&lmmmmmmmmmmmmmmmmmmmm",
"mmm%%%%%%=+mm #9ds4345=:dd,2dd;$%&#<dd,#pd0@8ds&Obbg%%%%%%&fmbmmmmmmmmmmmmmmmmmm",
"mmm%%%%%%%ommk$0dddddd6;dd<2dd;$%%#2dd,$pd0@7ds&Ommx%%%%%%&lmmmmmmmmmmmmmmmmmmmm",
"mmm%%%%%%%ommx#0dssssd4;dd<4ds;#&&#2dd,#pd0@8ds&Ommx%%%%%%&fmmmmmmmmmmmmmmmmmmmm",
"mmm%%%%%%%ommx#8da====%,dd<2dd;$%%#2dd,#pd0@8ds%%bmk%%%%%%%gmmmmmmmmmmmmmmmmmmmm",
"mmm%%%%%%%ommx#9di%%%%#,dd<4dd;$&&#<dd,$pd0@8ds&Ombg%%%%%%%xmbmmmmmmmmmmmmmmmmmm",
"mmm%%%%%%&ommh%0da%%%%$,dd13dd=##$#<dd,#pd0@8ds&Ommx&&%%%%&jmmmmmmmmmmmmmmmmmmmm",
"mmm%%%%%%&ommz#9di%%%&$,dd,3dsuttu3,dd,#pd0@7da&Ombk%%%%%%%fmmmmmmmmmmmmmmmmmmmm",
"mmm%%%%%%%ommx#0ds%%%&$,dd<4dddddd0,dd,$sdw@9ds&Ommx%%%%%%%gmmmmmmmmmmmmmmmmmmmm",
"mmm%%%%%%%*mmx$2w6%%$%$;0q;;q9998q2=00;*7q2#3w8&Ommx%%%$%%&fmbmmmmmmmmmmmmmmmmmm",
"mmm%%%%%%%ommk&%%$&&%%&%#$%&#%$$##&%#%%&%$$&%#%%%bbk%&&&%%&fmbmmmmmmmmmmmmmmmmmm",
"mmm%%%%%%%ommbxxxxvxxvxxxxxxxxvxxxxxvxxvxxvxxvkxvmmnxxvxxvkcmmmmmmmmmmmmmmmmmmmm",
"mmm%%%%%%%.mmmmmmmmmbbmmmmmmmmmmmmmmmbbmmmmmbbmmmmmmmmmmmmmmmmmmmmmmmmmmmmmmmmmm",
"mmm%%%%%%%*mbbbbbbmmbbbbbbbbbbmmmvmvbnbbbmmmbnbbbmmbbbmmbbnbmmmmmmmmmmmmmmmmmmmm",
"mmm%%%%%%%%*%%$*********%$$*********%%$*******$$Ommv%O%*$$&fmmmmmmmmmmmmmmmmmmmm",
"mmm%%%%%%%%%%%%&%%%%%%%%&%%%%%%%%%%%%%%%%%&%%%%%*mbk%%%%%%%fmmmmmmmmmmmmmmmmmmmm",
"mmm%%%%%%%%%%%%%%%%%%%%%%%%%%%%%%%%%%%%%%%%%%%%%*bmx%*%%%%%gmbmmmmmmmmmmmmmmmmmm",
"mmm%%%%%%%%%%%%%%%%%%%%%%%%%%%%%%%%%%%%%%%%%%%%&Ombg%%%%%%&fmmmmmmmmmmmmmmmmmmmm",
"mmm%%%%%%%%%%%%%%%%%%%%%%%%%%%%%%%%%%%%%%%%%%%%%ombx&%%%%%%fmbmmmmmmmmmmmmmmmmmm",
"mmm%%%%%%%%%%%%%%%%%%%%%%%%%%%%%%%%%%%%%%%%%%%%%Ombx%%%%%%%xmmmmmmmmmmmmmmmmmmmm",
"mmm%%%%%%%%%%%%%%%%%%%%%%%%%%%%%%%%%%%%%%%%%%%%%+mmx%%%%%%&fmbmmmmmmmmmmmmmmmmmm",
"mmm%%%%%%%%%%%%%%%%%%%%%%%%%%%%%%%%%%%%%%%%%%%%%Ommx%%%%%%%xmmmmmmmmmmmmmmmmmmmm",
"mmmmmmmmmmmmmmmmmmmmmmmmmmmmmmmmmmmmmmmmmmmmmmmmmmmmmmmmmmmmmmmmmmmmmmmmmmmmmmmm",
"mmmmmmmmmmmmmmmmmmmmmmmmmmmmmmmmmmmmmmmmmmmmmmmmmmmmmmmmmmmmmmmmmmmmmmmmmmmmmmmm",
"mmmmmmmmmmmmmmmmmmmmmmmmmmmmmmmmmmmmmmmmmmmmmmmmmmmmmmmmmmmmmmmmmmmmmmmmmmmmmmmm",
"mmmmmmmmmmmmmmmmmmmmmmmmmmmmmmmmmmmmmmmmmmmmmmmmmmmmmmmmmmmmmmmmmmmmmmmmmmmmmmmm",
"mmmmmmmmmmmmmmmmmmmmmmmmmmmmmmmmmmmmmmmmmmmmmmmmmmmmmmmmmmmmmmmmmmmmmmmmmmmmmmmm",
"mmmmmmmmmmmmmmmmmmmmmmmmmmmmmmmmmmmmmmmmmmmmmmmmmmmmmmmmmmmmmmmmmmmmmmmmmmmmmmmm",
"mmmmmmmmmmmmmmmmmmmmmmmmmmmmmmmmmmmmmmmmmmmmmmmmmmmmmmmmmmmmmmmmmmmmmmmmmmmmmmmm",
"mmmmmmmmmmmmmmmmmmmmmmmmmmmmmmmmmmmmmmmmmmmmmmmmmmmmmmmmmmmmmmmmmmmmmmmmmmmmmmmm",
"mmmmmmmmmmmmmmmmmmmmmmmmmmmmmmmmmmmmmmmmmmmmmmmmmmmmmmmmmmmmmmmmmmmmmmmmmmmmmmmm",
"mmmmmmmmmmmmmmmmmmmmmmmmmmmmmmmmmmmmmmmmmmmmmmmmmmmmmmmmmmmmmmmmmmmmmmmmmmmmmmmm",
"mmmmmmmmmmmmmmmmmmmmmmmmmmmmmmmmmmmmmmmmmmmmmmmmmmmmmmmmmmmmmmmmmmmmmmmmmmmmmmmm",
"mmmmmmmmmmmmmmmmmmmmmmmmmmmmmmmmmmmmmmmmmmmmmmmmmmmmmmmmmmmmmmmmmmmmmmmmmmmmmmmm"
};
