/* XPM */
static char *xpm_[] = {
/* columns rows colors chars-per-pixel */
"80 80 218 2 ",
"   c #FFAE00",
".  c #FFAE00",
"X  c #FFAE00",
"o  c #FFAE00",
"O  c #FFAE00",
"+  c #FFAE00",
"@  c #FFAE00",
"#  c #FFAE00",
"$  c #FFAE00",
"%  c #FFAE00",
"&  c #FFAE00",
"*  c #FFAE00",
"=  c #FFAE00",
"-  c #FFAE00",
";  c #FFAE00",
":  c #FFAE00",
">  c #FFAE00",
",  c #FFAE00",
"<  c #FFAE00",
"1  c #FFAE00",
"2  c #FFAE00",
"3  c #FFAE00",
"4  c #FFAE00",
"5  c #FFAE00",
"6  c #FFAE00",
"7  c #FFAE00",
"8  c #FFAE00",
"9  c #FFAE00",
"0  c #FFAE00",
"q  c #FFAE00",
"w  c #FFAE00",
"e  c #FFAE00",
"r  c #FFAE00",
"t  c #FFAE00",
"y  c #FFAE00",
"u  c #FFAE00",
"i  c #FFAE00",
"p  c #FFAE00",
"a  c #FFAE00",
"s  c #FFAE00",
"d  c #FFAE00",
"f  c #FFAE00",
"g  c #FFAE00",
"h  c #FFAE00",
"j  c #FFAE00",
"k  c #FFAE00",
"l  c #FFAE00",
"z  c #FFAE00",
"x  c #FFAE00",
"c  c #FFAE00",
"v  c #FFAE00",
"b  c #FFAE00",
"n  c #FFAE00",
"m  c #FFAE00",
"M  c #FFAE00",
"N  c #FFAE00",
"B  c #FFAE00",
"V  c #FFAE00",
"C  c #FFAE00",
"Z  c #FFAE00",
"A  c #FFAE00",
"S  c #FFAE00",
"D  c #FFAE00",
"F  c #FFAE00",
"G  c #FFAE00",
"H  c #FFAE00",
"J  c #FFAE00",
"K  c #FFAE00",
"L  c #FFAE00",
"P  c #FFAE00",
"I  c #FFAE00",
"U  c #FFAE00",
"Y  c #FFAE00",
"T  c #FFAE00",
"R  c #FFAE00",
"E  c #FFAE00",
"W  c #FFAE00",
"Q  c #FFAE00",
"!  c #FFAE00",
"~  c #FFAE00",
"^  c #FFAE00",
"/  c #FFAE00",
"(  c #FFAE00",
")  c #FFAE00",
"_  c #FFAE00",
"`  c #FFAE00",
"'  c #FFAE00",
"]  c #FFAE00",
"[  c #FFAE00",
"{  c #FFAE00",
"}  c #FFAE00",
"|  c #FFAE00",
" . c #FFAE00",
".. c #FFAE00",
"X. c #FFAE00",
"o. c #FFAE00",
"O. c #FFAE00",
"+. c #FFAE00",
"@. c #FFAE00",
"#. c #FFAE00",
"$. c #FFAE00",
"%. c #FFAE00",
"&. c #FFAE00",
"*. c #FFAE00",
"=. c #FFAE00",
"-. c #FFAE00",
";. c #FFAE00",
":. c #FFAE00",
">. c #FFAE00",
",. c #FFAE00",
"<. c #FFAE00",
"1. c #FFAE00",
"2. c #FFAE00",
"3. c #FFAE00",
"4. c #FFAE00",
"5. c #FFAE00",
"6. c #FFAE00",
"7. c #FFAE00",
"8. c #FFAE00",
"9. c #FFAE00",
"0. c #FFAE00",
"q. c #FFAE00",
"w. c #FFAE00",
"e. c #FFAE00",
"r. c #FFAE00",
"t. c #FFAE00",
"y. c #FFAE00",
"u. c #FFAE00",
"i. c #FFAE00",
"p. c #FFAE00",
"a. c #FFAE00",
"s. c #FFAE00",
"d. c #FFAE00",
"f. c #FFAE00",
"g. c #FFAE00",
"h. c #FFAE00",
"j. c #FFAE00",
"k. c #FFAE00",
"l. c #FFAE00",
"z. c #FFAE00",
"x. c #FFAE00",
"c. c #FFAE00",
"v. c #FFAE00",
"b. c #FFAE00",
"n. c #FFAE00",
"m. c #FFAE00",
"M. c #FFAE00",
"N. c #FFAE00",
"B. c #FFAE00",
"V. c #FFAE00",
"C. c #FFAE00",
"Z. c #FFAE00",
"A. c #FFAE00",
"S. c #FFAE00",
"D. c #FFAE00",
"F. c #FFAE00",
"G. c #FFAE00",
"H. c #FFAE00",
"J. c #FFAE00",
"K. c #FFAE00",
"L. c #FFAE00",
"P. c #FFAE00",
"I. c #FFAE00",
"U. c #FFAE00",
"Y. c #FFAE00",
"T. c #FFAE00",
"R. c #FFAE00",
"E. c #FFAE00",
"W. c #FFAE00",
"Q. c #FFAE00",
"!. c #FFAE00",
"~. c #FFAE00",
"^. c #FFAE00",
"/. c #FFAE00",
"(. c #FFAE00",
"). c #FFAE00",
"_. c #FFAE00",
"`. c #FFAE00",
"'. c #FFAE00",
"]. c #FFAE00",
"[. c #FFAE00",
"{. c #FFAE00",
"}. c #FFAE00",
"|. c #FFAE00",
" X c #FFAE00",
".X c #FFAE00",
"XX c #FFAE00",
"oX c #FFAE00",
"OX c #FFAE00",
"+X c #FFAE00",
"@X c #FFAE00",
"#X c #FFAE00",
"$X c #FFAE00",
"%X c #FFAE00",
"&X c #FFAE00",
"*X c #FFAE00",
"=X c #FFAE00",
"-X c #FFAE00",
";X c #FFAE00",
":X c #FFAE00",
">X c #FFAE00",
",X c #FFAF00",
"<X c #FFAF00",
"1X c #FFAE00",
"2X c #FFAE00",
"3X c #FFAE00",
"4X c #FFAE00",
"5X c #FFAE00",
"6X c #FFAE00",
"7X c #FFAE00",
"8X c #FFAE00",
"9X c #FFAE00",
"0X c #FFAE00",
"qX c #FFAE00",
"wX c #FFAE00",
"eX c #FFAE00",
"rX c #FFAE00",
"tX c None",
/* pixels */
"tXtXtXtXtXtXtXtXtXtXtXtXtXtXtXtXtXtXtXtXtXtXtXtXtXtXtXtXtXtXtXtXtXtXtXtXtXtXtXtXtXtXtXtXtXtXtXtXtXtXtXtXtXtXtXtXtXtXtXtXtXtXtXtXtXtXtXtXtXtXtXtXtXtXtXtXtXtXtXtX",
"tXtXtXtXtXtXtXtXtXtXtXtXtXtXtXtXtXtXtXtXtXtXtXtXtXtXtXtXtXtXtXtXtXtXtXtXtXtXtXtXtXtXtXtXtXtXtXtXtXtXtXtXtXtXtXtXtXtXtXtXtXtXtXtXtXtXtXtXtXtXtXtXtXtXtXtXtXtXtXtX",
"tXtXtXtXtXtXtXtXtXtXtXtXtXtXtXtXtXtXtXtXtXtXtXtXtXtXtXtXtXtXtXtXtXtXtXtXtXtXtXtXtXtXtXtXtXtXtXtXtXtXtXtXtXtXtXtXtXtXtXtXtXtXtXtXtXtXtXtXtXtXtXtXtXtXtXtXtXtXtXtX",
"tXtXtXtXtXtXtXtXtXtXtXtXtXtXtXtXtXtXtXtXtXtXtXtXtXtXtXtXtXtXtXtXtXtXtXtXtXtXtXtXtXtXtXtXtXtXtXtXtXtXtXtXtXtXtXtXtXtXtXtXtXtXtXtXtXtXtXtXtXtXtXtXtXtXtXtXtXtXtXtX",
"tXtXtXtXtXtXtXtXtXtXtXtXtXtXtXtXtXtXtXtXtXtXtXtXtXtXtXtXtXtXtXtXtXtXtXtXtXtXtXtXtXtXtXtXtXtXtXtXtXtXtXtXtXtXtXtXtXtXtXtXtXtXtXtXtXtXtXtXtXtXtXtXtXtXtXtXtXtXtXtX",
"tXtXtXtXtXtXtXtXtXtXtXtXtXtXtXtXtXtXtXtXtXtXtXtXtXtXtXtXtXtXtXtXtXtXtXtXtXtXtXtXtXtXtXtXtXtXtXtXtXtXtXtXtXtXtXtXtXtXtXtXtXtXtXtXtXtXtXtXtXtXtXtXtXtXtXtXtXtXtXtX",
"tXtXtXtXtXtXtXtXtXtXtXtXtXtXtXtXtXtXtXtXtXtXtXtXtXtXtXtXtXtXtXtXtXtXtXtXtXtXtXtXtXtXtXtXtXtXtXtXtXtXtXtXtXtXtXtXtXtXtXtXtXtXtXtXtXtXtXtXtXtXtXtXtXtXtXtXtXtXtXtX",
"tXtXtXtXtXtXtXtXtXtXtXtXtXtXtXtXtXtXtXtXtXtXtXtXtXtXtXtXtXtXtXtXtXtXtXtXtXtXtXtXtXtXtXtXtXtXtXtXtXtXtXtXtXtXtXtXtXtXtXtXtXtXtXtXtXtXtXtXtXtXtXtXtXtXtXtXtXtXtXtX",
"tXtXtXtXtXtXtXtXtXtXtXtXtXtXtXtXtXtXtXtXtXtXtXtXtXtXtXtXtXtXtXtXtXtXtXtXtXtXtXtXtXtXtXtXtXtXtXtXtXtXtXtXtXtXtXtXtXtXtXtXtXtXtXtXtXtXtXtXtXtXtXtXtXtXtXtXtXtXtXtX",
"tXtXtXtXtXtXtXtXtXtXtXtXtXtXtXtXtXtXtXtXtXtXtXtXtXtXtXtXtXtXtXtXtXtXtXtXtXtXtXtXtXtXtXtXtXtXtXtXtXtXtXtXtXtXtXtXtXtXtXtXtXtXtXtXtXtXtXtXtXtXtXtXtXtXtXtXtXtXtXtX",
"tXtXtXtXtXtXtXtXtXtXtXtXtXtXtXtXtXtXtXtXtXtXtXtXtXtXtXtXtXtXtXtXtXtXtXtXtXtXtXtXtXtXtXtXtXtXtXtXtXtXtXtXtXtXtXtXtXtXtXtXtXtXtXtXtXtXtXtXtXtXtXtXtXtXtXtXtXtXtXtX",
"tXtXtXtXtXtXtXtXtXtXtXtXtXtXtXtXtXtXtXtXtXtXtXtXtXtXtXtXtXtXtXtXtXtXtXtXtXtXtXtXtXtXtXtXtXtXtXtXtXtXtXtXtXtXtXtXtXtXtXtXtXtXtXtXtXtXtXtXtXtXtXtXtXtXtXtXtXtXtXtX",
"tXtXtXtXtXtXtXtXtXtXtXtXtXtXtXtXtXtXtXtXtXtXtXtXtXtXtXtXtXtXtXtXtXtXtXtXtXtXtXtXtXtXtXtXtXtXtXtXtXtXtXtXtXtXtXtXtXtXtXtXtXtXtXtXtXtXtXtXtXtXtXtXtXtXtXtXtXtXtXtX",
"tXtXtXtXtXtXtXtXtXtXtXtXtXtXtXtXtXtXtXtXtXtXtXtXtXtXtXtXtXtXtXtXtXtXtXtXtXtXtXtXtXtXtXtXtXtXtXtXtXtXtXtXtXtXtXtXtXtXtXtXtXtXtXtXtXtXtXtXtXtXtXtXtXtXtXtXtXtXtXtX",
"tXtXtXtXtXtXtXtXtXtXtXtXtXtXtXtXtXtXtXtXtXtXtXtXtXtXtXtXtXtXtXtXtXtXtXtXtXtXtXtXtXtXtXtXtXtXtXtXtXtXtXtXtXtXtXtXtXtXtXtXtXtXtXtXtXtXtXtXtXtXtXtXtXtXtXtXtXtXtXtX",
"tXtXtXtXtXtXtXtXtXtXtXtXtXtXtXtXtXtXtXtXtXtXtXtXtXtXtXtXtXtXtXtXtXtXtXtXtXtXtXtXtXtXtXtXtXtXtXtXtXtXtXtXtXtXtXtXtXtXtXtXtXtXtXtXtXtXtXtXtXtXtXtXtXtXtXtXtXtXtXtX",
"tXtXtXtXtXtXtXtXtXtXtXtXtXtXtXtXtXtXtXtXtXtXtXtXtXtXtXtXtXtXtXtXtXtXtXtXtXtXtXtXtXtXtXtXtXtXtXtXtXtXtXtXtXtXtXtXtXtXtXtXtXtXtXtXtXtXtXtXtXtXtXtXtXtXtXtXtXtXtXtX",
"tXtXtXtXtXtXtXtXtXtXtXtXtXtXtXtXtXtXtXtXtXtXtXtXtXtXtXtXtXtXtXtXtXtXtXtXtXtXtXtXtXtXtXtXtXtXtXtXtXtXtXtXtXtXtXtXtXtXtXtXtXtXtXtXtXtXtXtXtXtXtXtXtXtXtXtXtXtXtXtX",
"tXtXtXtXtXtXtXtXtXtXtXtXtXtXtXtXtXtXtXtXtXtXtXtXtXtXtXtXtXtXtXtXtXtXtXtXtXtXtXtXtXtXtXtXtXtXtXtXtXtXtXtXtXtXtXtXtXtXtXtXtXtXtXtXtXtXtXtXtXtXtXtXtXtXtXtXtXtXtXtX",
"tXtXtXtXtXtXtXtXtXtXtXtXtXtXtXtXtXtXtXtXtXtXtXtXtXtXtXtXtXtXtXtXtXtXtXtXtXtXtXtXtXtXtXtXtXtXtXtXtXtXtXtXtXtXtXtXtXtXtXtXtXtXtXtXtXtXtXtXtXtXtXtXtXtXtXtXtXtXtXtX",
"tXtXtXtXtXtXtXtXtXtXtXtXtXtXtXtXtXtXtXtXtXtXtXtXtXtXtXtXtXtXtXtXtXtXtXtXtXtXtXtXtXtXtXtXtXtXtXtXtXtXtXtXtXtXtXtXtXtXtXtXtXtXtXtXtXtXtXtXtXtXtXtXtXtXtXtXtXtXtXtX",
"tXtXtXtXtXtXtXtXtXtXtXtXtXtXtXtXtXtXtXtXtXtXtXtXtXtXtXtXtXtXtXtXtXtXtXtXtXtXtXtXtXtXtXtXtXtXtXtXtXtXtXtXtXtXtXtXtXtXtXtXtXtXtXtXtXtXtXtXtXtXtXtXtXtXtXtXtXtXtXtX",
"tXtXtXtXtXtXtXtXtXtXtXtXtXtXtXtXtXtXtXtXtXtXtXtXtXtXtXtXtXtXtXtXtXtXtXtXtXtXtXtXtXtXtXtXtXtXtXtXtXtXtXtXtXtXtXtXtXtXtXtXtXtXtXtXtXtXtXtXtXtXtXtXtXtXtXtXtXtXtXtX",
"tXtXtXtXtXtXtXtXtXtXtXtXtXtXtXtXtXtXtXtXtXtXtXtXtXtXtXtXtXtXtXtXtXtXtXtXtXtXtXtXtXtXtXtXtXtXtXtXtXtXtXtXtXtXtXtXtXtXtXtXtXtXtXtXtXtXtXtXtXtXtXtXtXtXtXtXtXtXtXtX",
"tXtXtXtXtXtXtXtXtXtXtXtXtXtXtXtXtXtXtXtXtXtXtXtXtXtXtXtXtXtXtXtXtXtXtXtXtXtXtXtXtXtXtXtXtXtXtXtXtXtXtXtXtXtXtXtXtXtXtXtXtXtXtXtXtXtXtXtXtXtXtXtXtXtXtXtXtXtXtXtX",
"tXtXtXtXtXtXtXtXtXtXtXtXtXtXtXtXtXtXtXtXtXtXtXtXtXtXtXtXtXtXtXtXtXtXtXtXtXtXtXtXtXtXtXtXtXtXtXtXtXtXtXtXtXtXtXtXtXtXtXtXtXtXtXtXtXtXtXtXtXtXtXtXtXtXtXtXtXtXtXtX",
"tXtXtXtXtXtXtXtXtXtXtXtXtXtXtXtXtXtXtXtXtXtXtXtXtXtXtXtXtXtXtXtXtXtXtXtXtXtXtXtXtXtXtXtXtXtXtXtXtXtXtXtXtXtXtXtXtXtXtXtXtXtXtXtXtXtXtXtXtXtXtXtXtXtXtXtXtXtXtXtX",
"tXtXtXtXtXtXtXtXtXtXtXtXtXtXtXtXtXtXtXtXtXtXtXtXtXtXtXtXtXtXtXtXtXtXtXtXtXtXtXtXtXtXtXtXtXtXtXtXtXtXtXtXtXtXtXtXtXtXtXtXtXtXtXtXtXtXtXtXtXtXtXtXtXtXtXtXtXtXtXtX",
"tXtXtXtXtXtXtXtXtXtXtXtXtXtXtXtXtXtXtXtXtXtXtXtXtXtXtXtXtXtXtXtXtXtXtXtXtXtXtXtXtXtXtXtXtXtXtXtXtXtXtXtXtXtXtXtXtXtXtXtXtXtXtXtXtXtXtXtXtXtXtXtXtXtXtXtXtXtXtXtX",
"tXtXtXtXtXtXtXtXtXtXtXtXtXtXtXtXtXtXtXtXtXtXtXtXtXtXtXtXtXtXtXtXtXtXtXtXtXtXtXtXtXtXtXtXtXtXtXtXtXtXtXtXtXtXtXtXtXtXtXtXtXtXtXtXtXtXtXtXtXtXtXtXtXtXtXtXtXtXtXtX",
"tXtXtXtXtXtXtXtXtXtXtXtXtXtXtXtXtXtXtXtXtXtXtXtXtXtXtXtXtXtXtXtXtXtXtXtXtXtXtXtXtXtXtXtXtXtXtXtXtXtXtXtXtXtXtXtXtXtXtXtXtXtXtXtXtXtXtXtXtXtXtXtXtXtXtXtXtXtXtXtX",
"tXtXtXtXtXtXtXtXtXtXtXtXtXtXtXtXtXtXtXtXtXtXtXtXtXtXtXtXtXtXtXtXtXtXtXtXtXtXtXtXtXtXtXtXtXtXtXtXtXtXtXtXtXtXtXtXtXtXtXtXtXtXtXtXtXtXtXtXtXtXtXtXtXtXtXtXtXtXtXtX",
"tXtXtX<.<.<.<.<.i y z n *XrX6XwX7XE.(.<.y '.3X9XtX<.<.<.<.<.rXrXtXn 4 4 8 8 R.tXeXtXtXeXeXK.G n tXtXtXtXtXtXeXeXeXeX0X0XrXrXrXrX4X5X5XwXwXwX0X0X0XrXrXrXtXtXtXtX",
"tXtXtXG -.F D G G G G G <.0XwX*XL G G G G G G u.eX<.m G ! G (.rXS.G G G G <.tXeXtXtXtXeXtXK.G G.tXtXtXtXtXtXtXtXtXeX0X0XrXrXrXrX4X8XwXwX0X0X0XwXrX0X0XrXtXtXtXtX",
"tXtXtXG ( F G G G G G G ).qX<.m G G G G G G G G <.wXG G W G D 7XD G Y G G qXtXeXtXtXtXeXtX6.G n eXeXtXtXtXtX{.qXeXqXwXwXtXtXwX{.-X7X8X5X7X7X>X7X9X6XrXrXrXtXtXtX",
"tXtXtXG G G G G G G G G 8 t.G G G G G * G G G G G <.{.G L G G ! G G Y G G.eXeXeXtXtXtXtXtXt.G n tXeXtXtXtXeX>.G ,XqXqXwXtXtXn G a.wXG G G G G G G :.{.rXtXtXtXtX",
"tXtXtXG G G G O.<.<.<.<._.G G G G G <.tXg.G G G ( G !.&.G G G G G G G ] 0X0X0XrXtXtXtXtXtXK.G 8 tXeXeXeXeXrX] G K.0X0X0XtXtX8 G ).7XG G ..-.&...G G G n 4XwXtXtX",
"tXtXtXG G G G T.tXtXtXtX<.G G G G G i.tX%XG G G G G { Q.G G G G G G G G.0X0XeXeXtXtXtXtXtXK.G 8 eXeXeXeXeX0X<.G :X0X0X0XtXtX8 G <.9XG ! 0XrXrX0X;X_.G G n wXtXtX",
"tXtXtXG G G G <.L.<.<.,XX G F G ( G <.tX{.G G G G G G 8Xz G G G ( G >.wXeXeXeXeXtXtXtXtXtXK.G 8 eX0XeXeXeX0X] G K.tXwXqXwXeX8 G U.4XG D qX0X0X0X9X6Xg.G G rXrXtX",
"tXtXtXG G G G G G G G <.- F F G U D <.tX*XG G G G G G }.4XG G G G G ,XeX0XeXeXeXtXtXtXtXtXK.G t.eXrXeXeXeX0X] G ) X.B B T | T G <.0XG F qX0X0X0X7X6X#XG G rXtXtX",
"tXtXtXG G G G G G G G <.c G F G U G f.6XI.G G G G G G @Xg.G G G G G K.tXqXwX0X0XrXrXrX0XtXt.G n eXrXeXeXeXeXo.G G G G G G G G G <.tXG D tXtX0X0X9X7X3XG G tXtXtX",
"tXtXtXG G G G G G G G <.s G F G U G <.5X).G G G G G G 1XG G G G L G G qXwXwX0X0XrXrXrX0XtXK.G n eXrXeXeXeXeXo.G K.qX1X8X>X7X<.G a.rXG m wXtXqXwX7X:XW.G G tXtXtX",
"tXtXtXG G G G *.X :.G /.<.G G G U G r.6X}.G G G G G <.<.G G G G G G G 8 wXqXtXtXrXrXrX0XtXK.G 8 eXrXeXeXeXeX| G 3XtXtXtXtXtXr.G <.tXG F rXeXeX0X6XXX-.G $ rXtXtX",
"tXtXtXG G G G _.eX0X0X0XrXG G G G G s 9Xg.G G G G G ).G G G G G G G G G 3XtXtXtXrXrXrX0XtXK.G 8 rXrXeXeXeXeXD G K.tXeXtXeXtX<.G g.rXG G <.<.<.d.$ G G G <XrXtXtX",
"tXtXtXG G G G '.0XwX0X0X5X'.G G G G G * G G G G G c $ G G G G <.G G G G <.tXtXtXrXeXrX0XrXK.G 8 rXwXrXrXrX0XU G .XrX0X0XeXtX<./ <.tXG G G G G G G G j <XtXtXtXtX",
"tXtXtXG G G / <.0XwX0X0X5XtX<.G G G G F G G G G + {.G G G G z qX<.G W W / K.tXtXeXeXrX0XtXK.G 8 rXrXrXrX0X0X$Xg.;XrX0X0XeXtX=XL.@X0XU.g._.g.`._.E.<X7X7XrXtXtXtX",
"tXtX5XG G G F '.eX0X0X0X5X5X6X{.:.G L F G G ! (.;XG G G G G ,X5X{.G G W G <.0XtXeXeXeXrXtXK.L = rXwXrXeXwX0XqXqX9X9XwXwXqX6X7X8XwX0XwX6X:X7XwX0XwXwX9X4XtXtXtXtX",
"tXtXqX< h % ..U.0X0X0X0XwXwX4X6X9X%X<.q.<.(.3X9XT.:.z 4 -.(.eXrXtXK.<.<.<.<.K.tXrXeXeXrXtXt.G t.rXrXeXeXwXwXqX6X6X6XwXqXqX6X9X8XwXwX6X9X9X7X6XwXwXqXwX6XtXtXtXtX",
"tXtXtXtXtXtXtXtXtXtXtXtXtXtXtXtXtXtXtXtXtXtXtXtXtXtXtXtXtXtXtXtXtXtXtXtXtXtXtXtXtXtXtXtXtXtXtXtXrXeXeXeXtXtXtXtXtXtXtXtXtXtXtXtXtXtXtXtXtXtXtXtXtXtXtXtXtXtXtXtX",
"tXtXtXtXtXtXtXtXtXtXtXtXtXtXtXtXtXtXtXtXtXtXtXtXtXtXtXtXtXtXtXtXtXtXtXtXtXtXtXtXtXtXtXtXtXtXtXtXeXeXeXeXtXtXtXtXtXtXtXtXtXtXtXtXtXtXtXtXtXtXtXtXtXtXtXtXtXtXtXtX",
"tXtXtXtXtXtXtXtXtXtXtXtXtXtXtXtXtXtXtXtXtXtXtXtXtXtXtXtXtXtXtXtXtXtXtXtXtXtXtXtXtXtXtXtXtXtXtXtXeXeXeXeXtXtXtXtXtXtXtXtXtXtXtXtXtXtXtXtXtXtXtXtXtXtXtXtXtXtXtXtX",
"tXtXtXtXtXtXtXtXtXtXtXtXtXtXtXtXtXtXtXtXtXtXtXtXtXtXtXtXtXtXtXtXtXtXtXtXtXtXtXtXtXtXtXtXtXtXtXtXeXeXeXeXtXtXtXtXtXtXtXtXtXtXtXtXtXtXtXtXtXtXtXtXtXtXtXtXtXtXtXtX",
"tXtXtXtXtXtXtXtXtXtXtXtXtXtXtXtXtXtXtXtXtXtXtXtXtXtXtXtXtXtXtXtXtXtXtXtXtXtXtXtXtXtXtXtXtXtXtXtXeXeXtXtXtXtXtXtXtXtXtXtXtXtXtXtXtXtXtXtXtXtXtXtXtXtXtXtXtXtXtXtX",
"tXtXtXtXtXtXtXtXtXtXtXtXtXtXtXtXtXtXtXtXtXtXtXtXtXtXtXtXtXtXtXtXtXtXtXtXtXtXtXtXtXtXtXtXtXtXtXtXtXtXtXtXtXtXtXtXtXtXtXtXtXtXtXtXtXtXtXtXtXtXtXtXtXtXtXtXtXtXtXtX",
"tXtXtXtXtXtXtXtXtXtXtXtXtXtXtXtXtXtXtXtXtXtXtXtXtXtXtXtXtXtXtXtXtXtXtXtXtXtXtXtXtXtXtXtXtXtXtXtXtXtXtXtXtXtXtXtXtXtXtXtXtXtXtXtXtXtXtXtXtXtXtXtXtXtXtXtXtXtXtXtX",
"tXtXtXtXtXtXtXtXtXtXtXtXtXtXtXtXtXtXtXtXtXtXtXtXtXtXtXtXtXtXtXtXtXtXtXtXtXtXtXtXtXtXtXtXtXtXtXtXtXtXtXtXtXtXtXtXtXtXtXtXtXtXtXtXtXtXtXtXtXtXtXtXtXtXtXtXtXtXtXtX",
"tXtXtXtXtXtXtXtXtXtXtXtXtXtXtXtXtXtXtXtXtXtXtXtXtXtXtXtXtXtXtXtXtXtXtXtXtXtXtXtXtXtXtXtXtXtXtXtXtXtXtXtXtXtXtXtXtXtXtXtXtXtXtXtXtXtXtXtXtXtXtXtXtXtXtXtXtXtXtXtX",
"tXtXtXtXtXtXtXtXtXtXtXtXtXtXtXtXtXtXtXtXtXtXtXtXtXtXtXtXtXtXtXtXtXtXtXtXtXtXtXtXtXtXtXtXtXtXtXtXtXtXtXtXtXtXtXtXtXtXtXtXtXtXtXtXtXtXtXtXtXtXtXtXtXtXtXtXtXtXtXtX",
"tXtXtXtXtXtXtXtXtXtXtXtXtXtXtXtXtXtXtXtXtXtXtXtXtXtXtXtXtXtXtXtXtXtXtXtXtXtXtXtXtXtXtXtXtXtXtXtXtXtXtXtXtXtXtXtXtXtXtXtXtXtXtXtXtXtXtXtXtXtXtXtXtXtXtXtXtXtXtXtX",
"tXtXtXtXtXtXtXtXtXtXtXtXtXtXtXtXtXtXtXtXtXtXtXtXtXtXtXtXtXtXtXtXtXtXtXtXtXtXtXtXtXtXtXtXtXtXtXtXtXtXtXtXtXtXtXtXtXtXtXtXtXtXtXtXtXtXtXtXtXtXtXtXtXtXtXtXtXtXtXtX",
"tXtXtXtXtXtXtXtXtXtXtXtXtXtXtXtXtXtXtXtXtXtXtXtXtXtXtXtXtXtXtXtXtXtXtXtXtXtXtXtXtXtXtXtXtXtXtXtXtXtXtXtXtXtXtXtXtXtXtXtXtXtXtXtXtXtXtXtXtXtXtXtXtXtXtXtXtXtXtXtX",
"tXtXtXtXtXtXtXtXtXtXtXtXtXtXtXtXtXtXtXtXtXtXtXtXtXtXtXtXtXtXtXtXtXtXtXtXtXtXtXtXtXtXtXtXtXtXtXtXtXtXtXtXtXtXtXtXtXtXtXtXtXtXtXtXtXtXtXtXtXtXtXtXtXtXtXtXtXtXtXtX",
"tXtXtXtXtXtXtXtXtXtXtXtXtXtXtXtXtXtXtXtXtXtXtXtXtXtXtXtXtXtXtXtXtXtXtXtXtXtXtXtXtXtXtXtXtXtXtXtXtXtXtXtXtXtXtXtXtXtXtXtXtXtXtXtXtXtXtXtXtXtXtXtXtXtXtXtXtXtXtXtX",
"tXtXtXtXtXtXtXtXtXtXtXtXtXtXtXtXtXtXtXtXtXtXtXtXtXtXtXtXtXtXtXtXtXtXtXtXtXtXtXtXtXtXtXtXtXtXtXtXtXtXtXtXtXtXtXtXtXtXtXtXtXtXtXtXtXtXtXtXtXtXtXtXtXtXtXtXtXtXtXtX",
"tXtXtXtXtXtXtXtXtXtXtXtXtXtXtXtXtXtXtXtXtXtXtXtXtXtXtXtXtXtXtXtXtXtXtXtXtXtXtXtXtXtXtXtXtXtXtXtXtXtXtXtXtXtXtXtXtXtXtXtXtXtXtXtXtXtXtXtXtXtXtXtXtXtXtXtXtXtXtXtX",
"tXtXtXtXtXtXtXtXtXtXtXtXtXtXtXtXtXtXtXtXtXtXtXtXtXtXtXtXtXtXtXtXtXtXtXtXtXtXtXtXtXtXtXtXtXtXtXtXtXtXtXtXtXtXtXtXtXtXtXtXtXtXtXtXtXtXtXtXtXtXtXtXtXtXtXtXtXtXtXtX",
"tXtXtXtXtXtXtXtXtXtXtXtXtXtXtXtXtXtXtXtXtXtXtXtXtXtXtXtXtXtXtXtXtXtXtXtXtXtXtXtXtXtXtXtXtXtXtXtXtXtXtXtXtXtXtXtXtXtXtXtXtXtXtXtXtXtXtXtXtXtXtXtXtXtXtXtXtXtXtXtX",
"tXtXtXtXtXtXtXtXtXtXtXtXtXtXtXtXtXtXtXtXtXtXtXtXtXtXtXtXtXtXtXtXtXtXtXtXtXtXtXtXtXtXtXtXtXtXtXtXtXtXtXtXtXtXtXtXtXtXtXtXtXtXtXtXtXtXtXtXtXtXtXtXtXtXtXtXtXtXtXtX",
"tXtXtXtXtXtXtXtXtXtXtXtXtXtXtXtXtXtXtXtXtXtXtXtXtXtXtXtXtXtXtXtXtXtXtXtXtXtXtXtXtXtXtXtXtXtXtXtXtXtXtXtXtXtXtXtXtXtXtXtXtXtXtXtXtXtXtXtXtXtXtXtXtXtXtXtXtXtXtXtX",
"tXtXtXtXtXtXtXtXtXtXtXtXtXtXtXtXtXtXtXtXtXtXtXtXtXtXtXtXtXtXtXtXtXtXtXtXtXtXtXtXtXtXtXtXtXtXtXtXtXtXtXtXtXtXtXtXtXtXtXtXtXtXtXtXtXtXtXtXtXtXtXtXtXtXtXtXtXtXtXtX",
"tXtXtXtXtXtXtXtXtXtXtXtXtXtXtXtXtXtXtXtXtXtXtXtXtXtXtXtXtXtXtXtXtXtXtXtXtXtXtXtXtXtXtXtXtXtXtXtXtXtXtXtXtXtXtXtXtXtXtXtXtXtXtXtXtXtXtXtXtXtXtXtXtXtXtXtXtXtXtXtX",
"tXtXtXtXtXtXtXtXtXtXtXtXtXtXtXtXtXtXtXtXtXtXtXtXtXtXtXtXtXtXtXtXtXtXtXtXtXtXtXtXtXtXtXtXtXtXtXtXtXtXtXtXtXtXtXtXtXtXtXtXtXtXtXtXtXtXtXtXtXtXtXtXtXtXtXtXtXtXtXtX",
"tXtXtXtXtXtXtXtXtXtXtXtXtXtXtXtXtXtXtXtXtXtXtXtXtXtXtXtXtXtXtXtXtXtXtXtXtXtXtXtXtXtXtXtXtXtXtXtXtXtXtXtXtXtXtXtXtXtXtXtXtXtXtXtXtXtXtXtXtXtXtXtXtXtXtXtXtXtXtXtX",
"tXtXtXtXtXtXtXtXtXtXtXtXtXtXtXtXtXtXtXtXtXtXtXtXtXtXtXtXtXtXtXtXtXtXtXtXtXtXtXtXtXtXtXtXtXtXtXtXtXtXtXtXtXtXtXtXtXtXtXtXtXtXtXtXtXtXtXtXtXtXtXtXtXtXtXtXtXtXtXtX",
"tXtXtXtXtXtXtXtXtXtXtXtXtXtXtXtXtXtXtXtXtXtXtXtXtXtXtXtXtXtXtXtXtXtXtXtXtXtXtXtXtXtXtXtXtXtXtXtXtXtXtXtXtXtXtXtXtXtXtXtXtXtXtXtXtXtXtXtXtXtXtXtXtXtXtXtXtXtXtXtX",
"tXtXtXtXtXtXtXtXtXtXtXtXtXtXtXtXtXtXtXtXtXtXtXtXtXtXtXtXtXtXtXtXtXtXtXtXtXtXtXtXtXtXtXtXtXtXtXtXtXtXtXtXtXtXtXtXtXtXtXtXtXtXtXtXtXtXtXtXtXtXtXtXtXtXtXtXtXtXtXtX",
"tXtXtXtXtXtXtXtXtXtXtXtXtXtXtXtXtXtXtXtXtXtXtXtXtXtXtXtXtXtXtXtXtXtXtXtXtXtXtXtXtXtXtXtXtXtXtXtXtXtXtXtXtXtXtXtXtXtXtXtXtXtXtXtXtXtXtXtXtXtXtXtXtXtXtXtXtXtXtXtX",
"tXtXtXtXtXtXtXtXtXtXtXtXtXtXtXtXtXtXtXtXtXtXtXtXtXtXtXtXtXtXtXtXtXtXtXtXtXtXtXtXtXtXtXtXtXtXtXtXtXtXtXtXtXtXtXtXtXtXtXtXtXtXtXtXtXtXtXtXtXtXtXtXtXtXtXtXtXtXtXtX",
"tXtXtXtXtXtXtXtXtXtXtXtXtXtXtXtXtXtXtXtXtXtXtXtXtXtXtXtXtXtXtXtXtXtXtXtXtXtXtXtXtXtXtXtXtXtXtXtXtXtXtXtXtXtXtXtXtXtXtXtXtXtXtXtXtXtXtXtXtXtXtXtXtXtXtXtXtXtXtXtX",
"tXtXtXtXtXtXtXtXtXtXtXtXtXtXtXtXtXtXtXtXtXtXtXtXtXtXtXtXtXtXtXtXtXtXtXtXtXtXtXtXtXtXtXtXtXtXtXtXtXtXtXtXtXtXtXtXtXtXtXtXtXtXtXtXtXtXtXtXtXtXtXtXtXtXtXtXtXtXtXtX"
};
