/* XPM */
static char *xpm_[] = {
/* columns rows colors chars-per-pixel */
"80 80 69 1 ",
"  c #520960",
". c #520860",
"X c #540B62",
"o c #570F64",
"O c #520960",
"+ c #560E64",
"@ c #570F65",
"# c #570F64",
"$ c #540B62",
"% c #560D63",
"& c #581166",
"* c #581166",
"= c #EB653B",
"- c #560E64",
"; c #560E64",
": c #591166",
"> c #E63A06",
", c #EA5F34",
"< c #E6400D",
"1 c #E84A19",
"2 c #EA5D31",
"3 c #EA592C",
"4 c #EA5C31",
"5 c #EB653B",
"6 c #EA5F33",
"7 c #EC6B42",
"8 c #ED724C",
"9 c #EE7955",
"0 c #EB6137",
"q c #EB6339",
"w c #EF805E",
"e c #EF8463",
"r c #F08A6B",
"t c #F18F71",
"y c #F19477",
"u c #F29D82",
"i c #F3A289",
"p c #F4AC96",
"a c #F5B09B",
"s c #F6BAA7",
"d c #F7C0AF",
"f c #F8C6B7",
"g c #F9D3C8",
"h c #FADCD3",
"j c #FBE4DC",
"k c #FCEAE4",
"l c #FDF2EE",
"z c #FFFDFD",
"x c #5B1569",
"c c #5D1668",
"v c #5D186A",
"b c #642271",
"n c #EB663D",
"m c #5E186B",
"M c #642271",
"N c #611E6E",
"B c #E9653E",
"V c #EB6339",
"C c #EB643A",
"Z c #EB683F",
"A c #682672",
"S c #672673",
"D c #6C2D78",
"F c #EC6A41",
"G c #ED724C",
"H c #70337C",
"J c #EE7B58",
"K c #73387F",
"L c None",
/* pixels */
"LLLLLLLLLLLLLLLLLLLLLLLLLLLLLLLLLLLLLLLLLLLLLLLLLLLLLLLLLLLLLLLLLLLLLLLLLLLLLLLL",
"LLLLLLLLLLLLLLLLLLLLLLLLLLLLLLLLLLLLLLLLLLLLLLLLLLLLLLLLLLLLLLLLLLLLLLLLLLLLLLLL",
"LLLLLLLLLLLLLLLLLLLLLLLLLLLLLLLLLLLLLLLLLLLLLLLLLLLLLLLLLLLLLLLLLLLLLLLLLLLLLLLL",
"LLLLLLLLLLLLLLLLLLLLLLLLLLLLLLLLLLLLLLLLLLLLLLLLLLLLLLLLLLLLLLLLLLLLLLLLLLLLLLLL",
"LLLLLLLLLLLLLLLLLLLLLLLLLLLLLLLLLLLLLLLLLLLLLLLLLLLLLLLLLLLLLLLLLLLLLLLLLLLLLLLL",
"LLLLLLLLLLLLLLLLLLLLLLLLLLLLLLLLLLLLLLLLLLLLLLLLLLLLLLLLLLLLLLLLLLLLLLLLLLLLLLLL",
"LLLLLLLLLLLLLLLLLLLLLLLLLLLLLLLLLLLLLLLLLLLLLLLLLLLLLLLLLLLLLLLLLLLLLLLLLLLLLLLL",
"LLLLLLLLLLLLLLLLLLLLLLLLLLLLLLLLLLLLLLLLLLLLLLLLLLLLLLLLLLLLLLLLLLLLLLLLLLLLLLLL",
"LLLLLLLLLLLLLLLLLLLLLLLLLLLLLLLLLLLLLLLLLLLLLLLLLLLLLLLLLLLLLLLLLLLLLLLLLLLLLLLL",
"LLLLLLLLLLLLLLLLLLLLLLLLLLLLLLLLLLLLLLLLLLLLLLLLLLLLLLLLLLLLLLLLLLLLLLLLLLLLLLLL",
"LLLLLLLLLLLLLLLLLLLLLLLLLLLLLLLLLLLLLLLLLLLLLLLLLLLLLLLLLLLLLLLLLLLLLLLLLLLLLLLL",
"LLLLLLLLLLLLLLLLLLLLLLLLLLLLLLLLLLLLLLLLLLLLLLLLLLLLLLLLLLLLLLLLLLLLLLLLLLLLLLLL",
"LLLLLLLLLLLLLLLLLLLLLLLLLLLLLLLLLLLLLLLLLLLLLLLLLLLLLLLLLLLLLLLLLLLLLLLLLLLLLLLL",
"LLLLLLLLLLLLLLLLLLLLLLLLLLLLLLLLLLLLLLLLLLLLLLLLLLLLLLLLLLLLLLLLLLLLLLLLLLLLLLLL",
"LLLLLLLLLLLLLLLLLLLLLLLLLLLLLLLLLLLLLLLLLLLLLLLLLLLLLLLLLLLLLLLLLLLLLLLLLLLLLLLL",
"LLLLLLLLLLLLLLLLLLLLLLLLLLLLLLLLLLLLLLLLLLLLLLLLLLLLLLLLLLLLLLLLLLLLLLLLLLLLLLLL",
"LLLLLLLLLLLLLLLLLLLLLLLLLLLLLLLLLLLLLLLLLLLLLLLLLLLLLLLLLLLLLLLLLLLLLLLLLLLLLLLL",
"LLLLLLLLLLLLLLLLLLLLLLLLLLLLLLLLLLLLLLLLLLLLLLLLLLLLLLLLLLLLLLLLLLLLLLLLLLLLLLLL",
"LLLLLLLLLLLLLLLLLLLLLLLLLLLLLLLLLLLLLLLLLLLLLLLLLLLLLLLLLLLLLLLLLLLLLLLLLLLLLLLL",
"LLLLLLLLLLLLLLLLLLLLLLLLLLLLLLLLLLLLLLLLLLLLLLLLLLLLLLLLLLLLLLLLLLLLLLLLLLLLLLLL",
"LLLLLLLLLLLLLLLLLLLLLLLLLLLLLLLLLLLLLLLLLLLLLLLLLLLLLLLLLLLLLLLLLLLLLLLLLLLLLLLL",
"LLLLLLLLLLLLLLLLLLLLLLLLLLLLLLLLLLLLLLLLLLLLLLLLLLLLLLLLLLLLLLLLLLLLLLLLLLLLLLLL",
"LLLLLLLLLLLLLLLLLLLLLLLLLLLLLLLLLLLLLLLLLLLLLLLLLLLLLLLLLLLLLLLLLLLLLLLLLLLLLLLL",
"LLLLLLLLLLLLLLLLLLLLLLLLLLLLLLLLLLLLLLLLLLLLLLLLLLLLLLLLLLLLLLLLLLLLLLLLLLLLLLLL",
"LLLLLLLLLLLLLLLLLLLLLLLLLLLLLLLLLLLLLLLLLLLLLLLLLLLLLLLLLLLLLLLLLLLLLLLLLLLLLLLL",
"LLLLLLLLLLLLLLLLLLLLLLLLLLLLLLLLLLLLLLLLLLLLLLLLLLLLLLLLLLLLLLLLLLLLLLLLLLLLLLLL",
"LLLLLLLLLLLLLLLLLLLLLLLLLLLLLLLLLLLLLLB46533433343333333333333333333333333446LLL",
"LLLLLLLLLLLLLLLLLLLLLLLLLLLLLLLLLLLLLLZ43444444444444444444454354434444444444LLL",
"LLLLLLLLLLLLLLLLLLLLLLLLLLLLLLLLLLLLLLB43444444444444444444433334344444444443LLL",
"LLL&$&&&$;$vLLLLLSNNSLLL&;&&vLLL;&&;SLB43444333334443433444348843444444444444LLL",
"LLLOOOOOOO.XLLL&OOOOO@vL&OOOOSL:OOOXLLZ43444dhghs343pku3443ykzzky344444444443LLL",
"LLL ...   .@LL@OOOOOOOO&LXOOO&SOOOObLLZ44444fzzzh448zzz533ezzjizz834444444443LLL",
"LLLOOOOOOOOOL%OOOO#OO..O&DOOOOoOOO@LLLC444451izzh344hzg441szzarzz833334444443LLL",
"LLLOOOOMMNMDmOOOO+LL O.OOL:OOOOOOOSLLLZ434443uzzh3548y7453szzd4ie15we83344445LLL",
"LLLOOOOLLLLLoOOOO-LL#OOOO*HOOOOOO&LLLLZ444441uzzh1izkklw4kzzzzz91alzzzje34443LLL",
"LLLOOOOo;+;HOOOOO:LL OOOOOLbOOOOXLLLLLZ434443uzzh3rgzzze4skzzjf8azzgykzz83443LLL",
"LLLOOOOOOOODOOOOO:LLXOOOOoLLOOOO:LLLLLG534453izzh334lzze31szzs>8zzl4>ezzf3443LLL",
"LLLOOOOOOOOAOOOOO:LL OOOOOL&OOOOoHLLLLC534441izzh345lzze33szzf1uzzzffgzzl5443LLL",
"LLLOOOOOOOOHOOOOO:LLoOOOO+HOOOOOO&LLLLG534443uzzh335lzze31szzd1pzzzlllkkh5443LLL",
"LLLOOOOvDbbL-OOOOoLLOOOOOb:OOOOOOOHLLLZ544443uzzh345lzze33szzs1uzzj4555874443LLL",
"LLLOOOOHLLLLDOOOOOHMOOOOoDOOOOoOOO:LLLn444441yzzh134lzz911szzf>8zzz811azd3444LLL",
"LLLOOOOHLLLLLNOOOOOOOOOOHoOOONHOOOObLL074444ikzzzstfzzzhtazzzlf8azzjifzz93444LLL",
"LLLOOOOHLLLLLLNOOOOOOOoLbOoOOHLoOOO+LLG44444jzlllzdzlllzfjzlllze1szzzzkr34444LLL",
"LLLOOOOKLLLLLLLHb+o##mLLoOOoMLLSOOOOML04344455555555777555578555337rte5344444LLL",
"LLLDHSKLLLLLLLLLLLLLLLLLHHbHLLLLLHHbHLZ54444444434434434444434344441134444444LLL",
"LLLLLLLLLLLLLLLLLLLLLLLLLLLLLLLLLLLLLLL04344344543333333333334334444434344347LLL",
"LLLLLLLLLLLLLLLLLLLLLLLLLLLLLLLLLLLLLLLH2444444544444444444444445457444444449LLL",
"LLLLLLLLLLLLLLLLLLLLLLLLLLLLLLLLLLLLLLLLZ4440GZnCCCCCCCCCCCCCCCC0nZF0GCCCCCCnLLL",
"LLLLLLLLLLLLLLLLLLLLLLLLLLLLLLLLLLLLLLLLL644LLLLLLLLLLLLLLLLLLLLLLLLLLLLLLLLLLLL",
"LLLLLLLLLLLLLLLLLLLLLLLLLLLLLLLLLLLLLLLLLZ43HLLLLLLLLLLLLLLLLLLLLLLLLLLLLLLLLLLL",
"LLLLLLLLLLLLLLLLLLLLLLLLLLLLLLLLLLLLLLLLLL64ZLLLLLLLLLLLLLLLLLLLLLLLLLLLLLLLLLLL",
"LLLLLLLLLLLLLLLLLLLLLLLLLLLLLLLLLLLLLLLLLLG5GLLLLLLLLLLLLLLLLLLLLLLLLLLLLLLLLLLL",
"LLLLLLLLLLLLLLLLLLLLLLLLLLLLLLLLLLLLLLLLLLL0ZLLLLLLLLLLLLLLLLLLLLLLLLLLLLLLLLLLL",
"LLLLLLLLLLLLLLLLLLLLLLLLLLLLLLLLLLLLLLLLLLLHGLLLLLLLLLLLLLLLLLLLLLLLLLLLLLLLLLLL",
"LLLLLLLLLLLLLLLLLLLLLLLLLLLLLLLLLLLLLLLLLLLLLLLLLLLLLLLLLLLLLLLLLLLLLLLLLLLLLLLL",
"LLLLLLLLLLLLLLLLLLLLLLLLLLLLLLLLLLLLLLLLLLLLLLLLLLLLLLLLLLLLLLLLLLLLLLLLLLLLLLLL",
"LLLLLLLLLLLLLLLLLLLLLLLLLLLLLLLLLLLLLLLLLLLLLLLLLLLLLLLLLLLLLLLLLLLLLLLLLLLLLLLL",
"LLLLLLLLLLLLLLLLLLLLLLLLLLLLLLLLLLLLLLLLLLLLLLLLLLLLLLLLLLLLLLLLLLLLLLLLLLLLLLLL",
"LLLLLLLLLLLLLLLLLLLLLLLLLLLLLLLLLLLLLLLLLLLLLLLLLLLLLLLLLLLLLLLLLLLLLLLLLLLLLLLL",
"LLLLLLLLLLLLLLLLLLLLLLLLLLLLLLLLLLLLLLLLLLLLLLLLLLLLLLLLLLLLLLLLLLLLLLLLLLLLLLLL",
"LLLLLLLLLLLLLLLLLLLLLLLLLLLLLLLLLLLLLLLLLLLLLLLLLLLLLLLLLLLLLLLLLLLLLLLLLLLLLLLL",
"LLLLLLLLLLLLLLLLLLLLLLLLLLLLLLLLLLLLLLLLLLLLLLLLLLLLLLLLLLLLLLLLLLLLLLLLLLLLLLLL",
"LLLLLLLLLLLLLLLLLLLLLLLLLLLLLLLLLLLLLLLLLLLLLLLLLLLLLLLLLLLLLLLLLLLLLLLLLLLLLLLL",
"LLLLLLLLLLLLLLLLLLLLLLLLLLLLLLLLLLLLLLLLLLLLLLLLLLLLLLLLLLLLLLLLLLLLLLLLLLLLLLLL",
"LLLLLLLLLLLLLLLLLLLLLLLLLLLLLLLLLLLLLLLLLLLLLLLLLLLLLLLLLLLLLLLLLLLLLLLLLLLLLLLL",
"LLLLLLLLLLLLLLLLLLLLLLLLLLLLLLLLLLLLLLLLLLLLLLLLLLLLLLLLLLLLLLLLLLLLLLLLLLLLLLLL",
"LLLLLLLLLLLLLLLLLLLLLLLLLLLLLLLLLLLLLLLLLLLLLLLLLLLLLLLLLLLLLLLLLLLLLLLLLLLLLLLL",
"LLLLLLLLLLLLLLLLLLLLLLLLLLLLLLLLLLLLLLLLLLLLLLLLLLLLLLLLLLLLLLLLLLLLLLLLLLLLLLLL",
"LLLLLLLLLLLLLLLLLLLLLLLLLLLLLLLLLLLLLLLLLLLLLLLLLLLLLLLLLLLLLLLLLLLLLLLLLLLLLLLL",
"LLLLLLLLLLLLLLLLLLLLLLLLLLLLLLLLLLLLLLLLLLLLLLLLLLLLLLLLLLLLLLLLLLLLLLLLLLLLLLLL",
"LLLLLLLLLLLLLLLLLLLLLLLLLLLLLLLLLLLLLLLLLLLLLLLLLLLLLLLLLLLLLLLLLLLLLLLLLLLLLLLL",
"LLLLLLLLLLLLLLLLLLLLLLLLLLLLLLLLLLLLLLLLLLLLLLLLLLLLLLLLLLLLLLLLLLLLLLLLLLLLLLLL",
"LLLLLLLLLLLLLLLLLLLLLLLLLLLLLLLLLLLLLLLLLLLLLLLLLLLLLLLLLLLLLLLLLLLLLLLLLLLLLLLL",
"LLLLLLLLLLLLLLLLLLLLLLLLLLLLLLLLLLLLLLLLLLLLLLLLLLLLLLLLLLLLLLLLLLLLLLLLLLLLLLLL",
"LLLLLLLLLLLLLLLLLLLLLLLLLLLLLLLLLLLLLLLLLLLLLLLLLLLLLLLLLLLLLLLLLLLLLLLLLLLLLLLL",
"LLLLLLLLLLLLLLLLLLLLLLLLLLLLLLLLLLLLLLLLLLLLLLLLLLLLLLLLLLLLLLLLLLLLLLLLLLLLLLLL",
"LLLLLLLLLLLLLLLLLLLLLLLLLLLLLLLLLLLLLLLLLLLLLLLLLLLLLLLLLLLLLLLLLLLLLLLLLLLLLLLL",
"LLLLLLLLLLLLLLLLLLLLLLLLLLLLLLLLLLLLLLLLLLLLLLLLLLLLLLLLLLLLLLLLLLLLLLLLLLLLLLLL",
"LLLLLLLLLLLLLLLLLLLLLLLLLLLLLLLLLLLLLLLLLLLLLLLLLLLLLLLLLLLLLLLLLLLLLLLLLLLLLLLL",
"LLLLLLLLLLLLLLLLLLLLLLLLLLLLLLLLLLLLLLLLLLLLLLLLLLLLLLLLLLLLLLLLLLLLLLLLLLLLLLLL"
};
