/* XPM */
static char *xpm_[] = {
/* columns rows colors chars-per-pixel */
"80 80 77 1 ",
"  c #000000",
". c #141515",
"X c #000000",
"o c #2A2A29",
"O c #343434",
"+ c #000000",
"@ c #000000",
"# c #0F2057",
"$ c #14255A",
"% c #162860",
"& c #1F316A",
"* c #2A3A6F",
"= c #182C6D",
"- c #192E70",
"; c #223F9A",
": c #464646",
"> c #4F5051",
", c #575858",
"< c #676767",
"1 c #777777",
"2 c #000000",
"3 c #000000",
"4 c #000000",
"5 c #223F9A",
"6 c #223F9A",
"7 c #23419E",
"8 c #23409B",
"9 c #001C88",
"0 c #08288E",
"q c #0D2D90",
"w c #102F92",
"e c #183695",
"r c #223F9A",
"t c #223F9A",
"y c #223F9A",
"u c #26429C",
"i c #324CA0",
"p c #2644A4",
"a c #324DA1",
"s c #3B54A5",
"d c #435CA9",
"f c #4C63AD",
"g c #5067AF",
"h c #566CB2",
"j c #5D72B5",
"k c #6072AB",
"l c #667AB9",
"z c #6D80BC",
"x c #7284BE",
"c c #788AC1",
"v c #7F90C4",
"b c #939393",
"n c #A6A6A6",
"m c #7E7E7E",
"M c #8797C8",
"N c #909FCC",
"B c #94A2CE",
"V c #9DAAD2",
"C c #A1ADD4",
"Z c #AAB5D8",
"A c #B2BCDC",
"S c #B8C1DF",
"D c #BDC5E1",
"F c #CDCCC9",
"G c #D9D9D9",
"H c #C5CCE4",
"J c #CBD2E7",
"K c #D6DBEC",
"L c #DCE1EF",
"P c #DEE2F0",
"I c #E7E8E8",
"U c #E8EBF4",
"Y c #EFF1F8",
"T c #FEFEFE",
"R c #000000",
"E c #223F9A",
"W c None",
/* pixels */
"WWWWWWWWWWWWWWWWWWWWWWWWWWWWWWWWWWWWWWWWWWWWWWWWWWWWWWWWWWWWWWWWWWWWWWWWWWWWWWWW",
"WWWWWWWWWWWWWWWWWWWWWWWWWWWWWWWWWWWWWWWWWWWWWWWWWWWWWWWWWWWWWWWWWWWWWWWWWWWWWWWW",
"WWWWWWWWWWWWWWWWWWWWWWWWWWWWWWWWWWWWWWWWWWWWWWWWWWWWWWWWWWWWWWWWWWWWWWWWWWWWWWWW",
"WWWWWWWWWWWWWWWWWWWWWWWWWWWWWWWWWWWWWWWWWWWWWWWWWWWWWWWWWWWWWWWWWWWWWWWWWWWWWWWW",
"WWWWWWWWWWWWWWWWWWWWWWWWWWWWWWWWWWWWWWWWWWWWWWWWWWWWWWWWWWWWWWWWWWWWWWWWWWWWWWWW",
"WWWWWWWWWWWWWWWWEy-yyyy-yy5-yy6yyyy-yyyy-yyyyy-yyy6yyy-yyyy8yyyy-yyyyyy-yy5WWWWW",
"WWWWWWWWWWWWWWWW5tttptttptttptttptutttttptttptttttttptttppeuttttpttuptttpuyWWWWW",
"WWWWWWWWWWWWWWWW7pruetttttttppttttuettttrtttttttttttttttttuuetttrttuettteuyWWWWW",
"WWWWWWWWWWWWWWWW8tttttttttttttttttttttttttttttttttttttttttttttttttttttttttyWWWWW",
"WWWWWWWWWWWWWWWW7ttttttttttttttttttttttttttttttttttttttttttttttttuttttttttyWWWWW",
"WWWWWWWWWWWWWWWW7ttttttttttttttttttttttttttttttttpttttttttttttttttttttttttyWWWWW",
"WWWWWWWWWWWWWWWW7tttttttttttttttttttttttttttttttttttttttttttttttttttttttttyWWWWW",
"WWWWWWWWWWWWWWWW8ttttttttttttttttttptttttttttttttttttutttttttttttttttttttt%WWWWW",
"WWWWWWWWWWWWWWWW7tttttttttttttttttttttttttttttttttttttttttttttttttttutttttyWWWWW",
"WWWWWWWWWWWWWWWW7ttttttttpttpttttttttttttptttttttttttttttttttttttttteptttpyWWWWW",
"WWWWWWWWWWWWWWWW7ttttttttttttttttttttttttttttttttttttttttttttttutttttutttpyWWWWW",
"WWWWW3333333333R#utttttttttttttttttttttttttttttttttttttttttttttteputttttttyWWWWW",
"WWWWW           -tttttttttttttttttttttttttttttttttttttttttttttttutttttttttyWWWWW",
"WWWWW@          %pttttttttttttttttttttttttttttttttttttttttttttttttttttttttyWWWWW",
"WWWWW@          %ptttttttttttttttttttuttttttutttttttttttttttttptttttttttttyWWWWW",
"WWWWW@          #pttttttttttttttttttttttttttttttttttttttttttttttttttttttttyWWWWW",
"WWWWW@          #ptttttttttttttttttttttttttttttttttttttttttttttttttttuttttyWWWWW",
"WWWWW@          $ptttttttttttttttttttteuttttttutttttptttttttttttttttttttttyWWWWW",
"WWWWW@          $ptttttttttttptttttttuptttttupetttttttttttttttttttttttttttyWWWWW",
"WWWWW@          $pttttttttttttttpetttttttttttttttttttttuttttttttueptttttuuyWWWWW",
"WWWWW@          $pttttttttttttttuutttttttttttttttuuuttuuupttttttttuttttttuyWWWWW",
"WWWWW@          #pttttttuttttttttttttutttttttttueeeeeuewwwtuttttttttttttttyWWWWW",
"WWWWW@          $pttttttttttttttttttttttttutttuesjhjsecBNNaetuttttttttttttyWWWWW",
"WWWWW@          #ptttttttttttttttttttttttttttuuwMTTTc0KTTTstuttttttttttttt%WWWWW",
"WWWWW@          $ptttttttttttttuttuutttttttttuuwMTTTcqHTTTsettttttttttttttyWWWWW",
"WWWWW@          $ptutuuuuuuttuuuttuuupttutuuutuwMTTTc0KTTTseutuuuutuutttupyWWWWW",
"WWWWW@          $ptewweteettueweeteweeutuuewtee0MTTTcwsddduttpeweueewtuttpyWWWWW",
"WWWWW@          $peMAZNtVYleeavSKKKAxeeuueaBKLHfcTTTcqMCVVatuwsNHKKAleeuutyWWWWW",
"WWWWW@          $pwJTTKBTTM0lYTTTTTTTKaueaLTTTTTHTTTc0KTTTseelYTTTTTTHaeutyWWWWW",
"WWWWW@          $peSTTUYTTxaTTTTHDTTTTZeeZTTTTKTTTTTc0JTTYsegTTTTAJTTTHettyWWWWW",
"WWWWW@          $peDTTTTTTlCTTTleehTTTUtaTTTTlwdYTTTc0JTTTseJTTTlwwCTTTcwuyWWWWW",
"WWWWW@          $peHTTTTMsuhvBMwwewUTTYelTTTHwuqZTTTx0JTTTadTTTKeuegTTTJeuyWWWWW",
"WWWWW@          $peSTTTZqete00ujcMCTTTYtNTTTBeueMTTTc0JTTTuzTTTZeuesTTTYityWWWWW",
"WWWWW@          $peSTTTjeuuesATTTTTTTTYeVTTTMwiwMTTTc0JTTTiMTTTZeueaUTTTdeyWWWWW",
"WWWWW@          $peHTTTgeuefTTTTKBcYTTYtVTTTMwuwMTTTc0JTTTuMTTTZeutuYTTTdeyWWWWW",
"WWWWW@          $peSTTTdeueKTTTNeeeUTTYtBTTTNwueMTTTc0JTTTilTTTDeutaYTTTseyWWWWW",
"WWWWW@          $peSTTTdtedTTTYeuesTTTYecTTTHwuqZTYTcqJTTTadTTTLeuegTTTJeuyWWWWW",
"WWWWW@          $peHTTTdetdTTTTdqwZTTTYusTTTTlejTTTTc0JTTTswHTTTzqeATTTceuyWWWWW",
"WWWWW@          $peSTTTdeuuUTTTKBJTYTTUaeSTTTTLTYTTTcqHTTYsegTTTTSKTTTDettyWWWWW",
"WWWWW@          $pwHTTTdepezTTTTTTcHTTTsesUTTTTPcTTTcqKTTTsuejYTTTTTTDpett%WWWWW",
"WWWWW@          $peMAZZieeuehDKKSjqcAZZseesCKKAssAZAheMAZZaeueaBJKKAletuttyWWWWW",
"WWWWW@          $puew0wssueueetteeuewweeuuewteeetwweeueweweutueeettweuttupyWWWWW",
"WWWWW@          $pupelIYTveuuuttuutuuuututuuutuutuuuutuuuuttttuuuttuuttttpyWWWWW",
"WWWWW@          $ptefTTTTNwuuuuututuuuuututuuutuuuttuttuuuuueutttuuuuueuttyWWWWW",
"WWWWW@          $puqMTTShdweetwetueewweeuueewuewwettuuuewqeeuuttuewweeutttyWWWWW",
"WWWWW@          $pttCTTMeullguNheedxMMzaeesllsivNleuueegMNxseuueegMMzaeuttyWWWWW",
"WWWWW@          $peATTTTThUTJATBqCTTTTTYlqMTTMLTTTAetuATTTTYleuuZTTTTYjeutyWWWWW",
"WWWWW@          $pwHTTTTTjKTYTTMMTTKMDTTUecTTTYLTTTgwHTTYDTTTgqZTTDcKTTfeuyWWWWW",
"WWWWW@          $ptsATTVfsUTTTZgBLJu9wUTTacTTYaeKTTjgTTTd0lTTZsTTH09uYTZwuyWWWWW",
"WWWWW@          $pu0NTTc0uYTTM0eeqagxMYTTaxTTCweVTTlNTTHeuuNNgMTTJMNMYTUutyWWWWW",
"WWWWW@          $pueBTTvqiUTTsetuVYTTTTTTacTTBeeCTTlZTTAwutqq0ZTTTTTTTTTatyWWWWW",
"WWWWW@          $puwBTTvqaUTYaueZTTJhsLTTaxTTBewCTTlZTTSeutddtVTTAgjjggfutyWWWWW",
"WWWWW@          $puwBTTvqiUTYiesTTYuqtYTTacTTBeeCTTlvTTLe0gTTZzTTZ0w0MVvutyWWWWW",
"WWWWW@          #puwBTTcqaUTUiedTTTgqNTTTacTTBewCTTlaTTTScLTTctTTTcsvTTDeurWWWWW",
"WWWWW@        .o*uuwVTTMqaYTYituKTTTYYUTTacTTVeeZTTx0MTTTTTTDewlTTTTTTKietrWWWWW",
"WWWWW@       oYTvwuecULzwuHKHieesHYYKsNLKslLKMeeMIKleelHUYKNueuegDUYIBaeutyWWWWW",
"WWWWW@       OTTMeuuteeettteetuteeuiweteetteeetueeeettweuitwttturwpipwettt%WWWWW",
"WWWWW@       oTTx0ewpppppppppppppppppppppppppppppppppppppppppppuuuuetuppppyWWWWW",
"WWWWW@       oTTZlxk&#%%%%%$%%%%%%%%%%%$%%%%%%%%%%%%%%%%%%%%%%$-88888888577WWWWW",
"WWWWW@    :: oTTTTTTF                                          3WWWWWWWWWWWWWWWW",
"WWWWW@   OTb .o::><IT, .                                       2WWWWWWWWWWWWWWWW",
"WWWWW@   <Tm       bT:                                         3WWWWWWWWWWWWWWWW",
"WWWWW@   OTTF<Oo. .Fn                                          3WWWWWWWWWWWWWWWW",
"WWWWW@    1TYYYY< ..                                           4WWWWWWWWWWWWWWWW",
"WWWWW@     ,IYYY1                                              2WWWWWWWWWWWWWWWW",
"WWWWW@      .,nIb                                              2WWWWWWWWWWWWWWWW",
"WWWWW@         .                                               2WWWWWWWWWWWWWWWW",
"WWWWW@                                                         4WWWWWWWWWWWWWWWW",
"WWWWW@                                                         2WWWWWWWWWWWWWWWW",
"WWWWW2 @ @@@ @@@++++++++++++++++++++++++++++++++++++++++++++++X4WWWWWWWWWWWWWWWW",
"WWWWWWWWWWWWWWWWWWWWWWWWWWWWWWWWWWWWWWWWWWWWWWWWWWWWWWWWWWWWWWWWWWWWWWWWWWWWWWWW",
"WWWWWWWWWWWWWWWWWWWWWWWWWWWWWWWWWWWWWWWWWWWWWWWWWWWWWWWWWWWWWWWWWWWWWWWWWWWWWWWW",
"WWWWWWWWWWWWWWWWWWWWWWWWWWWWWWWWWWWWWWWWWWWWWWWWWWWWWWWWWWWWWWWWWWWWWWWWWWWWWWWW",
"WWWWWWWWWWWWWWWWWWWWWWWWWWWWWWWWWWWWWWWWWWWWWWWWWWWWWWWWWWWWWWWWWWWWWWWWWWWWWWWW",
"WWWWWWWWWWWWWWWWWWWWWWWWWWWWWWWWWWWWWWWWWWWWWWWWWWWWWWWWWWWWWWWWWWWWWWWWWWWWWWWW"
};
