/* XPM */
static char *xpm_[] = {
/* columns rows colors chars-per-pixel */
"80 80 79 1 ",
"  c #100C0D",
". c #130F10",
"X c #1B1819",
"o c #231E1F",
"O c #311C20",
"+ c #231F20",
"@ c #321C20",
"# c #0C2420",
"$ c #182120",
"% c #212021",
"& c #342A2C",
"* c #363435",
"= c #471720",
"- c #591420",
"; c #6E0F20",
": c #770D20",
"> c #671120",
", c #751224",
"< c #474344",
"1 c #514E4F",
"2 c #5C595A",
"3 c #6C585C",
"4 c #6B6869",
"5 c #8C0000",
"6 c #95000B",
"7 c #9C021A",
"8 c #A0000F",
"9 c #A20017",
"0 c #870B21",
"q c #9E0520",
"w c #A20722",
"e c #B10120",
"r c #A3132C",
"t c #A71D35",
"y c #AA243C",
"u c #AD2B42",
"i c #AF3147",
"p c #B1354B",
"a c #B43C51",
"s c #B8495C",
"d c #BA4D61",
"f c #BD5769",
"g c #807E7E",
"h c #C05D6F",
"j c #C36676",
"k c #C7707F",
"l c #817F80",
"z c #CA7786",
"x c #828080",
"c c #959394",
"v c #A9A7A7",
"b c #BBBABA",
"n c #CE818E",
"m c #CF8391",
"M c #D38C99",
"N c #D4919D",
"B c #D89BA5",
"V c #DBA3AD",
"C c #DEAAB3",
"Z c #E0AEB7",
"A c #E2B4BC",
"S c #E5BBC2",
"D c #CAC9C9",
"F c #DBC9CC",
"G c #D7D7D7",
"H c #E8C4CB",
"J c #EBCCD1",
"K c #EDD5D9",
"L c #F0D9DD",
"P c #EFDEE1",
"I c #F2DDE1",
"U c #E8E9E9",
"Y c #F6E7E9",
"T c #F9EFF1",
"R c #FEFDFD",
"E c #641220",
"W c #212020",
"Q c #A00520",
"! c None",
/* pixels */
"!!!!!!!!!!!!!!!!!!!!!!!!!!!!!!!!!!!!!!!!!!!!!!!!!!!!!!!!!!!!!!!!!!!!!!!!!!!!!!!!",
"!!!!!!!!!!!!!!!!!!!!!!!!!!!!!!!!!!!!!!!!!!!!!!!!!!!!!!!!!!!!!!!!!!!!!!!!!!!!!!!!",
"!!!!!!!!!!!!!!!!!!!!!!!!!!!!!!!!!!!!!!!!!!!!!!!!!!!!!!!!!!!!!!!!!!!!!!!!!!!!!!!!",
"!!!!!!!!!!!!!!!7qqqqqqqqwqqqq7wqqqqqqqqqqqqqqqqqqqqqqqqqqqqqqqqqqqqqqqqqqwqqq!!!",
"!!!!!!!!!!!!!!Wwqqqqqqqq7qqqqqqqqqw7qqqqqqwqqqqwqqqqqqqqqqqqqqqqqqq7qqqqqq7wq!!!",
"!!!!!!!!!!!!!!!wqqqqqqqqqqqqqqqqqqqqwqqq7qqqqqq7qq7wwqqqqqqqqq7wqqqwqqqwqqqqq!!!",
"!!!!!!!!!!!!!!Weqqq7qqqqqwqqqqqqqqqqqqqqqqqqqqqqqqqqqqqqqqqqwqqqqqqqqqqqqqqqq!!!",
"!!!!!!!!!!!!!!!wqqqwqqqqqqqqqqqqqqqqqqqqqwqqqqqqqqqqqqqqqqqqqqqqqqqqqqqqqqqqq!!!",
"!!!!!!!!!!!!!!Weqqqqqqqqqqqqqwqqqqwqqqqqqqqqqqqqqqqqqq7wqqqqwqqqqqqqqqqqqqqqq!!!",
"!!!!!!!!!!!!!!!wqqqqqqqqqqqqqqqqqqqqqqqqqqqqqqqqqqqqqqqq7qqqqqqqqqqqqq7wqqqqq!!!",
"!!!!!!!!!!!!!!Weqq7qqqqqqqqqqqw7qqqqqqqqqqw7qqwqqqqqwqqqwqqqqq7wqqqwqqqqq7qqq!!!",
"!!!!!!!!!!!!!!!wqqqqqwqqqqqqqqqqqqw7qqqqqqqqqqqqqqqqqqqqqqqqqqqqqqqqqqqqqwqqq!!!",
"!!!!!!!!!!!!!!Weqqqqqqqqqqw7qqqqqqqqqqwqwqqqqqqqqqqqqqqqwqqqqqqqw7qqqqqqqqqqw!!!",
"!!!!!!!!!!!!!!!wqqqqqqqqqqqqqqqqqqqqqqqqqqqqqqqqqqwqqqqqqqqqqqqqqqqqqqqqqqwqq!!!",
"!!!W!!W!WW!!!!Weqq7qqqqqqqqqqqqqqqqqq7qqqqqqqqq7qq7qqqqqqqw7qqqqqqqqqq7wqqqqq!!!",
"!!!%@%%%%%%%%+@wwqwqqqqqqwqqqqqqqqqqqwqqqqqqqqqwwqqqqqqqqqqqqqqqqqqqqqqqqqqqq!!!",
"!!!%+++++++%%%@qqqqqqqqqqqqqw7qqq7qqqqqqqqq7qqqqqqqqqqqqqqqqqqqqqqqqqqqqwqqqq!!!",
"!!!oo%+++++o%o@qqqqqqqqqqqqqqqqqqwqqqqqqqqqwqqqqqqqqqqqqwqqqqqqqqqqqqqqq7qqqq!!!",
"!!!o%o+++++++%Oqqqqqqqqqqqqqqwqqqqqqqqqqwqqqqqqqqqqqqqqq7qqwqqqqqqqqqqqqqqwqq!!!",
"!!!&+%+++++++%@7qqqqqqqqqqqqqqqqqqqqqqqqqqqqqqqqqqqqqqqqqqqqqqqqwq7qqqqqqqqqq!!!",
"!!!+++++o%++o%+qqqqqqqqqqqqqqqqqwqqqqqqqqqqqqqqqqqqqqwqqqqqqqqqwqqqqqqqqqqqqq!!!",
"!!!+++++%+++%%@qqqqqqqqqw7qqqqqwqqqqqqqwqqqqwqqqw7qqqqqqqqqqqqq7qqwqqqqqqqqqq!!!",
"!!!+%+++++++o%@qw7qqqqqqqqqqqwq7qqqqw7qqqqqqqqwqqqqqq7qqqqqqqwqqqqqqqqqqqqqqq!!!",
"!!!++++++++++%+qqqqqqqqqqqqqqqqq7qqqqqqqqqqq7qqqqqqqqqwqqqqqqqqqqqqqw7qqqqqqq!!!",
"!!!++++++++++%Oqwqqqqqqqqqqqqqqqwqqqqq7qqqqq7wqqqqqqqqqqqqqwqqqqqqqqqqqqq7qqq!!!",
"!!!+++++++++o%@qqqqqqqqqw7qqqqqqqqqqqwqqqqqqqqqqqqqqwqq7qqqqqqqqqqqqqqqqqwqqq!!!",
"!!!++++++++++%Oqqqqqqqqqqqqwqqqqqqqqqqqqqqqqqqqqqqqqqqqwqw7qqqqqqqqwqqqwqqqqq!!!",
"!!!+%++++++++%+qwqqqqqqqqqqqqqqqqqqqqqqwqqqqqqqqqqqqqqqqqqqqqqqqqqqqqqqqqqqqq!!!",
"!!!++++++++++%@q7q7qqqqqqqqqqqqqqqq7qqqqqqqwqqqqqqqqqqqqqw7qqqqqqqqq9qqqwqqqq!!!",
"!!!+++++++++o%+qwqqqqqqqqqqqwqqqqqqwqqqq7wqqqqqqqq7wqqqqqqqq7wqqqqqqqqqqqqqqq!!!",
"!!!++++++%o++%Oqqqqqqwqqqqqq7qqwwqqqqqqqqqqqqqqqqwqqqqqqqqqqqqqqqqqqqqqqqqqqq!!!",
"!!!+++++++%++%@qwqqqqqqqqqqqqqqqqqqqqqqqqqqqqqqqqqqqqqqqqqwqqqqqqqqqqqqqqqqqq!!!",
"!!!+++++++++++@qwqqqqqqqqqqqqqqqqqqqqqqqqqwqqqqqqqqqqqqqqqqqqqqqqqqqqq7wqqqqq!!!",
"!!!++++++++++$@qq7wqqqqqqqqqqqqqqqqqqq7wqq7qqqqqqqqqqwqqqqqqqqqqqqqqqqqqqqqqq!!!",
"!!!+++++++++++@0qqqqqqqqqqqqqqqqqqqqwqqqqqqqwqqqwqqqqqqwqqqqqqqqqwqqqqqqqqqwq!!!",
"!!!++++++++++$@qqqqqqqqqqqqqqqqqqqqqqqqqqqqqqqqq7qqqqqq77wqqq7wqqqq7qqqqqqqqq!!!",
"!!!+++++++++++@qwqqqqqqqqqqqqqqqqwqqqqqqqqqqwqqqqqqqqqqqqqqqqqqqqqqwqqqwqqqqq!!!",
"!!!++++++++++$@qqq7qqq7wqqqqqqqqq7qqqqqqqqqq7qqqqqqqqqqqqqqqqwqqqqqqqqqq7qqqq!!!",
"!!!+++++++++++@7qqwqqqqqqq7wqqqqqqqqqqqqqqwqqqqqqqqqqqqqqwqqqqqqqqqqqqqqwqqqq!!!",
"!!!+++++++++++@0qqqqqqwqqqqqqqqqqqqqqqqqqqqqqqqqqwqqqqqqq7qqqqqqqqqqqqqqqqqqq!!!",
"!!!++++++++++$@qwqw7wqqqqqqqqqqqwqqqqqqqqqqqqqqqqqqqqqqwqqqqqqqqqqqqqq7qqqwqq!!!",
"!!!+++++++++++@qqqwwqqqqqqqqqqqqqqqqqqqqqqqqqqqqwqqqqqq7qqqqqqqqqqqqqqwqqqqqq!!!",
"!!!++++++++++$@qq9q@@0w7qq9wqqqqqqqq9wqqwqwwqqwq7qqqqqqqqqqqqqqqqqqqqqqqqqqqq!!!",
"!!!+++++++++++@qqw>$;qqqqwq0qqqqq7wqw0qwqw07wqqqqqqqqqqqwqqqwqqqqqwqqqqqqqqqq!!!",
"!!!++++++++++$@0w0@o=>@@>-+@@7==@+:w=+@;9-@@>qqqqwqqqqqqqqqq7qqqqw7qqqqqqqqqq!!!",
"!!!++++%++++++@qwq=o:>$@0=0:$,OO:+=>#0-@;$::$:wqqqqqwqqqqqqqqqwqqqqqqqqqqqqqq!!!",
"!!!+++++++++++@q7w>$w:o09;O=$,O=e@=@Ow9w-%@=@:wqwqqqqqqqqqqqqqqqqqqqqqqqqqqqq!!!",
"!!!+++++++++++@qqe>$q;$q:#00$,==e@=-$q;=-$0w-0967qqqqqqw7qqqqqqqqqqqqqqwqqqqq!!!",
"!!!+++++++++++@qqw>$w;$q:$@=$>&O9O=0%%X=7&%@@7sBkqqqqqqqqqqqqqqqqqqqqqqqqqqqq!!!",
"!!!++++++++++$@qqw0,w0,7w0>q0000w:0w0>0wwq,,q6BRT7qqqwwqrqqrqqqwqwqqqwwqqqqqq!!!",
"!!!++++++++++%+qw7679787q9967997799799wq6769q7jJBqq7667w6q7677q767wq7667qqqqq!!!",
"!!!++++%+++++$@q9rkztfBz7rnBf7yzkt7snh7whNBjq7azfq7sNBp7zydzs7rkzu77dNBfqqqqq!!!",
"!!!+++++++%++$@q9uRRJRRRCLRRRjdRRi6ZRKqHRRRRJ7NRY7zRRRRCRaHRZ6uRRj6VRRRRHrqqq!!!",
"!!!+++++++++++@q7yTRLfHRRShYRSsRTi6BRAhRJq7VTynRJtTRVrVRRiARV6uTRddRTi7ZRM6wq!!!",
"!!!+++++++++%%@q7yRRj5jRRy5VRAdRRu6BRAzRYVkdr5NRHfRRa5pRRpARV6yRRdARJapMRIqqq!!!",
"!!!+++++++++%%%q7yTRf6jRTy7BRAdRRu6VRHtTRRRRYymRHkRRi7aRRiARC6uTRjJRRRRRRRt7q!!!",
"!!!++++++++++%@q7yRRh5jRTy6VRAdRTy6BRH6rMHIRRBzRHjRRi6pRRpARV6yRRhJRSyaippwqw!!!",
"!!!++++++++++%@q7yTRh6jRTy6BRAdRRs7KRHfNa56mRCnRHsRRj5zRRiARS6hRRsBRK75dYCq7w!!!",
"!!!+++++++++%%@q7yRRh5jRRu6CRHiRRYTRRHzRRVMYRfnRLqKRYCRRRuBRRYRTRftRRLCRRz7q7!!!",
"!!!+++++++++%%@07yITd6hTIt6MRA7NRRZkRZ7zYRRTz7nRH7uJRRBRRpyIRRjSRf6aHRRYj7wqq!!!",
"!!!+++++++o+o%&wqqrwwqqwrqqwrwq7yy7qrw77wyyw7qqrwq77uqpRRp6wyr7wrqq77tyw6qqqw!!!",
"!!!+++++++%ovUFqqq7qqqqq7qqq7qqw77qq777wq777qqqq7qqwq6sRRs7q77w77qqqq77qqqqqw!!!",
"!!!+++++++%XGRIqqqqqqq7qqqqqqqqqqq7qqqwqqqqq7qqqqqqqq7iHHi7qqqqqqqqqqqqqqqqqw!!!",
"!!!++++++%%XDRPqqqwwqqwqqwqq7wqw7wwqqwqqqqwqqwqwqqwqww7777wqqwqqwqqqqqqqqqqqw!!!",
"!!!+++++%%%XDRLqqq70777qq0qqq0qqqqqqqqqqq7qqqqqqqqqqqqqqqqqqqqqq07wwww9wewqeq!!!",
"!!!+++%oX+%oGRRYYUF3O&@@@@@@@@@@@@+@@+@@+@@+@@+@@+@@+@@+@@%@@+@@@W!E!WW!WW!W!!!!",
"!!!%+++obb%XcDDGURRT&X%%++$++$$+++$++$++$%%%++$+$+++%+$%%%X%%%%++!!!!!!!!!!!!!!!",
"!!!++%X2RD.%XXXoX<UR1o%+++++++++++++++++++++++++++++++++%%%+%++++!!!!!!!!!!!!!!!",
"!!!++%X4RRxXXXX%X%TT&X%+++++++++++++++++++++++++++++++++++++++++@E!!!!!!!!!!!!!!",
"!!!+++o+GRRGcx4%X4b1X$+++++++++++++++++++++++++++++++++++++++++++W!!!!!!!!!!!!!!",
"!!!++++X<URRRRU%%o.o%%%+++++++++++$+++++++++++++++++++++%++++++++!!!!!!!!!!!!!!!",
"!!!++++%X&vRRRT&o%%%%%%%++++++++++++++++++++++++++++++++++++++++%!!!!!!!!!!!!!!!",
"!!!+++++%o.*gAG*X%%+++++++++++++++++++++++++++++++++++++++++++++%!!!!!!!!!!!!!!!",
"!!!+++++%%%o.X$$%++++++++++++++++++++%+++%++++++++++++++++++++++%!!!!!!!!!!!!!!!",
"!!!+++++%%%%%%++++++++++++++++++++++++++++++++++++++++++++++++++%!!!!!!!!!!!!!!!",
"!!!++++++@%+++++++++++++++++++++++++++++++++++++++++++++++++++++%E!!!!!!!!!!!!!!",
"!!!++++++++++++++%+++++++++++++++++++++++++++++++++++++%+++%++++%!!!!!!!!!!!!!!!",
"!!!!!!!!!!!!!!!!!!!!!!!!!!!!!!!!!!!!!!!!!!!!!!!!!!!!!!!!!!!!!!!!!!!!!!!!!!!!!!!!",
"!!!!!!!!!!!!!!!!!!!!!!!!!!!!!!!!!!!!!!!!!!!!!!!!!!!!!!!!!!!!!!!!!!!!!!!!!!!!!!!!",
"!!!!!!!!!!!!!!!!!!!!!!!!!!!!!!!!!!!!!!!!!!!!!!!!!!!!!!!!!!!!!!!!!!!!!!!!!!!!!!!!"
};
