/* XPM */
static char *xpm_[] = {
/* columns rows colors chars-per-pixel */
"80 80 134 2 ",
"   c #ED1D30",
".  c #ED2032",
"X  c #EE323E",
"o  c #C9C9C9",
"O  c #D2D2D2",
"+  c #ED2032",
"@  c #EF3E45",
"#  c #EB051A",
"$  c #ED2133",
"%  c #ED1F31",
"&  c #EC0D22",
"*  c #ED192E",
"=  c #ED1D31",
"-  c #EE2836",
";  c #EE2736",
":  c #F02B35",
">  c #EF343D",
",  c #F03D3F",
"<  c #ED2233",
"1  c #EF3741",
"2  c #EF4448",
"3  c #ED2E40",
"4  c #EE3944",
"5  c #F03E4A",
"6  c #EF494D",
"7  c #EF4649",
"8  c #F04848",
"9  c #F1544E",
"0  c #EA4C55",
"q  c #F14959",
"w  c #EC5459",
"e  c #F05A58",
"r  c #F1645F",
"t  c #F1635E",
"y  c #EF5866",
"u  c #F25866",
"i  c #F06666",
"p  c #F26A65",
"a  c #F36976",
"s  c #F4717D",
"d  c #EC0D22",
"f  c #ED1D30",
"g  c #ED2637",
"h  c #ED1F31",
"j  c #EE3741",
"k  c #EB4452",
"l  c #EF3E46",
"z  c #ED1E31",
"x  c #EE2E3B",
"c  c #C6BDBE",
"v  c #F9B0B7",
"b  c #F47A85",
"n  c #BDBDBD",
"m  c #C7C7C7",
"M  c #7E7E7E",
"N  c #C5C5C5",
"B  c #DEDEDE",
"V  c #D4D4D4",
"C  c #F5838D",
"Z  c #F58D96",
"A  c #E7959D",
"S  c #F6959E",
"D  c #EC9DA4",
"F  c #F79CA5",
"G  c #F8A4AC",
"H  c #F8ACB4",
"J  c #E3B7B9",
"K  c #F9B4BA",
"L  c #FABEC4",
"P  c #CACACA",
"I  c #D7C6C6",
"U  c #CFD0D0",
"Y  c #D9D9D9",
"T  c #D5D5D5",
"R  c #F7F7F7",
"E  c #ECC4C8",
"W  c #FAC5CA",
"Q  c #E6CED0",
"!  c #E1DBDC",
"~  c #F9D4D8",
"^  c #FCDDE0",
"/  c #DDE4E3",
"(  c #E8E8E8",
")  c #F9E8E9",
"_  c #E2F0EF",
"`  c #F8EFF0",
"'  c #ECF5F4",
"]  c #FBFAFA",
"[  c #FCFCFC",
"{  c #F6F6F6",
"}  c #F8F8F8",
"|  c #FBFBFB",
" . c #C0C0C0",
".. c #CECECE",
"X. c #D1CCCD",
"o. c #DACACC",
"O. c #FBD3D7",
"+. c #EBEBEB",
"@. c #FDFDFD",
"#. c #FBF2F3",
"$. c #F1F1F1",
"%. c #F8F8F8",
"&. c #EDEDED",
"*. c #ED182E",
"=. c #CACACA",
"-. c #ED1C30",
";. c #ED1C30",
":. c #ED1B2F",
">. c #EE2837",
",. c #ED1A2F",
"<. c #ED1A2E",
"1. c #ED1A2F",
"2. c #ED2435",
"3. c #CACACA",
"4. c #CACACA",
"5. c #E7E7E7",
"6. c #D7D7D7",
"7. c #F3F3F3",
"8. c #F3F3F3",
"9. c #E0E0E0",
"0. c #F4F4F4",
"q. c #EBEBEB",
"w. c #EC0C25",
"e. c #C4C4C4",
"r. c #EC0F28",
"t. c #ED1A2F",
"y. c #EC0E25",
"u. c #D0D0D0",
"i. c #DEDEDE",
"p. c #E3E3E3",
"a. c #CBCBCB",
"s. c #EC1022",
"d. c #E0E0E0",
"f. c None",
/* pixels */
"f.f.f.f.f.f.f.f.f.f.f.f.f.f.f.f.f.f.f.f.f.f.f.f.f.f.f.f.f.f.f.f.f.f.f.f.f.f.f.f.f.f.f.f.f.f.f.f.f.f.f.f.f.f.f.f.f.f.f.f.f.f.f.f.f.f.f.f.f.f.f.f.f.f.f.f.f.f.f.f.",
"f.f.f.f.f.f.f.f.f.f.f.f.f.f.f.f.f.f.f.f.f.f.f.f.f.f.f.f.f.f.f.f.f.f.f.f.f.f.f.f.f.f.f.f.f.f.f.f.f.f.f.f.f.f.f.f.f.f.f.f.f.f.f.f.f.f.f.f.f.f.f.f.f.f.f.f.f.f.f.f.",
"f.f.f.f.f.f.f.f.f.f.f.f.f.f.f.f.f.f.f.f.f.f.f.f.f.f.f.f.f.f.f.f.f.f.f.f.f.f.f.f.f.f.f.f.f.f.f.f.f.f.f.f.f.f.f.f.f.f.f.f.f.f.f.f.f.f.f.f.f.f.f.f.f.f.f.f.f.f.f.f.",
"f.f.f.f.f.f.f.f.f.f.f.f.f.f.f.f.f.f.f.f.f.f.f.f.f.f.f.f.f.f.f.f.f.f.f.f.f.f.f.f.f.f.f.f.f.f.f.f.f.f.f.f.f.f.f.f.f.f.f.f.f.f.f.f.f.f.f.f.f.f.f.f.f.f.f.f.f.f.f.f.",
"f.f.f.f.f.f.f.f.f.f.f.f.f.f.f.f.f.f.f.f.f.f.f.f.f.f.f.f.f.f.f.f.f.f.f.f.f.f.f.f.f.f.f.f.f.f.f.f.f.f.f.f.f.f.f.f.f.f.f.f.f.f.f.f.f.f.f.f.f.f.f.f.f.f.f.f.f.f.f.f.",
"f.f.f.f.f.f.f.f.f.f.f.f.f.f.f.f.f.f.f.f.f.f.f.f.f.f.f.f.f.f.f.f.f.f.f.f.f.f.f.f.f.f.f.f.f.f.f.f.f.f.f.f.f.f.f.f.f.f.f.f.f.f.f.f.f.f.f.f.f.f.f.f.f.f.f.f.f.f.f.f.",
"f.f.f.f.f.f.f.f.f.f.f.f.f.f.f.f.f.f.f.f.f.f.f.f.f.f.f.f.f.f.f.f.f.f.f.f.f.f.f.f.f.f.f.f.f.f.f.f.f.f.f.f.f.f.f.f.f.f.f.f.f.f.f.f.f.f.f.f.f.f.f.f.f.f.f.f.f.f.f.f.",
"f.f.f.f.f.f.f.f.f.f.f.f.f.f.f.f.f.f.f.f.f.f.f.f.f.f.f.f.f.f.f.f.f.f.f.f.f.f.f.f.f.f.f.f.f.f.f.f.f.f.f.f.f.f.f.f.f.f.f.f.f.f.f.f.f.f.f.f.f.f.f.f.f.f.f.f.f.f.f.f.",
"f.f.f.f.f.f.f.f.f.f.f.f.f.f.f.f.f.f.f.f.f.f.f.f.f.f.f.f.f.f.f.f.f.f.f.f.f.f.f.f.f.f.f.f.f.f.f.f.f.f.f.f.f.f.f.f.f.f.f.f.f.f.f.f.f.f.f.f.f.f.f.f.f.f.f.f.f.f.f.f.",
"f.f.f.f.f.f.f.f.f.f.f.f.f.f.f.f.f.f.f.f.f.f.f.f.f.f.f.f.f.f.f.f.f.f.f.f.f.f.f.f.f.f.f.f.f.f.f.f.f.f.f.f.f.f.f.f.f.f.f.f.f.f.f.f.f.f.f.f.f.f.f.f.f.f.f.f.f.f.f.f.",
"f.f.f.f.f.f.f.f.f.f.f.f.f.f.f.f.f.f.f.f.f.f.f.f.f.f.f.f.f.f.f.f.f.f.f.f.f.f.f.f.f.f.f.f.f.f.f.f.f.f.f.f.f.f.f.f.f.f.f.f.f.f.f.f.f.f.f.f.f.f.f.f.f.f.f.f.f.f.f.f.",
"f.f.f.f.f.f.f.f.f.f.f.f.f.f.f.f.f.f.f.f.f.f.f.f.f.f.f.f.f.f.f.f.f.f.f.f.f.f.f.f.f.f.f.f.f.f.f.f.f.f.f.f.f.f.f.f.f.f.f.f.f.f.f.f.f.f.f.f.f.f.f.f.f.f.f.f.f.f.f.f.",
"f.f.f.f.f.f.f.f.f.f.f.f.f.f.f.f.f.f.f.f.f.f.f.f.f.f.f.f.f.f.f.f.f.f.f.f.f.f.f.f.f.f.f.f.f.f.f.f.f.f.f.f.f.f.f.f.f.f.f.f.f.f.f.f.f.f.f.f.f.f.f.f.f.f.f.f.f.f.f.f.",
"f.f.f.f.f.f.f.f.f.f.f.f.f.f.f.f.f.f.f.f.f.f.f.f.f.f.f.f.f.f.f.f.f.f.f.f.f.f.f.f.f.f.f.f.f.f.f.f.f.f.f.f.f.f.f.f.f.f.f.f.f.f.f.f.f.f.f.f.f.f.f.f.f.f.f.f.f.f.f.f.",
"f.f.f.f.f.f.f.f.f.f.f.f.f.f.f.f.f.f.f.f.f.f.f.f.f.f.f.f.f.f.f.f.f.f.f.f.f.f.f.f.f.f.f.f.f.f.f.f.f.f.f.f.f.f.f.f.f.f.f.f.f.f.f.f.f.f.f.f.f.f.f.f.f.f.f.f.f.f.f.f.",
"f.f.f.f.f.f.f.f.f.f.f.f.f.f.f.f.f.f.f.f.f.f.f.f.f.f.f.f.f.f.f.f.f.f.f.f.f.f.f.f.f.f.f.f.f.f.f.f.f.f.f.f.f.f.f.f.f.f.f.f.f.f.f.f.f.f.f.f.f.f.f.f.f.f.f.f.f.f.f.f.",
"f.f.f.f.f.f.f.f.f.f.f.f.f.f.f.f.f.f.f.f.f.f.f.f.f.f.1.x 1 8 x f.f.f.f.f.f.f.f.f.f.f.f.f.f.f.f.f.f.f.f.f.f.f.f.f.f.f.f.f.f.f.f.f.f.f.f.f.f.f.f.f.f.f.f.f.f.f.f.f.",
"f.f.f.f.f.f.f.f.f.f.f.f.f.f.f.f.f.f.f.f.f.1.x x l 8 t p p p x f.f.f.f.f.f.f.f.f.f.f.f.f.f.f.f.f.f.f.f.f.f.f.f.f.f.f.f.f.f.f.f.f.f.f.f.f.f.f.f.f.f.f.f.f.f.f.f.f.",
"f.f.f.f.f.f.f.f.f.f.f.f.f.f.f.f.1.1.x < 6 9 t p p p p i r t x f.f.f.f.f.f.f.f.f.f.f.f.f.f.f.f.f.f.f.f.f.f.f.f.f.f.f.f.f.f.f.f.f.f.f.f.f.f.f.f.f.f.f.f.f.f.f.f.f.",
"f.f.f.f.f.f.f.f.f.f.f.y.1.x x q e e p p p p t t r e t i r t x f.f.f.f.f.f.f.f.f.f.f.f.f.f.f.f.f.f.f.f.f.f.f.f.f.f.f.f.f.f.f.f.f.f.f.f.f.f.f.f.f.f.f.f.f.f.f.f.f.",
"f.f.f.f.f.f.f.1.r.+ 2 5 7 7 q 7 7 7 7 8 e e e t y e y e w e j f.f.f.f.f.f.f.f.f.f.f.f.f.f.f.f.f.f.f.f.f.f.f.f.f.f.f.f.f.f.f.f.f.f.f.f.f.f.f.f.f.f.f.f.f.f.f.f.f.",
"f.f.f.y.z + * : = ; 3 : * * & * * * = * = = : : 7 q e e w u x f.f.f.f.f.f.f.f.f.f.f.f.f.f.f.f.f.f.f.f.f.f.f.f.f.f.f.f.f.f.f.f.f.f.f.f.f.f.f.f.f.f.f.f.f.f.f.f.f.",
"f.f.f.* * = = * * * & * ; = * * = = = = = * * = * = 3 0 q q j f.f.f.f.f.f.f.f.f.f.f.f.f.f.f.f.f.f.f.f.f.f.f.f.f.f.f.f.f.f.f.f.f.f.f.f.f.f.f.f.f.f.f.f.f.f.f.f.f.",
"f.f.f.* * * = * = * * L u & * * * * * & * * * & * & & * 4 0 j f.f.f.f.f.f.f.f.f.f.f.f.f.f.f.f.f.f.f.f.f.f.f.f.f.f.f.f.f.f.f.f.f.f.f.f.f.f.f.f.f.f.f.f.f.f.f.f.f.",
"f.f.f.= = * * = = & q ] q C K u Z H 5 b K H * b L b 3 G G a z f.f.f.f.f.f.f.f.f.f.f.f.f.f.f.f.f.f.f.f.f.f.f.f.f.f.f.f.f.f.f.f.f.f.f.f.f.f.f.f.f.f.f.f.f.f.f.f.f.",
"f.f.f.= * = = * = * 3 W = W u 5 Z W a G a K a L ; q Z W G F d f.f.f.f.f.f.f.f.f.f.f.f.f.f.f.f.f.f.f.f.f.f.f.f.f.f.f.f.f.f.f.f.f.f.f.f.f.f.f.f.f.f.f.f.f.f.f.f.f.",
"f.f.f.= = * * = * * 3 ~ = W 3 s L L b G u K u L b b b W F a d f.f.f.f.f.f.f.f.f.f.f.f.f.f.f.f.f.f.f.f.f.f.f.f.f.f.f.f.f.f.f.f.f.f.f.f.f.f.f.f.f.f.f.f.f.f.f.f.f.",
"f.f.f.= * * = * * * ; u = u ; ; b b q u 5 u : q Z q * b b 3 d f.f.f.f.f.f.f.f.f.f.f.f.f.f.f.f.f.f.f.f.f.f.f.f.f.f.f.f.f.f.f.f.f.f.f.f.f.f.f.f.f.f.f.f.f.f.f.f.f.",
"f.f.f.* = * = * * = * & = & ; * # # # # # # # # # & = & & * h f.f.f.f.f.f.f.f.f.f.f.f.f.f.f.f.f.f.f.f.f.f.f.f.f.f.f.f.f.f.f.f.f.f.f.f.f.f.f.f.f.f.f.f.f.f.f.f.f.",
"f.f.f.* * = * = = * = = = = & & 3 a C F G F S b q = & = = * z f.f.f.f.f.f.=.N X.M &.X.M N q.f.f.f.f.f.f.f.f.&.$.&.X.X.X.X.M &.X.X.X.M X.O q.f.f.f.f.f.f.f.f.f.f.",
"f.f.f.= * = * * * = * = = & u L ] ] ] ] ] ] ] ] ] ) S : & = g f.f.f.f.f.f.4.R Y U Y U Y / q.f.f.f.f.f.f.f.w.U U [ R P U U U [ Y U U U U P U n O f.f.f.f.f.f.f.f.",
"f.f.f.* = * = * * = = * * G ] ] ] ] ] ] ] ] ] ] ] ] ] ` y & z f.f.f.f.f.f.q.R Y Y Y Y U R 4.f.f.f.f.f.f.f.f.T Y U Y U U U U U U U { P P P U R / M w.f.f.f.f.f.f.",
"f.f.f.= * = * = * * = & L ] ] ] ] ] ] ] ] ] ] ] ] ] ] ] ] u x f.f.f.f.f.f.q.[ / [ R R Y R 4.f.f.f.f.f.f.f.p.P ! R R Y Y Y R Y Y Y R Y Y Y U Y U Y m f.f.f.f.f.f.",
"f.f.f.* = * = * = ; & b ] ] ] ] ] ] ] ] ] ] ] ] ] ] ] ] ] ` k f.f.f.f.f.f.q.[ / ( ( [ [ [ 4.f.f.f.f.f.f.f.f.U [ R [ R Y R R R R R Y Y Y R Y R R U Y #.f.f.f.f.f.",
"f.f.f.= = * = * = * ; ) ] ] ] ] ] ] ] W H K ) ] ] ] ] ] ] ] v f.f.f.f.w.f.q.( [ ( ( ( [ [ 4.f.f.f.f.f.f.f.p.Y [ [ [ [ [ ( ( [ [ ( ( ( ' [ Y R R / Y / q.f.f.f.f.",
"f.f.f.* * = * = = & a ] ] ] ] ] ] ] a & & & = K ] ] ] ] ] ] o.f.f.f.f.f.f.q.' ( ( ' ` ( ( q.f.f.f.f.f.f.f.f.Y ( ( ( [ [ ( X.=.4.q.8.#.] [ [ [ [ [ ! [ N f.f.f.f.",
"f.f.f.* * = * * = & S ] ] ] ] ] ] K # ; = ; & 3 ] ] ] ] ] ] #.f.f.f.f.f.f.q.` ' ' ' ` ( ] p.f.f.f.f.f.f.f.p.[ ( ( ( ' ( ' &.f.f.f.f.f.p.( ( ( ( ( ( ( [ p.f.f.f.",
"f.f.f.= * = = * = & K ] ] ] ] ] ] b & = * = * = ) ] ] ] ] ] &.f.f.f.f.f.f.q.' ` ` ' ' ` ] 8.f.f.f.f.f.f.f.f.[ ' ` ' ` ( ' &.f.f.f.f.f.f.&.` ( ' ' ( ( ' q.f.f.f.",
"f.f.f.= = * * = = & W ] ] ] ] ] ] a & = * = * 3 ] ] ] ] ] ] o.f.f.f.f.f.f.q.] ' ' ` ] ] ] &.q.q.8.8.8.8.8.8.' ] ' ` ' ` ] &.f.f.f.f.f.f.p.] ' ' ` ' ` ` | f.f.f.",
"f.f.f.: * * = * = * b H G G G F H q & = = = # H ] ] ] ] ] ] O.f.f.f.f.f.f.q.] ` ] ] ] ] ] ] ] ] ] ] ] ] ] ] ] ` ] ] ] ] ] &.f.f.f.f.f.f.f.T ] ' ] ] ' ] [ f.f.f.",
"f.f.f.> * * = * * = & & & & & & & * = ; & & F ] ] ] ] ] ] ] v f.f.f.f.f.f.i.] ] ] ] ] ] ] ] ] ] ' ] ' ` ' ] ] ] ] ' ] ' ] &.f.f.f.f.f.f.f.| ] ] ] ] ] ] ' f.f.f.",
"f.f.f.4 = * * = = * = = = = = = = * = & 4 L ] ] ] ] ] ] ] ` x f.f.f.f.f.a.u.] _ ( ' ` ' ' ' ] ] ] ] ] ] ] ] ] ] ] ] ] ] ] &.f.f.f.f.f.f.f.+.' ' ' ( R Y P f.f.f.",
"f.f.f.9 ; * = * = * * = = * * = = * & a ] ] ] ] ] ] ] ] ] b z f.f.f.f.f.f.e.n m m m T n | | | P { Y U Y Y [ / ( ( ( ' ` ] &.f.f.f.f.f.f.f.M _ | | n n m n f.f.f.",
"f.f.f.9 : * = * * = * * * * = = & ; H ] ] ] ] ] ] ] ] ] D & z f.f.f.f.f.f.*.T n T T T n n | n | n n n n m n m m T n | n U X.f.f.f.f.f.f.f.&.U | n n n n n f.f.f.",
"f.f.f.9 4 * = * = * = = * ; * & u ) ] ] ] ] ] ] ' ] ] Z & ; g f.f.f.f.f.f.q.T T T T T T T n @.n m T n m | n T | | | | n T O f.f.f.f.f.f.f.&.n n n n n n T f.f.f.",
"f.f.f.9 9 * = * * * * * = & * D ] ] ` ] ] ` ` ' ' ^ y & * : x f.f.f.f.f.f.q.U P P T U T P 4.f.w.f.f.w.f.f.=.n P | T T | T O f.f.f.f.f.f.f.N | n n | n T N f.f.f.",
"f.f.f.9 e : * * * = * = & 5 ~ ] ] ` ' ` ' _ ] ' D ; & = * 4 j f.f.f.f.f.f.q.U I U U U P U q.f.f.f.f.f.f.f.f.m U T P P T U M f.f.f.f.f.f.a.P T n T T T T X.f.f.f.",
"f.f.f.8 9 8 * * = * = & y ' ] ) ' ' _ ) ' ' L y & * ; * ; 8 j f.f.f.f.p.f.q.Y Y Y Y U U Y q.f.f.f.f.f.f.f.f.T U U U U U Y 3.f.w.f.f.f.f.X U T P P P T T O f.f.f.",
"f.f.f.8 9 9 : * = = & q ` ' ) ( ( ( ( ' Q a & & = = * & > 8 g f.f.f.f.f.f.*.R R R R R Y ( q.f.f.f.f.f.f.f.a._ Y Y U Y U Y O f.f.f.f.f.a./ / U U U U U U q.f.f.f.",
"f.f.f.8 8 9 9 = * * = E ' ( ( ( [ [ ( D 3 ; 3 3 3 3 3 5 w 9 j f.f.f.f.f.f.4.[ R [ R [ Y ( 4.f.f.f.f.f.f.f.a.[ / R R R Y Y X.f.p.a.*.0.' R / Y Y U U [ M f.f.f.f.",
"f.f.f.7 9 8 8 8 ; & i _ ! [ ( ( [ / [ Q ! ! ! R Q Y Y Y ! Y o.f.a.f.f.f.f.p.( [ [ [ ( ! ( q.f.f.f.f.f.f.f.f.U [ ! R [ R [ R ( [ Y R R Y R R R Y ! U ! 4.f.f.f.f.",
"f.f.f.4 8 8 8 8 7 & A _ ! / [ / [ R R ! R R / Y R Y Y Y R [ o.f.f.f.f.a.a.u.( [ [ [ ( ( ' q.f.f.f.f.f.f.f.f.Q ' [ [ [ R [ R [ [ [ [ R / / / / / R [ | f.f.f.f.f.",
"f.f.f.4 8 8 , 8 8 , J [ R ! / R R R R Y Y Y Y Y Y U U Y P U 8.f.f.f.f.f.f.q.] ( ( ( ' ( ] q.f.f.f.f.f.f.f.f.[ ] ( ( ( ( [ [ [ [ ( [ [ [ [ [ [ [ [ ! p.f.f.f.f.f.",
"f.f.f., 8 7 7 7 4 7 I R R R Y Y Y Y U Y U U U U U U U P P P M f.f.f.f.a.f.q.' ` ' ` ` ( ] q.f.f.f.f.f.f.f.a.} ( ( [ ` ' [ ( ( ( ) ' ( ( [ [ ( ( U =.f.f.f.f.f.f.",
"f.f.f., , , 4 4 , 7 I U Y U Y U U U U U U U U P P P P T T T c f.f.f.f.f.f.q.] ] ] ] ] ] ] q.f.f.f.f.f.f.f.a.] ( ' ` ] ] ] ] ' ` ] ] ' ] ( ' ] #.f.f.f.f.f.f.f.f.",
"f.f.f.> , , , , , 4 I Y U U U U U P U P P P T T P T T T T T O f.f.f.f.f.f.q.[ | [ | [ | ' 8.f.f.f.f.f.f.f.a.P U [ | T [ | | P | | P | | #.O p.f.f.f.f.f.f.f.f.f.",
"f.f.f.> 4 > > , , > 0 w w w w 0 q w w 0 0 0 0 0 0 0 0 0 0 0 j f.f.f.f.f.f.f.f.f.f.f.f.f.f.f.f.f.f.f.f.f.f.f.f.f.f.f.f.f.f.f.f.f.f.f.f.f.f.f.f.f.f.f.f.f.f.f.f.f.",
"f.f.f.; > , > > > > : : : : : : : : : : : : : : ; : ; ; ; ; g f.f.f.f.f.f.f.f.f.f.f.f.f.f.f.f.f.f.f.f.f.f.f.f.f.f.f.f.f.f.f.f.f.f.f.f.f.f.f.f.f.f.f.f.f.f.f.f.f.",
"f.f.f.y.z z - : : : > > > > > > : 3 : : > > : > > : > ; ; ; g f.a.f.f.f.f.f.f.f.f.f.f.f.f.f.f.f.f.f.f.f.f.f.f.f.f.f.f.f.f.f.f.f.f.f.f.f.f.f.f.f.f.f.f.f.f.f.f.f.",
"f.f.f.f.f.f.f.*.1.g < - ; ; ; ; 3 : ; : ; ; ; ; ; ; ; ; ; ; g f.f.f.f.f.f.f.f.f.f.f.f.f.f.f.f.f.f.f.f.f.f.f.f.f.f.f.f.f.f.f.f.f.f.f.f.f.f.f.f.f.f.f.f.f.f.f.f.f.",
"f.f.f.f.f.f.f.f.f.f.f.w.y.1.+ - : : : : : : = : ; ; = : ; ; z f.f.f.f.f.f.f.f.f.f.f.f.f.f.f.f.f.f.f.f.f.f.f.f.f.f.f.f.f.f.f.f.f.f.f.f.f.f.f.f.f.f.f.f.f.f.f.f.f.",
"f.f.f.f.f.f.f.f.f.f.f.f.f.f.f.f.1.y.z z < : = : $ : = $ = ; z f.f.f.f.f.f.f.f.f.f.f.f.f.f.f.f.f.f.f.f.f.f.f.f.f.f.f.f.f.f.f.f.f.f.f.f.f.f.f.f.f.f.f.f.f.f.f.f.f.",
"f.f.f.f.f.f.f.f.f.f.f.f.f.f.f.f.f.f.f.f.f.s.>.z f : = = ; = k f.f.f.f.f.f.f.f.f.f.f.f.f.f.f.f.f.f.f.f.f.f.f.f.f.f.f.f.f.f.f.f.f.f.f.f.f.f.f.f.f.f.f.f.f.f.f.f.f.",
"f.f.f.f.f.f.f.f.f.f.f.f.f.f.f.f.f.f.y.f.f.f.f.f.f.y.1.1.+ 4 x f.f.f.f.f.f.f.f.f.f.f.f.f.f.f.f.f.f.f.f.f.f.f.f.f.f.f.f.f.f.f.f.f.f.f.f.f.f.f.f.f.f.f.f.f.f.f.f.f.",
"f.f.f.f.f.f.f.f.f.f.f.f.f.f.f.f.f.f.f.f.f.f.f.f.f.f.f.f.f.f.f.f.f.f.f.f.f.f.f.f.f.f.f.f.f.f.f.f.f.f.f.f.f.f.f.f.f.f.f.f.f.f.f.f.f.f.f.f.f.f.f.f.f.f.f.f.f.f.f.f.",
"f.f.f.f.f.f.f.f.f.f.f.f.f.f.f.f.f.f.f.f.f.f.f.f.f.f.f.f.f.f.f.f.f.f.f.f.f.f.f.f.f.f.f.f.f.f.f.f.f.f.f.f.f.f.f.f.f.f.f.f.f.f.f.f.f.f.f.f.f.f.f.f.f.f.f.f.f.f.f.f.",
"f.f.f.f.f.f.f.f.f.f.f.f.f.f.f.f.f.f.f.f.f.f.f.f.f.f.f.f.f.f.f.f.f.f.f.f.f.f.f.f.f.f.f.f.f.f.f.f.f.f.f.f.f.f.f.f.f.f.f.f.f.f.f.f.f.f.f.f.f.f.f.f.f.f.f.f.f.f.f.f.",
"f.f.f.f.f.f.f.f.f.f.f.f.f.f.f.f.f.f.f.f.f.f.f.f.f.f.f.f.f.f.f.f.f.f.f.f.f.f.f.f.f.f.f.f.f.f.f.f.f.f.f.f.f.f.f.f.f.f.f.f.f.f.f.f.f.f.f.f.f.f.f.f.f.f.f.f.f.f.f.f.",
"f.f.f.f.f.f.f.f.f.f.f.f.f.f.f.f.f.f.f.f.f.f.f.f.f.f.f.f.f.f.f.f.f.f.f.f.f.f.f.f.f.f.f.f.f.f.f.f.f.f.f.f.f.f.f.f.f.f.f.f.f.f.f.f.f.f.f.f.f.f.f.f.f.f.f.f.f.f.f.f.",
"f.f.f.f.f.f.f.f.f.f.f.f.f.f.f.f.f.f.f.f.f.f.f.f.f.f.f.f.f.f.f.f.f.f.f.f.f.f.f.f.f.f.f.f.f.f.f.f.f.f.f.f.f.f.f.f.f.f.f.f.f.f.f.f.f.f.f.f.f.f.f.f.f.f.f.f.f.f.f.f.",
"f.f.f.f.f.f.f.f.f.f.f.f.f.f.f.f.f.f.f.f.f.f.f.f.f.f.f.f.f.f.f.f.f.f.f.f.f.f.f.f.f.f.f.f.f.f.f.f.f.f.f.f.f.f.f.f.f.f.f.f.f.f.f.f.f.f.f.f.f.f.f.f.f.f.f.f.f.f.f.f.",
"f.f.f.f.f.f.f.f.f.f.f.f.f.f.f.f.f.f.f.f.f.f.f.f.f.f.f.f.f.f.f.f.f.f.f.f.f.f.f.f.f.f.f.f.f.f.f.f.f.f.f.f.f.f.f.f.f.f.f.f.f.f.f.f.f.f.f.f.f.f.f.f.f.f.f.f.f.f.f.f.",
"f.f.f.f.f.f.f.f.f.f.f.f.f.f.f.f.f.f.f.f.f.f.f.f.f.f.f.f.f.f.f.f.f.f.f.f.f.f.f.f.f.f.f.f.f.f.f.f.f.f.f.f.f.f.f.f.f.f.f.f.f.f.f.f.f.f.f.f.f.f.f.f.f.f.f.f.f.f.f.f.",
"f.f.f.f.f.f.f.f.f.f.f.f.f.f.f.f.f.f.f.f.f.f.f.f.f.f.f.f.f.f.f.f.f.f.f.f.f.f.f.f.f.f.f.f.f.f.f.f.f.f.f.f.f.f.f.f.f.f.f.f.f.f.f.f.f.f.f.f.f.f.f.f.f.f.f.f.f.f.f.f.",
"f.f.f.f.f.f.f.f.f.f.f.f.f.f.f.f.f.f.f.f.f.f.f.f.f.f.f.f.f.f.f.f.f.f.f.f.f.f.f.f.f.f.f.f.f.f.f.f.f.f.f.f.f.f.f.f.f.f.f.f.f.f.f.f.f.f.f.f.f.f.f.f.f.f.f.f.f.f.f.f.",
"f.f.f.f.f.f.f.f.f.f.f.f.f.f.f.f.f.f.f.f.f.f.f.f.f.f.f.f.f.f.f.f.f.f.f.f.f.f.f.f.f.f.f.f.f.f.f.f.f.f.f.f.f.f.f.f.f.f.f.f.f.f.f.f.f.f.f.f.f.f.f.f.f.f.f.f.f.f.f.f.",
"f.f.f.f.f.f.f.f.f.f.f.f.f.f.f.f.f.f.f.f.f.f.f.f.f.f.f.f.f.f.f.f.f.f.f.f.f.f.f.f.f.f.f.f.f.f.f.f.f.f.f.f.f.f.f.f.f.f.f.f.f.f.f.f.f.f.f.f.f.f.f.f.f.f.f.f.f.f.f.f.",
"f.f.f.f.f.f.f.f.f.f.f.f.f.f.f.f.f.f.f.f.f.f.f.f.f.f.f.f.f.f.f.f.f.f.f.f.f.f.f.f.f.f.f.f.f.f.f.f.f.f.f.f.f.f.f.f.f.f.f.f.f.f.f.f.f.f.f.f.f.f.f.f.f.f.f.f.f.f.f.f.",
"f.f.f.f.f.f.f.f.f.f.f.f.f.f.f.f.f.f.f.f.f.f.f.f.f.f.f.f.f.f.f.f.f.f.f.f.f.f.f.f.f.f.f.f.f.f.f.f.f.f.f.f.f.f.f.f.f.f.f.f.f.f.f.f.f.f.f.f.f.f.f.f.f.f.f.f.f.f.f.f.",
"f.f.f.f.f.f.f.f.f.f.f.f.f.f.f.f.f.f.f.f.f.f.f.f.f.f.f.f.f.f.f.f.f.f.f.f.f.f.f.f.f.f.f.f.f.f.f.f.f.f.f.f.f.f.f.f.f.f.f.f.f.f.f.f.f.f.f.f.f.f.f.f.f.f.f.f.f.f.f.f."
};
