/* XPM */
static char *xpm_[] = {
/* columns rows colors chars-per-pixel */
"80 80 79 1 ",
"  c #666666",
". c #666666",
"X c #666666",
"o c #666666",
"O c #666666",
"+ c #666666",
"@ c #666666",
"# c #666666",
"$ c #666666",
"% c #C3C3C4",
"& c #C3C3C4",
"* c #C3C3C4",
"= c #C3C3C4",
"- c #0497D7",
"; c #0397D7",
": c #C3C3C4",
"> c #0597D7",
", c #0397D7",
"< c #0397D7",
"1 c #0E9AD6",
"2 c #139BD6",
"3 c #0396D7",
"4 c #159BD6",
"5 c #2FA2D4",
"6 c #229ED4",
"7 c #2DA1D3",
"8 c #39A4D2",
"9 c #45A7D2",
"0 c #5EACCF",
"q c #47A7D1",
"w c #54AAD0",
"e c #65AECE",
"r c #7DB3CC",
"t c #C3C3C4",
"y c #C3C3C4",
"u c #C3C3C4",
"i c #C3C3C4",
"p c #C3C3C4",
"a c #C3C3C4",
"s c #C3C3C4",
"d c #C3C3C4",
"f c #8AB6CB",
"g c #99BAC9",
"h c #ABBEC7",
"j c #B6C0C6",
"k c #BAC1C5",
"l c #C4C3C4",
"z c #D1C6C3",
"x c #C3C3C4",
"c c #C3C3C4",
"v c #C3C3C4",
"b c #C3C3C4",
"n c #666666",
"m c #666666",
"M c #666666",
"N c #0397D7",
"B c #666666",
"V c #C3C3C4",
"C c #C3C3C4",
"Z c #0497D7",
"A c #0397D7",
"S c #0397D7",
"D c #0397D7",
"F c #C3C3C4",
"G c #C3C3C4",
"H c #C3C3C4",
"J c #C3C3C4",
"K c #C3C3C4",
"L c #666666",
"P c #666666",
"I c #A0A0A0",
"U c #C3C3C4",
"Y c #C3C3C4",
"T c #C3C3C4",
"R c #C3C3C4",
"E c #A5A5A6",
"W c #C3C3C4",
"Q c #C3C3C4",
"! c None",
/* pixels */
"!!!!!!!!!!!!!!!!!!!!!!!!!!!!!!!!!!!!!!!!!!!!!!!!!!!!!!!!!!!!!!!!!!!!!!!!!!!!!!!!",
"!!!!!!!!!!!!!!!!!!!!!!!!!!!!!!!!!!!!!!!!!!!!!!!!!!!!!!!!!!!!!!!!!!!!!!!!!!!!!!!!",
"!!!!!!!!!!!!!!!!!!!!!!!!!!!!!!!!!!!!!!!!!!!!!!!!!!!!!!!!!!!!!!!!!!!!!!!!!!!!!!!!",
"!!!!!!!!!!!!!!!!!!!!!!!!!!!!!!!!!!!!!!!!!!!!!!!!!!!!!!!!!!!!!!!!!!!!!!!!!!!!!!!!",
"!!!!!!!!!!!!!!!!!!!!!!!!!!!!!!!!!!!!!!!!!!!!!!!!!!!!!!!!!!!!!!!!!!!!!!!!!!!!!!!!",
"!!!!!!!!!!!!!!!!!!!!!!!!!!!!!!!!!!!!!!!!!!!!!!!!!!!!!!!!!!!!!!!!!!!!!!!!!!!!!!!!",
"!!!!!!!!!!!!!!!!!!!!!!!!!!!!!!!!!!!!!!!!!!!!!!!!!!!!!!!!!!!!!!!!!!!!!!!!!!!!!!!!",
"!!!!!!!!!!!!!!!!!!!!!!!!!!!!!!!!!!!!!!!!!!!!!!!!!!!!!!!!!!!!!!!!!!!!!!!!!!!!!!!!",
"!!!!!!!!!!!!!!!!!!!!!!!!!!!!!!!!!!!!!!!!!!!!!!!!!!!!!!!!!!!!!!!!!!!!!!!!!!!!!!!!",
"!!!!!!!!!!!!!!!!!!!!!!!!!!!!!!!!!!!!!!!!!!!!!!!!!!!!!!!!!!!!!!!!!!!!!!!!!!!!!!!!",
"!!!!!!!!!!!!!!!!!!!!!!!!!!!!!!!!!!!!!!!!!!!!!!!!!!!!!!!!!!!!!!!!!!!!!!!!!!!!!!!!",
"!!!!!!!!!!!!!!!!!!!!!!!!!!!!!!!!!!!!!!!!!!!!!!!!!!!!!!!!!!!!!!!!!!!!!!!!!!!!!!!!",
"!!!!!!!!!!!!!!!!!!!!!!!!!!!!!!!!!!!!!!!!!!!!!!!!!!!!!!!!!!!!!!!!!!!!!!!!!!!!!!!!",
"!!!!!!!!!!!!!!!!!!!!!!!!!!!!!!!!!!!!!!!!!!!!!!!!!!!!!!!!!!!!!!!!!!!!!!!!!!!!!!!!",
"!!!!!!!!!!!!!!!!!!!!!!!!!!!!!!!!!!!!!!!!!!!!!!!!!!!!!!!!!!!!!!!!!!!!!!!!!!!!!!!!",
"!!!!!!!!!!!!!!!!!!!!!!!!!!!!!!!!!!!!!!!!!!!!!!!!!!!!!!!!!!!!!!!!!!!!!!!!!!!!!!!!",
"!!!!!!!!!!!!!!!!!!!!!!!!!!!!!!!!!!!!!!!!!!!!!!!!!!!!!!!!!!!!!!!!!!!!!!!!!!!!!!!!",
"!!!!!!!!!!!!!!!!!!!!!!!!!!!!!!!!!!!!!!!!!!!!!!!!!!!!!!!!!!!!!!!!!!!!!!!!!!!!!!!!",
"!!!!!!!!!!!!!!!!!!!!!!!!!!!!!!!!!!!!!!!!!!!!!!!!!!!!!!!!!!!!!!!!!!!!!!!!!!!!!!!!",
"!!!!!!!!!!!!!!!!!!!!!!!!!!!!!!!!!!!!!!!!!!!!!!!!!!!!!!!!!!!!!!!!!!!!!!!!!!!!!!!!",
"!!!!!!!!!!!!!!!!!!!!!!!!!!!!!!!!!!!!!!!!!!!!!!!!!!!!!!!!!!!!!!!!!!!!!!!!!!!!!!!!",
"!!!!!!!!!!!!!!!!!!!!!!!!!!!!!!!!!!!!!!!!!!!!!!!!!!!!!!!!!!!!!!!!!!!!!!!!!!!!!!!!",
"!!!!!!!!!!!!!!!!!!!!!!!!!!!!!!!!!!!!!!!!!!!!!!!!!!!!!!!!!!!!!!!!!!!!!!!!!!!!!!!!",
"!!!!!!!!!!!!!!!!!!!!!!!!!!!!!!!!!!!!!!!!!!!!!!!!!!-3333333343333343333333333<!!!",
"!!!!!!!!!!!!!!!!!!!!!!!!!!!!!!!!!!!!!!!!!!!!!!!!!!-3333333333333333333333333>!!!",
"!!!!!!!!!!!!!!!!!!!!!!!!!!!!!!!!!!!!!!!!!!!!!!!!!!-3300eeeee0ee0ee0ee0e0ee43>!!!",
"!!!!!!!!!!!!!!!!!!!!!!!!!!!!!mpH!!!!!!!!!!!!!!!!!!-34kzzzzzzzzzzlzzzzzzzzz63>!!!",
"!!!!!!!!!!!!!!!!!!!!!!!!!!!!!bzzE!!!!!!!!!!!!!!!!!-34jllkkzljllklllllkllkk73>!!!",
"!!!!!!!!!!!!!!!!!!!!!!!!!!!!!blyE!!!!!!!!!!!!!!!!!-33klkzzggzllllklggzllll73>!!!",
"!!!!!!!!!!!!!!!!!!!!!!!!!!!!!bly!!!!!!!!!!!!!!!!!!-34jzzgq37lllllll83qglzl63>!!!",
"!!!!P$oo ooP!!!!!!$o OXoM!!!!bllvbbP!Tsb!!!!!+b-!!-34jg73333hlllllh33338gl63>!!!",
"!!!P........M!!!! .......B!!!bllzzzb!VzzI!!!!zzF!!-33lf3340jlklllllk0433rz43>!!!",
"!!!$..$GM@.. !!!@..$mm@...!!!bll%bcL!Wzzb!!!UzzI!!,43kl8ekzlllllllklzke8ll73>!!!",
"!!!..o!!!!@..P!!X.O!!!!@..M!!Gll!!!!!!azh!!!%zk!!!-44kllzlklllllllllllzlll73>!!!",
"!!!..$!!P!@..P!!X.o!!!!@..M!!blsE!!!!!VzzW!EllF!!!-34hllkllllllllllllkkllk43,!!!",
"!!!..$!!!!@..P!!X.o!!!!$..M!!bkkE!!!!!EzzH!RzzRE!!-34kllllllzllkllzllllllk73<!!!",
"!!!..$!!!!@..P!!X.o!!P!m..M!!bzkP!!!!!!hlx!bzz!!!!-43klllkzeqhzzlk0qzlllll63,!!!",
"!!!..$!!!!@..P!!X.o!!!!R..M!!blkP!!!!!!ClkEhzx!!!!-33klllkk333qg0433fzklkl63<!!!",
"!!!..$!!!!@..R!!o.o!!!!M..M!!blkE!!!!!!Wzz*lzW!!!!;44klllzk043333338gzzlll73>!!!",
"!!!...!!!!#..P!!o..P!!!$..R!!Kllb!E!!!!!azzzz!!!!!-44ghhhhgkgq3337fkkhgghh73>!!!",
"!!!U..X$$X..$!!!M:. $$o.x !!!MlzzhjW!!E!Fzzz*!!!!!-4334443334433444334443444q!!!",
"!!!!o.......R!!!Po......xP!!!!MkzzzC!!!!Qzzzn!!!!!,43444333433334443334444447!!!",
"!!!!!M@@@o..@!!!!!Eo$$@ME!!!!!!!M+TP!!!!!BnR!!!!!!NZNAZZNNAAZZNNZZZZNNZZNAAZI!!!",
"!!!!!!!!!!O.o!!!!!!!!!!!!!!!!!!!!!!!!!!!!!!!!!!!!!!!!!!!!!!!!!!!!!!!!!!!!!!!!!!!",
"!!!M@MR!!!..o!!!!!!!!!!!!!!!!!!!!!!!!!!!!!!!!!!!!!!!E!!!!!!E!!!E!!!!!!!!!!E!!!!!",
"!!!M...o$ ..@!!!P!!!!!!!!!!!!!!!!!!!!!!!!!!!!!!!!!!!!!!!!!!!!!!!!!E!!!!!!!!!!!!!",
"!!!!M......o!!!Kl!!!!!!!E!!!!!!!!!!!!!!!!!!!!!!!!LGE!!!!!!!!!!!!&z&!!!Elx!CK!!!!",
"!!!!PP$B@@B!!!!=y!!!!!!!!!!!!!!!!!!!!!!!!!!!!!!!!Hz!!!!!!!!!!!EGzPE!!!!BQ!k:!!!!",
"!!!!!!!!!!!!!!!akb*M!!QvsH!!!!!!msb#!!!bcbE!!MbxE=zbI!!!!maaH!!yl$!!!!!#!!zi.!!!",
"!!!!!!!!!!!!!!!dkbaz!Ez:#z*!!!!Cz&=zT!Vd@za!Mz:bEgdbQ!E!Mzb*zV!kab!!!!Mz!Ezx%!!!",
"!!!!!!!!!!!!!!!zY!Qz!Hz!!dx!!!!d*!!z$!!IEyh!%l!!!zM!!!!!xb!!zG!zK!!!!!bz!Lz!!!!!",
"!!!!!!!!!!!!!!ElW!bz!xzzzz@!!!!zH!IzPEjdazH!u&!!LzQ!!!!!kX!EzMEzB!!!!!bx!#k!!!!!",
"!!!!!!!!!!!!!!=l!!as!kb!!W!!!!!zB!+z!:h!!zR!zV!!@z!!!!!Ezn!Rz!Tz!!!!!!y%!yb!!!!!",
"!!!!!!!!!!!!!!Kzx:zM!xzbz=!!!!EzlJtX!bzbdzH!zM!!QzzY!!!!kz:zb!bz!!!!!!lG!XzbE!!!",
"!!!!!!!!!!!!!!!UbbM!!Eb:KE!!!!blFpI!!!bbbCM!+!!!!R&Q!!!!EbvG!!MR!!!!!!G!!!VX!!!!",
"!!!!!!!!!!!!!!!!!!!!!!!!!!!!!!&g!!!!!!!!!!!!!!!!!!!!!!!!!!!!!!!!!!!!!!!!!!!!!!!!",
"!!!!!!!!!!!!!!!!!!!!!!!!!!!!!!lb!!!!!!!!!!!!!!!!!!!!!!!!!!!!!!!!!!!!!!!!!!!!!!!!",
"!!!!!!!!!!!!!!!!!!!!!!!!!!!!!!!!!!!!!!!!!!!!!!!!!!!!!!!!!!!!!!!!!!!!!!!!!!!!!!!!",
"!!!!!!!!!!!!!!!!!!!!!!!!!!!!!!!!!!!!!!!!!!!!!!!!!!!!!!!!!!!!!!!!!!!!!!!!!!!!!!!!",
"!!!!!!!!!!!!!!!!!!!!!!!!!!!!!!!!!!!!!!!!!!!!!!!!!!!!!!!!!!!!!!!!!!!!!!!!!!!!!!!!",
"!!!!!!!!!!!!!!!!!!!!!!!!!!!!!!!!!!!!!!!!!!!!!!!!!!!!!!!!!!!!!!!!!!!!!!!!!!!!!!!!",
"!!!!!!!!!!!!!!!!!!!!!!!!!!!!!!!!!!!!!!!!!!!!!!!!!!!!!!!!!!!!!!!!!!!!!!!!!!!!!!!!",
"!!!!!!!!!!!!!!!!!!!!!!!!!!!!!!!!!!!!!!!!!!!!!!!!!!!!!!!!!!!!!!!!!!!!!!!!!!!!!!!!",
"!!!!!!!!!!!!!!!!!!!!!!!!!!!!!!!!!!!!!!!!!!!!!!!!!!!!!!!!!!!!!!!!!!!!!!!!!!!!!!!!",
"!!!!!!!!!!!!!!!!!!!!!!!!!!!!!!!!!!!!!!!!!!!!!!!!!!!!!!!!!!!!!!!!!!!!!!!!!!!!!!!!",
"!!!!!!!!!!!!!!!!!!!!!!!!!!!!!!!!!!!!!!!!!!!!!!!!!!!!!!!!!!!!!!!!!!!!!!!!!!!!!!!!",
"!!!!!!!!!!!!!!!!!!!!!!!!!!!!!!!!!!!!!!!!!!!!!!!!!!!!!!!!!!!!!!!!!!!!!!!!!!!!!!!!",
"!!!!!!!!!!!!!!!!!!!!!!!!!!!!!!!!!!!!!!!!!!!!!!!!!!!!!!!!!!!!!!!!!!!!!!!!!!!!!!!!",
"!!!!!!!!!!!!!!!!!!!!!!!!!!!!!!!!!!!!!!!!!!!!!!!!!!!!!!!!!!!!!!!!!!!!!!!!!!!!!!!!",
"!!!!!!!!!!!!!!!!!!!!!!!!!!!!!!!!!!!!!!!!!!!!!!!!!!!!!!!!!!!!!!!!!!!!!!!!!!!!!!!!",
"!!!!!!!!!!!!!!!!!!!!!!!!!!!!!!!!!!!!!!!!!!!!!!!!!!!!!!!!!!!!!!!!!!!!!!!!!!!!!!!!",
"!!!!!!!!!!!!!!!!!!!!!!!!!!!!!!!!!!!!!!!!!!!!!!!!!!!!!!!!!!!!!!!!!!!!!!!!!!!!!!!!",
"!!!!!!!!!!!!!!!!!!!!!!!!!!!!!!!!!!!!!!!!!!!!!!!!!!!!!!!!!!!!!!!!!!!!!!!!!!!!!!!!",
"!!!!!!!!!!!!!!!!!!!!!!!!!!!!!!!!!!!!!!!!!!!!!!!!!!!!!!!!!!!!!!!!!!!!!!!!!!!!!!!!",
"!!!!!!!!!!!!!!!!!!!!!!!!!!!!!!!!!!!!!!!!!!!!!!!!!!!!!!!!!!!!!!!!!!!!!!!!!!!!!!!!",
"!!!!!!!!!!!!!!!!!!!!!!!!!!!!!!!!!!!!!!!!!!!!!!!!!!!!!!!!!!!!!!!!!!!!!!!!!!!!!!!!",
"!!!!!!!!!!!!!!!!!!!!!!!!!!!!!!!!!!!!!!!!!!!!!!!!!!!!!!!!!!!!!!!!!!!!!!!!!!!!!!!!",
"!!!!!!!!!!!!!!!!!!!!!!!!!!!!!!!!!!!!!!!!!!!!!!!!!!!!!!!!!!!!!!!!!!!!!!!!!!!!!!!!",
"!!!!!!!!!!!!!!!!!!!!!!!!!!!!!!!!!!!!!!!!!!!!!!!!!!!!!!!!!!!!!!!!!!!!!!!!!!!!!!!!",
"!!!!!!!!!!!!!!!!!!!!!!!!!!!!!!!!!!!!!!!!!!!!!!!!!!!!!!!!!!!!!!!!!!!!!!!!!!!!!!!!"
};
