/* XPM */
static char *xpm_[] = {
/* columns rows colors chars-per-pixel */
"80 80 213 2 ",
"   c #8E5623",
".  c #955D26",
"X  c #9E6329",
"o  c #A36C2A",
"O  c #905725",
"+  c #905825",
"@  c #BC0E19",
"#  c #C1181D",
"$  c #E93739",
"%  c #BE121B",
"&  c #A06B31",
"*  c #915825",
"=  c #BC2F20",
"-  c #905825",
";  c #AA722B",
":  c #A87535",
">  c #BC8932",
",  c #B07E3E",
"<  c #AF7D3E",
"1  c #BE9142",
"2  c #F5E882",
"3  c #BB0C18",
"4  c #BC141A",
"5  c #BD141A",
"6  c #C1171D",
"7  c #BD231E",
"8  c #BA3321",
"9  c #BF2620",
"0  c #BF161B",
"q  c #C1181D",
"w  c #C2181E",
"e  c #E93739",
"r  c #E93739",
"t  c #C3181E",
"y  c #C81C21",
"u  c #D31F27",
"i  c #CE2226",
"p  c #D7282C",
"a  c #DE2E31",
"s  c #E73638",
"d  c #E93739",
"f  c #EA2F38",
"g  c #E93739",
"h  c #E93739",
"j  c #E93739",
"k  c #E93739",
"l  c #884E22",
"z  c #994524",
"x  c #8C5424",
"c  c #945B26",
"v  c #9E6628",
"b  c #AB4B29",
"n  c #B94929",
"m  c #AB542A",
"M  c #BC592B",
"N  c #9B652A",
"B  c #A56B29",
"V  c #B6692A",
"C  c #AC742C",
"Z  c #B4762E",
"A  c #A46E30",
"S  c #AD7937",
"D  c #B57B34",
"F  c #B17E34",
"G  c #AA742B",
"H  c #9A652C",
"J  c #AB7A36",
"K  c #B58336",
"L  c #DD973D",
"P  c #DB9236",
"I  c #C05327",
"U  c #E7483A",
"Y  c #C57B2F",
"T  c #D67D28",
"R  c #C47631",
"E  c #E46A3C",
"W  c #BC141A",
"Q  c #BF151B",
"!  c #D5272B",
"~  c #E93739",
"^  c #E93739",
"/  c #E93739",
"(  c #E83638",
")  c #D6282C",
"_  c #E93739",
"`  c #E93739",
"'  c #E93739",
"]  c #D7A330",
"[  c #B17E2C",
"{  c #C18D32",
"}  c #B5852E",
"|  c #E2A245",
" . c #D88631",
".. c #DD923A",
"X. c #E1A448",
"o. c #E5B353",
"O. c #EAC864",
"+. c #F3D643",
"@. c #B8842E",
"#. c #BA8536",
"$. c #C59036",
"%. c #E1A549",
"&. c #E0A246",
"*. c #F4D73A",
"=. c #C68D2E",
"-. c #D8842E",
";. c #CA922C",
":. c #C58A34",
">. c #DA8A33",
",. c #C89536",
"<. c #DC953B",
"1. c #D29E2F",
"2. c #E1963D",
"3. c #E3833E",
"4. c #CEA038",
"5. c #D7A839",
"6. c #DEB23A",
"7. c #E9C236",
"8. c #E5BA3A",
"9. c #E4AB3E",
"0. c #EEC838",
"q. c #EEC63B",
"w. c #F1CA3C",
"e. c #F4D63B",
"r. c #B38140",
"t. c #E6B958",
"y. c #E2AB4D",
"u. c #CA9C47",
"i. c #DE9D42",
"p. c #E3AB4E",
"a. c #E29D42",
"s. c #CAA24C",
"d. c #DCA846",
"f. c #DFB74A",
"g. c #CCA652",
"h. c #DAB259",
"j. c #DEBC5A",
"k. c #E4C05F",
"l. c #E2A84B",
"z. c #E7BB48",
"x. c #E3AE52",
"c. c #E6B957",
"v. c #DFBF61",
"b. c #EBD270",
"n. c #E4B252",
"m. c #EDCC57",
"M. c #EBCD68",
"N. c #EFD565",
"B. c #EEC844",
"V. c #F1CC41",
"C. c #F4D847",
"Z. c #E8C45A",
"A. c #F2D557",
"S. c #F4DC57",
"D. c #F3D94D",
"F. c #F8E150",
"G. c #F2DB6C",
"H. c #EACA66",
"J. c #EDD26B",
"K. c #F2DA69",
"L. c #F0DE79",
"P. c #F3DF7B",
"I. c #F7E368",
"U. c #F3E27C",
"Y. c #F2DD73",
"T. c #F2DA5A",
"R. c #F3D743",
"E. c #F3D53C",
"W. c #F4E793",
"Q. c #F4E88E",
"!. c #EFDE86",
"~. c #F5E783",
"^. c #BF161B",
"/. c #8F5624",
"(. c #C0161C",
"). c #8E5524",
"_. c #8D5424",
"`. c #A5702F",
"'. c #925925",
"]. c #BE131A",
"[. c #CD2125",
"{. c #E83638",
"}. c #E93739",
"|. c #925A25",
" X c #B07E3E",
".X c #B17F38",
"XX c #E93739",
"oX c #E93739",
"OX c #D5272B",
"+X c #CD9E47",
"@X c #F3E27D",
"#X c #EBBE4C",
"$X c #F3E27D",
"%X c #EBBF49",
"&X c #F0DB71",
"*X c #F1D23F",
"=X c #EFCC4A",
"-X c #F1DE78",
";X c #F3D53C",
":X c #CFA345",
">X c #AE3423",
",X c #C81E22",
"<X c #E93739",
"1X c #935C28",
"2X c #DA2B2F",
"3X c #E7C55C",
"4X c #E5BF39",
"5X c #EDD167",
"6X c #C8452E",
"7X c #D94034",
"8X c #E8CD56",
"9X c None",
"0X c #FFFFA1",
/* pixels */
"9X9X9X9X9X9X9X9X9X9X9X9X9X9X9X9X9X9X9X9X9X9X9X9X9X9X9X9X9X9X9X9X9X9X9X9X9X9X9X9X9X9X9X9X9X9X9X9X9X9X9X9X9X9X9X9X9X9X9X9X9X9X9X9X9X9X9X9X9X9X9X9X9X9X9X9X9X9X9X9X",
"9X9X9X9X9X9X9X9X9X9X9X9X9X9X9X9X9X9X9X9X9X9X9X9X9X9X9X9X9X9X9X9X9X9X9X9X9X9X9X9X9X9X9X9X9X9X9X9X9X9X9X9X9X9X9X9X9X9X9X9X9X9X9X9X9X9X9X9X9X9X9X9X9X9X9X9X9X9X9X9X",
"9X9X9X9X9X9X9X9X9X9X9X9X9X9X9X9X9X9X9X9X9X9X9X9X9X9X9X9X9X9X9X9X9X9X9X9X9X9X9X9X9X9X9X9X9X9X9X9X9X9X9X9X9X9X9X9X9X9X9X9X9X9X9X9X9X9X9X9X9X9X9X9X9X9X9X9X9X9X9X9X",
"9X9X9X9X9X9X9X9X9X9X9X9X9X9X9X9X9X9X9X9X9X9X9X9X9X9X9X9X9X9X9X9X9X9X9X9X9X9X9X9X9X9X9X9X9X9X9X9X9X9X9X9X9X9X9X9X9X9X9X9X9X9X9X9X9X9X9X9X9X9X9X9X9X9X9X9X9X9X9X9X",
"9X9X9X9X9X9X9X9X9X9X9X9X9X9X9X9X9X9X9X9X9X9X9X9X9X9X9X9X9X9X9X9X9X9X9X9X9X9X9X9X9X9X9X9X9X9X9X9X9X9X9X9X9X9X9X9X9X9X9X9X9X9X9X9X9X9X9X9X9X9X9X9X9X9X9X9X9X9X9X9X",
"9X9X9X9X9X9X9X9X9X9X9X9X9X9X9X9X9X9X9X9X9X9X9X9X9X9X9X9X9X9X9X9X9X9X9X9X9X9X9X9X9X9X9X9X9X9X9X9X9X9X9X9X9X9X9X9X9X9X9X9X9X9X9X9X9X9X9X9X9X9X9X9X9X9X9X9X9X9X9X9X",
"9X9X9X9X9X9X9X9X9X9X9X9X9X9X9X9X9X9X9X9X9X9X9X9X9X9X9X9X9X9X9X9X9X9X9X9X9X9X9X9X9X9X9X9X9X9X9X9X9X9X9X9X9X9X9X9X9X9X9X9X9X9X9X9X9X9X9X9X9X9X9X9X9X9X9X9X9X9X9X9X",
"9X9X9X9X9X9X9X9X9X9X9X9X9X9X9X9X9X9X9X9X9X9X9X9X9X9X9X9X9X9X9X9X9X9X9X9X9X9X9X9X9X9X9X9X9X9X9X9X9X9X9X9X9X9X9X9X9X9X9X9X9X9X9X9X9X9X9X9X9X9X9X9X9X9X9X9X9X9X9X9X",
"9X9X9X9X9X9X9X9X9X9X9X9X9X9X9X9X9X9X9X9X9X9X9X9X9X9X9X9X9X9X9X9X9X9X9X9X9X9X9X9X9X9X9X9X9X9X9X9X9X9X9X9X9X9X9X9X9X9X9X9X9X9X9X9X9X9X9X9X9X9X9X9X9X9X9X9X9X9X9X9X",
"9X9X9X9X9X9X9X9X9X9X9X9X9X9X9X9X9X9X9X9X9X9X9X9X9X9X9X9X9X9X9X9X9X9X9X9X9X9X9X9X9X9X9X9X9X9X).3X-XQ.Q.N.E.9X9X9X9X9X9X9X9X9X9X9X9X9X9X9X9X9X9X9X9X9X9X9X9X9X9X9X",
"9X9X9X9X9X9X9X9X9X9X9X9X9X9X9X9X9X9X9X9X9X9X9X9X9X9X9X9X9X9X9X9X9X9X9X9X9X9X9X6X*X*XE.E.m.Y.L.U.~.~.v.Z : 9X9X9X9X9X9X9X9X9X9X9X9X9X9X9X9X9X9X9X9X9X9X9X9X9X9X9X",
"9X9X9X9X9X9X9X9X9X9X9X9X9X9X9X9X9X9X9X9X9X9X9X9X9X9X9X9X9X9X9X9X3X3X* E.E.q.F.e.F.F.F.I.S.I.U.U.H.h.B x < 9X9X9X9X9X9X9X9X9X9X9X9X9X9X9X9X9X9X9X9X9X9X9X9X9X9X9X",
"9X9X9X9X9X9X9X9X9X9X9X9X9X9X9X9X9X9X9X9X9X9X9X9X9X9X9XE.E.=.R.e.F.F.e.e.e.e.e.e.F.F.D.A.S.I.Z.,.n.C l x , 9X9X9X9X9X9X9X9X9X9X9X9X9X9X9X9X9X9X9X9X9X9X9X9X9X9X9X",
"9X9X9X9X9X9X9X9X9X9X9X9X9X9X9X9X6X6X*XQ.Q.Q.F >X9X9X9X3XA.C.F.e.e.F.q.e.e.e.e.e.e.e.F.F.A.s.Z $.A l c * 9X9X9X9X9X9X9X9X9X9X9X9X9X9X9X9X9X9X9X9X9X9X9X9X9X9X9X9X",
"9X9X9X9X9X9X9X9X8X*X*X4XE.E.m.Z.J.I.P.~.P.:.v v , 9X6X9XoXH.c.Z.e.e.e.e.e.e.e.e.e.e.C.5.Z Z $.Z l x X 9X9X9X9X9X9X9X9X9X9X9X9X9X9X9X9X9X9X9X9X9X9X9X9X9X9X9X9X9X",
"9X9X6X4X*XE.=.q.e.F.e.e.C.C.F.F.K.I.J.u.V x v ] F & 9X9X9X6Xp.H.B.Z.B.e.e.e.e.e.e.e.$.@.Z @.Z l x X 9X9X9X9X9X9X9X9X9X9X9X9X9X9X9X9X9X9X9X9X9X9X9X9X9X9X9X9X9X9X",
"9X9X9X*XF.F.F.e.e.e.w.e.q.e.D.A.I.z.D V c x x x A ).9X9X9X9X6Xj.x.x.x.x.z.z.V.q.,.Z D Y D Y N x X 9X9X9X9X9X9X9X9X9X9X9X9X9X9X9X9X9X9X9X9X9X9X9X9X9X9X9X9X9X9X9X",
"9X9X9X9X3XI.B.e.e.e.e.e.e.e.F.B.,.C Z N x c x x , 9X9X9X9X9X9X6Xn.x.l.l.x.l.x.:.:.@.:.D @.@.N   9X9X9X9X9X9X9X9X9X9X9X9X9X9X9X9X9X9X9X9X9X9X9X9X9X9X9X9X9X9X9X9X",
"9X9X9X9X9X*Xz.l.l.q.w.e.e.e.q.@.C R B x x x x * 9X9X9X9X9X9X9X9Xr.p.l.l.l.l.l.:.:.D :.D @.:.N 9X9X9X9X9X9X9X9X9X9X9X9X9X9X9X9X9X9X9X9X9X9X9X9X9X9X9X9X9X9X9X9X9X",
"9X9X9X9X9X9X/.l.l.a.a.d.q.=.F Z Z Z x x x c * 9X9X9X9X9X9X9X9X9Xn.l.d.l.a.l.l.:.:.=.#.:.@.Y  .9X9X9X9X9X9X9X9X9X).oXoX).oXoX).9X9X9X9X9X9X9X9X9X9X9X9X9X9X9X9X9X",
"9X9X9X9X9X9X9XE.a.i.a.a.:.C Z R D Z c x x   9X9X9X9X9X9X9X9X9X9X..a.l.a.a.a.d.:.:.:.@.:.:.:., 9X9X9X9X9X).% q 5 3 t t t t 3 3 5 Q oX9X9X9X9X9X9X9X9X9X9X9X9X9X9X",
"9X9X9X9X9X9X9XH a.i.2.a.i.Z Z Z Z Z c x x 2X9X9X9X9X9X9X9X9X9X9Xn.a.a.a.<.a.i.:.:.:.:.:.@.:. .9X9X9X[.w t t 4 4 3 t t i u i p p s f u ) 7X9X9X9X9X9X9X9X9X9X9X9X",
"9X9X9X9X9X9X9Xl 3.,.>.a.:.V S Z Z Z x x v ).9X9X9X9X9X9X9X9X9X9XJ <.2.2.2.<.<.,.:.:.:.:.:.:.l 9X[.0 t t 3 3 t y p g g U g g g g g g g g U ( 6X9X9X9X9X9X9X9X9X9X",
"9X9X9X9X9X9X9X.Xa.>.a.a.>.Z R Z Z Z c x x ).9X9X9X9X9X9X9X9X9X9XE.2.>.>.<.>.<.;.,.:.=.=.:.:.{ % t t 3 3 t u f g g g g g g g g g g g g g g g g 2X9X9X9X9X9X9X9X9X",
"9X9X9X9X9X9X9X; T.<.<.<.>.Z Z Z Z Z c x x ).9X9X9X9X9X9X9X9X9X9XR a.>.>.2.>.>.1.,.:.:.:.,.$.7 4 t 4 t p g g g g g g g g g g g g g g g g g g g g ( 9X9X9X9X9X9X9X",
"9X9X9X9X9X9X9XF f.4.>.>.:.C Z Z Z Z c x x ).9X9X9X9X9X9X9X9X6X9XN 3.-.>.-.>.>.>.,.:.=.,.Y 4 4 4 3 t f g g g g g g g g g g g g g g g g g g g g g g ( 9X9X9X9X9X9X",
"9X9X9X9X9X9X9XO >.>.>.<.:.V S Z Z D c l c ).9X9X9X6X9X9X6X9X9X9X .2.-.-.>.-.>.;.=.:.,.Y 4 4 4 4 y g g g g g g g g g g g g g g g g g g g g g g g g g ) 9X9X9X9X9X",
"9X9X9X9X9X9X9X- >.-.>.>.-.Z Z Z Z V c c r.*X6X6X0X5X0X*X@X*XQ.@Xa.>.-.-.-.-.-.;.:.=.:.4 4 t 4 i g g g g g g g g g g g g g g g g g g g g g g g g g g g oX9X9X9X9X",
"9X9X9X9X9X9X9Xv >.-.-.-.#.@.Z Z B p.L.L.L.P.~.P.~.~.~.~.!.P.~.U.~.Z.-.T -.-.-.=.=.:.4 4 t 4 p g g g g g g g g g g g g g g g g g g g g g g g g g g g g _ 9X9X9X9X",
"9X9X9X9X9X9X9X+ -.-.-.-.#.V S R h.~.U.~.~.P.U.U.~.~.~.~.U.L.L.L.!.~.L.l.-.-.-.=.=.8 3 4 4 u g g g g g g g g g g g g g g g g g g g g g g g g g g g g g U 6X9X9X9X",
"9X9X9X9X9X9X9XO -.-.-.-.-.I B Y.~.!.P.P.P.P.P.U.~.~.~.~.U.L.~.L.U.P.U.~.H.>.T :.I 3 4 4 t g g g g g g g g g g g g g g g g g g g g g g g g g g g g g g g ) 9X9X9X",
"9X9X9X9X9X9X9Xx -.@.-.-.@.n.H.!.~.~.~.~.~.~.~.~.~.~.~.~.~.~.~.~.~.~.~.~.~.I.l.I 4 4 4 4 g g g g g g g g g g g g g g g g g g g g g g g g g g g g g g g g ( 9X9X9X",
"9X9X9X9X9X9X9X .>.T -.-.:.Z.H.Z.Z.Z.Z.Z.Z.x.h.f.j.f.f.j.f.d.f.d.l.5.d.d.5.5.d.n 3 4 3 d g g g g g g g g g g g g g g U g g g g g g g g g g g g g g g g g k 9X9X9X",
"9X9X9X9X9X9X9X .-.T >.>.Y =.;.;.;.;.;.1.;.;.;.=.;.;.;.1.=.;.=.,.=.;.=.,.=.=.-.$.M 3 y g g g g g g g g g g g g g g g ' ( <Xf f g g g g g g g g g g g g g g 9X9X9X",
"9X9X9X9X9X9X9X .>.>.>.<.:.B @.,.,.$.,.&.=.$.:.n.,.$.&.$.$.$.:.#.:.#.r.#.:.-.-.@.#.V i p g g g g g g g g g g g U ~ 6X9X9X9Xq y u g g g g g g g g g g g g g 9X9X9X",
"9X9X9X9X9X9X9X .>.>.>.>.:.B B D #.#.#.r.#.#.r.r.#.#.#.r.r.#.r.r.r.#.r.:.-.-.-.D C D C e p g g g g g g g g g g ( 9X9X9X9X9X% 4 3 a g g g g g g g g g g g g 9X9X9X",
"9X9X9X9X9X9X9X .i.>.i.i.:.B B N S r.r.r.r.r.r.S S S S r.r.r.S S r.D :.-.-.-.>.D C A Z S b y f g g g g g g g ( 9X9X9X9X9X9XQ y 3 u g g g g g g g g g g g j 9X9X9X",
"9X9X9X9X9X9X9X .i.>.3.i.:.B A B A S r.r.r.r.r.r.r.r.S r.r.r.r.r.r.:.>.>.2.>.>.D S V A V C m 7 f g g g g g ~ 9X9X9X9X9X9X9Xw 4 4 t g g g g g g g g g g g k 9X9X9X",
"9X9X9X9X9X9X9XX.a.2.a.a.:.C C C A C K N A , * , , , 0X, , , , X S 2.>.<.>.<.2.Z Z S S V A Z G % a g g g q 9X9X9X9X9X9X9XoX4 4 4 u g g g g g g g g g g g ~ 9X9X9X",
"9X9X9X9X9X9X9X..a.p.a.a.,.C C C C C x l J ).9X9X9X9X9X9X9X9X9X9Xv 2.<.<.2.<.<.:.D Z S S C Z   9X2Xq g d 9X9X9X9X9X9X9X9Xq 4 4 3 a g g g g g g g g g g g oX9X9X9X",
"9X9X9X9X9X9X9X .l.a.l.l.<.C Z Z D Z c x x 8X9X9X9X9X9X9X9X9X9X9XN 4.p.i.<.a.i.#.D D D D D D   9X9X9X{.oX9X9X9X9X9X9X9X[.t 4 4 4 g g g g g g g g g g g d 9X9X9X9X",
"9X9X9X9X9X9X9XQ.l.l.l.l.p.@.@.@.@.@.c l x ).9X9X9X9X9X9X9X9X9X9XJ d.i.d.a.l.d.:.:.D @.:.#.$.G 9X9X9X9X9X9X9X9X9X9X9X2X4 3 3 3 i g g g g g g g g g g g ~ 9X9X9X9X",
"9X9X9X9X9X9X9X .x.l.x.c.d.@.$.$.$.$.c l B >X9X9X9X9X9X9X9X9X9X9X| l.d.d.l.l.l.,.$.:.:.:.$.:.X 9X9X9X9X9X9X9X9X9X9X9X4 4 4 4 t g g g g g g g g g g g g 2X9X9X9X9X",
"9X9X9X9X9X9X9XE.c.x.x.c.d.=.=.,.,.=.N  .c * 9X9X9X9X9X9X9X9X9X9X%.x.l.l.x.x.x.,.=.,.,.:.,.,.X 9X9X9X9X9X9X9X9X9X2X5 t 4 4 4 a g g g g g g g g g g g / 9X9X9X9X9X",
"9X9X9X9X9X9X9X$Xc.c.c.c.d.;.,.;.1.;.c l c >X9X9X9X9X9X9X9X9X9X9Xt.J.x.c.x.c.c.1.,.1.,.,.,.,.X 9X9X9X9X9X9X9X9X2X5 4 4 4 4 a g g g g g g g g g g g g 2X9X9X9X9X9X",
"9X9X9X9X9X9X9XE.c.c.H.v.z.5.5.5.4.5.N l x ).9X9X9X9X9X9X9X9X9X9Xn.Z.c.c.c.c.c.9.5.4.1.1.1.5.G 9X9X9X9X9X9X9X2Xt 4 4 4 t p g g g g g g g g g g g g {.9X9X9X9X9X9X",
"9X9X9X9X9X6X9XE.H.c.c.H.c.5.5.5.6.5.N  .c * 9X>X9X9X9X9X9X9X9X9Xn.K.c.c.c.c.c.9.5.5.5.5.d.5.{ 9X9X9X9X9X9X).4 4 4 4 4 p g g g g g g g g g g g g ~ 9X9X9X9X9X9X9X",
"9X9X9X9X9X9X6X&XH.c.H.H.B.6.8.8.8.8.N l c 8X9X9X9X9X9X9X9X9X9X9XO.K.c.H.c.H.H.9.6.6.6.6.5.6.G 9X9X9X9X9X).4 t 4 4 4 g g g g g g g g g g g g g ' 9X9X9X9X9X9X9X9X",
"9X9X9X9X9X9X9X-X~.K.H.H.c.8.8.8.8.8.N l v 7X9X9X9X9X9X9X9X9X9X9Xn.c.c.Z.c.Z.Z.z.8.8.9.8.8.8.} 9X9X9X9X[.t 4 4 4 4 a g g g g g g g g g g g g k 9X9X9X9X9X9X9X9X9X",
"9X9X9X9X9X9X9Xr.H.H.H.H.c.8.w.8.q.8.N l x * 9X9X9X9X9X9X9X9X9X9Xn.H.H.Z.H.H.H.8.8.q.8.8.8.8.} 9X9X9XoXt 4 4 3 4 a g g g g g g g g g g g g k 9X9X9X9X9X9X9X9X9X9X",
"9X9X9X9X9X9X6X&XH.c.H.H.B.8.w.8.q.q.N l x 8X9X9X9X9X9X9X9X9X9X9XQ.K.H.H.H.H.H.B.q.q.w.q.q.8.G 9X9X% t t 4 4 t a g g g g g g g g g g g g k 2X9X9X9X9X9X9X9X9X9X9X",
"9X9X9X9X9X6X9XQ.J.H.J.H.Z.w.w.w.q.w.N l x ).9X9X9X9X9X9X9X9X9X9Xn.K.H.H.H.J.H.w.q.w.w.w.q.q.G 9X% t t t t t s g g g g g g g g g g g g k 9X9X9X9X9X9X9X9X9X9X9X9X",
"9X9X9X9X9X9X9XQ.H.H.H.J.A.w.w.w.w.w.N l m 8X9X9X9X9X9X9X9X9X9X9Xt.K.K.J.J.J.H.B.q.w.w.w.q.w.} % t 3 4 4 t a g g g g g g g g g g g g e 9X9X9X9X9X9X9X9X9X9X9X9X9X",
"9X9X9X9X9X9X9X$XJ.H.H.H.Z.w.w.w.w.w.N l c ).9X9X9X9X9X9X9X9X9X9XW.U.J.J.H.J.J.B.w.q.w.q.q.e.V 3 4 4 4 t g g g g g g g g g g g g g e 9X9X9X9X9X9X9X9X9X9X9X9X9X9X",
"9X9X9X9X9X9X9XE.J.H.J.H.A.w.w.w.w.w.B l c * 9X9X9X9X9X9X9X9X9X9Xm.J.H.J.J.J.H.B.w.w.w.q.w.w.V 3 4 4 t s g g g g g g g g g g g g ) 9X9X9X9X9X9X9X2X9X9X9X9X9X9X9X",
"9X9X9X9X9X9X7X!.H.J.K.H.z.w.e.w.w.w.N x c c * 9X9X9X9X9X9X9X9X9Xt.J.H.J.J.J.J.q.w.q.w.w.w.w.V 3 4 t g g g g g g g g g g g g g {.9X9X2XoX[.% Q q t w oX9X9X9X9X9X",
"9X9X9X9X9X9XG.K.J.H.s.$.$.,.8.e.w.e.;.l v x x |.9X9X9X9X9X9X9X9Xt.~.J.J.J.J.H.B.w.w.w.w.q.w.C 3 u g g g g g g g g g g g g g q Q w 5 t 4 4 4 4 4 3 t u ) 6X9X9X9X",
"9X9X9X9X9XY.J.k.n.S Z #.=.$.=.5.q.w.e.Z l c x x |.9X9X9X9X9X9X>Xk.P.H.J.J.J.P.V.w.w.q.w.w.w.F z f g g g g g g g g g g g g t t t 4 3 3 t t t i p p f f g ( 9X9X9X",
"9X9X9X6XY.h.,.Z C Z @.@.$.$.=.=.1.8.e.w.N l x c A ).9X9X9X9X9XM.L.J.J.J.J.j.p.<.q.V.w.w.w.w.C l m g g g g g g g g g g a t t t i p a a g g g g g g g g g ( 9X9X9X",
"9X9X9X#X,   J 4.D D @.@.=.=.,.;.1.;.1.e.8.x x l N * 9X9X9X9XM.J.K.J.v.g.r.F C %.$.6.q.V.q.w.1.l  .n g g g g g g g g g g g g g g g g g g g g g g g g g g ( 9X9X9X",
"9X9X9X9X9X9X9X9X6X*X* &  .J @.1.7.1.1.7.q.7.N F * 9X9X9X6XH.L.Y.g.r.F N F @.%.@.#.#.s.8.w.w.e.,. .x b g g g g g g g g g g g g g g g g g g g g g g g g g ( 9X9X9X",
"9X9X9X9X9X9X9X9X9X9X9X9X9X9X9X9X#X4X, G G ,.$., 9X9X9X).b.k.r.A N N A F S S S %.r.*.,.,.5.8.w.V.;.l v b g g g g g g g g g g g g g g g g g g g g g g g g ( 9X9X9X",
"9X9X9X9X9X9X9X9X9X9X9X9X9X9X9X9X9X9X9X9X9X9X6X9X9X9X9X& K J K F K F F S F F @.%.$.$.,.,.,.d.6.q.e.=.l l I f g g g g g g g g g g g g g g g g g g g g g g ( 9X9X9X",
"9X9X9X9X9X9X9X9X9X9X9X9X9X9X9X9X9X9X9X9X9X9X9X9X9X9X9X9X9X9X9X).).* , X J F %.$.$.u.,.s.,.5.5.d.8.e.$.X m g g g g g g g g g g g g g g g g g g g g g g g ( 9X9X9X",
"9X9X9X9X9X9X9X9X9X9X9X9X9X9X9X9X9X9X9X9X9X9X9X9X9X9X9X9X9X9X9X9X9X9X9X9X9X9X2X( I I R -.a.d.d.6.f.8.w.@.z g g g g g g g g g g g g g g g g g g g g g g g ( 9X9X9X",
"9X9X9X9X9X9X9X9X9X9X9X9X9X9X9X9X9X9X9X9X9X9X9X9X9X9X9X9X9X9X9X9X9X9X9X9X9X9X9XoXt 3 t g g U U E E 3.2.l.R g g g g g g g g g g g g g g g g g g g g g g g ( 9X9X9X",
"9X9X9X9X9X9X9X9X9X9X9X9X9X9X9X9X9X9X9X9X9X9X9X9X9X9X9X9X9X9X9X9X9X9X9X9X9X9X9X* t 6 t g g g f f g g g g U g g g g g g g g g g g g g g s g g g g g g g g ( 9X9X9X",
"9X9X9X9X9X9X9X9X9X9X9X9X9X9X9X9X9X9X9X9X9X9X9X9X9X9X9X9X9X9X9X9X9X9X9X9X9X9X9X% t 3 y g g g g g g g g g g g g g g g g g g g g g g g g g g g g g s k ( ) oX9X9X9X",
"9X9X9X9X9X9X9X9X9X9X9X9X9X9X9X9X9X9X9X9X9X9X9X9X9X9X9X9X9X9X9X9X9X9X9X9X9X9X9X[.3 3 y g g g g g g g g g g g g g g g g g g g g g g g k ~ <X<X<XoX9X9X9X9X9X9X9X9X",
"9X9X9X9X9X9X9X9X9X9X9X9X9X9X9X9X9X9X9X9X9X9X9X9X9X9X9X9X9X9X9X9X9X9X9X9X9X9X9X% 4 6 y g g g g g g g g g g g g g g g k k ( oXoX2X9X9X9X9X9X9X9X9X9X9X9X9X9X9X9X9X",
"9X9X9X9X9X9X9X9X9X9X9X9X9X9X9X9X9X9X9X9X9X9X9X9X9X9X9X9X9X9X9X9X9X9X9X9X9X9X9X9XQ t t g g g g U g g d k / ` {.oXoX9X9X9X9X9X9X9X9X9X9X9X9X9X9X9X9X9X9X9X9X9X9X9X",
"9X9X9X9X9X9X9X9X9X9X9X9X9X9X9X9X9X9X9X9X9X9X9X9X9X9X9X9X9X9X9X9X9X9X9X9X9X9X9X9X9X).5 f k ) ( <XoX2X9X9X9X9X9X9X9X9X9X9X9X9X9X9X9X9X9X9X9X9X9X9X9X9X9X9X9X9X9X9X",
"9X9X9X9X9X9X9X9X9X9X9X9X9X9X9X9X9X9X9X9X9X9X9X9X9X9X9X9X9X9X9X9X9X9X9X9X9X9X9X9X9X9X9X9X9X9X9X9X9X9X9X9X9X9X9X9X9X9X9X9X9X9X9X9X9X9X9X9X9X9X9X9X9X9X9X9X9X9X9X9X",
"9X9X9X9X9X9X9X9X9X9X9X9X9X9X9X9X9X9X9X9X9X9X9X9X9X9X9X9X9X9X9X9X9X9X9X9X9X9X9X9X9X9X9X9X9X9X9X9X9X9X9X9X9X9X9X9X9X9X9X9X9X9X9X9X9X9X9X9X9X9X9X9X9X9X9X9X9X9X9X9X",
"9X9X9X9X9X9X9X9X9X9X9X9X9X9X9X9X9X9X9X9X9X9X9X9X9X9X9X9X9X9X9X9X9X9X9X9X9X9X9X9X9X9X9X9X9X9X9X9X9X9X9X9X9X9X9X9X9X9X9X9X9X9X9X9X9X9X9X9X9X9X9X9X9X9X9X9X9X9X9X9X",
"9X9X9X9X9X9X9X9X9X9X9X9X9X9X9X9X9X9X9X9X9X9X9X9X9X9X9X9X9X9X9X9X9X9X9X9X9X9X9X9X9X9X9X9X9X9X9X9X9X9X9X9X9X9X9X9X9X9X9X9X9X9X9X9X9X9X9X9X9X9X9X9X9X9X9X9X9X9X9X9X",
"9X9X9X9X9X9X9X9X9X9X9X9X9X9X9X9X9X9X9X9X9X9X9X9X9X9X9X9X9X9X9X9X9X9X9X9X9X9X9X9X9X9X9X9X9X9X9X9X9X9X9X9X9X9X9X9X9X9X9X9X9X9X9X9X9X9X9X9X9X9X9X9X9X9X9X9X9X9X9X9X",
"9X9X9X9X9X9X9X9X9X9X9X9X9X9X9X9X9X9X9X9X9X9X9X9X9X9X9X9X9X9X9X9X9X9X9X9X9X9X9X9X9X9X9X9X9X9X9X9X9X9X9X9X9X9X9X9X9X9X9X9X9X9X9X9X9X9X9X9X9X9X9X9X9X9X9X9X9X9X9X9X",
"9X9X9X9X9X9X9X9X9X9X9X9X9X9X9X9X9X9X9X9X9X9X9X9X9X9X9X9X9X9X9X9X9X9X9X9X9X9X9X9X9X9X9X9X9X9X9X9X9X9X9X9X9X9X9X9X9X9X9X9X9X9X9X9X9X9X9X9X9X9X9X9X9X9X9X9X9X9X9X9X",
"9X9X9X9X9X9X9X9X9X9X9X9X9X9X9X9X9X9X9X9X9X9X9X9X9X9X9X9X9X9X9X9X9X9X9X9X9X9X9X9X9X9X9X9X9X9X9X9X9X9X9X9X9X9X9X9X9X9X9X9X9X9X9X9X9X9X9X9X9X9X9X9X9X9X9X9X9X9X9X9X"
};
