/* XPM */
static char *xpm_[] = {
/* columns rows colors chars-per-pixel */
"80 80 177 2 ",
"   c #000000",
".  c #020202",
"X  c #010101",
"o  c #030303",
"O  c #020202",
"+  c #040404",
"@  c #030303",
"#  c #040404",
"$  c #E41853",
"%  c #E41D53",
"&  c #F79731",
"*  c #90C844",
"=  c #8EC846",
"-  c #8EC844",
";  c #047BC3",
":  c #B02490",
">  c #AE208E",
",  c #AF238F",
"<  c #B12891",
"1  c #AF228F",
"2  c #0079C2",
"3  c #047BC3",
"4  c #047BC3",
"5  c #43C5DE",
"6  c #4AC9DE",
"7  c #F8982C",
"8  c #F8992A",
"9  c #AE208E",
"0  c #E31553",
"q  c #E31754",
"w  c #AF2390",
"e  c #E31451",
"r  c #E31351",
"t  c #E31653",
"y  c #E31351",
"u  c #E31855",
"i  c #E31755",
"p  c #E31653",
"a  c #E31653",
"s  c #E41753",
"d  c #F89A2B",
"f  c #F8972D",
"g  c #F8992D",
"h  c #F89A2D",
"j  c #F8992D",
"k  c #FFDE07",
"l  c #FFDF07",
"z  c #8EC843",
"x  c #90C841",
"c  c #8FC843",
"v  c #8EC847",
"b  c #91C946",
"n  c #8EC847",
"m  c #8FC841",
"M  c #8EC741",
"N  c #FFDD09",
"B  c #F89A2B",
"V  c #F89A2A",
"C  c #F89828",
"Z  c #F8992A",
"A  c #FFDE07",
"S  c #FEDE08",
"D  c #FDDE08",
"F  c #F89A2A",
"G  c #F8982B",
"H  c #8DC73F",
"J  c #FFDE05",
"K  c #FEDD07",
"L  c #8DC845",
"P  c #8DC740",
"I  c #90C840",
"U  c #FFDE07",
"Y  c #FEDE07",
"T  c #FFDE08",
"R  c #FFDF08",
"E  c #0079C2",
"W  c #017AC2",
"Q  c #027AC3",
"!  c #017AC2",
"~  c #047BC3",
"^  c #037BC3",
"/  c #0079C2",
"(  c #027AC3",
")  c #027AC2",
"_  c #45C6DE",
"`  c #46C7DF",
"'  c #AF228F",
"]  c #AE208E",
"[  c #AE218F",
"{  c #AE208E",
"}  c #AF228F",
"|  c #44C6DE",
" . c #44C5DE",
".. c #44C5DD",
"X. c #42C5DE",
"o. c #44C6DE",
"O. c #41C5DE",
"+. c #41C5DE",
"@. c #46C6DE",
"#. c #47C6DF",
"$. c #44C5DE",
"%. c #020202",
"&. c #020202",
"*. c #040404",
"=. c #070707",
"-. c #E52054",
";. c #BEAD3C",
":. c #B12892",
">. c #AF2793",
",. c #0577C2",
"<. c #48C6DF",
"1. c #FAA52F",
"2. c #F8972F",
"3. c #E41856",
"4. c #AD2694",
"5. c #AC2897",
"6. c #E51A53",
"7. c #E41C57",
"8. c #E41A56",
"9. c #E52256",
"0. c #F89931",
"q. c #F89630",
"w. c #FFE209",
"e. c #F79534",
"r. c #B22891",
"t. c #8FC948",
"y. c #8AC748",
"u. c #8EC94B",
"i. c #93C941",
"p. c #FFDF07",
"a. c #F8992D",
"s. c #FEE009",
"d. c #8CC849",
"f. c #FEE009",
"g. c #FFE307",
"h. c #077DC4",
"j. c #097EC4",
"k. c #047AC3",
"l. c #4BC9E0",
"z. c #B02591",
"x. c #B02490",
"c. c #47C7DF",
"v. c #4DC8DA",
"b. c #4EC8D8",
"n. c #47C5DE",
"m. c #4AC8DD",
"M. c #4EC9E0",
"N. c #46C8EB",
"B. c #090909",
"V. c #060606",
"C. c #EA4E5B",
"Z. c #94CC56",
"A. c #736793",
"S. c #E2105E",
"D. c #E51D57",
"F. c #EA2152",
"G. c #F89735",
"H. c #F7903A",
"J. c #83C752",
"K. c #FCC916",
"L. c #FFE606",
"P. c #FFF602",
"I. c #9ECC43",
"U. c #087BC3",
"Y. c #1597D8",
"T. c #B12892",
"R. c #5CD5DD",
"E. c #4EC8DB",
"W. c #55D3E4",
"Q. c #2C3B2F",
"!. c #E45455",
"~. c #82C966",
"^. c #FEEC18",
"/. c #077CC3",
"(. c #AE208E",
"). c None",
"_. c #51C3D3",
/* pixels */
").).).).).).).).).).).).).).).).).).).).).).).).).).).).).).).).).).).).).).).).).).).).).).).).).).).).).).).).).).).).).).).).).).).).).).).).).).).).).).).).",
").).).).).).).).).).).).).).).).).).).).).).).).).).).).).).).).).).).).).).).).).).).).).).).).).).).).).).).).).).).).).).).).).).).).).).).).).).).).).).).).",
").).).).).).).).).).).).).).).).).).).).).).).).).).).).).).).).).).).).).).).).).).).).).).).).).).).).).).).).).).).).).).).).).).).).).).).).).).).).).).).).",
").).).).).).).).).).).).).).).).).).).).).).).).).).).).).).).).).).).).).).).).).).).).).).).).).).).).).).).).).).).).).).).).).).).).).).).).).).).).).).).).",
").).).).).).).).).).).).).).).).).).).).).).).).).).).).).).).).).).).).).).).).).).).).).).).).).).).).).).).).).).).).).).).).).).).).).).).).).).).).).).).).",
").).).).).).).).).).).).).).).).).).).).).).).).).).).).).).).).).).).).).).).).).).).).).).).).).).).).).).).).).).).).).).).).).).).).).).).).).).).).).).).).",
").).).).).).).).).).).).).).).).).).).).).).).).).).).).).).).).).).).).).).).).).).).).).).).).).).).).).).).).).).).).).).).).).).).).).).).).).).).).).).).).",
").).).).).).).).).).).).).).).).).).).).).).).).).).).).).).).).).).).).).).).).).).).).).).).).).).).).).).).).).).).).).).).).).).).).).).).).).).).).).).).).",
").).).).).).).).).).).).).).).).).).).).).).).).).).).).).).).).).).).).).).).).).).).).).).).).).).).).).).).).).).).).).).).).).).).).).).).).).).).).).).).).",
").).).).).).).).).).).).).).).).).).).).).).).).).).).).).).).).).).).).).).).).).).).).).).).).).).).).).).).).).).).).).).).).).).).).).).).).).).).).).).).).",
").).).).).).).).).).).).).).).).).).).).).).).).).).).).).).).).).).).).).).).).).).).).).).).).).).).).).).).).).).).).).).).).).).).).).).).).).).).).).).).).",
").).).).).).).).).).).).).).).).).).).).).).).).).).).).).).).).).).).).).).).).).).).).).).).).).).).).).).).).).).).).).).).).).).).).).).).).).).).).).).).).",
").).).).).).).).).).).).).).).).).).).).).).).).).).).).        ).).).).).).).).).).).).).).).).).).).).).).).).).).).).).).).).).).).).).).).).).).).).).).).).",
").).).).).).).).).).).).).).).).).).).).).).).).).).).).        ).).).).).).).&.).).).).).).).).).).).).).).).).).).).).).).).).).).).).).).).).).).).).).).).).",
").).).).).).).).).).).).).).).).).).).).).).).).).).).).    ).).).).%.).).Z.N S S R Z.*.).).).).).).).).).).).).).).).).).).).).).).).).).).).).).).).).).).).).",
").).).).).).).).).).).).).).).).).).).).).).).).).V.).).    ).  ).%.).).x J J J J J J R ).).).).).).).).).).).).).).).).).).).).).).).).).).).).).).).).).).).).",
").).).).).).).).).).).).).).).).).).).).).).).).%.%.).).).).).).).).Q.S J J J J J J J J U V.).).).).).B.B.).).).).).).).).).).).).).).).).).).).).).).).).).).).",
").).).).).).).).).).).).).).).).).).).).).).X ).Q.u.c P P L y.Q.).=.D J J J J J J J J J J R ).+ g.h F Z V G R B.).).).).).).).).).).).).).).).).).).).).).).).).",
").).).).).).).).).).).).).).).).).).).).).).).).L P P P I I I P v ).J J J J J J J J J J J N ).h C C C C C C C B !.).).).).).).).).).    ).).).).).).).).).).).).",
").).).).).).).).).).).).).).).).).).).).).).).P P L P P I P P P P *.I.J J J J J J J J J J I.Q.C C C C C C C C C C *.).).).).).).).).    ).).).).).).).).).).).).",
").).).).).).).).).).).).).).).).).).).).%.).- I P P P P P P P P P u.).J J J J J J J J J J =.1.C C C C C C C C C J 0.).).).).).).        ).).).).).).).).).).).).",
").).).).).).).).).).).).).).).).).).).).).).I I P P P P P P P I P z @ l J J J J J J J J l Q.C C C C C C C C C C C g O =.).).).).        ).).).).).).).).).).).).",
").).).).).).).).).).).).).).).).&.).).V.@ u.I I P P P P P P I I I I ).~.J J J J J J J J ~.I.C C C C C C C C C C C C q.Q.&.).%.).    ).).).).).).).).).).).).).).",
").).).).).).).).).).).).).).# Q.).).).).).t.I I P P P P P P I I I I v ).K J J J J J J S Q.& C C C C C C C C C C C C ;.).).).).).    ).).).).).).).).).).).).).).",
").).).).).).).).).).).).).).)._.l.M.6 ` W.Q.y.I I I I I I I I I I I I ).k J J J J J J R =.V C C C C C C C C C C C J.).H.i < % 0.(.).).).).).    ).).).).).).).).",
").).).).).).).).).).).).).B.M.+.+.+.+.+.+.M.Q.Z.I I I I I I I I I I I ~.;.J J J J J J ~.Q.C C C C C C C C C C F Q.)., y y y y y y 4.%.).).).    ).).).).).).).).",
").).).).).).).).).).).).V.M.+.+.+.+.+.+.+.+.+.~.).* I I I I I I I I I u.=.J J J J J K B.R C C C C C C C C C f B.A.y y y y y y y y y 3.+         ).).).).).).).).",
").).).).).).).).).).).).~.+.+.+.+.+.+.+.+.+.+.+.W.%.= I I I I I I I I b ).Y J J J J R Q.f C C C C C C C C e.Q.T.y y y y y y y y y r y F.).).    ).).).).).).).).",
").).).).).).).).).).).).( +.+.+.+.+.+.+.+.+.+.+.+.l.Q.= I I I I I I I I ).R J J J J ;.Q.C C C C C C C C h ).3.y y y y y y y y y y r y 3.).*.).).).).).).).).).).",
").).).).).).).).).).).).#.+.+.+.+.+.+.+.+.+.+.+.+.+.M.Q.d.I I I I I I I Q.Z.J J J J ~.I.C C C C C C C ;.Q.7.y y y y y y y y y y y r y 1 ).).).).).).).).).).).).",
").).).).).).).).).).).).| +.+.+.+.+.+.+.+.+.+.+.+.+.+.l.O d.I I P P I I I.).J J J J Q.t.C C C C C C u.Q.r.y y y y y y y y y y y y r { i ).).).).).).).).).).).).",
").).).).).).).).).).).).+.+.+.+.+.+.+.+.+.+.+.+.+.+.+.+.Q.).* I P P I I v V.N J J N Q.& C C C C C a.Q.e.y y y y y y y y y y y y y y y < %.%.).).).).).).).).).).",
").).).).).).).).).).).).Q.#.+.+.+.+.+.+.+.+.+.+.+.+.+.+.+.Q.).z P P P P n ).R J J R ).f C C m F 2.).H.{ y y y y y y y y r y y y y p 8.(.+ ).).).).).).).).).).).",
").).).).).).).).).).k.( U.).)./.#.+.+.+.+.+.+.+.+.+.+.+.+.o.=.).z P P I P ).I.J J I.%.7 C C I ~.).Q.y V y y y y y y r y y y t D.B.).Q.:., (.).).).).).).).).).).",
").).).).).).).)./.~ / / O./ 4 U.).)._.@.+.+.+.+.+.+.+.+.+.+.@.).Q.I I I I Q.Z.J J Q.~.C C C B   ).w y y y y y y y y y t i (.).V.T.' { { { { ] Q.).%.).).).).).).",
").).).).).).o U./ / / / / / / / $.( Q.=.Q.E.o.+.+.+.+.+.+.+.+.W.%.~.I I I ~.B.J J Q.J.C C C Z.O 8.y y y y y y y y w C.*.%.(.> { { { { { { { { { (.).%.).).).).).",
").).).).).).B./ / / / / / / / /  ./ / ! U.%.).U.@.+.+.+.+.+.+...).).b I I J.*.S S ).0.C C e.B.~.y y y y y y y a (.).).T.9 { { { { { { { { { { { { Q.).).).).).).",
").).).).).).k.X./ / / / / / / / / / / / / Q ,.).)._.$.+.+.o.o.+.6 %.Q.I I v ).Y l *.j J B %.).u y y y y y 1 ).%.Q.< { { { { { { { { { { { { { { { < ).X ).).).).",
").).).).).).( / / / / / / / / / / / / / / / / / Y.*.).J.b.o.+.+.+.Z.).;.I i.).R l Q.j K Z.).A.y y y y u (.).).4.{ { { { { { { { { { { { { { { { { : ).).).).).).",
").).).).).).( / / / / / / / / / / / / / / / / / O.o._.Q.. W.o.+.+.| ).).I I Q.p.u.).V B ).).q y y t F.B.=.T.{ { { { { { { { { { { { { { { { { { { : ).).).).).).",
").).).).  ).,.X./ / / / / / / / / / / / / / / / / / / h.+ ).Q.^ +.+.Z.Q.R.P ).I.;.  = ).).G.{ y r.+ ).).z.{ { { { { { { { { { { ] { { { { { { { { 9.).).).).).).",
").).).).).).+ / / / / / / / / @./ / / / / / / / / / / / / Q.).).l.+.M.# ).L Q.Q.~.~.z ).).q y H.).).T.{ { { { { { { { { { { { { ] ] { { { { { { { ).).).).).).).",
").).).).).  ).k.O. .W 2 / Q / ~ / ~ $.X./ / / / / / X./ / / U.B.).).+.Q.)._._.).).C.Q.).H.{ ~.).).1 { { { { { { { { { { { { { { ' ' ' ' ' [ { { x.).).).).).).).",
").).).).).).).  /.).).).).).).+ =.%././.U.j.j.( ( W / O./ / X.; ).+ _.v.).).+ ).).).).).< A.).)., { { { { { 9 5.: z.:.T.T.(.Q.Q.V.).).).).).=.).).).).).).).).).",
").).).).).).).).                        + ).).).).%.)./.U.U.) $.$.).).).).).).).).).).. ).).).{ { ' 5.T.(.Q.%.%.).).).).).).).).).).).).).).).).).).).).).).).).",
").).).).).).).).                        ).).    ).).).).+ %.V.B.m.v.%.).).).).).).).).).).).1 H.).).).).).).%.%.).).O ).).).V.).).).).).).).).).).).).).).).).).",
").).).).).).).).                    ).).).      ).).).).).).).).Q.. ).).).).).).).).).).).!.Q.).%.).%.).).).).).).).).).).).).).).).).).).).).).).).).).).).).).",
").).).).).).).).                    ).).).      ).).).).).).).).B.).).).).).).).).).).).).).).  %.).).%.).).).).).).).).).).).).).).).).).).).).).).).).).).).).",
").).).).).).).).).).).).).).).).).).).).).).).).).).).).).).).).).).).).).).).).).).).).).).).).%.).).).).).).).).).).).).).).).).).).).).).).).).).).).).).).).",
").).).).).).).).).).).).).).).).).).).).).).).).).).).).).).).).).).).).).).).).).).).).).).).).%.).).).).).).).).).).).).).).).).).).).).).).).).).).).).).).).",
").).).).).).).).).).).).).).).).).).).).).).).).).).).).).).).).).).).).).).).).).).).).).).).).).).).).).).).).).).).).).).).).).).).).).).).).).).).).).).).).",
").).).).).).).).).).).).).).).).).).).).).).).).).).).).).).).).).).).).).).).).).).).).).).).).).).).).).).).&.).).).).).).).).).).).).).).).).).).).).).).).).",
").).Q.+ + + B.).).).).=.+ + =.).).).).).).&.O X O *.).).).).).+ O O V.).).).).).).).).).).V.+ O < (.).).).).+ + + . + B.).&.).).).&.O O # O # O O O O # # ).).).",
").).Q.+ + + =.).).).).+ . . + ).).).).&.    .     . + ).).).V..     # ).).).).).).).).).).*..   + (.).).).+ + + . . . . Q.B.).).).O                     . ).).).",
").).).,.. . =.).).).).+ . . =.).).).*.            .   O ).).).+     o ).).).).).).).).).).O     + Q.Q.B.+ + + + . . . . . Q.).).).O         .           . ).).).",
").).).,.. . =.).).).).+ . . =.).).).o   .   %.&.O       *.).).&.      # ).).).).).).).).%.  .   + Q.B.Q.+ + + + =.+ . . . + &.).).*.# # %.O     o &.# # &.).).).",
").).).o . . =.).V.).).+ . . &.).).*.      V.).).).+     X ).).).. . .   @ ).).).).).).*.        V.).).#     o ).).).).. . . =.V.V.).).).).%.    + ).).).).).).).",
").).).X   . B.).).).).@ . . &.).).%.    O ).).).).V.    o ).).).*.        o &.*.*.%.X     . . %.).).).X     *.).).).).+ . . @ ).).).).).).#     + ).).).).).).).",
").).)..   . V.).).).).+   . &.).).%.    O ).).).).*.    . ).).).).*.                      . # ).).).).O     *.).).).).+ . . @ ).).).).).).%.    + ).).).).).).).",
").).).o   . *.).).).).+   . &.).).%.    O ).).).).V.    . ).).).).).*.o                 . %.).).).).).X     *.).).).).+ . . @ ).).).).).).%.    + ).).).).).).).",
").).).X     V.).).).).#     %.).).%..   X ).).).).V.    o ).).).).).).).&.X .     . X &.).).).).).).).X     *.).).).).@ .   # ).).).).).).%.    + ).).).).).).).",
").).).X     . o o o X .     %.).).%.      o o o o o       ).).).).).).).).).).V.V.).).).).).).).).).).O     o o o o o . . . O ).).).).).).%.    + ).).).).).).).",
").).).o                 .   %.).).%.    .   .           o ).).).).).).).).).).).).).).).).).).).).).).X                     # ).).).).).).%.    o ).).).).).).).",
").).).o     . . . .   .     &.).).%.    . . . .   .       ).).).).).).).).).&.&.%.%.).).).).).).).).).O   .   . . . .       # ).).).).).).%.    + ).).).).).).).",
").).).o     *.).).V.).@     &.).).%.  . O ).).V.).*.    o ).).).).).).).).)..     o ).).).).).).).).).X     *.).).V.).@ .   # ).).).).).).&.    O ).).).).).).).",
").).)..     V.).).).).+     %.).).%.    O ).).).).V.      ).).).).).).).).).. .   o ).).).).).).).).).o     *.).).).).@     @ ).).).).).).#     + ).).).).).).).",
").).).o . . V.).).).).# . . &.).).%.. . O ).).).).V.. . o ).).).).).).).).).o . . + ).).).).).).).).).+ . . *.).).).).@ . . @ ).).).).).).%.. . @ ).).).).).).).",
").).).).).).).).).).).).).).).).).).).).).).).).).).).).).).).).).).).).).).).).).).).).).).).).).).).).).).).).).).).).).).).).).).).).).).).).).).).).).).).).",
").).).).).).).).).).).).).).).).).).).).).).).).).).).).).).).).).).).).).).).).).).).).).).).).).).).).).).).).).).).).).).).).).).).).).).).).).).).).).).).).",
").).).).).).).).).).).).).).).).).).).).).).).).).).).).).).).).).).).).).).).).).).).).).).).).).).).).).).).).).).).).).).).).).).).).).).).).).).).).).).).).",
").).).).).).).).).).).).).).).).).).).).).).).).).).).).).).).).).).).).).).).).).).).).).).).).).).).).).).).).).).).).).).).).).).).).).).).).).).).).).).).).",
").).).).).).).).).).).).).).).).).).).).).).).).).).).).).).).).).).).).).).).).).).).).).).).).).).).).).).).).).).).).).).).).).).).).).).).).).).).).).).).).",
").).).).).).).).).).).).).).).).).).).).).).).).).).).).).).).).).).).).).).).).).).).).).).).).).).).).).).).).).).).).).).).).).).).).).).).).).).).).).).).).",
").).).).).).).).).).).).).).).).).).).).).).).).).).).).).).).).).).).).).).).).).).).).).).).).).).).).).).).).).).).).).).).).).).).).).).).).).).).).).).).).",
").).).).).).).).).).).).).).).).).).).).).).).).).).).).).).).).).).).).).).).).).).).).).).).).).).).).).).).).).).).).).).).).).).).).).).).).).).).).).).).).",
").).).).).).).).).).).).).).).).).).).).).).).).).).).).).).).).).).).).).).).).).).).).).).).).).).).).).).).).).).).).).).).).).).).).).).).).).).).).).).).).",
").).).).).).).).).).).).).).).).).).).).).).).).).).).).).).).).).).).).).).).).).).).).).).).).).).).).).).).).).).).).).).).).).).).).).).).).).).).).).).).).",
").).).).).).).).).).).).).).).).).).).).).).).).).).).).).).).).).).).).).).).).).).).).).).).).).).).).).).).).).).).).).).).).).).).).).).).).).).).).).).).).",
").).).).).).).).).).).).).).).).).).).).).).).).).).).).).).).).).).).).).).).).).).).).).).).).).).).).).).).).).).).).).).).).).).).).).).).).).).).).).).).).",
").).).).).).).).).).).).).).).).).).).).).).).).).).).).).).).).).).).).).).).).).).).).).).).).).).).).).).).).).).).).).).).).).).).).).).).).).).).).).).).)."
};
