/* XPM */
static char *xpm_[] = {
/* columns rows colors chars-per-pixel */
"80 80 199 2 ",
"   c #0C0A0B",
".  c #170B0C",
"X  c #020F10",
"o  c #09181A",
"O  c #0F0C0C",
"+  c #260F10",
"@  c #230A0A",
"#  c #222022",
"$  c #2C2F32",
"%  c #302528",
"&  c #060C0D",
"*  c #171B1C",
"=  c #000809",
"-  c #3D1616",
";  c #590D0D",
":  c #4A0B0B",
">  c #680D0D",
",  c #6C1717",
"<  c #7A1514",
"1  c #7F292A",
"2  c #5D3638",
"3  c #744142",
"4  c #203E44",
"5  c #305962",
"6  c #2D6773",
"7  c #484A52",
"8  c #75454C",
"9  c #4C5763",
"0  c #7D5661",
"q  c #5C6770",
"w  c #79737B",
"e  c #A2555C",
"r  c #040F10",
"t  c #071A1B",
"y  c #1D2023",
"u  c #222F33",
"i  c #17393E",
"p  c #001011",
"a  c #161D1F",
"s  c #0A191A",
"d  c #294147",
"f  c #183B40",
"g  c #381C1B",
"h  c #E52924",
"j  c #CC2D29",
"k  c #D33A38",
"l  c #98484A",
"z  c #7A7B89",
"x  c #505B60",
"c  c #2D8698",
"v  c #AD8389",
"b  c #A4A3AC",
"n  c #BFC2C9",
"m  c #820F0F",
"M  c #8B1B1B",
"N  c #981413",
"B  c #AE1716",
"V  c #B81918",
"C  c #852121",
"Z  c #972222",
"A  c #A42B2C",
"S  c #A62E31",
"D  c #A9363A",
"F  c #BD2E2E",
"G  c #DC1E1C",
"H  c #E62523",
"J  c #DD1C1A",
"K  c #DD2825",
"L  c #DF2A27",
"P  c #A5474C",
"I  c #DE2C2A",
"U  c #DE312E",
"Y  c #D24947",
"T  c #C81A18",
"R  c #DF1C1A",
"E  c #E0211F",
"W  c #E6110E",
"Q  c #E50D09",
"!  c #E7110E",
"~  c #E81A18",
"^  c #F41C1A",
"/  c #CF2220",
"(  c #DE211F",
")  c #E9211E",
"_  c #CA2726",
"`  c #DA2928",
"'  c #D52F30",
"]  c #D43838",
"[  c #E02C29",
"{  c #E02724",
"}  c #D43333",
"|  c #E22421",
" . c #E81D18",
".. c #E12725",
"X. c #E02B28",
"o. c #CA3E40",
"O. c #D03F40",
"+. c #924F57",
"@. c #81747A",
"#. c #AD6970",
"$. c #BB686E",
"%. c #CF6565",
"&. c #CBA4A8",
"*. c #C26F72",
"=. c #CD4244",
"-. c #CF5052",
";. c #D64F4F",
":. c #D45152",
">. c #E02D2A",
",. c #E02926",
"<. c #EB1E1A",
"1. c #F51B18",
"2. c #E0302D",
"3. c #E12E2C",
"4. c #BE484A",
"5. c #E22F2C",
"6. c #DF312E",
"7. c #FB2823",
"8. c #E03230",
"9. c #E0403D",
"0. c #C16264",
"q. c #4C8596",
"w. c #747280",
"e. c #71A5AF",
"r. c #B5868D",
"t. c #788D9D",
"y. c #72A8BA",
"u. c #9EB1BE",
"i. c #9EB6C1",
"p. c #6CA7B9",
"a. c #8DACBA",
"s. c #AAC1CD",
"d. c #A9C8D3",
"f. c #C3DBE5",
"g. c #A5D1DE",
"h. c #88848B",
"j. c #AB929B",
"k. c #BD979F",
"l. c #BE8E95",
"z. c #989FAB",
"x. c #A79EA9",
"c. c #BBA8B0",
"v. c #A6B1BD",
"b. c #B5B7BF",
"n. c #A0AEBB",
"m. c #A9B7C2",
"M. c #B097A0",
"N. c #A5BECA",
"B. c #C7ABB0",
"V. c #C2979E",
"C. c #001314",
"Z. c #002C2E",
"A. c #2B6873",
"S. c #34626C",
"D. c #051A1C",
"F. c #00292C",
"G. c #023033",
"H. c #052122",
"J. c #D6322F",
"K. c #DE4E4A",
"L. c #75AEC4",
"P. c #B5A3AB",
"I. c #DE3834",
"U. c #E12B26",
"Y. c #E13935",
"T. c #E43A37",
"R. c #D24C49",
"E. c #E44945",
"W. c #CC5959",
"Q. c #E1403C",
"!. c #DF4A46",
"~. c #FD3930",
"^. c #DC5F5D",
"/. c #4DCFE8",
"(. c #A58B93",
"). c #90C8D7",
"_. c #1E2727",
"`. c #171D1F",
"'. c #D83431",
"]. c #3A5258",
"[. c #BE9091",
"{. c #E1302A",
"}. c #DB2622",
"|. c #E3534C",
" X c #FF4541",
".X c #DF6461",
"XX c #E05B58",
"oX c #E53732",
"OX c #E65E58",
"+X c #DD6C69",
"@X c #98F3FC",
"#X c #64C3D0",
"$X c #AFA4A7",
"%X c #BEECF7",
"&X c #937D83",
"*X c #E4554E",
"=X c #7CF7FF",
"-X c #B7E4E5",
";X c None",
/* pixels */
";X;X;X;X;X;X;X;X;X;X;X;X;X;X;X;X;X;X;X;X;X;X;X;X;X;X;X;X;X;X;X;X;X;X;X;X;X;X;X;X;X;X;X;X;X;X;X;X;X;X;X;X;X;X;X;X;X;X;X;X;X;X;X;X;X;X;X;X;X;X;X;X;X;X;X;X;X;X;X;X",
";X;X;X;X;X;X;X;X;X;X;X;X;X;X;X;X;X;X;X;X;X;X;X;X;X;X;X;X;X;X;X;X;X;X;X;X;X;X;X;X;X;X;X;X;X;X;X;X;X;X;X;X;X;X;X;X;X;X;X;X;X;X;X;X;X;X;X;X;X;X;X;X;X;X;X;X;X;X;X;X",
";X;X;X;X;X;X;X;X;X;X;X;X;X;X;X;X;X;X;X;X;X;X;X;X;X;X;X;X;X;X;X;X;X;X;X;X;X;X;X;X;X;X;X;X;X;X;X;X;X;X;X;X;X;X;X;X;X;X;X;X;X;X;X;X;X;X;X;X;X;X;X;X;X;X;X;X;X;X;X;X",
";X;X;X;X;X;X;X;X;X;X;X;X;X;X;X;X;X;X;X;X;X;X;X;X;X;X;X;X;X;X;X;X;X;X;X;X;X;X;X;X;X;X;X;X;X;X;X;X;X;X;X;X;X;X;X;X;X;X;X;X;X;X;X;X;X;X;X;X;X;X;X;X;X;X;X;X;X;X;X;X",
";X;X;X;X;X;X;X;X;X;X;X;X;X;X;X;X;X;X;X;X;X;X;X;X;X;X;X;X;X;X;X;X;X;X;X;X;X;X;X;X;X;X;X;X;X;X;X;X;X;X;X;X;X;X;X;X;X;X;X;X;X;X;X;X;X;X;X;X;X;X;X;X;X;X;X;X;X;X;X;X",
";X;X;X;X;X;X;X;X;X;X;X;X;X;X;X;X;X;X;X;X;X;X;X;X;X;X;X;X;X;X;X;X;X;X;X;X;X;X;X;X;X;X;X;X;X;X;X;X;X;X;X;X;X;X;X;X;X;X;X;X;X;X;X;X;X;X;X;X;X;X;X;X;X;X;X;X;X;X;X;X",
";X;X;X;X;X;X;X;X;X;X;X;X;X;X;X;X;X;X;X;X;X;X;X;X;X;X;X;X;X;X;X;X;X;X;X;X;X;X;X;X;X;X;X;X;X;X;X;X;X;X;X;X;X;X;X;X;X;X;X;X;X;X;X;X;X;X;X;X;X;X;X;X;X;X;X;X;X;X;X;X",
";X;X;X;X;X;X;X;X;X;X;X;X;X;X;X;X;X;X;X;X;X;X;X;X;X;X;X;X;X;X;X;X;X;X;X;X;X;X;X;X;X;X;X;X;X;X;X;X;X;X;X;X;X;X;X;X;X;X;X;X;X;X;X;X;X;X;X;X;X;X;X;X;X;X;X;X;X;X;X;X",
";X;X;X;X;X;X;X;X;X;X;X;X;X;X;X;X;X;X;X;X;X;X;X;X;X;X;X;X;X;X;X;X;X;X;X;X;X;X;X;X;X;X;X;X;X;X;X;X;X;X;X;X;X;X;X;X;X;X;X;X;X;X;X;X;X;X;X;X;X;X;X;X;X;X;X;X;X;X;X;X",
";X;X;X;X;X;X;X;X;X;X;X;X;X;X;X;X;X;X;X;X;X;X;X;X;X;X;X;X;X;X;X;X;X;X;X;X;X;X;X;X;X;X;X;X;X;X;X;X;X;X;X;X;X;X;X;X;X;X;X;X;X;X;X;X;X;X;X;X;X;X;X;X;X;X;X;X;X;X;X;X",
";X;X;X;X;X;X;X;X;X;X;X;X;X;X;X;X;X;X;X;X;X;X;X;X;X;X;X;X;X;X;X;X;X;X;X;X;X;X;X;X;X;X;X;X;X;X;X;X;X;X;X;X;X;X;X;X;X;X;X;X;X;X;X;X;X;X;X;X;X;X;X;X;X;X;X;X;X;X;X;X",
";X;X;X;X;X;X;X;X;X;X;X;X;X;X;X;X;X;X;X;X;X;X;X;X;X;X;X;X;X;X;X;X;X;X;X;X;X;X;X;X;X;X;X;X;X;X;X;X;X;X;X;X;X;X;X;X;X;X;X;X;X;X;X;X;X;X;X;X;X;X;X;X;X;X;X;X;X;X;X;X",
";X;X;X;X;X;X;X;X;X;X;X;X;X;X;X;X;X;X;X;X;X;X;X;X;X;X;X;X;X;X;X;X;X;X;X;X;X;X;X;X;X;X;X;X;X;X;X;X;X;X;X;X;X;X;X;X;X;X;X;X;X;X;X;X;X;X;X;X;X;X;X;X;X;X;X;X;X;X;X;X",
";X;X;X;X;X;X;X;X;X;X;X;X;X;X;X;X;X;X;X;X;X;X;X;X;X;X;X;X;X;X;X;X;X;X;X;X;X;X;X;X;X;X;X;X;X;X;X;X;X;X;X;X;X;X;X;X;X;X;X;X;X;X;X;X;X;X;X;X;X;X;X;X;X;X;X;X;X;X;X;X",
";X;X;X;X;X;X;X;X;X;X;X;X;X;X;X;X;X;X;X;X;X;X;X;X;X;X;X;X;X;X;X;X;X;X;X;X;X;X;X;X;X;X;X;X;X;X;X;X;X;X;X;X;X;X;X;X;X;X;X;X;X;X;X;X;X;X;X;X;X;X;X;X;X;X;X;X;X;X;X;X",
";X;X;X;X;X;X;X;X;X;X;X;X;X;X;X;X;X;X;X;X;X;X;X;X;X;X;X;X;X;X;X;X;X;X;X;X;X;X;X;X;X;X;X;X;X;X;X;X;X;X;X;X;X;X;X;X;X;X;X;X;X;X;X;X;X;X;X;X;X;X;X;X;X;X;X;X;X;X;X;X",
";X;X;X;X;X;X;X;X;X;X;X;X;X;X;X;X;X;X;X;X;X;X;X;X;X;X;X;X;X;X;X;X;X;X;X;X;X;X;X;X;X;X;X;X;X;X;X;X;X;X;X;X;X;X;X;X;X;X;X;X;X;X;X;X;X;X;X;X;X;X;X;X;X;X;X;X;X;X;X;X",
";X;X;X;X;X;X;X;X;X;X;X;X;X;X;X;X;X;X;X;X;X;X;X;X;X;X;X;X;X;X;X;X;X;X;X;X;X;X;X;X;X;X;X;X;X;X;X;X;X;X;X;X;X;X;X;X;X;X;X;X;X;X;X;X;X;X;X;X;X;X;X;X;X;X;X;X;X;X;X;X",
";X;X;X;X;X;X;X;X;X;X;X;X;X;X;X;X;X;X;X;X;X;X;X;X;X;X;X;X;X;X;X;X;X;X;X;X;X;X;X;X;X;X;X;X;X;X;X;X;X;X;X;X;X;X;X;X;X;X;X;X;X;X;X;X;X;X;X;X;X;X;X;X;X;X;X;X;X;X;X;X",
";X;X;X;X;X;X;X;X;X;X;X;X;X;X;X;X;X;X;X;X;X;X;X;X;X;X;X;X;X;X;X;X;X;X;X;X;X;X;X;X;X;X;X;X;X;X;X;X;X;X;X;X;X;X;X;X;X;X;X;X;X;X;X;X;X;X;X;X;X;X;X;X;X;X;X;X;X;X;X;X",
";X;X;X;X;X;X;X;X;X;X;X;X;X;X;X;X;X;X;X;X;X;X;X;X;X;X;X;X;X;X;X;X;X;X;X;X;X;X;X;X;X;X;X;X;X;X;X;X;X;X;X;X;X;X;X;X;X;X;X;X;X;X;X;X;X;X;X;X;X;X;X;X;X;X;X;X;X;X;X;X",
";X;X;X;X;X;X;X;X;X;X;X;X;X;X;X;X;X;X;X;X;X;X;X;X;X;X;X;X;X;X;X;X;X;X;X;X;X;X;X;X;X;X;X;X;X;X;X;X;X;X;X;X;X;X;X;X;X;X;X;X;X;X;X;X;X;X;X;X;X;X;X;X;X;X;X;X;X;X;X;X",
";X;X;X;X;X;X;X;X;X;X;X;X;X;X;X;X;X;X;X;X;X;X;X;X;X;X;X;X;X;X;X;X;X;X;X;X;X;X;X;X;X;X;X;X;X;X;X;X;X;X;X;X;X;X;X;X;X;X;X;X;X;X;X;X;X;X;X;X;X;X;X;X;X;X;X;X;X;X;X;X",
";X;X;X;X;X;X;X;X;X;X;X;X;X;X;X;X;X;X;X;X;X;X;X;X;X;X;X;X;X;X;X;X;X;X;X;X;X;X;X;X;X;X;X;X;X;X;X;X;X;X;X;X;X;X;X;X;X;X;X;X;X;X;X;X;X;X;X;X;X;X;X;X;X;X;X;X;X;X;X;X",
";X;X;X;X;X;X;X;X;X;X;X;X;X;X;X;X;X;X;X;X;X;X;X;X;X;X;X;X;X;X;X;X;X;X;X;X;X;X;X;X;X;X;X;X;X;X;X;X;X;X;X;X;X;X;X;X;X;X;X;X;X;X;X;X;X;X;X;X;X;X;X;X;X;X;X;X;X;X;X;X",
";X;X;X;X;X;X;X;X;X;X;X;X;X;X;X;X;X;X;X;X;X;X;X;X;X;X;X;X;X;X;X;X;X;X;X;X;X;X;X;X;X;X;X;X;X;X;X;X;X;X;X;X;X;X;X;X;X;X;X;X;X;X;X;X;X;X;X;X;X;X;X;X;X;X;X;X;X;X;X;X",
";X;X;X;X;X;X;X;X;X;X;X;X;X;X;X;X;X;X;X;X;X;X;X;X;X;X;X;X;X;X;X;X;X;X;X;X;X;X;X;X;X;X;X;X;X;X;X;X;X;X;X;X;X;X;X;X;X;X;X;X;X;X;X;X;X;X;X;X;X;X;X;X;X;X;X;X;X;X;X;X",
";X;X;X;X;X`.U U F 6.C Z 3 # ;X;X;X;X;X;X;X;X;X;X;X;X;X;X;X;X;X;X;X;X;X;X;X;X;X;X;X;X;X;X;X;X;X;X;X;X;X;X;X;X;X;X;X;X;X;X;X;X;X;X;X;X;X;X;X;X;X;X;X;X;X;X;X;X;X;X",
";X;X;X;X;XoX| ~ | ( ~ ! ] q ;X;X;X;X;X;X;X;X;X;X;X;X;X;X;X;X;X;X;X;X;X;X;X;X;X;X;X;X;X;X;X;X;X;X;X;X;X;X;X;X;X;X;X;X;X;X;X;X;X;X;X;X;X;X;X;X;X;X;X;X;X;X;X;X;X;X",
";X;X;X;X;XoX_ ~ R ( ( ! 0.9 ;X;X;X;X;X;X;X;X;X;X;X;X;X;X;X;X;X;X;X;X;X;X;X;X;X;X;X;X;X;X;X;X;X;X;X;X;X;X;X;X;X;X;X;X;X;X;X;X;X;X;X;X;X;X;X;X;X;X;X;X;X;X;X;X;X;X",
";X;X;X;X;X;Xs P R R ( W -.n ;X;X;X;X;X;X;X;X;X;X;X;X;X;X;X;X;X;X;X;X;X;X;X;X;X;X;X;X;X;X;X;X;X;X;X;X;X;X;X;X;X;X;X;X;X;X;X;X;X;XD.m 6.j $X;X;X;X;X;X;X;X;X;X;X;X",
";X;X;X;X;X;X;XoXR R R R :.v ;X;X;X;X;X;X;X;X;X;X;X;X;X;X;X;X;X;X;X;X;X;X;X;X;X;X;X;X;X;X;X;X;X;X;X;X;X;X;X;X;X;X;X;X;X;X;X;X;X;Xj ~ ~ ] u.;X;X;X;X;X;X;X;X;X;X;X",
";X;X;X;X;X;X;XJ.R R R ! =.f.;X;X;X;X;X;X;X;X;X;X;X;X;X;X;X;X;X;X;X;X;X;X;X;X;X;X;X;X;X;X;X;X;X;X;X;X;X;X;X;X;X;X;X;X;X;X;X;X;X;Xj ~ W ' n.;X;X;X;X;X;X;X;X;X;X;X",
";X;X;X;X;X;X;XJ.R R ( R ] n.;X;X;X;X;X;X;X;X;X;X;X;X;X;X;X;X;X;X;X;X;X;X;X;X;X;X;X;X;X;X;X;X;X;X;X;X;X;X;X;X;X;X;X;X;X;X;X;X;X;X>.~ ~ ' u.;X;X;X;X;X;X;X;X;X;X;X",
";X;X;X;X;X;X;XJ.R R ) ! O.n ;X;X;X;X`.;X;X;X;X;X;X;X;X;X;X;X;X;X;X`.;X;X;X;X;X;X;X;X;X;X;X;X;X;X;X;X;X;X;X;X;X;X;X;X;X;X;X;X;X;XL ~ ! ' n.;X;X;X;X;X;X;X;X;X;X;X",
";X;X;X;X;X;X;XJ.( R | ^ -.n.;X;XoX XQ.'.;X;X;X;X;X;X;X;X;X;XJ.T.9.9.1 |.@ ;X;X;X;X;X;X;X;X;X;X. I.k Y.A 6.!.oX;X;X;X;X;X;X;X;X9.~ E ~ ' u.;X;X;X;X;X;X;X;X;X;X;X",
";X;X;X;X;X;X;XJ.~ R ( W ] f.oXL ] ) ) | 6.`.;X;X;X;X;X;XJ.U | ( ( ~ R ) A C ;X;X;X;X;X;X;X!.L ) ] ^ ^ ) ) ( ) 3.`.;X;X;XT.N ..R ~ ) ~ / F m < M $X`.;X;X;X;X;X;X",
";X;X;X;X;X;X;XJ.R R R ~ =.M.) ( ^ ^ ) | ~ { *X;X;X;X;Xj ( R ~ ~ W V R ) Z 3.-.oX;X;X;X;X- ( ) ) ^ | 2.X.R R R ~ ] _.;X;X6.~ R R ~ ) ) R H R 1.( c.`.;X;X;X;X;X;X",
";X;X;X;X;X;X;XJ.~ R ~ R ` ` ~ ) ) ~ ) ) ( R $.;X;X;XK.^ R R ) U + O 2 ] ) ) ^ | . ;X;X*X( R E ^ A * a u A ^ ) / | ;.`.;Xj / T R R R ( | R E _ _ c.@X;X;X;X;X;X;X",
";X;X;X;X;X;X;XoX( R R R ~ ~ T M 8./ ~ ( { / -.7 ;X`.' ^ R ~ ) 9 f ;X;X!.) ) | ^ -.`.;XoXR E ) R / % ;X;X`.) ) ) ) O.v ;X`.a - R R R ~ ] v @ y # x ;X;X;X;X;X;X;X",
";X;X;X;X;X;X;XJ.R R ~ R ~ / x X p 2 ~ ) ) ~ ' n.;X6.~ R R ! o.g.;X;X;XoX/ ~ ~ W ] v ;X!.) | ) ) ^ l.$X;X;X/ R R ~ ` n.;X;X;X  Z R R ~ ' n ;X;X;X;X;X;X;X;X;X;X;X",
";X;X;X;X;X;X;XJ.( R R ( ! 0 6 ;X;X`.) ~ R W ' n.;XX.R R R R D w.oX*X&X^./ R ) R ) M.;X;X..^ ~ ^ / w._.;X!.( R R ~ ' v.;X;X;X;XZ ~ R R ' n.;X;X;X;X;X;X;X;X;X;X;X",
";X;X;X;X;X;X;XJ.R R ( ~ ( t._.;X;X`.^ ) | ^ ' h.;X) ~ ~ R R R R | ` | | ~ R R ( ] B.`.;X_.+.8.m * f ;X!...~ R ( ~ ' h.;X;X;X;X] R ( R } n.;X;X;X;X;X;X;X;X;X;X;X",
";X;X;X;X;X;X;XJ.R R R ~ } t.;X;X;X`.) ) ) ^ -.n oXE ( ) ~ R R ~ ) ^ ^ ^ ) ~ ^ ^ [ j.s ;X;XD.3 < M I ..) ~ ) ~ R ~ ` n ;X;X;X`.' R ( ! ' n.;X;X`.`.;X;X;X;X;X;X;X",
";X;X;X;X;X;X;X!.( R ( W -.h.;X;X;X`.R ) ) R ` n.`.) ) ) / / o.P , , , , , j M , 6.M.;X`.D } ~ ) ^ ^ R N h | ) ( [ =.j.;X;X;X'.) R R ~ ' M.;X;XX.] z ;X;X;X;X;X;X",
";X;X;X;X;X;X;XoX~ ) R ! =.M.;X;X;X;X .~ ) R ' n.;X| ^ ) / / :.9 D.D.D.D.H.t D.C.D.D.;XF | [ R R V ; @ = g ^ ) ( { :.h.;X;X;X  ) R R R ' h.;X`.| ^ k.].;X;X;X;X;X",
";X;X;X;X;X;X;X!.) ) ) ) =.n ;X;X;X`.E ) ) ~ ` n.;X,.R R /  .-.q ;X;X;X;X;X6...6.X.* . _ { R ~ | 7 r `.;X*X^ R R ( ` w _.' 4.;X} ( ( | O.b ;X`.' ] c.=X_.;X;X;X;X",
";X;X;X;X;X;X;X!.) | ) ] -.b ;X;X;X;XR R R ) ] h.;X`.( R R R | v ;X;X;X;X&X| ) ^ ' p.*Xo.( ( ~ ` n.;X;X;X>.R R ( R ' h.oX~ V.(.K ( ( ( -.z.;X;X| | c.a ;X;X;X;X;X",
";X;X;X;X;XoX!.Z ( R R R ( Y `.;X;X6.| R R R ~ Y .XoX6.| R ( ~ } OX;X;XJ._ R R ~ $.(.@ [ R R R R :.J.!.C ~ ~ R ( R { +.9.^ #.L.' ~ R R ~ 0.O <.R R N.D.;X;X;X;X;X",
";X;X;X;X;XoX` | R R R (  .~ M.;XoX~ ~ ) R R R ~ ^ V.@X<.~ ) ~ ~ ^ .._ ) T ~ ^ C 9 ;X;X8.R R R ~ ~ ( ( ) E E ~ R R ~ ~ ~ ^ r.o j )  .( R E 5.~ ^ D q.;X;X;X;X;X;X",
";X;X;X;X;XoX) ^ R R R ( ) ) c.;XJ.^ ^ ~ ) ^ ^ ) ^ c._.;XP ] ~ | ^ ^ ~ ~ R  ., f D.;X;XO _ ~ ~ ~ ( R R T $ 2 ^ ^ ~ ~ | ~ P q.;X;XZ R ^ | { ) ) G 7 d ;X;X;X;X;X;X",
";X;X;X;X;X;X< , C m m , C C c.`.;XC , , , , , , < x.=X;X;Xd +.;.L _ B N > @ * `.;X;X;X;X`.+.D } T N ; @ t ;X!.%.V V N : * G.;X;X;X8 D I ..T > . a ;X;X;X;X;X;X;X",
";X;X;X;X;X;X`.C.D.C.C.C.D.D.D.;X;XC.D.D.D.D.D.C.C.D.;X;X;X;X_.-Xy * * r a D.;X;X;X;X;X;X;X;XZ.d * r r `.;X;X;X_.u * a r C.;X;X;X;X;XG.u & r p `.;X;X;X;X;X;X;X;X",
";X;X;X;X;X;X;X;X;X;X;X;X;X;X;X;X;X;X;X;X;X;X;X;X;X;X;X;X;X;X;X;X;X;X;X;X;X;X;X;X;X;X;X;X;X;X;X;X;X;X;X;X;X;X;X;X;X;X;X;X;X;X;X;X;X;X;X;X;X;X;X;X;X;X;X;X;X;X;X;X",
";X;X;X;X;X;X;X;X;X;X;X;X;X;X;X;X;X;X;X;X;X;X;X;X;X;X;X;X;X;X;X;X;X;X;X;X;X;X;X;X;X;X;X;X;X;X;X;X;X;X;X;X;X;X;X;X;X;X;X;X;X;X;X;X;X;X;X;X;X;X;X;X;X;X;X;X;X;X;X;X",
";X;X;X;X;X;X;X;X;X;X;X;X;X;X;X;X;X;X;X;X;X;X;X;X;X;X;X;X;X;X;X;X;X;X;X;X;X;X;X;X;X;X;X;X;X;X;X;X;X;X;X;X;X;X;X;X;X;X;X;X;X;X;X;X;X;X;X;X;X;X;X;X;X;X;X;X;X;X;X;X",
";X;X;X;X;X;X;X;X;X;X;X;X;X;X;X;X;X;X;X;X;X;X;X;X;X;X;X;X;X;X;X;X;X;X;X;X;X;X;X;X;X;X;X;X;X;X;X;X;X;X;X;X;X;X;X;X;X;X;X;X;X;X;X;X;X;X;X;X;X;X;X;X;X;X;X;X;X;X;X;X",
";X;X;X;X;X;X;X;X;X;X;X;X;X;X;X;X;X;X;X;X;X;X;X;X;X;X;X;X;X;X;X;X;X;X;X;X;X;X;X;X;X;X;X;X;X;X;X;X;X;X;X;X;X;X;X;X;X;X;X;X;X;X;X;X;X;X;X;X;X;X;X;X;X;X;X;X;X;X;X;X",
";X;X;X;X;X;X;X;X;X;X;X;X;X;X;X;X;X;X;X;X;X;X;X;X;X;X;X;X;X;X;X;X;X;X;X;X;X;X;X;X;X;X;X;X;X;X;X;X;X;X;X;X;X;X;X;X;X;X;X;X;X;X;X;X;X;X;X;X;X;X;X;X;X;X;X;X;X;X;X;X",
";X;X;X;X;X;X;X;X;X;X;X;X;X;X;X;X;X;X;X;X;X;X;X;X;X;X;X;X;X;X;X;X;X;X;X;X;X;X;X;X;X;X;X;X;X;X;X;X;X;X;X;X;X;X;X;X;X;X;X;X;X;X;X;X;X;X;X;X;X;X;X;X;X;X;X;X;X;X;X;X",
";X;X;X;X;X;X;X;X;X;X;X;X;X;X;X;X;X;X;X;X;X;X;X;X;X;X;X;X;X;X;X;X;X;X;X;X;X;X;X;X;X;X;X;X;X;X;X;X;X;X;X;X;X;X;X;X;X;X;X;X;X;X;X;X;X;X;X;X;X;X;X;X;X;X;X;X;X;X;X;X",
";X;X;X;X;X;X;X;X;X;X;X;X;X;X;X;X;X;X;X;X;X;X;X;X;X;X;X;X;X;X;X;X;X;X;X;X;X;X;X;X;X;X;X;X;X;X;X;X;X;X;X;X;X;X;X;X;X;X;X;X;X;X;X;X;X;X;X;X;X;X;X;X;X;X;X;X;X;X;X;X",
";X;X;X;X;X;X;X;X;X;X;X;X;X;X;X;X;X;X;X;X;X;X;X;X;X;X;X;X;X;X;X;X;X;X;X;X;X;X;X;X;X;X;X;X;X;X;X;X;X;X;X;X;X;X;X;X;X;X;X;X;X;X;X;X;X;X;X;X;X;X;X;X;X;X;X;X;X;X;X;X",
";X;X;X;X;X;X;X;X;X;X;X;X;X;X;X;X;X;X;X;X;X;X;X;X;X;X;X;X;X;X;X;X;X;X;X;X;X;X;X;X;X;X;X;X;X;X;X;X;X;X;X;X;X;X;X;X;X;X;X;X;X;X;X;X;X;X;X;X;X;X;X;X;X;X;X;X;X;X;X;X",
";X;X;X;X;X;X;X;X;X;X;X;X;X;X;X;X;X;X;X;X;X;X;X;X;X;X;X;X;X;X;X;X;X;X;X;X;X;X;X;X;X;X;X;X;X;X;X;X;X;X;X;X;X;X;X;X;X;X;X;X;X;X;X;X;X;X;X;X;X;X;X;X;X;X;X;X;X;X;X;X",
";X;X;X;X;X;X;X;X;X;X;X;X;X;X;X;X;X;X;X;X;X;X;X;X;X;X;X;X;X;X;X;X;X;X;X;X;X;X;X;X;X;X;X;X;X;X;X;X;X;X;X;X;X;X;X;X;X;X;X;X;X;X;X;X;X;X;X;X;X;X;X;X;X;X;X;X;X;X;X;X",
";X;X;X;X;X;X;X;X;X;X;X;X;X;X;X;X;X;X;X;X;X;X;X;X;X;X;X;X;X;X;X;X;X;X;X;X;X;X;X;X;X;X;X;X;X;X;X;X;X;X;X;X;X;X;X;X;X;X;X;X;X;X;X;X;X;X;X;X;X;X;X;X;X;X;X;X;X;X;X;X",
";X;X;X;X;X;X;X;X;X;X;X;X;X;X;X;X;X;X;X;X;X;X;X;X;X;X;X;X;X;X;X;X;X;X;X;X;X;X;X;X;X;X;X;X;X;X;X;X;X;X;X;X;X;X;X;X;X;X;X;X;X;X;X;X;X;X;X;X;X;X;X;X;X;X;X;X;X;X;X;X",
";X;X;X;X;X;X;X;X;X;X;X;X;X;X;X;X;X;X;X;X;X;X;X;X;X;X;X;X;X;X;X;X;X;X;X;X;X;X;X;X;X;X;X;X;X;X;X;X;X;X;X;X;X;X;X;X;X;X;X;X;X;X;X;X;X;X;X;X;X;X;X;X;X;X;X;X;X;X;X;X",
";X;X;X;X;X;X;X;X;X;X;X;X;X;X;X;X;X;X;X;X;X;X;X;X;X;X;X;X;X;X;X;X;X;X;X;X;X;X;X;X;X;X;X;X;X;X;X;X;X;X;X;X;X;X;X;X;X;X;X;X;X;X;X;X;X;X;X;X;X;X;X;X;X;X;X;X;X;X;X;X",
";X;X;X;X;X;X;X;X;X;X;X;X;X;X;X;X;X;X;X;X;X;X;X;X;X;X;X;X;X;X;X;X;X;X;X;X;X;X;X;X;X;X;X;X;X;X;X;X;X;X;X;X;X;X;X;X;X;X;X;X;X;X;X;X;X;X;X;X;X;X;X;X;X;X;X;X;X;X;X;X",
";X;X;X;X;X;X;X;X;X;X;X;X;X;X;X;X;X;X;X;X;X;X;X;X;X;X;X;X;X;X;X;X;X;X;X;X;X;X;X;X;X;X;X;X;X;X;X;X;X;X;X;X;X;X;X;X;X;X;X;X;X;X;X;X;X;X;X;X;X;X;X;X;X;X;X;X;X;X;X;X",
";X;X;X;X;X;X;X;X;X;X;X;X;X;X;X;X;X;X;X;X;X;X;X;X;X;X;X;X;X;X;X;X;X;X;X;X;X;X;X;X;X;X;X;X;X;X;X;X;X;X;X;X;X;X;X;X;X;X;X;X;X;X;X;X;X;X;X;X;X;X;X;X;X;X;X;X;X;X;X;X",
";X;X;X;X;X;X;X;X;X;X;X;X;X;X;X;X;X;X;X;X;X;X;X;X;X;X;X;X;X;X;X;X;X;X;X;X;X;X;X;X;X;X;X;X;X;X;X;X;X;X;X;X;X;X;X;X;X;X;X;X;X;X;X;X;X;X;X;X;X;X;X;X;X;X;X;X;X;X;X;X",
";X;X;X;X;X;X;X;X;X;X;X;X;X;X;X;X;X;X;X;X;X;X;X;X;X;X;X;X;X;X;X;X;X;X;X;X;X;X;X;X;X;X;X;X;X;X;X;X;X;X;X;X;X;X;X;X;X;X;X;X;X;X;X;X;X;X;X;X;X;X;X;X;X;X;X;X;X;X;X;X",
";X;X;X;X;X;X;X;X;X;X;X;X;X;X;X;X;X;X;X;X;X;X;X;X;X;X;X;X;X;X;X;X;X;X;X;X;X;X;X;X;X;X;X;X;X;X;X;X;X;X;X;X;X;X;X;X;X;X;X;X;X;X;X;X;X;X;X;X;X;X;X;X;X;X;X;X;X;X;X;X",
";X;X;X;X;X;X;X;X;X;X;X;X;X;X;X;X;X;X;X;X;X;X;X;X;X;X;X;X;X;X;X;X;X;X;X;X;X;X;X;X;X;X;X;X;X;X;X;X;X;X;X;X;X;X;X;X;X;X;X;X;X;X;X;X;X;X;X;X;X;X;X;X;X;X;X;X;X;X;X;X",
";X;X;X;X;X;X;X;X;X;X;X;X;X;X;X;X;X;X;X;X;X;X;X;X;X;X;X;X;X;X;X;X;X;X;X;X;X;X;X;X;X;X;X;X;X;X;X;X;X;X;X;X;X;X;X;X;X;X;X;X;X;X;X;X;X;X;X;X;X;X;X;X;X;X;X;X;X;X;X;X",
";X;X;X;X;X;X;X;X;X;X;X;X;X;X;X;X;X;X;X;X;X;X;X;X;X;X;X;X;X;X;X;X;X;X;X;X;X;X;X;X;X;X;X;X;X;X;X;X;X;X;X;X;X;X;X;X;X;X;X;X;X;X;X;X;X;X;X;X;X;X;X;X;X;X;X;X;X;X;X;X",
";X;X;X;X;X;X;X;X;X;X;X;X;X;X;X;X;X;X;X;X;X;X;X;X;X;X;X;X;X;X;X;X;X;X;X;X;X;X;X;X;X;X;X;X;X;X;X;X;X;X;X;X;X;X;X;X;X;X;X;X;X;X;X;X;X;X;X;X;X;X;X;X;X;X;X;X;X;X;X;X"
};
