/* XPM */
static char *xpm_[] = {
/* columns rows colors chars-per-pixel */
"80 80 79 1 ",
"  c #0A0A0A",
". c #0C0C0C",
"X c #121212",
"o c #0C0C0C",
"O c #131313",
"+ c #0E0E0E",
"@ c #151515",
"# c #111111",
"$ c #191919",
"% c #111111",
"& c #131313",
"* c #1D1D1D",
"= c #141414",
"- c #E9A134",
"; c #E89A26",
": c #E89B28",
"> c #E89E2C",
", c #E89D2B",
"< c #E8961D",
"1 c #E89E2D",
"2 c #E89720",
"3 c #E89A27",
"4 c #E9A136",
"5 c #E9A031",
"6 c #E89D2D",
"7 c #E99E2F",
"8 c #EAA437",
"9 c #E89F31",
"0 c #E99E30",
"q c #E9A53E",
"w c #E9A137",
"e c #EAA034",
"r c #E89821",
"t c #E8971F",
"y c #E99921",
"u c #E8981F",
"i c #E89418",
"p c #E89418",
"a c #E89822",
"s c #E89923",
"d c #E89924",
"f c #E89A25",
"g c #E89A25",
"h c #E89821",
"j c #E89821",
"k c #E89B29",
"l c #191919",
"z c #191919",
"x c #1F1F1F",
"c c #252525",
"v c #EAA038",
"b c #E9A845",
"n c #E9A339",
"m c #EAA744",
"M c #E9A743",
"N c #E8A43E",
"B c #EAA23B",
"V c #E9A53F",
"C c #E9A237",
"Z c #E8A033",
"A c #E8A136",
"S c #EAA43C",
"D c #EAA845",
"F c #EAAB4D",
"G c #272727",
"H c #393939",
"J c #EAB462",
"K c #EBAF56",
"L c #ECB769",
"P c #E9A949",
"I c #E4A43B",
"U c #E9B25E",
"Y c #EAAF53",
"T c #EAB35D",
"R c #56524D",
"E c #EBB85F",
"W c #EBB96A",
"Q c #EBD2A2",
"! c None",
/* pixels */
"!!!!!!!!!!!!!!!!!!!!!!!!!!!!!!!!!!!!!!!!!!!!!!!!!!!!!!!!!!!!!!!!!!!!!!!!!!!!!!!!",
"!!!!!!!!!!!!!!!!!!!!!!!!!!!!!!!!!!!!!!!!!!!!!!!!!!!!!!!!!!!!!!!!!!!!!!!!!!!!!!!!",
"!!!!!!!!!!!!!!!!!!!!!!!!!!!!!!!!!!!!!!!!!!!!!!!!!!!!!!!!!!!!!!!!!!!!!!!!!!!!!!!!",
"!!!!!!!!!!!!!!!!!!!!!!!!!!!!!!!!!!!!!!!!!!!!!!!!!!!!!!!!!!!!!!!!!!!!!!!!!!!!!!!!",
"!!!!!!!!!!!!!!!!!!!!!!!!!!!!!!!!!!!!!!!!!!!!!!!!!!!!!!!!!!!!!!!!!!!!!!!!!!!!!!!!",
"!!!!!!!!!!!!!!!!!!!!!!!!!!!!!!!!!!!!!!!!!!!!!!!!!!!!!!!!!!!!!!!!!!!!!!!!!!!!!!!!",
"!!!!!!!!!!!!!!!!!!!!!!!!!!!!!!!!!!!!!!!!!!!!!!!!!!!!!!!!!!!!!!!!!!!!!!!!!!!!!!!!",
"!!!!!!!!!!!!!!!!!!!!!!!!!!!!!!!!!!!!!!!!!!!!!!!!!!!!!!!!!!!!!!!!!!!!!!!!!!!!!!!!",
"!!!!!!!!!!!!!!!!!!!!!!!!!!!!!!!!!!!!!!!!!!!!!!!!!!!!!!!!!!!!!!!!!!!!!!!!!!!!!!!!",
"!!!!!!!!!!!!!!!!!!!!!!!!!!!!!!!!!!!!!!!!!!!!!!!!!!!!!!!!!!!!!!!!!!!!!!!!!!!!!!!!",
"!!!!!!!!!!!!!!!!!!!!!!!!!!!!!!!!!!!!!!!!!!!!!!!!!!!!!!!!!!!!!!!!!!!!!!!!!!!!!!!!",
"!!!!!!!!!!!!!!!!!!!!!!!!!!!!!!!!!!!!!!!!!!!!!!!!!!!!!!!!!!!!!!!!!!!!!!!!!!!!!!!!",
"!!!!!!!!!!!!!!!!!!!!!!!!!!!!!!!!!!!!!!!!!!!!!!!!!!!!!!!!!!!!!!!!!!!!!!!!!!!!!!!!",
"!!!!!!!!!!!!!!!!!!!!!!!!!!!!!!!!!!!!!!!!!!!!!!!!!!!!!!!!!!!!!!!!!!!!!!!!!!!!!!!!",
"!!!!!!!!!!!!!!!!!!!!!!!!!!!!!!!!!!!!!!!!!!!!!!!!!!!!!!!!!!!!!!!!!!!!!!!!!!!!!!!!",
"!!!!!!!!!!!!!!!!!!!!!!!!!!!!!!!!!!!!!!!!!!!!!!!!!!!!!!!!!!!!!!!!!!!!!!!!!!!!!!!!",
"!!!!!!!!!!!!!!!!!!!!!!!!!!!!!!!!!!!!!!!!!!!!!!!!!!!!!!!!!!!!!!!!!!!!!!!!!!!!!!!!",
"!!!!!!!!!!!!!!!!!!!!!!!!!!!!!!!!!!!!!!!!!!!!!!!!!!!!!!!!!!!!!!!!!!!!!!!!!!!!!!!!",
"!!!!!!!!!!!!!!!!!!!!!!!!!!!!!!!!!!!!!!!!!!!!!!!!!!!!!!!!!!!!!!!!!!!!!!!!!!!!!!!!",
"!!!!!!!!!!!!!!!!!!!!!!!!!!!R!!!!!!R!!!!!!!!!!!!!!!!!!!!!!!!!!!!!!!R!!!!!!!!!!!!!",
"!!!!!!!!!!!!!!!!!!!!!!!!!!!!!R!!!!!!!!!!!!!!!!!!!!!!!!!!!!!!!!!!!!!R!!!!!!!!!!!!",
"!!!!!!K888888889S!!!!!!!RRM9A8-n-888,J!!!!!!!!!!!!!!!!!!W87jgkjj<-IW!!!!!!!!!!!!",
"!!!!!!5ppppppppphK!!!!!!!PhphhpphhhhmE!!!!!!!!!!!!!!!!Vhhhpppphphhhh,K!!!!!!!!!!",
"!!!!!!7pipippppphR!!!!!!!Kphhhpphh4!!!!!!!!!!!!!!!!!-hhhphpppppphhhhhh>R!!!!!!!!",
"!!!!!!<ppppppppphE!R!!!!!bhhpppph;!!!!!!R!!R!!!!!REjpppppppppppphpppphphNR!!!!!!",
"!!!!!!7ppppppppphR!!!!!!!UhhpppphR!!!!REMmVKR!!R!PhppppppppppppppppppppphE!!!!!!",
"!!!!!!7ppppppppphJ!!!!!!RIhhpppp8!R!!RChppph1!!!Nhppppppppppppppppphppppg!!!!!!!",
"!!!!!!<ppppppppphE!!!!!!!KhhppppPR!!!Bhhpppphh!Whhppppppphppppppppphppp1!!!!!!!!",
"!!!!!!<ppppppppphE!!!!!R!IhhhhphW!!!!,hhpppppp,phppppppppphhpppphhhhhh8!!!!!!!!!",
"!!!!!!8ppppppppphE!R!!!RRIhhhhphW!!!!hhhpppppphphhppppppppphpppphhhhhS!!!!!!!!!!",
"!!!!!!<ppppppppphYWWJWLQWShhhhphKR!!!8hppppppppppppppppppphhhhihhhhhIR!!!!!!!!!!",
"!!!!!!;ppppppppphhhhhhhhhhhhhhppmR!!!!phpppppppppppppppppphP!!!RbghJ!!!!!!!!!!!!",
"!!!!!!2ppppppppppppppppppppppppph!!!!!KhhhhhhppppphppppppC!!!!!!!!R!!!!!!!!!!!!!",
"!!!!!!2ppphppppppppppppppppppppphZ!!!RRVhhhhppppppppppppk!!R!!!!!!!!!!!!!!!!!!!!",
"!!!!!!2ppppppppppppppppppppppppphhPR!!!!8hhhpppphpppppphW!!!!!!!!!!!!!!!!!!!!!!!",
"!!!!!!2ppppppppppppppppppppppppphhhW!!!!!uhhppphppppppppR!!!!!!!!!!!!!!!!!!!!!!!",
"!!!!!!>hpppppppppppppppppppppppphhhhR!!!!EhhppppppppppppR!!!!!!!!!!!!!!!!!!!!!!!",
"!!!!!!>hppppppppppppppppppppppppC!hh,!!!!!PhppppppppppphE!!!!!!!!!!!!!!!!!!!!!!!",
"!!!!!!1ppppppppppppppppppppppphj!!KhhZ!!!!!npppppphppppp8R!!!!!!!R!!!!!!!!!!!!!!",
"!!!!!!2ppppppppppppppppppppppphR!RRNhhb!R!!!ZphhpppphppphI!!!!!!!!!!!!!!!!!!!!!!",
"!!!!!!5hpppppppppphpphppppppip<!!!!EpphR!!!!!hhhppphpppphhNR!!!!!8S!!!!!!!!!!!!!",
"!!!!!!2hppppppppp87-C77Z8<pppp9!!!!>phpp!!!!!Ehhpppppppphhpp4SC>pphjR!!!!!!!!!!!",
"!!!!!!2hpppppppppE!!!!!!!NppppJ!!!!hhhhhg!!!R!KhpppppppphhhhhhhhpppphR!!!!!!!!!!",
"!!!!!!2ppppppppphE!R!!!R!NppipvR!!!,hhhhh8!!!!RmpppppppphhhhhhhhpppphhE!!!!!!!!!",
"!!!!!!jhppppppphhJ!!!!!!!Nppip8!!!!VhhhhhhBRR!!!mhhhpppppppphppppppppphE!!!!!!!!",
"!!!!!!7hppppppphhE!!!!!!!Npppp<!!!!!,hhhphhK!!!!!8hhpppppppphhppppppppphJ!!!!!!!",
"!!!!!!jppppppphhhE!!!!!R!NpppphN!!!!!-hhphhh!!!!!!nhpppphphppphppppppppphV!R!!!!",
"!!!!!!0ppppppphhhW!!!!!!!NpipppdR!!!!!ECZ-IE!!!!!!RmhppppppppppppppppphphE!!!!!!",
"!!!!!!jppppppppphT!!!!!!!Nhpppppk!!!!!!!!!!!!!!!!!R!WhhhhhhppppphppppphfE!!!!!!!",
"!!!!!!5hppphpppphT!!!!!!!NpphhpphhJR!!!!!!!!!!!!!!!!!!Ihhphhppppphpppjv!!!!!!!!!",
"!!!!!!Yhphhhhhpp>!!!!!!!!RjuhhhhhshN!!!!!!!!!!!!!!!!!!!!Kjshhhpphhd4J!!!!!!!!!!!",
"!!!!!!RR!!!!!!!!!!!!!!!!!!!!!!!!!!!G!!!!!!!!!!!!!!!!!!!!!!!EPv8IEG!!!!R!!!!!!!!!",
"!!!!!!!!!!!!!!!!!!!!!!!!!!!!!!!!!!!!!!!!!!!!!!!!!!z!!!!!!z!!R!!!!!!!!!!!!!!!!!!!",
"!!!!!!!!!!!!!!!!!!!!!!!!!!!!!!!!!!!!!!!!!!!!!!!!!!RR!!!!!!!!!!!!!!!!!!!!!!!!!!!!",
"!!!!!!W$!zX!R@$$!zo.oGG%$$HXXXXRG!$$G!!c..%!G%X=!LQRRXz z!XROOI$z%o z==!$#!!!!!!",
"!!!!!!$$!ROR@XE$z.=! ==.lWR$X!z!!zXT!!!.=cO!ooc.UUQ#=*RX$!ORR$$Ez.G=XG %$T!!!!!!",
"!!!!!!z $$ z.!!=#=.%Xc!= oc=@@z!!RXz!!zO!!!GXG!z = Gz.z@@X@z!==!z + =!z c!!!!!!!",
"!!!!!!%.!=Xz.zz.z=oG.zG=Go+%@!z!!@#X@!G.=z.! %! =zo!=.z@!.X!!..!z.G%o!GX!!!!!!!!",
"!!!!!!=%!z$!=@X=!&=!==cX.+Gz@XXz!z@@O!!c@@=!G+X%!!%OX!!$!=$z!&=!cO!G+!GOG!!!!!!!",
"!!!!!!!!!!!!!!!!!!!!!!!!!!!!!G!!!!!!!!!!!!!!!!G!!!G!!!!!!!!!!!!!!!!!!!!!!!!!!!!!",
"!!!!!!!!!!!!!!!!!!!!!!!!!!!!!!!!!!!!!!!!!!!!!!!!!!!!!!!!!!!!!!!!!!!!!!!!!!!!!!!!",
"!!!!!!!!!!!!!!!!!!!!!!!!!!!!!!!!!!!!!!!!!!!!!!!!!!!!!!!!!!!!!!!!!!!!!!!!!!!!!!!!",
"!!!!!!!!!!!!!!!!!!!!!!!!!!!!!!!!!!!!!!!!!!!!!!!!!!!!!!!!!!!!!!!!!!!!!!!!!!!!!!!!",
"!!!!!!!!!!!!!!!!!!!!!!!!!!!!!!!!!!!!!!!!!!!!!!!!!!!!!!!!!!!!!!!!!!!!!!!!!!!!!!!!",
"!!!!!!!!!!!!!!!!!!!!!!!!!!!!!!!!!!!!!!!!!!!!!!!!!!!!!!!!!!!!!!!!!!!!!!!!!!!!!!!!",
"!!!!!!!!!!!!!!!!!!!!!!!!!!!!!!!!!!!!!!!!!!!!!!!!!!!!!!!!!!!!!!!!!!!!!!!!!!!!!!!!",
"!!!!!!!!!!!!!!!!!!!!!!!!!!!!!!!!!!!!!!!!!!!!!!!!!!!!!!!!!!!!!!!!!!!!!!!!!!!!!!!!",
"!!!!!!!!!!!!!!!!!!!!!!!!!!!!!!!!!!!!!!!!!!!!!!!!!!!!!!!!!!!!!!!!!!!!!!!!!!!!!!!!",
"!!!!!!!!!!!!!!!!!!!!!!!!!!!!!!!!!!!!!!!!!!!!!!!!!!!!!!!!!!!!!!!!!!!!!!!!!!!!!!!!",
"!!!!!!!!!!!!!!!!!!!!!!!!!!!!!!!!!!!!!!!!!!!!!!!!!!!!!!!!!!!!!!!!!!!!!!!!!!!!!!!!",
"!!!!!!!!!!!!!!!!!!!!!!!!!!!!!!!!!!!!!!!!!!!!!!!!!!!!!!!!!!!!!!!!!!!!!!!!!!!!!!!!",
"!!!!!!!!!!!!!!!!!!!!!!!!!!!!!!!!!!!!!!!!!!!!!!!!!!!!!!!!!!!!!!!!!!!!!!!!!!!!!!!!",
"!!!!!!!!!!!!!!!!!!!!!!!!!!!!!!!!!!!!!!!!!!!!!!!!!!!!!!!!!!!!!!!!!!!!!!!!!!!!!!!!",
"!!!!!!!!!!!!!!!!!!!!!!!!!!!!!!!!!!!!!!!!!!!!!!!!!!!!!!!!!!!!!!!!!!!!!!!!!!!!!!!!",
"!!!!!!!!!!!!!!!!!!!!!!!!!!!!!!!!!!!!!!!!!!!!!!!!!!!!!!!!!!!!!!!!!!!!!!!!!!!!!!!!",
"!!!!!!!!!!!!!!!!!!!!!!!!!!!!!!!!!!!!!!!!!!!!!!!!!!!!!!!!!!!!!!!!!!!!!!!!!!!!!!!!",
"!!!!!!!!!!!!!!!!!!!!!!!!!!!!!!!!!!!!!!!!!!!!!!!!!!!!!!!!!!!!!!!!!!!!!!!!!!!!!!!!",
"!!!!!!!!!!!!!!!!!!!!!!!!!!!!!!!!!!!!!!!!!!!!!!!!!!!!!!!!!!!!!!!!!!!!!!!!!!!!!!!!",
"!!!!!!!!!!!!!!!!!!!!!!!!!!!!!!!!!!!!!!!!!!!!!!!!!!!!!!!!!!!!!!!!!!!!!!!!!!!!!!!!",
"!!!!!!!!!!!!!!!!!!!!!!!!!!!!!!!!!!!!!!!!!!!!!!!!!!!!!!!!!!!!!!!!!!!!!!!!!!!!!!!!"
};
