/* XPM */
static char *xpm_[] = {
/* columns rows colors chars-per-pixel */
"80 80 145 2 ",
"   c #F05153",
".  c #F15A5D",
"X  c #7CC577",
"o  c #7CC578",
"O  c #155CCA",
"+  c #2964D4",
"@  c #165DCA",
"#  c #2A65D4",
"$  c #175ACD",
"%  c #2563D3",
"&  c #84C980",
"*  c #7CC578",
"=  c #89CA85",
"-  c #89CA85",
";  c #86C981",
":  c #8ACA85",
">  c #F04C51",
",  c #EE3A43",
"<  c #EE3A43",
"1  c #EF4248",
"2  c #F0484E",
"3  c #F04D53",
"4  c #EF464C",
"5  c #EE3A43",
"6  c #EF444B",
"7  c #EF494F",
"8  c #EF464C",
"9  c #EF4B50",
"0  c #EF484E",
"q  c #EF4249",
"w  c #EF494D",
"e  c #F1585D",
"r  c #F04E53",
"t  c #F04D52",
"y  c #F05357",
"u  c #EE3A43",
"i  c #EF4247",
"p  c #F1595D",
"a  c #F1565A",
"s  c #EE3E46",
"d  c #F05558",
"f  c #F1595D",
"g  c #78C474",
"h  c #7AC476",
"j  c #7CC578",
"k  c #7FC67A",
"l  c #7BC577",
"z  c #7EC67A",
"x  c #81C77D",
"c  c #7CC578",
"v  c #83C87F",
"b  c #7FC77B",
"n  c #84C980",
"m  c #85C981",
"M  c #7AC476",
"N  c #82C87E",
"B  c #81C77D",
"V  c #7FC67A",
"C  c #84C880",
"Z  c #85C981",
"A  c #80C77C",
"S  c #205FD2",
"D  c #195ECC",
"F  c #225FD3",
"G  c #1960CA",
"H  c #2360D4",
"J  c #1F5ED3",
"K  c #2A64D4",
"L  c #2966D3",
"P  c #1B5DCE",
"I  c #1A5BD3",
"U  c #2261D4",
"Y  c #2262D5",
"T  c #2765D0",
"R  c #175ECA",
"E  c #205FD2",
"W  c #2663D2",
"Q  c #1360C6",
"!  c #1160C4",
"~  c #2160D2",
"^  c #2764D3",
"/  c #205ED5",
"(  c #88CA84",
")  c #2064CC",
"_  c #3D6FD1",
"`  c #93CE8E",
"'  c #F15C5D",
"]  c #F15E60",
"[  c #F15D5F",
"{  c #F16163",
"}  c #F0565A",
"|  c #F26969",
" . c #F26A6A",
".. c #F26464",
"X. c #F36F6F",
"o. c #85C981",
"O. c #7DC679",
"+. c #8FCB89",
"@. c #8DCC88",
"#. c #8ACB85",
"$. c #88CA83",
"%. c #93CF8E",
"&. c #88CA83",
"*. c #175ECA",
"=. c #2963D0",
"-. c #1261C5",
";. c #3765CE",
":. c #245ECE",
">. c #3568D2",
",. c #175ECA",
"<. c #2D63D0",
"1. c #316AD4",
"2. c #1C62CB",
"3. c #366AD3",
"4. c #446ED3",
"5. c #90CE8D",
"6. c #8CCC88",
"7. c #2366CB",
"8. c #597FD4",
"9. c #9CD095",
"0. c #EE3A43",
"q. c #E13C4C",
"w. c #F47B78",
"e. c #F37472",
"r. c #ED323D",
"t. c #F5837F",
"y. c #90CD8C",
"u. c #A0D49C",
"i. c #9AD296",
"p. c #86C981",
"a. c #2C69D0",
"s. c #5570C3",
"d. c #3D71D8",
"f. c #497AD4",
"g. c #3569D2",
"h. c #A5D7A1",
"j. c #96D092",
"k. c #89BFAD",
"l. c #F9B6A9",
"z. c #AEDAAA",
"x. c #CBB998",
"c. c #4A7CD6",
"v. c #7F9CDD",
"b. c #E1B09D",
"n. c None",
/* pixels */
"n.n.n.n.n.n.n.n.n.n.n.n.n.n.n.n.n.n.n.n.n.n.n.n.n.n.n.n.n.n.n.n.n.n.n.n.n.n.n.n.n.n.n.n.n.n.n.n.n.n.n.n.n.n.n.n.n.n.n.n.n.n.n.n.n.n.n.n.n.n.n.n.n.n.n.n.n.n.n.n.",
"n.n.n.n.n.n.n.n.n.n.n.n.n.n.n.n.n.n.n.n.n.n.n.n.n.n.n.n.n.n.n.n.n.n.n.n.n.n.n.n.n.n.n.n.n.n.n.n.n.n.n.n.n.n.n.n.n.n.n.n.n.n.n.n.n.n.n.n.n.n.n.n.n.n.n.n.n.n.n.n.",
"n.n.n.n.n.n.n.n.n.n.n.n.n.n.n.n.n.n.n.n.n.n.n.n.n.n.n.n.n.n.n.n.n.n.n.n.n.n.n.n.n.n.n.n.n.n.n.n.n.n.n.n.n.n.n.n.n.n.n.n.n.n.n.n.n.n.n.n.n.n.n.n.n.n.n.n.n.n.n.n.",
"n.n.n.n.n.n.n.n.n.n.n.n.n.n.n.n.n.n.n.n.n.n.n.n.n.n.n.n.n.n.n.n.n.n.n.n.n.n.n.u w | n.n.n.n.n.n.n.n.n.n.n.n.n.n.n.n.n.n.n.n.n.n.n.n.n.n.n.n.n.n.n.n.n.n.n.n.n.n.",
"n.n.n.n.n.n.n.n.n.n.n.n.n.n.n.n.n.n.n.n.n.n.n.n.n.n.n.n.n.n.n.n.n.n.n.n.n.| q q 5 q [ n.n.n.n.n.n.n.n.n.n.n.n.n.n.n.n.n.n.n.n.n.n.n.n.n.n.n.n.n.n.n.n.n.n.n.n.n.",
"n.n.n.n.n.n.n.n.n.n.n.n.n.n.n.n.n.n.n.n.n.n.n.n.n.n.n.n.n.n.n.n.n.n.n.n.. q q q 5 5 5 q b.n.n.n.n.n.n.n.n.n.n.n.n.n.n.n.n.n.n.n.n.n.n.n.n.n.n.n.n.n.n.n.n.n.n.n.",
"n.n.n.n.n.n.n.n.n.n.n.n.n.n.n.n.n.n.n.n.n.n.n.n.n.n.n.n.n.n.n.n.n.n.l.q 5 5 5 5 q q 5 5 q ] n.n.n.n.n.n.n.n.n.n.n.n.n.n.n.n.n.n.n.n.n.n.n.n.n.n.n.n.n.n.n.n.n.n.",
"n.n.n.n.n.n.n.n.n.n.n.n.n.n.n.n.n.n.n.n.n.n.n.n.n.n.n.n.n.n.n.n.n.u q 5 5 q q u l.w 5 q q q 7 k.n.n.n.n.n.n.n.n.n.n.n.n.n.n.n.n.n.n.n.n.n.n.n.n.n.n.n.n.n.n.n.n.",
"n.n.n.n.n.n.n.n.n.n.n.n.n.n.n.n.n.n.n.n.n.n.n.n.n.n.n.n.n.n.n.k.w q 5 5 q q b.n.n.k.a q 5 5 5 q u n.n.n.n.n.n.n.n.n.n.n.n.n.n.n.n.n.n.n.n.n.n.n.n.n.n.n.n.n.n.n.",
"n.n.n.n.n.n.n.n.n.n.n.n.n.n.n.n.n.n.n.n.n.n.n.n.n.n.n.n.n.n.| q q q 5 q d n.n.n.n.n.n.| 0 q 5 5 q 7 l.n.n.n.n.n.n.n.n.n.n.n.n.n.n.n.n.n.n.n.n.n.n.n.n.n.n.n.n.n.",
"n.n.n.n.n.n.n.n.n.n.n.n.n.n.n.n.n.n.n.n.n.n.n.n.n.n.n.n.l.7 q q q q 6 | n.n.n.n.n.n.n.n.n.w q q q q q t.n.n.n.n.n.n.n.n.n.n.n.n.n.n.n.n.n.n.n.n.n.n.n.n.n.n.n.n.",
"n.n.n.n.n.n.n.n.n.n.n.n.n.n.n.n.n.n.n.n.n.n.n.n.n.n.n.t.q q q q q f n.n.n.n.n.n.n.n.n.n.n.n.| q 5 5 5 q w k.n.n.n.n.n.n.n.n.n.n.n.n.n.n.n.n.n.n.n.n.n.n.n.n.n.n.",
"n.n.n.n.n.n.n.n.n.n.n.n.n.n.n.n.n.n.n.n.n.n.n.n.n.n.a q q q q q | n.n.n.n.n.n.n.n.n.n.n.n.n.n.k.d q q 5 5 w l.n.n.n.n.n.n.n.n.n.n.n.n.n.n.n.n.n.n.n.n.n.n.n.n.n.",
"n.n.n.n.n.n.n.n.n.n.n.n.n.n.n.n.n.n.n.n.n.n.n.n.w.q q q q q p k.n.n.n.n.n.n.n.n.n.n.n.n.n.n.n.n.n.s q 5 5 5 q { n.n.n.n.n.n.n.n.n.n.n.n.n.n.n.n.n.n.n.n.n.n.n.n.",
"n.n.n.n.n.n.n.n.n.n.n.n.n.n.n.n.n.n.n.n.n.n.n.' q 5 q q q X.n.n.n.n.n.n.n.n.n.n.n.n.n.n.n.n.n.n.n.n.n.w q q 5 5 w r.n.n.n.n.n.n.n.n.n.n.n.n.n.n.n.n.n.n.n.n.n.n.",
"n.n.n.n.n.n.n.n.n.n.n.n.n.n.n.n.n.n.n.n.n.t.r 5 5 q q e x.n.n.n.n.n.n.n.n.n.n.n.n.n.n.n.n.n.n.n.n.n.n.n.| q 5 5 q q { n.n.n.n.n.n.n.n.n.n.n.n.n.n.n.n.n.n.n.n.n.",
"n.n.n.n.n.n.n.n.n.n.n.n.n.n.n.n.n.n.n.n.u q q 5 q q X.n.n.n.n.n.n.n.n.n.n.n.n.n.n.n.n.n.n.n.n.n.n.n.n.n.n.k.0 q q 5 5 9 n.n.n.n.n.n.n.n.n.n.n.n.n.n.n.n.n.n.n.n.",
"n.n.n.n.n.n.n.n.n.n.n.n.n.n.n.n.n.n.k.a q q 5 q 0 z.n.n.n.n.n.n.n.n.n.n.n.n.n.n.n.n.n.n.n.n.n.n.n.n.n.n.n.n.n.' q 5 5 q q | n.n.n.n.n.n.n.n.n.n.n.n.n.n.n.n.n.n.",
"n.n.n.n.n.n.n.n.n.n.n.n.n.n.n.n.n.| q q q q q u n.n.n.n.n.n.n.n.n.n.n.n.n.n.n.n.n.n.n.n.n.n.n.n.n.n.n.n.n.n.n.n.l.q q q 5 q a k.n.n.n.n.n.n.n.n.n.n.n.n.n.n.n.n.",
"n.n.n.n.n.n.n.n.n.n.n.n.n.n.n.l.y q q q 5 0 l.n.n.n.n.n.n.n.n.n.n.n.n.n.n.n.n.n.n.n.n.n.n.n.n.n.n.n.n.n.n.n.n.n.n.n.] q 5 q q q t.n.n.n.n.n.n.n.n.n.n.n.n.n.n.n.",
"n.n.n.n.n.n.n.n.n.n.n.n.n.n.| 0 q q q q u n.n.n.n.n.n.n.n.n.n.n.n.n.n.n.n.n.n.n.n.n.n.n.n.n.n.n.n.n.n.n.n.n.n.n.n.n.n.| 0 q q 5 q s n.n.n.n.n.n.n.n.n.n.n.n.n.n.",
"n.n.n.n.n.n.n.n.n.n.n.n.n.' q q 5 q 0 t.n.n.n.n.n.n.n.n.n.n.n.n.n.n.n.n.n.n.n.n.n.n.n.n.n.n.n.n.n.n.n.n.n.n.n.n.n.n.n.n.n.f q 5 5 5 w k.n.n.n.n.n.n.n.n.n.n.n.n.",
"n.n.n.n.n.n.n.n.n.n.n.l.q q q q q y n.n.n.n.n.n.n.n.n.n.n.n.n.n.n.n.n.n.n.n.n.n.n.n.n.n.n.n.n.n.n.n.n.n.n.n.n.n.n.n.n.n.n.n.t.q q 5 q q u n.n.n.n.n.n.n.n.n.n.n.",
"n.n.n.n.n.n.n.n.n.n.} q q q q q | n.n.n.n.n.n.n.n.n.n.n.n.n.n.n.n.n.n.n.n.n.n.n.n.n.n.n.n.n.n.n.n.n.n.n.n.n.n.n.n.n.n.n.n.n.n.k.i q 5 q q w k.n.n.n.n.n.n.n.n.n.",
"n.n.n.n.n.n.n.n.k.w q q q q f k.n.n.n.n.n.n.n.n.n.n.n.n.n.n.n.n.n.n.n.n.n.n.n.n.n.n.n.n.n.n.n.n.n.n.n.n.n.n.n.n.n.n.n.n.n.n.n.n.n.| q q q q q t.n.n.n.n.n.n.n.n.",
"n.n.n.n.n.n.n.s q q 5 q q e.n.n.n.n.n.n.n.n.n.n.n.n.n.n.n.n.n.n.n.n.n.n.n.n.n.n.n.n.n.n.n.n.n.n.n.n.n.n.n.n.n.n.n.n.n.n.n.n.n.n.n.n.k.7 q q 5 5 d n.n.n.n.n.n.n.",
"n.n.n.n.n.k.f q q q q   k.n.n.n.n.n.n.n.n.n.n.n.n.n.n.n.n.n.n.n.n.n.n.n.n.n.n.n.n.n.n.n.n.n.n.n.n.n.n.n.n.n.n.n.n.n.n.n.n.n.n.n.n.n.n.n.| q q 5 q q | n.n.n.n.n.",
"n.n.n.n.t.q q q q q | n.n.n.n.n.n.n.n.n.n.n.n.n.n.n.n.n.n.n.n.n.n.n.n.n.n.n.n.n.n.n.n.n.n.n.n.n.n.n.n.n.n.n.n.n.n.n.n.n.n.n.n.n.n.n.n.n.n.| w 5 5 5 q { n.n.n.n.",
"n.n.n.n.s q q q 9 n.n.n.n.n.n.n.n.n.n.n.n.n.n.n.n.n.n.n.n.z.k.n.n.n.n.n.n.n.n.n.n.n.n.n.n.n.n.n.n.n.n.n.n.n.n.n.n.n.n.n.n.n.n.n.n.n.n.n.h.n.n.s q q q 0 n.n.n.n.",
"n.n.n.n.n.s q  .n.n.u.V 5.n.n.n.n.n.n.n.n.n.n.n.&.( v M ( ( y.n.n.n.n.n.n.n.n.n.n.n.n.n.n.n.n.n.n.n.n.n.n.n.n.n.n.n.n.n.n.n.n.X A M A j ( | n.n.r.q 5 6 n.n.n.n.",
"n.n.n.n.n.n.k.n.n.b.( A ( #.n.n.n.n.n.n.n.n.n.n.n.k.m A ( M #.n.n.n.n.n.n.n.n.n.n.n.n.n.n.n.n.n.n.n.n.n.n.n.n.n.n.n.n.n.n.n.n.k.` c M M A i.n.n.n.5 5 9 n.n.n.n.",
"n.n.n.n.n.n.n.n.n.; ( ( A u.n.n.n.n.n.n.n.n.n.n.n.n.; ( A A k.n.n.n.n.n.n.n.n.n.n.n.n.n.n.n.n.n.n.n.n.n.n.n.n.n.n.n.n.n.n.n.n.n.n.; M M A i.n.n.| 5 5 6 n.n.n.n.",
"n.n.n.n.n.n.n.n.k.y.( ( ( k.n.n.n.n.n.n.n.n.n.n.n.n.p.M M ( z.n.n.n.n.n.n.n.n.n.n.n.n.n.n.n.n.n.n.n.n.n.n.n.n.n.n.n.n.n.n.n.n.n.n.V M M M k.n.n.k.q q w n.n.n.n.",
"n.n.n.n.n.n.n.n.n.n.9.` z.n.n.n.n.n.n.n.n.n.n.n.n.n.V M M ( #.n.n.n.n.n.n.n.n.n.n.n.n.n.n.n.n.n.n.n.n.n.n.n.n.n.n.n.n.n.n.n.n.n.n.V M M M #.n.n.l.q 5 1 n.n.n.n.",
"n.n.n.n.n.n.n.n.n.n.k.k.n.n.n.n.n.n.n.n.n.n.n.n.n.n.V M M M #.n.n.n.n.n.n.n.n.n.n.n.n.n.n.n.n.n.n.n.n.n.k.n.n.n.n.k.n.n.n.n.n.k.n.V M M M #.n.n.k.5 5 7 n.n.n.n.",
"n.n.n.n.n.n.n.k.y.9.9.y.#.z.n.n.n.n.k.k.z.` p.V p.n.o M M M #.n.n.n.n.n.n.u.O.; V ` 9.n.n.n.n.n.n.n.n.k.p.p.V V #.9.n.n.n.n.n.n.n.O.M M A k.n.n.| 5 5 1 n.n.n.n.",
"n.n.n.n.n.n.n.9.( ( A A M V n.n.n.n.n.V M M M ( ( M V A M M h.n.n.n.n.n.V M A m j ( A g 9.n.n.n.n.n.V M M V N ( M ( V n.n.n.n.n.n.V M M ( #.n.n.l.5 5 < n.n.n.n.",
"n.n.n.n.n.n.n.n.n.V M M A V n.n.n.n.p.( M M #.n.n.V M M M M k.n.n.n.n.c ( M V n.n.y.A M ( k.n.n.k.y.( ( C n.n.z.A ( ( ` n.n.n.n.n.#.M M ( k.n.n.l.5 5 < n.n.n.n.",
"n.n.n.n.n.n.n.k.n.#.M M A y.n.n.n.n.M A A M n.n.n.n.b M M M #.n.n.n.#.M M M k.n.n.n.M A ( #.n.n.n.#.( ( V n.n.n.g M A V n.n.n.n.n.V M M ( k.n.n.| 5 5 < n.n.n.n.",
"n.n.n.n.n.n.n.n.n.p.M M ( ` n.n.n.k.A M ( c n.n.n.n.V M M M #.n.n.n.V M M A h.n.n.n.j ( ( C n.n.n.k.V p.n.n.n.n.j M ( M n.n.n.n.n.V M M ( #.n.n.| 5 5 < n.n.n.n.",
"n.n.n.n.n.n.n.n.n.V A M M 9.n.k.n.p.M M M V n.n.n.n.V M M M #.n.n.n.c ( M M p.9.y.9.( A A V n.n.n.n.n.n.u.9.p.y.g M M c n.n.n.n.n.; M M M k.n.n.n.5 5 6 n.n.n.n.",
"n.n.n.n.n.n.n.n.n.p.A M ( p.n.n.n.O.A M M V n.n.n.n.V M M M k.n.n.n.b ( M ( ( M A M j g A V n.n.n.z.g M ( ( ( j M M M j n.n.n.n.n.V M M A #.n.n.l.5 5 8 n.n.n.n.",
"n.n.n.n.n.n.n.n.n.V M M ( ` k.n.n.#.( A ( * n.n.n.n.V M M M k.n.n.n.c ( ( ( 9.n.n.n.n.n.n.n.n.n.k.( A M ( z.n.n.c M M c n.n.n.n.n.; M M A k.n.n.r.5 5 7 n.n.n.n.",
"n.n.n.n.n.n.n.n.n.p.M M A y.n.k.n.y.( ( A V n.n.n.n.V M M M #.n.n.n.V M ( ( 9.n.n.n.n.n.k.n.n.n.O.( ( ( V n.n.n.j M M c n.n.n.n.n.; M M A h.n.n.l.5 5 9 n.n.n.n.",
"n.n.n.n.n.n.n.n.n.O.( A ( ` n.n.n.n.M M M j n.n.n.n.c M ( ( b.n.n.n.V A M M 9.n.n.n.k.( ( 9.n.n.V ( ( ( O.n.n.n.M M ( c n.n.n.n.n.V ( M ( | n.n.r.5 5 8 n.n.n.n.",
"n.n.n.n.n.n.n.n.n.p.( ( ( ` n.n.n.n.V A M M 9.n.n.#.( A ( ( t.n.n.n.k.( M M V n.n.n.p.M ( 9.n.n.p.( M A g n.n.V M M ( g n.n.n.n.n.V M M ( | n.n.r.5 5 8 n.n.n.n.",
"n.n.n.n.n.n.n.z.V ( ( ( ( ( V k.n.n.k.g A ( ( V V ( v ( ( ( ( X k.n.n.V M M M V p.V ( ( V n.n.n.n.b M M ( A ( ( M M ( ( c V n.y.c ( M M ( j 5.k.k.5 5 7 n.n.n.n.",
"n.n.n.n.n.n.k.z.V V ` p.V ` V k.n.n.n.n.p.V c l V #.k.V V y.X X n.n.n.n.n.V V c A c V k.n.n.n.n.n.n.V V b c p.n.y.#.` y.V p.n.p.; ; 9.5.5.; X n.l.5 5 8 n.n.n.n.",
"n.n.n.n.n.n.k.n.n.n.n.n.n.n.n.n.n.n.n.n.n.n.n.n.n.n.n.n.n.n.n.n.n.n.n.n.n.n.n.n.n.n.n.n.n.k.n.n.n.n.n.n.n.n.n.n.n.n.n.n.n.n.n.n.n.n.n.n.n.n.n.n.r.q q 4 n.n.n.n.",
"n.n.n.n.n.n.n.n.n.n.n.n.n.n.n.n.n.n.n.n.n.n.n.n.n.n.n.n.n.n.n.n.n.n.n.n.n.n.n.n.n.n.n.n.n.n.n.n.n.n.n.n.n.n.n.n.n.n.n.n.n.n.n.n.n.n.n.n.n.n.k.n.r.q 5 8 n.n.n.n.",
"n.n.n.n.n.| u u s u u u u u u u } u   ' s ' u } u u u u } u u } u u } u u u } u u u } u s s ' [   '  .[ u u u u u u u u u u u u } u u } s q.n.n.k.5 5 7 n.n.n.n.",
"n.n.n.n.0.q q 5 q q q q 5 5 q q q q q q q q q 5 5 q 5 q 5 5 q q q q 5 q q q q q q q 5 q q q q q q q q q 5 5 5 q q q 5 5 5 5 q q q q q q q   n.n.l.5 5 8 n.n.n.n.",
"n.n.n.n.6.q q q q q q q 5 q q q q q q q q q q q 5 5 q q q q q q 5 q q q q q q q q q q q q q q q q q q q q q q q q q q q 5 q q q q q q q q f n.n.r.5 5 7 n.n.n.n.",
"n.n.n.n.. q q q { ] u w u { f { p p ] f [ f ] { f ' p a d { p p { f d { [ 9 { d { d d { f { ] f d { p a d { p p ] f ] [ u { [ u p p { f f t.n.n.l.5 5 4 n.n.n.n.",
"n.n.n.n.p q q ] n.n.n.n.n.n.n.n.n.n.n.n.n.n.n.n.n.n.n.n.n.n.n.n.n.n.n.n.n.n.n.n.n.n.n.n.n.n.n.n.n.n.n.n.n.n.n.n.n.n.n.n.n.n.n.n.n.n.n.n.n.n.n.n.r.5 5 0 n.n.n.n.",
"n.n.n.n.e q q ..r.n.n.n.n.n.n.n.n.n.n.n.n.n.n.n.n.n.n.n.n.n.n.n.n.n.n.n.n.n.n.n.n.n.n.n.n.n.n.n.n.n.n.n.n.n.n.n.n.r.n.n.n.n.n.r.n.n.n.n.n.n.n.n.r.q 5 7 n.n.n.n.",
"n.n.n.n.[ 5 q s n.n.n.n.n.n.n.n.n.n.n.n.n.n.n.n.n.n.n.n.n.n.n.n.n.n.n.n.n.n.n.n.n.n.n.n.n.n.n.n.n.n.n.n.n.n.n.n.n.n.n.n.n.n.n.n.n.n.n.n.n.n.n.n.n.5 5 w n.n.n.n.",
"n.n.n.n.p q q u n.n.n.n.n.n.n.n.n.n.n.n.n.n.n.n.n.n.n.n.n.n.n.n.n.n.n.n.n.n.n.n.n.n.n.n.n.n.n.n.n.n.n.n.n.n.n.n.n.n.n.n.n.n.n.n.n.n.n.n.n.n.n.n.| 5 5 9 n.n.n.n.",
"n.n.n.n.e q q ' n.n.n.n.n.n.n.n.n.n.n.n.n.n.n.n.n.n.n.n.n.n.n.n.n.n.n.n.n.n.n.n.n.n.n.n.n.n.n.n.n.n.n.n.n.n.n.n.n.n.n.n.n.n.n.n.n.n.n.n.n.n.n.n.| 5 5 0 n.n.n.n.",
"n.n.n.n.. q q . n.8.T L D L L L J D F 4.2.P ! ! n.n.n.Q D P 2.n.K L L ~ L / L L ~ H W n.2.Y / / J J / / ~ ~ W n.n.n.n.n.n.v.L D F Y a.n.n.n.n.n.n.5 5 9 n.n.n.n.",
"n.n.n.n.p q q . n.4.I I I I I I Y I I g.n.I Y I W n.W I I I n.4.I I I I Y I I I I I S n.W I I I I I I I I I I W n.n.n.n.n.K I I I I F n.n.n.n.n.| 5 5 < n.n.n.n.",
"n.n.n.n.. q q ' n.a.I I W 4.2.4.2.2.g.c.n.c.P P I g.P I I 7.n.n.W W W E I I F W W ^ ) n.W I I W W 2.3.W E Y I ^ n.n.n.n.f.Y I W W Y Y g.n.n.n.n.| 5 5 < n.n.n.n.",
"n.n.n.n.p q q . n.W I I W n.n.n.n.k.n.n.n.n.Q P P P I I W n.n.n.n.n.n.k.I I W n.n.n.n.n.W I Y k.n.k.n.n.k.Y I ~ n.n.n.n.F I Y k.n.Y Y T n.n.n.n.n.5 5 < n.n.n.n.",
"n.n.n.n.. q q { n.a.I Y Y Y Y Y Y Y T n.n.n.n.S P P P P n.n.n.n.n.n.n.c.I I ^ n.n.n.n.n.2.I Y W g.a.a.7.) I I ^ n.n.n.a.I I W n.n.W Y Y s.n.n.n.| 5 5 6 n.n.n.n.",
"n.n.n.n.. q q ' n.@ Y I Y Y Y Y Y Y L n.n.n.@ Y I I P P 2.n.g.n.n.n.n.c.Y I ~ n.n.n.n.n.W I I I I I I Y I I U n.n.n.n.T I Y 7.k.c.d.I I F n.n.n.| 5 5 6 n.n.n.n.",
"n.n.n.n.p q q   n.s.Y Y _ n.n.n.n.n.n.n.n.g.I I P ^ P P I n.n.n.n.n.n.c.I I E n.n.n.n.n.W I I I I I I I I I Y 8.n.n.s.Y I I I I Y Y I I I a.n.n.n.5 5 < n.n.n.n.",
"n.n.n.n.[ 5 q ' n.@ Y Y F W W W W W 4.n.n.D I I Q n.Q Y I J n.n.n.n.g.c.Y I W n.n.n.n.n.W I Y 4.n.k.c.c.2.Y Y W n.n.L Y I Y T T Y Y K I I H n.n.| 5 5 9 n.n.n.n.",
"n.n.n.n.p q q   n.a.Y Y Y Y I I I Y Y n.W I I I n.n.g.P I Y 2.n.n.n.n.c.I I F n.n.n.n.n.W I I 7.n.n.n.n.c.Y Y W n.@ Y Y E n.n.n.n.n.n.^ I I W n.l.5 5 6 n.n.n.n.",
"n.n.n.n.e q q } n.l.W # # # s.@ 2.W g.n.2.2.W c.n.n.n.2.2.2.2.n.n.n.n.n.@ W 8.n.n.n.n.n.a.W W n.n.n.n.n.c.W W 7.n.@ # # k.n.n.n.n.n.n.7.W _ _ n.| 5 5 2 n.n.n.n.",
"n.n.n.n.e q q u n.n.n.n.n.n.n.n.n.n.n.n.n.n.n.n.n.n.n.n.n.n.n.n.n.n.n.n.n.n.n.n.n.n.n.n.n.n.n.n.n.n.n.n.n.n.n.n.n.n.n.n.n.n.n.n.n.n.k.n.n.n.n.n.k.5 5 6 n.n.n.n.",
"n.n.n.n.[ q q ' n.n.n.n.n.n.n.n.n.n.n.n.n.n.n.n.n.n.n.n.n.n.n.n.n.n.n.n.n.n.n.n.n.n.n.n.n.n.n.n.n.n.n.n.n.n.n.n.n.n.n.n.n.n.n.n.n.n.n.n.n.n.k.n.r.5 5 0 n.n.n.n.",
"n.n.n.n.p q q u n.n.n.n.n.n.n.n.n.n.n.n.n.n.n.n.n.n.n.n.n.n.n.n.n.n.n.n.n.n.n.n.n.n.n.n.n.n.n.n.n.n.n.n.n.n.n.n.n.n.n.n.n.n.n.n.n.n.n.n.n.n.n.n.r.5 5 9 n.n.n.n.",
"n.n.n.n.e q q u n.n.n.n.n.n.n.n.n.n.n.n.n.n.n.n.n.n.n.n.n.n.n.n.n.n.n.n.n.n.n.n.n.n.n.n.n.n.n.n.n.n.n.n.n.n.n.n.n.n.n.n.n.n.n.n.n.n.n.n.n.n.n.n.| 5 5 6 n.n.n.n.",
"n.n.n.n.[ q q } n.n.n.k.n.n.n.n.n.n.n.n.n.n.n.n.n.n.n.n.n.n.r.n.n.n.n.n.n.n.n.n.n.n.n.n.n.n.n.n.n.n.k.n.n.n.n.n.n.n.n.n.n.n.n.n.n.n.n.k.n.n.n.n.l.5 5 9 n.n.n.n.",
"n.n.n.n.e q 5 5 < 9 5 6 < < < < 6 < < < < < < < w 4 9 2 < < < < < < < < 5 < < < 6 < < < , , < < 7 7 0 0 < < < < < < 5 < < < < < < < q 7 < < 8 9 9 5 5 6 n.n.n.n.",
"n.n.n.n.| 5 5 5 5 5 5 5 5 5 5 5 5 5 5 5 5 5 5 5 q q 5 5 5 5 5 5 5 5 5 5 5 5 5 5 5 5 5 5 5 5 5 5 5 q q q 5 5 5 5 5 5 5 5 5 5 5 5 5 5 q q 5 5 5 5 5 5 5 9 n.n.n.n.",
"n.n.n.n.k.t q 4 < 8 6 9 8 8 < < < < , , < , , , , , , < , , , , < < , , , , < < < < , , < < , , 8 , 7 8 8 8 6 < 6 < < , , , < , < , 7 8 8 8 7 8 < 8 6 | n.n.n.n.",
"n.n.n.n.n.n.n.n.n.n.n.n.n.n.n.n.n.n.n.n.n.n.n.n.n.n.n.n.n.n.n.n.n.n.n.n.n.n.n.n.n.n.n.n.n.n.n.n.n.n.n.n.n.n.n.n.n.n.n.n.n.n.n.n.n.n.n.n.n.n.n.n.n.n.n.n.n.n.n.n.",
"n.n.n.n.n.n.n.n.n.n.n.n.n.n.n.n.n.n.n.n.n.n.n.n.n.n.n.n.n.n.n.n.n.n.n.n.n.n.n.n.n.n.n.n.n.n.n.n.n.n.n.n.n.n.n.n.n.n.n.n.n.n.n.n.n.n.n.n.n.n.n.n.n.n.n.n.n.n.n.n.",
"n.n.n.n.n.n.n.n.n.n.n.n.n.n.n.n.n.n.n.n.n.n.n.n.n.n.n.n.n.n.n.n.n.n.n.n.n.n.n.n.n.n.n.n.n.n.n.n.n.n.n.n.n.n.n.n.n.n.n.n.n.n.n.n.n.n.n.n.n.n.n.n.n.n.n.n.n.n.n.n."
};
