/* XPM */
static char *xpm_[] = {
/* columns rows colors chars-per-pixel */
"80 80 92 1 ",
"  c #000309",
". c #010A16",
"X c #081219",
"o c #121A18",
"O c #071118",
"+ c #1A2116",
"@ c #272B15",
"# c #333614",
"$ c #0F1920",
"% c #121C22",
"& c #1A242A",
"* c #20292F",
"= c #232C32",
"- c #2C343A",
"; c #30393F",
": c #071118",
"> c #4A4812",
", c #504D11",
"< c #5D5710",
"1 c #625C0F",
"2 c #72690E",
"3 c #7B710D",
"4 c #353E43",
"5 c #3B4349",
"6 c #41494E",
"7 c #454D52",
"8 c #4C5459",
"9 c #51585D",
"0 c #565D62",
"q c #5C6367",
"w c #62686C",
"e c #666D71",
"r c #6D7277",
"t c #73797D",
"y c #071118",
"u c #071118",
"i c #071118",
"p c #071118",
"a c #071118",
"s c #81750C",
"d c #90810B",
"f c #877A0C",
"g c #96860A",
"h c #A99708",
"j c #B09C08",
"k c #BCA606",
"l c #C9B105",
"z c #C3AC06",
"x c #D1B704",
"c c #D5BA04",
"v c #FAD900",
"b c #FFDD00",
"n c #DDC103",
"m c #E6C902",
"M c #EFD002",
"N c #FDDB00",
"B c #FFE700",
"V c #FFF200",
"C c #787E81",
"Z c #7D8286",
"A c #84898C",
"S c #888D90",
"D c #8E9396",
"F c #93979A",
"G c #9A9EA1",
"H c #9EA2A4",
"J c #A4A8AB",
"K c #AEB2B4",
"L c #B4B7B9",
"P c #BCBFC1",
"I c #BFC1C3",
"U c #C9CBCC",
"Y c #CED0D1",
"T c #D6D8D9",
"R c #DEDFE0",
"E c #DFE0E1",
"W c #E8E9EA",
"Q c #FDFEFE",
"! c #071018",
"~ c #060E19",
"^ c #071118",
"/ c #071118",
"( c #FFDD00",
") c #FFDD00",
"_ c #FFFF00",
"` c #071118",
"' c #071118",
"] c #FFF400",
"[ c #071118",
"{ c #CAB105",
"} c #DBC003",
"| c None",
/* pixels */
"||||||||||||||||||||||||||||||||||||||||||||||||||||||||||||||||||||||||||||||||",
"||||||||||||||||||||||||||||||||||||||||||||||||||||||||||||||||||||||||||||||||",
"||||||||||||||||||||||||||||||||||||||||||||||||||||||||||||||||||||||||||||||||",
"||||||||||||||||||||||||||||||||||||||||||||||||||||||||||||||||||||||||||||||||",
"||||||||||||||||||||||||||||||||||||||||||||||||||||||||||||||||||||||||||||||||",
"||||||||||||||||||||||||||||||||||||||||||||||||||||||||||||||||||||||||||||||||",
"||||||||||||||||||||||||||||||||||||||||||||||||||||||||||||||||||||||||||||||||",
"||||||||||||||||||||||||||||||||||||||||||||||||||||||||||||||||||||||||||||||||",
"||||||||||||||||||||||||||||||||||||||||||||||||||||||||||||||||||||||||||||||||",
"||||||||||||||||||||||||||||||||||||||||||||||||||||||||||||||||||||||||||||||||",
"||||||||||||||||||||||||||||||||||||||||||||||||||||||||||||||||||||||||||||||||",
"||||||||||||||||||||||||||||||||||||||||||||||||||||||||||||||||||||||||||||||||",
"||||||||||||||||||||||||||||||||||||||||||||||||||||||||||||||||||||||||||||||||",
"||||||||||||||||||||||||||||||||||||||||||||||||||||||||||||||||||||||||||||||||",
"||||||||||||||||||||||||||||||||||||||||||||||||||||||||||||||||||||||||||||||||",
"||||||||||||||||||||||||||||||||||||||||||||||||||||||||||||||||||||||||||||||||",
"||||||||||||||||||||||||||||||||||||||||||||||||||||||||||||||||||||||||||||||||",
"||||||||||||||||||||||||||||||||||||||||||||||||||||||||||||||||||||||||||||||||",
"||||||||||||||||||||||||||||||||||||||||||||||||||||||||||||||||||||||||||||||||",
"||||||||||||||||||||||||||||||||||||||||||||||||||||||||||||||||||||||||||||||||",
"||||||||||||||||||||||||||||||||||||||||||||||||||||||||||||||||||||||||||||||||",
"||||||||||||||||||||||||||||||||||||||||||||||||||||||||||||||||||||||||||||||||",
"||||||||||||||||||||||||||||||||||||||||||||||||||||||||||||||||||||||||||||||||",
"||||||||||||||||||||||||||||||||||||||||||||||||||||||||||||||||||||||||||||||||",
"||||||||||||||||||||||||||||||||||||||||||||||||||||||||||||||||||||||||||||||||",
"||||||||||||||||||||||||||||||||||||||||||||||||||||||||||||||||||||||||||||||||",
"|||||||||||||||||||||||||||||||||||||||||||||]VNN_||||||||||||||||||||||||||||||",
"||||||||||||||||||||||||||||||||||||||||[||[|bVBm[||||||||||||||||||||||||||||||",
"||||||||||||||||||||||||||||||||||||||||||||`MMB_|||||||||||||||||||||||||||||||",
"||||||||||'/aaaaaaaaaaaaaaaaaaaaaaaaaaaaa^a^fBBzaaaaaaaaaaaaaaaaaaa~~'||||||||||",
"||||||||/uXXXXXOXXXXXXXXXXXXXXXXXXXXXXXXXXX@vMB,.oooXOOXXXXOXOXXOXXXXXu/||||||||",
"|||||||uXXXXOXOXXXOXOXOXXXOXOXOXOXXXXXXXXXOgMMj..XOOXOXXOXXOXXXXOXXXXXXXu|||||||",
"||||||:XOXXXXXXXXXXXoXXXXXXX$XXXXXXXXXXX.X.cBN>#+O$$XXXXoXXX$XXXXXoXXXXXX:||||||",
"|||||:XXXXOXXXX   OX.   .XXO    XX.   .XX.>BNMMcXX.      O    .XX    .XXXX:|||||",
"||||~X.XXXXOXXXZHAX.=GFH4..=FFGZX.-GFFrOo.hBNNB1.O6GFFFFG&5JDHq..8HFJ8 XXXX~||||",
"||||OXXXXOXOX.=QQTO FQQQq  rQQQTO JQQQH O*BNNBmXX JQQQQQQ$GQQQJ XTQQQe XXXXX||||",
"|||aOXXXOOXOX.8QQD &WQWQq  GQQQU =QQQQ9 .fzgBB3.o.UQQUUTJ UQQQH 0QQQQ-.XXOXX~|||",
"|||:XXXOXOOXX AQQw tQUTQq OUQWQY ZQTQQ-O$>.zBM%..*QQL    *WQTQG LQTQRoXXXX.X:|||",
"|||XOXOXXOXXX LQQ; TQZTQ0 &QQKQUOWQLQRXXX.>BBg.$ 8QQJ&-=.7QQKQD&QTUQK XXOOXXO|||",
"|||XXXXXXXXXOXWQW 8QW5WQw 7QQSQL9QKLQL XX.jBN#.o ZQQQWQT CQEDQAAQFTQZ XXXXXOX|||",
"|||XXXOXXXX$.;QQK LQJ&QQw tQWeQULQeWQZ XX@NBl.X$ LQQQQQK KQUtQJEQwQQ8 XXOXXXX|||",
"|||XXXXOXX   wQQt=QQw6QQw KQU8QWQY8QQ8 o.fBN3f#.oRQW09q-OTQFtQWQFtQW=.XXXXOOX|||",
"|||OOXXXX%FK*SQQ5FQQQQQQq TQJ6QQQwtQW=.OomBNVx..4QQL    -QQrtQQQ4KQYOXXXXOXXO|||",
"|||:XXXX 5QQ%UQW4WQQWQQQq&QQt5QQW%IQYOX.1VNNN*. 0QQZ o$ 9QQ5tQQU%WQH XXXOXXX:|||",
"|||^OX.X 9QWHWQJtQQ9.CQQ97QQ86QQFXWQJ XXcmcVf.$ DQQ8 Xo AQQ&ZQQ04QQr $OXX.XX~|||",
"||||OXXX.=QQQQW5WQTO tQQ0AQQ&9QQ=8QQr X@<onmXXX.YQQ=.XX.UQW DQW SQQ5.XXOXXXO'|||",
"||||~XXXX.4FHZ&oqw5O.;ww=5e0X&w8.-ww&.XX.,V>.$.X9w8XOXXX9w7.4r5.5w0o.XXOXXX~||||",
"|||||uXXXX    .O   XX.  .   XO .X.  OXXX.zz.XXXX   XXOXO  .X   X.  OXOXXXXu|||||",
"|||||':XXXXX$XXXX$XOOX$XXX$XXX$XXXX$XXXO@M@.XXXXXXXXXXXXX$XXXXXXXXoXXXOXX:||||||",
"|||||||uXXXXXXXXXXXXOX.XXXX.XXX.XXOOXXX.gg.XXXXXXXXXXXXXX.XXXXXXOXXXXOXXa|||||||",
"||||||||'uXXXXXXXXXXXXX$XXXXXXXXXXoXXX++hoXXXOXXXXXXXXXXXXXXXXXXXXXXXXu/||||||||",
"||||||||||'/~~~~aa^a/a/a^^~~aa^a~~~~~~/>d~a~~aaa^a^~aa^a~~~a~~~~~a~~/|||||||||||",
"|||||||||||||||||||||||||||||||||||||||_||||||||||||||||||||||||||||||||||||||||",
"||||||||||||||||||||||||'|||||||||||||['||||||||||'|||||||||||||||||||||||||||||",
"||||||||||||||||||||||||||||||||||||||||||||||||||||||||||||||||||||||||||||||||",
"||||||||||||||||||||||||||||||||||||||||||||||||||||||||||||||||||||||||||||||||",
"||||||||||||||||||||||||||||||||||||||||||||||||||||||||||||||||||||||||||||||||",
"||||||||||||||||||||||||||||||||||||||||||||||||||||||||||||||||||||||||||||||||",
"||||||||||||||||||||||||||||||||||||||||||||||||||||||||||||||||||||||||||||||||",
"||||||||||||||||||||||||||||||||||||||||||||||||||||||||||||||||||||||||||||||||",
"||||||||||||||||||||||||||||||||||||||||||||||||||||||||||||||||||||||||||||||||",
"||||||||||||||||||||||||||||||||||||||||||||||||||||||||||||||||||||||||||||||||",
"||||||||||||||||||||||||||||||||||||||||||||||||||||||||||||||||||||||||||||||||",
"||||||||||||||||||||||||||||||||||||||||||||||||||||||||||||||||||||||||||||||||",
"||||||||||||||||||||||||||||||||||||||||||||||||||||||||||||||||||||||||||||||||",
"||||||||||||||||||||||||||||||||||||||||||||||||||||||||||||||||||||||||||||||||",
"||||||||||||||||||||||||||||||||||||||||||||||||||||||||||||||||||||||||||||||||",
"||||||||||||||||||||||||||||||||||||||||||||||||||||||||||||||||||||||||||||||||",
"||||||||||||||||||||||||||||||||||||||||||||||||||||||||||||||||||||||||||||||||",
"||||||||||||||||||||||||||||||||||||||||||||||||||||||||||||||||||||||||||||||||",
"||||||||||||||||||||||||||||||||||||||||||||||||||||||||||||||||||||||||||||||||",
"||||||||||||||||||||||||||||||||||||||||||||||||||||||||||||||||||||||||||||||||",
"||||||||||||||||||||||||||||||||||||||||||||||||||||||||||||||||||||||||||||||||",
"||||||||||||||||||||||||||||||||||||||||||||||||||||||||||||||||||||||||||||||||",
"||||||||||||||||||||||||||||||||||||||||||||||||||||||||||||||||||||||||||||||||",
"||||||||||||||||||||||||||||||||||||||||||||||||||||||||||||||||||||||||||||||||",
"||||||||||||||||||||||||||||||||||||||||||||||||||||||||||||||||||||||||||||||||",
"||||||||||||||||||||||||||||||||||||||||||||||||||||||||||||||||||||||||||||||||",
"||||||||||||||||||||||||||||||||||||||||||||||||||||||||||||||||||||||||||||||||",
"||||||||||||||||||||||||||||||||||||||||||||||||||||||||||||||||||||||||||||||||"
};
