/* XPM */
static char *xpm_[] = {
/* columns rows colors chars-per-pixel */
"80 80 119 2 ",
"   c #100C0D",
".  c #1A1618",
"X  c #211D1F",
"o  c #221F20",
"O  c #2C282A",
"+  c #302D2E",
"@  c #282C38",
"#  c #322F30",
"$  c #2F3038",
"%  c #373537",
"&  c #433C38",
"*  c #4C4136",
"=  c #564837",
"-  c #634F35",
";  c #665236",
":  c #765A34",
">  c #423F40",
",  c #4A4748",
"<  c #514E4E",
"1  c #565454",
"2  c #686667",
"3  c #706E6E",
"4  c #777576",
"5  c #F5A62C",
"6  c #836233",
"7  c #946C33",
"8  c #9D7231",
"9  c #B47F30",
"0  c #A67731",
"q  c #B27E30",
"w  c #F9A82C",
"e  c #F8A82C",
"r  c #F8A82C",
"t  c #F9A82C",
"y  c #F9A82C",
"u  c #FAA92C",
"i  c #F9A82C",
"p  c #F9A82C",
"a  c #F9A82C",
"s  c #F9A82C",
"d  c #F9A82C",
"f  c #BD842E",
"g  c #B78130",
"h  c #F9A82C",
"j  c #F99F15",
"k  c #FAA31E",
"l  c #C88B2E",
"z  c #D28E27",
"x  c #D9942B",
"c  c #F9A82C",
"v  c #ECA02B",
"b  c #FAA92C",
"n  c #F4A52C",
"m  c #F9A82B",
"M  c #FFB12C",
"N  c #F9AC37",
"B  c #FFB535",
"V  c #FFAF2B",
"C  c #F9A82C",
"Z  c #F9A82C",
"A  c #FAA92C",
"S  c #F9A82C",
"D  c #F7AF40",
"F  c #FAB449",
"G  c #F8B857",
"H  c #F6BE67",
"J  c #F2BF70",
"K  c #FBC26A",
"L  c #F7C579",
"P  c #878686",
"I  c #908F8F",
"U  c #9A999A",
"Y  c #A7A6A6",
"T  c #B0AEAE",
"R  c #B5B4B4",
"E  c #F5CA88",
"W  c #FBD08E",
"Q  c #EECC97",
"!  c #F1CD97",
"~  c #FBD59A",
"^  c #EED3A9",
"/  c #FAD9A6",
"(  c #ECD9BD",
")  c #FBDEB3",
"_  c #FCE1B7",
"`  c #CBCBCB",
"'  c #D0CFCE",
"]  c #D0CFD0",
"[  c #D7D7D7",
"{  c #ECDDC6",
"}  c #ECE0CE",
"|  c #FDE8C8",
" . c #EBE3D6",
".. c #FDEDD4",
"X. c #FEF1DC",
"o. c #D5DBE4",
"O. c #E9E9E9",
"+. c #FDF5E9",
"@. c #E9EEF6",
"#. c #EBF3FB",
"$. c #FEFEFE",
"%. c #F1A32C",
"&. c #F3A52C",
"*. c #F8A82C",
"=. c #F9A82C",
"-. c #F6A62C",
";. c #F9A82C",
":. c #F9A82C",
">. c #F8A72C",
",. c #F9A82C",
"<. c #F8A72C",
"1. c #F8A72C",
"2. c #F9A82C",
"3. c #F7A72C",
"4. c #F6A62C",
"5. c #F9A82C",
"6. c #F9A82C",
"7. c #F4A52C",
"8. c None",
/* pixels */
"8.8.8.8.8.8.8.8.8.8.8.8.8.8.8.8.8.8.8.8.8.8.8.8.8.8.8.8.8.8.8.8.8.8.8.8.8.8.8.8.8.8.8.8.8.8.8.8.8.8.8.8.8.8.8.8.8.8.8.8.8.8.8.8.8.8.8.8.8.8.8.8.8.8.8.8.8.8.8.8.",
"8.8.8.8.8.8.8.8.8.8.8.8.8.8.8.8.8.8.8.8.8.8.8.8.8.8.8.8.8.8.8.8.8.8.8.8.8.8.8.8.8.8.8.8.8.8.8.8.8.8.8.8.8.8.8.8.8.8.8.8.8.8.8.8.8.8.8.8.8.8.8.8.8.8.8.8.8.8.8.8.",
"8.8.8.8.8.8.8.8.8.8.8.8.8.8.8.8.8.8.8.8.8.8.8.8.8.8.8.8.8.8.8.8.8.8.8.8.8.8.8.8.8.8.8.8.8.8.8.8.8.8.8.8.8.8.8.8.8.8.8.8.8.8.8.8.8.8.8.8.8.8.8.8.8.8.8.8.8.8.8.8.",
"8.8.8.8.8.8.8.8.8.8.8.8.8.8.8.8.8.8.8.8.8.8.8.8.8.8.8.8.8.8.8.8.8.8.8.8.8.8.8.8.8.8.8.8.8.8.8.8.8.8.8.8.8.8.8.8.8.8.8.8.8.8.8.8.8.8.8.8.8.8.8.8.8.8.8.8.8.8.8.8.",
"8.8.8.8.8.8.8.8.8.8.8.8.8.8.8.8.8.8.8.8.8.8.8.8.8.8.8.8.8.8.8.8.8.8.8.8.8.8.8.8.8.8.8.8.8.8.8.8.8.8.8.8.8.8.8.8.8.8.8.8.8.8.8.8.8.8.8.8.8.8.8.8.8.8.8.8.8.8.8.8.",
"8.8.8.8.8.8.8.8.8.8.8.8.8.8.8.8.8.8.8.8.8.8.8.8.8.8.8.8.8.8.8.8.8.8.8.8.8.8.8.8.8.8.8.8.8.8.8.8.8.8.8.8.8.8.8.8.8.8.8.8.8.8.8.8.8.8.8.8.8.8.8.8.8.8.8.8.8.8.8.8.",
"8.8.8.8.8.8.8.8.8.8.8.8.8.8.8.8.8.8.8.8.8.8.8.8.8.8.8.8.8.8.8.8.8.8.8.8.8.8.8.8.8.8.8.8.8.8.8.8.8.8.8.8.8.8.8.8.8.8.8.8.8.8.8.8.8.8.8.8.8.8.8.8.8.8.8.8.8.8.8.8.",
"8.8.8.8.8.8.8.8.8.8.8.8.8.8.8.8.8.8.8.8.8.8.8.8.8.8.8.8.8.8.8.8.8.8.8.8.8.8.8.8.8.8.8.8.8.8.8.8.8.8.8.8.8.8.8.8.8.8.8.8.8.8.8.8.8.8.8.8.8.8.8.8.8.8.8.8.8.8.8.8.",
"8.8.8.8.8.8.8.8.8.8.8.8.8.8.8.8.8.8.8.8.8.8.8.8.8.8.8.8.8.8.8.8.8.8.8.8.8.8.8.8.8.8.8.8.8.8.8.8.8.8.8.8.8.8.8.8.8.8.8.8.8.8.8.8.8.8.8.8.8.8.8.8.8.8.8.8.8.8.8.8.",
"8.8.8.8.8.8.8.8.8.8.8.8.8.8.8.8.8.8.8.8.8.8.8.8.8.8.8.8.8.8.8.8.8.8.8.8.8.8.8.8.8.8.8.8.8.8.8.8.8.8.8.8.8.8.8.8.8.8.8.8.8.8.8.8.8.8.8.8.8.8.8.8.8.8.8.8.8.8.8.8.",
"8.8.8.8.8.8.8.8.8.8.8.8.8.8.8.8.8.8.8.8.8.8.8.8.8.8.8.8.8.8.8.8.8.8.8.8.8.8.8.8.8.8.8.8.8.8.8.8.8.8.8.8.8.8.8.8.8.8.8.8.8.8.8.8.8.8.8.8.8.8.8.8.8.8.8.8.8.8.8.8.",
"8.8.8.8.8.8.8.8.8.8.8.8.8.8.8.8.8.8.8.8.8.8.8.8.8.8.8.8.8.8.8.8.8.8.8.8.8.8.8.8.8.8.8.8.8.8.8.8.8.8.8.8.8.8.8.8.8.8.8.8.8.8.8.8.8.8.8.8.8.8.8.8.8.8.8.8.8.8.8.8.",
"8.8.8.8.8.8.8.8.8.8.8.8.8.8.8.8.8.8.8.8.8.8.8.8.8.8.8.8.8.8.8.8.8.8.8.8.8.8.8.8.8.8.8.8.8.8.8.8.8.8.8.8.8.8.8.8.8.8.8.8.8.8.8.8.8.8.8.8.8.8.8.8.8.8.8.8.8.8.8.8.",
"8.8.8.8.8.8.8.8.8.8.8.8.8.8.8.8.8.8.8.8.8.8.8.8.8.8.8.8.8.8.8.8.8.8.8.8.8.8.8.8.8.8.8.8.8.8.8.8.8.8.8.8.8.8.8.8.8.8.8.8.8.8.8.8.8.8.8.8.8.8.8.8.8.8.8.8.8.8.8.8.",
"8.8.8.8.8.8.8.8.8.8.8.8.8.8.8.8.8.8.8.8.8.8.8.8.8.8.8.8.8.8.8.8.8.8.8.8.8.8.8.8.8.8.8.8.8.8.8.8.8.8.8.8.8.8.8.8.8.8.8.8.8.8.8.8.8.8.8.8.8.8.8.8.8.8.8.8.8.8.8.8.",
"8.8.8.8.8.8.8.8.8.8.8.8.8.8.8.8.8.8.8.8.8.8.8.8.8.8.8.8.8.8.8.8.8.8.8.8.8.8.8.8.8.8.8.8.8.8.8.8.8.8.8.8.8.8.8.8.8.8.8.8.8.8.8.8.8.8.8.8.8.8.8.8.8.8.8.8.8.8.8.8.",
"8.8.8.8.8.8.8.8.8.8.8.8.8.8.8.8.8.8.8.8.8.8.8.8.8.8.8.8.8.8.8.8.8.8.8.8.8.8.8.8.8.8.8.8.8.8.8.8.8.8.8.8.8.8.8.8.8.8.8.8.8.8.8.8.8.8.8.8.8.8.8.8.8.8.8.8.8.8.8.8.",
"8.8.8.8.8.8.8.8.8.8.8.8.8.8.8.8.8.8.8.8.8.8.8.8.8.8.8.8.8.8.8.8.8.8.8.8.8.8.8.8.8.8.8.8.8.8.8.8.8.8.8.8.8.8.8.8.8.8.8.8.8.8.8.8.8.8.8.8.8.8.8.8.8.8.8.8.8.8.8.8.",
"8.8.8.8.8.8.8.8.8.8.8.8.8.8.8.8.8.8.8.8.8.8.8.8.8.8.8.8.8.8.8.8.8.8.8.8.8.8.8.8.8.8.8.8.8.8.8.8.8.8.8.8.8.8.8.8.8.8.8.8.8.8.8.8.8.8.8.8.8.8.8.8.8.8.8.8.8.8.8.8.",
"8.8.8.8.8.8.8.8.8.8.8.8.8.8.8.8.8.8.8.8.8.8.8.8.8.8.8.8.8.8.8.8.8.8.8.8.8.8.8.8.8.8.8.8.8.8.8.8.8.8.8.8.8.8.8.8.8.8.8.8.8.8.8.8.8.8.8.8.8.8.8.8.8.8.8.8.8.8.8.8.",
"8.8.8.8.8.8.8.8.8.8.8.8.8.3.4.-.3.:.a a y y S S S b b x V n V m m m m m m V m V b b S l S S i y s a 1.1.-.-.3.8.8.8.8.8.8.8.8.8.8.8.8.8.8.8.8.8.8.8.8.8.8.8.8.8.",
"8.8.8.8.8.8.8.8.8.8.a S b V m m B N m m m N M m m m m m m m m m m m m m m m m m M M m m m m n N m m m m m m n b S s 3.8.8.8.8.8.8.8.8.8.8.8.8.8.8.8.8.8.8.8.8.8.",
"8.8.8.8.8.8.8.8.:.n m m m M m m M m k k k j k k k k k k m m m m m m m m m m m k V k m k k k j m m k V m m m m m M N m y 8.8.8.8.8.8.8.8.8.8.8.8.8.8.8.8.8.8.8.8.",
"8.8.8.8.8.8.8.y m m n m m m m m F F H K L E ! / ) ) _ | | | ........X.X.....| | | | _ / / ~ E L K H F F N m k m m m M M c 4.8.8.8.8.8.4.8.8.8.8.8.8.8.8.8.8.8.8.",
"8.8.8.8.8.8.i m n m N m k G _ +.$.$.$.$.$.$.$.$.$.$.$.$.$.$.$.$.$.$.$.$.$.$.$.$.$.$.$.$.$.$.$.$.$.$.$.$.+.| K m k m m n m b 3.8.8.8.-.M y 3.8.8.8.8.8.8.8.8.8.8.",
"8.8.8.8.8.s m m m M m N _ $.$.$.$.$.$.$.$.$.$.$.$.$.$.$.$.$.$.$.$.$.O.$.$.$.$.$.$.$.$.$.$.$.$.$.$.$.$.$.$.$.$...F m m m n m S 8.8.8.S N n M s 3.8.8.8.8.8.8.8.8.",
"8.8.8.8.5.B m m m m N ..$.$.$.$.$.$.$.$.$.$.$.$.$.$.$.$.$.$.$.$.$.#.O.$.#.$.$.$.$.$.$.$.$.$.$.$.$.$.$.$.$.$.$.$.$.G m N m m m -.8.1.m 6 % g M s 8.8.8.8.8.8.8.8.",
"8.8.8.8.y m n m m m ..$.$.$.$.$.$.$.$.$.$.$.$.$.$.$.$.$.$.$.$.$.O.O.O.O.O.$.$.$.$.$.$.$.$.$.$.$.$.$.$.$.$.$.$.$.$.+.N m m M B m 8.S x % $ g M 4.8.8.8.8.8.8.8.8.",
"8.8.8.8.b M m m j W $.$.$.$.$.$.$.$.$.$.$.$.$.$.$.$.$.$.$.$.$.$.$.$.O.$.$.$.$.$.$.$.$.$.$.$.$.$.$.$.$.$.$.$.$.$.$.$._ k N m m n i m : $ & 9 M b 5 8.8.8.8.8.8.8.",
"8.8.8.4.m m m m N +.$.$.$.$.$.$.$.$.$.$.$.$.$.$.$.$.$.$.$.$.$.$.$.$.O.$.$.$.$.$.$.$.$.$.$.$.$.$.$.$.$.$.$.$.$.$.$.$.$.G m m m m M l $ % % @ * l M V 1.8.8.8.8.8.",
"8.8.8.-.m m m k H $.$.$.$.$.$.$.$.$.$.$.$.$.$.$.$.$.$.$.$.$.$.$.$.$.O.$.$.$.$.$.$.$.$.$.$.$.$.$.$.$.$.$.$.$.$.$.$.$.$.W m m m m m ; $ $ @ : : @ ; z M S 1.8.8.8.",
"8.8.8.1.m m N m E $.$.$.$.$.$.$.$.$.$.$.$.$.$.$.$.$.$.$.$.$.$.$.$.O.O.O.$.$.$.$.$.$.$.$.$.$.$.$.$.$.$.$.$.$.$.$.$.$.$.) j m m M g $ % 7 : b l % % $ 6 N S 8.8.8.",
"8.8.8.a M n M k ~ $.$.$.$.$.$.$.$.$.$.$.$.$.$.$.$.$.$.$.$.$.$.$.$.O.O.O.$.$.$.$.$.$.$.$.$.$.$.$.$.$.$.$.$.$.$.$.$.$.$.| m m m m = % % g m M : @ % $ 8 m -.8.8.8.",
"8.8.8.i m m m k _ $.$.$.$.$.$.$.$.$.$.$.$.$.$.$.$.$.$.$.$.$.$.$.#.O.O.O.+.$.$.$.$.$.$.$.$.$.$.$.$.$.$.$.$.$.$.$.$.$.$.+.m m M 0 @ & % % V V N f * * M s 8.8.8.8.",
"8.8.8.S m m m m ..$.$.$.$.$.$.$.$.$.$.$.$.$.$.$.$.$.$.$.$.$.O.O.O.O.O.O.O.O.@.$.$.$.$.$.$.$.$.$.$.$.$.$.$.$.$.$.$.$.$.+.N m n & % % @ 7 M * - x n v V 8.8.8.8.8.",
"8.8.8.S N m m m X.$.$.$.$.$.$.$.$.+.X.+.+.$.$.$.$.$.$.$.#.O.O.O.O.O.O.O.O.O.O.O.#.$.$.$.$.$.$.$.$.$.$.$.$.$.$.$.$.$.$.$.D M 7 @ * l : & * % $ @ 7 M s 8.8.8.8.8.",
"8.8.8.b m m m N +.$.$.$.$.$.$.$.$.G m m W $.$.$.$.$.$.@.O.O.O.O.O.O.O.O.O.@.O.O.O.+.$.$.$.$.$.$.$.$.$.$.$.$.$.$.$.$.$.$.F b % $ 0 M M z - $ $ % l V 8.8.8.8.8.8.",
"8.8.8.v m m m N +.$.$.$.$.$.$.$.$.F m k L $.$.$.$.$.@.O.O.O.O.O.O.O.O.$.[ [ +.O.O.O.O.$.$.$.$.$.$.$.$.$.$.$.$.$.$.$.$._ k 7 @ = M y -.V m l = : M 1.8.8.8.8.8.8.",
"8.8.8.m m m m D $.$.$.$.$.$.$.$.$.F m k E $.$.$.$.+.O.O.O.O.O.O.O.O.` P % P @.O.O.O.O.+.$.$.$.$.$.$.$.$.$.$.$.$.$.$.$.F z % @ g B -.8.8.:.V m n S 8.8.8.8.8.8.8.",
"8.8.8.m m m m N $.$.$.$.$.$.$.$.$.F m k L $.$.$.$.O.@.O.O.O.O.O.O.@.< O O P $.O.O.#.#.@.$.$.$.$.$.$.$.$.$.$.$.$.$.$./ k : @ - m B 3.8.8.8.8.a M -.8.8.8.8.8.8.8.",
"8.8.8.m m N m F $.$.$.$.$.$.$.$.$.F m k L $.$.+.^ ^ ^ O.O.O.O.O. .Y , % % 2 T [ [ Y Y T O.$.$.O.R R [ $.$.$.$.$.$.+.B l $ $ l m m -.8.8.8.8.8.3.8.8.8.8.8.8.8.8.",
"8.8.8.M m m m D $.$.$.$.$.$.$.$.$.G m k L $.+.N k j H O.O.O.O.@.R . % % % %   Y R X # o Y $.$.4 X X P $.$.$.$.$.$.W k ; @ : M n N -.8.8.8.8.8.8.8.8.8.8.8.8.8.8.",
"8.8.8.m m m m N $.$.$.$.$.$.$.$.$.G m k L $.K m m G @.+.@.@.+.#.[ I , % % 1 I `  ., % # 4 +.#.1 % % ' $.$.$.$.$.+.M g $ % x M n m -.8.8.8.8.8.8.8.8.8.8.8.8.8.8.",
"8.8.8.b m m m N +.$.$.$.$.$.$.$.$.F m k W ~ k m D O.O.R R R R ] +.@.< % + P $.O.@.4 + % , O.' % + 1 $.$.$.$.$.$.L k = @ 6 M m m m -.8.8.8.8.8.8.8.8.8.8.8.8.8.8.",
"8.8.8.b m N m N +.$.$.$.$.$.$.$.$.F m m F N m N  .#.` + + # o P #. .< % O P +.o.#.T + & # ] U + O I $.$.+.~ K G M 0 $ & b M m m m 4.8.8.8.8.8.8.8.8.8.8.8.8.8.8.",
"8.8.8.b m m m m X.$.$.$.$.$.$.$.$.F k m m m m N } @.' & % > % I $.o., % O P @.O.O. .* % + U 4 O % ' $.~ M k A Z x * @ 7 N n m m m 4.8.8.8.8.8.8.8.8.8.8.8.8.8.8.",
"8.8.8.S m m m m | $.$.$.$.$.$.$.$.F m m H D m m G O.O.[ [ [ ] O.O.O., % O P @.O.O.#.4 + # 2 < O 1 $./ k f < $ @ $ % & n m m m m V 8.8.8.8.8.8.8.8.8.8.8.8.8.8.8.",
"8.8.8.a m m m j ~ @.O.#.$.$.$.$.$.G m k W / j M m E @.O.@.O.O.O.O.O., % O P +.O.O.@.R + % , > O U +.m l $ $ = 6 ; $ % 0 M N m m b 8.8.8.8.8.8.8.8.8.8.8.8.8.8.8.",
"8.8.8.s m m N j E @.O.O.O.+.@.+.$.G m k L $.D m m m { @.O.O.O.O.O.O.1 % + 3 #.O.O.O.o., % & & # o.~ k = @ 7 m M k l % $ l M m m S 8.8.8.8.8.8.8.8.8.8.8.8.8.8.8.",
"8.8.8.1.m m m m J @.O.@.O.O.O.O.O.D k j L #.( m m j N O.O.O.O.O.O.+.P o # % & U #. .$.4 o # o < #.K c % * m H { E M 0 @ : M n m i 8.8.8.8.8.8.8.8.8.8.8.8.8.8.8.",
"8.8.8.-.m m m m G O.O.O.@.O.O.O.O.! J H ^ O.@.! J L J  .O.O.O.O.O.O.O.I 1 1 2 ` @.O.+.` 4 4 4 T #.K c % = k Q #.#.K c % * m m m s 8.8.8.8.8.8.8.8.8.8.8.8.8.8.8.",
"8.8.8.4.n m m m m { O.O.O.O.O.O.O.@.@.@.@.O.O.@.@.@.@.O.O.O.O.O.O.O.O.#.O.O.+.O.O.O.O.@.+.#.#.O.@.E m = $ l M ! ^ F z $ = m m N 1.8.8.8.8.8.8.8.8.8.8.8.8.8.8.8.",
"8.8.8.8.b M N m m H @.O.O.O.O.O.O.O.O.O.O.O.O.O.O.O. .O.O.O.O.O.O.O.O.O.O.O.O.O.O.O.O.O.O.O.O.O.@.} M 9 @ * z m M v - @ 6 M n m -.8.8.8.8.8.8.8.8.8.8.8.8.8.8.8.",
"8.8.8.8.s N n M m m ! #.O.O.@.O.O.O.+.O.O.O.O.O.O.O.O.O.O.O.O.O.O.O.O.O.O.O.O.O.O.O.O.O.O.O.O.O.O.@.E k 7 @ $ = ; % @ * V m n l 8.8.8.8.8.8.8.8.8.8.8.8.8.8.8.8.",
"8.8.8.8.5.M m m m m m ! #.O.O.O.O.O.O.O.O.O.O.O.O.O.O.O.O.O.O.O.O.O.O.O.O.O.O.O.O.O.O.O.O.O.O.O.O.O.O.H k f ; % $ & : n M m m :.8.8.8.8.8.8.8.8.8.8.8.8.8.8.8.8.",
"8.8.8.8.8.s m n m m m m L  .@.@.@.O.@.O.@.O.O.O.O.O.O.O.O.O.O.O.O.O.O.O.O. .O.O.O.O.O.O.O.O.O.O.O.O.@.#.Q B M v c v M M n M S 8.8.8.8.8.8.8.8.8.8.8.8.8.8.8.8.8.",
"8.8.8.8.8.8.y N n m M N j N J ^ { }  .O.O.O.O.@.@.@.@.@.@.#.@.@.@.@.#.@.@.#.@.@.@.@.@.@.@.@.@.O.O. .{ { ( J m M M m m n N b 3.8.8.8.8.8.8.8.8.8.8.8.8.8.8.8.8.8.",
"8.8.8.8.8.8.8.i m m n m N m j m m m N B F G G H J J E E E E ! ! Q Q ! ! Q ! ! Q E E J J H H G F D N N m m m m m m n M m S 3.8.8.8.8.8.8.8.8.8.8.8.8.8.8.8.8.8.8.",
"8.8.8.8.8.8.8.8.1.b M m M m N m m m m m m n k m n k m j m j k k k k k k k k j k k k k k k m k k n m m m m m m m m m m s 8.8.8.8.8.8.8.8.8.8.8.8.8.8.8.8.8.8.8.8.",
"8.8.8.8.8.8.8.8.8.8.1.i S b n m m m m N m m m m M m m m N m M N N m N m N m m N m M M N n m m N m m m m m m m b S a 3.8.8.8.8.8.8.8.8.8.8.8.8.8.8.8.8.8.8.8.8.8.",
"8.8.8.8.8.8.8.8.8.8.8.8.8.3.5.-.1.1.1.s a a i h S S b b c n n n n n n m v v b b b b S S b d y y a a 1.-.-.4.3.8.8.8.8.8.8.8.8.8.8.8.8.8.8.8.8.8.8.8.8.8.8.8.8.8.",
"8.8.8.8.8.8.8.8.8.8.8.8.8.8.8.8.8.8.8.8.8.8.8.8.8.8.8.8.8.8.8.8.8.8.8.8.8.8.8.8.8.8.8.8.8.8.8.8.8.8.8.8.8.8.8.8.8.8.8.8.8.8.8.8.8.8.8.8.8.8.8.8.8.8.8.8.8.8.8.8.",
"8.8.8.8.8.8.8.8.8.8.8.8.8.8.8.8.8.8.8.8.8.8.8.8.8.8.8.8.8.8.8.8.8.8.8.8.8.8.8.8.8.8.8.8.8.8.8.8.8.8.8.8.8.8.8.8.8.8.8.8.8.8.8.8.8.8.8.8.8.8.8.8.8.8.8.8.8.8.8.8.",
"8.8.8.8.8.8.8.8.8.8.8.8.8.8.8.8.8.8.8.8.8.8.8.8.8.8.8.8.8.8.8.8.8.8.8.8.8.8.8.8.8.8.8.8.8.8.8.8.8.8.8.8.8.8.8.8.8.8.8.8.8.8.8.8.8.8.8.8.8.8.8.8.8.8.8.8.8.8.8.8.",
"8.8.8.8.8.8.8.8.8.8.8.8.8.8.8.8.8.8.8.8.8.8.8.8.8.8.8.8.8.8.8.8.8.8.8.8.8.8.8.8.8.8.8.8.8.8.8.8.8.8.8.8.8.8.8.8.8.8.8.8.8.8.8.8.8.8.8.8.8.8.8.8.8.8.8.8.8.8.8.8.",
"8.8.8.8.8.8.8.8.8.8.8.8.8.8.8.8.8.8.8.8.8.8.8.8.8.8.8.8.8.8.8.8.8.8.8.8.8.8.8.8.8.8.8.8.8.8.8.8.8.8.8.8.8.8.8.8.8.8.8.8.8.8.8.8.8.8.8.8.8.8.8.8.8.8.8.8.8.8.8.8.",
"8.8.8.8.8.8.8.8.8.8.8.8.8.8.8.8.8.8.8.8.8.8.8.8.8.8.8.8.8.8.8.8.8.8.8.8.8.8.8.8.8.8.8.8.8.8.8.8.8.8.8.8.8.8.8.8.8.8.8.8.8.8.8.8.8.8.8.8.8.8.8.8.8.8.8.8.8.8.8.8.",
"8.8.8.8.8.8.8.8.8.8.8.8.8.8.8.8.8.8.8.8.8.8.8.8.8.8.8.8.8.8.8.8.8.8.8.8.8.8.8.8.8.8.8.8.8.8.8.8.8.8.8.8.8.8.8.8.8.8.8.8.8.8.8.8.8.8.8.8.8.8.8.8.8.8.8.8.8.8.8.8.",
"8.8.8.8.8.8.8.8.8.8.8.8.8.8.8.8.8.8.8.8.8.8.8.8.8.8.8.8.8.8.8.8.8.8.8.8.8.8.8.8.8.8.8.8.8.8.8.8.8.8.8.8.8.8.8.8.8.8.8.8.8.8.8.8.8.8.8.8.8.8.8.8.8.8.8.8.8.8.8.8.",
"8.8.8.8.8.8.8.8.8.8.8.8.8.8.8.8.8.8.8.8.8.8.8.8.8.8.8.8.8.8.8.8.8.8.8.8.8.8.8.8.8.8.8.8.8.8.8.8.8.8.8.8.8.8.8.8.8.8.8.8.8.8.8.8.8.8.8.8.8.8.8.8.8.8.8.8.8.8.8.8.",
"8.8.8.8.8.8.8.8.8.8.8.8.8.8.8.8.8.8.8.8.8.8.8.8.8.8.8.8.8.8.8.8.8.8.8.8.8.8.8.8.8.8.8.8.8.8.8.8.8.8.8.8.8.8.8.8.8.8.8.8.8.8.8.8.8.8.8.8.8.8.8.8.8.8.8.8.8.8.8.8.",
"8.8.8.8.8.8.8.8.8.8.8.8.8.8.8.8.8.8.8.8.8.8.8.8.8.8.8.8.8.8.8.8.8.8.8.8.8.8.8.8.8.8.8.8.8.8.8.8.8.8.8.8.8.8.8.8.8.8.8.8.8.8.8.8.8.8.8.8.8.8.8.8.8.8.8.8.8.8.8.8.",
"8.8.8.8.8.8.8.8.8.8.8.8.8.8.8.8.8.8.8.8.8.8.8.8.8.8.8.8.8.8.8.8.8.8.8.8.8.8.8.8.8.8.8.8.8.8.8.8.8.8.8.8.8.8.8.8.8.8.8.8.8.8.8.8.8.8.8.8.8.8.8.8.8.8.8.8.8.8.8.8.",
"8.8.8.8.8.8.8.8.8.8.8.8.8.8.8.8.8.8.8.8.8.8.8.8.8.8.8.8.8.8.8.8.8.8.8.8.8.8.8.8.8.8.8.8.8.8.8.8.8.8.8.8.8.8.8.8.8.8.8.8.8.8.8.8.8.8.8.8.8.8.8.8.8.8.8.8.8.8.8.8.",
"8.8.8.8.8.8.8.8.8.8.8.8.8.8.8.8.8.8.8.8.8.8.8.8.8.8.8.8.8.8.8.8.8.8.8.8.8.8.8.8.8.8.8.8.8.8.8.8.8.8.8.8.8.8.8.8.8.8.8.8.8.8.8.8.8.8.8.8.8.8.8.8.8.8.8.8.8.8.8.8.",
"8.8.8.8.8.8.8.8.8.8.8.8.8.8.8.8.8.8.8.8.8.8.8.8.8.8.8.8.8.8.8.8.8.8.8.8.8.8.8.8.8.8.8.8.8.8.8.8.8.8.8.8.8.8.8.8.8.8.8.8.8.8.8.8.8.8.8.8.8.8.8.8.8.8.8.8.8.8.8.8.",
"8.8.8.8.8.8.8.8.8.8.8.8.8.8.8.8.8.8.8.8.8.8.8.8.8.8.8.8.8.8.8.8.8.8.8.8.8.8.8.8.8.8.8.8.8.8.8.8.8.8.8.8.8.8.8.8.8.8.8.8.8.8.8.8.8.8.8.8.8.8.8.8.8.8.8.8.8.8.8.8.",
"8.8.8.8.8.8.8.8.8.8.8.8.8.8.8.8.8.8.8.8.8.8.8.8.8.8.8.8.8.8.8.8.8.8.8.8.8.8.8.8.8.8.8.8.8.8.8.8.8.8.8.8.8.8.8.8.8.8.8.8.8.8.8.8.8.8.8.8.8.8.8.8.8.8.8.8.8.8.8.8.",
"8.8.8.8.8.8.8.8.8.8.8.8.8.8.8.8.8.8.8.8.8.8.8.8.8.8.8.8.8.8.8.8.8.8.8.8.8.8.8.8.8.8.8.8.8.8.8.8.8.8.8.8.8.8.8.8.8.8.8.8.8.8.8.8.8.8.8.8.8.8.8.8.8.8.8.8.8.8.8.8.",
"8.8.8.8.8.8.8.8.8.8.8.8.8.8.8.8.8.8.8.8.8.8.8.8.8.8.8.8.8.8.8.8.8.8.8.8.8.8.8.8.8.8.8.8.8.8.8.8.8.8.8.8.8.8.8.8.8.8.8.8.8.8.8.8.8.8.8.8.8.8.8.8.8.8.8.8.8.8.8.8."
};
