/* XPM */
static char *xpm_[] = {
/* columns rows colors chars-per-pixel */
"80 80 128 2 ",
"   c #06463D",
".  c #044B43",
"X  c #03564A",
"o  c #045C54",
"O  c #1A5C55",
"+  c #27594D",
"@  c #275D56",
"#  c #315D55",
"$  c #02645B",
"%  c #1A655D",
"&  c #25635E",
"*  c #036C65",
"=  c #1C6C65",
"-  c #047368",
";  c #16746D",
":  c #037C73",
">  c #147A76",
",  c #286B64",
"<  c #386B68",
"1  c #36726D",
"2  c #237B72",
"3  c #3B7A73",
"4  c #476C69",
"5  c #506B69",
"6  c #597368",
"7  c #457B75",
"8  c #527A77",
"9  c #63776C",
"0  c #607E7C",
"q  c #05877B",
"w  c #19847B",
"e  c #00907E",
"r  c #26857E",
"t  c #3A8279",
"y  c #47837C",
"u  c #59837C",
"i  c #6A897F",
"p  c #078D83",
"a  c #118E86",
"s  c #08958B",
"d  c #13928B",
"f  c #0A9C92",
"g  c #129C92",
"h  c #298B82",
"j  c #378A83",
"k  c #279B8E",
"l  c #38948C",
"z  c #279D97",
"x  c #3E9D95",
"c  c #05A48F",
"v  c #0BA194",
"b  c #14A297",
"n  c #2AA599",
"m  c #35A59B",
"M  c #29A9A3",
"N  c #3AABA3",
"B  c #498782",
"V  c #5C8B84",
"C  c #46968F",
"Z  c #59948C",
"A  c #459A93",
"S  c #5A9A93",
"D  c #648D88",
"F  c #778D86",
"G  c #649488",
"H  c #74918A",
"J  c #689993",
"K  c #749A96",
"L  c #43A79C",
"P  c #59A69F",
"I  c #6DA39A",
"U  c #72A69E",
"Y  c #49ACA4",
"T  c #53AFA6",
"R  c #4BB2A9",
"E  c #59B6AD",
"W  c #5CBBB3",
"Q  c #67AAA2",
"!  c #7AADA8",
"~  c #64B7AE",
"^  c #76BBAF",
"/  c #69BBB4",
"(  c #76BCB8",
")  c #6BC2BB",
"_  c #77C2BB",
"`  c #7CC5C0",
"'  c #809C97",
"]  c #89A39C",
"[  c #92A49D",
"{  c #87A9A6",
"}  c #97ADA5",
"|  c #98B3AC",
" . c #8BBAB1",
".. c #98B9B5",
"X. c #ABADA6",
"o. c #ABB8AF",
"O. c #B6BBAF",
"+. c #A6BAB2",
"@. c #B0B6B2",
"#. c #83C4BD",
"$. c #A9C3BE",
"%. c #B6C4BD",
"&. c #C0C6BF",
"*. c #88C8C3",
"=. c #93CDC8",
"-. c #88D1C8",
";. c #99D1CE",
":. c #A5C7C5",
">. c #B9CBC4",
",. c #BED0C9",
"<. c #A8D6D4",
"1. c #B4D3D1",
"2. c #C7CDC7",
"3. c #CAD3CC",
"4. c #D5D5CD",
"5. c #CBD8D4",
"6. c #D6DBD5",
"7. c #E5D8CF",
"8. c #E1DFD7",
"9. c #DBE2DA",
"0. c #E6E5DC",
"q. c #DDE6E4",
"w. c #EAEAE4",
"e. c #F3ECE7",
"r. c #EEF2E7",
"t. c #F6F4EC",
"y. c #FDFCF6",
"u. c None",
/* pixels */
"u.u.u.u.u.u.u.u.u.u.u.u.u.u.u.u.u.u.u.u.u.u.u.u.u.u.u.u.u.u.u.u.u.u.u.u.u.u.u.u.u.u.u.u.u.u.u.u.u.u.u.u.u.u.u.u.u.u.u.u.u.u.u.u.u.u.u.u.u.u.u.u.u.u.u.u.u.u.u.u.",
"u.u.u.u.u.u.u.u.u.u.u.u.u.u.u.u.u.u.u.u.u.u.u.u.u.u.u.u.u.u.u.u.u.u.u.u.u.u.u.u.u.u.u.u.u.u.u.u.u.u.u.u.u.u.u.u.u.u.u.u.u.u.u.u.u.u.u.u.u.u.u.u.u.u.u.u.u.u.u.u.",
"u.u.u.u.u.u.u.u.u.u.u.u.u.u.u.u.u.u.u.u.u.u.u.u.u.u.u.u.u.u.u.u.u.u.u.u.u.u.u.u.u.u.u.u.u.u.u.u.u.u.u.u.u.u.u.u.u.u.u.u.u.u.u.u.u.u.u.u.u.u.u.u.u.u.u.u.u.u.u.u.",
"u.u.u.u.u.u.u.u.u.u.u.u.u.u.u.u.u.u.u.u.u.u.u.u.u.u.u.u.u.u.u.u.u.u.u.u.u.u.u.u.u.u.u.u.u.u.u.u.u.u.u.u.u.u.u.u.u.u.u.u.u.u.u.u.u.u.u.u.u.u.u.u.u.u.u.u.u.u.u.u.",
"u.u.u.u.u.u.u.u.u.u.u.u.u.u.u.u.u.u.u.u.u.u.u.u.u.u.u.u.u.u.u.u.u.u.u.u.u.u.u.u.u.u.u.u.u.u.u.u.u.u.u.u.u.u.u.u.u.u.u.u.u.u.u.u.u.u.u.u.u.u.u.u.u.u.u.u.u.u.u.u.",
"u.u.u.u.u.u.u.u.u.u.u.u.u.u.u.u.u.u.u.u.u.u.u.u.u.u.u.u.u.u.u.u.u.u.u.u.u.u.u.u.u.u.u.u.u.u.u.u.u.u.u.u.u.u.u.u.u.u.u.u.u.u.u.u.u.u.u.u.u.u.u.u.u.u.u.u.u.u.u.u.",
"u.u.u.u.u.u.u.u.u.u.u.u.u.u.u.u.u.u.u.u.u.u.u.u.u.u.u.u.u.u.u.u.u.u.u.u.u.u.u.u.u.u.u.u.u.u.u.u.u.u.u.u.u.u.u.u.u.u.u.u.u.u.u.u.u.u.u.u.u.u.u.u.u.u.u.u.u.u.u.u.",
"u.u.u.u.u.u.u.u.u.u.u.u.u.u.u.u.u.u.u.u.u.u.u.u.u.u.u.u.u.u.u.u.u.u.u.u.u.u.u.u.u.u.u.u.u.u.u.u.u.u.u.u.u.u.u.u.u.u.u.u.u.u.u.u.u.u.u.u.u.u.u.u.u.u.u.u.u.u.u.u.",
"u.u.u.u.u.u.u.u.u.u.u.u.u.u.u.u.u.u.u.u.u.u.u.u.u.u.u.u.u.u.u.u.u.u.u.u.u.u.u.u.u.u.u.u.u.u.u.u.u.u.u.u.u.u.u.u.u.u.u.u.u.u.u.u.u.u.u.u.u.u.u.u.u.u.u.u.u.u.u.u.",
"u.u.u.u.u.u.u.u.u.u.u.u.u.u.u.u.u.u.u.u.u.u.u.u.u.u.u.u.u.u.u.u.u.u.u.u.u.u.u.u.u.u.u.u.u.u.u.u.u.u.u.u.u.u.u.u.u.u.u.u.u.u.u.u.u.u.u.u.u.u.u.u.u.u.u.u.u.u.u.u.",
"u.u.u.u.u.u.u.u.u.u.u.u.u.u.u.u.u.u.u.u.u.u.u.u.u.u.u.u.u.u.u.u.u.u.u.u.u.u.u.u.u.u.u.u.u.u.u.u.u.u.u.u.u.u.u.u.u.u.u.u.u.u.u.u.u.u.u.u.u.u.u.u.u.u.u.u.u.u.u.u.",
"u.u.u.u.u.u.u.u.u.u.u.u.u.u.u.u.u.u.u.u.u.u.u.u.u.u.u.u.u.u.u.u.u.u.u.u.u.u.u.u.u.u.u.u.u.u.u.u.u.u.u.u.u.u.u.u.u.u.u.u.u.u.u.u.u.u.u.u.u.u.u.u.u.u.u.u.u.u.u.u.",
"u.u.u.u.u.u.u.u.u.u.u.u.u.u.u.u.u.u.u.u.u.u.u.u.u.u.u.u.u.u.u.u.u.u.u.u.u.u.u.u.u.u.u.u.u.u.u.u.u.u.u.u.u.u.u.u.u.u.u.u.u.u.u.u.u.u.u.u.u.u.u.u.u.u.u.u.u.u.u.u.",
"u.u.u.u.u.u.u.u.u.u.u.u.u.u.u.u.u.u.u.u.u.u.u.u.u.u.u.u.u.u.u.u.u.u.u.u.u.u.u.u.u.u.u.u.u.u.u.u.u.u.u.u.u.u.u.u.u.u.u.u.u.u.u.u.u.u.u.u.u.u.u.u.u.u.u.u.u.u.u.u.",
"u.u.u.u.u.u.u.u.u.u.u.u.u.u.u.u.u.u.u.u.u.u.u.u.u.u.u.u.u.u.u.u.u.u.u.u.u.u.u.u.u.u.u.u.u.u.u.u.u.u.u.u.u.u.u.u.u.u.u.u.u.u.u.u.u.u.u.u.u.u.u.u.u.u.u.u.u.u.u.u.",
"u.u.u.d d d d d d d d d d d d d d d d d d d d d d d d d d d d d d d d d d d d d d d d d d d d d d d d d d d d d d d d d d d d d d d d d d d d d d d d d d u.u.u.",
"u.u.u.d d d d d d d d d d d d d d d d d d d d d d d d d d d d d d d d d d d d d d d d d d d d d d d d d d d d d d d d d d d d d d d d d d d d d d d d d d u.u.u.",
"u.u.u.d d d d d d d d d d d d d d d d d d d d d d d d d d d d d d d d d d d d d d d d d d d d d d d d d d d d d d d d d d d d d d d d d d d d d d d d d d u.u.u.",
"u.u.u.d d d d d d d d d d d d d d d d d d d d d d d d d d d d d d d d d d d d d d d d d d d d d d d d d d d d d d d d d d d d d d d d d d d d d d d d d d u.u.u.",
"u.u.u.d d d d d d d d d d d d d d d d d d d d d d d d d d d d d d d d d d d d d d d d d d d d d d d d d d d d d d d d d d d d d d d d d d d d d d d d d d u.u.u.",
"u.u.u.d d d d d d d d d d d d d d d d d d d d d d d d d d d d d d d d d d d d d d d d d d d d d d d d d d d d d d d d d d d d d d d d d d d d d d d d d d u.u.u.",
"u.u.u.d d d d d d d d d d d d d d d d d d d d d d d d d d d d d d d d d d d d d d d d d d d d d d d d d d d d d d d d d d d d d d d d d d d d d d d d d d u.u.u.",
"u.u.u.d d d d d d d d d d d d d d d d d d d d d d d d d d d d d d d d d d d d d d d d d d d d d d d d d d d d d d d d d d d d d d d d d d d d d d d d d d u.u.u.",
"u.u.u.d d d d d d d d d d d d d d d d d d d d d d d d d d d d d d d d d d d d d d d d d d d d d d d d d d d d d d d d d d d d d d d d d d d d d d d d d d u.u.u.",
"u.u.u.d d d d d d d d d d d d d d d d d d d d d d d d d d d d d d d d d d d d d d d d d d d d d d d d d d d d d d d d d d d d d d d d d d d d d d d d d d u.u.u.",
"u.u.u.d d d d d d d d d d d d d d d d d d d d d d d d d d d d d d d d d d d d d d d d d d d d d d d d d d d d d d d d d d d d d d d d d d d d d d d d d d u.u.u.",
"u.u.u.d d d d d d d d d d d d d d d d d d d d d d d d d d d d d d d d d d d d d d d d d d d d d d d d d d d d d d d d d d d d d d d d d d d d d d d d d d u.u.u.",
"u.u.u.d p a a d d a d d d s a d d d d a d d s s d s d s d f d f d d d g d f d s g s s s d d f d d g d d g d s g d d g d s d s d d d s s d s d d s d d d d u.u.u.",
"u.u.u.a q q q q p p s p p s p s p s s f s s s f f f f f f f f f f f f f f f f f f f f f f f f f f f f f f f f f f f f s f f f s f f s f s s s s s s p p p u.u.u.",
"u.u.u.p q q p q p p p p p s s s s s f s s s f s f s s f f f f f f f f f f f f f f f f f f f f f f f f f f f f f f f f f f f f s s f s s s f s s s s p s d u.u.u.",
"u.u.u.a q q p p e p p p p a s s s s s s f f s f s s f f f f f f f f f f f f f f f f f f c f f v f f f f f f f f f f f f f f f s f s s s f f f s s s s s s u.u.u.",
"u.u.u.a q q q p p e e a s s s s s s s f s p p p s f f f s f f s f f f f f f f f f f f c f f f v f v f f f f f f f f f f f f f f s f f f s p p p p p s p d u.u.u.",
"u.u.u.a q q q q q q e s a s s s s s e q w h j j r > : q f f f p q > q s f f f f f f s q w w s f p : q f f f f f f f s : q s f f s p : : 2 h j j r a a p d u.u.u.",
"u.u.u.a q w %.5.6 - a p s s s d s q l ..5.q.w.w.w.5.:.S > f e Q r.q.:.; s f f f f s > 1.q.w.P : Z q.:.q f f f f f s = >.5.A s s - t { >.6.8.w.9.6.6. .p s u.u.u.",
"u.u.u.s q w 3.r.9 $ s p s s s s q I 0.t.t.w.0.9.w.t.r.t.3 p q U y.t.y.:.- f c f s - ,.y.y.y.J * G y.,.q f f f f v s = 4.e.A p * ] 6.w.w.8.4.3.4.4.e.{ e d u.u.u.",
"u.u.u.w e w 3.w.6 $ p s s p s e P 0.r.&.u < , , , D 9.q.1 p q I t.9.w.y.{ - v f - $.y.w.q.t.S - D t.%.q s q p q q : . 2.8.C o ' w.9.o.V 1 , , % , 1 h p d u.u.u.",
"u.u.u.d q w 2.w.6 * s p p s s q $.t.@.  * e p p q ; 9.e.1 p e I y.+.6 y.y.I : - { y.t.4 2.y.S * D y.%.% r I ! ......{ 4.w.j @ 6.0.' o $ * * * * $ = q s s u.u.u.",
"u.u.u.a e w 3.w.6 $ s p s s s h 9.r.4 - v f f f s h 9.r.1 p q I y.>.  I y.t.7 D y.y.Z   5.y.S - D t.6.3.r.y.y.y.y.y.y.8.w.1 5 w.6.5.6.5.3.,.2.3.5.6.A p g u.u.u.",
"u.u.u.d q w 3.r.6 $ s p s p e l 0.0.# q f s f f s r 0.w.1 p e U y.%.- - ! y.w.w.y.J * ; 3.y.S * Z t.0.t.9.&.+.] ' ' [ 6.w.3 8 e.6.8.0.0.0.0.0.0.0.0.A p d u.u.u.",
"u.u.u.p q w 3.w.6 $ s s e s s r 0.w.i X s s f f s h q.r.< : q K y.%.- f * ..y.y.] * f - 3.y.S * D t.4.y ; - $ - - - . 2.w.t # 0.6.F # 7 8 u u 8 7 t a p s u.u.u.",
"u.u.u.d q w 3.w.9 X ; * = ; ; $ $.t.9.H = - - - : * 5.t.+., $ K y.%.* f f * | { * f f - 3.y.S - D t.%.* s s c f f f % 2.e.C . X.t.2.G = $ $ $ $ o * q p d u.u.u.",
"u.u.u.a q w 3.9.3.>.2.>.>.%.6.i + q.t.t.9.%.$...>.4 u y.t.w.5.6.t.%.* f f s : : s f s ; 3.y.S * V y.>.q c f f f f f % 2.w.C : O O.0.e.9.%.+.} } } %.T p d u.u.u.",
"u.u.u.a q r 0.w.w.0.e.r.r.e.t.7.  2 ..9.t.t.t.y.y.%.. Z 2.0.t.r.y.>.* f f f v f f s f - 3.y.S - D y.,.: f f f f f s % 4.e.A p q o i O.4.0.w.e.e.w.e.$.q d u.u.u.",
"u.u.u.d q q B y 7 7 7 7 y y y u = e - 2 y G J J J u > q - 2 3 y B 3 p f f f f f f f f p t y r p 2 y j s f f f f f s - t B d s f a - $ , 7 u D D D D l p d u.u.u.",
"u.u.u.a q q - - : : : : : : q : e s s p q q : : : q s c s s p p p p f f f f f f s f f f p p s f s e p f f f f f c s s e p s c s s v f e q q : - : q q p a u.u.u.",
"u.u.u.a q q q e q s a s s s s d s s s s s s v s g c s s f s f f f f f f f f f f f g f f f f f f f v v s f f f f f f f f f s f s s c s s s s f s s d p s s u.u.u.",
"u.u.u.d q q q q q q e p p p e s d s p s s s s f s s s s s f s s f f f f f f f f f f f v f f c s f f f f f f c v f f s f f s f s s s s f s p s d s p p s p u.u.u.",
"u.u.u.a q q q q a q q p d Y n p e k n b s s s p s f g n g s s s s s s s s f s f s f M p f s s M g f s s s f s s s s s c p s s s g g e s s s s s s s p p d u.u.u.",
"u.u.u.a q q q q q e q q m 1.#.L / W E T Y x T ( n k -.~ ;.n ~ / s N ` _ N N / N _ T R E R Y E _ m f ) ` W m _ L ) _ ) k _ L ) Y ` R / n p s s p p p p s a u.u.u.",
"u.u.u.a : q > q q q q q m =.( =.:./ ^ ^ ( =._ <.m d *.~ ( *.<.` s ` _ _ ( ` <.*.#.#._ =.n *.;.*.M m *._ _ -.#.=._ _ _ =.<._ #.) *.Y *./ p s s s s p a p d u.u.u.",
"u.u.u.a q : : q q q q q k k l m Y d T z z N g E f p T N z M T N s n n M m R R z <.W b R R R R N n f N n n M W m n n n n R n n n m R T m p s s p p p p p p u.u.u.",
"u.u.u.a : > q q q q q a q e q p p p p p p p a p s s p s p s s s f s s s s s s s n f s s s s s s f s s s s s s s s s s s p s s e p p p p p p p p p p p p a u.u.u.",
"u.u.u.a : > : q q q q q p p p p p a p d s p d s s p d s s s s s s f s f s f f f s s f s s s f f f f f f d s g s s s s s s s s s p d s s a p p p p p q q a u.u.u.",
"u.u.u.p : : : q : q > q q q q p p p p p p s p p p s s s s f s f s s s s s s s s s f s f f f s s s s s s s s s s s s s s s s s a s p p p p a p a p q q q p u.u.u.",
"u.u.u.d d d a a a a a d a d d a d d d d d d d d d d d d d d d d d d d d d d d d d d d d d d d d d d s d d d d s d d d d d d d d d d d d d d d d d d a d d u.u.u.",
"u.u.u.d d d d d d d d d d d d d d d d d d d d d d d d d d d a d d d d d d d d d d d d d d d d d d d d d d d d d d d d d d d d d d d d d d d d d d d d d d u.u.u.",
"u.u.u.d d d d d d d d d d d d d d d d d d d d d d d d d d d d d d d d d d d d d d d d d d d d d d d d d d d d d d d d d d d d d d d d d d d d d d d d d d u.u.u.",
"u.u.u.d d d d d d d d d d d d d d d d d d d d d d d d d d d d d d d d d d d d d d d d d d d d d d d d d d d d d d d d d d d d d d d d d d d d d d d d d d u.u.u.",
"u.u.u.d d d d d d d d d d d d d d d d d d d d d d d d d d d d d d d d d d d d d d d d d d d d d d d d d d d d d d d d d d d d d d d d d d d d d d d d d d u.u.u.",
"u.u.u.d d d d d d d d d d d d d d d d d d d d d d d d d d d d d d d d d d d d d d d d d d d d d d d d d d d d d d d d d d d d d d d d d d d d d d d d d d u.u.u.",
"u.u.u.d d d d d d d d d d d d d d d d d d d d d d d d d d d d d d d d d d d d d d d d d d d d d d d d d d d d d d d d d d d d d d d d d d d d d d d d d d u.u.u.",
"u.u.u.d d d d d d d d d d d d d d d d d d d d d d d d d d d d d d d d d d d d d d d d d d d d d d d d d d d d d d d d d d d d d d d d d d d d d d d d d d u.u.u.",
"u.u.u.d d d d d d d d d d d d d d d d d d d d d d d d d d d d d d d d d d d d d d d d d d d d d d d d d d d d d d d d d d d d d d d d d d d d d d d d d d u.u.u.",
"u.u.u.d d d d d d d d d d d d d d d d d d d d d d d d d d d d d d d d d d d d d d d d d d d d d d d d d d d d d d d d d d d d d d d d d d d d d d d d d d u.u.u.",
"u.u.u.d d d d d d d d d d d d d d d d d d d d d d d d d d d d d d d d d d d d d d d d d d d d d d d d d d d d d d d d d d d d d d d d d d d d d d d d d d u.u.u.",
"u.u.u.u.u.u.u.u.u.u.u.u.u.u.u.u.u.u.u.u.u.u.u.u.u.u.u.u.u.u.u.u.u.u.u.u.u.u.u.u.u.u.u.u.u.u.u.u.u.u.u.u.u.u.u.u.u.u.u.u.u.u.u.u.u.u.u.u.u.u.u.u.u.u.u.u.u.u.u.u.",
"u.u.u.u.u.u.u.u.u.u.u.u.u.u.u.u.u.u.u.u.u.u.u.u.u.u.u.u.u.u.u.u.u.u.u.u.u.u.u.u.u.u.u.u.u.u.u.u.u.u.u.u.u.u.u.u.u.u.u.u.u.u.u.u.u.u.u.u.u.u.u.u.u.u.u.u.u.u.u.u.",
"u.u.u.u.u.u.u.u.u.u.u.u.u.u.u.u.u.u.u.u.u.u.u.u.u.u.u.u.u.u.u.u.u.u.u.u.u.u.u.u.u.u.u.u.u.u.u.u.u.u.u.u.u.u.u.u.u.u.u.u.u.u.u.u.u.u.u.u.u.u.u.u.u.u.u.u.u.u.u.u.",
"u.u.u.u.u.u.u.u.u.u.u.u.u.u.u.u.u.u.u.u.u.u.u.u.u.u.u.u.u.u.u.u.u.u.u.u.u.u.u.u.u.u.u.u.u.u.u.u.u.u.u.u.u.u.u.u.u.u.u.u.u.u.u.u.u.u.u.u.u.u.u.u.u.u.u.u.u.u.u.u.",
"u.u.u.u.u.u.u.u.u.u.u.u.u.u.u.u.u.u.u.u.u.u.u.u.u.u.u.u.u.u.u.u.u.u.u.u.u.u.u.u.u.u.u.u.u.u.u.u.u.u.u.u.u.u.u.u.u.u.u.u.u.u.u.u.u.u.u.u.u.u.u.u.u.u.u.u.u.u.u.u.",
"u.u.u.u.u.u.u.u.u.u.u.u.u.u.u.u.u.u.u.u.u.u.u.u.u.u.u.u.u.u.u.u.u.u.u.u.u.u.u.u.u.u.u.u.u.u.u.u.u.u.u.u.u.u.u.u.u.u.u.u.u.u.u.u.u.u.u.u.u.u.u.u.u.u.u.u.u.u.u.u.",
"u.u.u.u.u.u.u.u.u.u.u.u.u.u.u.u.u.u.u.u.u.u.u.u.u.u.u.u.u.u.u.u.u.u.u.u.u.u.u.u.u.u.u.u.u.u.u.u.u.u.u.u.u.u.u.u.u.u.u.u.u.u.u.u.u.u.u.u.u.u.u.u.u.u.u.u.u.u.u.u.",
"u.u.u.u.u.u.u.u.u.u.u.u.u.u.u.u.u.u.u.u.u.u.u.u.u.u.u.u.u.u.u.u.u.u.u.u.u.u.u.u.u.u.u.u.u.u.u.u.u.u.u.u.u.u.u.u.u.u.u.u.u.u.u.u.u.u.u.u.u.u.u.u.u.u.u.u.u.u.u.u.",
"u.u.u.u.u.u.u.u.u.u.u.u.u.u.u.u.u.u.u.u.u.u.u.u.u.u.u.u.u.u.u.u.u.u.u.u.u.u.u.u.u.u.u.u.u.u.u.u.u.u.u.u.u.u.u.u.u.u.u.u.u.u.u.u.u.u.u.u.u.u.u.u.u.u.u.u.u.u.u.u.",
"u.u.u.u.u.u.u.u.u.u.u.u.u.u.u.u.u.u.u.u.u.u.u.u.u.u.u.u.u.u.u.u.u.u.u.u.u.u.u.u.u.u.u.u.u.u.u.u.u.u.u.u.u.u.u.u.u.u.u.u.u.u.u.u.u.u.u.u.u.u.u.u.u.u.u.u.u.u.u.u.",
"u.u.u.u.u.u.u.u.u.u.u.u.u.u.u.u.u.u.u.u.u.u.u.u.u.u.u.u.u.u.u.u.u.u.u.u.u.u.u.u.u.u.u.u.u.u.u.u.u.u.u.u.u.u.u.u.u.u.u.u.u.u.u.u.u.u.u.u.u.u.u.u.u.u.u.u.u.u.u.u.",
"u.u.u.u.u.u.u.u.u.u.u.u.u.u.u.u.u.u.u.u.u.u.u.u.u.u.u.u.u.u.u.u.u.u.u.u.u.u.u.u.u.u.u.u.u.u.u.u.u.u.u.u.u.u.u.u.u.u.u.u.u.u.u.u.u.u.u.u.u.u.u.u.u.u.u.u.u.u.u.u.",
"u.u.u.u.u.u.u.u.u.u.u.u.u.u.u.u.u.u.u.u.u.u.u.u.u.u.u.u.u.u.u.u.u.u.u.u.u.u.u.u.u.u.u.u.u.u.u.u.u.u.u.u.u.u.u.u.u.u.u.u.u.u.u.u.u.u.u.u.u.u.u.u.u.u.u.u.u.u.u.u.",
"u.u.u.u.u.u.u.u.u.u.u.u.u.u.u.u.u.u.u.u.u.u.u.u.u.u.u.u.u.u.u.u.u.u.u.u.u.u.u.u.u.u.u.u.u.u.u.u.u.u.u.u.u.u.u.u.u.u.u.u.u.u.u.u.u.u.u.u.u.u.u.u.u.u.u.u.u.u.u.u.",
"u.u.u.u.u.u.u.u.u.u.u.u.u.u.u.u.u.u.u.u.u.u.u.u.u.u.u.u.u.u.u.u.u.u.u.u.u.u.u.u.u.u.u.u.u.u.u.u.u.u.u.u.u.u.u.u.u.u.u.u.u.u.u.u.u.u.u.u.u.u.u.u.u.u.u.u.u.u.u.u."
};
