/* XPM */
static char *xpm_[] = {
/* columns rows colors chars-per-pixel */
"80 80 114 2 ",
"   c #7D0B0B",
".  c #890D0D",
"X  c #960909",
"o  c #9D100F",
"O  c #970E10",
"+  c #9C1313",
"@  c #A50505",
"#  c #A81213",
"$  c #BA1616",
"%  c #BF1820",
"&  c #CE0D0C",
"*  c #D00C0C",
"=  c #DB0F10",
"-  c #C81919",
";  c #D61B1B",
":  c #EA0C0B",
">  c #F30F0E",
",  c #FA100D",
"<  c #E40F10",
"1  c #E71B1B",
"2  c #F51B1A",
"3  c #EA201F",
"4  c #F8201F",
"5  c #C71B22",
"6  c #DA1E21",
"7  c #E31F20",
"8  c #DA2726",
"9  c #D42830",
"0  c #D73434",
"q  c #EA2322",
"w  c #F62524",
"e  c #E73B3A",
"r  c #F53737",
"t  c #B95A5A",
"y  c #DB4848",
"u  c #DE5A59",
"i  c #E84647",
"p  c #F04443",
"a  c #E75555",
"s  c #F75757",
"d  c #C46D6D",
"f  c #CB7F7E",
"g  c #E96F6F",
"h  c #F06666",
"j  c #E47575",
"k  c #F37A79",
"l  c #CD807F",
"z  c #06009E",
"x  c #0004AF",
"c  c #1512A5",
"v  c #000DB3",
"b  c #0215BA",
"n  c #1722B7",
"m  c #000EC0",
"M  c #011CC4",
"N  c #0126CC",
"B  c #002CD3",
"V  c #0137DA",
"C  c #003CE2",
"Z  c #0641DF",
"A  c #3944C2",
"S  c #204BDC",
"D  c #2452DF",
"F  c #3D53D2",
"G  c #0147E7",
"H  c #0152EE",
"J  c #004EF0",
"K  c #0159F2",
"L  c #0167F6",
"P  c #0176FA",
"I  c #4954C8",
"U  c #4D6BDD",
"Y  c #536DDB",
"T  c #6978D8",
"R  c #4B71E4",
"E  c #0286FF",
"W  c #5C80E7",
"Q  c #7E97EA",
"!  c #6E9FF7",
"~  c #5AB0FD",
"^  c #6BA7FA",
"/  c #6CB4FC",
"(  c #CE8281",
")  c #DC9898",
"_  c #ED8888",
"`  c #F48585",
"'  c #F39594",
"]  c #DEAEAE",
"[  c #ECA9A8",
"{  c #F7AEAD",
"}  c #E4B5B5",
"|  c #F6BEBE",
" . c #A8A7DD",
".. c #8199E8",
"X. c #98B6F5",
"o. c #ADBAEE",
"O. c #A9BDF4",
"+. c #BCC0EA",
"@. c #ACC1F5",
"#. c #B6C6F5",
"$. c #BCDFFC",
"%. c #F5CBCA",
"&. c #EED5D4",
"*. c #F4D9D9",
"=. c #CBCDED",
"-. c #C4D1F7",
";. c #D1D6F3",
":. c #D9E8FC",
">. c #DFF0FE",
",. c #F9E7E7",
"<. c #E2ECFC",
"1. c #E4F1FE",
"2. c #FEFEFE",
"3. c None",
/* pixels */
"3.3.3.3.3.3.3.3.3.3.3.3.3.3.3.3.3.3.3.3.3.3.3.3.3.3.3.3.3.3.3.3.3.3.3.3.3.3.3.3.3.3.3.3.3.3.3.3.3.3.3.3.3.3.3.3.3.3.3.3.3.3.3.3.3.3.3.3.3.3.3.3.3.3.3.3.3.3.3.3.",
"3.3.3.3.3.3.3.3.3.3.3.3.3.3.3.3.3.3.3.3.3.3.3.3.3.3.3.3.3.3.3.3.3.3.3.3.3.3.3.3.3.3.3.3.3.3.3.3.3.3.3.3.3.3.3.3.3.3.3.3.3.3.3.3.3.3.3.3.3.3.3.3.3.3.3.3.3.3.3.3.",
"3.3.3.3.3.3.3.3.3.3.3.3.3.3.3.3.3.3.3.3.3.3.3.3.3.3.3.3.3.3.3.3.3.3.3.3.3.3.3.3.3.3.3.3.3.3.3.3.3.3.3.3.3.3.3.3.3.3.3.3.3.3.3.3.3.3.3.3.3.3.3.3.3.3.3.3.3.3.3.3.",
"3.3.3.3.3.3.3.3.3.3.3.3.3.3.3.3.3.3.3.3.3.3.3.3.3.3.3.3.3.3.3.3.3.3.3.3.3.3.3.3.3.3.3.3.3.3.3.3.3.3.3.3.3.3.3.3.3.3.3.3.3.3.3.3.3.3.3.3.3.3.3.3.3.3.3.3.3.3.3.3.",
"3.3.3.3.3.3.3.3.3.3.3.3.3.3.3.3.3.3.3.3.3.3.3.3.3.3.3.3.3.3.3.3.3.3.3.3.3.3.3.3.3.3.3.3.3.3.3.3.3.3.3.3.3.3.3.3.3.3.3.3.3.3.3.3.3.3.3.3.3.3.3.3.3.3.3.3.3.3.3.3.",
"3.3.3.3.3.3.3.3.3.3.3.3.3.3.3.3.3.3.3.3.3.3.3.3.3.3.3.3.3.3.3.3.3.3.3.3.3.3.3.3.3.3.3.3.3.3.3.3.3.3.3.3.3.3.3.3.3.3.3.3.3.3.3.3.3.3.3.3.3.3.3.3.3.3.3.3.3.3.3.3.",
"3.3.3.3.3.3.3.3.3.3.3.3.3.3.3.3.3.3.3.3.3.3.3.3.3.3.3.3.3.3.3.3.3.3.3.3.3.3.3.3.3.3.3.3.3.3.3.3.3.3.3.3.3.3.3.3.3.3.3.3.3.3.3.3.3.3.3.3.3.3.3.3.3.3.3.3.3.3.3.3.",
"3.3.3.3.3.3.3.3.3.3.3.3.3.3.3.3.3.3.3.3.3.3.3.3.3.3.3.3.3.3.3.3.3.3.3.3.3.3.3.3.3.3.3.3.3.3.3.3.3.3.3.3.3.3.3.3.3.3.3.3.3.3.3.3.3.3.3.3.3.3.3.3.3.3.3.3.3.3.3.3.",
"3.3.3.3.3.3.3.3.3.3.3.3.3.3.3.3.3.3.3.3.3.3.3.3.3.3.3.3.3.3.3.3.3.3.3.3.3.3.3.3.3.3.3.3.3.3.3.3.3.3.3.3.3.3.3.3.3.3.3.3.3.3.3.3.3.3.3.3.3.3.3.3.3.3.3.3.3.3.3.3.",
"3.3.3.3.3.3.3.3.3.3.3.3.3.3.3.3.3.3.3.3.3.3.3.3.3.3.3.3.3.3.3.3.3.3.3.3.3.3.3.3.3.3.3.3.3.3.3.3.3.3.3.3.3.3.3.3.3.3.3.3.3.3.3.3.3.3.3.3.3.3.3.3.3.3.3.3.3.3.3.3.",
"3.3.3.3.3.3.3.3.3.3.3.3.3.3.3.3.3.3.3.3.3.3.3.3.3.3.3.3.3.3.3.3.3.3.3.3.3.3.3.3.3.3.3.3.3.3.3.3.3.3.3.3.3.3.3.3.3.3.3.3.3.3.3.3.3.3.3.3.3.3.3.3.3.3.3.3.3.3.3.3.",
"3.3.3.3.3.3.3.3.3.3.3.3.3.3.3.3.3.3.3.3.3.3.3.3.3.3.3.3.3.3.3.3.3.3.3.3.3.3.3.3.3.3.3.3.3.3.3.3.3.3.3.3.3.3.3.3.3.3.3.3.3.3.3.3.3.3.3.3.3.3.3.3.3.3.3.3.3.3.3.3.",
"3.3.3.3.3.3.3.3.3.3.3.3.3.3.3.3.3.3.3.3.3.3.3.3.3.3.3.3.3.3.3.3.3.3.3.3.3.3.3.3.3.3.3.3.3.3.3.3.3.3.3.3.3.3.3.3.3.3.3.3.3.3.3.3.3.3.3.3.3.3.3.3.3.3.3.3.3.3.3.3.",
"3.3.3.3.3.3.3.3.3.3.3.3.3.3.3.3.3.3.3.3.3.3.3.3.3.3.3.3.3.3.3.3.3.3.3.3.3.3.3.3.3.3.3.3.3.3.3.3.3.3.3.3.3.3.3.3.3.3.3.3.3.3.3.3.3.3.3.3.3.3.3.3.3.3.3.3.3.3.3.3.",
"3.3.3.3.3.3.3.3.3.3.3.3.3.3.3.3.3.3.3.3.3.3.3.3.3.3.3.3.3.3.3.3.3.3.3.3.3.3.3.3.3.3.3.3.3.3.3.3.3.3.3.3.3.3.3.3.3.3.3.3.3.3.3.3.3.3.3.3.3.3.3.3.3.3.3.3.3.3.3.3.",
"3.3.3.3.3.3.3.3.3.3.3.3.3.3.3.3.3.3.3.3.3.3.3.3.3.3.3.3.3.3.3.3.3.3.3.3.3.3.3.3.3.3.3.3.3.3.3.3.3.3.3.3.3.3.3.3.3.3.3.3.3.3.3.3.3.3.3.3.3.3.3.3.3.3.3.3.3.3.3.3.",
"3.3.3.3.3.3.3.3.3.3.3.3.3.3.3.3.3.3.3.3.3.3.3.3.3.3.3.3.3.3.3.3.3.3.3.3.3.3.3.3.3.3.3.3.3.3.3.3.3.3.3.3.3.3.3.3.3.3.3.3.3.3.3.3.3.3.3.3.3.3.3.3.3.3.3.3.3.3.3.3.",
"3.3.3.3.3.3.3.3.3.3.3.3.3.3.3.3.3.3.3.3.3.3.3.3.3.3.3.3.3.3.3.3.3.3.3.3.3.3.3.3.3.3.3.3.3.3.3.3.3.3.3.3.3.3.3.3.3.3.3.3.3.3.3.3.3.3.3.3.3.3.3.3.3.3.3.3.3.3.3.3.",
"3.3.3.3.3.3.3.3.3.3.3.3.3.3.3.3.3.3.3.3.3.3.3.3.3.3.3.3.3.3.3.3.3.3.3.3.3.3.3.3.3.3.3.3.3.3.3.3.3.3.3.3.3.3.3.3.3.3.3.3.3.3.3.3.3.3.3.3.3.3.3.3.3.3.3.3.3.3.3.3.",
"3.3.3.3.3.3.3.3.3.3.3.3.3.3.3.3.3.3.3.3.3.3.3.3.3.3.3.3.3.3.3.3.3.3.3.3.3.3.3.3.3.3.3.3.3.3.3.3.3.3.3.3.3.3.3.3.3.3.3.3.3.3.3.3.3.3.3.3.3.3.3.3.3.3.3.3.3.3.3.3.",
"3.3.3.3.3.3.3.3.3.3.3.3.3.3.3.3.3.3.3.3.3.3.3.3.3.3.3.3.3.3.3.3.3.3.3.3.3.3.3.3.3.3.3.3.3.3.3.3.3.3.3.3.3.3.3.3.3.3.3.3.3.3.3.3.3.3.3.3.3.3.3.3.3.3.3.3.3.3.3.3.",
"3.3.3.3.3.3.3.3.3.3.3.3.3.3.3.3.3.3.3.3.3.3.3.3.3.3.3.3.3.3.3.3.3.3.3.3.3.3.3.3.3.3.3.3.3.3.3.3.3.3.3.3.3.3.3.3.3.3.3.3.3.3.3.3.3.3.3.3.3.3.3.3.3.3.3.3.3.3.3.3.",
"3.3.3.3.3.3.3.3.3.3.3.3.3.3.3.3.3.3.3.3.3.3.3.3.3.3.3.3.3.3.3.3.3.3.3.3.3.3.3.3.3.3.3.3.3.3.3.3.3.3.3.3.3.3.3.3.3.3.3.3.3.3.3.3.3.3.3.3.3.3.3.3.3.3.3.3.3.3.3.3.",
"3.3.3.3.3.3.3.3.3.3.3.3.3.3.3.3.3.3.3.3.3.3.3.3.3.3.3.3.3.3.3.3.3.3.3.3.3.3.3.3.3.3.3.3.3.3.3.3.3.3.3.3.3.3.3.3.3.3.3.3.3.3.3.3.3.3.3.3.3.3.3.3.3.3.3.3.3.3.3.3.",
"3.3.3.3.3.3.3.3.3.3.3.3.3.3.3.3.3.3.3.3.3.3.3.3.3.3.3.3.3.3.3.3.3.3.3.3.3.3.3.3.3.3.3.3.3.3.3.3.3.3.3.3.3.3.3.3.3.3.3.3.3.3.3.3.3.3.3.3.3.3.3.3.3.3.3.3.3.3.3.3.",
"3.3.3.3.3.3.3.3.3.3.3.3.3.3.3.3.3.3.3.3.3.3.3.3.3.3.3.3.3.3.3.3.3.3.3.3.3.3.3.3.3.3.3.3.3.3.3.3.3.3.3.3.3.3.3.3.3.3.3.3.3.3.3.3.3.3.3.3.3.3.3.3.3.3.3.3.3.3.3.3.",
"3.3.3.3.3.3.3.3.3.3.3.3.3.3.3.3.3.3.3.3.3.3.3.3.3.3.3.3.3.3.3.3.3.3.3.3.3.3.3.3.3.3.3.3.3.3.3.3.3.3.3.3.3.3.3.3.3.3.3.3.3.3.3.3.3.3.3.3.3.3.3.3.3.3.3.3.3.3.3.3.",
"3.3.3.E E E E E E E E E E E E E E E E E E P P P L L L K K H H G G V V V B B N n 5 ; 6 6 6 ; ; ; ; ; ; - ; - - - - $ $ $ $ $ $ # # # # + o o O O . . . . . 3.3.3.",
"3.3.3.E E E E E E E E E E E E E E E E E E P P L L L L K K H G G G C V V B B N n 5 ; = ; ; 8 7 ; ; ; ; ; - - - - - $ $ $ $ # # $ # # # @ o O O O O . . .   3.3.3.",
"3.3.3.E E E E E E E E E E E E E E E E E E P P P L L L K K H J G C V V B B N M b 9 e i e q = = ; 8 ; ; ; ; - ; - - - - $ $ $ $ # # # # o o o O O O . . . . 3.3.3.",
"3.3.3.E E E E E E E E :.>.:.:.:.:.>.~ E E P P P L L L K H H G G G V V V N N T =.,.2.2.2.,.| g 8 = 8 ; ; ; ; ; - - - $ $ $ } *.*.&.*.&.,.d X + O O . . . . 3.3.3.",
"3.3.3.E E E E E E E E 1.2.2.2.2.2.2./ P P P P L L L L K K H G G G V V N U :.2.2.2.2.2.2.2.2.2.*.a = 8 ; ; ; ; - - - - - $ ,.2.2.2.2.2.2.f X + O O . . . . 3.3.3.",
"3.3.3.E E E E E E E E 1.2.2.2.2.2.2./ P P P P L L K L K H J G G V V B ..2.2.2.2.2.2.2.2.2.2.2.2.2._ = ; ; ; ; - - - - $ $ *.2.2.2.2.2.2.f X + O O . . . . 3.3.3.",
"3.3.3.E E E E E E E E 1.2.2.2.2.2.2./ P P P P L L L K K H G G G Z V Q 2.2.2.2.2.2.2.2.2.2.2.2.2.2.2._ = 6 ; ; ; ; - - - $ *.2.2.2.2.2.2.f X # O O . O . . 3.3.3.",
"3.3.3.E E E E E E E E 1.2.2.2.2.2.2./ L P P P L L K K K H G G C V R 2.2.2.2.2.2.2.2.2.2.2.2.2.2.2.2.2.e ; 6 ; 5 - - - - $ *.2.2.2.2.2.2.f X @ O O O . . . 3.3.3.",
"3.3.3.E E E E E E E E >.2.2.2.2.2.2./ P P L L L L L K H H G G C V :.2.2.2.2.2.2.2.2.,.2.2.2.2.2.2.%.i ; 7 6 ; ; ; - - - - *.2.2.2.2.2.2.f @ + O O O . . . 3.3.3.",
"3.3.3.E E E E E E E E 1.2.2.2.2.2.2./ L P L L L K K K K H G G V W 2.2.2.2.2.2.,.k r w r ` 2.2.,.k 1 1 ; 6 ; ; ; ; - - - - *.2.2.2.2.2.2.f X + O O . . . . 3.3.3.",
"3.3.3.E E E E E E E E 1.2.2.2.2.2.2./ L P L L K K K H H G G C V @.2.2.2.2.2.2.p , w w w , s { r : 3 3 6 ; 3 ; ; ; - - - $ *.2.2.2.2.2.2.f X + o O O O . . 3.3.3.",
"3.3.3.E E E E E E E E 1.2.2.2.2.2.2.^ L P L L K K K H H G G V Z <.2.2.2.2.2.k > w w w w w 4 > 3 q 3 3 3 6 6 ; ; ; - - - - *.2.2.2.2.2.2.f @ + o O O . . . 3.3.3.",
"3.3.3.E E E E E E E E 1.2.2.2.2.2.2.^ L L K L K K H H G G G V D 2.2.2.2.2.2.r 1 w w w w w w w w w q q 6 3 ; ; ; ; - - - $ *.2.2.2.2.2.2.f X + o O . O . . 3.3.3.",
"3.3.3.E P E E E E E E 1.2.2.2.2.2.2.^ K L K K K H H G G G C V D 2.2.2.2.2.,.q 4 w w w w w 4 w q 3 3 3 7 7 6 ; ; ; - - - - *.2.2.2.2.2.2.l X # O O O O . . 3.3.3.",
"3.3.3.E E P P P P P P 1.2.2.2.2.2.2.^ K L K K K H H G G G V B S 2.2.2.2.2.2.e 3 q w w 4 w w q q 3 3 7 7 6 6 ; ; ; - - $ $ *.2.2.2.2.2.2.f X + o O O . . . 3.3.3.",
"3.3.3.P P P P P P P P <.2.2.2.2.2.2.^ K K K K K H G G G V V V V :.2.2.2.2.2.` : w 3 q w q 2 > 1 8 3 7 6 ; ; ; - - ; - - $ *.2.2.2.2.2.2.f X @ O O . . . . 3.3.3.",
"3.3.3.E L P P P P L P <.2.2.2.2.2.2.! J K K J J G G V Z V V V N o.2.2.2.2.2.2.a : 1 1 1 : h | e < 7 7 7 7 ; ; ; - - - - - *.2.2.2.2.2.2.f @ + O O . . . . 3.3.3.",
"3.3.3.L L P L P L L P 1.2.2.2.2.2.2.! J K H H G G G Z Z V V B N Y 2.2.2.2.2.2.2.' i r i ' 2.2.2._ 1 = 6 ; ; ; - - - - $ $ *.2.2.2.2.2.2.f X + o O . . . . 3.3.3.",
"3.3.3.L L L L L L L L 1.2.2.2.2.2.2.1.:.<.:.1.O.V Z V V V B B N N ;.2.2.2.2.2.2.2.2.2.2.2.2.2.2.2.&.a ; ; ; - ; - - - - $ *.2.2.2.2.2.2.f X + O O . . . . 3.3.3.",
"3.3.3.L K L L L L L L <.2.2.2.2.2.2.2.2.2.2.2.-.V V V V B B N N m F 2.2.2.2.2.2.2.2.2.2.2.2.2.2.2.2.2.0 - ; - - - - - $ $ *.2.2.2.2.2.2.f X + O O . O . . 3.3.3.",
"3.3.3.L K L K K K K L <.2.2.2.2.2.2.2.2.2.2.2.#.V Z B V B N N N N b T 2.2.2.2.2.2.2.2.2.2.2.2.2.2.2.j & ; ; - - - - $ $ $ *.2.2.2.2.,.2.f X + O . . . . . 3.3.3.",
"3.3.3.K K K K K K K K 1.2.2.2.2.2.2.2.2.2.2.2.#.B V B B N N N N b N v T 2.2.2.2.2.2.2.2.2.2.2.2.2.j * ; - - - - - $ $ $ $ *.2.2.2.2.2.2.f X + O . . . .   3.3.3.",
"3.3.3.H H H H H H H H 1.2.2.2.2.2.2.2.2.2.2.2.-.B B B B N N N M M b b x A =.2.2.2.2.2.2.2.2.2.%.y * ; - - - - - - - $ $ # ,.2.2.2.2.2.2.f X + . . . . . . 3.3.3.",
"3.3.3.H H J J H H J G X.#.O.@.@.O.O.@.+.O.O.O...B B B N N M N M b b b b x v I  .*.,.2.,.*.[ u ; & 5 - ; - - - - $ $ $ $ $ ) } ] [ ] ] } t X . O . . . . . 3.3.3.",
"3.3.3.G G G G G G G G G C C C C C V B V B B B N B N N N N M b b b b b v v v x z 5 0 0 8 ; * * 5 ; - - - - - $ - $ $ $ $ $ @ @ @ @ X X X X X O . . . .     3.3.3.",
"3.3.3.G G G G G G G G G C G V Z Z V V V V B B B N N N M M b M b b b v v v v b c 5 - - & - 5 ; - - - - $ - $ $ $ $ $ $ $ # $ # # # + + + O O O . . . .     3.3.3.",
"3.3.3.V V V V G V Z V V C V V V V V V B N B B N N N M N N b b b b v b v v b v c % - - - - - - - - - - - - $ $ $ $ # $ # # # # # # o o O O O . . . . .     3.3.3.",
"3.3.3.3.3.3.3.3.3.3.3.3.3.3.3.3.3.3.3.3.3.3.3.3.3.3.3.3.3.3.3.3.3.3.3.3.3.3.3.3.3.3.3.3.3.3.3.3.3.3.3.3.3.3.3.3.3.3.3.3.3.3.3.3.3.3.3.3.3.3.3.3.3.3.3.3.3.3.3.3.",
"3.3.3.3.3.3.3.3.3.3.3.3.3.3.3.3.3.3.3.3.3.3.3.3.3.3.3.3.3.3.3.3.3.3.3.3.3.3.3.3.3.3.3.3.3.3.3.3.3.3.3.3.3.3.3.3.3.3.3.3.3.3.3.3.3.3.3.3.3.3.3.3.3.3.3.3.3.3.3.3.",
"3.3.3.3.3.3.3.3.3.3.3.3.3.3.3.3.3.3.3.3.3.3.3.3.3.3.3.3.3.3.3.3.3.3.3.3.3.3.3.3.3.3.3.3.3.3.3.3.3.3.3.3.3.3.3.3.3.3.3.3.3.3.3.3.3.3.3.3.3.3.3.3.3.3.3.3.3.3.3.3.",
"3.3.3.3.3.3.3.3.3.3.3.3.3.3.3.3.3.3.3.3.3.3.3.3.3.3.3.3.3.3.3.3.3.3.3.3.3.3.3.3.3.3.3.3.3.3.3.3.3.3.3.3.3.3.3.3.3.3.3.3.3.3.3.3.3.3.3.3.3.3.3.3.3.3.3.3.3.3.3.3.",
"3.3.3.3.3.3.3.3.3.3.3.3.3.3.3.3.3.3.3.3.3.3.3.3.3.3.3.3.3.3.3.3.3.3.3.3.3.3.3.3.3.3.3.3.3.3.3.3.3.3.3.3.3.3.3.3.3.3.3.3.3.3.3.3.3.3.3.3.3.3.3.3.3.3.3.3.3.3.3.3.",
"3.3.3.3.3.3.3.3.3.3.3.3.3.3.3.3.3.3.3.3.3.3.3.3.3.3.3.3.3.3.3.3.3.3.3.3.3.3.3.3.3.3.3.3.3.3.3.3.3.3.3.3.3.3.3.3.3.3.3.3.3.3.3.3.3.3.3.3.3.3.3.3.3.3.3.3.3.3.3.3.",
"3.3.3.3.3.3.3.3.3.3.3.3.3.3.3.3.3.3.3.3.3.3.3.3.3.3.3.3.3.3.3.3.3.3.3.3.3.3.3.3.3.3.3.3.3.3.3.3.3.3.3.3.3.3.3.3.3.3.3.3.3.3.3.3.3.3.3.3.3.3.3.3.3.3.3.3.3.3.3.3.",
"3.3.3.3.3.3.3.3.3.3.3.3.3.3.3.3.3.3.3.3.3.3.3.3.3.3.3.3.3.3.3.3.3.3.3.3.3.3.3.3.3.3.3.3.3.3.3.3.3.3.3.3.3.3.3.3.3.3.3.3.3.3.3.3.3.3.3.3.3.3.3.3.3.3.3.3.3.3.3.3.",
"3.3.3.3.3.3.3.3.3.3.3.3.3.3.3.3.3.3.3.3.3.3.3.3.3.3.3.3.3.3.3.3.3.3.3.3.3.3.3.3.3.3.3.3.3.3.3.3.3.3.3.3.3.3.3.3.3.3.3.3.3.3.3.3.3.3.3.3.3.3.3.3.3.3.3.3.3.3.3.3.",
"3.3.3.3.3.3.3.3.3.3.3.3.3.3.3.3.3.3.3.3.3.3.3.3.3.3.3.3.3.3.3.3.3.3.3.3.3.3.3.3.3.3.3.3.3.3.3.3.3.3.3.3.3.3.3.3.3.3.3.3.3.3.3.3.3.3.3.3.3.3.3.3.3.3.3.3.3.3.3.3.",
"3.3.3.3.3.3.3.3.3.3.3.3.3.3.3.3.3.3.3.3.3.3.3.3.3.3.3.3.3.3.3.3.3.3.3.3.3.3.3.3.3.3.3.3.3.3.3.3.3.3.3.3.3.3.3.3.3.3.3.3.3.3.3.3.3.3.3.3.3.3.3.3.3.3.3.3.3.3.3.3.",
"3.3.3.3.3.3.3.3.3.3.3.3.3.3.3.3.3.3.3.3.3.3.3.3.3.3.3.3.3.3.3.3.3.3.3.3.3.3.3.3.3.3.3.3.3.3.3.3.3.3.3.3.3.3.3.3.3.3.3.3.3.3.3.3.3.3.3.3.3.3.3.3.3.3.3.3.3.3.3.3.",
"3.3.3.3.3.3.3.3.3.3.3.3.3.3.3.3.3.3.3.3.3.3.3.3.3.3.3.3.3.3.3.3.3.3.3.3.3.3.3.3.3.3.3.3.3.3.3.3.3.3.3.3.3.3.3.3.3.3.3.3.3.3.3.3.3.3.3.3.3.3.3.3.3.3.3.3.3.3.3.3.",
"3.3.3.3.3.3.3.3.3.3.3.3.3.3.3.3.3.3.3.3.3.3.3.3.3.3.3.3.3.3.3.3.3.3.3.3.3.3.3.3.3.3.3.3.3.3.3.3.3.3.3.3.3.3.3.3.3.3.3.3.3.3.3.3.3.3.3.3.3.3.3.3.3.3.3.3.3.3.3.3.",
"3.3.3.3.3.3.3.3.3.3.3.3.3.3.3.3.3.3.3.3.3.3.3.3.3.3.3.3.3.3.3.3.3.3.3.3.3.3.3.3.3.3.3.3.3.3.3.3.3.3.3.3.3.3.3.3.3.3.3.3.3.3.3.3.3.3.3.3.3.3.3.3.3.3.3.3.3.3.3.3.",
"3.3.3.3.3.3.3.3.3.3.3.3.3.3.3.3.3.3.3.3.3.3.3.3.3.3.3.3.3.3.3.3.3.3.3.3.3.3.3.3.3.3.3.3.3.3.3.3.3.3.3.3.3.3.3.3.3.3.3.3.3.3.3.3.3.3.3.3.3.3.3.3.3.3.3.3.3.3.3.3.",
"3.3.3.3.3.3.3.3.3.3.3.3.3.3.3.3.3.3.3.3.3.3.3.3.3.3.3.3.3.3.3.3.3.3.3.3.3.3.3.3.3.3.3.3.3.3.3.3.3.3.3.3.3.3.3.3.3.3.3.3.3.3.3.3.3.3.3.3.3.3.3.3.3.3.3.3.3.3.3.3.",
"3.3.3.3.3.3.3.3.3.3.3.3.3.3.3.3.3.3.3.3.3.3.3.3.3.3.3.3.3.3.3.3.3.3.3.3.3.3.3.3.3.3.3.3.3.3.3.3.3.3.3.3.3.3.3.3.3.3.3.3.3.3.3.3.3.3.3.3.3.3.3.3.3.3.3.3.3.3.3.3.",
"3.3.3.3.3.3.3.3.3.3.3.3.3.3.3.3.3.3.3.3.3.3.3.3.3.3.3.3.3.3.3.3.3.3.3.3.3.3.3.3.3.3.3.3.3.3.3.3.3.3.3.3.3.3.3.3.3.3.3.3.3.3.3.3.3.3.3.3.3.3.3.3.3.3.3.3.3.3.3.3.",
"3.3.3.3.3.3.3.3.3.3.3.3.3.3.3.3.3.3.3.3.3.3.3.3.3.3.3.3.3.3.3.3.3.3.3.3.3.3.3.3.3.3.3.3.3.3.3.3.3.3.3.3.3.3.3.3.3.3.3.3.3.3.3.3.3.3.3.3.3.3.3.3.3.3.3.3.3.3.3.3.",
"3.3.3.3.3.3.3.3.3.3.3.3.3.3.3.3.3.3.3.3.3.3.3.3.3.3.3.3.3.3.3.3.3.3.3.3.3.3.3.3.3.3.3.3.3.3.3.3.3.3.3.3.3.3.3.3.3.3.3.3.3.3.3.3.3.3.3.3.3.3.3.3.3.3.3.3.3.3.3.3.",
"3.3.3.3.3.3.3.3.3.3.3.3.3.3.3.3.3.3.3.3.3.3.3.3.3.3.3.3.3.3.3.3.3.3.3.3.3.3.3.3.3.3.3.3.3.3.3.3.3.3.3.3.3.3.3.3.3.3.3.3.3.3.3.3.3.3.3.3.3.3.3.3.3.3.3.3.3.3.3.3.",
"3.3.3.3.3.3.3.3.3.3.3.3.3.3.3.3.3.3.3.3.3.3.3.3.3.3.3.3.3.3.3.3.3.3.3.3.3.3.3.3.3.3.3.3.3.3.3.3.3.3.3.3.3.3.3.3.3.3.3.3.3.3.3.3.3.3.3.3.3.3.3.3.3.3.3.3.3.3.3.3.",
"3.3.3.3.3.3.3.3.3.3.3.3.3.3.3.3.3.3.3.3.3.3.3.3.3.3.3.3.3.3.3.3.3.3.3.3.3.3.3.3.3.3.3.3.3.3.3.3.3.3.3.3.3.3.3.3.3.3.3.3.3.3.3.3.3.3.3.3.3.3.3.3.3.3.3.3.3.3.3.3.",
"3.3.3.3.3.3.3.3.3.3.3.3.3.3.3.3.3.3.3.3.3.3.3.3.3.3.3.3.3.3.3.3.3.3.3.3.3.3.3.3.3.3.3.3.3.3.3.3.3.3.3.3.3.3.3.3.3.3.3.3.3.3.3.3.3.3.3.3.3.3.3.3.3.3.3.3.3.3.3.3.",
"3.3.3.3.3.3.3.3.3.3.3.3.3.3.3.3.3.3.3.3.3.3.3.3.3.3.3.3.3.3.3.3.3.3.3.3.3.3.3.3.3.3.3.3.3.3.3.3.3.3.3.3.3.3.3.3.3.3.3.3.3.3.3.3.3.3.3.3.3.3.3.3.3.3.3.3.3.3.3.3."
};
