/* XPM */
static char *xpm_[] = {
/* columns rows colors chars-per-pixel */
"80 80 32 1 ",
"  c #BE0000",
". c #C20409",
"X c #C40D12",
"o c #C51015",
"O c #C81D21",
"+ c #CA252A",
"@ c #CC2D32",
"# c #CE3539",
"$ c #CF3C40",
"% c #D03E42",
"& c #D2464A",
"* c #D44D51",
"= c #D6575B",
"- c #D85D61",
"; c #DA686B",
": c #DC6E71",
"> c #DD7578",
", c #E07F81",
"< c #E28789",
"1 c #E48F91",
"2 c #E59597",
"3 c #EAA7A9",
"4 c #EBAFB0",
"5 c #EDB6B7",
"6 c #EFBFC0",
"7 c #F1C6C8",
"8 c #F6D9DA",
"9 c #F7DFE0",
"0 c #F9E8E8",
"q c #FBEFF0",
"w c #FFFDFD",
"e c None",
/* pixels */
"eeeeeeeeeeeeeeeeeeeeeeeeeeeeeeeeeeeeeeeeeeeeeeeeeeeeeeeeeeeeeeeeeeeeeeeeeeeeeeee",
"eeeeeeeeeeeeeeeeeeeeeeeeeeeeeeeeeeeeeeeeeeeeeeeeeeeeeeeeeeeeeeeeeeeeeeeeeeeeeeee",
"eeeeeeeeeeeeeeeeeeeeeeeeeeeeeeeeeeeeeeeeeeeeeeeeeeeeeeeeeeeeeeeeeeeeeeeeeeeeeeee",
"eeeooooooooooooooooooooooooooooooooooooooooooooooooooooooooooooooooooooooooooeee",
"eeeooooXoooooooooooooooooooXooXooooooooooooooooooooXooXoooooooooXoooXooooooXoeee",
"eeeoooooooooooooooooooXooooooooooooooooooooooooooooooooooooooooooooooooooooooeee",
"eeeooooooooooooooXooooooooooooooooooooooXooooooooooooooooooooooooooooooooooooeee",
"eeeooooooXooXooooooooooooooooooooXooXooooooooooooooooooooXooXooooooooooooooooeee",
"eeeoXoooooooooooooooooooooooooooooooXooooooooooooXooXoooooooooooooXooooooooooeee",
"eeeoooooooXoooooXoooooooooooooooooooooooooooooooooooooooooXooooooooooooooooooeee",
"eeeoooooooooooooooooooXoXoooXooooXoooooooooooooooooooooooooooooooooooooXoooooeee",
"eeeooooooooooXoooooooooooooooooooooooooooooXoooooooooooooooooXooooooooooXooooeee",
"eeeoXoooooooooooooooXoooooooooooooooooooooooooooooooXoooooooooooooXooooooooooeee",
"eeeoooooXoooooooXoooooooooooooXooooXooooooooooooooooooooXooooooooooooooooooooeee",
"eeeoooooooooooooooooooooooooooooooooooooooooooooooXooooooooooooooooooXooXooooeee",
"eeeooooooooooXooooooooooooXooooooooooooXooX.oooooooooooooooooXoooooooooooooooeee",
"eeeoooooooooooooooooooooooooooXoooooooooX.+#.Xoooooooooooooooooooooooooooooooeee",
"eeeoooooXoooooooooooooXooooXooooooooooooX1ww3OooooooooooooooooXoXooooooooooooeee",
"eeeoooooooooooXoooXoooooooooooooooooooo.=wwww;.oooXoooooooooooooooooooXoooXooeee",
"eeeoXoooooooooooooooooooooooooooooooooo.&wwww;.ooooooooooooooooooooooooooooooeee",
"eeeoooooXoooXoooooXooooooooXoooooooooooXOqwww#XXXoooooooooXoooooXoooXooooooooeee",
"eeeooooooooooooooooooooXooooooooooooooooX2www;.#o.oooooooooooooXoooooooooooooeee",
"eeeoXoooooooooooooooooooooooooooooooooooXo5www7q8=XooooooooooooooooooooooXoooeee",
"eeeooooooooooooooooooooooooXoooooooooooo.=wwwwwwwwoooooooooooooooooooooooooooeee",
"eeeooooooooooXoooooXooooooooooooooooooooo7wwwwwwq2oooXooooooooXoooXooooooooooeee",
"eeeooooXoooooooooooooooooXooooooooooooo.=wwwwww=o.oooooooooooooooooooooooooooeee",
"eeeooooooXoooooooooooooooooooooooooooX.#8wwwwww#.ooooooooooooooooooooooXoooooeee",
"eeeoooooooooooooooooooXoooooooooooooX.>wwwwwww0OooooooooXoooooooooooooooXooooeee",
"eeeooooXoooooooooooooooooXoooXooX...X3wwqwwwww=.oooooooooooooXooooXooooooooooeee",
"eeeooooooooXoooXooooXoooooooooooo@&;70>O1wwwww*.ooooXooooooooooooooooooooooooeee",
"eeeoooooooooooooXooooooooooooooo.>ww:...3wwwww>.OooooXXooooooooooooooXooXooooeee",
"eeeooooooooooooooooooooooooooooo.>3@.ooX7wwwww=.ooooX+o...Xooooooooooooooooooeee",
"eeeooooooooooooooXoooXooooooooooX+oXoooo8wwwww<.oooX+0813=Xooooooooooooooooooeee",
"eeeoooooooooooooooooooooooooooooX.ooooX&wwwwww0oooX ;wwwww-.ooooXooooooooooooeee",
"eeeooXooooooooooooooooooooooooooooooXo 4wwwwwwq+.X&3ww71&#+XooooooooooXoooXooeee",
"eeeoooooXooXooXoooooooooooooooooooooo.:wwwwwwwwq#3www<....XXoooooooooooooooooeee",
"eeeooooooooooooooooooooooooooooooooo.>wwwwwwwwww8www4.oooooXooooXoooXooooooooeee",
"eeeooooXooooooooooooooooooooooooooo.*wwwwwwwwwwwwww5XXoooooooooooooooooooooooeee",
"eeeoooooooooooXoooXoooooooooooooooXo0wwwwww80wwwww4XXooooooooooooooooooooXoooeee",
"eeeoooooXooooooooooooooooooooooooo.2www54qw&+7qww3.XoXoooooooooooooooooooooooeee",
"eeeoooooooooooooooooooooooooooooooX8w0&X.@;oX.+:,OXoXoooooooooooooXooooooooooeee",
"eeeooooooooooXoooooooooXoooooooooX;ww; ooX.oooX..Xoooooooooooooooooooooooooooeee",
"eeeooooooooooooooXoooooooooooooooo0ww#XooooooooooooooooooooooooooooooooXoooooeee",
"eeeoXoooooXooooooooooooooooooooo.>ww8XooooooooooooooooooooooXoooooooooooXooooeee",
"eeeooooooooooooooooXooooooo...Xoo8ww;.ooooooooooooooooooooooooooooXooooooooooeee",
"eeeooooooooooooXoooooooXoo.*2:# #ww<.XooooXoooXooXooooXooooooooooooooooooooooeee",
"eeeoXooooooooooooooooooooX&wwww47w2.XooooooooooooooooooooXooXooooooooXooXooooeee",
"eeeooooooXooooooooooooooo.2wqwwww5.oXooooooooooooooooooooooooooooooooooooooooeee",
"eeeooooooooooooooooXooooo.-www<<w&XooooooooooooXooooooooXooooooooooooooooooooeee",
"eeeooooXooXoooooo.XXooooooX:7<oo%ooXX..XoXX.X..X...XXooooooooo.ooooooooooooooeee",
"eeeooooooooooooXo##@XoooooXo++XXX..O#*&@oo&#&#%#%%%&#ooooooooo#OoooooooXoooooeee",
"eeeooooooooooXoX#ww7XXooooX7w0OX.%40wwww7+70990w0880w#.ooooo.:w+XooooooooooXoeee",
"eeeooooXooooooo.#ww7Xooooo.7w0+.;wwwwqww7.ooo.>qooooq1.ooooo.75.ooooXooooooooeee",
"eeeooooooooooooX#ww7Xooooo.7w0o&www2#+@=*XooX.:qoXo.38.XoooX+w;.oooooooooooooeee",
"eeeooooooooooooX#qw7.oooooX7w0o7ww: .XX.Xoooo.:qooo.=w@Xooo.>woXoooooooooooooeee",
"eeeoooooooooooo.#ww7XoooooX7w0#qw8Xoo+ooOoooo.:qooooow>.ooo.75.oooooooooooXooeee",
"eeeooXooooooooo.#qw7.ooooo.7w8=ww3.X+908q:.oo.:qoooo.57.oo.@w=.oooXooooooooooeee",
"eeeooooooooooooX@ww8Xooooo.7w8=ww4.X#wwww,.oo.:qoooo.;w+oo.>wooooooooooooooooeee",
"eeeooooooooooooXoqwq+.ooooX7w8&ww8XoO&>ww>.oo.:qoooo.Ow;.oX84.oooooooooXoooooeee",
"eeeoooooXooooooo.4ww3X.....7w0o8ww> X #ww>.oo.:qoooXo.77.o@w=.ooooooooooXooooeee",
"eeeoXoooooooooooX#www82222#5w0X;www2#+;ww>.oX.:qooooo.;w+ 1qoXooooXooooooooooeee",
"eeeoooooooooooooo.-wwwwwww;5wqO.2wwwwwwww<.Xo.>qoooooooq5&w<.ooooooooooooooooeee",
"eeeooooooooooooooo.#30qqqw*4w8Oo.=70www07&Xoo.:0oooooo.&qw4ooooooooooXooXooooeee",
"eeeoooooooooooooooo..o++++o+++ooo..+##@O.XXoXXo@ooooooo.+#XXoooooooooooooooooeee",
"eeeoooooooXoooooooooooXXX.oXXXXooooXX.XXooooooXXooooooXoX.oooooooooooooooooooeee",
"eeeoooooooooooooooooooooooooooooooooooooooooooooooooooooooooooooooooooXooooXoeee",
"eeeooooooooooooXoooooooooooooooooooooooooooooooooooooooooooooooooooooooooooooeee",
"eeeoXooooooooooooooooXooooooooooooooooooooooXooooXoooooooooooooooooooooooooooeee",
"eeeoooooooooooooooooooooooooooooooXoooooooooooooooooooooooooooooooXooooooooXoeee",
"eeeoooooooXooooooooooooooooooXooooooooooooooooooooooooooooXooooooooooooXoooooeee",
"eeeoXooooooooooooooooooooooooooooooooXoooXoooooooooooooooooooooooooooooooooooeee",
"eeeooooooooooXooXoooXoooooXooooooooooooooooooXooXooXoooooooooXoooooooooooooooeee",
"eeeoooooooooooooooooooooXoooXooooooXooXooooooooooooooooooooooooooooXoooooooooeee",
"eeeooooXoooooooXoooooooooooooooooooooooooooooooooooooooXoooooooXoooooooXoooooeee",
"eeeooooooXoooooooooooooooooooooooooooooooooooooooooooooooXoooooooooooooooXoooeee",
"eeeooooooooooooooXooXoooooooXooooooooooooXooXoooXooooooooooooooooooooooooooooeee",
"eeeooooooooooooooooooooooooooooooooooooooooooooooooooooooooooooooooooooooooooeee",
"eeeeeeeeeeeeeeeeeeeeeeeeeeeeeeeeeeeeeeeeeeeeeeeeeeeeeeeeeeeeeeeeeeeeeeeeeeeeeeee",
"eeeeeeeeeeeeeeeeeeeeeeeeeeeeeeeeeeeeeeeeeeeeeeeeeeeeeeeeeeeeeeeeeeeeeeeeeeeeeeee",
"eeeeeeeeeeeeeeeeeeeeeeeeeeeeeeeeeeeeeeeeeeeeeeeeeeeeeeeeeeeeeeeeeeeeeeeeeeeeeeee"
};
