/* XPM */
static char *xpm_[] = {
/* columns rows colors chars-per-pixel */
"80 80 159 2 ",
"   c #0079A8",
".  c #0080B1",
"X  c #0086B7",
"o  c #007CAB",
"O  c #0082AF",
"+  c #0087B4",
"@  c #0497C7",
"#  c #038EBE",
"$  c #069ACB",
"%  c #00598B",
"&  c #005D93",
"*  c #0D618F",
"=  c #00669B",
"-  c #176794",
";  c #206C97",
":  c #2C749B",
">  c #3F7E9C",
",  c #006BA3",
"<  c #0174A8",
"1  c #1B77A7",
"2  c #017BB4",
"3  c #197EB1",
"4  c #038ABA",
"5  c #0088BD",
"6  c #2A7FA8",
"7  c #3179A2",
"8  c #0085B8",
"9  c #0187B9",
"0  c #0085B7",
"q  c #028ABC",
"w  c #0296C8",
"e  c #008CBE",
"r  c #029DCF",
"t  c #0084B5",
"y  c #038DBC",
"u  c #049DCE",
"i  c #029DCF",
"p  c #059DCE",
"a  c #1F88AC",
"s  c #0186BB",
"d  c #1B88BB",
"f  c #1893C0",
"g  c #028CBD",
"h  c #009ACD",
"j  c #009DD1",
"k  c #2886AD",
"l  c #3D82A7",
"z  c #288AB8",
"x  c #398BB6",
"c  c #2790BE",
"v  c #3B98B8",
"b  c #029DD0",
"n  c #009DD0",
"m  c #029ED0",
"M  c #4A89AB",
"N  c #5389A3",
"B  c #4C96AE",
"V  c #5C92AB",
"C  c #4F8EB3",
"Z  c #568FB2",
"A  c #4794BA",
"S  c #5798B8",
"D  c #6499AF",
"F  c #699CBC",
"G  c #5CA4BB",
"H  c #68A5BC",
"J  c #76A5B5",
"K  c #008EC2",
"L  c #0194C8",
"P  c #1A94C4",
"I  c #009CD1",
"U  c #0098CD",
"Y  c #009FD2",
"T  c #288FC1",
"R  c #2597C5",
"E  c #3799C6",
"W  c #01A4D7",
"Q  c #19A5D5",
"!  c #28A3CE",
"~  c #39A4CE",
"^  c #28A7D3",
"/  c #35AFD8",
"(  c #39B1DA",
")  c #479CC7",
"_  c #529DC4",
"`  c #4DA4CD",
"'  c #57A6CB",
"]  c #5AACD1",
"[  c #4AB5DA",
"{  c #59BADC",
"}  c #68AAC8",
"|  c #77ADCB",
" . c #6FB0CB",
".. c #7EB0CC",
"X. c #66ADD1",
"o. c #63BBDB",
"O. c #77B8D6",
"+. c #7AC3DE",
"@. c #57C0E3",
"#. c #6AC4E3",
"$. c #78C8E4",
"%. c #84ACBA",
"&. c #8AB2BE",
"*. c #89B6CB",
"=. c #95BBC6",
"-. c #88B9D4",
";. c #95BFD5",
":. c #96C0CE",
">. c #88C3DE",
",. c #98C6DE",
"<. c #A7C5CC",
"1. c #B0CACE",
"2. c #AACAD8",
"3. c #B0CCD2",
"4. c #BAD3D8",
"5. c #84C9E3",
"6. c #92C7E1",
"7. c #8ED3E9",
"8. c #9CD8EC",
"9. c #ABCEE1",
"0. c #A9D5E8",
"q. c #B8D8E8",
"w. c #BAE3F1",
"e. c #BFE5F2",
"r. c #C7D9DC",
"t. c #C6DCE8",
"y. c #D3DFE5",
"u. c #C9E2EE",
"i. c #D6E5E8",
"p. c #CCE6F2",
"a. c #D7EBF4",
"s. c #DEF0F7",
"d. c #E3ECED",
"f. c #E2EDF2",
"g. c #EAF4F8",
"h. c #FEFFFF",
"j. c #00719C",
"k. c #006991",
"l. c #00739F",
"z. c #0899C9",
"x. c #017BAD",
"c. c #0491C1",
"v. c #0078A6",
"b. c #0079A7",
"n. c #0282AF",
"m. c #0192C2",
"M. c #048FC0",
"N. c #0495C6",
"B. c #079ECF",
"V. c #005C81",
"C. c #03678E",
"Z. c #047EAB",
"A. c #0584B1",
"S. c #0597C7",
"D. c #099AC8",
"F. c #012B3D",
"G. c #0682AE",
"H. c #0C8BB7",
"J. c None",
/* pixels */
"J.J.J.J.J.J.J.J.J.J.J.J.J.J.J.J.J.J.J.J.J.J.J.J.J.J.J.J.J.J.J.J.J.J.J.J.J.J.J.J.J.J.J.J.J.J.J.J.J.J.J.J.J.J.J.J.J.J.J.J.J.J.J.J.J.J.J.J.J.J.J.J.J.J.J.J.J.J.J.J.",
"J.J.J.J.J.J.J.J.J.J.J.J.J.J.J.J.J.J.J.J.J.J.J.J.J.J.J.J.J.J.J.J.J.J.J.J.J.J.J.J.J.J.J.J.J.J.J.J.J.J.J.J.J.J.J.J.J.J.J.J.J.J.J.J.J.J.J.J.J.J.J.J.J.J.J.J.J.J.J.J.",
"J.J.J.J.J.J.J.J.J.J.J.J.J.J.J.J.J.J.J.J.J.J.J.J.J.J.J.J.J.J.J.J.J.J.J.J.J.J.J.J.J.J.J.J.J.J.J.J.J.J.J.J.J.J.J.J.J.J.J.J.J.J.J.J.J.J.J.J.J.J.J.J.J.J.J.J.J.J.J.J.",
"J.J.J.J.J.J.J.J.J.J.J.J.J.J.J.J.J.J.J.J.J.J.F.M.k.F.J.J.J.J.J.J.J.J.J.J.J.J.J.J.J.J.J.J.J.J.J.J.J.J.J.J.J.J.J.J.J.J.J.J.J.J.J.J.J.J.J.J.J.J.J.J.J.J.J.J.J.J.J.J.",
"J.J.J.J.J.J.J.J.J.J.J.J.J.J.J.J.J.G.B.  t m U L W Y m y   N.M.S.F.J.J.J.J.J.J.J.J.J.J.J.J.J.J.J.J.J.J.J.J.J.J.J.J.J.J.J.J.J.J.J.J.J.J.J.J.J.J.J.J.J.J.J.J.J.J.J.",
"J.J.J.J.J.J.J.J.J.J.J.J.J.C.# 0 U W W W W Q Q ^ Q W I I W W I W W b t t o N.k.S.J.J.J.J.J.J.J.J.J.J.J.J.J.J.J.J.J.J.J.J.J.J.J.J.J.J.J.J.J.J.J.J.J.J.J.J.J.J.J.J.",
"J.J.J.J.J.J.J.J.J.J.J.F.# I W W L L s ` w.g.g.g.g.a.w.7.$.{ / ^ Q W W L I I W W U m y # N.M.D.F.J.J.J.J.J.J.J.F.J.J.J.J.J.J.J.J.J.J.J.J.J.J.J.J.J.J.J.J.J.J.J.J.",
"J.J.J.J.J.J.J.J.J.J.J.m W K 5 < < = *.h.h.h.h.h.h.h.h.h.h.h.h.g.s.e.8.5.{ [ ^ Q W I W I W W W U U t t N.N.G.G.F.F.J.J.J.J.J.J.J.J.J.J.J.J.J.J.J.J.J.J.J.J.J.J.J.",
"J.J.J.J.J.J.J.J.J.J.# W s , < < = S g.h.h.h.h.h.h.h.h.h.h.h.h.h.h.h.h.h.h.h.h.s.p.0.7.#.[ / ^ W I W I L I W W m b @ B.x.F.J.J.J.J.J.J.J.J.J.J.J.J.J.J.J.J.J.J.J.",
"J.J.J.J.J.J.J.J.J.x.W h = = = = = <.h.h.h.h.h.h.h.h.h.h.h.h.h.h.h.h.h.h.h.h.h.h.h.h.h.h.h.h.g.a.u.8.$.{ [ ^ W Q W W I I U t G.J.J.J.J.J.J.J.J.J.J.J.J.J.J.J.J.J.",
"J.J.J.J.J.J.J.J.J.X W = % % * = k y.h.h.h.h.h.h.h.h.h.h.h.h.h.h.h.h.h.h.h.h.h.h.h.h.h.h.h.h.h.h.g.g.h.h.g.g.g.p.e.7.#./ W W W t J.J.J.J.J.J.J.J.J.J.J.J.J.J.J.J.",
"J.J.J.J.J.J.J.J.J.U W = = < < = S d.h.h.h.h.h.h.h.h.h.h.h.h.h.h.h.h.h.h.h.h.h.h.h.h.h.h.h.h.h.h.g.g.h.h.h.h.g.g.h.h.h.h.u.$.Q W U F.J.J.J.J.J.J.J.J.J.J.J.J.J.J.",
"J.J.J.J.J.J.J.J.k.W h % < , < = H g.h.h.h.h.h.h.h.h.h.h.h.h.h.h.h.h.h.h.h.h.h.h.h.h.h.h.h.h.h.h.g.g.g.g.g.g.g.g.g.g.g.g.g.g.d.#.I Y M.J.J.J.J.J.J.J.J.J.J.J.J.J.",
"J.J.J.J.J.J.J.J.n.W g & < < < = J g.h.h.h.h.h.h.h.h.h.h.h.h.h.h.h.h.h.h.h.h.h.h.h.h.h.h.h.h.h.h.g.g.g.g.g.g.g.g.g.g.g.g.g.g.g.g.5.I W x.J.J.J.J.J.J.J.J.J.J.J.J.",
"J.J.J.J.J.J.J.J.# W 5 = < < < , } h.h.h.h.h.h.h.h.h.h.h.h.h.h.h.h.h.h.h.h.h.h.h.h.h.h.h.h.h.h.h.h.h.g.g.g.g.g.g.g.g.g.g.g.g.g.g.h.8.W W G.J.J.J.J.J.J.J.J.J.J.J.",
"J.J.J.J.J.J.J.J.# W g = , , , ,  .g.h.h.h.h.h.h.h.h.h.h.h.h.h.h.h.h.h.h.h.h.h.h.h.h.h.h.h.h.h.h.h.h.g.g.g.g.g.g.g.g.g.g.g.g.g.g.h.h.7.W m F.J.J.J.J.J.J.J.J.J.J.",
"J.J.J.J.J.J.J.J.  W I = < < < ,  .g.h.h.h.h.h.h.h.h.h.h.h.h.h.h.h.h.h.h.h.h.h.h.h.h.h.h.h.h.h.h.h.h.h.h.h.h.h.h.h.h.h.h.h.h.h.h.h.h.h.[ L N.J.J.J.J.J.J.J.J.J.J.",
"J.J.J.J.J.J.J.J.# W h , < , , , } h.h.h.h.h.h.h.h.h.h.h.h.h.h.h.h.h.h.h.h.h.h.h.h.h.h.h.h.h.h.h.h.h.h.h.h.h.h.h.h.h.h.h.h.h.h.h.h.h.h.u.W U F.J.J.J.J.J.J.J.J.J.",
"J.J.J.J.J.J.J.J.o W g = < < , , } g.h.h.h.h.h.h.h.h.h.h.h.h.h.h.h.h.h.h.h.h.h.h.h.h.h.h.h.h.h.h.h.h.h.h.h.h.h.h.h.h.h.h.h.h.h.h.h.h.h.h.@.W N.J.J.J.J.J.J.J.J.J.",
"J.J.J.J.J.J.J.J.# W 5 = < , < , } h.h.h.h.h.h.h.h.h.h.h.h.h.h.h.h.h.h.h.h.h.h.h.h.h.h.h.h.h.h.h.h.h.h.h.h.h.h.h.h.h.h.h.h.h.h.h.h.h.h.h.9.W t J.J.J.J.J.J.J.J.J.",
"J.J.J.J.J.J.J.J.X W g = < < , , } h.h.h.h.h.h.h.h.h.h.h.h.h.h.h.h.h.h.h.h.h.h.h.h.h.h.h.h.h.h.h.h.h.h.h.h.h.h.h.h.h.h.h.h.h.h.h.h.h.h.h.g.^ I S.J.J.J.J.J.J.J.J.",
"J.J.J.J.J.J.J.J.# W g , , , < , } g.h.h.h.h.h.h.h.h.h.h.h.h.h.h.h.h.h.h.h.h.h.h.h.h.h.h.h.h.h.h.h.h.h.h.h.h.h.h.h.h.h.h.h.h.h.h.h.h.h.g.h.o.I B.J.J.J.J.J.J.J.J.",
"J.J.J.J.J.J.J.J.o W 5 = < < < , } h.h.h.h.h.h.h.h.h.h.h.h.h.r.r.i.i.i.i.d.d.d.g.h.h.h.h.h.h.h.h.h.h.h.h.h.h.h.h.h.h.h.h.h.h.h.h.h.h.h.h.h.0.I y J.J.J.J.J.J.J.J.",
"J.J.J.J.J.J.J.J.# W 5 = < , , , J g.h.h.h.h.h.h.h.h.h.h.h.h.V l N D D J %.&.1.r.a.h.h.h.h.h.h.h.h.h.h.h.d.d.g.g.h.g.g.h.h.h.h.h.h.h.h.g.h.p.W m J.J.J.J.J.J.J.J.",
"J.J.J.J.J.J.J.J.# W g = , < , ,  .h.h.h.h.h.h.h.h.h.h.h.h.h.P 2 = % % % % * M 3.d.h.h.h.h.h.h.h.h.h.h.h.3.=.<.1.1.3.r.r.d.h.h.h.h.h.h.h.h.g.Q g C.J.J.J.J.J.J.J.",
"J.J.J.J.J.J.J.J.# W g = < < < ,  .h.h.h.h.h.h.h.h.h.h.h.h.h.^ W W 4 = < , , = A i.h.h.h.h.h.h.h.h.h.h.h.Z % - ; : M =.u.d.h.h.h.h.h.h.h.h.h./ I M.J.J.J.J.J.J.J.",
"J.J.J.J.J.J.J.J.# W 5 = < , , , H h.h.h.h.h.h.h.h.h.h.h.h.h.^ L I L = < , < < , 4.h.h.h.h.h.h.h.h.h.h.h.{ & = , = , , 2.h.h.h.h.h.h.h.h.h.h.[ L # J.J.J.J.J.J.J.",
"J.J.J.J.J.J.J.J.o W 5 = < < , ,  .h.h.h.h.h.h.h.h.h.h.h.h.h.^ L L W 9 = < , < = *.h.h.h.h.h.h.h.h.h.h.h.{ 2 , < , < = C h.h.h.h.h.h.h.h.h.h.o.I y J.J.J.J.J.J.J.",
"J.J.J.J.J.J.J.J.X W 5 = < , < ,  .h.h.h.h.h.h.h.h.h.h.h.h.h.^ I L W 5 = < , , = } h.h.h.h.h.h.h.h.h.h.h.@.K = , , < , 1 f.h.h.h.h.h.h.h.h.h.#.L m J.J.J.J.J.J.J.",
"J.J.J.J.J.J.J.J.# W 5 = < < , , H g.h.h.h.h.h.h.h.h.h.h.h.h.^ L I I 5 = < , < , S h.h.h.h.h.h.h.h.h.h.h.{ L , < 2 2 2 2 a.h.h.h.h.h.h.h.h.h.5.L g J.J.J.J.J.J.J.",
"J.J.J.J.J.J.J.J.o W s = < , < ,  .h.h.h.h.h.h.h.h.h.h.h.h.h.^ L L W g = < , , = } h.h.h.h.h.h.h.h.h.h.h.{ L < 2 s s s 2 u.h.h.h.h.h.h.h.h.h.5.L g J.J.J.J.J.J.J.",
"J.J.J.J.J.J.J.J.o W 5 = , < 9 ,  .g.h.h.h.h.h.h.h.h.h.h.h.h.^ L L I 5 = < < < , ' h.h.h.h.h.h.h.h.h.h.h.{ L , 2 s 2 s 2 u.h.h.h.h.h.h.h.h.h.6.L g J.J.J.J.J.J.J.",
"J.J.J.J.J.J.J.J.# W 5 = < , , , } g.h.h.h.h.h.h.h.h.h.h.h.h.^ L L W 2 = < , < , } h.h.h.h.h.h.h.h.h.h.h.{ L , 2 s 2 s 2 p.h.h.h.h.h.h.h.h.h.5.L , J.J.J.J.J.J.J.",
"J.J.J.J.J.J.J.J.o I 4 = < < < , } h.h.h.h.h.h.h.h.h.h.h.h.h.^ L L I g = < < < = } h.h.h.h.h.h.h.h.h.h.h.{ L < 2 s s s 2 u.h.h.h.h.h.h.h.h.h.5.L m J.J.J.J.J.J.J.",
"J.J.J.J.J.J.J.J.X I < = , < < , } h.h.h.h.h.h.h.h.h.h.h.h.h.^ L L I b = < < , , ' h.h.h.h.h.h.h.h.h.h.h.{ K < 2 2 2 K 2 t.h.h.h.h.h.h.h.h.h.5.L g J.J.J.J.J.J.J.",
"J.J.J.J.J.J.J.J.# I 4 = < < , , H h.h.h.h.h.h.h.h.h.h.h.h.g.^ L L W b = , , < = } h.h.h.h.h.h.h.h.h.h.h.{ L < 2 K 2 2 2 u.h.h.h.h.h.h.h.h.h.5.L g J.J.J.J.J.J.J.",
"J.J.J.J.J.J.J.J.o I 5 = < , < , } h.h.h.h.h.h.h.h.h.h.h.h.h.! L L I g = < < , , } h.h.h.h.h.h.h.h.h.h.h.{ K , 2 s s s 2 u.h.h.h.h.h.h.h.h.h.5.L g J.J.J.J.J.J.J.",
"J.J.J.J.J.J.J.J.X I 5 = < , , ,  .g.h.h.h.h.h.h.h.h.h.h.h.h.Q K L L s = , < , , ' h.h.h.h.h.h.h.h.h.h.h.{ L < 2 2 2 s 2 u.h.h.h.h.h.h.h.h.h.5.L , J.J.J.J.J.J.J.",
"J.J.J.J.J.J.J.J.# I 4 = , < < , J h.h.h.h.h.h.h.h.h.h.h.h.h.! L L I 5 = < , < , } h.h.h.h.h.h.h.h.h.h.h.{ K < 2 s s 2 2 t.h.h.h.h.h.h.h.h.h.5.K m J.J.J.J.J.J.J.",
"J.J.J.J.J.J.J.J.# I < = < < , , H g.h.h.h.h.h.h.h.h.h.h.h.h.! L L I 5 , , < , = } h.h.h.h.h.h.h.h.h.h.h.o.K , 2 2 2 K 2 u.h.h.h.h.h.h.h.h.h.5.L g J.J.J.J.J.J.J.",
"J.J.J.J.J.J.J.J.X I 2 = < , , , } g.h.h.h.h.h.h.h.h.h.h.h.h.! L L L 5 = , < < , } h.h.h.h.h.h.h.h.h.h.h.o.K < 2 2 2 s 2 u.h.h.h.h.h.h.h.h.h.5.K , J.J.J.J.J.J.J.",
"J.J.J.J.J.J.J.J.o I 5 = < < < ,  .g.h.h.h.h.h.h.h.h.h.h.h.h.! L L I 5 = < , < = X.h.h.h.h.h.h.h.h.h.h.h.o.K < 2 s 2 s 2 u.h.h.h.h.h.h.h.h.h.5.L m J.J.J.J.J.J.J.",
"J.J.J.J.J.J.J.J.o I 4 = , < < , H h.h.h.h.h.h.h.h.h.h.h.h.h.! K L L 5 = , < , = } h.h.h.h.h.h.h.h.h.h.h.o.K < 2 s 2 s 2 t.h.h.h.h.h.h.h.h.h.>.K g J.J.J.J.J.J.J.",
"J.J.J.J.J.J.J.J.o I 4 = < , , , } g.h.h.h.h.h.h.h.h.h.h.h.h.! K L I 5 = < , < , X.h.h.h.h.h.h.h.h.h.h.h.o.K < 2 2 s s 2 u.h.h.h.h.h.h.h.h.h.$.K , J.J.J.J.J.J.J.",
"J.J.J.J.J.J.J.J.o W 5 = < , < , H h.h.h.h.h.h.h.h.h.h.h.h.h.^ K L L 5 = < , < , X.h.h.h.h.h.h.h.h.h.h.h.{ K , 2 s s s 2 u.h.h.h.h.h.h.h.h.h.5.K m J.J.J.J.J.J.J.",
"J.J.J.J.J.J.J.J.# I < = < < < , } g.h.h.h.h.h.h.h.h.h.h.h.h.! K L I b = < , , , } h.h.h.h.h.h.h.h.h.h.h.o.K < 2 2 2 2 2 u.h.h.h.h.h.h.h.h.h.5.L g J.J.J.J.J.J.J.",
"J.J.J.J.J.J.J.J.o W 4 = , , = , } g.h.h.h.h.h.h.h.h.h.h.h.h.! K Y L b = < , , = _ h.h.h.h.h.h.h.h.h.h.h.o.K , 2 2 2 s 2 t.h.h.h.g.h.h.h.g.h.5.Y g J.J.J.J.J.J.J.",
"J.J.J.J.J.J.J.J.o I 4 % % * * % J g.h.h.h.h.h.h.h.h.h.h.h.h.! L L L 5 = < , 9 = S h.h.h.h.h.h.h.h.h.h.h.o.K , , 2 2 2 2 t.h.h.g.h.h.h.h.g.h.5.L 0 J.J.J.J.J.J.J.",
"J.J.J.J.J.J.J.J.# I 4 % < = < = H g.h.h.h.h.h.h.h.h.h.h.h.h.! Y L L 5 = < < < , S h.h.h.h.h.h.h.h.h.h.h.{ K < , , , , = 2.h.h.h.h.h.h.h.g.h.{ K t J.J.J.J.J.J.J.",
"J.J.J.J.J.J.J.J.o L < % % = = & S g.h.h.h.h.h.h.h.h.h.h.h.g.P Y L L g = < = < = x g.h.h.h.h.h.h.h.h.h.h.! L 5 = < , < = ..h.h.h.h.h.h.h.h.g.Q L n.J.J.J.J.J.J.J.",
"J.J.J.J.J.J.J.J.j.L s % % % % % N d.h.h.h.h.h.h.h.h.h.h.h.s.P L Y Y j = , < < , 1 y.h.h.h.h.h.h.h.h.h.s.P Y j = < < < = k h.h.h.h.h.h.h.h.8.h g F.J.J.J.J.J.J.J.",
"J.J.J.J.J.J.J.J.C.L K = % % % % : y.h.h.h.h.h.h.h.h.h.h.h.0.K K Y K L < = = , , = :.h.h.h.h.h.h.h.h.h.5.s K L s = % = = & =.g.a.g.h.h.h.u.f K y J.J.J.J.J.J.J.J.",
"J.J.J.J.J.J.J.J.J.e L , % * % % * <.g.g.h.h.h.h.h.h.h.h.h.[ K K L Y K L = % % * * l y.g.g.h.h.h.h.h.t.L K Y K L s = = * % * *.4.r.r.r.O.K K L x.J.J.J.J.J.J.J.J.",
"J.J.J.J.J.J.J.J.J.X L h * % % = % D i.i.h.h.h.h.h.h.h.h.0.h Y Y K K K Y K = % % % % V r.r.i.g.g.d.*.K K L K K K Y Y h K K s g c ~ c f h L L L x.J.J.J.J.J.J.J.J.",
"J.J.J.J.J.J.J.J.J.F.Y L g % % % % * =.i.r.g.h.h.h.h.h.2.K K Y K K Y K Y Y L s 5 5 4 = k G H H Z k s K L K Y L Y Y Y L L L L L K K K K K s s K e J.J.J.J.J.J.J.J.",
"J.J.J.J.J.J.J.J.J.J.o Y Y h = = * % - %.<.1.r.i.r.<.B g K Y K K K K K K Y h Y L Y L Y j K K K K K Y Y K K s s s s s 5 2 2 5 < < 2 2 E X.O.o.L g S.J.J.J.J.J.J.J.",
"J.J.J.J.J.J.J.J.J.J.k.K K Y L K K s 2 5 z v A v k 2 K L K K L K L K K L L K K K K K K s K s K s 2 K 2 s T T ) 3 2 < E 9.9.t.a.E 2 -.h.h.h.h.R K x.J.J.J.J.J.J.J.",
"J.J.J.J.J.J.J.J.J.F.0 K h K K K K K L L L Y K K L L K K K K K K s s 2 2 < < < < < 3 z E ` ` s 2 s 2 O.a.g.g.h.0.2 E h.h.h.h.h.X.2 h.h.g.g.0.K K x.J.J.J.J.J.J.J.",
"J.J.J.J.J.J.J.J.J.  h K K K K K K K K 2 s 2 2 2 2 K s 2 2 2 2 2 2 E X.O.-.9.X.2 _ g.g.h.h.h.q.3 2 X.h.h.h.h.h.q., 9.h.f.q.u.h._ E h.5.2 K K K K M.J.J.J.J.J.J.J.",
"J.J.J.J.J.J.J.J.J.0 Y s 5 5 5 < < , 1 3 z A _ X.O.6.0.6.T 2 2 2 6.h.h.h.h.h.u., >.h.h.h.h.h.h.] 2 t.h.u.,.-.h.q.2 p.g.T 2 ) h.` E h.>.E ) K h K x.J.J.J.J.J.J.J.",
"J.J.J.J.J.J.J.J.J., Y < = , , < 2 0.g.g.g.h.h.h.h.h.h.h.f.T 2 ] h.h.h.h.h.h.t., >.h.q.*.F 9.h.-.2 f.g.3 2 2 h.q.2 s.a.< , ) h._ d h.h.h.h.O.K K x.J.J.J.J.J.J.J.",
"J.J.J.J.J.J.J.J.J.0 Y = % = < , x h.h.h.h.h.h.h.h.h.h.h.h.-., 0.h.a.F _ | h.t., >.h.F & = _ h.>.2 f.f.2 2 T h.q.2 a.g.-.0.u.h.F & 2.h.h.h.s.P K x.J.J.J.J.J.J.J.",
"J.J.J.J.J.J.J.J.J.q Y = % = < = M h.h.f.t.y.h.h.q.Z M t.h.2., u.h.S & = T h.t., >.h.| = 2 ` h.>.2 g.f.2 2 d h.q.2 u.h.h.h.h.h._ , < E 6 9.h.P g D.J.J.J.J.J.J.J.",
"J.J.J.J.J.J.J.J.J., Y = % = , , x h.h.l & & t.h.*.& & | h.9.= u.h.A , , _ h.t., >.h.} = 2 ` h.>.2 g.f.d 2 d h.q.2 p.h.g.u.u.h.} , 2 3 P q.g.P g S.J.J.J.J.J.J.J.",
"J.J.J.J.J.J.J.J.J.q L = % = < = x h.h.z , , 9.h.-., , | h.9.= p.h.q.q.p.g.h.t., >.h.} & < ` h.6.2 g.f.2 < 2 h.q.2 a.f.d 2 ) h.' 3 u.g.h.h.u.s 0 J.J.J.J.J.J.J.J.",
"J.J.J.J.J.J.J.J.J.< L = % = < = x h.h.x , = 9.h.*.= , | h.9.= p.h.h.h.h.h.h.t.= >.h.} = 2 ` h.;.< s.h._ E O.h.q.2 a.a.2 2 ` h._ ) g.h.h.g.~ K # J.J.J.J.J.J.J.J.",
"J.J.J.J.J.J.J.J.J.q L = % = 4 = x h.h.k = , 9.h.-.= = | h.9.= p.h.h.g.a.a.h.t., >.h.} = 2 _ h.;.& t.h.h.h.h.h.q.< g.f.< , T g.z 3 5.o.` P K g C.J.J.J.J.J.J.J.J.",
"J.J.J.J.J.J.J.J.J.0 L = % = < = x h.h.x , = q.h.*.= = | h.9.= p.h.| 1 , ) h.t., >.h.} = 2 ` h.;.% _ h.h.h.h.h.9.,  .{ g s 2 d K U 2 s s K g x.J.J.J.J.J.J.J.J.J.",
"J.J.J.J.J.J.J.J.J., L 9 % = < = x h.h.x , = q.h.-.& , | h.9.& p.h.A = , ) h.t., >.h.} & = x h.} & , M X.) ] h.q.s 2 K K L L L L K K m , o S.J.J.J.J.J.J.J.J.J.J.",
"J.J.J.J.J.J.J.J.J.0 L 8 % = < , x h.h.x , , 9.h.-., , | h.9., a.h.C & = x h.9.& S p.R s 2 , c s s 2 T 5.9.p.h.+.U U s , % t o n.x.k.J.J.J.J.J.J.J.J.J.J.J.J.J.J.",
"J.J.J.J.J.J.J.J.J.% Y = % = < = x h.h.k , , 9.h.*.& & | h.9.% q.h.d 2 5 , ' R s 2 2 s U s = , 4 2 2 q.h.h.g.g.T K , k.J.J.J.J.J.J.J.J.J.J.J.J.J.J.J.J.J.J.J.J.J.",
"J.J.J.J.J.J.J.J.J.o Y = % % , = A h.h.7 % & 2.h.} , , 6 8.E < 3 P s s h K s K Y K K K s s < = = = , :.h.p.0.E s L n.J.J.J.J.J.J.J.J.J.J.J.J.J.J.J.J.J.J.J.J.J.J.",
"J.J.J.J.J.J.J.J.J.x.j h < = = % 1 g.p.s 5 < z ] K s K s 2 s j s Y Y K s s s 4 0 X o 0 I K h K U s K s R g < e e n.J.J.J.J.J.J.J.J.J.J.J.J.J.J.J.J.J.J.J.J.J.J.J.",
"J.J.J.J.J.J.J.J.J.J.  K K K h s 4 d d s h h s s s K K K K K n , 0 X # M.k.C.J.J.J.J.C.# , e 0 y # n.M.k.S.S.J.J.J.J.J.J.J.J.J.J.J.J.J.J.J.J.J.J.J.J.J.J.J.J.J.J.",
"J.J.J.J.J.J.J.J.J.J.J.j.0 h K h K h K K K K L j < e t # n.j.S.J.J.J.J.J.J.J.J.J.J.J.J.J.J.J.J.J.J.J.J.J.J.J.J.J.J.J.J.J.J.J.J.J.J.J.J.J.J.J.J.J.J.J.J.J.J.J.J.J.",
"J.J.J.J.J.J.J.J.J.J.J.J.J.C.x.  # % 0 o   M.j.F.J.J.J.J.J.J.J.J.J.J.J.J.J.J.J.J.J.J.J.J.J.J.J.J.J.J.J.J.J.J.J.J.J.J.J.J.J.J.J.J.J.J.J.J.J.J.J.J.J.J.J.J.J.J.J.J.",
"J.J.J.J.J.J.J.J.J.J.J.J.J.J.J.J.J.J.J.J.J.J.J.J.J.J.J.J.J.J.J.J.J.J.J.J.J.J.J.J.J.J.J.J.J.J.J.J.J.J.J.J.J.J.J.J.J.J.J.J.J.J.J.J.J.J.J.J.J.J.J.J.J.J.J.J.J.J.J.J.",
"J.J.J.J.J.J.J.J.J.J.J.J.J.J.J.J.J.J.J.J.J.J.J.J.J.J.J.J.J.J.J.J.J.J.J.J.J.J.J.J.J.J.J.J.J.J.J.J.J.J.J.J.J.J.J.J.J.J.J.J.J.J.J.J.J.J.J.J.J.J.J.J.J.J.J.J.J.J.J.J.",
"J.J.J.J.J.J.J.J.J.J.J.J.J.J.J.J.J.J.J.J.J.J.J.J.J.J.J.J.J.J.J.J.J.J.J.J.J.J.J.J.J.J.J.J.J.J.J.J.J.J.J.J.J.J.J.J.J.J.J.J.J.J.J.J.J.J.J.J.J.J.J.J.J.J.J.J.J.J.J.J.",
"J.J.J.J.J.J.J.J.J.J.J.J.J.J.J.J.J.J.J.J.J.J.J.J.J.J.J.J.J.J.J.J.J.J.J.J.J.J.J.J.J.J.J.J.J.J.J.J.J.J.J.J.J.J.J.J.J.J.J.J.J.J.J.J.J.J.J.J.J.J.J.J.J.J.J.J.J.J.J.J."
};
