/* XPM */
static char *xpm_[] = {
/* columns rows colors chars-per-pixel */
"80 80 90 1 ",
"  c #662F88",
". c #683189",
"X c #662F88",
"o c #663088",
"O c #652E87",
"+ c #663088",
"@ c #999997",
"# c #999997",
"$ c #662E88",
"% c #662F88",
"& c #662F88",
"* c #652F88",
"= c #662F87",
"- c #68328A",
"; c #662F88",
": c #662E88",
"> c #1898B2",
", c #1898B2",
"< c #1A99B2",
"1 c #1A99B2",
"2 c #1A99B3",
"3 c #1A99B3",
"4 c #1999B2",
"5 c #999997",
"6 c #9D9D9C",
"7 c #999997",
"8 c #999998",
"9 c #989897",
"0 c #9A9998",
"q c #999998",
"w c #9A9997",
"e c #999997",
"r c #662F88",
"t c #663088",
"y c #68318A",
"u c #1998B2",
"i c #1A99B2",
"p c #1B99B2",
"a c #1A99B2",
"s c #1A99B2",
"d c #1B99B2",
"f c #1B99B2",
"g c #1A99B2",
"h c #1A99B2",
"j c #999897",
"k c #9A9997",
"l c #9A9997",
"z c #999997",
"x c #9A9997",
"c c #9C9C9B",
"v c #9A9997",
"b c #662F88",
"n c #662F88",
"m c #999897",
"M c #662F89",
"N c #652D87",
"B c #662F88",
"V c #662F89",
"C c #673089",
"Z c #1699B2",
"A c #1598B1",
"S c #1798B2",
"D c #999897",
"F c #999897",
"G c #9A9997",
"H c #999998",
"J c #662E88",
"K c #1898B2",
"L c #1899B2",
"P c #1898B3",
"I c #1999B2",
"U c #1898B3",
"Y c #999998",
"T c #9B9A9A",
"R c #662F88",
"E c #989897",
"W c #662D88",
"Q c #662E88",
"! c #1598B2",
"~ c #989897",
"^ c #9A9998",
"/ c #652D88",
"( c #1898B3",
") c #1798B3",
"_ c #999896",
"` c #755C8F",
"' c #326B9F",
"] c #1698B0",
"[ c #989796",
"{ c None",
/* pixels */
"{{{{{{{{{{{{{{{{{{{{{{{{{{{{{{{{{{{{{{{{{{{{{{{{{{{{{{{{{{{{{{{{{{{{{{{{{{{{{{{{",
"{{{{{{{{{{{{{{{{{{{{{{{{{{{{{{{{{{{{{{{{{{{{{{{{{{{{{{{{{{{{{{{{{{{{{{{{{{{{{{{{",
"{{{{{{{{{{{{{{{{{{{{{{{{{{{{{{{{{{{{{{{{{{{{{{{{{{{{{{{{{{{{{{{{{{{{{{{{{{{{{{{{",
"{{{{{{{{{C;OOOOOOOO;OOOOOOOOOOO;OOO&{{{{{{{{CtttttttttttttttttttttttttyJ{{{{{{{{",
"{{{{{{{{Mtttrttttttttttttttttttttttt {{{{{{Mtttttttttyttrtttttttttttttttn{{{{{{{",
"{{{{{{{{ttrtrrrttrrttrttrtrtrttrtttyt&{{{{{:tyttttttt/Cttttttttttttttttty{{{{{{{",
"{{{{{{{{ttttttttttttttttttttttttttttt&{{{{{:ttttttttO{{Jtrttttttttttttttt{{{{{{{",
"{{{{{{{{ttttttttttttttttttttttttttttt:{{{{{:tttttttt&{{{;trtttttttttttttr{{{{{{{",
"{{{{{{{{tttttttttttttttttttttttttttrt&{{{{{;trtttttrW{{{{tttttttttttttttt{{{{{{{",
"{{{{{{{{tttttttttttttttttttttttttttrt&{{{{{;ttttttt:{{{{{&ttttttttttttttt{{{{{{{",
"{{{{{{{{tttttttttttttttttttttttttttrt&{{{{{;ttttrtO{{{{{{{.tttttttttttttr{{{{{{{",
"{{{{{{{{tttttttttttttttttttttttttttrt:{{{{{:ttttttM{{{{{{{ntrtttttttttttt{{{{{{{",
"{{{{{{{{tttttttttttttttttttttttttttrt&{{{{{Otttttn{{{{{{{{{.ttttttttttttt{{{{{{{",
"{{{{{{{{tttttttttttttttttttttttttttrt&{{{{{:ttttn{{{{{{{{{{*trttttttttttr{{{{{{{",
"{{{{{{{{tttttttttttttttttttttttttttrt&{{{{{OtttJ{{{{{{{{{{{Cttttttttttttt{{{{{{{",
"{{{{{{{{tttttttttttttttttttttttttttrt&{{{{{:tO`{{{{{{{{{{{{{.trtttttttttt{{{{{{{",
"{{{{{{{{tttttttttttttttttttttttttttrt&{{{{{O*{{{{{{{{{{{{{{{Otttttttttttt{{{{{{{",
"{{{{{{{{tttttttttttttttttttttttttttrt&{{{{{{{{{{{{{{{{{{{{{{&trtttttttttt{{{{{{{",
"{{{{{{{{tttttttttttttttttttttttttttrt&{{{{{{{{{{{{{{{{{{{{{{ntrtttttttttt{{{{{{{",
"{{{{{{{{tttttttttttttttttttttttttttrt:{{{{{{{{{{{{{{{{{{{{{{Mtttttttttttt{{{{{{{",
"{{{{{{{{ttttttttttttttttttttttttrrttyM{{{{{{{{{{{{{{{{{{{{{{Mtttttttttttt{{{{{{{",
"{{{{{{{{ttttttttttttttttttttttrrttOn{{{{{{{{{{{{{{{{{{{{{{{{Wtttttttttttt{{{{{{{",
"{{{{{{{{tttttttttttttttttttttrrt+J{{{{{{{{{{{{{{{{{{{{{{{{{{/tttttttttttt{{{{{{{",
"{{{{{{{{tttttttttttttttttttrttyJ{{{{{{{{{{{{{{{{{{{{{{{{{{{{Mtttttttttttt{{{{{{{",
"{{{{{{{{tttttttttttttttttttttJ{{{{{{{{{{{{{{{{{{{{{{{{{{{{{{Jtttttttttttt{{{{{{{",
"{{{{{{{{ttttttttttttttttttt:W{{{{{{{{{{{{{{{{{{{{{{{{{{{{{{{&tttttttttttt{{{{{{{",
"{{{{{{{{ttttttttttttttttttJ{{{{{{{{{{{{{{{{{{{{{{{{{{{{{{{{{;trtttttttttt{{{{{{{",
"{{{{{{{{tttttttttttttttty{{{{{{{{{{{{{{{{{{{{{{{{{{{{{{{{{{{ytttttttttttt{{{{{{{",
"{{{{{{{{tttttttttttttrtO{{{{{{{{{{{{{{{{{{{{{{{{{{{{{{{{{{{Mrt+yttttttttt{{{{{{{",
"{{{{{{{{trtttttttttrrtO{{{{{{{{{{{{{{{{{{{{{{{{{{{{{{{{{{{{&ttMMtttttttty{{{{{{{",
"{{{{{{{{*ttttttttttrtO{{{{{{{{{{{{{{{{{{{{{{{{{{{{{{{{{{{{{rtt/WttttttttJ{{{{{{{",
"{{{{{{{{{& yyyyyyyyry{{{{{{{{{{{{{{{{{{{{{{{{{{{{{{{{{{{{{MOO:{{:OO:y::M{{{{{{{{",
"{{{{{{{{{{{'''''''{'{{{{{{{{{{{{{{{{{{{{{{{{{{{{{{{{{{{{{{{{{{{{{{{{{{{{{{{{{{{{",
"{{{{{{{{{{{{{{{{{{{{{{{{{{{{{{{{{{{{{{{{{{{{{{{{{{{{{{{{{{{{{{{{{{{{{{{{{{{{{{{{",
"{{{{{{{{{{{{{{{{{{{{{{{{{{{{{{{{{{{{{{{{{{{{{{{{{{{{{{{{{{{{{{{{{{{{{{{{{{{{{{{{",
"{{{{{{{{{{{{{{{{{{{{{{{{{{{{{{{{{{{{{{{{{{{{{{{{{{{{{{{{{{{{{{{{{{{{{{{{{{{{{{{{",
"{{{{{{{{{{]!'!(!L'{{{{{{{{{{{{{{{{{{{{{{{{{{{{{{{{{{{{{`MJM{{{{{{JQRJWM{{{{{{{{{",
"{{{{{{{{]fffffffff({{{{{{{{{{{{{{{{{{{{{{{{{{{{{{{{{{{Jttt`{{{{{&ttttttOW{{{{{{{",
"{{{{{{{{gfffffffff'{{{{{{{{{{{{{{{{{{{{{{{{{{{{{{{{{{Cttt`{{{{{{&ttttttty{{{{{{{",
"{{{{{{{{fffffffffh{{{{{{{{{{{{{{{{{{{{{{{{{{{{{{{{{{JttyM{{{{{{{Otttttttt{{{{{{{",
"{{{{{{{{fffffffffp{{{{{{{{{{{{{{{{{{{{{{{{{{{{{{{{{&ttr{{{{{{{{{ytttttttt{{{{{{{",
"{{{{{{{{fffffffff!{'{{{{{{{{{{{{{{{{{{{{{{{{{{{{{{ytt&{{{{{{{{{Jttttttttt{{{{{{{",
"{{{{{{{{fffffffff!{{{{{{{{{{{{{{{{{{{{{{{{{{{{{{CttrM{{{{{{{{{{&ttttttttt{{{{{{{",
"{{{{{{{{fffffffff'{{{{{{{{{{{{{{{{{{{{{{{{{{{{`yttM{{{{{{{{{{{{tttttttttt{{{{{{{",
"{{{{{{{{fffffffff'{{{{{{{{{{{{{{{{{{{{{{{{{{W-tt&{{{{{{{{{{{{{&tttttttttt{{{{{{{",
"{{{{{{{{fffffffff'{{{{{{{{{{{{{{{{{{{{{{{{{ntt&{{{{{{{{{{{{{{Mttttttttttt{{{{{{{",
"{{{{{{{{fffffffff{{{{{{{{{{{{{{{{{{{{{{{{{{*&{{{{{{{{{{{{{{{{Ottttttttttt{{{{{{{",
"{{{{{{{{fffffffff{{{{{{{{{{{{{{{{{{{{{{{{{{{{{{{{{{{{{{{{{{{&tttttttttttt{{{{{{{",
"{{{{{{{{fffffffff{{{{{{{{{{{{{{{{{{{{{{{{{{{{{{{{{{{{{{{{{{&ttttttttttttt{{{{{{{",
"{{{{{{{{fffffffff'{{{{{{{{{{{{{{{{{`hp{{{{{{{{{{{{{{{{{{{{btttttttttttttt{{{{{{{",
"{{{{{{{{fffffffff'{{{{{{{{{{{{{{{{SfA{{{{{{{{{{{{{{{{{{{Wtttttttttttttttt{{{{{{{",
"{{{{{{{{fffffffff!{{{{{{{{{{{{'{{hp`{{{{{{{{{{{{{{{{{{{&ttttttttttttttttt{{{{{{{",
"{{{{{{{{fffffffff]{{{{{{{{{{{{{Ah!{{{{{{{{{{{{{{{{{{QOttttttttttttttttttt{{{{{{{",
"{{{{{{{{fffffffffp{{{{{{{{{{{{Z>{{{{{{{{{{{{{{{{QV=tttttttttttttttttttttt{{{{{{{",
"{{{{{{{{fffffffff3{{{{{{{{{{{pZ{{{{{{{{{{{{WV=ttttttttttttttttttttttttttt{{{{{{{",
"{{{{{{{{ffffffffff{{{{{{{{{{pA{{{{{'('{{{{{yty=;&R`/ttttttttttttttttttttt{{{{{{{",
"{{{{{{{{ffffffffff]{{{{{{{{Lp{{{!phhh({{{{{{{{{{{{{&ttttttttttttttttttttc{{{{{{{",
"{{{{{{{{ffffffffffp{{{{{{{'1{')ppS!{{{{{{{{{{{{{{{`tttttttttttttttttttttt{{{{{{{",
"{{{{{{{{fffffffffff{{{{{{{p{LZ)'{{{{{{{{{{{{{{{{{{*tttttttttttttttttttttt{{{{{{{",
"{{{{{{{{fffffffffff){{{{{SpS){{{{{{{{{{{{{{{{{{{{:ttttttttttttttttttttttt{{{{{{{",
"{{{{{{{{ffffffffffff'{{{'fp{{{{{{{{{{{{{{{{{{{{{%tttttttttttttttttttttttt{{{{{{{",
"{{{{{{{{ffffffffffffs{'{)S{''L!L{{{{{{{{{{{{{{`Xttttttttttttttttttttttttt{{{{{{{",
"{{{{{{{{fffffffffffffL{{Zpfffffffs<p!{{{{{{`Nyttttttttttttttttttttttttttt{{{{{{{",
"{{{{{{{{sfffffffffffffZ!fffffffffffffp{{{{{Ntttttttttttttttttttttttttttt;{{{{{{{",
"{{{{{{{{)fffffffffffffffffffffffffffu{{{{{{{7cttttttttttlttttttttttttttt`{{{{{{{",
"{{{{{{{{{[LUULPKKUPKPPUUUUUIPPPPUIUS{{{{{{{{{~R//RMM//M/V_RMM/MMM/MNMMR{{{{{{{{{",
"{{{{{{{{{{{{{{{{{{{{{{{{{{{{{{{{{{{{{{{{{{{{{{{{{{{{{{{{{{{{{{{{{{{{{{{{{{{{{{{{",
"{{{{{{{{{{{`{{{`{{{{{{{{{{{{{{{{{{{{{{{{{{{{{{{{{{{{{{{{{{{{{{{{{{{{{{{{{{{{{{{{",
"{{{{{{{{{~{{{{{{E'{{{{{{{{{{{{{{{{{{{{{{{{{{{{{{T_{{{{{{{{{{{{{{{{{{{{{{{{{{{{{{",
"{{{{{{{{{l[{{{{`l'{{{{{{{{{{{{{{{{{{{{{{{{{{{{{{lw{{{{{{{`{{{{{{{{{{{{{{{{{{{{{{",
"{{{{{{{{`l8{`{{0l'{{`_[{{{{{{`{{{{{[[{{{{{{{{{{{l8{{{{{{~[{{{`{[~{{{`{`{`{{{{{{{",
"{{{{{{{{~5l`{{`9l~{[mDlF{{lHFe@{{`6[[#`{^l`{ml{{v7{{{{{.`DY{{lHDvz{{Tnblm{{{{{{{",
"{{{{{{{{~_#7{{T`lF{`{{^z{{lY{'l~{lT{{8l{_l`{~l{{67{{{{lD{{l~{lm{{l~{{{mj{{{{{{{{",
"{{{{{{{{7`{l`_~{l9{{~~7z{{l_{'l_{lF{{Fl{Fl{{_l{{v8{{{`l9DHl_{lE{{lF{{{l`{{{{{{{{",
"{{{{{{{{9_{7cT{{e8{Dv{Dl{{l_{[l~{lD{{Fl{Fl{{Dl{{l8{{{{lE{{{{{l_{`l~{{lD{{{{{{{{{",
"{{{{{{{{#{{Fl~{{7l{v7{Hl{{l^{[l~{0e{{vq{~l~{8l{{l#{``{8v{{`{{lF{[l~{7l{``{{{{{{{",
"{{{{{{{{9{{{T{{{_8{[lD~#`{6~{`6[{{TmmT{{{Glm~7{{Y0F8m{{9z9^{{7~{`6[`jmD89{{{{{{{",
"{{{{{{{{{{{{{{{{{{{{{{{{{{{{{{{{{{{{{{{{{{{{{{{{{{{{{{{{{{{{{{{{{{{{{{{{{{{{{{{{",
"{{{{{{{{{{{{{{{{{{{{{{{{{{{{{{{{{{{{{{{{{{{{{{{{{{{{{{{{{{{{{{{{{{{{{{{{{{{{{{{{",
"{{{{{{{{{{{{{{{{{{{{{{{{{{{{{{{{{{{{{{{{{{{{{{{{{{{{{{{{{{{{{{{{{{{{{{{{{{{{{{{{"
};
