/* XPM */
static char *xpm_[] = {
/* columns rows colors chars-per-pixel */
"80 80 66 1 ",
"  c #1969BC",
". c #1969BC",
"X c #1969BC",
"o c #1969BC",
"O c #0B60B8",
"+ c #1969BC",
"@ c #1969BC",
"# c #1969BC",
"$ c #055CB6",
"% c #1969BC",
"& c #0D61B8",
"* c #1969BC",
"= c #1969BC",
"- c #216EBE",
"; c #2470BF",
": c #1969BC",
"> c #1969BC",
", c #1969BC",
"< c #1969BC",
"1 c #1969BC",
"2 c #2A74C1",
"3 c #347BC4",
"4 c #1466BA",
"5 c #1969BC",
"6 c #1969BC",
"7 c #3D81C7",
"8 c #4384C8",
"9 c #528ECC",
"0 c #5791CE",
"q c #5E96D0",
"w c #699DD3",
"e c #6DA0D5",
"r c #79A8D8",
"t c #A8C7E6",
"y c #80ACDA",
"u c #8AB3DD",
"i c #90B7DF",
"p c #98BCE1",
"a c #9EC0E3",
"s c #A8C6E6",
"d c #B1CCE8",
"f c #BCD4EC",
"g c #C6D9EE",
"h c #CDDEF0",
"j c #D9E6F4",
"k c #E4EDF7",
"l c #EBF2F9",
"z c #FCFDFE",
"x c #CADDF0",
"c c #FFFFFF",
"v c #1969BC",
"b c #1969BC",
"n c #1969BC",
"m c #1969BC",
"M c #1969BC",
"N c #1969BC",
"B c #1969BC",
"V c #1969BC",
"C c #1969BC",
"Z c #1969BC",
"A c #1969BC",
"S c #1969BC",
"D c #1969BC",
"F c #1969BC",
"G c #1969BC",
"H c None",
/* pixels */
"HHHHHHHHHHHHHHHHHHHHHHHHHHHHHHHHHHHHHHHHHHHHHHHHHHHHHHHHHHHHHHHHHHHHHHHHHHHHHHHH",
"HHHHHHHHHHHHHHHHHHHHHHHHHHHHHHHHHHHHHHHHHHHHHHHHHHHHHHHHHHHHHHHHHHHHHHHHHHHHHHHH",
"HHHHHHHHHHHHHHHHHHHHHHHHHHHHHHHHHHHHHHHHHHHHHHHHHHHHHHHHHHHHHHHHHHHHHHHHHHHHHHHH",
"HHHHHHHHHHHHHHHHHHHHHHHHHHHHHHHHHHHHHHHHHHHHHHHHHHHHHHHHHHHHHHHHHHHHHHHHHHHHHHHH",
"HHHHHHHHHHHHHHHHHHHHHHHHHHHHHHHHHHHHHHHHHHHHHHHHHHHHHHHHHHHHHHHHHHHHHHHHHHHHHHHH",
"HHHHHHHHHHHHHHHHHHHHHHHHHHHHHHHHHHHHHHHHHHHHHHHHHHHHHHHHHHHHHHHHHHHHHHHHHHHHHHHH",
"HHHHHHHHHHHHHHHHHHHHHHHHHHHHHHHHHHHHHHHHHHHHHHHHHHHHHHHHHHHHHHHHHHHHHHHHHHHHHHHH",
"HHHHHHHHHHHHHHHHHHHHHHHHHHHHHHHHHHHHHHHHHHHHHHHHHHHHHHHHHHHHHHHHHHHHHHHHHHHHHHHH",
"HHHHHHHHHHHHHHHHHHHHHHHHHHHHHHHHHHHHHHHHHHHHHHHHHHHHHHHHHHHHHHHHHHHHHHHHHHHHHHHH",
"HHHHHHHHHHHHHHHHHHHHHHHHHHHHHHHHHHHHHHHHHHHHHHHHHHHHHHHHHHHHHHHHHHHHHHHHHHHHHHHH",
"HHHHHHHHHHHHHHHHHHHHHHHHHHHHHHHHHHHHHHHHHHHHHHHHHHHHHHHHHHHHHHHHHHHHHHHHHHHHHHHH",
"HHHHHHHHHHHHHHHHHHHHHHHHHHHHHHHHHHHHHHHHHHHHHHHHHHHHHHHHHHHHHHHHHHHHHHHHHHHHHHHH",
"HHHHHHHHHHHHHHHHHHHHHHHHHHHHHHHHHHHHHHHHHHHHHHHHHHHHHHHHHHHHHHHHHHHHHHHHHHHHHHHH",
"HHHHHHHHHHHHHHHHHHHHHHHHHHHHHHHHHHHHHHHHHHHHHHHHHHHHHHHHHHHHHHHHHHHHHHHHHHHHHHHH",
"HHHHHHHHHHHHHHHHHHHHHHHHHHHHHHHHHHHHHHHHHHHHHHHHHHHHHHHHHHHHHHHHHHHHHHHHHHHHHHHH",
"HHHHHHHHHHHHHHHHHHHHHHHHHHHHHHHHHHHHHHHHHHHHHHHHHHHHHHHHHHHHHHHHHHHHHHHHHHHHHHHH",
"HHHHHHHHHHHHHHHHHHHHHHHHHHHHHHHHHHHHHHHHHHHHHHHHHHHHHHHHHHHHHHHHHHHHHHHHHHHHHHHH",
"HHHHHHHHHHHHHHHHHHHHHHHHHHHHHHHHHHHHHHHHHHHHHHHHHHHHHHHHHHHHHHHHHHHHHHHHHHHHHHHH",
"HHHHHHHHHHHHHHHHHHHHHHHHHHHHHHHHHHHHHHHHHHHHHHHHHHHHHHHHHHHHHHHHHHHHHHHHHHHHHHHH",
"HHHHHHHHHHHHHHHHHHHHHHHHHHHHHHHHHHHHHHHHHHHHHHHHHHHHHHHHHHHHHHHHHHHHHHHHHHHHHHHH",
"HHHHHHHHHHHHHHHHHHHHHHHHHHHHHHHHHHHHHHHHHHHHHHHHHHHHHHHHHHHHHHHHHHHHHHHHHHHHHHHH",
"HHHHHHHHHHHHHHHHHHHHHHHHHHHHHHHHHHHHHHHHHHHHHHHHHHHHHHHHHHHHHHHHHHHHHHHHHHHHHHHH",
"HHHHHHHHHHHHHHHHHHHHHHHHHHHHHHHHHHHHHHHHHHHHHHHHHHHHHHHHHHHHHHHHHHHHHHHHHHHHHHHH",
"HHHHHHHHHHHHHHHHHHHHHHHHHHHHHHHHHHHHHHHHHHHHB B DHHHHHHHHHHHHHHHHHHHHHHHHHHHHHHH",
"HHH44444444444444444444xcct44444444444444@HvBHCCoHHHHHHHHHHHHHHHHHHHHHHHHHHHHHHH",
"HHH***-*--*-**2-***-**28ezd$---**2**2***-%HBB1*BDCHHHHHHHHHHHHHHHHHHHHHHHHHHHHHH",
"HHH&=***&$***&$&-***&&$$=ls$&&&*&$&******1HBHo-BDBHHHHHHHHHHHHHHHHHHHHHHHHHHHHHH",
"HHH833;&0r7&&9r9&**&3er8*zs-833&3r9******=HmBBoDoHHHHHHHHHHHHHHHHHHHHHHHHHHHHHHH",
"HHHhjzuahskeijakp&&uzkgkfzswjlkejpje&****1HHBoBovHHHHHHHHHHHHHHHHHHHHHHHHHHHHHHH",
"HHH&3zzp$$3zs&$*k3wza&$-szs&&szj32zf$2***1HHHHZHHHHHHHHHHHHHHHHHHHHHHHHHHHHHHHHH",
"HHH&2zj&*2$r2*-$pegz****$ff&&pz0$9zr&****1HHHHHHHHHHHHHHHHHHHHHHHHHHHHHHHHHHHHHH",
"HHH*3z8&*******&eulg&-***-e*&df$2&-******%HHHHHHHHHHHHHHHHHHHHHHHHHHHHHHHHHHHHHH",
"HHH&8r&**-*******3zg&*-***&-&r3&*****-***:HHHHHHHHHHHHHHHHHHHHHHHHHHHHHHHHHHHHHH",
"HHH---***********-q9******-*---*********-1HHHHHHHHHHHHHHHHHHHHHHHHHHHHHHHHHHHHHH",
"HHH-**-******-****&&-*******-*-*********-:HHHHHHHHHHHHHHHHHHHHHHHHHHHHHHHHHHHHHH",
"HHH************-**-*********************;&HHHHHHHHHHHHHHHHHHHHHHHHHHHHHHHHHHHHHH",
"HHH-*************************************:HHHHHHHHHHHHHHHHHHHHHHHHHHHHHHHHHHHHHH",
"HHH-*-*******-*******-*******-*****-*****$HHHHHHHHHHHHHHHHHHHHHHHHHHHHHHHHHHHHHH",
"HHH-2--;-2**;--;-;**;--;-2**;--2**;---**3&HHHHHHHHHHHHHHHHHHHHHHHHHHHHHHHHHHHHHH",
"HHHFGGFGFGFFGFFFFFFHGGFFFGFFGGFGFFFFFFHDGFHHHHHHHHHHHHHHHHHHHHHHHHHHHHHHHHHHHHHH",
"HHHHHHHHHHHHHHHHHHHHHHHHHHHHHHHHHHHHHHHHHHHHHHHHHFHHHHHHHHHHHHHHHHHHHHHHHHHHHHHH",
"HHHHHHHHHHHHHHHHHHHHHHHHHHHHHFHHHHHHHHHHFHHHHHHHHHHFHHHHHHHHHHHHHHHHHHHHHHHHHHHH",
"HHHHHHHHHHHHHHHHHHHHHHHHHHHHHHHHHHHHHHHHHHHHHHHHHvCDHHHHHHHHHHHHHHHHHHHHHHHHHHHH",
"HHHHHHHHHHHHHHHHHHHHHHHFHHHHHFFHHHFFHHHFFFFFFHFFH4CSHHHHHHHHFHHHHHHZHHDZHHHHHHHH",
"HHHHHHHHHHHHHHHHHHHHHHH=*HB-Zo--CF:&:GHG**-n*FOCn4H=F%**Gn<D2DCOH@==D@=1m>1H1HHH",
"HHHHHHHHHHHHHHHHHHHHHHH:2G<;D, A2G-D:5HHH;vZ2F&N4,H2H*Z%44<D-4V4C2HHH>+HH%-C=HHH",
"HHHHHHHHHHHHHHHHHHHHHHH,:44&v$4H-v&-&FHHH-FF-&-CB>H2F*=%H44D$<:444Z1v4*>D>>41HHH",
"HHHHHHHHHHHHHHHHHHHHHHH:C3b*Z4 F-F$C%GHHF2ZG-F:b >H-F*C-F4>Z4B2mC%H=C4@HH>B%=HHH",
"HHHHHHHHHHHHHHHHHHHHHHH-Z2D-D,2;OH3S4$HHF3AF2H$4Z;$5H3A$4C%D&F34H*>=B4=4m=D>*HHH",
"HHHHHHHHHHHHHHHHHHHHHHHGFGFGFFAZHHZHHZHHHDFFGHFGFZSHFAFFZFZFFHZFHHBmHZmCHDHZmHHH",
"HHHHHHHHHHHHHHHHHHHHHHHHHHHHHHHHHHHHHHFHHHHHHHHHHHHHHHHHHHHHHHHHHHHHHHHHHHHHHHHH",
"HHHHHHHHHHHHHHHHHHHHHHHHHHHHHHHHHHHHHHHHHHHHHHHHHHFHHHHHHHHHHHHHHHHHHHHHHHHHHHHH",
"HHHHHHHHHHHHHHHHHHHHHHHGCvHHHmHHHbBFHHbCDHHDSHFSCDFFmFHbmHHHHHHHHHHHHHHHHHHHHHHH",
"HHHHHHHHHHHHHHHHHHHHHHH=&;4Hm24H&,4GHF2O2vH-2FF;$3CD2F4$*4HFHHHHHHHHHHHHHHHHHHHH",
"HHHHHHHHHHHHHHHHHHHHHHH&ZA2FOO$H*OHHHF2G-SG$<nH-HB;D*G2FG3FHHHHHHHHHHHHHHHHHHHHH",
"HHHHHHHHHHHHHHHHHHHHHHH&vF;G*n-HH$3FHH**&HB4o>H2FA*A&G-HF-FHHHHHHHHHHHHHHHHHHHHH",
"HHHHHHHHHHHHHHHHHHHHHHH*CM*b;42MHF2DHF2D*F<&4*Z3D4<Z;G2AB-HHHHHHHHHHHHHHHHHHHHHH",
"HHHHHHHHHHHHHHHHHHHHHHH<2&F .HV4424HHF-G441FH<S<2$HG&Hv*-AHHHHHHHHHHHHHHHHHHHHHH",
"HHHHHHHHHHHHHHHHHHHHHHHHHHHHHHHHHHHHHHHHHHHHHHHHHHHHHHHHHHHHHHHHHHHHHHHHHHHHHHHH",
"HHHHHHHHHHHHHHHHHHHHHHHHHHHHHHHHHHHHHHHHHHHHHHHHHHHHHHHHHHHHHHHHHHHHHHHHHHHHHHHH",
"HHHHHHHHHHHHHHHHHHHHHHHHHHHHHHHHHHHHHHHHHHHHHHHHHHHHHHHHHHHHHHHHHHHHHHHHHHHHHHHH",
"HHHHHHHHHHHHHHHHHHHHHHHHHHHHHHHHHHHHHHHHHHHHHHHHHHHHHHHHHHHHHHHHHHHHHHHHHHHHHHHH",
"HHHHHHHHHHHHHHHHHHHHHHHHHHHHHHHHHHHHHHHHHHHHHHHHHHHHHHHHHHHHHHHHHHHHHHHHHHHHHHHH",
"HHHHHHHHHHHHHHHHHHHHHHHHHHHHHHHHHHHHHHHHHHHHHHHHHHHHHHHHHHHHHHHHHHHHHHHHHHHHHHHH",
"HHHHHHHHHHHHHHHHHHHHHHHHHHHHHHHHHHHHHHHHHHHHHHHHHHHHHHHHHHHHHHHHHHHHHHHHHHHHHHHH",
"HHHHHHHHHHHHHHHHHHHHHHHHHHHHHHHHHHHHHHHHHHHHHHHHHHHHHHHHHHHHHHHHHHHHHHHHHHHHHHHH",
"HHHHHHHHHHHHHHHHHHHHHHHHHHHHHHHHHHHHHHHHHHHHHHHHHHHHHHHHHHHHHHHHHHHHHHHHHHHHHHHH",
"HHHHHHHHHHHHHHHHHHHHHHHHHHHHHHHHHHHHHHHHHHHHHHHHHHHHHHHHHHHHHHHHHHHHHHHHHHHHHHHH",
"HHHHHHHHHHHHHHHHHHHHHHHHHHHHHHHHHHHHHHHHHHHHHHHHHHHHHHHHHHHHHHHHHHHHHHHHHHHHHHHH",
"HHHHHHHHHHHHHHHHHHHHHHHHHHHHHHHHHHHHHHHHHHHHHHHHHHHHHHHHHHHHHHHHHHHHHHHHHHHHHHHH",
"HHHHHHHHHHHHHHHHHHHHHHHHHHHHHHHHHHHHHHHHHHHHHHHHHHHHHHHHHHHHHHHHHHHHHHHHHHHHHHHH",
"HHHHHHHHHHHHHHHHHHHHHHHHHHHHHHHHHHHHHHHHHHHHHHHHHHHHHHHHHHHHHHHHHHHHHHHHHHHHHHHH",
"HHHHHHHHHHHHHHHHHHHHHHHHHHHHHHHHHHHHHHHHHHHHHHHHHHHHHHHHHHHHHHHHHHHHHHHHHHHHHHHH",
"HHHHHHHHHHHHHHHHHHHHHHHHHHHHHHHHHHHHHHHHHHHHHHHHHHHHHHHHHHHHHHHHHHHHHHHHHHHHHHHH",
"HHHHHHHHHHHHHHHHHHHHHHHHHHHHHHHHHHHHHHHHHHHHHHHHHHHHHHHHHHHHHHHHHHHHHHHHHHHHHHHH",
"HHHHHHHHHHHHHHHHHHHHHHHHHHHHHHHHHHHHHHHHHHHHHHHHHHHHHHHHHHHHHHHHHHHHHHHHHHHHHHHH",
"HHHHHHHHHHHHHHHHHHHHHHHHHHHHHHHHHHHHHHHHHHHHHHHHHHHHHHHHHHHHHHHHHHHHHHHHHHHHHHHH",
"HHHHHHHHHHHHHHHHHHHHHHHHHHHHHHHHHHHHHHHHHHHHHHHHHHHHHHHHHHHHHHHHHHHHHHHHHHHHHHHH",
"HHHHHHHHHHHHHHHHHHHHHHHHHHHHHHHHHHHHHHHHHHHHHHHHHHHHHHHHHHHHHHHHHHHHHHHHHHHHHHHH",
"HHHHHHHHHHHHHHHHHHHHHHHHHHHHHHHHHHHHHHHHHHHHHHHHHHHHHHHHHHHHHHHHHHHHHHHHHHHHHHHH"
};
