/* XPM */
static char *xpm_[] = {
/* columns rows colors chars-per-pixel */
"80 80 87 1 ",
"  c #060606",
". c #061616",
"X c #151515",
"o c #111111",
"O c #1A1A1A",
"+ c #251C1C",
"@ c #192D2D",
"# c #252525",
"$ c #312626",
"% c #2D3434",
"& c #2A2A2A",
"* c #111111",
"= c #1A1919",
"- c #1D1D1D",
"; c #262525",
": c #282828",
"> c #424242",
", c #2C2C2C",
"< c #413A3A",
"1 c #471D1D",
"2 c #4E2B2B",
"3 c #5A2C2C",
"4 c #4B3131",
"5 c #543131",
"6 c #793737",
"7 c #6C5050",
"8 c #252525",
"9 c #2E2E2E",
"0 c #343434",
"q c #565050",
"w c #353535",
"e c #565F5F",
"r c #2C2C2C",
"t c #363636",
"y c #3D3D3D",
"u c #454545",
"i c #8A3535",
"p c #9E3939",
"a c #AB2F2F",
"s c #A73333",
"d c #BD3232",
"f c #FE0101",
"g c #FD1515",
"h c #FF2020",
"j c #D72E2E",
"k c #E03A3A",
"l c #E92626",
"z c #FE2727",
"x c #FC3535",
"c c #FF2626",
"v c #FF2727",
"b c #FF3939",
"n c #FF4141",
"m c #9D4B4B",
"M c #A84343",
"N c #D24C4C",
"B c #C55656",
"V c #E84747",
"C c #FF3C3C",
"Z c #FF4A4A",
"A c #FF3B3B",
"S c #FF5555",
"D c #FF7D7D",
"F c #393939",
"G c #4B4B4B",
"H c #4E4E4E",
"J c #777777",
"K c #525252",
"L c #888888",
"P c #515151",
"I c #666666",
"U c #676767",
"Y c #969696",
"T c #8A8A8A",
"R c #97AAAA",
"E c #B6B6B6",
"W c #FF6B6B",
"Q c #FF8181",
"! c #FFA1A1",
"~ c #7A7A7A",
"^ c #9E9E9E",
"/ c #A9ADAD",
"( c #FEA5A5",
") c #E1E1E1",
"_ c #D7D7D7",
"` c #E3E2E2",
"' c None",
/* pixels */
"''''''''''''''''''''''''''''''''''''''''''''''''''''''''''''''''''''''''''''''''",
"''''''''''''''''''''''''''''''''''''''''''''''''''''''''''''''''''''''''''''''''",
"''''''''''''''''''''''''''''''''''''''''''''''''''''''''''''''''''''''''''''''''",
"''''''''''''''''''''''''''''''''''''''''''''''''''''''''''''''''''''''''''''''''",
"''''''''''''''''''''''''''''''''''''''''''''''''''''''''''''''''''''''''''''''''",
"''''''''''''''''''''''''''''''''''''''''''''''''''''''''''''''''''''''''''''''''",
"''''''''''''''''''''''''''''''''''''''''''''''''''''''''''''''''''''''''''''''''",
"''''''''''''''''''''''''''''''''''''''''''''''''''''''''''''''''''''''''''''''''",
"''''''''''''''''''''''''''''''''''''''''''''''''''''''''''''''''''''''''''''''''",
"''''''''''''''''''''''''''''''''''''''''''''''''''''''''''''''''''''''''''''''''",
"''''''''''''''''''''''''''''''''''''''''''''''''''''''''''''''''''''''''''''''''",
"''''''''''''''''''''''''''''''''''''''''''''''''''''''''''''''''''''''''''''''''",
"''''''''''''''''''''''''''''''''''''''''''''''''''''''''''''''''''''''''''''''''",
"''''''''''''''''''''''''''''''''''''''''''''''''''''''''''''''''''''''''''''''''",
"''''''''''''''''''''''''''''''''''''''''''''''''''''''''''''''''''''''''''''''''",
"''''''''''''''''''''''''''''''''''''''''''''''''''''''''''''''''''''''''''''''''",
"''''''''''''''''''''''''''''''''''''''''''''''''''''''''''''''''''''''''''''''''",
"''''''''''''''''''''''''''''''''''''''''''''''''''''''''''''''''''''''''''''''''",
"''''''''''''''''''''''''''''''''''''''''''''''''''''''''''''''''''''''''''''''''",
"''''''''''''''''''''''''''''''''''''''''''''''''''''''''''''''''''''''''''''''''",
"''''''''''''''''''''''''''''''''''''''''''''''''''''''''''''''''''''''''''''''''",
"''''''''''''''''''''''''''''''''''''''''''''''''''''''''''''''''''''''''''''''''",
"''''''''''''''''''''''''''''''''''''''''''''''''''''''''''''''''''''''''''''''''",
"''''''''''''''''''''''''''''''''''''''''''''''''''''''''''''''''''''''''''''''''",
"''''''''''''''''''''''''''''''''''''''''''''''''''''''''''''''''''''''''''''''''",
"''''''''''''''''''''''''''''''''''''''''''''''''''''''''''''''''''''''''''''''''",
"''''''''''''''''''''''''''''''''''''''''''''''''''''''''''''''''''''''''''''''''",
"''''''''''''''''''''''''''''''''''''''''''''''''''''''''''''''''''''''''''''''''",
"''''''''''''''''''''''''''''''''''''''''''''''''''''''''''''''''''''''''''''''''",
"''''''''''''''''''''''''''''''''''''''''''''''''''''''''''''''''''' ''''''''''''",
"''''''''''''''''''''''''''''''''''''''''''''''''''''''''''''''''''''''''''''''''",
"'''''''''''''''''''''''''''''''''''''''''''''''''''''''''''''/!!''X '+ '**''''''",
"'''''''''''''''''''''''''^''''''''''''''''''''''''''''''''''MhhgggggggggggQ'''''",
"''''''''''''''''''''''''Pe)'ww''''''''''''''''''''''''''''''jfffkfffffffffA'''''",
"''''''''''''''''''''''''_X:'#&'''''''''''''''''''''''''''''/lffi%gffffffffA'''''",
"''''''P^'K''K''''UU''''^Uow'8K''^_K'''^KP''^^'U'''/UU'''U'/_cfxO+xhlgfglgfA'''''",
"'''''/O<> y# :''&oo;'^# & *'X:'yoXow'KOXow'O&& -'^OooO^PO>#Rbf6  $B.ig5@lfA'''''",
"'''''Po %o + o^8oyr KK *O <' X',oU= /-XUyr^o -* UyXKy r^ o&UvfM  6x 1xo2gfA'''''",
"'''''^X-'X '8o/*oKy wy UUo:'XO''Kw* Uw owP'Xo^F y'UK= 8U -''cfz++zf3*N sffA'''''",
"'''''Po:'O#'=oU* ;=*yy U'X-/X&'Oo:O P'wo X/*X'P KKXXwor^ :'/Vfg++gfao7olffA'''''",
"'''''^o='OO':o/*oUUy/r yTO#/X=/ -'* UUy^w U= y8 U= /P#+' 8'>@dg+oVflO 2gffA'''''",
"'''''Uo='OX'Xo/KoooX/^* L<;'oO/X #+ U: -oO'=o& X'= O4q^* :^Y af2 @gf4 sfffb'''''",
"''''''yF'yy'Py''K8wP''Pw#=T'yK'PwF/y^'y-y^'#OwwU''ywUK+'yU'Fmlfj6pgfjphffz!'''''",
"'''''''''''''''''''''''''''''''''''''''''''XO'''''''''''''''cfffffffffffz!''''''",
"'''''''''''''''''''''''''''''''''''''''''''&&/''''''''''''''lffffffffffz/'''''''",
"''''''''''''''''''''''''''''''''''''''''''''''''''''''''''''Qlfgbbbbbbb!''''''''",
"'''''''''''''''''''''''''''''''''''''''''''''''''''''''''''''xg~''''''''''''''''",
"''''''''''''''''''''''''''''''''''''''''''''''''''''''''''''SV^'''''''''''''''''",
"'''''''''''''''''''''''''''''''''''''''''''''''''''''''''''Fm'''''''''''''''''''",
"'''''''''''''''''''''''''''''''''''''''''''''''''''''''''''_''''''''''''''''''''",
"''''''''''''''''''''''''''''''''''''''''''''''''''''''''''''''''''''''''''''''''",
"''''''''''''''''''''''''''''''''''''''''''''''''''''''''''''''''''''''''''''''''",
"''''''''''''''''''''''''''''''''''''''''''''''''''''''''''''''''''''''''''''''''",
"''''''''''''''''''''''''''''''''''''''''''''''''''''''''''''''''''''''''''''''''",
"''''''''''''''''''''''''''''''''''''''''''''''''''''''''''''''''''''''''''''''''",
"''''''''''''''''''''''''''''''''''''''''''''''''''''''''''''''''''''''''''''''''",
"''''''''''''''''''''''''''''''''''''''''''''''''''''''''''''''''''''''''''''''''",
"''''''''''''''''''''''''''''''''''''''''''''''''''''''''''''''''''''''''''''''''",
"''''''''''''''''''''''''''''''''''''''''''''''''''''''''''''''''''''''''''''''''",
"''''''''''''''''''''''''''''''''''''''''''''''''''''''''''''''''''''''''''''''''",
"''''''''''''''''''''''''''''''''''''''''''''''''''''''''''''''''''''''''''''''''",
"''''''''''''''''''''''''''''''''''''''''''''''''''''''''''''''''''''''''''''''''",
"''''''''''''''''''''''''''''''''''''''''''''''''''''''''''''''''''''''''''''''''",
"''''''''''''''''''''''''''''''''''''''''''''''''''''''''''''''''''''''''''''''''",
"''''''''''''''''''''''''''''''''''''''''''''''''''''''''''''''''''''''''''''''''",
"''''''''''''''''''''''''''''''''''''''''''''''''''''''''''''''''''''''''''''''''",
"''''''''''''''''''''''''''''''''''''''''''''''''''''''''''''''''''''''''''''''''",
"''''''''''''''''''''''''''''''''''''''''''''''''''''''''''''''''''''''''''''''''",
"''''''''''''''''''''''''''''''''''''''''''''''''''''''''''''''''''''''''''''''''",
"''''''''''''''''''''''''''''''''''''''''''''''''''''''''''''''''''''''''''''''''",
"''''''''''''''''''''''''''''''''''''''''''''''''''''''''''''''''''''''''''''''''",
"''''''''''''''''''''''''''''''''''''''''''''''''''''''''''''''''''''''''''''''''",
"''''''''''''''''''''''''''''''''''''''''''''''''''''''''''''''''''''''''''''''''",
"''''''''''''''''''''''''''''''''''''''''''''''''''''''''''''''''''''''''''''''''",
"''''''''''''''''''''''''''''''''''''''''''''''''''''''''''''''''''''''''''''''''",
"''''''''''''''''''''''''''''''''''''''''''''''''''''''''''''''''''''''''''''''''",
"''''''''''''''''''''''''''''''''''''''''''''''''''''''''''''''''''''''''''''''''",
"''''''''''''''''''''''''''''''''''''''''''''''''''''''''''''''''''''''''''''''''",
"''''''''''''''''''''''''''''''''''''''''''''''''''''''''''''''''''''''''''''''''",
"''''''''''''''''''''''''''''''''''''''''''''''''''''''''''''''''''''''''''''''''"
};
