/* XPM */
static char *xpm_[] = {
/* columns rows colors chars-per-pixel */
"80 80 47 1 ",
"  c #010101",
". c #151515",
"X c #262626",
"o c #363636",
"O c #494949",
"+ c #595959",
"@ c #696969",
"# c #727272",
"$ c #08BFE7",
"% c #02BDE6",
"& c #03BEE6",
"* c #01BCE6",
"= c #0DC0E7",
"- c #16C2E8",
"; c #27C7EA",
": c #38CBEB",
"> c #45CEED",
", c #4CD0ED",
"< c #58D3EE",
"1 c #62D6EF",
"2 c #6AD8F0",
"3 c #78DBF2",
"4 c #05BEE6",
"5 c #888888",
"6 c #999999",
"7 c #A6A6A6",
"8 c #B7B7B7",
"9 c #83DFF3",
"0 c #8DE1F4",
"q c #98E4F5",
"w c #A8E8F6",
"e c #B7ECF8",
"r c #CACACA",
"t c #D7D7D7",
"y c #C3EFF9",
"u c #CBF1FA",
"i c #D6F4FB",
"p c #E7E7E7",
"a c #E9F9FD",
"s c #FEFEFE",
"d c #0EC0E7",
"f c #07BFE7",
"g c #08BFE7",
"h c #08BFE7",
"j c #08BFE7",
"k c #0DC0E7",
"l c None",
/* pixels */
"llllllllllllllllllllllllllllllllllllllllllllllllllllllllllllllllllllllllllllllll",
"llllllllllllllllllllllllllllllllllllllllllllllllllllllllllllllllllllllllllllllll",
"llllllllllllllllllllllllllllllllllllllllllllllllllllllllllllllllllllllllllllllll",
"lllllk4%%%%%&&&&%%%%%*%%&&&&%%%%&&&&%%*%*%%%%%%%&&&&*%%%%%%%%%%*%%%%*%%%=d.lllll",
"llllf****=**=***********==***=*****==**=********==***=***=**=*********=*==*kllll",
"llld=*******==*****=*****=****=*****==*****=*****=****=*****==****=*****===*klll",
"lll4******=**==*=************=**=*******=**=*=*******=*******==*=**==***==**4lll",
"lll%*****=***************=*=*******=**=*********=**=*****==*************==**=lll",
"lll%**=***************************=**************************************=**&lll",
"lll%****=**==**=****************=*=*******=**************=*****=***********=&lll",
"lll%=*****=**********************************&*********&********************&lll",
"lll%**=*******->>>>:>>>>>>>>>>>>>>:>>>>,>>,,,>>>,>,,,,>>>,>,,,,,<;****>21===&lll",
"lll&**=*****=*3ssssssssssssssssssssssssssssssssssssssssssssssssss9***-iii-**&lll",
"lll&********=*2ssssssssssssssssssssssssssssssssssssssssssssssssss3***;equ;**&lll",
"lll&**********2sssssspsssssssssssssssssssssssssssssssasssssssssss9*=*=9<q=**%lll",
"lll&=**=******3ssssssssssssssssssssssssssssssssssssssssssssssssss3***-u:-***%lll",
"lll&=*=*****=*3ssr@##############sptsssssss#####@########@rttssss3****uau***%lll",
"lll&==***==***2ss6               oa@+tssssO               65 7sss9***>9;0;**%lll",
"lll&=*=*******2ss7                Oso +psO                76  pss9***asia****lll",
"lll&******=***3ss7                 +sX.s+                 66 .pss9****<>****%lll",
"lll***=****=**2ss7                  @ss#                  66 .pss3&****a****%lll",
"lll%*********&3ss7                 . ##                   66 .pss9*****1;***%lll",
"lll%***=******3ss7                                        66 .pss9**>i*,s-**%lll",
"lll%=*********2ss7                                        66 .ass9***9ss,***%lll",
"lll%*****=****3ss7                                OprX  . 66 rsss9***iyie***&lll",
"lll%=**=******3ss7                               #sss@    655ssss3**;9**w;**&lll",
"lll%**=**==***3ss7                           +5+rsss5     6psssss9********=*&lll",
"lll%**********2ss7                          XsssssrX      5ssssss9&**;******&lll",
"lll&==******=*2ss7                          @sssp+ ..     8ssssss9**;u3*****&lll",
"lll&=*=**=****2ss7                        .7ssss5 5spX   Osss#tss9****<q0***&lll",
"lll&**=**=*=**3ss7                       #psssss5.sss5   tssr pss9***-a00-**&lll",
"lll&**********3ss7                    .#tsst+rss5 sss8  +ssso pss9***-i32-**&lll",
"lll%=********&2ss7                   ossss7. #ss6 tssr  rss7 .pss9****0ew***&lll",
"lll***********3ss7                   Osss@   #ss7 6ssp Osss# .pss3******&***&lll",
"lll%**********3ss7                    @6X .  #ss8 osss 7sss5 .pss9****-;;***&lll",
"lll%**********2ss7                           #ssr  tss8psap5 .pss9&***y<u***&lll",
"lll%**********3ss7               +        @  5sst  #sssssr76 .pss9***;i;i:**%lll",
"lll%*****===**2ss7               tr      8p  5sst  Xssass556 .pss9***&3a9***%lll",
"lll%**********2ss7               rstX  Xpsr  6sst   8sssso56  pss9**;99eq***%lll",
"lll*****<<<1;&3ss7               rO#soXa#ot  8sst   Osssa 66 .pss9***19qq***&lll",
"lll%=**-ssss9*3ss7               r+ 8sss5tt  8sst    pss8 76 .pss3****9wu***&lll",
"lll%==*=asss3&3ss7               t+ 7ssssst  8ssr    +trX 66 .pss9***;aee:*=&lll",
"lll%***-asss3*3ss6               r+ 7sssssr  8ssr         66  pss9****w33=**&lll",
"lll%=**-asss3*2ss8.XXXXXXXX.XXXX.t# 8ssssstX.8sspX.XXXX.X.77.opss9****yie===&lll",
"lll%***-asss3*3sssasssssssssssssssssssssssssssssssssssssssss5rsss9***=,,i;**&lll",
"lll****=asss3&3sssssssssssssssssssssssssssssssssssssssssssssppsss3***=wei-**&lll",
"lll%*=*-asss3&2ssssssssssssssasssssssssssssssssssssssssssssssssas3*=**2q2***&lll",
"lll%***=asss3**issssssssssssssssssssssssssssssssssssssssssssssssa-***-uee-**&lll",
"lll%****ssss3***2999999999990999999999090000000q9000900000wqq0q9;*****y21***&lll",
"lll%***-asss3*******&****&*********&***&**************&********&******iye***&lll",
"lll%****asss2&*****************************&*************************;a22***&lll",
"lll%;wwwssssuwwee;;ewwwwwwwq9***2ewwwwwwwwwq1****:ewwe3******;wwweq***wee-**%lll",
"lll%:ssssssssssss:,ssssssssssa;*essssssssssssa<***issss<*****issss2*********%lll",
"lll%;ssssssssssss:>ssssssssssse&essssssssssssss<***assss;**&qsass0*****;;***%lll",
"lll%-wwwssssuqwww;,ssssq99asssi*9ueyyyyyyisssssa**&,ssssu**2ssssi*****uai***%lll",
"lll*****asss2*****<ssss*&&<sssa****&******;ussss>***9ssss9*sssss:****:eqe;**%lll",
"lll%***;asss3*****<ssss;**>ssss************>ssss3****yssssassss1***=*=00i=**&lll",
"lll%****asss3*****<ssss;**:ssss********-**-:ssss9*=**-asssssssw**=***-e****=&lll",
"lll%***;asss3*****<ssss;***1<<,**:quaassaaaassss9*****,ssssssi*******=aay-**&lll",
"lll%****ssss3*****<ssss;********3sssssssssssssss3******9sssss:****=**=3:0-==&lll",
"lll****-asss3*****<ssss;*******>ssssssssssssssss9******usssss<*****=*ysea-**%lll",
"lll%***;asss3*****<ssss;*******wsssse<>>>>><ssss9&****qsssssss;******<q<:***%lll",
"lll%****asss9*****<ssss;*******ysssa*******;ssss9****<ssssssssi*******=e***=%lll",
"lll%****asssu*****<ssss;*******ysssa&*******asss9***-ssssayssss0******-w****%lll",
"lll%=*=*ussss0::>*,ssss;**=****wssss0;-----:ssss3***ussss<*assss,***:q**e;**%lll",
"lll%=***0sassssss:>ssss;*****=*<ssssssssssssssss9**9ssssq**:sssss-***eiaq***%lll",
"lll=****=isssasas:>sass;********esssssssssssssss9*,ssssi****3ssssy***qss2***%lll",
"lll$*****-wasssss:>ssss;*********0asssssssssssss3*sssss;***=*wssss0*:y*:i;*=*lll",
"llllj=*****-:>>:>==>>>>***=**=****=:>>:>>>>>>>>,;*,>>>;***=***>:>>>******=**%lll",
"lllll$=*****************=********=***********************=**************=***%lll",
"llllllj=******=********=******=*******=************************=**=*******==%lll",
"llllllld******==**=*******=**=****************************=**==**********=*=%lll",
"llllllllj=======****=**==**************==**=*=****************=*******=*=***%lll",
"llllllllkd=======*=*******=*=**==**==**********=*****==**==********=*******=4lll",
"lllllllllld=====******=*****=*****==**********=*******==*****====****===****dlll",
"lllllllllll4====**=***==*=********==***=****=*==***=***==******=*******=***fllll",
"lllllllllllld===%%%%&&&&%%*%%%%%&&&%&%%%%%%**%%%%%%*%%%&%%%%*%%%%%%%*%%%%4dlllll",
"llllllllllllllllllllllllllllllllllllllllllllllllllllllllllllllllllllllllllllllll",
"llllllllllllllllllllllllllllllllllllllllllllllllllllllllllllllllllllllllllllllll",
"llllllllllllllllllllllllllllllllllllllllllllllllllllllllllllllllllllllllllllllll"
};
