/* XPM */
static char *xpm_[] = {
/* columns rows colors chars-per-pixel */
"80 80 213 2 ",
"   c #000000",
".  c #010101",
"X  c #000000",
"o  c #020202",
"O  c #030303",
"+  c #000000",
"@  c #040404",
"#  c #050505",
"$  c #060606",
"%  c #060606",
"&  c #000000",
"*  c #000000",
"=  c #010101",
"-  c #070707",
";  c #080808",
":  c #0B0B0B",
">  c #0D0D0D",
",  c #0C0C0C",
"<  c #121212",
"1  c #151515",
"2  c #131313",
"3  c #181818",
"4  c #1B1B1B",
"5  c #1A1A1A",
"6  c #1E1E1E",
"7  c #1C1C1C",
"8  c #1A1A1A",
"9  c #070707",
"0  c #212121",
"q  c #232323",
"w  c #252525",
"e  c #262626",
"r  c #292929",
"t  c #2D2D2D",
"y  c #2C2C2C",
"u  c #323232",
"i  c #363636",
"p  c #353535",
"a  c #393939",
"s  c #3E3E3E",
"d  c #3C3C3C",
"f  c #3C3C3C",
"g  c #292929",
"h  c #3E3E3E",
"j  c #151515",
"k  c #464646",
"l  c #4C4C4C",
"z  c #2D2D2D",
"x  c #414141",
"c  c #464646",
"v  c #454545",
"b  c #4A4A4A",
"n  c #4E4E4E",
"m  c #4C4C4C",
"M  c #555555",
"N  c #525252",
"B  c #5A5A5A",
"V  c #5D5D5D",
"C  c #5C5C5C",
"Z  c #656565",
"A  c #4C4C4C",
"S  c #626262",
"D  c #656565",
"F  c #626262",
"G  c #696969",
"H  c #6D6D6D",
"J  c #6F6F6F",
"K  c #6C6C6C",
"L  c #727272",
"P  c #767676",
"I  c #7A7A7A",
"U  c #7E7E7E",
"Y  c #7F7F7F",
"T  c #818181",
"R  c #7B7B7B",
"E  c #747474",
"W  c #7B7B7B",
"Q  c #4E4E4E",
"!  c #555555",
"~  c #656565",
"^  c #6D6D6D",
"/  c #585858",
"(  c #5D5D5D",
")  c #5F5F5F",
"_  c #6E6E6E",
"`  c #7A7A7A",
"'  c #818181",
"]  c #2A2A2A",
"[  c #161616",
"{  c #393939",
"}  c #393939",
"|  c #3B3B3B",
" . c #4F4F4F",
".. c #505050",
"X. c #151515",
"o. c #0D0D0D",
"O. c #242424",
"+. c #0A0A0A",
"@. c #151515",
"#. c #2A2A2A",
"$. c #393939",
"%. c #464646",
"&. c #494949",
"*. c #5C5C5C",
"=. c #7A7A7A",
"-. c #828282",
";. c #868686",
":. c #878787",
">. c #898989",
",. c #8E8E8E",
"<. c #8F8F8F",
"1. c #888888",
"2. c #909090",
"3. c #929292",
"4. c #969696",
"5. c #969696",
"6. c #999999",
"7. c #9D9D9D",
"8. c #9E9E9E",
"9. c #9E9E9E",
"0. c #969696",
"q. c #9C9C9C",
"w. c #A1A1A1",
"e. c #9F9F9F",
"r. c #979797",
"t. c #A2A2A2",
"y. c #A1A1A1",
"u. c #A5A5A5",
"i. c #A7A7A7",
"p. c #A7A7A7",
"a. c #A9A9A9",
"s. c #ABABAB",
"d. c #AFAFAF",
"f. c #ADADAD",
"g. c #AFAFAF",
"h. c #ABABAB",
"j. c #B1B1B1",
"k. c #B3B3B3",
"l. c #B6B6B6",
"z. c #B8B8B8",
"x. c #BBBBBB",
"c. c #7E7E7E",
"v. c #B9B9B9",
"b. c #C2C2C2",
"n. c #C1C1C1",
"m. c #C5C5C5",
"M. c #C3C3C3",
"N. c #C9C9C9",
"B. c #CECECE",
"V. c #D2D2D2",
"C. c #D5D5D5",
"Z. c #DADADA",
"A. c #D9D9D9",
"S. c #DEDEDE",
"D. c #E2E2E2",
"F. c #E6E6E6",
"G. c #EAEAEA",
"H. c #ECECEC",
"J. c #EEEEEE",
"K. c #F2F2F2",
"L. c #F6F6F6",
"P. c #FBFBFB",
"I. c #FAFAFA",
"U. c #FDFDFD",
"Y. c #FCFCFC",
"T. c #FEFEFE",
"R. c #FFFFFF",
"E. c #FFFFFF",
"W. c #FFFFFF",
"Q. c #FFFFFF",
"!. c #FFFFFF",
"~. c #FFFFFF",
"^. c #FFFFFF",
"/. c #020202",
"(. c #030303",
"). c #191919",
"_. c #000000",
"`. c #010101",
"'. c #1A1A1A",
"]. c #2F2F2F",
"[. c #010101",
"{. c #020202",
"}. c #010101",
"|. c #252525",
" X c #000000",
".X c #0A0A0A",
"XX c #000000",
"oX c #000000",
"OX c #000000",
"+X c #000000",
"@X c #000000",
"#X c #000000",
"$X c #000000",
"%X c #000000",
"&X c #000000",
"*X c #000000",
"=X c #000000",
"-X c #000000",
";X c #070707",
":X c #000000",
">X c #0A0A0A",
",X c #2F2F2F",
"<X c #7E7E7E",
"1X c #9A9A9A",
"2X c #1C1C1C",
"3X c #040404",
"4X c #1F1F1F",
"5X c #FCFCFC",
"6X c #C1C1C1",
"7X c #000000",
"8X c None",
"9X c #F4F4F4",
"0X c #FFFFFF",
/* pixels */
"7X7X7X7X7X7X7X7X7X7X7X7X7X7X7X7X8X8X8X8X8X8X8X8X8X8X8X8X8X8X8X8X8X8X8X8X8X8X8X8X7X7X7X7X7X7X7X7X7X7X7X7X7X7X7X7X7X7X7X7X7X7X7X7X8X8X8X8X8X8X8X8X8X8X8X8X8X8X8X8X",
"7X7X7X7X7X7X7X7X7X7X7X7X7X7X7X7X8X8X8X8X8X8X8X8X8X8X8X8X8X8X8X8X8X8X8X8X8X8X8X8X7X7X7X7X7X7X7X7X7X7X7X7X7X7X7X7X7X7X7X7X7X7X7X7X8X8X8X8X8X8X8X8X8X8X8X8X8X8X8X8X",
"7X7X7X7X7X7X7X7X7X7X7X7X7X7X7X7X8X8X8X8X8X8X8X8X8X8X8X8X8X8X8X8X8X3X8X8X8X8X8X8X>X7X8X8X7X7X7X7X7X7X7X7X7X7X7X7X7X7X7X7X7X7X7X7X8X8X8X8X8X8X8X8X8X8X8X8X8X8X8X8X",
"7X7X7X7X7X7X7X7X7X7X7X7X7X7X7X7X8X8X8X8X8X8X8X8X8X8X8X8X8X8X8X8X%X-X8X8X>X3X8X'.H @.8X8X8X7X7X*X@X7X7X7X7X7X7X7X7X7X7X7X7X7X7X7X8X8X8X8X8X8X8X8X8X8X8X8X8X8X8X8X",
"7X7X7X7X7X7X7X7X7X7X7X7X7X7X7X7X8X8X8X8X8X8X8X8X8X8X8X8X3X8X{.x 6.K } +X8X8XoX@ N.j.{.8X7X{.} J 3.z oX8X3X8X7X7X7X7X7X7X7X7X7X7X8X8X8X8X8X8X8X8X8X8X8X8X8X8X8X8X",
"7X7X7X7X7X7X7X7X7X7X7X7X7X7X7X7X8X8X8X8X8X8X8X8X8X8X8X3X8X{.o I -.T.T.6.[ -X: 0 3.H.t -X[ a.T.T.-.I > +X8X8X7X7X7X7X7X7X7X7X7X7X8X8X8X8X8X8X8X8X8X8X8X8X8X8X8X8X",
"7X7X7X7X7X7X7X7X7X7X7X7X7X7X7X7X8X8X8X8X8X8X8X8X8X8X8X>X8X~ j.3 b j.3.y.E B ;.y.4.3.<.V R u.6.s.p t k.} 8X;X8X7X7X7X7X7X7X7X7X7X8X8X8X8X8X8X8X8X8X8X8X8X8X8X8X8X",
"7X7X7X7X7X7X7X7X7X7X7X7X7X7X7X7X8X8X8X8X8X8X8X8X8X3X3X8X%XS k.3.y.y.t.6.3.-.G F V S G :.<.6.t.t.t.<.z.x 3X8X>X>X7X7X7X7X7X7X7X7X8X8X8X8X8X8X8X8X8X8X8X8X8X8X8X8X",
"7X7X7X7X7X7X7X7X7X7X7X7X7X7X7X7X8X8X8X8X8X8X8X3X7X7X7X Xz 4.u.3.S u # o . . . . . . . . . . > p D 4.u.<.} OX7X7X7X7X7X7X7X7X7X7X8X8X8X8X8X8X8X8X8X8X8X8X8X8X8X8X",
"7X7X7X7X7X7X7X7X7X7X7X7X7X7X7X7X8X8X8X8X8X3X3X8X7X.XQ s.d.V 2 . o o 3 t > . a S > . y B 2 . . . . . 5 D j.t.*.oX7X7X7X7X7X7X7X7X8X8X8X8X8X8X8X8X8X8X8X8X8X8X8X8X",
"7X7X7X7X7X7X7X7X7X7X7X7X7X7X7X7X8X8X8X8X3X8X8X+X/ k.6.h : O . . e c.m.b.v . 7.T.6 . :.T.t . . <.U e . . . b u.u.$.%X7X8X7X7X7X7X8X8X8X8X8X8X8X8X8X8X8X8X8X8X8X8X",
"7X7X7X7X7X7X7X7X7X7X7X7X7X7X7X7X8X8X8X3X8X8X+.7.k.x O O O % . 1 ~.M.o o @ . 4.T.5 . U T.e . y T.S.m.U . @ . o N m.<./.7X7X7X7X7X8X8X8X8X8X8X8X8X8X8X8X8X8X8X8X8X",
"7X7X7X7X7X7X7X7X7X7X7X7X7X7X7X7X8X8X3X3X@X/ M.L o . . a m.6 . -.T.e . @ @ . 6.T.c.j.S.T.y . I T.y . 0 . . 0 . . . <.z.} 8X8X3X8X8X8X8X8X8X8X8X8X8X8X8X8X8X8X8X8X",
"7X7X7X7X7X7X7X7X7X7X7X7X7X7X7X7X8X3X8XoXR M.r . . . . p T.u.. 4.T.y . @ . . t.T.p 2 6.T.6 . B.T.z.V . . a.T.C.x . . d M.B %X8X3X8X8X8X8X8X8X8X8X8X8X8X8X8X8X8X8X",
"7X7X7X7X7X7X7X7X7X7X7X7X>X7X7X7X8X7X_.6.s.. . > n y . . P T.p x T.<.. . . . s.T.> . <.T.2 0 T.<.a H . e T.j.p A.y . . , z.-.oX8X>X8X8X8X3X3X8X8X8X8X8X8X8X8X8X8X",
"7X7X7X7X7X7X7X7X7X7X7X7X7X7X7X7X7X`.y.4.. . . B T.K.c.D : B.D.. s.T.u.H N.b U C.2 . :.J.. -.T.B . . . @ D.S.. 0 2 b e . o a.4.oX8X3X3X8X8X8X3X8X8X8X8X8X8X8X8X8X",
"7X7X7X7X7X7X7X7X8X3X8X-X(.-X7X7X(.a.;.O 9 @ . . V.H.J m.Z.Z.P.<.. F y.3.v . . . . . . : . t :.m.z.t 5 . M T.L . . D B.5 . o 7.3.+X7X7X2X(.+X7X7X7X7X7X7X8X8X8X8X",
"7X7X7X7X7X7X7X7X3X8X%XJ M.q 7X+Xy.3.. . . . : . x L.L # t -.V.3.. @ @ > . 2 y a d p e > o . . @ b e V.e : T.c.. @ . N.T.t . o u.;.2X7X} V.W +X;X7X7X7X7X8X8X8X8X",
"7X7X7X7X7X7X7X7X;X%X0 <.D.,.0X-.y.. . 0 H 2 . . O 6.L.y . . . o . @ M r.a.s.a.u.u.u.j.j.t.:.v . . . n V.F.T.S o . 6.T.a.V.x o O j.N 2X>.T.7.0 ,X7X>X7X7X8X8X8X8X",
"7X7X7X7X7X7X>X7X2X/ K.H y.y.x m.@ O . d.T.T.6.t O : L.M.. @ . < -.d.u.C #.(.oX#X@X+X.X'.} ' a.z.L ; . 1 G x . o U T.u.. t r o o < N.8 u.y.W J./ 2X7X7X7X8X8X8X8X",
"8X8X8X8X7X7X7X-X/ J.T.<.u.<.k.0 . @ . -.A.u.T.T.b.M m a . . U m.-.X.+X7X7X7X7X7X7X7X7X7X8X3X+X} >.z.G @ % O o L P.l.o # o < j.0 . x s.:.y.>.J.H.Q -X8X3X8X8X8X8X",
"8X8X8X8X7X7X8XQ K.L.j.U c.a.V . . . . : A.6 s.N.J.m.@ @ u m.6.|.7X7X7X7X7X7X7X7X7X7X7X7X8X8X3X8X2XO.a.z.7 O o b.Z.o o o t D.P.b.: . -.6.m.-.M.K.J./ ;X8X3X8X8X8X",
"8X8X8X8X3X7X@.F.J.B.D N.4.<.. . :.p . . L T.<.. 5 > > E c.q +X7X-X-X9X+X&X&X&X&X&X&X&X&X-X-X$X$X,X8X_.Q M.n o , 1 . # n P.P.i I s.. @ u.r.D.D m.K.S.o.8X3X8X8X8X",
"8X8X8X8X3X7Xo.c.M.S B.<.a.. . M T.~.v . : J.p . @ ; >.i.G -.;.3.4.3.3.q.0.0.0.0.0.0.0.0.>.3.3.0.6.4.>.-.L z.G % . . I P.D.N.c o h . @ 1 M.;.A.F B.c.(.8X3X8X8X8X",
"8X8X8X8X7X7X-Xo.+.-.3.j.> . . 0 H.~.T.G . I z.. . q.j.d x B N N B M M M N n M M M n N M M n n M N N N B x v b.:.o . V.D.# u y.o . H b . t c.<.3.+.'.2X7X7X7X7X7X",
"8X8X8X8X7X7X7X7X*XN b.6 . . . . 7.6.c.T.<.3 y . 4.>.x u.O O O O . . . . > a . . . d . . . 0 e . O O O O o d.g z.R o 3 N.x o o o -.T.T.t . a B.x %X7X>X7X7X7X7X7X",
"8X8X8X8X7X>X>XoXF M.7 o 0 M 1 . 1 B.> j.L.y % :.j..X*.y.O % o o @ . a u.K.T.N.M A.T.K.P u.T.~.z.; o O % O y.] .Xk.S o x b.o o 3.T.a.N C.2 . p B.) +X7X7X7X7X7X7X",
"8X8X8X8X>X7X}.<.a.# o o c.T.D.M.M c.L . i O B j.(.7X*.4.O o o % . b c.a.T.T.K.D T.~.T.<.m.T.T.D.o o O % @ y.*.7Xo.M.i o , < a.P.K.6 @ T.L . . 6 m.U +X7X7X7X7X7X",
"8X8X8X8X3X8X'.M.9 # @ . t D.F.U m.T.J.: . e M.o.7X7X( a.: : O O p T.L 7.T.T.T.G T.T.T.4.V.T.T.K.# o o o O y.$.7X8X} m.< . L T.I H T.T.T.b . @ . 6 z.}.7X>X7X7X7X",
"8X8X8X8X3X8X{.s.8 o . . . : N.N.@ 5 B : o k.k 7X7X7X*.y.O % : x 3.B.> a 7.m.D y L N.3.p n j.j.B o o o o O i.} 7X8X8XM s.o , M . 7.T.<.b . . . . t t.+X7X7X7X7X7X",
"8X8X8X8X3X8X+Xs.p . . . . . . s.T.e . . <.-.*X7X7X7X! y.O % O z.~.M.z.a.z.S.u.k.a.S.k.j.a.N.B.s.y . o o % y.| 7X;X8XOX7.L . . y T.3.. . . . @ . N 6.$X7X7X7X7X7X",
"8X8X8X8X8X8X-X;.G . @ . . . . . H p . B s.{.7X7X3X7X*.K.j.M.z.D.T.T.T.T.T.T.T.T.T.T.T.T.T.T.T.T.V.c.M.M.b.H.$.7X>X>X>X(.z.p . 6 A.v . @ . . @ . :.' 7X7X7X7X7X7X",
"7X7X7X7X7X8X7X*.i.o @ . o o o o # % h M.@.8X3X8X7X7X*.j.0 u u t 0 0 0 0 0 0 6 0 0 6 0 0 6 0 0 0 t p p p r j.] 7X>X>X>X>X%.N.0 @ > : . . . . . o j.X.7X7X7X7X7X7X",
"7X7X7X7X7X7X7X.Xj.b . @ o o # # o h b.q ;X8X3X8X>X7X*.i.% 6 3 6 6 6 5 6 5 6 0 5 6 0 5 6 5 6 5 5 5 1 5 1 , a.} 7X>X>X>X>X<Xb M.5 . @ . . . : . H 6.@X7X7X7X7X7X7X",
"7X7X7X7X7X7X>X7X} m.e . o o @ o F M.} 2X8X3X8X8X>X>X*.P.L.L.P.P.T.T.T.T.T.K.m.T.T.m.T.T.T.T.T.T.T.T.T.T.T.H.} 7X>X>X>X>X>X8X/ m.) @ @ @ . . x c.X.7X7X7X7X7X7X7X",
"7X7X7X7X7X7X;X3X>X*.N.U x p S k.h.o.8X8X3X8X8X8X>X>X*.L.K.L.P.P.T.T.T.~.T.z.> T.m.> K.T.T.T.T.T.T.T.T.T.~.H.} 7X>X>X>X>X:X7X:X} a.y.N a v <.M.} 3X7X7X7X7X7X7X7X",
"7X7X7X7X7X7X7X;X&X`.5 R 3.3.1.*.+X8X8X8X8X8X8X8X>X>X*.T.L.P.P.P.H.J.D.T.H : . 0 1 . e u.D K.V D.U k.T.T.~.J.} 7X7X7X7X7X7X7X7X7X{./ ,.3.<.L j {.<X2X>X>X7X7X7X7X",
"7X7X7X7X7X7X,X} 7.z.c.s.5.p +X3X8X3X8X8X8X8X8X8X7X>X*.T.P.P.P.P.b : 0 K.B.. a e 5 d y s.. 7.. <.5 V T.~.~.J.$.7X3X7X7X7X7X7X7X7X7X7X.Xa 7.k.N.z.a.} 2X7X7X7X7X7X",
"7X7X7X7X7X+XN C.6.q.7.6.6.A.3.{.8X3X8X8X8X8X8X8X8X7X/ T.P.D.V.z.. . . s.T.S 5 x t y L H.2 J.0 V.v <.T.T.T.H.} 7X3X8X7X7X7X7X7X7X7X{.3.H.u.6.7.7.7.V.N +X7X7X7X7X",
"7X7X7X7X7X/ V.<.V z.T.T.M.x N.<.%X8X3X8X8X8X8X8X8X7X/ T.P.K.e . . . . p T.D.. . . . :.H.1 M.5 s.a 4.T.~.~.J.} 7X3X8X7X7X7X7X7X7X#X:.S.b k.T.T.m.V 3.B./ >X7X7X7X",
"7X7X7X7X(.m.<.H.u.s.u.L k.T.I B.} ;X3X8X8X8X8X8X3X8X/ T.~.T.B > j.F.y . n T.t x :.. 6.~.. . . . . 6.T.~.~.J.} 8X3X8X7X7X7X7X7X7X$.F.:.~.c.L 7.j.7.J.<.c.(.7X7X7X",
"7X7X7X7X) z.H m.N.T.H.<.T.T.c.-.7.9X8X8X8X8X8X8X8X8X/ T.T.T.j.D.T.3.. . b t.. d G . 1 6.t.3.@ V <.V.T.T.T.K.$.8X>X8X7X7X7X7X;X2X5.6.k.T.T.4.D.T.C.M.I u.) 7X7X7X",
"7X7X7X7X:.a.7.H T.T.z.B.T.T.4.L s.oX7X3X8X8X8X8X8X8X/ T.P.P.P.P.T.6.. . z.1 . . . . @ 4.F.4.. M.T.T.T.T.~.J.$.8X>X7X7X7X7X>X>X.Xz.-.<.T.T.C.k.T.T.L 6.s.<.3X7X7X",
"7X7X7X7X3.u.V.7.T.T.u.K.K.3.M.7.u.oX7X8X8X8X8X8X8X7X/ T.P.P.P.P.T.T.0 1 H.2 . . . . y M . . . V T.~.T.T.~.J.$.8X>X7X7X7X7X>X7X+Xj.u.M.<.K.K.t.T.T.7.C.a.<.3X7X7X",
"8X8X8X8XD a.j.l.P.P.-.R 4.C.~.<.t.%X8X3X8X8X8X8X>X>X*.T.K.K.K.K.T.T.e : T.3.. . . . . . z.s.. . A.T.T.T.L.G.$.8X7X7X7X7X7X7X7X+Xs.u.K.S.3.-.L P.T.z.k.s.F 7X7X7X",
"8X8X8X8X$.M.-.l.P.P.6.D.T.T.6.j.) 8X8X8X8X8X8X8X>X7X*.T.J.K.K.K.T.T.p . K.H.@ . . . . . P m.2 @ S.T.T.T.P.J.$.8X>X7X7X7X7X7X7X7X) m.4.T.P.G.6.P.T.z.-.c.$.7X7X7X",
"8X8X8X8X-X;.d.a P.P.j.F.T.j.<.k.(.7X3X3X8X8X8X8X7X7X*.J.J.J.K.K.T.T.a . K.3.. . . . . . . . . 0 T.T.T.T.P.J.$.3X>X7X7X7X7X7X7X7X.Xc.6.t.P.K.j.P.T.c a.-.+X7X7X7X",
"8X8X8X8X8X{.y.d.I M.3.D 6.3.N.X.7X7X3X8X8X8X8X8X7X7X*.J.J.J.K.K.T.T.x . L 6 . . . . y H.4.6 . N T.T.T.T.T.~.$.3X3X7X7X7X7X7X7X7X7Xo.N.y.6.L 3.M.-.s.t.}.7X7X7X7X",
"8X8X8X8X7X7X.X-.c.u.6.y.M.3.g ).{.-X8X8X8X8X8X8X>X7X/ T.K.K.K.K.T.T.x . . . . . . . 6.k.T.F.. k.T.~.T.T.P.J.$.7X7X7X8X8X3X7X7X9X.X|.e <.c.a.u.a.l.I {.8X7X7X7X7X",
"8X8X8X8X7X7X;X2X'.*.n / F r.h.t.j.W {.7X3X8X8X8X7X7X/ T.K.L.K.K.T.T.v . @ . . . . . : @ ~.T.: j.T.T.T.T.~.J.$.7X7X7X8X8X>X8X+.<.y.3.j.3.x k Q *.'.;X8X8X7X7X7X7X",
"8X8X8X8X7X7X>X7X;X8X%XM a.u ; O > 5.y._.8X8X8X8X7X7X/ T.L.L.P.P.~.T.V . . . . . . @ . 1 u.H.: j.T.T.T.T.P.J.$.7X3X8X8X>X7X+.a.H @ . o n N./ -X>X8X8X8X8X7X7X7X7X",
"8X8X8X8X7X7X7X7X;X8X/ j.% o o o o O 3.7.{.8X3X8X8X7X/ T.L.P.P.P.T.T.B.y 0 @ . y n . @ . . t.1 j.T.T.T.T.~.H.$.7X3X8X3X8X`.a.N . o o o o 3 m.} >X;X8X8X8X7X7X7X7X",
"8X8X8X8X8X8X7X7X7X+Xy.e O O O o . . o q.4. X7X:X8X8X*.T.P.P.P.P.T.T.T.T.H.2 . @ C.b . @ . z.2 j.T.T.T.T.T.J.$.7X3X8X7X`.u.S . @ O O O % # S y.%X8X8X7X7X7X7X7X7X",
"8X8X8X8X8X8X7X>X7X).5.. o o o o . . . o 7.6.{.>X>X8X/ L.K.P.P.P.T.T.T.T.F.: . . N T.p . 2 V.> j.T.~.T.~.J.H.} 7X3X7X/.i.G . @ . O O O O o 0 j..X8X>X7X7X7X7X7X7X",
"8X8X8X8X8X8X8X>X7X] 0.O O o o o . . . . . 3.a.(.8X>X}.M D.P.P.P.T.T.T.T.V.. . @ . t.T.6 . B.1 j.T.~.T.T.V./ oX7X8XX.s.V . . . . O O O O o : k.(.8X>X7X7X7X7X7X7X",
"8X8X8X8X8X8X8X3X>X|.6.. o o o o . . . . . . R l.} -X7X=XX.u.P.L.~.T.T.T.z.. @ . 6 M.T.H.5 u.@ a.T.~.T.<.+.7X:X*Xz c.x . @ . . . O O O O O e z.{.8X>X7X7X7X7X7X7X",
"8X8X8X8X8X8X8X3X>X0Xa.p . @ . . . . . . . . . c M.M oX8X8X.XA A.T.T.~.T.B.. . . C.T.K.T.F.D.P A.T.m.k +X8X;X`.E l.e O O O O O O . . . . . H y.2X8X8X8X8X8X8X8X8X",
"8X8X8X8X8X8X8X8X5X5X) 4.. @ . . . . . . . . @ . 5 s.a.X.-X7X7X@.<.T.~.~.T.D . . U T.T.T.T.T.T.T.U (.8X8X%X} a.<.O # O O O O O O . . . . o c.| 8X3X8X8X8X8X8X8X8X",
"8X8X8X8X8X8X8X8X5X5X'.j.t . . . . . . . . . . . @ @ S c.I (.;X7X+Xk m.T.T.F.> . . M.T.~.P.K.j.} *X7X8Xo.;.j.d . O O O O O O O O . . @ . G s.+X8X3X8X8X8X8X8X8X8X",
"8X8X8X8X8X8X8X8X5X5X2X/ a.o . . . . . . . . . t m @ . < <.c.` o.=X7X`.-.~.T.2 . . U T.P.J.D .X7X+XX.I s.K o . @ : 0 O O O O O O . . . 8 B.X.8X>X8X8X8X8X8X8X8X8X",
"8X8X8X8X8X8X8X8X8X8X8X%X<.:.. @ . . . . . . . M.K.e O O o 3 -.j.3.*..X X1 i.Q p -.T.T.y.@.+X'.*.6.y.J , o o < q.D.P.A.t O O O O o o O z.D -X8X3X8X8X8X8X8X8X8X8X",
"8X8X8X8X8X8X8X8X8X8X;X8X`.j.n . @ . . . . . n T.y.@ O v t o O 9 V 6.a.4.( m -.K.T.H.I x D y.t.:.n @ O O o S D.-.3 B P.Z.O O O O # O :.y.+X8X3X8X8X8X8X8X8X8X8X8X",
"8X8X8X8X8X8X8X8X8X8X8X3X;X@.M.u . @ . . . . A.T.6 . 8 T.V.o < o o o < v L 4.I x I d -.3.L a @ . O # x v o 6.P.x o o ;.P.i O O O o D m.(.8X7X8X8X8X8X8X8X8X8X8X8X",
"8X8X8X8X8X8X8X8X8X8X8X3X;X:X} M.t . @ . . M T.-.. . 3.T.V o i.N.o o . . . . . . . . . . . . o # L b.b.N o < K.D.# o t P.s O % O S N.o.7X7X7X8X8X8X8X8X8X8X8X8X8X",
"8X8X8X8X8X8X8X8X8X8X8X8X8X8X8X} N.a . : . U T.2 . y T.N.. : S.T.N . 5 M.n . e p . e H U 6.m.I . C.T.. . > . D T.U . L F.. . o J b.@.8X8X8X8X8X8X8X8X8X8X8X8X8X8X",
"8X8X8X8X8X8X8X8X8X8X8X8X8X3X8X8X} c.V . . e K.D . m.T.d . a T.z.c.. b T.N . j.T.. v 3.V.T.v 2 . D T.t.m.v . . V.T.4.C.p . . 3.j.o.3X8X3X8X8X8X8X8X8X8X8X8X8X8X8X",
"8X8X8X8X8X8X8X8X8X8X8X8X8X8X3X8X7X+.u.6.o . p N.J.T.-.. . I T.5 S.0 :.T.: . k.K.@ . . L T.0 . . 6 T.A.e . . . v T.4.: . 3 c.6./.7X8X8X8X8X8X8X8X8X8X8X8X8X8X8X8X",
"8X8X8X8X8X8X8X8X8X8X8X8X8X8X8X8X8X7X}.W z.b . . p e . . . N.A.. <.t.N.m.. . m.H.. . . M T.n . . . N.F.. p x . @ 5 . o P m.' OX7X8X8X8X8X8X8X8X8X8X8X8X8X8X8X8X8X",
"8X8X8X8X8X8X8X8X8X8X8X8X8X8X8X8X8X3X8X-X} s.s.p o . : . : K.3.. 6 J.T.P . . V.S.. @ . p T.H . : . L T.B.m.S . . o n z.u.X.;X8X3X8X8X8X8X8X8X8X8X8X8X8X8X8X8X8X8X",
"8X8X8X8X8X8X8X8X8X8X8X8X8X8X8X8X8X8X3X8X;XoX( k.6.p o @ . e 5 . . t.T.t . . D.V.. . . 5 T.a.. @ . 0 L t . . o n z.c.*.+X>X8X3X8X8X8X8X8X8X8X8X8X8X8X8X8X8X8X8X8X",
"8X8X8X8X8X8X8X8X8X8X8X8X8X8X8X8X8X8X8X8X;X8X8X{.( j.s.S , . . . . 5 S : . . D.M.. . . @ u.H . @ . . . o 0 I j.a./ .X7X7X>X>X8X8X8X8X8X8X8X8X8X8X8X8X8X8X8X8X8X8X",
"8X8X8X8X8X8X8X8X8X8X8X8X8X8X8X8X8X8X8X8X8X3X8X8X7X X| 3.s.6.V 0 . . . . . . 2 1 . . . . . . . . @ p P a.k.<.} +X3X3X3X7X7X7X8X8X8X8X8X8X8X8X8X8X8X8X8X8X8X8X8X8X",
"8X8X8X8X8X8X8X8X8X8X8X8X8X8X8X8X8X8X8X8X8X8X8X3X8X7X8X%X(./ 6.a.8.3.R N h e 2 > 2 2 5 y d V I 6.u.y.:.k `.-X3X8X3X3X8X8X8X8X8X8X8X8X8X8X8X8X8X8X8X8X8X8X8X8X8X8X",
"8X8X8X8X8X8X8X8X8X8X8X8X8X8X8X8X8X8X8X8X8X8X8X8X7X>X8X7X7X7X% 7.;.-.3.3.a.j.a.u.u.z.s.j.a.<.:.U I t.p =X8X8X3X3X8X8X8X8X8X8X8X8X8X8X8X8X8X8X8X8X8X8X8X8X8X8X8X8X",
"8X8X8X8X8X8X8X8X8X8X8X8X8X8X8X8X8X8X8X8X8X8X8X8X7X7X7X7X3X8X*XI K.J.H M v 9 a.s.7.p B g 1 M V ~.T.j.(.7X;X8X8X8X8X8X8X8X8X8X8X8X8X8X8X8X8X8X8X8X8X8X8X8X8X8X8X8X",
"8X8X8X8X8X8X8X8X8X8X8X8X8X8X8X8X8X8X8X8X8X8X8X8X7X7X7X7X8X8X7X+Xx 6.<.! .X@XI T.T.<.:..X2X{ -.j.K (.8X8X8X8X8X8X8X8X8X8X8X8X8X8X8X8X8X8X8X8X8X8X8X8X8X8X8X8X8X8X",
"8X8X8X8X8X8X8X8X8X8X8X8X8X8X8X8X8X8X8X8X8X8X8X8X8X8X8X8X8X8X3X8X>X+X+X7X7X7X.Xz -.F {.7X8X8X%X+X-X8X8X8X8X8X8X8X8X8X8X8X8X8X8X8X8X8X8X8X8X8X8X8X8X8X8X8X8X8X8X8X",
"8X8X8X8X8X8X8X8X8X8X8X8X8X8X8X8X8X8X8X8X8X8X8X8X8X8X8X8X8X8X8X8X7X7X7X7X7X7X7X7X7X7X7X7X8X8X8X8X8X8X8X8X8X8X8X8X8X8X8X8X8X8X8X8X8X8X8X8X8X8X8X8X8X8X8X8X8X8X8X8X",
"8X8X8X8X8X8X8X8X8X8X8X8X8X8X8X8X8X8X8X8X8X8X8X8X8X8X8X8X8X8X8X8X7X7X7X7X7X7X7X7X7X7X7X7X8X8X8X8X8X8X8X8X8X8X8X8X8X8X8X8X8X8X8X8X8X8X8X8X8X8X8X8X8X8X8X8X8X8X8X8X",
"8X8X8X8X8X8X8X8X8X8X8X8X8X8X8X8X8X8X8X8X8X8X8X8X8X8X8X8X8X8X8X8X7X7X7X7X7X7X7X7X7X7X7X7X8X8X8X8X8X8X8X8X8X8X8X8X8X8X8X8X8X8X8X8X8X8X8X8X8X8X8X8X8X8X8X8X8X8X8X8X"
};
