/* XPM */
static char *xpm_[] = {
/* columns rows colors chars-per-pixel */
"80 80 53 1 ",
"  c #161C4F",
". c #182053",
"X c #1D285B",
"o c #1D275A",
"O c #1D285C",
"+ c #202C5F",
"@ c #212E61",
"# c #253567",
"$ c #2B3E71",
"% c #1D285B",
"& c #1D285B",
"* c #202C5F",
"= c #1F2C5F",
"- c #2E4275",
"; c #32497C",
": c #202D60",
"> c #212E61",
", c #212E62",
"< c #1E295C",
"1 c #212E62",
"2 c #222F63",
"3 c #223164",
"4 c #243366",
"5 c #354E81",
"6 c #3A5689",
"7 c #3F5F90",
"8 c #405F91",
"9 c #45689A",
"0 c #496FA1",
"q c #4D75A7",
"w c #517CAE",
"e c #5380B1",
"r c #5888BA",
"t c #5C90C1",
"y c #5E93C5",
"u c #639BCC",
"i c #659FD1",
"p c #67A3D5",
"a c #6EAFE1",
"s c #6FB0E1",
"d c #202D60",
"f c #212F62",
"g c #233265",
"h c #233164",
"j c #243467",
"k c #243366",
"l c #233265",
"z c #283A6D",
"x c #27386B",
"c c #293C6F",
"v c #283A6D",
"b c #2B3E71",
"n c None",
/* pixels */
"nnnnnnnnnnnnnnnnnnnnnnnnnnnnnnnnnnnnnnnnnnnnnnnnnnnnnnnnnnnnnnnnnnnnnnnnnnnnnnnn",
"nnnnnnnnnnnnnnnnnnnnnnnnnnnnnnnnnnnnnnnnnnnnnnnnnnnnnnnnnnnnnnnnnnnnnnnnnnnnnnnn",
"nnnnnnnnnnnnnnnnnnnnnnnnnnnnnnnnnnnnnnnnnnnnnnnnnnnnnnnnnnnnnnnnnnnnnnnnnnnnnnnn",
"nnnnnnnnnnnnnnnnnnnnnnnnnnnnnnnnnnnnnnnnnnnnnnnnnnnnnnnnnnnnnnnnnnnnnnnnnnnnnnnn",
"nnnnnnnnnnnnnnnnnnnnnnnnnnnnnnnnnnnnnnnnnnnnnnnnnnnnnnnnnnnnnnnnnnnnnnnnnnnnnnnn",
"nnnnnnnnnnnnnnnnnnnnnnnnnnnnnnnnnnnnnnnnnnnnnnnnnnnnnnnnnnnnnnnnnnnnnnnnnnnnnnnn",
"nnnnnnnnnnnnnnnnnnnnnnnnnnnnnnnnnnnnnnnnnnnnnnnnnnnnnnnnnnnnnnnnnnnnnnnnnnnnnnnn",
"nnnnnnnnnnnnnnnnnnnnnnnnnnnnnnnnnnnnnnnnnnnnnnnnnnnnnnnnnnnnnnnnnnnnnnnnnnnnnnnn",
"nnnnnnnnnnnnnnnnnnnnnnnnnnnnnnnnnnnnnnnnnnnnnnnnnnnnnnnnnnnnnnnnnnnnnnnnnnnnnnnn",
"nnnnnnnnnnnnnnnnnnnnnnnnnnnnnnnnnnnnnnnnnnnnnnnnnnnnnnnnnnnnnnnnnnnnnnnnnnnnnnnn",
"nnnnnnnnnnnnnnnnnnnnnnnnnnnnnnnnnnnnnnnnnnnnnnnnnnnnnnnnnnnnnnnnnnnnnnnnnnnnnnnn",
"nnnnnnnnnnnnnnnnnnnnnnnnnnnnnnnnnnnnnnnnnnnnnnnnnnnnnnnnnnnnnnnnnnnnnnnnnnnnnnnn",
"nnnnnnnnnnnnnnnnnnnnnnnnnnnnnnnnnnnnnnnnnnnnnnnnnnnnnnnnnnnnnnnnnnnnnnnnnnnnnnnn",
"nnnnnnnnnnnnnnnnnnnnnnnnnnnnnnnnnnnnnnnnnnnnnnnnnnnnnnnnnnnnnnnnnnnnnnnnnnnnnnnn",
"nnnnnnnnnnnnnnnnnnnnnnnnnnnnnnnnnnnnnnnnnnnnnnnnnnnnnnnnnnnnnnnnnnnnnnnnnnnnnnnn",
"nnnnnnnnnnnnnnnnnnnnnnnnnnnnnnnnnnnnnnnnnnnnnnnnnnnnnnnnnnnnnnnnnnnnnnnnnnnnnnnn",
"nnnnnnnnnnnnnnnnnnnnnnnnnnnnnnnnnnnnnnnnnnnnnnnnnnnnnnnnnnnnnnnnnnnnnnnnnnnnnnnn",
"nnnnnnnnnnnnnnnnnnnnnnnnnnnnnnnnnnnnnnnnnnnnnnnnnnnnnnnnnnnnnnnnnnnnnnnnnnnnnnnn",
"nnnnnnnnnnnnnnnnnnnnnnnnnnnnnnnnnnnnnnnnnnnnnnnnnnnnnnnnnnnnnnnnnnnnnnnnnnnnnnnn",
"nnnnnnnnnnnnnnnnnnnnnnnnnnnnnnnnnnnnnnnnnnnnnnnnnnnnnnnnnnnnnnnnnnnnnnnnnnnnnnnn",
"nnnnnnnnnnnnnnnnnnnnnnnnnnnnnnnnnnnnnnnnnnnnjOX ,nnnnnnnnnnnnnnnnnnnnnnnnnnnnnnn",
"nnnnnnnnnnnnnnnnnnnnnnnnnnnnnnnnnnnnnnnnnnn=X576#Ocnnnnnnnnnnnnnnnnnnnnnnnnnnnnn",
"nnnnnnnnnnnnnnnnnnnnnnnnnnn3nnnnnnnnnnnnnn%$eaaar$=nnnnnnnnnnnnnnnncnnnnnnnnnnnn",
"nnnnnnnnnnnnnnnnnnnnnnnnnn1#%nnnnnnnnnnnnc+qauiiaqXcnnnnnnnnnnnnnncjjbnnnnnnnnnn",
"nnnnnnnnnnnnnnnnnnnnnnnnn,#6+,nnnnnnnnnnnh$yiiiipy@,nnnnnnnnnnjh,%XX@X<nnnnnnnnn",
"nnnnnnnnnnnnnnnnnnnnnnnc3+9s0O1jnnnnnnnnnh#taipipi-1nnnnncj,1o+@$50et0#,nnnnnnnn",
"nnnnnnnnnnnnnnnnnnnnnz3+@9pia9#+%znnnnnnnb+eaiipia7%nnnhoX@#;9wtiaaaia0Xcnnnnnnn",
"nnnnnnnnnnnnnnnnnnnnn&@9uaiiuau0#Xnnnnnnnn 9iiiiipq+cn1+;0ruppppiuuiipeXjnnnnnnn",
"nnnnnnj,1%1jnnnnnnnnnj+0auiipia0@znnnnnnnn%5piipipt+j,#0ppppiiiiiiiiia0@cnnnnnnn",
"nnnncoX#;6$X,nnnnnnnnn,#tpiiipt#3nnnnnnnj,o#uppippu#=+0apipipppiiaaiuw#1nnnnnnnn",
"nnnnO$quppp9@hnnnnnchzco9puuip0Ocnnnnn,XX$56ypipipp5X-pippipipipuw95$+=cnnnnnnnn",
"nnn,#tapiipp6onnnn,@@@+X7aaaaa7 nnnnn%@6rupapppipip9O0piippipppp6 ..XXjnnnnnnnnn",
"nnn 6aipiiiaw#bnnjX7tr5X5u070t5%nnnnO@waaiappipipiaw.waiiiipipipq5707$+1nnnnnnnn",
"nnn.9piipiipt-jnn 6aiai#@@.@$5#Xznn<#tauiu09taipiipt+qaipipppipppaaaai0@%nnnnnnn",
"nnn 5iipipipi$,nb#0aiip6++5uaiy5@nj+0aupt#XX@rpiiipi#6aupipiipipiiiiiiaq#hnnnnnn",
"nnn,5upipiiip5.nn.7aiip0X$uaiiay$1o6piua5X##X5pipiia5#yaiiippipipipiiiia6Xnnnnnn",
"nnnj@tuiipiip9.nn<5aiiar.9auipia6X@eaipp$@@@@#iiipip0.5ipiiiipipipipipuae+jnnnnn",
"nnnb+0pipipiaeXjj+7piipu@9aipiia0X$uiiua7X##X5aipiiae++5tiapppippipipiiiy@jnnnnn",
"nnnn 6aipipiip7++-upipii#5piipipt.5iiiiau-+X$yaiipipu#<.@-655upiipipipiat@jnnnnn",
"nnnn<;iiipippipteipipiii#$iiiiiau@5aiipr$5eeipippiipi$,n.X..+tpipipipiupw+jnnnnn",
"nnnn4$ippipipiipaipipppu#@tiiiiip$5iiiaq Xuapipiipiiy6  @50qtauipippiiia6Onnnnnn",
"nnnnj$rpiiipippiiiipiipe@@qaipiia7$iiiii0qiiiiippipii8.#wiapauaiipiiipa0+,nnnnnn",
"nnnnn.0aippipipipipipia5Xo7aiaiiaqXyiiiaaaiiippiippiitX6piiiiiuuippaau9@1nnnnnnn",
"nnnnn 6pipipipipipipipp9XX5iiiiiitX0aiipiiiippippiiiiu@9aiiiaiaapue075++&hnnnnnn",
"nnnnn<5ppipiipippipipipp7X$upppiiu$#iiiiiipipipiipiipy@-iappytw95@5qyuue5+,nnnnn",
"nnnnnj#upiippippipipipppi$Xtaiipia5.6aiiiiiiipiiipipa0XX$qww9#XXX7papppap0+,nnnn",
"nnnnnj+eaiipipiipiipippiaw.0aupiua7XX9aiiuiipiiiitpiqX$70ryia0@@7apiiiiiia7+cnnn",
"nnnnnn.9pipipippippipipiiu#6aiipiawX<@5taappaiair555X9ipappiarX#ypiipippipy@,nnn",
"nnnnnno5aipipii0#5iiiipiia5$iiiiuaw+cj+$7etutt05@*@#qaiiiaput5.5piiiipiiiia5=nnn",
"nnnnnn1$uiipiai#&Xwaiiiiia7.tauiia6Xnnc4 X##@XX=bn*6aiiip05-X .6aiiiia#7aua7Onnn",
"nnnnnnj#tiiiiii5%&7aiiiiia5.5yaaa0#,nnnnnb,,jjcnnj#rauiitX%,>c 5piipue0rpip7Xnnn",
"nnnnnnb@qaiiiip7%1$yaiiiae@,o#67$X%nnnnnnnnnnnncnk5ypiiaeX %5@X5aipu$X6iiip5onnn",
"nnnnnnnX7aiiiia0Ob#$tipiq#=nc1oo1jnnnnnnnnnnnnnnn<5yauuip059tt5+tipeX@+ypat#,nnn",
"nnnnnnn%$piiiia-&nj+@565@%cnnnnnnnnnnnnnnnnnnnnnn4#tauaippaaapp#5ppu-X6uip6@nnnn",
"nnnnnnnj+0apaa0.hnnnh%=<jnnnnnnnnnnnnnnnnnnnnnnnnj$taiaipiiiiia6O7uaiypai6+jnnnn",
"nnnnnnnn,X5005@,nnnnnnnnnnnnnnnnnnnnnnnnnnnnnnnnnnX5uuuipipiiia9X+$qtytq$+hnnnnn",
"nnnnnnnnnjXXX&hnnnnnnnnnnnnnnnnnnnnnnnnnnnnnnnnnnnj@8aiiiippaau-=c=@##@+=jnnnnnn",
"nnnnnnnnnnncnnnnnnnnnnnnnnnnnnnnnnnnnnnnnnnnnnnnnnn1+7uapaiye0-+jnncjhjjnnnnnnnn",
"nnnnnnnnncnnnnnnnnnnnnnnnnnnnnnnnnnnnnnnnnnnnnnnnnnnj#$5765#@@%jnnnnnnnnnnnnnnnn",
"nnnnnnnnnnnnnnnnnnnnnnnnnnnnnnnnnnnnnnnnnnnnnnnnnnnncn,&.&%,jnnnnnnnnnnnnnnnnnnn",
"nnnnnnnnnnnnnnnnnnnnnnnnnnnnnnnnnnnnnnnnnnnnnnnnnnnnnnnnnnnnnnnnnnnnnnnnnnnnnnnn",
"nnnnnnnnnnnnnnnnnnnnnnnnnnnnnnnnnnnnnnnnnnnnnnnnnnnnnnnnnnnnnnnnnnnnnnnnnnnnnnnn",
"nnnnnnnnnnnnnnnnnnnnnnnnnnnnnnnnnnnnnnnnnnnnnnnnnnnnnnnnnnnnnnnnnnnnnnnnnnnnnnnn",
"nnnnnnnnnnnnnnnnnnnnnnnnnnnnnnnnnnnnnnnnnnnnnnnnnnnnnnnnnnnnnnnnnnnnnnnnnnnnnnnn",
"nnnnnnnnnnnnnnnnnnnnnnnnnnnnnnnnnnnnnnnnnnnnnnnnnnnnnnnnnnnnnnnnnnnnnnnnnnnnnnnn",
"nnnnnnnnnnnnnnnnnnnnnnnnnnnnnnnnnnnnnnnnnnnnnnnnnnnnnnnnnnnnnnnnnnnnnnnnnnnnnnnn",
"nnnnnnnnnnnnnnnnnnnnnnnnnnnnnnnnnnnnnnnnnnnnnnnnnnnnnnnnnnnnnnnnnnnnnnnnnnnnnnnn",
"nnnnnnnnnnnnnnnnnnnnnnnnnnnnnnnnnnnnnnnnnnnnnnnnnnnnnnnnnnnnnnnnnnnnnnnnnnnnnnnn",
"nnnnnnnnnnnnnnnnnnnnnnnnnnnnnnnnnnnnnnnnnnnnnnnnnnnnnnnnnnnnnnnnnnnnnnnnnnnnnnnn",
"nnnnnnnnnnnnnnnnnnnnnnnnnnnnnnnnnnnnnnnnnnnnnnnnnnnnnnnnnnnnnnnnnnnnnnnnnnnnnnnn",
"nnnnnnnnnnnnnnnnnnnnnnnnnnnnnnnnnnnnnnnnnnnnnnnnnnnnnnnnnnnnnnnnnnnnnnnnnnnnnnnn",
"nnnnnnnnnnnnnnnnnnnnnnnnnnnnnnnnnnnnnnnnnnnnnnnnnnnnnnnnnnnnnnnnnnnnnnnnnnnnnnnn",
"nnnnnnnnnnnnnnnnnnnnnnnnnnnnnnnnnnnnnnnnnnnnnnnnnnnnnnnnnnnnnnnnnnnnnnnnnnnnnnnn",
"nnnnnnnnnnnnnnnnnnnnnnnnnnnnnnnnnnnnnnnnnnnnnnnnnnnnnnnnnnnnnnnnnnnnnnnnnnnnnnnn",
"nnnnnnnnnnnnnnnnnnnnnnnnnnnnnnnnnnnnnnnnnnnnnnnnnnnnnnnnnnnnnnnnnnnnnnnnnnnnnnnn",
"nnnnnnnnnnnnnnnnnnnnnnnnnnnnnnnnnnnnnnnnnnnnnnnnnnnnnnnnnnnnnnnnnnnnnnnnnnnnnnnn",
"nnnnnnnnnnnnnnnnnnnnnnnnnnnnnnnnnnnnnnnnnnnnnnnnnnnnnnnnnnnnnnnnnnnnnnnnnnnnnnnn",
"nnnnnnnnnnnnnnnnnnnnnnnnnnnnnnnnnnnnnnnnnnnnnnnnnnnnnnnnnnnnnnnnnnnnnnnnnnnnnnnn",
"nnnnnnnnnnnnnnnnnnnnnnnnnnnnnnnnnnnnnnnnnnnnnnnnnnnnnnnnnnnnnnnnnnnnnnnnnnnnnnnn",
"nnnnnnnnnnnnnnnnnnnnnnnnnnnnnnnnnnnnnnnnnnnnnnnnnnnnnnnnnnnnnnnnnnnnnnnnnnnnnnnn"
};
