/* XPM */
static char *xpm_[] = {
/* columns rows colors chars-per-pixel */
"80 80 34 1 ",
"  c #000000",
". c #000000",
"X c #000000",
"o c #000000",
"O c #000000",
"+ c #000000",
"@ c #000000",
"# c #000000",
"$ c #FFD800",
"% c #FFD800",
"& c #FFD800",
"* c #FFD800",
"= c #FFD800",
"- c #FFD800",
"; c #FFD800",
": c #FFD800",
"> c #FFD800",
", c #000000",
"< c #000000",
"1 c #000000",
"2 c #000000",
"3 c #FFD800",
"4 c #FFD800",
"5 c #FFD800",
"6 c #FFD800",
"7 c #000000",
"8 c #000000",
"9 c #FFD800",
"0 c #FFD800",
"q c #FFD800",
"w c #000000",
"e c #FFD800",
"r c #FFD800",
"t c None",
/* pixels */
"wwwwwwwwwwwwwwwwttttttttttttttttttttttttttttttttttttttttttttttttwwwwwwwwwwwwwwww",
"wwwwwwwwwwwwwwwwttttttttttttttttttttttttttttttttttttttttttttttttwwwwwwwwwwwwwwww",
"wwwwwwwwwwwwwwwwttttttttttttttttttttttttttttttttttttttttttttttttwwwwwwwwwwwwwwww",
"wwwwwwwwwwwwwwwwttttttttttttttttttttttttttttttttttttttttttttttttwwwwwwwwwwwwwwww",
"wwwwwwwwwwwwwwwwttttttttttttttttttttttttttttttttttttttttttttttttwwwwwwwwwwwwwwww",
"wwwwwwwwwwwwwwwwttttttttttttttttttttttttttttttttttttttttttttttttwwwwwwwwwwwwwwww",
"wwwwwwwwwwwwwwwwttttttttttttttttttttttttttttttttttttttttttttttttwwwwwwwwwwwwwwww",
"wwwwwwwwwwwwwwwwttttttttttttttttttttttttttttttttttttttttttttttttwwwwwwwwwwwwwwww",
"wwwwwwwwwwwwwwwwttttttttttttttttttttttttttttttttttttttttttttttttwwwwwwwwwwwwwwww",
"wwwwwwwwwwwwwwwwttttttttttttttttttttttttttttttttttttttttttttttttwwwwwwwwwwwwwwww",
"wwwwwwwwwwwwwwwwttttttttttttttttttttttttttttttttttttttttttttttttwwwwwwwwwwwwwwww",
"wwwwwwwwwwwwwwwwtttttttt2tttttttttttttttttttttttttttttttttttttttwwwwwwwwwwwwwwww",
"wwwwwwwwwwwwwwwwttttttttttttttttttttttttttttttttttttttttttttttttwwwwwwwwwwwwtttt",
"wwwwwwwwwwwwwwwwttttttttttttttttttttttttttttttttttttttttttttttttwwwwwwwwwwwwtttt",
"wwwwwwwwwwwwwwwwttttttttttttttttttttttttttttttttttttttttttttttttwwwwwwwwwwwwtttt",
"wwwwwwwwwwwwwwwwttttttttttttttttttttttttttttttttttttttttttttttttwwwwwwwwwwwwtttt",
"wwwwwwwwttttttttttttttttttttttttwwwwwwwwwwtttttttttttttttttttttttttttttttttttttt",
"wwwwwwwwttttttttttttttttttttttttwwwwwwwwwwtttttttttttttttttttttttttttttttttttttt",
"wwwwwwwwttttttttttttttttttttttttwwwwwwwwwwtttttttttttttttttttttttttttttttttttttt",
"wwwwwwwwttttttttttttttttttttttttwwwwwwwwwwtttttttttttttttttttttttttttttttttttttt",
"wwwwwwwwttttttttttttttttttttttttwwwwwwwwwwwwttttttttttttwwwwtttwtttttttttttttttt",
"wwwwwwwwttttttttttttttttttttttttwwwwwwwwwwwwttttttttttttwwwwttwwtttttttttttttttt",
"wwwwwwwwttttttttttttttttttttttttwwwwwwwwwwwwttttttttttttwwwwwwwwtttttttttttttttt",
"wwwwwwwwttttttttttttttttttttttttwwwwwwwwwwwwttttttttttttwwwwwwwwtttttttttttttttt",
"wwwwwwwwwwwwttttttttttttttttttttwwwwwwwwttttttttttttttttwwtttttttttttttttttttttt",
"wwwwwwwwwwwwttttttttttttttttttttwwwwwwwwttttttttttttttttwwtttttttttttttttttttttt",
"ttwwwwwwttwwttwwttttttttttttttttwwwwwwwwtttttwwtttttttttwwwttttttttttttttttttttt",
"tttt::9::6:06:9:::6::rttteettt#tw88w<#<<<<2tt##2tt<ttt28ww2tt8<ttttttttttttttttt",
"ttt:=================qttt###te#tto.t<+.+#o+too#.#t.+tt+#t8.<t2.ttttttttttttttttt",
"ttt3====*===*===*-===9tet###t##t2o.2tt.8t+#<.tt2.8o.<t+#t#.ot2.8tttttttttttttttt",
"ttt:==6ttteetteett9==0ett####t#t#<##t8.2t++#ottt.<o#.t+<to8.t2.ttttttttttttttttt",
"ttt3==ttttttttttttq==qttt######t.<+.t8.8t+#+ott8.<ot+++<2.2.<2.8tttttttttttttttt",
"ttt:==rtttttttttetr==6tet##tooo2.++.88.2w##<.tt2.8o8wo.2#o+.+2.ttttttttttttttttt",
"ttt0==qtttttttttttq==0ttt##ttoo##tt.#t.8wo+t.o<.+t.8w2.#.8t2.<.##ttttttttttttttt",
"wwt:==rettttttttttq==qtet22tt22#8tt<<t#8t<<tt+o<tt#ttt<<<ttt#2#+o2tttttttttttttt",
"wwt0==rtttttttttttr==0tttttttttttttttttttttttttttttttttttttttttttttttttttttttttt",
"www9==etettttttttt6==qtttt2##2t#<#8w8##8ttt2+#8t<#<ttt8<tt8##2t<2tt#t22tt2##tttt",
"wwt5==etttttttttttr==0ttt#o#o#too#88.o+.2t#.#+<t.+o.tt#.8t+.+.8o#ttoto#too#o2ttt",
"ttt:==rtttttttttttq==qtt2o2tttto2tt+ott#o8.2ttt8.8t.8to.<t++to#o#t2oto#2ottttttt",
"ttt6==rtttttttttttr==9tt2otttttoo+2.<tt2.+.ttttt.2#.t<#<ot+o8.2ooooo2o#oottttttt",
"ttw0==etttttttttttq==9et2ott2#to+<8.<tt2.+.wt8#t...2t++2.t#..#to#22o2o###tttwwww",
"ttw:==etttttttttttr==qtt2o2t2o2o2ttoott#.8.8t2.8.<.2t.++.<#+ttt.#ttoto#2#tttwwww",
"ttt3==rttttttttttt6==6ttt#o2#otoo<28.##.<t+.<+.8.2#o<ottoo#owwt.#t2o2o#t##t#twww",
"ttt:==rtetttttttttq==0tett#oo#t#++#t8+o2ttt<o+<t#88##2tt2#<<www#2tt#t#2te###wwww",
"ttt:==etttttttttttr==9etttttt2ttwwttttttttttttttttttttttttwwwwwwtttttttt2tttwwww",
"ttt3==etttttttttttq==qtett2##t#twt<tt82tw22tt82t2ttt282<<t82wwwwtttttttt2tttwwww",
"ttt:==rtttttttttetq==6ttt2o#o###w2.tt#.8w#.tt2ot.<tto2.oo8++wwwwttttttttttttwwww",
"ttt0==rtttttttttttr==0tt2o#ttt##w8.tto.<w<.+t2o8..8to2o2tt+#wwwwttttttttttttwwww",
"ttw0==ttttttttttwwe==qttr#eett##+..t2+<ow+#.22o8o+oto2oo+t++ttttwwwwwwwwwwwwwwww",
"ttw:==rtttttttttwwr==9tt##tttt##2#.t++<.w##2.<+8.t.#+2oo#8++ttttwwwwwwwwwwwwwwww",
"www9==--=&&&&&*&&&*==0et###ttt#tw2.too+.8##t+.+8.t8..2o2wt++ttttwwwwwwwwwwwwwwww",
"www:=================qttt#######t2.2owwo+#+tt.ot.tt#.8.+28+.<<ttwwwwwwwwwwwwwwww",
"wwwr::::::::::::::::%twwtt#####et2#<<tt2#<2tw8<t#www<8<++<<o++ttwwwwwwwwwwwwwwww",
"wwwwttttwwwwtttttttttwwwttttttttttttttttttttwwwwwwwwwwwwtwwtttttwwwwwwwwwwwwwwww",
"wwwwttttwwttttttttttttwwttttttttwwttttttttttwwwwwwwwwwwwwwttttttwwwwwwwwwwwwwwww",
"wwwwttttwwttttttttttttwwttttttttwwttttttttttwwwwwwwwwwwwwwttttttwwwwwwwwwwwwwwww",
"wwwwwwwwwwwwwwwwwwwwwwwwwwwwwwwwwwwwwwwwwwwwwwwwwwwwwwwwwwwwwwwwwwwwwwwwwwwwwwww",
"wwwwwwwwwwwwwwwwwwwwwwwwwwwwwwwwwwwwwwwwwwwwwwwwwwwwwwwwwwwwwwwwwwwwwwwwwwwwwwww",
"wwwwwwwwwwwwwwwwwwwwwwwwwwwwwwwwwwwwwwwwwwwwwwwwwwwwwwwwwwwwwwwwwwwwwwwwwwwwwwww",
"wwwwwwwwwwwwwwwwwwwwwwwwwwwwwwwwwwwwwwwwwwwwwwwwwwwwwwwwwwwwwwwwwwwwwwwwwwwwwwww",
"wwwwwwwwwwwwwwwwwwwwwwwwwwwwwwwwwwwwwwwwwwwwwwwwwwwwwwwwwwwwwwwwwwwwwwwwwwwwwwww",
"wwwwwwwwwwwwwwwwwwwwwwwwwwwwwwwwwwwwwwwwwwwwwwwwwwwwwwwwwwwwwwwwwwwwwwwwwwwwwwww",
"wwwwwwwwwwwwwwwwwwwwwwwwwwwwwwwwwwwwwwwwwwwwwwwwwwwwwwwwwwwwwwwwwwwwwwwwwwwwwwww",
"wwwwwwwwwwwwwwwwwwwwwwwwwwwwwwwwwwwwwwwwwwwwwwwwwwwwwwwwwwwwwwwwwwwwwwwwwwwwwwww",
"wwwwwwwwwwwwwwwwwwwwwwwwwwwwwwwwwwwwwwwwwwwwwwwwwwwwwwwwwwwwwwwwwwwwwwwwwwwwwwww",
"wwwwwwwwwwwwwwwwwwwwwwwwwwwwwwwwwwwwwwwwwwwwwwwwwwwwwwwwwwwwwwwwwwwwwwwwwwwwwwww",
"wwwwwwwwwwwwwwwwwwwwwwwwwwwwwwwwwwwwwwwwwwwwwwwwwwwwwwwwwwwwwwwwwwwwwwwwwwwwwwww",
"wwwwwwwwwwwwwwwwwwwwwwwwwwwwwwwwwwwwwwwwwwwwwwwwwwwwwwwwwwwwwwwwwwwwwwwwwwwwwwww",
"wwwwwwwwwwwwwwwwwwwwwwwwwwwwwwwwwwwwwwwwwwwwwwwwwwwwwwwwwwwwwwwwwwwwwwwwwwwwwwww",
"wwwwwwwwwwwwwwwwwwwwwwwwwwwwwwwwwwwwwwwwwwwwwwwwwwwwwwwwwwwwwwwwwwwwwwwwwwwwwwww",
"wwwwwwwwwwwwwwwwwwwwwwwwwwwwwwwwwwwwwwwwwwwwwwwwwwwwwwwwwwwwwwwwwwwwwwwwwwwwwwww",
"wwwwwwwwwwwwwwwwwwwwwwwwwwwwwwwwwwwwwwwwwwwwwwwwwwwwwwwwwwwwwwwwwwwwwwwwwwwwwwww",
"wwwwwwwwwwwwwwwwwwwwwwwwwwwwwwwwwwwwwwwwwwwwwwwwwwwwwwwwwwwwwwwwwwwwwwwwwwwwwwww",
"wwwwwwwwwwwwwwwwwwwwwwwwwwwwwwwwwwwwwwwwwwwwwwwwwwwwwwwwwwwwwwwwwwwwwwwwwwwwwwww",
"wwwwwwwwwwwwwwwwwwwwwwwwwwwwwwwwwwwwwwwwwwwwwwwwwwwwwwwwwwwwwwwwwwwwwwwwwwwwwwww",
"wwwwwwwwwwwwwwwwwwwwwwwwwwwwwwwwwwwwwwwwwwwwwwwwwwwwwwwwwwwwwwwwwwwwwwwwwwwwwwww",
"wwwwwwwwwwwwwwwwwwwwwwwwwwwwwwwwwwwwwwwwwwwwwwwwwwwwwwwwwwwwwwwwwwwwwwwwwwwwwwww",
"wwwwwwwwwwwwwwwwwwwwwwwwwwwwwwwwwwwwwwwwwwwwwwwwwwwwwwwwwwwwwwwwwwwwwwwwwwwwwwww",
"wwwwwwwwwwwwwwwwwwwwwwwwwwwwwwwwwwwwwwwwwwwwwwwwwwwwwwwwwwwwwwwwwwwwwwwwwwwwwwww",
"wwwwwwwwwwwwwwwwwwwwwwwwwwwwwwwwwwwwwwwwwwwwwwwwwwwwwwwwwwwwwwwwwwwwwwwwwwwwwwww"
};
