/* XPM */
static char *xpm_[] = {
/* columns rows colors chars-per-pixel */
"80 80 235 2 ",
"   c #14295E",
".  c #14295E",
"X  c #14295E",
"o  c #14295E",
"O  c #14295E",
"+  c #14295E",
"@  c #14295E",
"#  c #14295E",
"$  c #14295E",
"%  c #14295E",
"&  c #14295E",
"*  c #14295E",
"=  c #14295E",
"-  c #14295E",
";  c #14295E",
":  c #14295E",
">  c #14295E",
",  c #14295E",
"<  c #14295E",
"1  c #14295E",
"2  c #14295E",
"3  c #14295E",
"4  c #14295E",
"5  c #14295E",
"6  c #14295E",
"7  c #14295E",
"8  c #14295E",
"9  c #14295E",
"0  c #14295E",
"q  c #14295E",
"w  c #14295E",
"e  c #14295E",
"r  c #14295E",
"t  c #14295E",
"y  c #14295E",
"u  c #14295E",
"i  c #14295E",
"p  c #14295E",
"a  c #14295E",
"s  c #14295E",
"d  c #14295E",
"f  c #14295E",
"g  c #14295E",
"h  c #14295E",
"j  c #14295E",
"k  c #14295E",
"l  c #14295E",
"z  c #14295E",
"x  c #14295E",
"c  c #14295E",
"v  c #14295E",
"b  c #14295E",
"n  c #14295E",
"m  c #14295E",
"M  c #14295E",
"N  c #14295E",
"B  c #14295E",
"V  c #14295E",
"C  c #14295E",
"Z  c #14295E",
"A  c #14295E",
"S  c #14295E",
"D  c #14295E",
"F  c #14295E",
"G  c #14295E",
"H  c #14295E",
"J  c #14295E",
"K  c #14295E",
"L  c #14295E",
"P  c #14295E",
"I  c #14295E",
"U  c #14295E",
"Y  c #14295E",
"T  c #14295E",
"R  c #14295E",
"E  c #14295E",
"W  c #14295E",
"Q  c #14295E",
"!  c #14295E",
"~  c #14295E",
"^  c #14295E",
"/  c #14295E",
"(  c #14295E",
")  c #14295E",
"_  c #14295E",
"`  c #14295E",
"'  c #14295E",
"]  c #14295E",
"[  c #14295E",
"{  c #14295E",
"}  c #14295E",
"|  c #14295E",
" . c #14295E",
".. c #14295E",
"X. c #14295E",
"o. c #14295E",
"O. c #14295E",
"+. c #14295E",
"@. c #14295E",
"#. c #14295E",
"$. c #14295E",
"%. c #14295E",
"&. c #14295E",
"*. c #14295E",
"=. c #14295E",
"-. c #14295E",
";. c #14295E",
":. c #14295E",
">. c #14295E",
",. c #14295E",
"<. c #14295E",
"1. c #14295E",
"2. c #14295E",
"3. c #14295E",
"4. c #14295E",
"5. c #14295E",
"6. c #14295E",
"7. c #14295E",
"8. c #14295E",
"9. c #14295E",
"0. c #14295E",
"q. c #14295E",
"w. c #14295E",
"e. c #14295E",
"r. c #14295E",
"t. c #14295E",
"y. c #14295E",
"u. c #14295E",
"i. c #14295E",
"p. c #14295E",
"a. c #14295E",
"s. c #14295E",
"d. c #14295E",
"f. c #14295E",
"g. c #14295E",
"h. c #14295E",
"j. c #14295E",
"k. c #14295E",
"l. c #14295E",
"z. c #14295E",
"x. c #14295E",
"c. c #14295E",
"v. c #14295E",
"b. c #14295E",
"n. c #14295E",
"m. c #14295E",
"M. c #14295E",
"N. c #14295E",
"B. c #14295E",
"V. c #14295E",
"C. c #14295E",
"Z. c #14295E",
"A. c #14295E",
"S. c #14295E",
"D. c #14295E",
"F. c #14295E",
"G. c #14295E",
"H. c #14295E",
"J. c #14295E",
"K. c #14295E",
"L. c #14295E",
"P. c #14295E",
"I. c #14295E",
"U. c #14295E",
"Y. c #14295E",
"T. c #14295E",
"R. c #14295E",
"E. c #14295E",
"W. c #14295E",
"Q. c #14295E",
"!. c #14295E",
"~. c #14295E",
"^. c #14295E",
"/. c #14295E",
"(. c #14295E",
"). c #14295E",
"_. c #14295E",
"`. c #14295E",
"'. c #14295E",
"]. c #14295E",
"[. c #14295E",
"{. c #14295E",
"}. c #14295E",
"|. c #14295E",
" X c #14295E",
".X c #14295E",
"XX c #14295E",
"oX c #14295E",
"OX c #14295E",
"+X c #14295E",
"@X c #14295E",
"#X c #14295E",
"$X c #14295E",
"%X c #14295E",
"&X c #14295E",
"*X c #132A5D",
"=X c #14295E",
"-X c #14295E",
";X c #14295E",
":X c #14295E",
">X c #14295E",
",X c #14295E",
"<X c #14295E",
"1X c #14295E",
"2X c #14295E",
"3X c #14295E",
"4X c #14295E",
"5X c #14295E",
"6X c #14295E",
"7X c #14295E",
"8X c #14295E",
"9X c #14295E",
"0X c #14295E",
"qX c #14295E",
"wX c #14295E",
"eX c #14295E",
"rX c #14295E",
"tX c #14295E",
"yX c #14295E",
"uX c #14295E",
"iX c #14295E",
"pX c #14295E",
"aX c #14295F",
"sX c #14295E",
"dX c #14295E",
"fX c #14295E",
"gX c #14295E",
"hX c #14295E",
"jX c #14295E",
"kX c #14295E",
"lX c #14295E",
"zX c #14295E",
"xX c #14295E",
"cX c #14285E",
"vX c None",
/* pixels */
"vXvXvXvXvXvXvXvXvXvXvXvXvXvXvXvXvXvXvXvXvXvXvXvXvXvXvXvXvXvXvXvXvXvXvXvXvXvXvXvXvXvXvXvXvXvXvXvXvXvXvXvXvXvXvXvXvXvXvXvXvXvXvXvXvXvXvXvXvXvXvXvXvXvXvXvXvXvXvXvX",
"vXvXvXvXvXvXvXvXvXvXvXvXvXvXvXvXvXvXvXvXvXvXvXvXvXvXvXvXvXvXvXvXvXvXvXvXvXvXvXvXvXvXvXvXvXvXvXvXvXvXvXvXvXvXvXvXvXvXvXvXvXvXvXvXvXvXvXvXvXvXvXvXvXvXvXvXvXvXvXvX",
"vXvXvXvXvXvXvXvXvXvXvXvXvXvXvXvXvXvXvXvXvXvXvXvXvXvXvXvXvXvXvXvXvXvXvXvXvXvXvXvXvXvXvXvXvXvXvXvXvXvXvXvXvXvXvXvXvXvXvXvXvXvXvXvXvXvXvXvXvXvXvXvXvXvXvXvXvXvXvXvX",
"vXvXvXvXvXvXvXvXvXvXvXvXvXvXvXvXvXvXvXvXvXvXvXvXvXvXvXvXvXvXvXvXvXvXvXvXvXvXvXvXvXvXvXvXvXvXvXvXvXvXvXvXvXvXvXvXvXvXvXvXvXvXvXvXvXvXvXvXvXvXvXvXvXvXvXvXvXvXvXvX",
"vXvXvXvXvXvXvXvXvXvXvXvXvXvXvXvXvXvXvXvXvXvXvXvXvXvXvXvXvXvXvXvXvXvXvXvXvXvXvXvXvXvXvXvXvXvXvXvXvXvXvXvXvXvXvXvXvXvXvXvXvXvXvXvXvXvXvXvXvXvXvXvXvXvXvXvXvXvXvXvX",
"vXvXvXvXvXvXvXvXvXvXvXvXvXvXvXvXvXvXvXvXvXvXvXvXvXvXvXvXvXvXvXvXvXvXvXvXvXvXvXvXvXvXvXvXvXvXvXvXvXvXvXvXvXvXvXvXvXvXvXvXvXvXvXvXvXvXvXvXvXvXvXvXvXvXvXvXvXvXvXvX",
"vXvXvXvXvXvXvXvXvXvXvXvXvXvXvXvXvXvXvXvXvXvXvXvXvXvXvXvXvXvXvXvXvXvXvXvXvXvXvXvXvXvXvXvXvXvXvXvXvXvXvXvXvXvXvXvXvXvXvXvXvXvXvXvXvXvXvXvXvXvXvXvXvXvXvXvXvXvXvXvX",
"vXvXvXvXvXvXvXvXvXvXvXvXvXvXvXvXvXvXvXvXvXvXvXvXvXvXvXvXvXvXvXvXvXvXvXvXvXvXvXvXvXvXvXvXvXvXvXvXvXvXvXvXvXvXvXvXvXvXvXvXvXvXvXvXvXvXvXvXvXvXvXvXvXvXvXvXvXvXvXvX",
"vXvXvXvXvXvXvXvXvXvXvXvXvXvXvXvXvXvXvXvXvXvXvXvXvXvXvXvXvXvXvXvXvXvXvXvXvXvXvXvXvXvXvXvXvXvXvXvXvXvXvXvXvXvXvXvXvXvXvXvXvXvXvXvXvXvXvXvXvXvXvXvXvXvXvXvXvXvXvXvX",
"vXvXvXvXvXvXvXvXvXvXvXvXvXvXvXvXvXvXvXvXvXvXvXvXvXvXvXvXvXvXvXvXvXvXvXvXvXvXvXvXvXvXvXvXvXvXvXvXvXvXvXvXvXvXvXvXvXvXvXvXvXvXvXvXvXvXvXvXvXvXvXvXvXvXvXvXvXvXvXvX",
"vXvXvXvXvXvXvXvXvXvXvXvXvXvXvXvXvXvXvXvXvXvXvXvXvXvXvXvXvXvXvXvXvXvXvXvXvXvXvXvXvXvXvXvXvXvXvXvXvXvXvXvXvXvXvXvXvXvXvXvXvXvXvXvXvXvXvXvXvXvXvXvXvXvXvXvXvXvXvXvX",
"vXvXvXvXvXvXvXvXvXvXvXvXvXvXvXvXvXvXvXgXvX!.. . P vXgXvXvXvXvXvXvXvXvXvXvXvXvXvXvXvXvXvXvXvXvXvXvXvXvXvXvXvXvXvXvXvXvXvXvXvXvXvXvXvXvXvXvXvXvXvXvXvXvXvXvXvXvXvX",
"vXvXvXvXvXvXvXvXvXvXvXvXvXvXvXvXvXvXvXvXvX!.. . P vXgXvXvXvXvXvXvXvXvXvXvXvXvXvXvXvXvXvXvXvXvXvXvXvXvXvXvXvXvXvXvXvXvXvXvXvXvXvXvXvXvXvXvXvXvXvXvXvXvXvXvXvXvXvX",
"vXvXvXvXvXvXvXvXvXvXvXvXvXvXvXvXvXvXvXgXvX(.. . P vXgXvXvXvXvXvXvXvXvXvXvXvXvXvXvXvXvXvXvXvXvXvXvXvXvXvXvXvXvXvXvXvXvXvXvXvXvXvXvXvXvXvXvXvXvXvXvXvXvXvXvXvXvXvX",
"vXvXvXvXvXvXvXvXvXvXvXvXvXvXvXvXvXvXvXgXvX!.. . P vXgXvXvXvXvXvXvXvXvXvXvXvXvXvXvXvXvXvXvXvXvXvXvXvXvXvXvXvXvXvXvXvXvXvXvXvXvXvXvXvXvXvXvXvXvXvXvXvXvXvXvXvXvXvX",
"vXvXvXvXvXvXvXvXvXvXvXvXvXvXvXvXvXvXvXgXvX(.. . P vXgXvXvXvXvXvXvXvXvXvXvXvXvXvXvXvXvXvXvXvXvXvXvXvXvXvXvXvXvXvXvXvXvXvXvXvXvXvXvXvXvXvXvXvXvXvXvXvXvXvXvXvXvXvX",
"vXvXvXvXvXvXvXvXvXvXvXvXvXvXvXvXvXvXvXgXvX!.. . P vXgXvXvXvXvXvXvXvXvXvXvXvXvXvXvXvXvXvXvXvXvXvXvXvXvXvXvXvXvXvXvXvXvXvXvXvXvXvXvXvXvXvXvXvXvXvXvXvXvXvXvXvXvXvX",
"vXvXvXvXvXvXvXvXvXvXvXvXvXvXvXvXvXvXvXgXvX(.. . P vXgXvXvXvXvXvXvXvXvXvXvXvXvXvXvXvXvXvXvXvXvXvXvXvXvXvXvXvXvXvXvXvXvXvXvXvXvXvXvXvXvXvXvXvXvXvXvXvXvXvXvXvXvXvX",
"vXvXvXvXvXvXvXvXvXvXvXvXvXvXvXvXvXvXvXgXvX!.. . ;.vXgXvXvXvXvXvXvXvXvXvXvXvXvXvXvXvXvXvXvXvXvXvXvXvXvXvXvXvXvXvXvXvXvXvXvXvXvXvXvXvXvXvXvXvXvXvXvXvXvXvXvXvXvXvX",
"vXvXvXvXvXvXvXvXvXvXvXvXvXvXvXvXvXvXvXgXvX(.. . P vXgXvXvXvXvXvXvXvXvXvXvXvXvXvXvXvXvXvXvXvXvXvXvXvXvXvXvXvXvXvXvXvXvXvXvXvXvXvXvXvXvXvXvXvXvXvXvXvXvXvXvXvXvXvX",
"vXvXvXvXvXvXvXvXvXvXvXvXvXvXvXvXvXvXvXgXvX(.. . P vXvXvXvXvXvXvXvXvXvXvXvXvXvXvXvXvXvXvXvXvXvXvXvXvXvXvXvXvXvXvXvXvXvXvXvXvXvXvXvXvXvXvXvXvXvXvXvXvXvXvXvXvXvXvX",
"vXvXvXvXvXvXvXvXvXvXvXvXvXvXvXvXvXvXvXgXvX!.. . ;.vXgXvXvXvXvXvXvXvXvXvXvXvXvXvXvXvXvXvXvXvXvXvXvXvXvXvXvXvXvXvXvXvXvXvXvXvXvXvXvXvXvXvXvXvXvXvXvXvXvXvXvXvXvXvX",
"vXvXvXvXvXvXvXvXvXvXvXvXvXvXvXvXvXvXvXvXvX!.. . P vXgXvXvXvXvXvXvXvXvXvXvXvXvXvXvXvXvXvXvXvXvXvXvXvXvXvXvXvXvXvXvXvXvXvXvXvXvXvXvXvXvXvXvXvXvXvXvXvXvXvXvXvXvXvX",
"vXvXvXvXvXvXvXvXvXvXvXvXvXvXvXvXvXvXvXgXvX(.. . P vXgXvXvXvXvXvXvXvXvXvXvXvXvXvXvXvXvXvXvXvXvXvXvXvXvXvXvXvXvXvXvXvXvXvXvXvXvXvXvXvXvXvXvXvXvXvXvXvXvXvXvXvXvXvX",
"vXvXvXvXvXvXvXvXvXvXvXvXvXvXvXvXvXvXvXgXvX(.. . ;.vXvXgXvXvXvXvXvXvXvXvXvXvXvXvXvXvXvXvXvXvXvXvXvXvXvXvXvXvXvXvXvXvXvXvXvXvXvXvXvXvXvXvXvXvXvXvXvXvXvXvXvXvXvXvX",
"vXvXvXvXvXvXvXvXvXvXvXvXvXvXvXvXvXvXvXvXvX!.. . W vXgXvXvXvXvXvXvXvXvXvXvXvXvXvXvXvXvXvXvXvXvXvXvXvXvXvXvXvXvXvXvXvXvXvXvXvXvXvXvXvXvXvXvXvXvXvXvXvXvXvXvXvXvXvX",
"vXvXvXvXvXvXvXvXvXvXvXvXvXvXvXvXvXvXvXgXvX!.. . ;.vXgXvXvXvXvXvXvXvXvXvXvXvXvXvXvXvXvXvXvXvXvXvXvXvXvXvXvXvXvXvXvXvXvXvXvXvXvXvXvXvXvXvXvXvXvXvXvXvXvXvXvXvXvXvX",
"vXvXvXvXvXvXvXvXvXvXvXvXvXvXvXvXvXvXvXgXvX(.. . P vXgXvXvXvXvXvXvXvXvXvXvXvXvXvXvXvXvXvXvXvXvXvXvXvXvXvXvXvXvXvXvXvXvXvXvXvXvXvXvXvXvXvXvXvXvXvXvXvXvXvXvXvXvXvX",
"vXvXvXvXvXvXvXvXvXvXvXvXvXvXvXvXvXvXvXgXvX(.. . ;.vXgXvXvXvXvXvXvXvXvXvXvXvXvXvXvXvXvXvXvXvXvXvXvXvXvXvXvXvXvXvXvXvXvXvXvXvXvXvXvXvXvXvXcXcXvXcXvXvXvXvXvXvXvXvX",
"vXvXvXvXvXvXvXvXvXvXvXvXvXvXvXvXvXvXvXgXvX!.. . P vXgXvXvXvXvXvXvXvXvXvXvXvXvXvXvXvXvXvXvXvXvXvXvXvXvXvXvXvXvXvXvXvXvXvXvXvXvXvXcXcXvXvXcXzXzXzXzXcXvXvXvXvXvXvX",
"vXvXvXvXvXvXvXvXvXvXvXvXvXvXvXvXvXvXvXgXvX!.. . P vXgXvXvXvXvXvXvXvXvXvXvXvXvXvXvXvXvXvXvXvXvXvXvXvXvXvXvXvXvXvXvXvXvXvXvXvXvXvXzXzXgXfXvXvXvXvXvXvXzXcXvXvXvXvX",
"vXvXvXvXvXvXvXvXvXvXvXvXvXvXvXvXvXvXvXgXvX!.. . P vXgXvXvXvXvXgXgXvXvXvXvXvXvXvXvXvXvXvXvXvXgXvXvXgXvXvXvXvXvXvXvXvXvXvXvXvXvXvXkXkXgXgXpXH.) ) H.vXcXzXvXvXvXvX",
"vXvXvXvXzXzXvXvXvXxXxXxXxXxXxXxXzXzXvXvXzXH.. . ..vXxXxXvXvXcXcXvXvXvXgXgXgXvXvXxXxXxXvXvXvXvXvXvXxXxXxXvXvXvXvXcXkXlXkXzXxXxXxXkXkXcXH.. T ) [ y . H.vXgXkXzXcX",
"vXvXvXvXdXfXgXxXxXvXxXxXxXxXxXxXgXfXgXxXhXOX. . Q vXfXvXsXpXhXvX7X7XpXvXvXvXvXgXxXxXxXvXxX7X7X7X7XzX7X7XcXvXkXvXcXcXlXjXzXzXxXxXkXkX) # 7XcXcXcXvX,X. H.kXkXzXcX",
"vXvXvX. . . . . ' zXxXxXxXxXzXzXG.. . q . F dXhXG.. . . . . . . q 7 y G W E.gXvXxXxXxXxX=Xt 5 t 5 t 5 5 q 6 : y *.I.2XjXxXxXxXzXvXH.# vXgXfXpXH.y H.gX. 0XgXvXvX",
"vXvXvX. . . . . . ,XxXxXxXxXzXxXb.. . . . c xXxXG.. . . . . . . . . . . . . N !.xXxXxXxX:X. . . . . . . . . . . . . . ' xXxXxXxXvXy 2XvXH.[ . . . v.gXV.&.vXvXvX",
"vXvXvX. . . . . . G xXxXxXxXzXxXU.. . . . V xXxXb.. . . . . . . = = = = . = . . H.vXxXxX=X& . . . . . . . . . . . . . . E jXfXlX2X. vX&.. . . . . H.hXwX. xXvXvX",
"vXvXvX. . . . . . . H.xXzXxXzXzX9.. . . . V xXxXc.. . . . . . . . . . . . . = . 5 7XxXxX=X. . . . . . . . . . . . . . . . H.lXlX=X&.vX) H.! . . . B.pX7X# xXvXvX",
"vXvXvX. . . . . . . e vXzXzXzXxXG.. . . . B lXhXH.. . . . . D x W ;.l . . = . = .  .vXvX=X. . . . . D.H.H.H.z.I . . . . . x zXzX0Xi vXvXxXa . . . b.aX0Xi vXvXvX",
"vXvXvX. . . . . . . . H.zXkXkXzXE.. . . . = lXhXb.. . . . . fXgXvXvXvXE.= . . . . N vXvX=X. . . . . =XfXkXkXsXpXH.. . . . . sXzXvXX uXxXxXO.. . . V.pXQ.g vXvXvX",
"vXvXvX. . . . . . . . q vXvXlXzXU.. . . . F vXvXk.. . . . . ].gXpXgXgXvXu.. . . . = =XvX:X. . . . . &XjXkXkXkXxXiX. . . . . 0XlXvX) Y kXkXq . # ) pXvXi C.vXvXvX",
"vXvXvX. . . . . . . . . m.vXlXxXY.. . . . i vXvXz.. . . . . ;XcXgXvXvXvX0X: . . = . B.vX=X. . . . . H.fXkXxXxXxXxX. . . . . &XkXcXvX: P.vXH.=XgXkXvXQ ;.fXvXvXvX",
"vXvXvX. . . . . . . . . . hXzXxXJ.. . . . B vXvXz.. . . . . oXkXgXvXvXvXpXN . = . . 9.vX:X. . . . . &XpXlXkXxXxXuX. . . . . H.lXzXcXkXv F H.wX2XY.. Y zXjXkXvXvX",
"vXvXvX. . . . . . . . . . ) zXzXh.. . . . r vXvXM.. . . . . >XgXgXvXvXvXpXV . . . . 9.vX=X. . . . . 6XxXxXkXxXxXU . . . . . eXlXvXcXvXvXH...: ..~ H.zXzXkXkXvXvX",
"vXvXvX. . . . . . . . . . . 4XzXH.. . . . B xXxXk.. . . . . -XlXvXvXgXvXvXV . . . . h.xX}.. . . . . J.W.H.H.z.e . . . . . q xXxXvXvXcXcXvXcXvXvXcXcXkXcXvXvXvXvX",
"vXvXvX. . . . . D.. . . . . K gXC.. . . . B xXxXx.. . . . . |.hXgXvXvXvXvXi . = : . h.vX:X. . . . . . . . . . . . . . . . H.xXxXvXvXvXcXzXzXcXcXkXkXcXcXvXvXvXvX",
"vXvXvX. . . . . 4X' . . . . . sXB.. . . . B xXxXx.. . . . . |.hXgXvXvXvXvXN . . . . H.vX:X. . . . . . . . . . . . . . . ) xXxXxXvXvXvXvXcXvXvXvXvXvXvXvXvXvXvXvX",
"vXvXvX. . . . . 4XvX. . . . . *.W.. . . . c xXxXM.. . . . . -XlXvXvXvXvXvXN . . . . 8.vX:X. . . . . . . . . . . . . . Y.kXxXxXxXvXvXvXvXvXvXvXvXvXvXvXvXvXvXvXvX",
"vXvXvX. . . . . 4XlX) . . . . . 8.. . . . c xXxXH.. . . . . oXlXzXvXvXvXxXc . . . . 9.lX1X. . . . . . . . . . . . . G.cXkXcXvXvXvXvXvXvXvXvXvXvXvXvXvXvXvXvXvXvX",
"vXvXvX. . . . . 2XlXfX. . . . . . . . . . B xXxXC.. . . . . |.hXzXvXvXvXxXi . . . . 9.lX=X. . . . . c.sXpX... . . . . cXcXcXvXvXvXvXvXvXvXvXvXvXvXvXvXvXvXvXvXvX",
"vXvXvX. . . . . H.fXfXH.. . . . . . . . . B xXxX^.. . . . . .XlXzXzXvXvXxX. . . . . R.hX@X. . . . . `.pXvXwX. . . . .  XcXkXvXvXvXvXvXvXvXvXvXvXvXvXvXvXvXvXvXvX",
"vXvXvX. . . . . 1XdXfXlXd . . . . . . . . B xXxXb.. . . . . |.hXzXzXzXxX7X. . . . . |.hX,X. . . . . !.fXcXvXg . . . . . cXvXcXvXvXvXvXvXvXvXvXvXvXvXvXvXvXvXvXvX",
"vXvXvX. . . . . wXkXhXkXH.. . . . . . . . B vXvXz.. . . . . OXdXzXdXfXhXK . . . . . cXcX=X. . . . . H.dXiXhX,X. . . . . b.vXvXvXvXvXvXvXvXvXvXvXvXvXvXvXvXvXvXvX",
"vXvXvX. . . . . H.kXlXlXvXW . . . . . . . 5 vXvXC.. . . . . B.tXwX&XH.# . . . . . i cXcX1X. . . . . !.lXhXhXvXo . . . . . vXvXvXvXvXvXvXvXvXvXvXvXvXvXvXvXvXvXvX",
"vXvXvX. . . . . 2XdXlXlXdX2X. . . . . . . B vXvXx.. . . . . . . . . . . . . . . . H.cXcX2X. . . . . |.hXlXlXcX!.. . . . . `.vXzXvXvXvXvXvXvXvXvXvXvXvXvXvXvXvXvX",
"vXvXvX. . . . . H.fXhXhXdXlX) . . . . . . B vXvXk.. . . . . . . . . . . . . . . p cXcXcX5X. . . . . !.dXlXlXcXcX7 . . . . . vXvXxXvXvXvXvXvXvXvXvXvXvXvXvXvXvXvX",
"vXvXvX. . . . . wXdXkXcXcXcXsX. . . . . . x cXcXH.. . . . . . . . . . . . . . Z fXkXkXcX9X. . . . . {.zXzXvXkXvX{.. . . . . !.gXzXxXxXvXvXvXvXvXvXvXvXvXvXvXvXvX",
"vXvXvX. . . . . H.hXcXcXcXkXcX) . . . . . M cXcXC.. . . . . . . . . . . . . R.xXcXcXkXcX2X. . . . . D.gXkXvXzXvXxX. . . . . . dXvXxXvXvXvXvXvXvXvXvXvXvXvXvXvXvX",
"vXvXcX) x.) ) ) sXkXkXcXcXcXcXhX) ) q.) z.) } ) ` ) ) 8.w.) ) q.U.q.q.m.,XzXzXzXcXvXcXvX7X) ) 8.5.} 0XgXzXzXvXzXxXH.) q.) 8.) 7XvXxXvXvXvXvXvXvXvXvXvXvXvXvXvXvX",
"vXvXkXkXlXjXcXcXlXlXkXcXcXcXcXcXzXgXgXzXvX<X. . Z kXvXvXvXzXvXzXzXvXfXhXfXzXzXzXvXvXvXvXhXhXcXcXcXcXvXzXvXvXvXvXxXxXcXcXkXzXzXkXvXvXvXvXvXvXvXvXvXvXvXvXvXvXvXvX",
"vXvXvXcXcXkXkXkXvXvXvXvXcXvXvXcXhXzXhXgXzXH.. . E vXzXzXzXhXhXzXhXzXhXzXfXzXzXvXvXvXvXvXcXkXkXkXlXlXcXcXvXvXvXvXvXzXgXzXgXgXgXzXvXvXvXvXvXvXvXvXvXvXvXvXvXvXvXvX",
"vXvXvXvXvXvXcXcXvXvXvXvXvXvXvXvXvXvXzXzXzX=X. . L vXzXvXvXvXzXvXvXvXzXvXhXzXvXvXvXvXvXvXcXcXcXvXcXcXcXcXvXvXvXvXvXvXzXvXzXzXvXzXvXvXvXvXvXvXvXvXvXvXvXvXvXvXvXvX",
"vXvXvXvXvXvXvXvXvXvXvXvXvXvXvXvXvXvXzXgXzXOX. . ..vXzXvXvXvXvXvXvXvXvXvXvXvXvXvXvXvXvXvXvXvXvXvXcXcXcXcXvXvXvXvXvXvXvXvXvXvXvXvXvXvXvXvXvXvXvXvXvXvXvXvXvXvXvXvX",
"vXvXvXvXvXvXvXvXvXvXvXvXvXvXvXvXvXzXzXfXgXH.. . U zXzXvXvXvXvXvXvXvXvXvXvXvXvXvXvXvXvXvXvXvXcXcXcXcXcXcXvXvXvXvXvXvXvXvXvXvXvXvXvXvXvXvXvXvXvXvXvXvXvXvXvXvXvXvX",
"vXvXvXvXvXvXvXvXvXvXvXvXvXvXvXvXvXvXvXcXcX,X. . Y xXzXxXxXxXxXxXvXvXvXvXvXvXvXvXvXvXvXvXvXvXvXvXvXvXvXvXvXvXvXvXvXvXvXvXvXvXvXvXvXvXvXvXvXvXvXvXvXvXvXvXvXvXvXvX",
"vXvXvXvXvXvXvXvXvXvXvXvXvXvXvXvXvXvXvXcXcXH.. . U xXzXxXxXxXxXxXvXvXvXvXvXvXvXvXvXvXvXvXvXvXvXvXvXvXvXvXvXvXvXvXvXvXvXvXvXvXvXvXvXvXvXvXvXvXvXvXvXvXvXvXvXvXvXvX",
"vXvXvXvXvXvXvXvXvXvXvXvXvXvXvXvXvXvXvXcXjXH.. . U xXzXxXvXxXxXxXvXvXvXvXvXvXvXvXvXvXvXvXvXvXvXvXvXvXvXvXvXvXvXvXvXvXvXvXvXvXvXvXvXvXvXvXvXvXvXvXvXvXvXvXvXvXvXvX",
"vXvXvXvXvXvXvXvXvXvXvXvXvXvXvXvXvXvXcXcXgX<X. . ;.xXzXxXvXxXxXxXvXvXvXvXvXvXvXvXvXvXvXvXvXvXvXvXvXvXvXvXvXvXvXvXvXvXvXvXvXvXvXvXvXvXvXvXvXvXvXvXvXvXvXvXvXvXvXvX",
"vXvXvXvXvXvXvXvXvXvXvXvXvXvXvXvXvXvXvXcXcX<X. . ~ vXxXvXvXvXvXvXvXvXvXvXvXvXvXvXvXvXvXvXvXvXvXvXvXvXvXvXvXvXvXvXvXvXvXvXvXvXvXvXvXvXvXvXvXvXvXvXvXvXvXvXvXvXvXvX",
"vXvXvXvXvXvXvXvXvXvXvXvXvXvXvXvXvXvXvXvXgXfXvXcXzXxXxXvXvXvXvXvXvXvXvXvXvXvXvXvXvXvXvXvXvXvXvXvXvXvXvXvXvXvXvXvXvXvXvXvXvXvXvXvXvXvXvXvXvXvXvXvXvXvXvXvXvXvXvXvX",
"vXvXvXvXvXvXvXvXvXvXvXvXvXvXvXvXvXvXvXvXjXcXcXcXzXxXvXvXvXvXvXvXvXvXvXvXvXvXvXvXvXvXvXvXvXvXvXvXvXvXvXvXvXvXvXvXvXvXvXvXvXvXvXvXvXvXvXvXvXvXvXvXvXvXvXvXvXvXvXvX",
"vXvXvXvXvXvXvXvXvXvXvXvXvXvXvXvXvXvXvXvXkXkXcXcXxXxXvXvXvXvXvXvXvXvXvXvXvXvXvXvXvXvXvXvXvXvXvXvXvXvXvXvXvXvXvXvXvXvXvXvXvXvXvXvXvXvXvXvXvXvXvXvXvXvXvXvXvXvXvXvX",
"vXvXvXvXvXvXvXvXvXvXvXvXvXvXvXvXvXvXvXvXvXvXvXvXxXxXvXvXvXvXvXvXvXvXvXvXvXvXvXvXvXvXvXvXvXvXvXvXvXvXvXvXvXvXvXvXvXvXvXvXvXvXvXvXvXvXvXvXvXvXvXvXvXvXvXvXvXvXvXvX",
"vXvXvXvXvXvXvXvXvXvXvXvXvXvXvXvXvXvXvXvXvXvXvXvXvXxXvXvXvXvXvXvXvXvXvXvXvXvXvXvXvXvXvXvXvXvXvXvXvXvXvXvXvXvXvXvXvXvXvXvXvXvXvXvXvXvXvXvXvXvXvXvXvXvXvXvXvXvXvXvX",
"vXvXvXvXvXvXvXvXvXvXvXvXvXvXvXvXvXvXvXvXvXvXvXvXvXvXvXvXvXvXvXvXvXvXvXvXvXvXvXvXvXvXvXvXvXvXvXvXvXvXvXvXvXvXvXvXvXvXvXvXvXvXvXvXvXvXvXvXvXvXvXvXvXvXvXvXvXvXvXvX",
"vXvXvXvXvXvXvXvXvXvXvXvXvXvXvXvXvXvXvXvXvXvXvXvXvXvXvXvXvXvXvXvXvXvXvXvXvXvXvXvXvXvXvXvXvXvXvXvXvXvXvXvXvXvXvXvXvXvXvXvXvXvXvXvXvXvXvXvXvXvXvXvXvXvXvXvXvXvXvXvX",
"vXvXvXvXvXvXvXvXvXvXvXvXvXvXvXvXvXvXvXvXvXvXvXvXvXvXvXvXvXvXvXvXvXvXvXvXvXvXvXvXvXvXvXvXvXvXvXvXvXvXvXvXvXvXvXvXvXvXvXvXvXvXvXvXvXvXvXvXvXvXvXvXvXvXvXvXvXvXvXvX",
"vXvXvXvXvXvXvXvXvXvXvXvXvXvXvXvXvXvXvXvXvXvXvXvXvXvXvXvXvXvXvXvXvXvXvXvXvXvXvXvXvXvXvXvXvXvXvXvXvXvXvXvXvXvXvXvXvXvXvXvXvXvXvXvXvXvXvXvXvXvXvXvXvXvXvXvXvXvXvXvX",
"vXvXvXvXvXvXvXvXvXvXvXvXvXvXvXvXvXvXvXvXvXvXvXvXvXvXvXvXvXvXvXvXvXvXvXvXvXvXvXvXvXvXvXvXvXvXvXvXvXvXvXvXvXvXvXvXvXvXvXvXvXvXvXvXvXvXvXvXvXvXvXvXvXvXvXvXvXvXvXvX",
"vXvXvXvXvXvXvXvXvXvXvXvXvXvXvXvXvXvXvXvXvXvXvXvXvXvXvXvXvXvXvXvXvXvXvXvXvXvXvXvXvXvXvXvXvXvXvXvXvXvXvXvXvXvXvXvXvXvXvXvXvXvXvXvXvXvXvXvXvXvXvXvXvXvXvXvXvXvXvXvX"
};
