/* XPM */
static char *xpm_[] = {
/* columns rows colors chars-per-pixel */
"80 80 26 1 ",
"  c #000000",
". c #000000",
"X c #2B0507",
"o c #3A0709",
"O c #000000",
"+ c #000000",
"@ c #5D0B0E",
"# c #7B0F13",
"$ c #000000",
"% c #000000",
"& c #000000",
"* c #000000",
"= c #8E1116",
"- c #B5151C",
"; c #EE1C24",
": c #FD1E27",
"> c #EF1C24",
", c #000000",
"< c #000000",
"1 c #010000",
"2 c #000000",
"3 c #000000",
"4 c #530A0D",
"5 c #010000",
"6 c #020000",
"7 c None",
/* pixels */
"77777777777777777777777777777777777777777777777777777777777777777777777777777777",
"77777777777777777777777777777777777777777777777777777777777777777777777777777777",
"77777777777777777777777777777777777777777777777777777777777777777777777777777777",
"77777777777777777777777777777777777777777777777777777777777777777777777777777777",
"77777777777777777777777777777777777777777777777777777777777777777777777777777777",
"77777777777777777777777777777777777777777777777777777777777777777777777777777777",
"77777777777777777777777777777777777777777777777777777777777777777777777777777777",
"77777777777777777777777777777777777777777777777777777777777777777777777777777777",
"77777777777777777777777777777777777777777777777777777777777777777777777777777777",
"77777777777777777777777777777777777777777777777777777777777777777777777777777777",
"77777777777777777777777777777777777777777777777777777777777777777777777777777777",
"77777777777777777777777777777777777777777777777777777777777777777777777777777777",
"77777777777777777777777777777777777777777777777777777777777777777777777777777777",
"77777777777777777777777777777777777777777777777777777777777777777777777777777777",
"77777777777777777777777777777777777777777777777777777777777777777777777777777777",
"77777777777777777777777777777777777777777777777777777777777777777777777777777777",
"77777777777777777777777777777777777777777777777777777777777777777777777777777777",
"77777777777777777777777777777777777777777777777777777777777777777777777777777777",
"77777777777777777777777777777777777777777777777777777777777777777777777777777777",
"77777777777777777777777777777777777777777777777777777777777777777777777777777777",
"77777777777777777777777777777777777777777777777777777777777777777777777777777777",
"77777777777777777777777777777777777777777777777777777777777777777777777777777777",
"77777777777777777777777777777777777777777777777777777777777777777777777777777777",
"77777777777777777777777777777777777777777777777777777777777777777777777777777777",
"77777777777777777777777777777777777777777777777777777777777777777777777777777777",
"77777777777777777777777777776677777777777777777777777777777777777777777777777777",
"7777777777777$    *77771..+5..                         <7777776.  27777777777777",
"7777777777777$     %7771..+5.                           677777*  +77777777777777",
"7777777777777$      <771..O7   <<,,*<+   <<,<$   ,,,<   *77776   177777777777777",
"7777777777777$  *<   771..=>@  7777775   77772  %7777<   5777*  O777777777777777",
"7777777777777%  *7O  <71.@:;:X 6777776   5777<  +77777+  %775   1777777777777777",
"7777777777777$  *72  O71.#:;:o 7777776   5777<  +777771   17*  %7777777777777777",
"7777777777766%..*76+..<1.+-:=  7777776   6777<  +777777$  $5   37777777777777777",
"7777777777777+..*771......+5   251515%  +7777<  O7777775   O  $77777777777777777",
"7777777777777%..*777+.....O5            <77772  +7777777*     577777777777777777",
"7777777676766%..*7676%....+5           <77767<  +77777777    $767777767767777777",
"77777777767766556677775515563335535555777777775137777777765657777777777777777777",
"7777765<<<*<**<<<**<<577677677777762<<,**57767777777777773,<<,*,,<*,,,,,,,,,,777",
"7777*.................17677777777<       2777777777777777,                   777",
"776<...................677777775%        2777777777777777<                   777",
"776....................<777677<          2777777777777777,                   777",
"776.....%<<<<<11<<.....*77771O           <777777777767666,  O  O  O  O       777",
"777.....66777777671....*777*       <*    <     57776    O7666777677672      2777",
"777.....6767777777<....*7<       $57*    33    %777$    1777777777775      <7777",
"7775556667766551<*.....%%       2767*    27<    *7&    2777777777776      *77777",
"7777661<%+++............      ,77777*    277*    $    *777777777777O     %777777",
"7777<...................    %6777677*    1777%       $777777777777%     O7777777",
"776<..................<.   %51112222O    *1177O     +777777777777*     O67777777",
"777+............O$%*277                     375     576777777777<      677777777",
"776.....%15556777777777+                    57+     +77777777772      1777777777",
"777.....667777677777676O                    5$       $777777775      27777777777",
"776............. O   O  $$$$$$$O$%O$+    O$%$    O    *7777777      *76777777777",
"777.....               +7777777777772    17<    %7&    <77777+     *777777777777",
"776.....               O777777777777<    13    $777$    1777%     %7777777777777",
"777.....               +777777777777<    ,     77777+    67*      77777777777777",
"77776667777777777777777777777777777777777777777777777777777777777777777777777777",
"77777777777777777777777777777777777777777777777777777777777777777777777777777777",
"77777777777777777777777777777777777777777777777777777777777777777777777777777777",
"77777777777777777777777777777777777777777777777777777777777777777777777777777777",
"77777777777777777777777777777777777777777777777777777777777777777777777777777777",
"77777777777777777777777777777777777777777777777777777777777777777777777777777777",
"77777777777777777777777777777777777777777777777777777777777777777777777777777777",
"77777777777777777777777777777777777777777777777777777777777777777777777777777777",
"77777777777777777777777777777777777777777777777777777777777777777777777777777777",
"77777777777777777777777777777777777777777777777777777777777777777777777777777777",
"77777777777777777777777777777777777777777777777777777777777777777777777777777777",
"77777777777777777777777777777777777777777777777777777777777777777777777777777777",
"77777777777777777777777777777777777777777777777777777777777777777777777777777777",
"77777777777777777777777777777777777777777777777777777777777777777777777777777777",
"77777777777777777777777777777777777777777777777777777777777777777777777777777777",
"77777777777777777777777777777777777777777777777777777777777777777777777777777777",
"77777777777777777777777777777777777777777777777777777777777777777777777777777777",
"77777777777777777777777777777777777777777777777777777777777777777777777777777777",
"77777777777777777777777777777777777777777777777777777777777777777777777777777777",
"77777777777777777777777777777777777777777777777777777777777777777777777777777777",
"77777777777777777777777777777777777777777777777777777777777777777777777777777777",
"77777777777777777777777777777777777777777777777777777777777777777777777777777777",
"77777777777777777777777777777777777777777777777777777777777777777777777777777777",
"77777777777777777777777777777777777777777777777777777777777777777777777777777777",
"77777777777777777777777777777777777777777777777777777777777777777777777777777777"
};
