/* XPM */
static char *xpm_[] = {
/* columns rows colors chars-per-pixel */
"80 80 40 1 ",
"  c #E5C823",
". c #E5C823",
"X c #E5C823",
"o c #E5C823",
"O c #E5C823",
"+ c #E5C823",
"@ c #E5C823",
"# c #E5C823",
"$ c #E5C823",
"% c #E5C823",
"& c #E5C823",
"* c #E5C823",
"= c #E5C823",
"- c #E5C823",
"; c #E5C823",
": c #E5C823",
"> c #E5C823",
", c #E5C823",
"< c #E5C823",
"1 c #E5C823",
"2 c #E5C823",
"3 c #E5C823",
"4 c #E5C823",
"5 c #E5C823",
"6 c #E5C823",
"7 c #E5C823",
"8 c #E5C823",
"9 c #E5C823",
"0 c #E5C823",
"q c #E5C823",
"w c #E5C823",
"e c #E5C823",
"r c #E5C823",
"t c #E5C823",
"y c #E5C823",
"u c #E5C823",
"i c #E5C823",
"p c #E5C823",
"a c #E5C823",
"s c None",
/* pixels */
"ssssssssssssssssssssssssssssssssssssssssssssssssssssssssssssssssssssssssssssssss",
"ssssssssssssssssssssssssssssssssssssssssssssssssssssssssssssssssssssssssssssssss",
"ssssssssssssssssssssssssssssssssssssssssssssssssssssssssssssssssssssssssssssssss",
"ssssssssssssssssssssssssssssssssssssssssssssssssssssssssssssssssssssssssssssssss",
"ssssssssssssssssssssssssssssssssssssssssssssssssssssssssssssssssssssssssssssssss",
"ssssssssssssssssssssssssssssssssssssssssssssssssssssssssssssssssssssssssssssssss",
"ssssssssssssssssssssssssssssssssssssssssssssssssssssssssssssssssssssssssssssssss",
"ssssssssssssssssssssssssssssssssssssssssssssssssssssssssssssssssssssssssssssssss",
"ssssssssssssssssssssssssssssssssssssssssssssssssssssssssssssssssssssssssssssssss",
"ssssssssssssssssssssssssssssssssssssssssssssssssssssssssssssssssssssssssssssssss",
"ssssssssssssssssssssssssssssssssssssssssssssssssssssssssssssssssssssssssssssssss",
"ssssssssssssssssssssssssssssssssssssssssssssssssssssssssssssssssssssssssssssssss",
"ssssssssssssssssssssssssssssssssssssssssssssssssssssssssssssssssssssssssssssssss",
"ssssssssssssssssssssssssssssssssssssssssssssssssssssssssssssssssssssssssssssssss",
"ssssssssssssssssssssssssssssssssssssssssssssssssssssssssssssssssssssssssssssssss",
"ssssssssssssssssssssssssssssssssssssssssssssssssssssssssssssssssssssssssssssssss",
"ssssssssssssssssssssssssssssssssssssssssssssssssssssssssssssssssssssssssssssssss",
"ssssssssssssssssssssssssssssssssssssssssssssssssssssssssssssssssssssssssssssssss",
"ssssssssssssssssssssssssssssssssssssssssssssssssssssssssssssssssssssssssssssssss",
"ssssssssssssssssssssssssssssssssssssssssssssssssssssssssssssssssssssssssssssssss",
"ssssssssssssssssssssssssssssssssssssssssssssssssssssssssssssssssssssssssssssssss",
"ssssssssssssssssssssssssssssssssssssssssssssssssssssssssssssssssssssssssssssssss",
"ssssssssssssssssssssssssssssssssssssssssssssssssssssssssssssssssssssssssssssssss",
"ssssssssssssssssssssssssssssssssssssssssssssssssssssssssssssssssssssssssssssssss",
"ssssssssssssssssssssssssssssssssssssssssssssssssssssssssssssssssssssssssssssssss",
"ssssssssssssssssssssssssssssssssssssssssssssssssssssssssssssssssssssssssssssssss",
"ssssssssssssssssssssssssssssssssssssssssssssssssssssssssssssssssssssssssssssssss",
"ssssssssssssssssssssssssssssssssssssssssssssssssssssssssssssssssssssssssssssssss",
"ssssssssssssssssssssssssssssssssssssssssssssssssssssssssssssssssssssssssssssssss",
"ssssssssssssssssssssssssssssssssssssssssssssssssssssssssssssssssssssssssssssssss",
"ssssssssssssssssssssssssssssssssssssssssssssssssssssssssssssssssisssssssssssssss",
"ssssssss3,&;;&>3sssssssssss0,&;;$>1sssssssssss0,&;;$>1sssssu,,>oysssssip2 ::.sss",
"ssssssi<;;;;;;;;Oisssssssp+;;;;;;;;,sssssssse;;;;;;;;;>ssssr;;;;;*usssq;;;;;;sss",
"sssssw;;;;;;;;;;;;asssssr;;;;;;;;;;;;usssssu;;;;;;;;;;;*isir;;;;;;; s%;;;;;;;sss",
"ssssa;;;;;;;;;;;;;;ssssp;;;;;;;;;;;;;&ssssa;;;;;;;;;;;;;;sse;;;;;;;;;;;;;;;;;sss",
"ssss+;;;;;$95O;;;;;Osss=;;;;;:  O;;;;;>sss;;;;;;>2>+;;;;;>sp$+$;;;;;;;;;;;@=;sss",
"sssu;;;;;uisss3;;;;;ei1;;;;;assss8;;;;;isy;;;;;essss0;;;;;issssi:;;;;;;;qissssss",
"sssO;;;;wsssssi3;;;;6s=;;;;psssssse;;;;os,;;;;wssssss>;;;;>ssssss<;;;;;qssssssss",
"sss;;;;=ssssssss#;;;:s-;;;;@=#@+@&=;;;;>s;;;;>ssssssss*;;;.ssssssi;;;;;sssssssss",
"sss;;;;7sissssis8;;;@s;;;;;;;;;;;;;;;;;=s;;;;yssssssss>;;;$sssssss*;;;.sssssssss",
"sss;;;;2ssssssss ;;;=s;;;;;;;;;;;;;;;;;>s;;;;yssssssss>;;;=sssssss;;;;osssssssss",
"sss;;;;6ssssssss7;;;$s%;;;;$$$-;@--+-;->s;;;;>sissssss%;;;Ossssssp;;;;;sssssssss",
"sss;;;;qssssssiso;;;;so;;;;pssissssssssss>;;;;asissss1;;;;tssssss:;;;;;0ssssssss",
"sss;;;;6sssssssso;;;;sr;;;;;pssssssssssss0;;;;;psssi1;;;;;pssssi.;;;;;;;6sssssss",
"sss;;;;2sissssss4;;;$ss@;;;;;.>2o33>3>isss;;;;;;<>3=;;;;;.iu;+=;;;;;;;;;;;++Osss",
"sss;;;;6ssssssis ;;;=ssp;;;;;;;;;;;;;;>ssse;;;;;;;;;;;;;;iit;;;;;;;;;;;;;;;;;sss",
"sss;;;;qsssssssso;;;;ssst;;;;;;;;;;;;;rssss1;;;;;;;;;;;;isse;;;;;;; s*;;;;;;;sss",
"sss;;;;7ssssssss9;;;;ssssp@;;;;;;;;;;;3issssa-;;;;;;;;.ssssa;;;;;;1sss0;;;;;;sss",
"sss>::#rsssssssst=>O>sssssst@;;;;;;;;;1sissssst>;;;%>asssssa*,,>wssssssi2>+<<sss",
"ssssssssssssssssssssssssssssssssssssssisssssssssssssssssssssssssssssssssisssssss",
"ssssssssssssssssssssssssssssssssssssssssssssssssssssssssssssssssssssssssssssssss",
"ssssssssssssssssssssssssssssssssssssssssssssssssssssssssssssssssssssssssssssssss",
"ssssssssssssssssssssssssssssssssssssssssssssssssssssssssssssssssssssssssssssssss",
"ssssssssssssssssssssssssssssssssssssssssssssssssssssssssssssssssssssssssssssssss",
"ssssssssssssssssssssssssssssssssssssssssssssssssssssssssssssssssssssssssssssssss",
"ssssssssssssssssssssssssssssssssssssssssssssssssssssssssssssssssssssssssssssssss",
"ssssssssssssssssssssssssssssssssssssssssssssssssssssssssssssssssssssssssssssssss",
"ssssssssssssssssssssssssssssssssssssssssssssssssssssssssssssssssssssssssssssssss",
"ssssssssssssssssssssssssssssssssssssssssssssssssssssssssssssssssssssssssssssssss",
"ssssssssssssssssssssssssssssssssssssssssssssssssssssssssssssssssssssssssssssssss",
"ssssssssssssssssssssssssssssssssssssssssssssssssssssssssssssssssssssssssssssssss",
"ssssssssssssssssssssssssssssssssssssssssssssssssssssssssssssssssssssssssssssssss",
"ssssssssssssssssssssssssssssssssssssssssssssssssssssssssssssssssssssssssssssssss",
"ssssssssssssssssssssssssssssssssssssssssssssssssssssssssssssssssssssssssssssssss",
"ssssssssssssssssssssssssssssssssssssssssssssssssssssssssssssssssssssssssssssssss",
"ssssssssssssssssssssssssssssssssssssssssssssssssssssssssssssssssssssssssssssssss",
"ssssssssssssssssssssssssssssssssssssssssssssssssssssssssssssssssssssssssssssssss",
"ssssssssssssssssssssssssssssssssssssssssssssssssssssssssssssssssssssssssssssssss",
"ssssssssssssssssssssssssssssssssssssssssssssssssssssssssssssssssssssssssssssssss",
"ssssssssssssssssssssssssssssssssssssssssssssssssssssssssssssssssssssssssssssssss",
"ssssssssssssssssssssssssssssssssssssssssssssssssssssssssssssssssssssssssssssssss",
"ssssssssssssssssssssssssssssssssssssssssssssssssssssssssssssssssssssssssssssssss",
"ssssssssssssssssssssssssssssssssssssssssssssssssssssssssssssssssssssssssssssssss",
"ssssssssssssssssssssssssssssssssssssssssssssssssssssssssssssssssssssssssssssssss",
"ssssssssssssssssssssssssssssssssssssssssssssssssssssssssssssssssssssssssssssssss",
"ssssssssssssssssssssssssssssssssssssssssssssssssssssssssssssssssssssssssssssssss",
"ssssssssssssssssssssssssssssssssssssssssssssssssssssssssssssssssssssssssssssssss",
"ssssssssssssssssssssssssssssssssssssssssssssssssssssssssssssssssssssssssssssssss",
"ssssssssssssssssssssssssssssssssssssssssssssssssssssssssssssssssssssssssssssssss",
"ssssssssssssssssssssssssssssssssssssssssssssssssssssssssssssssssssssssssssssssss"
};
