/* XPM */
static char *xpm_[] = {
/* columns rows colors chars-per-pixel */
"80 80 214 2 ",
"   c #020202",
".  c #160009",
"X  c #0B110E",
"o  c #1D0913",
"O  c #161716",
"+  c #230615",
"@  c #26141D",
"#  c #1B211E",
"$  c #1E2521",
"%  c #262927",
"&  c #2B312E",
"*  c #3C3C3B",
"=  c #000000",
"-  c #4C0F2C",
";  c #45102B",
":  c #560F32",
">  c #5A1135",
",  c #5D1436",
"<  c #670E3B",
"1  c #66123B",
"2  c #433F3E",
"3  c #651A3C",
"4  c #8A1750",
"5  c #7F0F49",
"6  c #771344",
"7  c #81164A",
"8  c #961456",
"9  c #474847",
"0  c #4B514C",
"q  c #585757",
"w  c #524C4B",
"e  c #5D635C",
"r  c #676867",
"t  c #767575",
"y  c #72736F",
"u  c #030303",
"i  c #050505",
"p  c #090C0B",
"a  c #791E47",
"s  c #69183E",
"d  c #971756",
"f  c #902356",
"g  c #A12560",
"h  c #A51C60",
"j  c #B51768",
"k  c #9D205E",
"l  c #A2396F",
"z  c #D10679",
"x  c #D10679",
"c  c #C34E87",
"v  c #BF829C",
"b  c #9C0D59",
"n  c #8C1754",
"m  c #96185A",
"M  c #A3155E",
"N  c #86134C",
"B  c #A70C5D",
"V  c #BE005F",
"C  c #8D2059",
"Z  c #962560",
"A  c #9F1B63",
"S  c #AE0C64",
"D  c #BA0A69",
"F  c #A41964",
"G  c #B81769",
"H  c #D10679",
"J  c #C11871",
"K  c #9A2463",
"L  c #9D326B",
"P  c #A62469",
"I  c #A5336D",
"U  c #B52C75",
"Y  c #B53778",
"T  c #B22E70",
"R  c #C90872",
"E  c #B41666",
"W  c #C40A71",
"Q  c #C32C79",
"!  c #D10679",
"~  c #D10679",
"^  c #B13477",
"/  c #C5066D",
"(  c #C3176D",
")  c #CD0776",
"_  c #D20679",
"`  c #CB1774",
"'  c #D7167C",
"]  c #D10679",
"[  c #C62573",
"{  c #D6227C",
"}  c #C7367E",
"|  c #9A4974",
" . c #985276",
".. c #8D486D",
"X. c #A94579",
"o. c #B4437C",
"O. c #B1497B",
"+. c #827978",
"@. c #CF548F",
"#. c #C30D71",
"$. c #DB1A80",
"%. c #DE4F92",
"&. c #DE2E84",
"*. c #C04E82",
"=. c #E20881",
"-. c #D92B83",
";. c #DA3C88",
":. c #BB4A84",
">. c #BC5689",
",. c #AC5E86",
"<. c #A6688A",
"1. c #B5618C",
"2. c #BA6992",
"3. c #B87598",
"4. c #CB6296",
"5. c #D479A2",
"6. c #C94988",
"7. c #D9478E",
"8. c #C5598E",
"9. c #DB4B91",
"0. c #CC5C93",
"q. c #D85997",
"w. c #DC5796",
"e. c #E25B9C",
"r. c #CB6597",
"t. c #D6669C",
"y. c #C9749D",
"u. c #DB6BA1",
"i. c #CC77A2",
"p. c #D777A5",
"a. c #E26AA2",
"s. c #E076A8",
"d. c #888787",
"f. c #8B9188",
"g. c #9B9A9A",
"h. c #A19E9E",
"j. c #BB829F",
"k. c #BA87A2",
"l. c #BC93A9",
"z. c #A7A7A6",
"x. c #B7B6B6",
"c. c #B3ADAE",
"v. c #CFA7BA",
"b. c #C787A7",
"n. c #D885AB",
"m. c #C293AB",
"M. c #DF8BB1",
"N. c #C99AB3",
"B. c #D499B7",
"V. c #E28AB3",
"C. c #E392B6",
"Z. c #C9A6B9",
"A. c #D3A7BE",
"S. c #C0B0BA",
"D. c #E9A1BF",
"F. c #D5ACC2",
"G. c #CAB9C2",
"H. c #D6B7C7",
"J. c #CAC8C9",
"K. c #D4C6CD",
"L. c #D9CCD3",
"P. c #D8D8D8",
"I. c #D0D3CE",
"U. c #E2D6DC",
"Y. c #E2CAD6",
"T. c #E6DDE2",
"R. c #E8E8E8",
"E. c #F1EEEF",
"W. c #E7F1EB",
"Q. c #ECFAF2",
"!. c #F9FAFA",
"~. c #060606",
"^. c #811F4A",
"/. c #9E235E",
"(. c #0A0B0A",
"). c #444242",
"_. c #320F1F",
"`. c #772348",
"'. c #922B5A",
"]. c #CB0A76",
"[. c #93315D",
"{. c #AB3F72",
"}. c #CF0678",
"|. c #C06693",
" X c #94235A",
".X c #D286AC",
"XX c #AD1C65",
"oX c #BC1D6B",
"OX c #C20E70",
"+X c #D10679",
"@X c #D20679",
"#X c #DE3386",
"$X c #A22E64",
"%X c #D10679",
"&X c #CB2C7B",
"*X c #D10679",
"=X c #CB4E87",
"-X c #E05396",
";X c #E14C91",
":X c #DF77A6",
">X c #E299BC",
",X c #C45184",
"<X c #76153B",
"1X c #2C1F22",
"2X c #A42160",
"3X c #BA2670",
"4X c #912B5A",
"5X c #CC0D77",
"6X c #D10679",
"7X c #D5137E",
"8X c #9F476A",
"9X c #D8217E",
"0X c None",
"qX c #E65996",
/* pixels */
"0X0X0X0X0X0X0X0X0X0X0X0X0X0X0X0X= = = = = = = = = = = = = = = = = = = = = = = = = = = = = = = = = = = = = = = = = = = = = = = = = = = = = = = = = = = = = = = = ",
"0X0X0X0X0X0X0X0X0X0X0X0X0X0X0X0X= = = = = = = = = = = = = = = = = = = = = = = = = = = = = = = = = = = = = = = = = = = = = = = = = = = = = = = = = = = = = = = = ",
"0X0X0X0X0X0X0X0X0X0X0X0X0X0X0X0X= = = = = = = = = = = = = = = = = = = = = = = = = = = = = = = = = = = = = = = = = = = = = = = = = = = = = = = = = = = = = = = = ",
"0X0X0X0X0X0X0X0X0X0X0X0X0X0X0X0X= = = = = = = = = = = = = = = = = = = = = = = = = = = = = = = = = = = = = = = = = = = = = = = = = = = = = = = = = = = = = = = = ",
"0X0X0X0X0X0X0X0X0X0X0X0X0X0X0X0X= = = = = = = = = = = = = = = = = = = = = = = = = = = = = = = = = = = = = = = = = = = = = = = = = = = = = = = = = = = = = = = = ",
"0X0X0X0X0X0X0X0X0X0X0X0X0X0X0X0X= = = = = = = = = = = = = = = = = = = = = = = = = = = = = = = = = = = = = = = = = = = = = = = = = = = = = = = = = = = = = = = = ",
"0X0X0X0X0X0X0X0X0X0X0X0X0X0X0X0X= = = = = = = = = = = = = = = = = = = = = = = = = = = = = = = = = = = = = = = = = = = = = = = = = = = = = = = = = = = = = = = = ",
"0X0X0X0X0X0X0X0X0X0X0X0X0X0X0X0X= = = = = = = = = = = = = = = = = = = = = = = = = = = = = = = = = = = = = = = = = = = = = = = = = = = = = = = = = = = = = = = = ",
"0X0X0X0X0X0X0X0X0X0X0X0X0X0X0X0X= = = = = = = = = = = = = = = = = = = = = = = = = = = = = = = = = = = = = = = = = = = = = = = = = = = = = = = = = = = = = = = = ",
"0X0X0X0X0X0X0X0X0X0X0X0X0X0X0X0X= = = = = = = = = = = = = = = = = = = = = = = = = = = = = = = = = = = = = = = = = = = = = = = = = = = = = = = = = = = = = = = = ",
"0X0X0X0X0X0X0X0X0X0X0X0X0X0X0X0X= = = = = = = = = = = = = = = = = = = = = = = = = = = = = = = = = = = = = = = = = = = = = = = = = = = = = = = = = = = = = = = = ",
"0X0X0X0X0X0X0X0X0X0X0X0X0X0X0X0X= = = = = = = = = = = = = = = = = = = = = = = = = = = = = = = = = = = = = = = = = = = = = = = = = = = = = = = = = = = = = = = = ",
"0X0X0X0X0X0X0X0X0X0X0X0X0X0X0X0X= = = = = = = = = = = = = = = = = = = = = = = = = = = = = = = = = = = = = = = = = = = = = = = = = = = = = = = = = = = = = = = = ",
"0X0X0X0X0X0X0X0X0X0X0X0X0X0X0X0X= = = = = = = = = = = = = = = = = = = = = = = = = = = = = = = = = = = = = = = = = = = = = = = = = = = = = = = = = = = = = = = = ",
"0X0X0X0X0X0X0X0X0X0X0X0X0X0X0X0X= = = = = = = = = = = = = = = ^ = = = = = = = = = = = = = = = = = = = = = = = = = = = = = = = = = = = = = = = = = = = = = = = = ",
"0X0X0X0X0X0X0X0X0X0X0X0X0X0X0X0X= = = = = = = = = = = = = = = =.'.= = = = = = = = = = = = = = = = = = = = = = = = = = = = = = = = = = = = = = = = = = = = = = = ",
"0X0X0X0X0X0X0X0X0X0X0X0X0X0X0X0X0X0X0X0X0X0X0X0X= = = = = = ].=.|.= = = = = = = = = = = = = = = = = = = = = = = = = = = = = = = = = = = = = = = = = = = = = = = ",
"0X0X0X0X0X0X0X0X0X0X0X0X0X0X0X0X0X0X0X0X0X0X0X0X= = = = = = x W  .= = = = = = = = = = = = = = = = = = = = = = = = = = = = = = = = = = = = = = = = = = = = = = = ",
"0X0X0X0X0X0X0X0X0X0X0X0X0X0X0X0X0X0X0X0X0X0X0X0X= = = = = =  XA | L = = = = = = = = = = = = = = = = = = = = = = = = = = = = = = = = = = = = = = = = = = = = = = ",
"0X0X0X0X0X0X0X0X0X0X0X0X0X0X0X0X0X0X0X0X0X0X0X0X= = = = = = A A ^ | = = = = = = = = = = = = = = = = = = = = = = = = = = = = = = = = = = = = = = = = = = = = = = ",
"0X0X0X0X0X0X0X0X0X0X0X0X0X0X0X0X0X0X0X0X0X0X0X0X= = = = = 5 _ ] P A {.= = = = = = = = = = = = = = = = = = = = = = = = = = = = = = = = = = = = = = = = = = = = = ",
"0X0X0X0X0X0X0X0X0X0X0X0X0X0X0X0X0X0X0X0X0X0X0X0X= = = = = _ ] ] P A =X= = = = = = = = = = = = = = = = = = = = = = = = = = = = = = = = = = = = = = = = = = = = = ",
"0X0X0X0X0X0X0X0X0X0X0X0X0X0X0X0X0X0X0X0X0X0X0X0X= = = = = OX] _ U U Y = = = = = = = = = = = = = = = = = = = = = = = = = = = = = = = = = = = = = = = = = = = = = ",
"0X0X0X0X0X0X0X0X0X0X0X0X0X0X0X0X0X0X0X0X0X0X0X0X= = = = > F _ _ U 8.2.0X= = = = = = = = = = = = = = = = = = = = = = = = = = = = = = = = = = = = = = = = = = = = ",
"0X0X0X0X0X0X0X0X0X0X0X0X0X0X0X0X0X0X0X0X0X0X0X0X0X0X0X1X] _ _ _ ^ 0.X.L = = = = = = = = = = = = = = = = = = = = = = = = = = = = = = = = = = = = = = = = = = = = ",
"0X0X0X0X0X0X0X0X0X0X0X0X0X0X0X0X0X0X0X0X0X0X0X0X0X0X~. X_ ] _ _ :.U A P = = = = = = = = = = = = = = = = = = = = = = = = = = = = = = = = = = = = = = = = = = = = ",
"0X0X0X0X0X0X0X0X0X0X0X0X0X0X0X0X0X0X0X0X0X0X0X0X0X0X0XC _ U U _ ~ U A A = = = = = = = = = = = = = = = = = = = = = = = = = = = = = = = = = = = = = = = = = = = = ",
"0X0X0X0X0X0X0X0X0X0X0X0X0X0X0X0X0X0X0X0X0X0X0X0X0X0X= -.U U _ _ U ~ U U _.= = = = = = = = = = = = = = = = = = = = = = = = = = = = = = = = = = = = = = = = = = = ",
"0X0X0X0X0X0X0X0X0X0X0X0X0X0X0X0X0X0X0X0X0X0X0X0X= = @ v ,.X.U H # # # # ..= = = = = = = = = = = = = = = = = = = = = = = = = = = = = = = = = = = = = = = = = = = ",
"0X0X0X0X0X0X0X0X0X0X0X0X0X0X0X0X0X0X0X0X0X0X0X0X= = .X<.X.X.U U # # # # +.qX= = = = = = = = = = = = = = = = = = = = = = = = = = = = = = = = = = = = = = = = = = ",
"0X0X0X0X0X0X0X0X0X0X0X0X0X0X0X0X0X0X0X0X0X0X0X0X= = @ +.X.U U U # # # # # X = = = = = = = = = = = = = = = = = = = = = = = = = = = = = = = = = = = = = = = = = = ",
"0X0X0X0X0X0X0X0X0X0X0X0X0X0X0X0X0X0X0X0X0X0X0X0X= = |. .X.Y U X.# # # # # & = = = = = = = = = = = = = = = = = = = = = = = = = = = = = = = = = = = = = = = = = = ",
"= = = = = = = = = = = = = = = = 0X0X0X0X0X0X0X0X0X*.q.7.9.;.-.9.# $ $ $ # $ = = = = = = = = = = = = = = = = = = = = = = = = = = = = = = = = = = = = = = = = = = ",
"= = = = = = = = = = = = = = = = 4X=X=X=X=X=X=X=X=X6.e.9.;.9.9.{ $ $ $ $ $ $ X = = = = = = = = = = = = = = = = = = = = = = = = = = = = = = = = = = = = = = = = = ",
"= = = = & & & & & & <. ..Xd.<.X.a.s.a.q.9.;.7.9.e.e.9.9.9.a.e.' $ $ $ $ # # # # % % & & & & & % % % & & & & & & & % % w = = = = = = = = = = = = = = = = = = = = ",
"= = = = = % & % % &  . .+.+.<.<.e.e.0.u.} -.} ;.9.7.6.7.7.q.t.a.$ $ $ $ # # # # % % % & & % % % % % % & % & & & % & ).= = = = = = = = = = = = = = = = = = = = = ",
"= = = = = = = & % % % % <.k.h.<.q.Y.B.[ H.E.R.B.Y H.F.{ w.Y.n.n.% $ $ $ # # # # & & & & & & & & % % % $ % % & & & = = = = = = = = = = = = = = = = = = = = = = = ",
"= = = = = = = = & & $ % <.h.h.h.o.E.F.H.!.b.B.!.N.K.!.r.Y !.B.i.% $ $ $ # # # # & & & & & & & & % % $ $ $ # * * = = = = = = = = = = = = = = = = = = = = = = = = ",
"= = = = = = = = = # % $ <.g.g.g.2.H.T.!.y./ ( B.E.T.R.U.o.W.B.} % % $ $ % $ # # & & & & & & & & % % % $ # % p = = = = = = = = = = = = = = = = = = = = = = = = = ",
"= = = = = = = = = = = $ <.g.g.g.T.L.Q.!.6.' ) y.!.Q.N.H.H.R.i.) % % $ $ $ $ $ $ & & & & & & & & % % $ $ $ = = = = = = = = = = = = = = = = = = = = = = = = = = = ",
"= = = = = = = = 0X0X0X@ :.k.g.<.U.!.A.W.K.T T U.K.I.F.U R.R.i.w.% % % % % % % % % % % % & & & & & % & % = = = = = = = = = = = = = = = = = = = = = = = = = = = = ",
"= = = = = = = = 0X0X0X0X= +.g.<.:.!.N.,.Q.R.W.R.:.K.F./ b.W.m.r.% % % % % % % % % % % % & & & & & & = = = = = = = = = = = = = = = = = = = = = = = = = = = = = = ",
"= = = = = = = = 0X0X0X0X= = = :XF >.:.S Y y.y.T [ >.6.[ 6.b.i.i.% % % % % % % % % % % % & & & & % = = = = = = = = = = = = = = = = = = = = = = = = = = = = = = = ",
"= = = = = = = = 0X0X0X0X= = u @ . . . o + . . . . . + @ + . . o % @ $ % @ $ % $ % @ % % @ % % % # = = = = = = = = = = = = = = = = = = = = = = = = = = = = = = = ",
"= = = = = = = = 0X0X0X0X0X~.  % & & % X   % & % & $     % 0 9 % # # % % % % % $ % % $ # # # & % $ $ = = = = = = = = = = = = = = = = = = = = = = = = = = = = = = ",
"= = = = = = = = 0X0X0X0X0X(.  x.!.!.!.!.q c.!.!.E.c.  d.R.E.E.T.% # % % % % % % % % % # & & & & # $ = = = = = = = = = = = = = = = = = = = = = = = = = = = = = = ",
"= = = = = = = = 0X0X0X0X0X~.  x.!.c.z.!.E.I.!.z.f.r d.E.R.d.d.R.% % % % % % % % % % % $ & & & & & % = = = = = = = = = = = = = = = = = = = = = = = = = = = = = = ",
"= = = = = = = = 0X0X0X0X0X~.  x.!.O   x.!.E.!.q % 9 R.T.0 % % q % % % % % $ % % % % % $ & & & % % % = = = = = = = = = = = = = = = = = = = = = = = = = = = = = = ",
"= = = = = = = = = = = = = = & & !.f.d.E.E.I.E.!.!.P.R.J.2 w q 2 J.R.P.P.f.d.P.G.c.R.9   q P.J.U.% $ = = = = = = = = = = = = = = = = = = = = = = = = = = = = = = ",
"= = = = = = = = = = = = = = % % !.!.!.E.t c.!.c.z.z.E.J.9 q q 9 J.T.L.U.E.E.P.r g.R.2   q P.z.d.$ $ = = = = = = = = = = = = = = = = = = = = = = = = = = = = = = ",
"= = = = = = = = = = = = = = $ % !.y q 0 & x.!.q & 2 I.!.f.9 9 f.Q.x.c.R.t r 0 O h.T.9   e T.r   # $ = = = = = = = = = = = = = = = = = = = = = = = = = = = = = = ",
"= = = = = = = = = = = = = = $ $ E.9 % 9 9 x.!.R.E.z.y R.R.J.J.R.T.0 x.R.0 * 2 % z.R.J.J.J.P.J.J.% % = = = = = = = = = = = = = = = = = = = = = = = = = = = = = = ",
"= = = = = = = = = = = = = = % % K.q w q 9 z.I.J.Y.x.+.h.J.U.I.J.t 0 z.S.q 0 9 % d.c.z.z.z.h.h.z.$ $ = = = = = = = = = = = = = = = = = = = = = = = = = = = = = = ",
"= = = = = = = = = = = = = = % % 2 r 0 0 q q r t f.z.I.I.x.z.d.y r e 0 9 0 9 & $ X       X p     # # = = = = = = = = = = = = = = = = = = = = = = = = = = = = = = ",
"= = = = = = = = = = = = = = = = _._... . . .X.X.:.8.0.t.8.o.O.Y I L <.....L C C 3 ; ; ; ; ; 8X_.= = = = |.I = = = = = = P ^ = = = = _ _ }.F ~ ] ].W i = = = = = ",
"= = = = = = = = = = = = = = = = 0X~.0.q.t.;.[ ] _ _ ) ) ` ' ` s k -.u.t.-.=.=.=.H 6 6 6 5 C (.0X= = = = <.| = = = = = = F  X= = = 6X_ _ H #.A 6XF ~ R i = = = = ",
"= = = = = = = = = = = = = = = = 0X; :.1.:.U =.=.=.=.=.=.=.J  X0X0X_.9.;.=.=.) ) _ A l l j j _.0X= = = = ] ! = = = = = = }.] *X= = = }.] = = = = 7X=._ _ = = = = ",
"= = = = = = = = = = = = = = = = 0X4.>.:.U U ! =.H ] ] =.#.0X0X0X0X0X1XW =.=.H =.] _ x g j > ; 0X= = = = _ }.= = = = = = F ~ = = = = F ~ = = = = = 8X_ =.= = = = ",
"= = = = = = = = = = = = = = = = _.a.6.( U =.-.=.) ) -.s 0X0X0X0X0X0X0X0Xk =.) H ] ] _ x > h j 0X= = = = _ _ 3X= = = = = ~ F = = = = _ _ = = = = = = H =.1X= = = ",
"= = = = = = = = = = = = = = = = '.8.-.( H =.=.R ) M 8X0X0X0X0X0X0X0X0X0X0X_.H ] ] ] _ -.-X: > o = = = 8X_ _ _ _ _.%X6XA ] }.= = = ]._ _ = = = = = = %XF *X= = = ",
"= = = = = = = = = = = = = = = = N 0.-.( D D ] ) k 0X0X0X0X0X0X0X0X0X0X0X0X0X0XN ' _ ] _ #.l U @X= = = = _ _ _ =.! +XF }._ _ }.= = = }.] = = = = = = = }.! = = = ",
"= = = = = = = = = = = = = = = = G 6.S S S D J $X0X0X0X0X0X0X0X0X0X0X0X0X0X0X0X0X_.}.U H H z C &X= = = = _ _ }.3X1X= = = _ _ = = = = F ~ = = = = = = %XF *X= = = ",
"= = = = = = = = = = = = = = = = D J J S S N 1X0X0X0X0X0X0X0X0X0X0X0X0X0X0X0X0X0X= = #.~ ! A C n = = = = ~ ] = = = = = = ~ F = = = = ~ F = = = = = = ~ =.9X= = = ",
"= = = = = = = = = = = = = = = = H b S S f 0X0X0X0X0X0X0X0X0X0X0X0X0X0X0X0X0X0X0X= 0X  ; A ~ Z  X= = = = F }.= = = = = = ] }.= = = }.] }.= = = = = = =.=.= = = = ",
"= = = = = = = = = = = = = = = & % % ).= = = = = = = = = = = = = = = = = = = = = = = = = = % % |.t = = = {.U = = = = = = ].F = = = = =.=.0X= = = = *X] =.8X= = = ",
"= = = = = = = = = = = = = = = & % = = = = = = = = = = = = = = = = = = = = = = = = = = = = = = % :X= = = ^ U = = = = = = ] ~ = = = = =.=._ A z 2X_ ] _ ].= = = = ",
"= = = = = = = = = = = = = = = & = = = = = = = = = = = = = = = = = = = = = = = = = = = = = = = = ,.,X= = F }.= = = = = = _ =.z = = = }.=.=.=.=.=.}.#.= = = = = = ",
"= = = = = = = = = = = = = = = = = = = = = = = = = = = = = = = = = = = = = = = = = = = = = = = = = |.= = 1X= = = = = = = 3X*Xo = = = 1X6X*X@X}.3X= = = = = = = = ",
"= = = = = = = = = = = = = = = = = = = = = = = = = = = = = = = = = = = = = = = = = = = = = = = = = = = = = = = = = = = = = = = = = = = = = = = = = = = = = = = = ",
"= = = = = = = = = = = = = = = = = = = = = = = = = = = = = = = = = = = = = = = = = = = = = = = = = = = = = = = = = = = = = = = = = = = = = = = = = = = = = = = = ",
"= = = = = = = = = = = = = = = = = = = = = = = = = = = = = = = = = = = = = = = = = = = = = = = = = = = = = = = = = = = = = = = = = = = = = = = = = = = = = = = = ",
"= = = = = = = = = = = = = = = = = = = = = = = = = = = = = = = = = = = = = = = = = = = = = = = = = = = = = = = = = = = = = = = = = = = = = = = = = = = = = = = = ",
"= = = = = = = = = = = = = = = = = = = = = = = = = = = = = = = = = = = = = = = = = = = = = = = = = = = = = = = = = = = = = = = = = = = = = = = = = = = = = = = = ",
"= = = = = = = = = = = = = = = = = = = = = = = = = = = = = = = = = = = = = = = = = = = = = = = = = = = = = = = = = = = = = = = = = = = = = = = = = = = = = = = = ",
"= = = = = = = = = = = = = = = = = = = = = = = = = = = = = = = = = = = = = = = = = = = = = = = = = = = = = = = = = = = = = = = = = = = = = = = = = = = = = = = = ",
"= = = = = = = = = = = = = = = = = = = = = = = = = = = = = = = = = = = = = = = = = = = = = = = = = = = = = = = = = = = = = = = = = = = = = = = = = = = = = = = = ",
"= = = = = = = = = = = = = = = = = = = = = = = = = = = = = = = = = = = = = = = = = = = = = = = = = = = = = = = = = = = = = = = = = = = = = = = = = = = = = = = = ",
"= = = = = = = = = = = = = = = = = = = = = = = = = = = = = = = = = = = = = = = = = = = = = = = = = = = = = = = = = = = = = = = = = = = = = = = = = = = = = = = = ",
"= = = = = = = = = = = = = = = = = = = = = = = = = = = = = = = = = = = = = = = = = = = = = = = = = = = = = = = = = = = = = = = = = = = = = = = = = = = = = = = = ",
"= = = = = = = = = = = = = = = = = = = = = = = = = = = = = = = = = = = = = = = = = = = = = = = = = = = = = = = = = = = = = = = = = = = = = = = = = = = = = = = = "
};
