/* XPM */
static char *xpm_[] = {
/* columns rows colors chars-per-pixel */
"80 80 91 1 ",
"  c #339DD3",
". c #339DD3",
"X c #339DD3",
"o c #339DD3",
"O c #E4E4E5",
"+ c #339DD3",
"@ c #339DD3",
"# c #339DD3",
"$ c #339DD3",
"% c #339DD3",
"& c #339DD3",
"* c #339DD3",
"= c #349DD3",
"- c #339DD3",
"; c #329DD3",
": c #1B92CE",
"> c #118FD0",
", c #1D94D1",
"< c #339DD3",
"1 c #2898D1",
"2 c #349DD3",
"3 c #2F9BD3",
"4 c #339DD3",
"5 c #339DD3",
"6 c #3BA1D4",
"7 c #49A6D6",
"8 c #58ACD7",
"9 c #5CB1DC",
"0 c #68B2D8",
"q c #6BB5DC",
"w c #7CBADA",
"e c #6FBAE0",
"r c #73BCE1",
"t c #7CC0E3",
"y c #E4E4E5",
"u c #89C0DC",
"i c #96C5DD",
"p c #CEDBE3",
"a c #9FC8DE",
"s c #AECEE0",
"d c #BAD3E1",
"f c #BFD5E1",
"g c #C0D6E1",
"h c #89C6E6",
"j c #97CDE9",
"k c #9ED0EA",
"l c #A8D5EC",
"z c #B8D2E1",
"x c #BBDEF0",
"c c #CCDAE3",
"v c #DDE1E4",
"b c #E2E3E5",
"n c #E4E4E5",
"m c #C9D9E2",
"M c #DFE2E4",
"N c #E1E3E5",
"B c #C9E5F3",
"V c #DAEDF7",
"C c #E5E4E5",
"Z c #F3EAE7",
"A c #E6F3FA",
"S c #FEFEFF",
"D c #E4E4E5",
"F c #E4E4E5",
"G c #E4E4E5",
"H c #E4E4E5",
"J c #E4E4E5",
"K c #E4E4E5",
"L c #339DD3",
"P c #E4E4E5",
"I c #339DD3",
"U c #339DD3",
"Y c #339DD3",
"T c #339DD3",
"R c #339DD3",
"E c #E4E4E5",
"W c #E4E4E5",
"Q c #E4E4E5",
"! c #E4E4E5",
"~ c #E4E4E5",
"^ c #339DD3",
"/ c #E4E4E5",
"( c #2C9AD2",
") c #339DD3",
"_ c #E4E4E5",
"` c #E9E9E6",
"' c #339CD3",
"] c #2899D2",
"[ c #339DD3",
"{ c #E8E8E7",
"} c None",
/* pixels */
"}}}}}}}}}}}}}}}}}}}}}}}}}}}}}}}}}}}}}}}}}}}}}}}}}}}}}}}}}}}}}}}}}}}}}}}}}}}}}}}}",
"}}}}}}}}}}}}}}}}}}}}}}}}}}}}}}}}}}}}}}}}}}}}}}}}}}}}}}}}}}}}}}}}}}}}}}}}}}}}}}}}",
"}}}}}}}}}}}}}}}}}}}}}}}}}}}}}}}}}}}}}}}}}}}}}}}}}}}}}}}}}}}}}}}}}}}}}}}}}}}}}}}}",
"}}}}}}}}}}}}}}}}}}}}}}}}}}}}}}}}}}}}}}}}}}}}}}}}}}}}}}}}}}}}}}}}}}}}}}}}}}}}}}}}",
"}}}}}}}}}}}}}}}}}}}}}}}}}}}}}}}}}}}}}}}}}}}}}}}}}}}}}}}}}}}}}}}}}}}}}}}}}}}}}}}}",
"}}}}}}}}}}}}}}}}}}}}}}}}}}}}}}}}}}}}}}}}}}}}}}}}}}}}}}}}}}}}}}}}}}}}}}}}}}}}}}}}",
"}}}}}}}}}}}}}}}}}}}}}}}}}}}}}}}}}}}}}}}}}}}}}}}}}}}}}}}}}}}}}}}}}}}}}}}}}}}}}}}}",
"}}}}}}}}}}}}}}}}}}}}}}}}}}}}}}}}}}}}}}}}}}}}}}}}}}}}}}}}}}}}}}}}}}}}}}}}}}}}}}}}",
"}}}}}}}}}}}}}}}}}}}}}}}}}}}}}}}}}}}}}}}}}}}}}}}}}}}}}}}}}}}}}}}}}}}}}}}}}}}}}}}}",
"}}}}}}}}}}}}}}}}}}}}}}}}}}}}}}}}}}}}}}}}}}}}}}}}}}}}}}}}}}}}}}}}}}}}}}}}}}}}}}}}",
"}}}}}}}}}}}}}}}}}}}}}}}}}}}}}}}}}}}}}}}}}}}}}}}}}}}}}}}}}}}}}}}}}}}}}}}}}}}}}}}}",
"}}}}}}}}}}}}}}}}}}}}}}}}}}}}}}}}}}}}}}}}}}}}}}}}}}}}}}}}}}}}}}}}}}}}}}}}}}}}}}}}",
"}}}}}}}}}}}}}}}}}}}}}}}}}}}}}}}}}}}}}}}}}}}}}}}}}}}}}}}}}}}}}}}}}}}}}}}}}}}}}}}}",
"}}}}}}}}}}}}}}}}}}}}}}}}}}}}}}}}}}}}}}}}}}}}}}}}}}}}}}}}}}}}}}}}}}}}}}}}}}}}}}}}",
"}}}}}}}}}}}}}}}}}}}}}}}}}}}}}}}}}}}}}}}}}}}}}}}}}}}}}}}}}}}}}}}}}}}}}}}}}}}}}}}}",
"}}}}}}}}}}}}}}}}}}}}}}}}}}}}}}}}}}}}}}}}}}}}}}}}}}}}}}}}}}}}}}}}}}}}}}}}}}}}}}}}",
"}}}}}}}}}}}}}}}}}}}}}}}}}}PKG~}}}}}}}}}}}}}}}}}}}}R#%'}}}}}}}}}}}}}}}}}}}}}}}}}}",
"}}}}}}}}}}}}}}}}}}}}}}}}}KCCCSb}}}}}}}}}}}}}}}}}}=2622%}}}}}}}}}}}}}}}}}}}}}}}}}",
"}}}}}}}}}}}}}}}}}}}}}}}}!SNNCNCD'}`}}}}}}}}}}}}}32<2162.}}}}}}}}}}}}}}}}}}}}}}}}",
"}}}}}}}}}}}}}}}}}}}}}}}KCNCZCZCCZ{}}}}}}}}}}}}(32<222226&}}}}}}}}}}}}}}}}}}}}}}}",
"}}}}}}}}}}}}}}}}}}}}}}KZMCbq8aCCSb`}}}}}}}}}}(32<22222216.}}}}}}}}}}}}}}}}}}}}}}",
"}}}}}}}}}}}}}}}}}}}}}KCCZs2,118CZCb`}}}}}}}}(36<2222122622%}}}}}}}}}}}}}}}}}}}}}",
"}}}}}}}}}}}}}}}}}}}}KCNZh<60u510CCZn'}}}}}}L361222226221226%}}}}}}}}}}}}}}}}}}}}",
"}}}}}}}}}}}}}}}}}}}KCCCz<10CZa21wZCCA'}}}}(<2<22222222222216#}}}}}}}}}}}}}}}}}}}",
"}}}}}}}}}}}}}}}}}}HAMCCw10CCNZa12mCCCb'}}(5212222222222222216&}}}}}}}}}}}}}}}}}}",
"}}}}}}}}}}}}}}}}}KCCCCC0,0ZCNZs17mCCMCS{(462222222222222222216#}}}}}}}}}}}}}}}}}",
"}}}}}}}}}}}}}}}}GCMZZZCs11uZZz710ZCCCMSg322222222222222226222<2#}}}}}}}}}}}}}}}}",
"}}}}}}}}}}}}}}}GCvZcuaMCu11us<18MCCCNZm72112222222212221121211<2#}}}}}}}}}}}}}}}",
"}}}}}}}}}}}}}}GCMZa51,7mZu11117nCCCCZz6<18xVVVVBVVVBBVVVVVVVVh1<2%}}}}}}}}}}}}}}",
"}}}}}}}}}}}}}yCCZu118716mZa770CCCCNZz2226ASSSSSSSSSSSSSSSSSSSSh122 }}}}}}}}}}}}}",
"}}}}}}}}}}}}GCNCa11wCm715mZCCCCCCNZz2221qSSSSSSSSSSSSSSSSSSSSSV2226&}}}}}}}}}}}}",
"}}}}}}}}}}}KCCCN71wCCCn81wCCCCCCNZz222219SSSSSSSSSSSSSSSSSSSSSV22666%}}}}}}}}}}}",
"}}}}}}}}}}KCNCZb<1mZCCZw,0ZNCCCCZz2122222BSSSSSSSSSSSSSSSSSSSSV222212%}}}}}}}}}}",
"}}}}}}}}}KACCCCC818vCZs61iANCCCCl622222216hlllllllllllllBSSSSSV2222226-}}}}}}}}}",
"}}}}}}}}FSNCNmCZg617mg518CCCCNCz22222222221,11111111111,8SSSSSV22222222%}}}}}}}}",
"}}}}`}}KAZCa767zZz212218MCCCNZd22222222222666222222622619SSSSSV122222222*}}}}}}}",
"}}}}}}FCCCu11<1<sSd<220CCCCCZz222222222261122222222222219SSSSSV2222222216-}}}}}}",
"}}}}}KSCZu11um71<gZc218MCCCCz2222222222227xVVVVVVVVVVVVVASSSSSV22222222222%}}}}}",
"}}}}~ACCg11uCZM812gZd7>wZNCC9122222222226ASSSSSSSSSSSSSSSSSSSSV222222222212U}}}}",
"}}}}KCMZu,0ZNCCC81<mZd0dCCZm222222222221qSSSSSSSSSSSSSSSSSSSSSV222222222222%}}}}",
"}}}}GCMZu,7mCCCCM07MCCZCCNCB622222162261rSSSSSSSSSSSSSSSSSSSSSB1222222222<<%}}}}",
"}}}}~ZCCM617mCCCCCCCCCCCCCCCq16222222221rSSSSSSSSSSSSSSSSSSSSSq1222222222<2L}}}}",
"}}}}}KCMZb617mCCCCCCCCCCCCCCm21222222221rSSSSSAlllllllllllllk92222122222<2&}}}}}",
"}}}}}}KCMZc<17nZCCCCCCCCCCCNZm6<22222221rSSSSSB:111,,11111,11122226222216%}}}}}}",
"}}}}}}}GACZc7:uZNCCCNCCCCCCCCCm616222221rSSSSSx1222222266222662222222226%}}}}}}}",
"}}}}}}}}KZMZmumCCCCCCCCCCCCCCCCm61222221rSSSSSB122222222222211222222212#}}}}}}}}",
"}}}}}}}}}KCMCZCCCCCCCCCNCCCCCCCZm6222261rSSSSSSAAVAVVAAVVVVAVh222262<2%}}}}}}}}}",
"}}}}}}}}}}KCMCCVCNNCCCCCCCCCCCVNAm612221rSSSSSSSSSSSSSSSSSSSSSj1222<<&}}}}}}}}}}",
"}}}}}}}}}}}KZCCCCCCCCNCCCNCCCCCCCZm61261rSSSSSSSSSSSSSSSSSSSSSV22212&}}}}}}}}}}}",
"}}}}}}}}}}}}KACCCCCCCCCCCCCCCCCNCCCB61619SSSSSSSSSSSSSSSSSSSASB1226.}}}}}}}}}}}}",
"}}}}}}}}}}}}}KCMCCCCCCCCCCCCNCCCCCNZm7162xSSSSSSSSSSSSSSSSSSSSr162%}}}}}}}}}}}}}",
"}}}}}}}}}}}}}}~CNNCCCCCNCNCCCCCCCCCNZm7222tkllklllklklllklklk91<6.}}}}}}}}}}}}}}",
"}}}}}}}}}}}}}}}KCMCCCCCCCCCCCCCCCCCCNCm722,11111,111,11111,111<2.}}}}}}}}}}}}}}}",
"}}}}}}}}}}}}}`}}OCCCCNCCCCCCCCNCCCCNCNZp-2<22222222222622262226.}}}}}}}}}}}}}}}}",
"}}}}}}}}}}}}}}}}}OCMCCCCCCCCCCCCCCCCCCN}}32<222222222222222226.}}}}}}}}}}}}}}}}}",
"}}}}}}}}}}}}}}}}}}OCCNCCNVCCCCCCCCCNAN}}}}=222222222222222222.}}}}}}}}}}}}}}}}}}",
"}}}}}}}}}}}}}}}}}}}KACCCNCCCCCCCCCCZD}}}}}(46222222222222222.}}}}}}}}}}}}}}}}}}}",
"}}}}}}}}}}}}}}}}}}}}WCCCCCCCCCCCCNZn}}}}}}}}-21222122222216.}}}}}}}}}}}}}}}}}}}}",
"}}}}}}}}}}}}}}}}}}}`}OCCCCCCCCCCNAb}}}}}}}}}}-6222222222<2R}}}}}}}}}}}}}}}}}}}}}",
"}}}}}}}}}}}}}}}}}}}}}}WCCNCCCCCCCH}}}}}}}}}}}(-61222222<2R}}}}}}}}}}}}}}}}}}}}}}",
"}}}}}}}}}}}}}}}}}}}}}}}~CCNCCCCSb}}`}}}}}}}}}}}32<2222<2R}}}}}}}}}}}}}}}}}}}}}}}",
"}}}}}}}}}}}}}}}}}}}}}}}}WNCNCCCF}}}}}}}}}}}}}}}(-2<<<22R}}}}}}}}}}}}}}}}}}}}}}}}",
"}}}}}}}}}}}}}}}}}}}}}}}}}WCCSAy`}}}}}}}}}}}}}}}}}%2222T}}}}}}}}}}}}}}}}}}}}}}}}}",
"}}}}}}}}}}}}}}}}}}}}}}}}}}}W~~}}}}}}}}}}}}}}}}}}}}U.R(}}}}}}}}}}}}}}}}}}}}}}}}}}",
"}}}}}}}}}}}}}}}}}}}}}}}}}}}}}}}}}}}}}}}}}}}}}}}}}}}}}}}}}}}}}}}}}}}}}}}}}}}}}}}}",
"}}}}}}}}}}}}}}}}}}}}}}}}}}}}}}}}}}}}}}}}}}}}}}}}}}}}}}}}}}}}}}}}}}}}}}}}}}}}}}}}",
"}}}}}}}}}}}}}}}}}}}}}}}}}}}}}}}}}}}}}}}}}}}}}}}}}}}}}}}}}}}}}}}}}}}}}}}}}}}}}}}}",
"}}}}}}}}}}}}}}}}}}}}}}}}}}}}}}}}}}}}}}}}}}}}}}}}}}}}}}}}}}}}}}}}}}}}}}}}}}}}}}}}",
"}}}}}}}}}}}}}}}}}}}}}}}}}}}}}}}}}}}}}}}}}}}}}}}}}}}}}}}}}}}}}}}}}}}}}}}}}}}}}}}}",
"}}}}}}}}}}}}}}}}}}}}}}}}}}}}}}}}}}}}}}}}}}}}}}}}}}}}}}}}}}}}}}}}}}}}}}}}}}}}}}}}",
"}}}}}}}}}}}}}}}}}}}}}}}}}}}}}}}}}}}}}}}}}}}}}}}}}}}}}}}}}}}}}}}}}}}}}}}}}}}}}}}}",
"}}}}}}}}}}}}}}}}}}}}}}}}}}}}}}}}}}}}}}}}}}}}}}}}}}}}}}}}}}}}}}}}}}}}}}}}}}}}}}}}",
"}}}}}}}}}}}}}}}}}}}}}}}}}}}}}}}}}}}}}}}}}}}}}}}}}}}}}}}}}}}}}}}}}}}}}}}}}}}}}}}}",
"}}}}}}}}}}}}}}}}}}}}}}}}}}}}}}}}}}}}}}}}}}}}}}}}}}}}}}}}}}}}}}}}}}}}}}}}}}}}}}}}",
"}}}}}}}}}}}}}}}}}}}}}}}}}}}}}}}}}}}}}}}}}}}}}}}}}}}}}}}}}}}}}}}}}}}}}}}}}}}}}}}}",
"}}}}}}}}}}}}}}}}}}}}}}}}}}}}}}}}}}}}}}}}}}}}}}}}}}}}}}}}}}}}}}}}}}}}}}}}}}}}}}}}",
"}}}}}}}}}}}}}}}}}}}}}}}}}}}}}}}}}}}}}}}}}}}}}}}}}}}}}}}}}}}}}}}}}}}}}}}}}}}}}}}}",
"}}}}}}}}}}}}}}}}}}}}}}}}}}}}}}}}}}}}}}}}}}}}}}}}}}}}}}}}}}}}}}}}}}}}}}}}}}}}}}}}",
"}}}}}}}}}}}}}}}}}}}}}}}}}}}}}}}}}}}}}}}}}}}}}}}}}}}}}}}}}}}}}}}}}}}}}}}}}}}}}}}}",
"}}}}}}}}}}}}}}}}}}}}}}}}}}}}}}}}}}}}}}}}}}}}}}}}}}}}}}}}}}}}}}}}}}}}}}}}}}}}}}}}"
};
