/* XPM */
static char *xpm_[] = {
/* columns rows colors chars-per-pixel */
"80 80 219 2 ",
"   c #0A0B0B",
".  c #0E100F",
"X  c #13120E",
"o  c #060912",
"O  c #0F1111",
"+  c #161716",
"@  c #151515",
"#  c #221D0F",
"$  c #1E201F",
"%  c #282719",
"&  c #352D17",
"*  c #191C28",
"=  c #12182E",
"-  c #1E212C",
";  c #1E2032",
":  c #272729",
">  c #2E302E",
",  c #393529",
"<  c #282937",
"1  c #302F34",
"2  c #2F3138",
"3  c #373739",
"4  c #312F28",
"5  c #2D2E2D",
"6  c #343434",
"7  c #464646",
"8  c #483A18",
"9  c #453C0F",
"0  c #423A27",
"q  c #423E37",
"w  c #3E403F",
"e  c #59451A",
"r  c #4F4413",
"t  c #674B16",
"y  c #66541B",
"u  c #755919",
"i  c #715F0E",
"p  c #7C6918",
"a  c #716411",
"s  c #48432B",
"d  c #554925",
"f  c #5B5024",
"g  c #484334",
"h  c #534C38",
"j  c #5E5633",
"k  c #4B4936",
"l  c #62572A",
"z  c #63593E",
"x  c #786925",
"c  c #7F7127",
"v  c #6E6436",
"b  c #746B3C",
"n  c #75692F",
"m  c #2C2E43",
"M  c #2F3045",
"N  c #393943",
"B  c #3C3E52",
"V  c #403E46",
"C  c #403F51",
"Z  c #3E4143",
"A  c #3F4152",
"S  c #464748",
"D  c #5A5748",
"F  c #4B4B54",
"G  c #504F52",
"H  c #545456",
"J  c #504F53",
"K  c #605C46",
"L  c #7D7548",
"P  c #686358",
"I  c #78755A",
"U  c #6F6B50",
"Y  c #595A66",
"T  c #4C5062",
"R  c #615F64",
"E  c #605F72",
"W  c #5E6070",
"Q  c #646467",
"!  c #696A74",
"~  c #716E73",
"^  c #777678",
"/  c #747470",
"(  c #5F6061",
")  c #2A2A2A",
"_  c #404143",
"`  c #424242",
"'  c #5F6261",
"]  c #202133",
"[  c #84794F",
"{  c #65686B",
"}  c #6D6D6D",
"|  c #79797A",
" . c #8A4902",
".. c #914E01",
"X. c #995702",
"o. c #835C14",
"O. c #8E5005",
"+. c #A15E01",
"@. c #99650A",
"#. c #826817",
"$. c #8B751E",
"%. c #957516",
"&. c #8C720E",
"*. c #A96602",
"=. c #B26E01",
"-. c #AD7309",
";. c #B97502",
":. c #A37914",
">. c #A06E12",
",. c #887826",
"<. c #877E3E",
"1. c #AD8E3D",
"2. c #C37C01",
"3. c #857D58",
"4. c #8A7F49",
"5. c #ECC64F",
"6. c #9E8417",
"7. c #9B840F",
"8. c #BD8709",
"9. c #A58B1B",
"0. c #B58713",
"q. c #AD9619",
"w. c #BA9A14",
"e. c #BDA317",
"r. c #998526",
"t. c #9C8E35",
"y. c #A69526",
"u. c #A89836",
"i. c #AC9621",
"p. c #BBA72A",
"a. c #B3A033",
"s. c #D8AD3A",
"d. c #CA8402",
"f. c #D58C01",
"g. c #CB9708",
"h. c #DC9402",
"j. c #D1A11B",
"k. c #E49B01",
"l. c #C6A70D",
"z. c #D7A708",
"x. c #DBBA0E",
"c. c #C6A614",
"v. c #CFB518",
"b. c #D6B815",
"n. c #EAB821",
"m. c #EBA701",
"M. c #F1AD01",
"N. c #E6B609",
"B. c #F8B801",
"V. c #E0BE12",
"C. c #F5C120",
"Z. c #D7A235",
"A. c #D6B230",
"S. c #EDB62A",
"D. c #F5DB46",
"F. c #F2CF3F",
"G. c #EAC70B",
"H. c #FEC901",
"J. c #FED601",
"K. c #E7C714",
"L. c #EED417",
"P. c #FCDC17",
"I. c #F5CA14",
"U. c #FFE303",
"Y. c #FFE119",
"T. c #FFF000",
"R. c #F9DB29",
"E. c #F6DC36",
"W. c #F3D42C",
"Q. c #FEE128",
"!. c #FEE337",
"~. c #D6C125",
"^. c #948A50",
"/. c #B6A74C",
"(. c #918A68",
"). c #CBBA56",
"_. c #F7DF59",
"`. c #E1D069",
"'. c #F0DB4E",
"]. c #FEE447",
"[. c #FEE654",
"{. c #FAE76C",
"}. c #F6E56E",
"|. c #F2CB3D",
" X c #F4DD4E",
".X c #F3DC59",
"XX c #F7DD56",
"oX c #F4E77F",
"OX c #F4E360",
"+X c #F5E472",
"@X c #787C87",
"#X c #888889",
"$X c #878893",
"%X c #979797",
"&X c #91908F",
"*X c #9B9CA4",
"=X c #9DA0A9",
"-X c #A7A8A8",
";X c #B3B3B6",
":X c #505151",
">X c #717173",
",X c #767878",
"<X c #4E5368",
"1X c #B1A67C",
"2X c #4B4F64",
"3X c #EEE29D",
"4X c #F2E588",
"5X c #ECCD62",
"6X c #F1DF72",
"7X c #EFDC6E",
"8X c #F2E78A",
"9X c #9C9D9D",
"0X c #8C8B84",
"qX c #ECE3A0",
"wX c #E7E5CD",
"eX c #E8DCB1",
"rX c #E0E5E1",
"tX c None",
"yX c #96A1D0",
/* pixels */
"tXtXtXtXtXtXtXtXtXtXtXtXtXtXtXtXtXtXtXtXtXtXtXtXtXtXtXtXtXtXtXtXtXtXtXtXtXtXtXtXtXtXtXtXtXtXtXtXtXtXtXtXtXtXtXtXtXtXtXtXtXtXtXtXtXtXtXtXtXtXtXtXtXtXtXtXtXtXtXtX",
"tXtXtXtXtXtXtXtXtXtXtXtXtXtXtXtXtXtXtXtXtXtXtXtXtXtXtXtXtXtXtXtXtXtXtXtXtXtXtXtXtXtXtXtXtXtXtXtXtXtXtXtXtXtXtXtXtXtXtXtXtXtXtXtXtXtXtXtXtXtXtXtXtXtXtXtXtXtXtXtX",
"tXtXtXtXtXtXtXtXtXtXtXtXtXtXtXtXtXtXtXtXtXtXtXtXtXtXtXtXtXtXtXtXtXtXtXtXtXtXtXtXtXtXtXtXtXtXtXtXtXtXtXtXtXtXtXtXtXtXtXtXtXtXtXtXtXtXtXtXtXtXtXtXtXtXtXtXtXtXtXtX",
"tXtXtXtXtXtXtXtXtXtXtXtXtXtXtXtXtXtXtXtXtXtXtXtXtXtXtXtXtXtXtXtX% X c 7X XW.[.{.A.Z.Z.r.1., 0X<X  tXtXtXtXtXtXtXtXtXtXtXtXtXtXtXtXtXtXtXtXtXtXtXtXtXtXtXtXtXtXtX",
"tXtXtXtXtXtXtXtXtXtXtXtXtXtXtXtXtXtXtXtXtXtXtXtXtXtXtXtX  tXp i.C.C.M.N.H.M.m.m.k.h.k.h.f.d.%.x 7 :X] tXtXtXtXtXtXtXtXtXtXtXtXtXtXtXtXtXtXtXtXtXtXtXtXtXtXtXtXtX",
"tXtXtXtXtXtXtXtXtXtXtXtXtXtXtXtXtXtXtXtXtXtXtXtXtXX % y.'.D.x.x.B.B.M.M.B.B.m.m.m.h.h.h.h.f.f.f.S..X4 < Q wXtXtXtXtXtXtXtXtXtXtXtXtXtXtXtXtXtXtXtXtXtXtXtXtXtXtX",
"tXtXtXtXtXtXtXtXtXtXtXtXtXtXtXtXtXtXtXtXtXtXtXtX5XW.L.G.L.G.G.x.B.B.B.B.B.M.M.m.m.m.k.k.h.h.f.d.f.j.j.u 3 3 3 $ rXtXtXtXtXtXtXtXtXtXtXtXtXtXtXtXtXtXtXtXtXtXtXtX",
"tXtXtXtXtXtXtXtXtXtXtXtXtXtXtXtXtXtXtXtXtX. f L.W.L.K.G.G.G.G.G.B.H.B.B.B.B.M.M.m.m.m.k.k.h.f.f.f.2.2.h.j.P W w H H tXtXtXtXtXtXtXtXtXtXtXtXtXtXtXtXtXtXtXtXtXtX",
"tXtXtXtXtXtXtXtXtXtXtXtXtXtXtXtXtXtXtXtXs D.G.G.H.H.H.H.H.H.H.H.H.H.B.B.B.B.B.M.M.m.m.m.k.k.h.f.d.d.2.*.d.v.L *X#Xw Z 0XtXtXtXtXtXtXtXtXtXtXtXtXtXtXtXtXtXtXtXtX",
"tXtXtXtXtXtXtXtXtXtXtXtXtXtXtXtXtXtXyX_.L.L.G.G.J.H.J.H.H.H.H.H.H.B.H.B.B.B.B.B.M.M.m.m.m.k.h.h.f.d.2.2.*.;.N.n =X%XH > H yXtXtXtXtXtXtXtXtXtXtXtXtXtXtXtXtXtXtX",
"tXtXtXtXtXtXtXtXtXtXtXtXtXtXtXtXtX4XE.J.G.G.G.G.H.H.J.H.H.H.H.H.H.B.H.B.B.B.B.B.M.M.m.m.k.k.k.h.h.f.d.2.;.*.=.G.^.=X;X#X3 ( eXtXtXtXtXtXtXtXtXtXtXtXtXtXtXtXtXtX",
"tXtXtXtXtXtXtXtXtXtXtXtXtXtXtXtX+XL.J.G.G.G.G.G.J.J.H.H.H.H.H.H.H.H.H.H.H.B.B.B.B.M.M.m.m.m.k.k.h.f.f.2.2.;.*.-.G.1.-X;X%X( H H tXtXtXtXtXtXtXtXtXtXtXtXtXtXtXtX",
"tXtXtXtXtXtXtXtXtXtXtXtXtXtXtX+XP.H.J.J.J.J.J.J.H.J.H.H.J.H.H.H.H.H.H.H.B.H.B.B.B.B.M.M.m.m.m.h.k.h.f.d.2.;.=.X.8.G.I -X-X*XS 3 | tXtXtXtXtXtXtXtXtXtXtXtXtXtXtX",
"tXtXtXtXtXtXtXtXtXtXtXtXtXtXOXY.H.J.J.J.J.J.J.H.J.J.J.J.H.H.H.J.H.H.H.H.H.B.H.B.B.B.B.M.M.m.m.k.k.h.f.f.d.2.;.=...z.v./ -X-X%Xg 3 S tXtXtXtXtXtXtXtXtXtXtXtXtXtX",
"tXtXtXtXtXtXtXtXtXtXtXtXtX_.T.U.J.J.J.J.J.J.J.J.J.H.J.H.H.J.J.H.H.H.H.H.H.B.H.B.B.B.B.M.M.m.m.m.k.k.h.f.d.2.;.=.*.O.G.q.$X-X-X#XS 3 J tXtXtXtXtXtXtXtXtXtXtXtXtX",
"tXtXtXtXtXtXtXtXtXtXtXtX+XP.J.J.J.J.J.J.J.J.J.J.J.J.J.J.J.J.H.H.H.H.H.H.H.H.B.H.B.B.B.B.M.M.m.m.k.k.k.h.f.d.d.;.=.X.*.G.^.*X%X-X^ S S | tXtXtXtXtXtXtXtXtXtXtXtX",
"tXtXtXtXtXtXtXtXtXtXtX+XL.H.J.J.U.J.J.J.J.J.J.J.J.J.J.H.J.J.H.J.J.H.H.H.H.H.H.H.H.B.B.B.M.M.M.m.k.k.k.h.f.d.d.;.=.*.O.g.K.^ -X%X%XP w Z | tXtXtXtXtXtXtXtXtXtXtX",
"tXtXtXtXtXtXtXtXtXtX8XR.G.U.U.G.J.J.J.J.J.U.J.J.J.J.J.J.H.J.J.J.H.H.J.H.H.H.B.B.H.B.G.B.B.B.M.m.m.k.k.k.h.f.d.2.;.*.+.X.H.u.$X%X%X#X( Z H rXtXtXtXtXtXtXtXtXtXtX",
"tXtXtXtXtXtXtXtXtXwXQ.U.U.J.U.U.J.J.J.J.J.J.J.J.J.J.J.J.J.J.H.H.J.H.H.H.H.H.H.H.B.H.B.B.B.M.M.M.m.k.k.h.h.f.d.d.;.=.*...g.I./ %X&X&X! S S H tXtXtXtXtXtXtXtXtXtX",
"tXtXtXtXtXtXtXtXtX_.U.G.U.J.J.J.U.J.J.U.J.J.J.J.J.J.J.J.J.J.J.J.J.J.J.H.H.H.H.H.H.B.H.B.B.B.B.M.m.m.m.k.h.h.f.d.2.=.*.X...J.a.$X%X&X@XJ J w H tXtXtXtXtXtXtXtXtX",
"tXtXtXtXtXtXtXtX8XY.G.U.J.U.U.J.J.U.J.J.U.J.U.J.U.J.J.J.J.H.J.J.H.H.J.H.H.H.H.H.H.B.H.B.B.B.B.M.M.m.m.k.k.f.f.d.2.;.*.*. .g.L./ $X&X#XQ ( S H 0XtXtXtXtXtXtXtXtX",
"tXtXtXtXtXtXtXtXW.J.U.U.J.J.J.U.J.J.U.J.J.J.J.J.J.J.J.J.J.J.J.J.J.J.H.J.J.H.H.H.H.H.H.B.B.B.B.M.M.m.m.k.k.k.f.d.2.2.=.*.X.X.J.u.$X&X#X! ( ( Z S wXtXtXtXtXtXtXtX",
"tXtXtXtXtXtXtX+XJ.U.U.J.U.J.J.J.U.J.J.U.J.U.J.J.J.J.J.J.J.J.J.J.H.J.J.J.J.H.H.H.H.B.H.B.H.B.B.B.M.M.m.z.k.k.h.f.d.2.;.*.*. .z.K.^ #X@X^ H S Z 3 | tXtXtXtXtXtXtX",
"tXtXtXtXtXtX. ].J.U.J.U.J.U.U.J.U.J.J.U.J.J.J.U.J.J.J.J.J.J.J.J.J.J.J.H.H.J.H.H.H.H.H.H.B.B.B.N.B.m.m.m.k.h.h.f.d.2.;.*.*.O.-.U.^.@X^ ^ H ( S 3 S wXtXtXtXtXtXtX",
"tXtXtXtXtXtX+XY.T.U.U.U.J.U.J.U.J.U.J.J.J.U.J.U.J.J.J.U.J.J.J.J.J.J.J.J.H.H.J.H.H.H.H.H.B.B.B.B.M.M.m.m.k.k.h.h.f.d.;.=.*.X...J.F.! / ~ H ( S w 3 | tXtXtXtXtXtX",
"tXtXtXtXtXtX[.T.U.U.U.U.U.J.U.J.U.J.J.U.J.U.J.J.J.J.J.J.J.J.J.J.H.J.H.J.J.H.J.H.H.H.H.H.H.B.B.B.B.M.M.m.k.k.k.f.f.d.2.;.*.+. .z.L.Q ~ ! H ( ( Z 3 H tXtXtXtXtXtX",
"tXtXtXtXtXr L.G.J.U.J.U.J.U.U.J.U.J.U.J.J.J.J.J.J.U.J.J.U.J.J.J.J.J.J.J.J.J.H.H.H.H.H.H.H.B.H.B.B.B.M.M.m.M.k.h.f.d.2.;.*.*. .-.U.L Q Q H J S Z 3 > | tXtXtXtXtX",
"tXtXtXtXtXy.G.G.U.U.J.U.U.U.J.U.J.U.U.J.U.J.U.U.J.J.J.U.J.J.J.J.J.J.J.H.H.H.H.J.H.J.H.H.H.N.z.B.n.u d 0 d o.2.k.f.d.d.;.=.*.X.X.J.t.Y Q H J S Z 3 > ( tXtXtXtXtX",
"tXtXtXtXrX[.L.L.J.U.U.U.J.U.U.J.U.J.J.J.U.J.J.J.U.J.U.J.J.J.J.J.J.J.J.J.J.J.J.J.V.g.9.x f 0 4 g.M.4 ; : ; - 5 u h.f.d.;.=.*.X.O.G.v.J H H ( S w 3 > 3 tXtXtXtXtX",
"tXtXtXtX+X!.L.L.U.Y.Y.J.U.J.U.J.J.U.U.U.J.U.U.J.U.J.J.J.J.U.U.U.J.J.G.b.e.,.v d , < < < < < : 0.H.d - < 6 6 : * d g.d.2.=.*.+. .z.L.D J G S S w w > k 5 tXtXtXtX",
"tXtXtXtX<.L.L.L.P.Y.P.U.U.J.U.U.U.J.J.J.U.J.J.U.J.J.U.J.G.K.e.b.U.r.q 3 m 2 < 2 3 3 1 3 1 1 ; $.H.u - > 6 : : : * o.f.;.;.*.+. .8.U.b F ( ( S w 3 > > ` tXtXtXtX",
"tXtXtXtXD.L.W.L.Y.Q.Y.P.P.Y.Y.J.U.U.U.U.J.U.U.J.J.U.y.b K S M r.T.9.M S N Z N 3 3 1 3 1 1 1 < y H.%.= - - < : : - 4 d.d.;.*.*...@.U.,.S ( S S w 3 3 : Z tXtXtXtX",
"tXtXtXyX!.Y.Q.R.P.Y.Y.Y.Y.Y.Y.Y.J.L.L.U.T.J.J.U.J.U.U B F F B 1.T.c.N Z 3 N 3 3 N 3 3 1 < : 1 y B.n.%.0.u < < : : * @.2.2.=.+...X.J.y.A S Z w w > > : > <XtXtXtX",
"tXtXtX+X!.Q.Q.Q.Q.Q.Q.Q.Y.Y.L.u.I P P L p.U.U.J.J.U.r.A G S S z J.K.S Z N N N N 3 3 1 q %.j.z.N.B.B.B.B.B.d - : : * o.f.2.=.+.+...H.e.Z S S w w > > % - :XtXtXtX",
"tXtXtX+XE.Q.Q.Q.Q.Q.Q.Q.Q.W.I Y R R Y Y T t.U.U.U.U.p.F G S S ( G.J.h w j c n 3 3 3 2 d J.H.H.H.H.B.B.M.B.o.- : 6 - e f.2.=.*.+. .G.x.3 Z w w w > > : $ ` tXtXtX",
"tXtXtX+X!.Q.!.Q.Q.!.Q.Q.E.I W ~ Q W R R Q T p.T.J.U.b.F G G G C v.U.V.K.I.U.V.3 N 3 N q N.H.H.B.B.B.B.M.B.>.* : : - 0 2.2.=.*.+. .x.G.w Z w w > > > : $ 6 tXtXtX",
"tXtXtX{.!.!.!.!.!.Q.!.Q./.! ! Q Q Q Q R R H U L.U.U.K.D F J J C q.U.U.J.J.J.G.h N 3 3 2 c.H.H.B.B.B.B.N.B.g.: : : : 4 ;.2.;.*.+. .z.G.w w w 3 w > > : $ 5 tXtXtX",
"tXtXtX{.!.!.!.!.!.!.!.!.(.! ~ Q ! Q R Q R R T a.U.J.U.U F F J C r.U.J.J.J.J.J.l N 3 3 m 9.H.H.H.H.B.B.M.M.g.4 * ) : * >.2.=.*.+. .g.J.k > w > > > : $ + 6 tXtXtX",
"tXtXtX{.!.!.].!.!.!.!.Q.(.~ ~ ! ! ^.^.Y Q R Y P L.J.U.c F F G C b U.J.J.J.H.U.,.N N N 2 ,.H.H.B.B.B.B.M.M.m.0 * ) - * O.2.;.=.+.i f.U.s > > > > : : $ $ > tXtXtX",
"tXtXtX{.!.].!.!.].!.!.!.(.! ~ ~ W ^._.Y Q R R T u.U.T.u.F H G F D J.J.J.J.J.U.r.M 3 1 < f H.H.B.B.B.B.M.M.M.t * ) 5 * t f.;.*.+. .g.P.k 2 > > > : $ $ + > tXtXtX",
"tXtXtX{.[.].].].].!.!.!./.! ~ ~ ! I Q.3.Y Q R Y P K.U.v.T J H J G K.J.J.J.H.J.e.: > : - 0 B.H.B.B.B.B.M.M.M.o.] : ) ] 8 2.2.*.+. .g.J.0 < > : : : * * @ 3 tXtXtX",
"tXtXtX{.].[.].].].!.].!.`.@X^ ~ ! ! E.~.W Q R P Y ^.T.b.J F S S 2 c.J.J.J.H.J.x.: : : < : z.H.B.B.B.B.M.M.M.:.] - : ] & 2.2.=.+. .g.P.8 : 4 4 : % % + X 4 tXtXtX",
"tXtXtX}.].].].].].].].!.'.^ ^ ~ ~ ! D.Q.^.W Q Y J S V.J.q 2 2 1 ; 7.U.H.J.H.H.I.0 : > 1 ; w.H.B.B.B.B.M.M.M.d.; - 5 ) 5 =.2.*.+. .z.G., - : : $ * + + X : tXtXtX",
"tXtXtX`.].[.[.].].].].].E.^ ^ ^ ^ W /.T.v.Z w 3 1 < x P.f < 2 1 ; x J.J.J.H.J.J.y ; 1 6 ; %.J.B.B.B.M.M.M.M.k.0 - 5 - ) @.2.*.+. .x.G.4 : : $ $ $ + + . $ tXtXtX",
"tXtXtX, [.[.[.[.[.].].E.!.3.Y J S M c J.J.x ; N 2 N < b.,.; 3 2 < j J.J.H.J.H.J.#.; > 6 ; u H.B.B.B.B.B.M.m.m.0 - : : ] u 2.+.+. .N.N.% - % : + + + @   w tXtXtX",
"tXtXtX0 [.[.].!.R.P.P.J.U.x m 3 N 2 j J.J.v.2 N 3 3 < x i.< 3 3 > w G.J.J.H.J.J.9.; 1 > ; d H.H.B.B.B.B.M.k.M.t = ] - ] t 2.*.+...G.l.+ $ - + + + + X   wXtXtXtX",
"tXtXtX& R.P.U.J.J.J.J.J.U.9.M w w M g J.J.U.c < 3 3 3 3 j 2 3 2 2 , G.J.H.J.H.J.j.< > > < , N.B.B.B.M.M.M.m.M.>.8 o.@.-.=.=.=.X.O.J.q.O $ + + + @ .   . ) tXtXtX",
"tXtXtXX P.J.J.J.J.J.J.J.U.c.M Z Z 3 3 b.J.U.x.w M N 3 M 2 2 2 2 2 s H.J.J.H.H.J.N., < < < * g.H.B.B.B.M.M.m.m.k.k.k.k.2.2.2.=.X.@.U.&.o $ + @ @ .     O <XtXtXtX",
"tXtXtX. & 9 9 9 9 9 9 9 9 9 9 9 V N M e.U.J.U.$.< N 3 3 N 2 3 3 < $.J.J.H.J.H.J.H.0 < q f u z.H.B.B.B.M.M.m.k.k.k.f.f.2.2.=.*.X.-.U.y   + O . . .     X tXtXtXtX",
"tXtXtXtX% a 9 9 9 9 9 9 9 9 0 8 N N M 6.U.J.J.K.k m 3 N 3 3 3 m s G.J.H.J.H.J.H.H.c.z.N.H.H.H.B.B.B.M.M.m.m.k.k.k.h.h.2.2.=.*...8.U.&   X O . .       + tXtXtXtX",
"tXtXtXtX% a r r 9 9 9 9 b.~.0 3XZ S M x J.J.J.J.b.k m m 2 m < j K.J.J.J.H.J.J.H.H.J.H.H.H.B.H.B.B.B.B.M.M.m.k.k.h.h.f.2.2.=.*...z.G.+ O O O .     .   yXtXtXtXtX",
"tXtXtXtXtXr r r 9 9 9 9 b.~.OX(.Z Z N j J.J.J.J.U.G.9.x l $.e.J.J.H.H.J.J.H.H.H.H.H.H.H.B.H.B.H.B.B.M.M.M.k.k.k.h.f.d.2.2.=.+...H.e.o X O O . .   . % yXtXtXtXtX",
"tXtXtXtXtX}.y r J.J.J.J.x.x.q.k N M M k G.J.J.J.J.J.J.U.J.U.J.J.J.J.J.H.H.J.H.J.H.H.H.H.B.H.B.B.B.B.M.M.m.m.k.k.h.f.f.2.2.=.+.+.U.p o X X X         5 tXtXtXtXtX",
"tXtXtXtXtX4Xe e J.J.J.J.x.x.L.4Xv ,.q.v.J.J.J.H.J.J.H.J.J.J.J.H.J.H.H.J.J.H.H.H.H.H.H.H.H.H.B.B.B.B.M.M.M.k.k.k.h.h.2.2.=.*.X.;.U.9 o . X X         :XtXtXtXtXtX",
"tXtXtXtXtXX <.y J.J.J.J.J.J.T.L.J.U.J.U.J.J.J.J.J.J.J.J.H.J.H.J.J.J.J.H.H.J.H.H.H.H.H.B.B.B.B.B.B.B.M.M.m.k.k.k.h.f.2.2.;.*...m.x.X O @   .       + tXtXtXtXtXtX",
"tXtXtXtXtXtX% f J.J.J.J.J.J.J.U.J.J.J.H.J.J.J.J.J.J.H.J.J.J.J.J.H.H.J.J.J.H.H.H.H.H.H.H.H.H.B.B.M.M.M.M.m.k.k.k.f.f.2.2.-.*.X.J.:.o @ . .         @ tXtXtXtXtXtX",
"tXtXtXtXtXtXtXQ.J.J.J.J.J.J.J.J.J.J.J.J.J.J.J.J.J.J.J.J.H.J.J.J.J.J.H.J.H.H.H.H.H.H.H.H.B.B.B.B.M.M.M.m.k.k.k.h.f.f.2.2.*.X.2.J.9 o O O O       + 9XtXtXtXtXtXtX",
"tXtXtXtXtXtXtX.XJ.H.J.J.J.J.J.J.J.J.J.J.H.J.J.J.J.J.H.J.J.J.H.J.J.H.J.H.J.H.J.H.H.H.B.H.H.B.B.B.M.M.M.M.m.k.h.h.h.2.2.2.=...N.b.. O . . O       ) tXtXtXtXtXtXtX",
"tXtXtXtXtXtXtXwXW.U.J.J.J.J.J.J.J.J.J.J.J.J.J.H.J.H.H.J.J.J.J.H.H.H.H.J.H.H.H.H.H.B.B.H.B.B.B.B.M.M.M.k.k.k.h.h.f.f.2.2.*.*.J.a o O O X       $ tXtXtXtXtXtXtXtX",
"tXtXtXtXtXtXtXtX4XY.J.J.J.J.J.J.J.H.J.J.J.J.J.J.J.J.J.J.J.H.J.H.J.J.J.H.J.H.H.H.H.H.H.H.H.B.B.B.M.M.M.m.k.k.h.h.2.2.2.=.+.g.I.+ O X           :XtXtXtXtXtXtXtXtX",
"tXtXtXtXtXtXtXtXtXF.J.J.J.J.J.H.H.J.J.J.H.J.J.J.J.J.J.H.H.J.J.J.H.J.H.J.H.H.H.H.H.H.B.B.B.B.B.M.M.M.m.m.k.h.h.f.d.2.;.*.+.J.&.o @   . X @ O > tXtXtXtXtXtXtXtXtX",
"tXtXtXtXtXtXtXtXtXwXR.J.J.J.J.J.J.J.J.J.J.J.J.J.H.J.J.J.J.J.H.J.J.H.J.H.H.H.H.H.B.H.H.B.B.B.B.B.M.M.m.k.k.h.h.f.d.2.;.+.g.I.+   X .       3 tXtXtXtXtXtXtXtXtXtX",
"tXtXtXtXtXtXtXtXtXtX4XL.G.J.J.J.J.J.J.J.J.J.J.H.J.J.H.J.J.H.H.J.H.J.H.H.H.H.H.H.B.H.H.B.B.B.M.M.M.M.m.k.k.h.h.d.2.2.=.*.J.#.o X .   X X O <XtXtXtXtXtXtXtXtXtXtX",
"tXtXtXtXtXtXtXtXtXtXtX.XJ.H.J.J.J.J.J.H.J.J.J.J.H.J.H.J.J.H.J.H.J.H.H.H.H.H.H.H.H.H.B.B.B.B.M.M.M.m.k.k.k.h.f.d.2.2.*.z.V.  . .   X   + ) tXtXtXtXtXtXtXtXtXtXtX",
"tXtXtXtXtXtXtXtXtXtXtXtX+XT.G.U.G.U.G.U.7.7.7.7.7.7.7.7.7.7.7.7.G.G.G.G.G.G.G.G.G.G.x.x.N.N.z.N.z.z.k.k.h.h.f.d.2.=.=.J.r   X   .   @ ) tXtXtXtXtXtXtXtXtXtXtXtX",
"tXtXtXtXtXtXtXtXtXtXtXtXtXZ.U.L.U.G.G.G.7.7.7.7.7.7.7.7.7.7.7.7.G.G.G.G.G.G.G.G.x.x.x.x.N.N.z.z.z.z.k.h.h.f.d.d.;.*.G.9.o O . .     > tXtXtXtXtXtXtXtXtXtXtXtXtX",
"tXtXtXtXtXtXtXtXtXtXtXtXtXtX XL.G.G.U.G.7.7.7.7.7.7.7.7.7.7.7.7.G.G.G.G.G.G.G.G.G.x.x.N.N.N.z.z.z.z.k.h.f.d.d.d.=.m.v.            5 tXtXtXtXtXtXtXtXtXtXtXtXtXtX",
"tXtXtXtXtXtXtXtXtXtXtXtXtXtXtXu.G.G.G.U.7.7.7.7.7.7.7.7.7.7.7.7.G.G.G.G.G.G.G.G.x.N.N.N.z.N.z.z.k.k.k.h.f.d.d.2.d.G.%   . .     ) tXtXtXtXtXtXtXtXtXtXtXtXtXtXtX",
"tXtXtXtXtXtXtXtXtXtXtXtXtXtXtXtXf e.U.L.G.U.7.7.7.7.7.7.7.7.7.7.G.G.G.G.x.G.G.x.x.N.N.N.z.z.z.k.k.h.h.h.f.d.2.d.G.r   X O . ) ` tXtXtXtXtXtXtXtXtXtXtXtXtXtXtXtX",
"tXtXtXtXtXtXtXtXtXtXtXtXtXtXtXtXtX  E.L.G.G.7.7.7.7.7.7.7.7.7.7.G.G.G.G.G.G.x.x.x.N.N.N.N.z.z.z.h.h.h.f.f.d.d.G.r   X     : ) tXtXtXtXtXtXtXtXtXtXtXtXtXtXtXtXtX",
"tXtXtXtXtXtXtXtXtXtXtXtXtXtXtXtXtXtX# D.L.7.7.7.7.7.7.7.7.7.7.7.G.G.G.G.x.G.x.x.x.N.z.z.z.z.z.k.k.h.f.f.8.d.K.e       O 5 9XtXtXtXtXtXtXtXtXtXtXtXtXtXtXtXtXtXtX",
"tXtXtXtXtXtXtXtXtXtXtXtXtXtXtXtXtXtXtXtX& 6.7.7.7.7.7.7.7.7.7.7.G.G.x.G.x.x.x.x.N.N.N.z.z.z.z.k.h.h.d.d.f.g.9       $ :XtXtXtXtXtXtXtXtXtXtXtXtXtXtXtXtXtXtXtXtX",
"tXtXtXtXtXtXtXtXtXtXtXtXtXtXtXtXtXtXtXtXtXtX& t.7.7.T.J.J.G.G.G.G.G.x.x.x.x.x.N.7.7.7.7.7.7.7.7.h.f.d.z.w.#   . + ` tXtXtXtXtXtXtXtXtXtXtXtXtXtXtXtXtXtXtXtXtXtX",
"tXtXtXtXtXtXtXtXtXtXtXtXtXtXtXtXtXtXtXtXtXtXtX# & 7.Y.Y.G.G.G.G.G.x.x.G.x.x.x.N.7.7.7.7.7.7.7.7.h.k.g.#.o + + ` 9XtXtXtXtXtXtXtXtXtXtXtXtXtXtXtXtXtXtXtXtXtXtXtX",
"tXtXtXtXtXtXtXtXtXtXtXtXtXtXtXtXtXtXtXtXtXtXtXtXtX  tX_.$.&.G.G.G.x.G.G.x.x.N.N.7.7.7.7.7.7.7.7.z.%.9 + N :XtXtXtXtXtXtXtXtXtXtXtXtXtXtXtXtXtXtXtXtXtXtXtXtXtXtX",
"tXtXtXtXtXtXtXtXtXtXtXtXtXtXtXtXtXtXtXtXtXtXtXtXtXtXtXtXtX# #.z.G.x.G.K.x.N.z.z.7.7.7.7.7.7.p r.0 ) :XtXtXtXtXtXtXtXtXtXtXtXtXtXtXtXtXtXtXtXtXtXtXtXtXtXtXtXtXtX",
"tXtXtXtXtXtXtXtXtXtXtXtXtXtXtXtXtXtXtXtXtXtXtXtXtXtXtXtXtXtXtX  rXr.8 s.0.~.W.!.7.L.v.9._.6X+X. tXtXtXtXtXtXtXtXtXtXtXtXtXtXtXtXtXtXtXtXtXtXtXtXtXtXtXtXtXtXtXtX",
"tXtXtXtXtXtXtXtXtXtXtXtXtXtXtXtXtXtXtXtXtXtXtXtXtXtXtXtXtXtXtXtXtXtXtXtXtXtXtXtXtXtXtXtXtXtXtXtXtXtXtXtXtXtXtXtXtXtXtXtXtXtXtXtXtXtXtXtXtXtXtXtXtXtXtXtXtXtXtXtX",
"tXtXtXtXtXtXtXtXtXtXtXtXtXtXtXtXtXtXtXtXtXtXtXtXtXtXtXtXtXtXtXtXtXtXtXtXtXtXtXtXtXtXtXtXtXtXtXtXtXtXtXtXtXtXtXtXtXtXtXtXtXtXtXtXtXtXtXtXtXtXtXtXtXtXtXtXtXtXtXtX",
"tXtXtXtXtXtXtXtXtXtXtXtXtXtXtXtXtXtXtXtXtXtXtXtXtXtXtXtXtXtXtXtXtXtXtXtXtXtXtXtXtXtXtXtXtXtXtXtXtXtXtXtXtXtXtXtXtXtXtXtXtXtXtXtXtXtXtXtXtXtXtXtXtXtXtXtXtXtXtXtX"
};
