/* XPM */
static char *xpm_[] = {
/* columns rows colors chars-per-pixel */
"80 80 50 1 ",
"  c #000000",
". c #020201",
"X c #020202",
"o c #030303",
"O c #573003",
"+ c #030302",
"@ c #020202",
"# c #070707",
"$ c #060505",
"% c #B46309",
"& c #EE8105",
"* c #EE8003",
"= c #EE8002",
"- c #EE7F00",
"; c #EE8003",
": c #EE8003",
"> c #EE8106",
", c #EE8004",
"< c #EE8002",
"1 c #F08206",
"2 c #EE8003",
"3 c #EE8105",
"4 c #F08205",
"5 c #EE8001",
"6 c #F28100",
"7 c #040404",
"8 c #070707",
"9 c #0A0A0A",
"0 c #080808",
"q c #EE830B",
"w c #BF6808",
"e c #EE8208",
"r c #EE8208",
"t c #EE8106",
"y c #EE8207",
"u c #EF830B",
"i c #EF8309",
"p c #EF840D",
"a c #EE820B",
"s c #0A0A09",
"d c #090808",
"f c #EF8511",
"g c #EB830E",
"h c #ED830D",
"j c #EF8511",
"k c #EE830A",
"l c #2D1F11",
"z c #EF8717",
"x c #EF891B",
"c c None",
/* pixels */
"cccccccccccccccccccccccccccccccccccccccccccccccccccccccccccccccccccccccccccccccc",
"cccccccccccccccccccccccccccccccccccccccccccccccccccccccccccccccccccccccccccccccc",
"cccccccccccccccccccccccccccccccccccccccccccccccccccccccccccccccccccccccccccccccc",
"cccccccccccccccccccccccccccccccccccccccccccccccccccccccccccccccccccccccccccccccc",
"cccccccccccccccccccccccccccccccccccccccccccccccccccccccccccccccccccccccccccccccc",
"cccccccccccccccccccccccccccccccccccccccccccccccccccccccccccccccccccccccccccccccc",
"cccccccccccccccccccccccccccccccccccccccccccccccccccccccccccccccccccccccccccccccc",
"cccccccccccccccccccccccccccccccccccccccccccccccccccccccccccccccccccccccccccccccc",
"cccccccccccccccccccccccccccccccccccccccccccccccccccccccccccccccccccccccccccccccc",
"cccccccccccccccccccccccccccccccccccccccccccccccccccccccccccccccccccccccccccccccc",
"cccccccccccccccccccccccccccccccccccccccccccccccccccccccccccccccccccccccccccccccc",
"cccccccccccccccccccccccccccccccccccccccccccccccccccccccccccccccccccccccccccccccc",
"cccccccccccccccccccccccccccccccccccccccccccccccccccccccccccccccccccccccccccccccc",
"cccccccccccccccccccccccccccccccccccccccccccccccccccccccccccccccccccccccccccccccc",
"cccccccccccccccccccccccccccccccccccccccccccccccccccccccccccccccccccccccccccccccc",
"cccccccccccccccccccccccccccccccccccccccccccccccccccccccccccccccccccccccccccccccc",
"cccccccccccccccccccccccccccccccccccccccccccccccccccccccccccccccccccccccccccccccc",
"cccccccccccccccccccccccccccccccccccccccccccccccccccccccccccccccccccccccccccccccc",
"cccccccccccccccccccccccccccccccccccccccccccccccccccccccccccccccccccccccccccccccc",
"cccccccccccccccccccccccccccccccccccccccccccccccccccccccccccccccccccccccccccccccc",
"cccccccccccccccccccccccccccccccccccccccccccccccccccccccccccccccccccccccccccccccc",
"cccccccccccccccccccccccccccccccccccccccccccccccccccccccccccccccccccccccccccccccc",
"cccccccccccccccccccccccccccccccccccccccccccccccccccccccccccccccccccccccccccccccc",
"cccccccccccccccccccccccccccccccccccccccccccccccccccccccccccccccccccccccccccccccc",
"cccccccccl4:55::4kzlcccccccccccca4*=--:*4jcccccccccca4:;-=:1accccccccccccccccccc",
"cccccccl166655556664ccccccccccz556--------*jccccccj26666----6:accccccccccccccccc",
"cccccca-5555556666665lccccccc&555-----------acccca5-6566-----56&cccccccccccccccc",
"cccccq---5555666566666lccccc&5556------6-----cccc=5-5566----5556accccccccccccccc",
"ccccj---5---55665566555ccdcf66555566-6------64cc4656-55=1:------=ccccccccccccccc",
"cccc>5--5-554ak45566556jccc56655555kay1-----6=cc:6-5-5klcca-----5acccccccccccccc",
"ccca------=kcdccx6665555dch6666552ccccc4-56666jc=----5wcccc2-5---4cccccccccccccc",
"ccck------ycccccl4665555zd5666656lcccdcl>>>>>1jc---65554jcca11141%0cc00c077dcccc",
"ccc:555565sccccccj55----4c=-----3d ccccccccccccc=666555551%g#cccc$.cc Xc  X.7ccc",
"ccc:55556>cccccccc:-----1c55----4cccccccc ccdcccq66655556655=*rlcoXcc 0d.dc@.ccc",
"ccc5555564cccccccc:-----2j5-----hldcccccccccccccc%66=55566556666w...  c7.cc7 ccc",
"ccc:555564cccccccc*--5--*j5--5--ulccccccccccccc c$h55555665566666O7d@ cXXccX ccc",
"ccc5555564cccccccc:6----1j5--5--yccccccccccccccccccoc3=566666666--ccoolo$d@.0ccc",
"ccc:555565cccccccj-6----4c---5--,cc cccccccccccccccccc#j%:666666--yco9lo  Xdcccc",
"ccc4555555zldccccy5-----yc*---555cc c cl2;:255u16;;:6&cc  z25566--4cldcccccccccc",
"ccca5555555dccccl=------jcy--55564ccccli666666h2666665cccccc5556--4ccccccccccccc",
"cccc:5555--:zjca;6--5--4ccj56555664l cx6666566oa556666fsccoc6665-5wccccccccccccc",
"cccca5555---65--66----5jclc455556666;56666556*cc5556666t%qr6665566lccccccccccccc",
"ccccc&5---5555--655-66accccc*6556666556666556zcch66666666666555554cccccccccccccc",
"cccccc45---55--565--6yccccccc:65566656665=55jcdc#t66666666665555:ccccccccccccccc",
"cccccccw6665---6666=accccccccc>66666666655:lccccccq666666666566&cccccccccccccccc",
"ccccccccjk:-5556=1ycccccccccccclq56666661xccccccccc#a=6666663p#dcccccccccccccccc",
"cccccccccccljaakccccccccccccccccdclxzccl cc cccccccccc#zxgxzcccccccccccccccccccc",
"cccccccccccccccccccccccccccccccccccclXcccccccccdccccccccc#cccccccccccccccccccccc",
"ccccccccccccccccccc9++oocccdooooscc#oo#dcc+oo#ccjjxxcccccccccccccccccccccccccccc",
"ccccccccccccccccccc9....8cc8....9cs....+ccd...ddqg#xcccccccccccccccccccccccccccc",
"ccccccccccccccccccc9....occo....0c#..o..ccc0....###9cccccccccccccccccccccccccccc",
"ccccccccccccccccccc9..+..cd..+..0co.o9..8ccc$...#979cccccccccccccccccccccccccccc",
"ccccccccccccccccccc9..7+.88.+8..d0..9cooocccco..#9cccccccccccccccccccccccccccccc",
"ccccccccccccccccccc9..00.oo.98..9o..98oo.8cc#...##cdcccccccccccccccccccccccccccc",
"ccccccccccccccccccc0..7c....c9..+........oc8o.oo###0cccccccccccccccccccccccccccc",
"ccccccccccccccccccc7..7co..oc8.....+7$$...#.oods####cccccccccccccccccccccccccccc",
"ccccccccccccccccccc0..7c7..7c8.....cccc7ooooo#cc#ooodccccccccccccccccccccccccccc",
"ccccccccccccccccccccccccccccccccccccccccccddccccccdccccccccccccccccccccccccccccc",
"cccccccccccccccccccccccccccccccccccccccccccccccccccccccccccccccccccccccccccccccc",
"cccccccccccccccccccccccccccccccccccccccccccccccccccccccccccccccccccccccccccccccc",
"cccccccccccccccccccccccccccccccccccccccccccccccccccccccccccccccccccccccccccccccc",
"cccccccccccccccccccccccccccccccccccccccccccccccccccccccccccccccccccccccccccccccc",
"cccccccccccccccccccccccccccccccccccccccccccccccccccccccccccccccccccccccccccccccc",
"cccccccccccccccccccccccccccccccccccccccccccccccccccccccccccccccccccccccccccccccc",
"cccccccccccccccccccccccccccccccccccccccccccccccccccccccccccccccccccccccccccccccc",
"cccccccccccccccccccccccccccccccccccccccccccccccccccccccccccccccccccccccccccccccc",
"cccccccccccccccccccccccccccccccccccccccccccccccccccccccccccccccccccccccccccccccc",
"cccccccccccccccccccccccccccccccccccccccccccccccccccccccccccccccccccccccccccccccc",
"cccccccccccccccccccccccccccccccccccccccccccccccccccccccccccccccccccccccccccccccc",
"cccccccccccccccccccccccccccccccccccccccccccccccccccccccccccccccccccccccccccccccc",
"cccccccccccccccccccccccccccccccccccccccccccccccccccccccccccccccccccccccccccccccc",
"cccccccccccccccccccccccccccccccccccccccccccccccccccccccccccccccccccccccccccccccc",
"cccccccccccccccccccccccccccccccccccccccccccccccccccccccccccccccccccccccccccccccc",
"cccccccccccccccccccccccccccccccccccccccccccccccccccccccccccccccccccccccccccccccc",
"cccccccccccccccccccccccccccccccccccccccccccccccccccccccccccccccccccccccccccccccc",
"cccccccccccccccccccccccccccccccccccccccccccccccccccccccccccccccccccccccccccccccc",
"cccccccccccccccccccccccccccccccccccccccccccccccccccccccccccccccccccccccccccccccc",
"cccccccccccccccccccccccccccccccccccccccccccccccccccccccccccccccccccccccccccccccc",
"cccccccccccccccccccccccccccccccccccccccccccccccccccccccccccccccccccccccccccccccc",
"cccccccccccccccccccccccccccccccccccccccccccccccccccccccccccccccccccccccccccccccc"
};
