/* XPM */
static char *xpm_[] = {
/* columns rows colors chars-per-pixel */
"80 80 54 1 ",
"  c #000000",
". c #020202",
"X c #271500",
"o c #030303",
"O c #040303",
"+ c #030303",
"@ c #040404",
"# c #060505",
"$ c #050505",
"% c #DC790A",
"& c #EE8106",
"* c #EE8104",
"= c #CD6E01",
"- c #EE8002",
"; c #EE7F00",
": c #EE8003",
"> c #EE8002",
", c #EE8003",
"< c #EE8106",
"1 c #EE8004",
"2 c #EE8003",
"3 c #EE8105",
"4 c #EE8105",
"5 c #EE8106",
"6 c #EE8105",
"7 c #EE8107",
"8 c #EE8207",
"9 c #EE8001",
"0 c #F38200",
"q c #060606",
"w c #060606",
"e c #070606",
"r c #0C0C0C",
"t c #ED820B",
"y c #EE8108",
"u c #EE8108",
"i c #EE8106",
"p c #EE8208",
"a c #EE820A",
"s c #EE830A",
"d c #EE830A",
"f c #EF830A",
"g c #EE8208",
"h c #0E0D0C",
"j c #141210",
"k c #EF8410",
"l c #CF730E",
"z c #EE830D",
"x c #EF8614",
"c c #EF840C",
"v c #211A13",
"b c #EF8716",
"n c #EF8512",
"m c None",
/* pixels */
"mmmmmmmmmmmmmmmmmmmmmmmmmmmmmmmmmmmmmmmmmmmmmmmmmmmmmmmmmmmmmmmmmmmmmmmmmmmmmmmm",
"mmmmmmmmmmmmmmmmmmmmmmmmmmmmmmmmmmmmmmmmmmmmmmmmmmmmmmmmmmmmmmmmmmmmmmmmmmmmmmmm",
"mmmmmmmmmmmmmmmmmmmmmmmmmmmmmmmmmmmmmmmmmmmmmmmmmmmmmmmmmmmmmmmmmmmmmmmmmmmmmmmm",
"mmmmmmmmmmmmmmmmmmmmmmmmmmmmmmmmmmmmmmmmmmmmmmmmmmmmmmmmmmmmmmmmmmmmmmmmmmmmmmmm",
"mmmmmmmmmmmmmmmmmmmmmmmmmmmmmmmmmmmmmmmmmmmmmmmmmmmmmmmmmmmmmmmmmmmmmmmmmmmmmmmm",
"mmmmmmmmmmmmmmmmmmmmmmmmmmmmmmmmmmmmmmmmmmmmmmmmmmmmmmmmmmmmmmmmmmmmmmmmmmmmmmmm",
"mmmmmmmmmmmmmmmmmmmmmmmmmmmmmmmmmmmmmmmmmmmmmmmmmmmmmmmmmmmmmmmmmmmmmmmmmmmmmmmm",
"mmmmmmmmmmmmmmmmmmmmmmmmmmmmmmmmmmmmmmmmmmmmmmmmmmmmmmmmmmmmmmmmmmmmmmmmmmmmmmmm",
"mmmmmmmmmmmmmmmmmmmmmmmmmmmmmmmmmmmmmmmmmmmmmmmmmmmmmmmmmmmmmmmmmmmmmmmmmmmmmmmm",
"mmmmmmmmmmmmmmmmmmmmmmmmmmmmmmmmmmmmmmmmmmmmmmmmmmmmmmmmmmmmmmmmmmmmmmmmmmmmmmmm",
"mmmmmmmmmmmmmmmmmmmmmmmmmmmmmmmmmmmmmmmmmmmmmmmmmmmmmmmmmmmmmmmmmmmmmmmmmmmmmmmm",
"mmmmmmmmmmmmmmmmmmmmmmmmmmmmmmmmmmmmmmmmmmmmmmmmmmmmmmmmmmmmmmmmmmmmmmmmmmmmmmmm",
"mmmmmmmmmmmmmmmmmmmmmmmmmmmmmmmmmmmmmmmmmmmmmmmmmmmmmmmmmmmmmmmmmmmmmmmmmmmmmmmm",
"mmmmmmmmmmmmmmmmmmmmmmmmmmmmmmmmmmmmmmmmmmmmmmmmmmmmmmmmmmmmmmmmmmmmmmmmmmmmmmmm",
"mmmmmmmmmmmmmmmmmmmmmmmmmmmmmmmmmmmmmmmmmmmmmmmmmmmmmmmmmmmmmmmmmmmmmmmmmmmmmmmm",
"mmmmmmmmmmmmmmmmmmmmmmmmmmmmmmmmmmmmmmmmmmmmmmmmmmmmmmmmmmmmmmmmmmmmmmmmmmmmmmmm",
"mmmmmmmmmmmmmmmmmmmmmmmmmmmmmmmmmmmmmmmmmmmmmmmmmmmmmmmmmmmmmmmmmmmmmmmmmmmmmmmm",
"mmmmmmmmmmmmmmmmmmmmmmmmmmmmmmmmmmmmmmmmmmmmmmmmmmmmmmmmmmmmmmmmmmmmmmmmmmmmmmmm",
"mmmmmmmmmmmmmmmmmmmmmmmmmmmmmmmmmmmmmmmmmmmmmmmmmmmmmmmmmmmmmmmmmmmmmmmmmmmmmmmm",
"mmmmmmmmmmmmmmmmmmmmmmmmmmmmmmmmmmmmmmmmmmmmmmmmmmmmmmmmmmmmmmmmmmmmmmmmmmmmmmmm",
"mmmmmmmmmmmmmmmmmmmmmmmmmmmmmmmmmmmmmmmmmmmmmmmmmmmmmmmmmmmmmmmmmmmmmmmmmmmmmmmm",
"mmmmmmmmmmmmmmmmmmmmmmmmmmmmmmmmmmmmmmmmmmmm  mmmmmmmmmmmmmmmmmmmmmmmmmmmmmmmmmm",
"mmmmmmmmmmmmmmmmmmmmmmmmmmmmmmmmmmmmmm  mjmm  mmmmmmmrmmmmmmmmmmmmmmmmmmmmmmmmmm",
"mmmmmmmmmx84=;9,4gvmmmmmmmmmm mml%-0>1x-%kmm mmmm mmb&990097b mmmmmmmmmmmmmmmmmm",
"mmmmmmmv8000999999>8mmmmmmmmmmn:0000009999&rmmmmmrb80000009991nvmmmmmmmmmmmmmmmm",
"mmmmmvf0009099999900:vmmmmmm#d00000000999900bm mmb0090009999990fmmmmmmmmmmmmmmmm",
"mmmmmb;;990999909;0;0=vmmmmmt00-00009-9999990rmmv09-990099990000fmmmmmmmmmmmmmmm",
"mmmmm=;;99999990;9;;;0,mmvvx99990000099999990pmmf0999900<9990000,mmmmmmmmmmmmmmm",
"mmmm80;;9900888,;;;;0;0pmvm90099000tza-0000009mm-00000dmmmz00999;tmmmmmmmmmmmmmm",
"mmmx;0;;990fmmmmp0;;;;0,mmb9009909mmrmj8000000bm000000lrm v>00990&mmmmmmmmmmmmmm",
"mmmp;;;;99gmmmmmm30;;;;;k l999990#m m mr3**43>br>909000lmmrc9<74,%jmmjmmjjjmmmmm",
"mmm3;;;;9=mmmmmmmx00;;;;uj4999993mmmmmmmmm mmmmm*999000004abmmm+m$.mmO+m .. emmm",
"mmm:99990:mmmmmmm -099998m999999pm mmmmmmmmmmm mt00000000099,%xrmOOmm.wj.em .mmm",
"mmm9999-08mmmmmmmm40-999*m999999dmmmmmmmmmmmmmmmm900000000990004x..+O.jw.jmw.mmm",
"mmm099990&m mmmmmm409999*h999999dm.mmmmmmmmmmmmmm#%0000099990000;X## .m+Omm+.mmm",
"mmm-999903mmmmmmmm3999998r999999%mmmmmmmmm.m.mmmmmmb%000099900000>jm++m.$me.$mmm",
"mmm>99990,mmmmmmmr0099-98v009999m mmmmmmjmmvmmmemmrmmmk&-0000999;;fm.$j.  .$mmmm",
"mme8999900rm mmmmx009999sv9099995 mmmm #%d%%87nf7&gd<fmmmbf00099;;pmwjmweejmmmmm",
"  ml090000%mmmmmm700999-bm8099999bmvmm m000000p-000009mm mmb9999;;8mmmmmmmmmmmmm",
"   r9000000pmmm.8000999d.mr9999900zmmmm8000000b%000000rmmmmr9999;;pmmmmmmmmmmmmm",
"  mmf--90000*%%00099999bmmm700990008p30000000-mx990000-bj v*000000xmmmmmmmmmmmmm",
"mmm  d9900000099000099l.mmmh00900000000000990xmm89900000:g9900090,mmmmmmmmmmmmmm",
"mmm mr:0000000090000-ammmmmmk000000000000099mmmmr9000000999-99990xmmmmmmmmmmmmmm",
"mmmmmmm30000000900008 mmmmmmjx0000000000000s    mj400000-999900-fmmmmmmmmmmmmmmm",
"mmmmm mmf0000000000cmmmmmmmmmmv<9900000001lvmmmmmmmf0000000090%rmmmmmmmmmmmmmmmm",
"mmmmmmmmmmk%7445dnmmmmmmjooXmmmmrn%8*33fm.mmmmmmmmmrvba1447pbvmmmmmmmmmmmmmmmmmm",
"mmmmmmm  mmm.mmmrm#mmm.mq...mmmmmmmmmmmmmmmm mmmmmmmmmmmmmmmmmmmmmmmmmmmmmmmmmmm",
"mmmmmmmmmmmmmmmrbbnbmmmm@..@mmjjmm mmmmrmmrmmmmmmmme#rrrmmm.mmmmmmmmmmmmmmmmmmmm",
"mmmmmmmmmmmmmblx.....qmmo..$m...oemmm$o.ee..#mmmmxlxoo..oqmmmmmmmmmmmmmmmmmmmmmm",
"mmmmmmmmmm.rbznx......qm...jw.....mm....m#...ommxznxoo....emmmmmmmmmmmmmmmmmmmmm",
"mmmmmmmmm.mb##X#jmj...om...jew....jO...emm@...me##X#vmvo..#mmmmmmmmmmmmmmmmmmmmm",
"mmmmmmmmmmmt###rmmmj$qeq..ommm$..ow...jmmme...eo###rmmmq#qemmmmmmmmmmmmmmmmmmmmm",
"mmmmmmmmmmvo###rmmmmmmm$..@mmm$..+$..ommmmr...w.##rmvmmmmmmmmmmmmmmmmmmmmmmmmmmm",
"mmmmmmmmmmvo##remmjoo.eo..wmmm ..w+...mmmmo..oe.##rvmmeooojmmmmmmmmmmmmmmmmmmmmm",
"mmmmmmmmmmmooo##ee...oj...emmm...j$...#mjo...jj.#oorq#o..@mmmmmmmmmmmmmmmmmmmmmm",
"mmmmmmmmmmm#oooo....ome...mmme...mj....mo...emm##ooooooo@mmmmmmmmmmmmmmmmmmmmmmm",
"mmmmmmmmmmmmrooo..@emme@@$mmme@+$mmj$.@mo@#mmmmmeo...o@emmmmmmmmmmmmmmmmmmmmmmmm",
"mmmmmmmmmmmmmmmmmmmmmmmmmmmmmmmmmmmmmmmmmmmmmmmmmmmmmmmmmmmmmmmmmmmmmmmmmmmmmmmm",
"mmmmmmmmmmmmmmmmmmmmmmmmmmmmmmmmmmmmmmmmmmmmmmmmmmmmmmmmmmmmmmmmmmmmmmmmmmmmmmmm",
"mmmmmmmmmmmmmmmmmmmmmmmmmmmmmmmmmmmmmmmmmmmmmmmmmmmmmmmmmmmmmmmmmmmmmmmmmmmmmmmm",
"mmmmmmmmmmmmmmmmmmmmmmmmmmmmmmmmmmmmmmmmmmmmmmmmmmmmmmmmmmmmmmmmmmmmmmmmmmmmmmmm",
"mmmmmmmmmmmmmmmmmmmmmmmmmmmmmmmmmmmmmmmmmmmmmmmmmmmmmmmmmmmmmmmmmmmmmmmmmmmmmmmm",
"mmmmmmmmmmmmmmmmmmmmmmmmmmmmmmmmmmmmmmmmmmmmmmmmmmmmmmmmmmmmmmmmmmmmmmmmmmmmmmmm",
"mmmmmmmmmmmmmmmmmmmmmmmmmmmmmmmmmmmmmmmmmmmmmmmmmmmmmmmmmmmmmmmmmmmmmmmmmmmmmmmm",
"mmmmmmmmmmmmmmmmmmmmmmmmmmmmmmmmmmmmmmmmmmmmmmmmmmmmmmmmmmmmmmmmmmmmmmmmmmmmmmmm",
"mmmmmmmmmmmmmmmmmmmmmmmmmmmmmmmmmmmmmmmmmmmmmmmmmmmmmmmmmmmmmmmmmmmmmmmmmmmmmmmm",
"mmmmmmmmmmmmmmmmmmmmmmmmmmmmmmmmmmmmmmmmmmmmmmmmmmmmmmmmmmmmmmmmmmmmmmmmmmmmmmmm",
"mmmmmmmmmmmmmmmmmmmmmmmmmmmmmmmmmmmmmmmmmmmmmmmmmmmmmmmmmmmmmmmmmmmmmmmmmmmmmmmm",
"mmmmmmmmmmmmmmmmmmmmmmmmmmmmmmmmmmmmmmmmmmmmmmmmmmmmmmmmmmmmmmmmmmmmmmmmmmmmmmmm",
"mmmmmmmmmmmmmmmmmmmmmmmmmmmmmmmmmmmmmmmmmmmmmmmmmmmmmmmmmmmmmmmmmmmmmmmmmmmmmmmm",
"mmmmmmmmmmmmmmmmmmmmmmmmmmmmmmmmmmmmmmmmmmmmmmmmmmmmmmmmmmmmmmmmmmmmmmmmmmmmmmmm",
"mmmmmmmmmmmmmmmmmmmmmmmmmmmmmmmmmmmmmmmmmmmmmmmmmmmmmmmmmmmmmmmmmmmmmmmmmmmmmmmm",
"mmmmmmmmmmmmmmmmmmmmmmmmmmmmmmmmmmmmmmmmmmmmmmmmmmmmmmmmmmmmmmmmmmmmmmmmmmmmmmmm",
"mmmmmmmmmmmmmmmmmmmmmmmmmmmmmmmmmmmmmmmmmmmmmmmmmmmmmmmmmmmmmmmmmmmmmmmmmmmmmmmm",
"mmmmmmmmmmmmmmmmmmmmmmmmmmmmmmmmmmmmmmmmmmmmmmmmmmmmmmmmmmmmmmmmmmmmmmmmmmmmmmmm",
"mmmmmmmmmmmmmmmmmmmmmmmmmmmmmmmmmmmmmmmmmmmmmmmmmmmmmmmmmmmmmmmmmmmmmmmmmmmmmmmm",
"mmmmmmmmmmmmmmmmmmmmmmmmmmmmmmmmmmmmmmmmmmmmmmmmmmmmmmmmmmmmmmmmmmmmmmmmmmmmmmmm",
"mmmmmmmmmmmmmmmmmmmmmmmmmmmmmmmmmmmmmmmmmmmmmmmmmmmmmmmmmmmmmmmmmmmmmmmmmmmmmmmm",
"mmmmmmmmmmmmmmmmmmmmmmmmmmmmmmmmmmmmmmmmmmmmmmmmmmmmmmmmmmmmmmmmmmmmmmmmmmmmmmmm",
"mmmmmmmmmmmmmmmmmmmmmmmmmmmmmmmmmmmmmmmmmmmmmmmmmmmmmmmmmmmmmmmmmmmmmmmmmmmmmmmm"
};
