/* XPM */
static char *xpm_[] = {
/* columns rows colors chars-per-pixel */
"80 80 48 1 ",
"  c #000000",
". c #000000",
"X c #000000",
"o c #020100",
"O c #000000",
"+ c #000000",
"@ c #000000",
"# c #000000",
"$ c #C06601",
"% c #EE7F01",
"& c #BF6601",
"* c #EE7F01",
"= c #EE7F01",
"- c #EE7F01",
"; c #EE7F01",
": c #EE7F01",
"> c #EE7F01",
", c #E17801",
"< c #EE7F01",
"1 c #EE7F01",
"2 c #EE7F01",
"3 c #EE7F01",
"4 c #EE7F01",
"5 c #EE7F01",
"6 c #F18201",
"7 c #F58301",
"8 c #000000",
"9 c #010000",
"0 c #010100",
"q c #000000",
"w c #EE7F01",
"e c #EE7F01",
"r c #EE7F01",
"t c #EE7F01",
"y c #EE7F01",
"u c #EE7F01",
"i c #F08001",
"p c #EE7F01",
"a c #000000",
"s c #020100",
"d c #E87C01",
"f c #EE7F01",
"g c #EE7F01",
"h c #ED7F01",
"j c #0A0500",
"k c #EC7E01",
"l c #FFBB01",
"z c None",
/* pixels */
"zzzzzzzzzzzzzzzzaaaaaaaaaaaaaaaaaaaaaaaaaaaaaaaaaaaaaaaaaaaaaaaaaaaaaaaaaaaaaaaa",
"zzzzzzzzzzzzzzzzaaaaaaaaaaaaaaaaaaaaaaaaaaaaaaaaaaaaaaaaaaaaaaaaaaaaaaaaaaaaaaaa",
"zzzzzzzzzzzzzzzzaaaaaaaaaaaaaaaaaaaaaaaaaaaaaaaaaaaaaaaaaaaaaaaaaaaaaaaaaaaaaaaa",
"zzzzzzzzzzzzzzzzaaaaaaaaaaaaaaaaaaaaaaaaaaaaaaaaaaaaaaaaaaaaaaaaaaaaaaaaaaaaaaaa",
"zzzzzzzzzzzzzzzzaaaaaaaaaaaaaaaaaaaaaaaaaaaaaaaaaaaaaaaaaaaaaaaaaaaaaaaaaaaaaaaa",
"zzzzzzzzzzzzzzzzaaaaaaaaaaaaaaaaaaaaaaaaaaaaaaaaaaaaaaaaaaaaaaaaaaaaaaaaaaaaaaaa",
"zzzzzzzzzzzzzzzzaaaaaaaaaaaaaaaaaaaaaaaaaaaaaaaaaaaaaaaaaaaaaaaaaaaaaaaaaaaaaaaa",
"zzzzzzzzzzzzzzzzaaaaaaaaaaaaaaaaaaaaaaaaaaaaaaaaaaaaaaaaaaaaaaaaaaaaaaaaaaaaaaaa",
"zzzzzzzzzzzzzzzzaaaaaaaaaaaaaaaaaaaaaaaaaaaaaaaaaaaaaaaaaaaaaaaaaaaaaaaaaaaaaaaa",
"zzzzzzzzzzzzzzzzaaaaaaaaaaaaaaaaaaaaaaaaaaaaaaaaaaaaaaaaaaaaaaaaaaaaaaaaaaaaaaaa",
"zzzzzzzzzzzzzzzzaaaaaaaaaaaaaaaaaaaaaaaaaaaaaaaaaaaaaaaaaaaaaaaaaaaaaaaaaaaaaaaa",
"zzzzzzzzzzzzzzzzaaaaaaaaaaaaaaaaaaaaaaaaaaaaaaaaaaaaaaaaaaaaaaaaaaaaaaaaaaaaaaaa",
"zzzzzzzzzzzzzzzzaaaaaaaaaaaaaaaaaaaaaaaaaaaaaaaaaaaaaaaaaaaaaaaaaaaaaaaaaaaaaaaa",
"zzzzzzzzzzzzzzzzaaaaaaaaaaaaaaaaaaaaaaaaaaaaaaaaaaaaaaaaaaaaaaaaaaaaaaaaaaaaaaaa",
"zzzzzzzzzzzzzzzzaaaaaaaaaaaaaaaaaaaaaaaaaaaaaaaaaaaaaaaaaaaaaaaaaaaaaaaaaaaaaaaa",
"zzzzzzzzzzzzzzzzaaaaaaaaaaaaaaaaaaaaaaaaaaaaaaaaaaaaaaaaaaaaaaaaaaaaaaaaaaaaaaaa",
"zzzzzzzzaaaaaaaaaaaaaaaaaaaaaaaaaaaaaaaaaaaaaaaaaaaaaaaaaaaaaaaaaaaaaaaaaaaaaaaa",
"zzzzzzzzaaaaaaaaaaaaaaaaaaaaaaaaaaaaaaaaaaaaaaaaaaaaaaaaaaaaaaaaaaaaaaaaaaaaaaaa",
"zzzzzzzzaaaaaaaaaaaaaaaaaaaaaaaaaaaaaaaaaaaaaaaaaaaaaaaaaaaaaaaaaaaaaaaaaaaaaaaa",
"zzzzzzzzaaaaaaaaaaaaaaaaaaaaaaaaaaaaaaaaaaaaaaaaaaaaaaaaaaaaaaaaaaaaaaaaaaaaaaaa",
"zzzzzzzzjol33777:paoaaaaaaaaaaaoag:7--:*6goaaaaaaaaaal%--771uljaaaaaaaaaaaaaaaaa",
"zzzzzzzj$77777777-:<aaaaaaaaaaar--77--77777faaaaaaaf77--777-77eoaaaaaaaaaaaaaaaa",
"zzzzjzk77777777777777faaaaaaao=7--77------77,aaaaa67777------7--laaaaaaaaaaaaaaa",
"zzzzzh77;7777777777777laaaaaa<----7--------77iaaaf777777----77=-=aaaaaaaaaaaaaaa",
"zzzzj77*7777777777-----koaaa:77--77777777777--oaa>-77777-;77777-7toaaaaaaaaaaaaa",
"zzzz%77777;7-ee-7--7---6aaau--7---7>i6:7777---wal--7777laaj377-777aaaaaaaaaaaaaa",
"ajzj7777777$aaaae7------oaa------7$aaaag7777-71au7=7-77oaaaa-77-77k9aaaaaaaaaaaa",
"ajjw7277773jaaaaoe------lal------5aaaaaa$->:&>;ai7--7-76aaaa5-=>77ujaaaaaaaaaaaa",
"aaa%777777oaaaaaaa7777--2a67777-7laaaaaaaaaaaaaau777----7=6lkaaajjoojjoajooojj0a",
"aaa3777777aaaaaaaa>777-7=a5777--7aaaaaaaaaaaaaaal777--7-777-7>gajjojjjoaoo0ooaaa",
"aaa&77777>jaaaaaaa%77----a<7777-=aaaaaaaaaaaaaaaal77--77777-7777$joooooaojajoaaa",
"aaa7777776j0aaaaaa67777-7o*-77771aaaaaaaaaaaaaaaaou7---77777777777ojooojojjjoaaa",
"aaa7--7-7*aajajjjj$777777h>--7--:aaaaaaaaaaaaaaaaaaa%777777-----77taagajojjoj0aa",
"aaa=----7=aajaajaj2777777j*-----=aaaaaaaaoaaaaaoaaaaaal<=777-7-7777ollaoooooaaaa",
"aaz&7---77laaaaaaa777777>z<-----7loaaaaalrigfuefepwyu$aaaji=----777wlloja0jjaaaa",
"aazg--77--6aaaaaag7>77776zy-----76aaaaaa=77-777e777777iaaaaat--7777llljja0jjaaaa",
"aaaa7777---waaaaf777---7pzh7----77gaaaag7---772a77--=72aaaaow777777aaaaaaaaaaaaa",
"aaaae:77-777=gg;77777--<zzz<----7775wi17777-77ta=7-7-77waaal7777777oaaaaaaaaaaaa",
"aaaaa&777777-----777776oaazj---777--7777777777aag77---7-:1*77777772aaaaaaaaaaaaa",
"aaaaol777777-----77777haaaasp--777--777777777waaoe7-----77---77777laaaaaaaaaaaaa",
"aaaaaak777----7---777laazzzzzp777777--------paaaaa27--7777----=7,laaaaaaaaaaaaaa",
"aaaaaaao6<77-777--73oaaazzzzjzh>77-77777--7laaaaaaaw:7-77777-772oaaaaaaaaaaaaaaa",
"aaaaaajaao$,=-7-2yhaaaaazzzzzzzzlp17;=771laaaaaaaaaaah<--7-==elajaaaaaaaaaaaaaaa",
"aaaaaaajaaaaaajajaoaaaaazzzzzzzzoaaoaojjaaaaaaaaaaaaaaaaaaaaaaaaaaaaaaaaaaaaaaaa",
"aaaaaaaaaaaaaaaaaaaaaaaazzzzzzzzaajjjjjjaaaaaaaaaaaajaajaaaaaaaaaaaaaaaaaaaaaaaa",
"aaaaaaaaaaaaaaaaaaaaaaaaq+XX+8azaloojjjjaaaaaaaaaaaaaajjjjjaaaaaaaaaaaaaaaaaaaaa",
"aaaaaaaaaaaaaaaaaaaaaoal.......aaulljooolaaaaaaaaaaaaaaajaaaaaaaaaaaaaaaaaaaaaaa",
"aaaaaaaaaaaaaaaaaaaaallt.. X...Xallljooogoaaaaaaaaaaaaaaaaaaaaaaaaaaaaaaaaaaaaaa",
"aaaaaaaaaaaaaaaazzzzzz    zzq ..00990o..o0000jjjolllaaaaaaaaaaaaaaaaaaaaaaaaaaaa",
"aaaaaaaaaaaaaaaazzzzza...8zzz@++s.......ooooo0jogpllaaaaaaaaaaaaaaaaaaaaaaaaaaaa",
"aaaaaaaaaaaaaaaazzzzza...qzzzzzzzo..o...ooooo#joooloaaaaaaaaaaaaaaaaaaaaaaaaaaaa",
"aaaaaaaaaaaaaaaazzzzzq...qzzzzzzzo..s#..#j#ooojooojjaaaaaaaaaaaaaaaaaaaaaaaaaaaa",
"aaaaaaaaaaaaaaaazzzzza...8zzzaqaso..j#oo#szoooooooaaaaaaaaaaaaaaaaaaaaaaaaaaaaaa",
"aaaaaaaaaaaaaaaazzzzza...@zzzX..#o..0#ooojj#ooooooaaaaaaaaaaaaaaaaaaaaaaaaaaaaaa",
"aaaaaaaaaaaaaaaazzzzzz+...8a8...0o..0#oo#js0ooooojj0aaaaaaaaaaaaaaaaaaaaaaaaaaaa",
"aaaaaaaaaaaaaaaazzzzzzz........+z...0#oooozzooooojjjaaaaaaaaaaaaaaaaaaaaaaaaaaaa",
"aaaaaaaaaaaaaaaazzzzzzza......+zzo..0s..oojjoooojaaaaaaaaaaaaaaaaaaaaaaaaaaaaaaa",
"aaaaaaaaaaaaaaaazzzzzzzzz0###szzzss0zzs9jajooooojaaaaaaaaaaaaaaaaaaaaaaaaaaaaaaa",
"aaaaaaaaaaaaaaaazzzzzzzzzzzzzzzzzzzzzzzzaaooooooj0aaaaaaaaaaaaaaaaaaaaaaaaaaaaaa",
"aaaaaaaaaaaaaaaazzzzzzzzzzzzzzzzzzzzzzzzaaooooojaaaaaaaaaaaaaaaaaaaaaaaaaaaaaaaa",
"aaaaaaaaaaaaaaaazzzzzzzzzzzzzzzzzzzzzzzzaaaaaaaaaaaaaaaaaaaaaaaaaaaaaaaaaaaaaaaa",
"aaaaaaaaaaaaaaaazzzzzzzzzzzzzzzzzzzzzzzzaaaaaaaaaaaaaaaaaaaaaaaaaaaaaaaaaaaaaaaa",
"aaaaaaaaaaaaaaaazzzzzzzzzzzzzzzzzzzzzzzzaaaaaaaaaaaaaaaaaaaaaaaaaaaaaaaaaaaaaaaa",
"aaaaaaaaaaaaaaaazzzzzzzzzzzzzzzzzzzzzzzzaaaaaaaaaaaaaaaaaaaaaaaaaaaaaaaaaaaaaaaa",
"aaaaaaaaaaaaaaaaaaaaaaaaaaaaaaaaaaaaaaaaaaaaaaaaaaaaaaaaaaaaaaaaaaaaaaaaaaaaaaaa",
"aaaaaaaaaaaaaaaaaaaaaaaaaaaaaaaaaaaaaaaaaaaaaaaaaaaaaaaaaaaaaaaaaaaaaaaaaaaaaaaa",
"aaaaaaaaaaaaaaaaaaaaaaaaaaaaaaaaaaaaaaaaaaaaaaaaaaaaaaaaaaaaaaaaaaaaaaaaaaaaaaaa",
"aaaaaaaaaaaaaaaaaaaaaaaaaaaaaaaaaaaaaaaaaaaaaaaaaaaaaaaaaaaaaaaaaaaaaaaaaaaaaaaa",
"aaaaaaaaaaaaaaaaaaaaaaaaaaaaaaaaaaaaaaaaaaaaaaaaaaaaaaaaaaaaaaaaaaaaaaaaaaaaaaaa",
"aaaaaaaaaaaaaaaaaaaaaaaaaaaaaaaaaaaaaaaaaaaaaaaaaaaaaaaaaaaaaaaaaaaaaaaaaaaaaaaa",
"aaaaaaaaaaaaaaaaaaaaaaaaaaaaaaaaaaaaaaaaaaaaaaaaaaaaaaaaaaaaaaaaaaaaaaaaaaaaaaaa",
"aaaaaaaaaaaaaaaaaaaaaaaaaaaaaaaaaaaaaaaaaaaaaaaaaaaaaaaaaaaaaaaaaaaaaaaaaaaaaaaa",
"aaaaaaaaaaaaaaaaaaaaaaaaaaaaaaaaaaaaaaaaaaaaaaaaaaaaaaaaaaaaaaaaaaaaaaaaaaaaaaaa",
"aaaaaaaaaaaaaaaaaaaaaaaaaaaaaaaaaaaaaaaaaaaaaaaaaaaaaaaaaaaaaaaaaaaaaaaaaaaaaaaa",
"aaaaaaaaaaaaaaaaaaaaaaaaaaaaaaaaaaaaaaaaaaaaaaaaaaaaaaaaaaaaaaaaaaaaaaaaaaaaaaaa",
"aaaaaaaaaaaaaaaaaaaaaaaaaaaaaaaaaaaaaaaaaaaaaaaaaaaaaaaaaaaaaaaaaaaaaaaaaaaaaaaa",
"aaaaaaaaaaaaaaaaaaaaaaaaaaaaaaaaaaaaaaaaaaaaaaaaaaaaaaaaaaaaaaaaaaaaaaaaaaaaaaaa",
"aaaaaaaaaaaaaaaaaaaaaaaaaaaaaaaaaaaaaaaaaaaaaaaaaaaaaaaaaaaaaaaaaaaaaaaaaaaaaaaa",
"aaaaaaaaaaaaaaaaaaaaaaaaaaaaaaaaaaaaaaaaaaaaaaaaaaaaaaaaaaaaaaaaaaaaaaaaaaaaaaaa",
"aaaaaaaaaaaaaaaaaaaaaaaaaaaaaaaaaaaaaaaaaaaaaaaaaaaaaaaaaaaaaaaaaaaaaaaaaaaaaaaa"
};
