/* XPM */
static char *xpm_[] = {
/* columns rows colors chars-per-pixel */
"80 80 57 1 ",
"  c #214295",
". c #214295",
"X c #E41C2A",
"o c #E41C2A",
"O c #214295",
"+ c #214295",
"@ c #214295",
"# c #214295",
"$ c #214295",
"% c #214295",
"& c #214295",
"* c #214295",
"= c #E41C2A",
"- c #E41C2A",
"; c #E41C2A",
": c #E41C2A",
"> c #E41C2A",
", c #E41C2A",
"< c #E41C2A",
"1 c #E41C2A",
"2 c #E41C2A",
"3 c #E41C2A",
"4 c #E41C2A",
"5 c #E41C2A",
"6 c #E41C2A",
"7 c #214295",
"8 c #214295",
"9 c #214295",
"0 c #214295",
"q c #214295",
"w c #214295",
"e c #E41C2A",
"r c #214295",
"t c #214295",
"y c #214295",
"u c #E41C2A",
"i c #E41C2A",
"p c #E41C2A",
"a c #E41C2A",
"s c #E41C2A",
"d c #E41C2A",
"f c #E41C2A",
"g c #214295",
"h c #214295",
"j c #214295",
"k c #214295",
"l c #E41C2A",
"z c #214295",
"x c #E41C2A",
"c c #E41C2A",
"v c #E41C2A",
"b c #214295",
"n c #214295",
"m c #214295",
"M c #E41C2A",
"N c #214295",
"B c None",
/* pixels */
"BBBBBBBBBBBBBBBBBBBBBBBBBBBBBBBBBBBBBBBBBBBBBBBBBBBBBBBBBBBBBBBBBBBBBBBBBBBBBBBB",
"BBBBBBBBBBBBBBBBBBBBBBBBBBBBBBBBBBBBBBBBBBBBBBBBBBBBBBBBBBBBBBBBBBBBBBBBBBBBBBBB",
"BBBBBBBBBBBBBBBBBBBBBBBBBBBBBBBBBBBBBBBBBBBBBBBBBBBBBBBBBBBBBBBBBBBBBBBBBBBBBBBB",
"BBBBBBBBBBBBBBBBBBBBBBBBBBBBBBBBBBBBBBBBBBBBBBBBBBBBBBBBBBBBBBBBBBBBBBBBBBBBBBBB",
"BBBBBBBBBBBBBBBBBBBBBBBBBBBBBBBBBBBBBBBBBBBBBBBBBBBBBBBBBBBBBBBBBBBBBBBBBBBBBBBB",
"BBBBBBBBBBBBBBBBBBBBBBBBBBBBBBBBBBBBBBBBBBBBBBBBBBBBBBBBBBBBBBBBBBBBBBBBBBBBBBBB",
"BBBBBBBBBBBBBBBBBBBBBBBBBBBBBBBBBBmBBBBBBBBBBBBBBBBBBBBBBBBBBBBBBBBBBBBBBBBBBBBB",
"BBBBBBBBBBBBBBBBBBBBBBBBBBBBBBBBMlcs662512666xmBBBBBBBBBBBBBBBBBBBBBBBBBBBBBBBBB",
"BBBBBBBBBBBBBBBBBBBBBBBBmBBBmld2,,,,,,,,,,,,,,,:26lBBBBBBBBBBBBBBBBBBBBBBBBBBBBB",
"BBBBBBBBBBBBBBBBBBBBBBBBBmvX,,,,,,,,,,,,,,,,,,,,,,,,1vBBBBBBBBBBBBBBBBBBBBBBBBBB",
"BBBBBBBBBBBBBBBBBBBBBBBmu,,,,,,,,,,,,,,,,,,,,,,,,,,,,,>6BBBBBBBBBBBBBBBBBBBBBBBB",
"BBBBBBBBBBBBBBBBBBBBBBB<,,,,,,,,,,,,,,,,,,,,,,,,,,,,,,,,,fBBBBBBBBBBBBBBBBBBBBBB",
"BBBBBBBBBBBBBBBBBBBBBBml,,,,,,,,,,,,,,,,,,,,,,,,,,,,,,,,,vBBBBBBBBBBBBBBBBBBBBBB",
"BBBBBBBBBBBBBBBBBBBBBBBBx,,,,,,,,,,,,,,,,,,,,,,,,,,,,,,,vBBBBBBBBBBBBBBBBBBBBBBB",
"BBBBBBBBBBBBBBBBBzBBBBBBBp,,,,,,,,,,,,,,,,,,,,,,,,,,,,,6BBBBBBBBBBBBBBBBBBBBBBBB",
"BBBBBBBBBBBBBBBBjq@BBmBBBB-,,,,,,,,366e6xss6o:,,,,,,,,5BBBBBBBg$BBBBBBBBBBBBBBBB",
"BBBBBBBBBBBBBBB%qqq0BBBBBBm,,,,:6vMBBBBBBBBBBBMv6<,,,=BBBBBBB%qq+BBBBBBBBBBBBBBB",
"BBBBBBBBBBBBBB*qqqqq7BBBBBBx,iMBBBBBBBBBBBBmBBmBBBv5,MBBBBBmqqqqq BBBBBBBBBBBBBB",
"BBBBBBBBBBBBB&qqqqqqqqzBBBBBmBBBBBBBBBBBBMeclmBBBBBBmBBBBBkqqqqqqq.BBBBBBBBBBBBB",
"BBBBBBBBBBBBhqqqqqqqqqq&BBBBBBBBBBBBBBBBB-,,,,-cMBBmBBBBBrqqqqqqqqq*BBBBBBBBBBBB",
"BBBBBBBBBBBmqqqqqqqqqqqqzBBBBBBBBBBBBBBBf,,,,,,,,2MBBBmByqqqqqqqqqqqnBBBBBBBBBBB",
"BBBBBBBBBBB0qqqqqqqqqqqzBBBBBBBBBBBBBBBM,,,,,,,,,,,6MBBBBhqqqqqqqqqqqmBBBBBBBBBB",
"BBBBBBBBBBhqqqqqqqqqqqzBBBBBBBBBBBBBBBB-,,,,,,,,,,,,,cBBBBwqqqqqqqqqq%BBBBBBBBBB",
"BBBBBBBBBBqqqqqqqqqqqnBmBBBBBBBBBBBBBB6,,,,,,,,,,,,,,,5BBBBwqqqqqqqqqqmBBBBBBBBB",
"BBBBBBBBBhqqqqqqqqqqjBBBBBBBBBBBBBBBBx,,,,,,,,,,,,,,,,,XBBBB qqqqqqqqq%BBBBBBBBB",
"BBBBBBBBB0qqqqqqqqq0BBBBBBBBBBBBBBBBM,;<:,,,,,,,,,,,,,,,XBBBBqqqqqqqqqqmBBBBBBBB",
"BBBBBBBBbqqqqqqqqqqmBBBBBBBBBBBBBBBBMmBBBBMx6,,,,,,,,,,,,vmBBbqqqqqqqqqnBBBBBBBB",
"BBBBBBBB&qqqqqqqqq%BBBBBBBBBBBBBBBBBBBBBBBmBBm5,,,,,,,,,,,mBBB0qqqqqqqq+BBBBBBBB",
"BBBBBBBB.qqqqqqqqqzBBBBBBBBBBBBBBBBBBBBBBBBBmBms,,,,,,,,,,pBBBrqqqqqqqqqBBBBBBBB",
"BBBBBBBB8qqqqqqqq8BBBBBBBBBBBBBBBBBBBBBBBBBBBBBBf,,,,,,,,,,mBBBqqqqqqqqqmBBBBBBB",
"BBBBBBBzqqqqqqqqqgBBBBBBBBBBBBBBBBBBBBBBBBBBBBBBB-,,,,,,,,,vBBB qqqqqqqqnBBBBBBB",
"BBBBBBBbqqqqqqqqqNBBBBBBBBBBBBBBBBBBBBBBBBBBBBBBBM,,,,,,,,,XBBBtqqqqqqqqwBBBBBBB",
"BBBBBBByqqqqqqqqqmBBBBBBBBBBBBBBBBBBBBBBBBBBBBBBBB,,,,,,,,,2BBBbqqqqqqqqyBBBBBBB",
"BBBBBBByqqqqqqqqqBBBBBBBBBBBBBBBBBBBBBBBBBBBBBBBBB3,,,,,,,,-BBmzqqqqqqqqwBBBBBBB",
"BBBBBBBbqqqqqqqqqBBBBBBBBBBBBBBBBBBBBBBBBBBBBBBBBB4,,,,,,,,-BBBNqqqqqqqqwBBBBBBB",
"BBBBBBBNqqqqqqqqqBBBBBBBBBBBBmBBBBBBBBBBBBBBBBBBBB:,,,,,,,,2BBmzqqqqqqqqnBBBBBBB",
"BBBBBBBmqqqqqqqqqmBBBBBBMcp-=,xBBBBBBBBBBBBBBBBBBM,,,,,,,,,6BBBkqqqqqqqqzmBBBBBB",
"BBBBBBBB0qqqqqqqqmBBm5;,,,,,,,,BBBBBBBBBBBBBBBBBB1,,,,,,,,,xBmBwqqqqqqqqmBBBBBBB",
"BBBBBBBBwqqqqqqqqrBBB,,,,,,,,,,aBBBBBBBBBBBBBBBBf,,,,,,,,,,BBBB$qqqqqqq.BBBBBBBB",
"BBBBBBBBzqqqqqqqq#BBBx,,,,,,,,,,6BBBBBBBBBBmBBBc,,,,,,,,,,6BBBBqqqqqqqqrBBBBBBBB",
"BBBBBBBBBqqqqqqqqqmBBB,,,,,,,,,,,3MBBBBBBBBBBB6,,,,,,,,,,,MBBBzqqqqqqqqmBBBBBBBB",
"BBBBBBBBBgqqqqqqqqhBBBM,,,,,,,,,,,,3vBBBBBMx6,,,,,,,,,,,,xBBmB+qqqqqqq+BBBBBBBBB",
"BBBBBBBBBmqqqqqqqqqBBmBu,,,,,,,,,,,,,,:14<,,,,,,,,,,,,,,XBBBBmqqqqqqqqNBBBBBBBBB",
"BBBBBBBBBBtqqqqqqqqhBBBmu,,,,,,,,,,,,,,,,,,,,,,,,,,,,,,4BBBBB.qqqqqqq*BBBBBBBBBB",
"BBBBBBBBBBBqqqqqqqqqkBBBBi,,,,,,,,,,,,,,,,,,,,,,,,,,,,oBBBBBtqqqqqqqqmBBBBBBBBBB",
"BBBBBBBBBBBzqqqqqqqqqmBBBBx,,,,,,,,,,,,,,,,,,,,,,,,,,uBBBBBNqqqqqqqqyBBBBBBBBBBB",
"BBBBBBBBBBBBrqqqqqqqq8mBBBBmp,,,,,,,,,,,,,,,,,,,,,,2MmBBmBmqqqqqqqq@BBBBBBBBBBBB",
"BBBBBBBBBBBBB$qqqqqqqqqmBmBBBMo,,,,,,,,,,,,,,,,,,=lBBBBBBzqqqqqqqq8BBBBBBBBBBBBB",
"BBBBBBBBBBBBBB.qqqqqqqqqmBBBBBBme1,,,,,,,,,,,,<fmBBBBBBBnqqqqqqqqqBBBBBBBBBBBBBB",
"BBBBBBBBBBBBBBB#qqqqqqqqqwBBBBBBmBBlxuaopXdfMBBBBBBBBBBOqqqqqqqqqmBBBBBBBBBBBBBB",
"BBBBBBBBBBBBBBBB+qqqqqqqqqqNBBBBBBBBmBBBBBBBBBBBBBBBBkqqqqqqqqq8BBBBBBBBBBBBBBBB",
"BBBBBBBBBBBBBBBBBwqqqqqqqqqq8kBBBBBBBmBmBmBBmBBBBBmr.qqqqqqqqq&BBBBBBBBBBBBBBBBB",
"BBBBBBBBBBBBBBBBBBkqqqqqqqqqqq9rkBBBBBBBBBBBBBBBb$qqqqqqqqqqqbBBBBBBBBBBBBBBBBBB",
"BBBBBBBBBBBBBBBBBBBBhqqqqqqqqqqqqq.hyNzNmNzkyg8qqqqqqqqqqqq@BBBBBBBBBBBBBBBBBBBB",
"BBBBBBBBBBBBBBBBBBBBBm@qqqqqqqqqqqqqqqqqqqqqqqqqqqqqqqqqq.kBBBBBBBBBBBBBBBBBBBBB",
"BBBBBBBBBBBBBBBBBBBBBBBm*qqqqqqqqqqqqqqqqqqqqqqqqqqqqqq*NBBBBBBBBBBBBBBBBBBBBBBB",
"BBBBBBBBBBBBBBBBBBBBBBBBBmn0qqqqqqqqqqqqqqqqqqqqqqqqqhmBBBBBBBBBBBBBBBBBBBBBBBBB",
"BBBBBBBBBBBBBBBBBBBBBBBBBBBBmn&qqqqqqqqqqqqqqqqqq#rmBBBBBBBBBBBBBBBBBBBBBBBBBBBB",
"BBBBBBBBBBBBBBBBBBBBBBBBBBBBBBBBBzr**$...@@OtrbmBBBBBBBBBBBBBBBBBBBBBBBBBBBBBBBB",
"BBBBBBBBBBBBBBBBBBBBBBBBBBBBBBBBBBBBBBBBBBBBBBmBBBBBBBBBBBBBBBBBBBBBBBBBBBBBBBBB",
"BBBBBBBBBBBBBBBBBBBBBBBBBBBBBBBBBBBBBBBBBBBBBBBBBBBBBBBBBBBBBBBBBBBBBBBBBBBBBBBB",
"BBBBBBBBBBBBBBBBBBBBBBBBBBBBBBBBBBBBBBBBBBBBBBBBBBBBBBBBBBBBBBBBBBBmBBBBBBBBBBBB",
"BBBBBBBBBBBBBBBBBBBBBBBBBBBBBBBBBBBBBBBBBBBBBBBBBBBBBBBBBBBBBBBBBBBBBBBBBBBBBBBB",
"BBBBBBBBBBBBBBBBBBBBBBBBBBBBBBBBBBBBBBBBBBBBBBBBBBBBBBBBBBBBBBBBtgB$NBBBBBBBBBBB",
"BBBBBkzmBmbmBmmNBBkkmzzkmBmzbNBBBBBBzmBBBmzkBBBBBBmBBBBkzBBBBBBBO@BqkBBBmkkBBBBB",
"BBBByq9BBqqnBkqqBkqqqqqqNmqqqqqBBBBnqrBBBnqqq BBBtqBBBqqqqzBBBBBy@ rBBB7qqqqzBBB",
"BBBBhqwBBqqmBrq8Bz# qqO+ByqBBBqyBBB.qhBBBh8Bmq.BBg.BB8OBB+qBBBB.qqqqwBB%+n.q8BBB",
"BBBB0q0r*qqBBOqOBBByq+BBB$@BBBqyBBtqtqBBB jBBNqBBqgBzqBBBmqmBBrq8BzqqBBBBm%qrBBB",
"BBBm7qqqqq+BB@qtBBB$qwBBB*q70q+BBBqmmqBBBqyBBbqBBqyBO#BBBzqBBB$qyBmqqBBB.qq$BBBB",
"BBBNqqrN.qgBBqqzBBBqqnBBBq&tq*BBBhqr%qNBBqmBB*qBmqzB.%BBBrqBBB0qkBzq@BBBNbqqnBBB",
"BBBkq0BB0qtBmqqBBBmqqNBBBqmBt9BBBqOO+qkBNqBBbqyBzqBBr9BBBqrBBB0q*m.qyB0@mm qtBBB",
"BBBwq0BmqqkBbqqBBBbqqBBBzqmBmqNB+.BBB8+Bwq.0qwBBrqBBBqq%q@BBBBkqqqq#BB0qqqq8mBBB",
"BBBztkBmttmBNhnBBBNhbBBBNrBBBtzBtmBmBnnBzj*tmBBBkyBBBm&#nBBBBBBN%OyBBBBnO%rBBBBB",
"BBBBBBBBBBBBBBmBBBBBBBBBBBBBBBBBBBBBBBBBBBBBBBBBBBBBBBBBBBBBBBBBBBBBBBBBBBBBBBBB",
"BBBBBBBBBBBBBBBBBBBBBBBBBBBBBBBBBBBBBBBBBBBBBBBBBBBBBBBBBBBBBBBBBBBBBBBBBBBBBBBB",
"BBBBBBBBBBBBBBBBBBBBBBBBBBBBBBBBBBBBBBBBBBBBBBBBBBBBBBBBBBBBBBBBBBBBBBBBBBBBBBBB",
"BBBBBBBBBBBBBBBBBBBBBBBBBBBBBBBBBBBBBBBBBBBBBBBBBBBBBBBBBBBBBBBBBBBBBBBBBBBBBBBB",
"BBBBBBBBBBBBBBBBBBBBBBBBBBBBBBBBBBBBBBBBBBBBBBBBBBBBBBBBBBBBBBBBBBBBBBBBBBBBBBBB",
"BBBBBBBBBBBBBBBBBBBBBBBBBBBBBBBBBBBBBBBBBBBBBBBBBBBBBBBBBBBBBBBBBBBBBBBBBBBBBBBB",
"BBBBBBBBBBBBBBBBBBBBBBBBBBBBBBBBBBBBBBBBBBBBBBBBBBBBBBBBBBBBBBBBBBBBBBBBBBBBBBBB"
};
