/* XPM */
static char *xpm_[] = {
/* columns rows colors chars-per-pixel */
"80 80 219 2 ",
"   c #E2011A",
".  c #DD0000",
"X  c #DE0000",
"o  c #DF0000",
"O  c #DF0001",
"+  c #DF0004",
"@  c #DF0005",
"#  c #E2001A",
"$  c #E2001A",
"%  c #E00009",
"&  c #E0000A",
"*  c #E0000B",
"=  c #E0000C",
"-  c #E0000D",
";  c #E0000E",
":  c #E1000E",
">  c #E1000F",
",  c #E10010",
"<  c #E10011",
"1  c #E10012",
"2  c #E10013",
"3  c #E10014",
"4  c #E10015",
"5  c #E10016",
"6  c #E20016",
"7  c #E20017",
"8  c #E20018",
"9  c #E20019",
"0  c #E2001A",
"q  c #E2011A",
"w  c #E2011B",
"e  c #E2021B",
"r  c #E2001A",
"t  c #E2011B",
"y  c #E2021C",
"u  c #E2031C",
"i  c #E2031D",
"p  c #E2041D",
"a  c #E2041E",
"s  c #E3041E",
"d  c #E3051F",
"f  c #E3061F",
"g  c #E30620",
"h  c #E30720",
"j  c #E30821",
"k  c #E30922",
"l  c #E30A23",
"z  c #E30B24",
"x  c #E30C25",
"c  c #E30D26",
"v  c #E40D26",
"b  c #E40E27",
"n  c #E40F27",
"m  c #E4112A",
"M  c #E4122A",
"N  c #E4122B",
"B  c #E4132B",
"V  c #E4152D",
"C  c #E5182F",
"Z  c #E51830",
"A  c #E51930",
"S  c #E51A32",
"D  c #E51C33",
"F  c #E51D34",
"G  c #E51E35",
"H  c #E61F36",
"J  c #E62037",
"K  c #E62137",
"L  c #E62239",
"P  c #E6253B",
"I  c #E6263C",
"U  c #E72B40",
"Y  c #E72C41",
"T  c #E72D42",
"R  c #E72E43",
"E  c #E72F44",
"W  c #E73045",
"Q  c #E83146",
"!  c #E83247",
"~  c #E83348",
"^  c #E8354A",
"/  c #E8364B",
"(  c #E8394D",
")  c #E93A4F",
"_  c #E93B4F",
"`  c #E93D51",
"'  c #E93E52",
"]  c #E93F52",
"[  c #E93F53",
"{  c #E94154",
"}  c #E94255",
"|  c #EA4256",
" . c #EA4356",
".. c #EA4457",
"X. c #EA4558",
"o. c #EA4659",
"O. c #EA475A",
"+. c #EA485A",
"@. c #EA485B",
"#. c #EA495C",
"$. c #EA4A5C",
"%. c #EB4B5D",
"&. c #EB4C5E",
"*. c #EB4F61",
"=. c #EB5163",
"-. c #EB5264",
";. c #EB5364",
":. c #EB5465",
">. c #EC5768",
",. c #EC5769",
"<. c #EC5869",
"1. c #EC596A",
"2. c #EC5B6B",
"3. c #EC5B6C",
"4. c #EC5C6C",
"5. c #ED5D6D",
"6. c #ED5D6E",
"7. c #ED5F6F",
"8. c #ED6070",
"9. c #ED6171",
"0. c #ED6272",
"q. c #ED6373",
"w. c #EE6675",
"e. c #EE6676",
"r. c #EE6877",
"t. c #EE6978",
"y. c #EE6979",
"u. c #EE6B7A",
"i. c #EE6C7B",
"p. c #EE6D7C",
"a. c #EF6E7D",
"s. c #EF707F",
"d. c #EF7180",
"f. c #EF7280",
"g. c #EF7583",
"h. c #F07986",
"j. c #F07987",
"k. c #F07B88",
"l. c #F07C89",
"z. c #F07C8A",
"x. c #F18491",
"c. c #F28995",
"v. c #F28A96",
"b. c #F28B97",
"n. c #F28D98",
"m. c #F28D99",
"M. c #F28E9A",
"N. c #F28F9A",
"B. c #F3939E",
"V. c #F3949F",
"C. c #F395A0",
"Z. c #F49EA8",
"A. c #F5AAB2",
"S. c #F6ACB4",
"D. c #F6ACB5",
"F. c #F6AFB7",
"G. c #F6B2BA",
"H. c #F6B3BA",
"J. c #F6B4BB",
"K. c #F7B4BC",
"L. c #F7B5BD",
"P. c #F7B7BE",
"I. c #F7B8C0",
"U. c #F7B9C0",
"Y. c #F7BBC2",
"T. c #F7BCC3",
"R. c #F8BEC5",
"E. c #F8BFC5",
"W. c #F8C0C7",
"Q. c #F8C1C7",
"!. c #F8C4CA",
"~. c #F8C6CB",
"^. c #F9C7CD",
"/. c #F9C9CE",
"(. c #F9C9CF",
"). c #F9CACF",
"_. c #F9CBD0",
"`. c #FAD1D5",
"'. c #FAD1D6",
"]. c #FAD2D6",
"[. c #FAD3D7",
"{. c #FAD3D8",
"}. c #FAD4D8",
"|. c #FAD4D9",
" X c #FAD6DA",
".X c #FBD7DB",
"XX c #FBDADE",
"oX c #FBE0E3",
"OX c #FCE1E4",
"+X c #FCE3E6",
"@X c #FCE4E6",
"#X c #FCE5E7",
"$X c #FCE6E8",
"%X c #FCE7E9",
"&X c #FCE7EA",
"*X c #FCE9EB",
"=X c #FDEAEC",
"-X c #FDEBED",
";X c #FDEFF0",
":X c #FDF0F1",
">X c #FDF1F2",
",X c #FDF1F3",
"<X c #FDF2F3",
"1X c #FEF2F3",
"2X c #FEF2F4",
"3X c #FEF5F6",
"4X c #FEF6F7",
"5X c #FEF7F7",
"6X c #FEF7F8",
"7X c #FEF9FA",
"8X c #FEFAFB",
"9X c #FFFBFB",
"0X c #FFFCFC",
"qX c #FFFDFD",
"wX c #FFFDFE",
"eX c #FFFEFE",
"rX c #FFFFFF",
"tX c #E2001A",
"yX c None",
/* pixels */
"yXyXyXyXyXyXyXyXyXyXyXyXyXyXyXyXyXyXyXyXyXyXyXyXyXyXyXyXyXyXyXyXyXyXyXyXyXyXyXyXyXyXyXyXyXyXyXyXyXyXyXyXyXyXyXyXyXyXyXyXyXyXyXyXyXyXyXyXyXyXyXyXyXyXyXyXyXyXyXyX",
"yXyXyXyXyXyXyXyXyXyXyXyXyXyXyXyXyXyXyXyXyXyXyXyXyXyXyXyXyXyXyXyXyXyXyXyXyXyXyXyXyXyXyXyXyXyXyXyXyXyXyXyXyXyXyXyXyXyXyXyXyXyXyXyXyXyXyXyXyXyXyXyXyXyXyXyXyXyXyXyX",
"yXyXyXyXyXyXyXyXyXyXyXyXyXyXyXyXyXyXyXyXyXyXyXyXyXyXyXyXyXyXyXyXyXyXyXyXyXyXyXyXyXyXyXyXyXyXyXyXyXyXyXyXyXyXyXyXyXyXyXyXyXyXyXyXyXyXyXyXyXyXyXyXyXyXyXyXyXyXyXyX",
"yXyXyXyXyXyXyXyXyXyXyXyXyXyXyXyXyXyXyXyXyXyXyXyXyXyXyXyXyXyXyXyXyXyXyXyXyXyXyXyXyXyXyXyXyXyXyXyXyXyXyXyXyXyXyXyXyXyXyXyXyXyXyXyXyXyXyXyXyXyXyXyXyXyXyXyXyXyXyXyX",
"yXyXyXyXyXyXyXyXyXyXyXyXyXyXyXyXyXyXyXyXyXyXyXyXyXyXyXyXyXyXyXyXyXyXyXyXyXyXyXyXyXyXyXyXyXyXyXyXyXyXyXyXyXyXyXyXyXyXyXyXyXyXyXyXyXyXyXyXyXyXyXyXyXyXyXyXyXyXyXyX",
"yXyXyXyXyXyXyXyXyXyXyXyXyXyXyXyXyXyXyXyXyXyXyXyXyXyXyXyXyXyXyXyXyXyXyXyXyXyXyXyXyXyXyXyXyXyXyXyXyXyXyXyXyXyXyXyXyXyXyXyXyXyXyXyXyXyXyXyXyXyXyXyXyXyXyXyXyXyXyXyX",
"yXyXyXyXyXyXyXyXyXyXyXyXyXyXyXyXyXyXyXyXyXyXyXyXyXyXyXyXyXyXyXyXyXyXyXyXyXyXyXyXyXyXyXyXyXyXyXyXyXyXyXyXyXyXyXyXyXyXyXyXyXyXyXyXyXyXyXyXyXyXyXyXyXyXyXyXyXyXyXyX",
"yXyXyXyXyXyXyXyXyXyXyXyXyXyXyXyXyXyXyXyXyXyXyXyXyXyXyXyXyXyXyXyXyXyXyXyXyXyXyXyXyXyXyXyXyXyXyXyXyXyXyXyXyXyXyXyXyXyXyXyXyXyXyXyXyXyXyXyXyXyXyXyXyXyXyXyXyXyXyXyX",
"yXyXyXyXyXyXyXyXyXyXyXyXyXyXyXyXyXyXyXyXyXyXyXyXyXyXyXyXyXyXyXyXyXyXyXyXyXyXyXyXyXyXyXyXyXyXyXyXyXyXyXyXyXyXyXyXyXyXyXyXyXyXyXyXyXyXyXyXyXyXyXyXyXyXyXyXyXyXyXyX",
"yXyXyXyXyXyXyXyXyXyXyXyXyXyXyXyXyXyXyXyXyXyXyXyXyXyXyXyXyXyXyXyXyXyXyXyXyXyXyXyXyXyXyXyXyXyXyXyXyXyXyXyXyXyXyXyXyXyXyXyXyXyXyXyXyXyXyXyXyXyXyXyXyXyXyXyXyXyXyXyX",
"yXyXyXyXyXyXyXyXyXyXyXyXyXyXyXyXyXyXyXyXyXyXyXyXyXyXyXyXyXyXyXyXyXyXyXyXyXyXyXyXyXyXyXyXyXyXyXyXyXyXyXyXyXyXyXyXyXyXyXyXyXyXyXyXyXyXyXyXyXyXyXyXyXyXyXyXyXyXyXyX",
"yXyXyXyXyXyXyXyXyXyXyXyXyXyXyXyXyXyXyXyXyXyXyXyXyXyXyXyXyXyXyXyXyXyXyXyXyXyXyXyXyXyXyXyXyXyXyXyXyXyXyXyXyXyXyXyXyXyXyXyXyXyXyXyXyXyXyXyXyXyXyXyXyXyXyXyXyXyXyXyX",
"yXyXyXyXyXyXyXyXyXyXyXyXyXyXyXyXyXyXyXyXyXyXyXyXyXyXyXyXyXyXyXyXyXyXyXyXyXyXyXyXyXyXyXyXyXyXyXyXyXyXyXyXyXyXyXyXyXyXyXyXyXyXyXyXyXyXyXyXyXyXyXyXyXyXyXyXyXyXyXyX",
"yXyXyXyXyXyXyXyXyXyXyXyXyXyXyXyXyXyXyXyXyXyXyXyXyXyXyXyXyXyXyXyXyXyXyXyXyXyXyXyXyXyXyXyXyXyXyXyXyXyXyXyXyXyXyXyXyXyXyXyXyXyXyXyXyXyXyXyXyXyXyXyXyXyXyXyXyXyXyXyX",
"yXyXyXyXyXyXyXyXyXyXyXyXyXyXyXyXyXyXyXyXyXyXyXyXyXyXyXyXyXyXyXyXyXyXyXyXyXyXyXyXyXyXyXyXyXyXyXyXyXyXyXyXyXyXyXyXyXyXyXyXyXyXyXyXyXyXyXyXyXyXyXyXyXyXyXyXyXyXyXyX",
"yXyXyXyXyXyXyXyXyXyXyXyXyXyXyXyXyXyXyXyXyXyXyXyXyXyXyXyXyXyXyXyXyXyXyXyXyXyXyXyXyXyXyXyXyXyXyXyXyXyXyXyXyXyXyXyXyXyXyXyXyXyXyXyXyXyXyXyXyXyXyXyXyXyXyXyXyXyXyXyX",
"yXyXyXyXyXyXyXyXyXyXyXyXyXyXyXyXyXyXyXyXyXyXyXyXyXyXyXyXyXyXyXyXyXyXyXyXyXyXyXyXyXyXyXyXyXyXyXyXyXyXyXyXyXyXyXyXyXyXyXyXyXyXyXyXyXyXyXyXyXyXyXyXyXyXyXyXyXyXyXyX",
"yXyXyXyXyXyXyXyXyXyXyXyXyXyXyXyXyXyXyXyXyXyXyXyXyXyXyXyXyXyXyXyXyXyXyXyXyXyXyXyXyXyXyXyXyXyXyXyXyXyXyXyXyXyXyXyXyXyXyXyXyXyXyXyXyXyXyXyXyXyXyXyXyXyXyXyXyXyXyXyX",
"yXyXyXyXyXyXyXyXyXyXyXyXyXyXyXyXyXyXyXyXyXyXyXyXyXyXyXyXyXyXyXyXyXyXyXyXyXyXyXyXyXyXyXyXyXyXyXyXyXyXyXyXyXyXyXyXyXyXyXyXyXyXyXyXyXyXyXyXyXyXyXyXyXyXyXyXyXyXyXyX",
"yXyXyXyXyXyXyXyXyXyXyXyXyXyXyXyXyXyXyXyXyXyXyXyXyXyXyXyXyXyXyXyXyXyXyXyXyXyXyXyXyXyXyXyXyXyXyXyXyXyXyXyXyXyXyXyXyXyXyXyXyXyXyXyXyXyXyXyXyXyXyXyXyXyXyXyXyXyXyXyX",
"yXyXyXyXyXyXyXyXyXyXyXyXyXyXyXyXyXyXyXyXyXyXyXyXyXyXyXyXyXyXyXyXyXyXyXyXyXyXyXyXyXyXyXyXyXyXyXyXyXyXyXyXyXyXyXyXyXyXyXyXyXyXyXyXyXyXyXyXyXyXyXyXyXyXyXyXyXyXyXyX",
"yXyXyXyXyXyXyXyXyXyXyXyXyXyXyXyXyXyXyXyXyXyXyXyXyXyXyXyXyXyXyXyXyXyXyXyXyXyXyXyXyXyXyXyXyXyXyXyXyXyXyXyXyXyXyXyXyXyXyXyXyXyXyXyXyXyXyXyXyXyXyXyXyXyXyXyXyXyXyXyX",
"yXyXyXyXyXyXyXyXyXyXyXyXyXyXyXyXyXyXyXyXyXyXyXyXyXyXyXyXyXyXyXyXyXyXyXyXyXyXyXyXyXyXyXyXyXyXyXyXyXyXyXyXyXyXyXyXyXyXyXyXyXyXyXyXyXyXyXyXyXyXyXyXyXyXyXyXyXyXyXyX",
"yXyXyXyXyXyXyXyXyXyXyXyXyXyXyXyXyXyXyXyXyXyXyXyXyXyXyXyXyXyXyXyXyXyXyXyXyXyXyXyXyXyXyXyXyXyXyXyXyXyXyXyXyXyXyXyXyXyXyXyXyXyXyXyXyXyXyXyXyXyXyXyXyXyXyXyXyXyXyXyX",
"yXyXyXyXyXyXyXyXyXyXyXyXyXyXyXyXyXyXyXyXyXyXyXyXyXyXyXyXyXyXyXyXyXyXyXyXyXyXyXyXyXyXyXyXyXyXyXyXyXyXyXyXyXyXyXyXyXyXyXyXyXyXyXyXyXyXyXyXyXyXyXyXyXyXyXyXyXyXyXyX",
"yXyXyXyXyXyXyXyXyXyXyXyXyXyXyXyXyXyXyXyXyXyXyXyXyXyXyXyXyXyXyXyXyXyXyXyXyXyXyXyXyXyXyXyXyXyXyXyXyXyXyXyXyXyXyXyXyXyXyXyXyXyXyXyXyXyXyXyXyXyXyXyXyXyXyXyXyXyXyXyX",
"yXyXyXyXyXyXyXyXyXyXyXyXyXyXyXyXyXyXyXyXyXyXyXyXyXyXyXyXyXyXyXyXyXyXyXyXyXyXyXyXyXyXyXyXyXyXyXyXyXyXyXyXyXyXyXyXyXyXyXyXyXyXyXyXyXyXyXyXyXyXyXyXyXyXyXyXyXyXyXyX",
"yXyXyXyXyXyXyXyXyXyXyXyXyXyXyXyXyXyXyXyXyXyXyXyXyXyXyXyXyXyXyXyXyXyXyXyXyXyXyXyXyXyXyXyXyXyXyXyXyXyXyXyXyXyXyXyXyXyXyXyXyXyXyXyXyXyXyXyXyXyXyXyXyXyXyXyXyXyXyXyX",
"yXyXyXyXyXyXyXyXyXyXyXyXyXyXyXyXyXyXyXyXyXyXyXyXyXyXyXyXyXyXyXyXyXyXyXyXyXyXyXyXyXyXyXyXyXyXyXyXyXyXyXyXyXyXyXyXyXyXyXyXyXyXyXyXyXyXyXyXyXyXyXyXyXyXyXyXyXyXyXyX",
"yXyXyXyXyXyXyXyXyXyXyXyXyXyXyXyXyXyXyXyXyXyXyXyXyXyXyXyXyXyXyXyXyXyXyXyXyXyXyXyXyXyXyXyXyXyXyXyXyXyXyXyXyXyXyXyXyXyXyXyXyXyXyXyXyXyXyXyXyXyXyXyXyXyXyXyXyXyXyXyX",
"yXyXyX0 0 0 0 0 0 0 0 0 0 0 0 0 0 0 0 0 0 0 0 0 0 0 0 0 0 0 0 0 0 0 0 0 0 0 0 0 0 0 0 0 0 0 0 0 0 0 0 0   yXyXtX0 # 0 0 0 0 0 0 0 0 0 0 0 0 0 0 0 0 0 0 $ yXyXyX",
"yXyXyX0 0 0 0 0 0 0 0 0 0 0 0 0 0 0 0 0 0 0 0 0 0 0 0 0 0 0 0 0 0 0 0 0 0 0 0 0 0 0 0 0 0 0 0 0 0 0 $ 0   yXyXtX0 # 0 0 0 0 0 0 0 0 0 0 0 0 0 0 0 0 0 0 $ yXyXyX",
"yXyXyX0 0 0 0 0 0 0 0 y s s s s 0 0 0 0 0 0 0 0 s s y s s s y y 0 0 0 0 0 0 0 s s s y s s y s s y 0 0 0   yXyXtX0 # 0 0 0 0 0 0 0 s 0 y y 0 0 0 0 0 0 0 $ yXyXyX",
"yXyXyX0 0 0 0 0 0 s 0 - % % % , y 0 0 0 0 0 0 7 % - - % - - - , s 0 0 0 0 0 0 - % - - % % - - % - y $ 0   yXyXtX0 # 0 0 0 0 0 s 7 - - , y y 0 0 0 0 0 0 $ yXyXyX",
"yXyXyX0 0 0 0 0 0 - z ;.x.N.g./ , , s 0 0 0 7 N <.>.<.<.>.<.*.F - 0 0 0 0 0 0 $.6.<.<.<.<.<.<.6...0 0 0   yXyXtX0 0 0 0 0 s 7 - F  ...L - 7 y 0 0 0 0 0 $ yXyXyX",
"yXyXyX0 0 0 0 y - 8.-XeXeXeXeXeXR.F , y 0 s , / eXeXeXeXeXeXeXeXN.7 0 0 0 0 0 OXeXeXeXeXeXeXeXeX[.7 $ 0   yXyXtX0 $ 0 0 y - N D.7XeXeX7XA.c 7 0 0 0 0 0 $ yXyXyX",
"yXyXyX0 0 0 s - j.eXeXeXeXeXeXeXeX;XL , y y , ~ eX7XeXeXeXeXeXeXeXb.- 0 0 0 0 [.eX7XeXeXeXeXeXeX[., t 0   yXyXtX0 0 0 0 7 J OXeXeXeXeXeXeXR.7 0 0 0 0 0 $ yXyXyX",
"yXyXyX0 0 y - ' eX0XeXR.$./ f.2XeXeX(.0 0 s , ~ eXeX Xe.i.e.C.eXeX6XC 7 0 0 0 }.eX7Xz.u.p.p.p.s.-.0 0 0   yXyXtX0 $ 0 s - ;.7XeXU.( $.XXeXeX .- s 0 0 0 $ yXyXyX",
"yXyXyX0 0 y - H.eXeXH.- - , X R 7XeXeX$.- s , ! eXeXJ.X - - X H.eXeX{ - s 0 0 }.eX2X7 X X X X X - 0 0 0   yXyXtX0 # 0 0 y , b u.h , X s.eXeXq.% s 0 0 0 $ yXyXyX",
"yXyXyX0 0 7 c *XeXeXI , h y l @ N.eXeXc.% h , / eXeXU.- 0 0 b [.eXeX! , 0 0 7 }.eX5Xp.<.6.6.q./ 0 0 $ 0   yXyXtXq $ 0 0 0 0 7 % s - E %XeXeXW , y 0 0 0 $ yXyXyX",
"yXyXyX0 y 7 C >XeX%Xc 0 0 0 0 - 6.eXeXZ.- s - ~ eXeX>X^.(.^.*XeXeX_.7 0 0 0 0 }.eXeXeXeXeXeXeXV.% i t 0   yXyXtXq 0 0 0 0 0 i i % <.7XeXeXC.- s 0 0 0 0 $ yXyXyX",
"yXyXyX0 0 0 z *XeXeXP , s y l @ N.eXeXc.% l , ~ eXeXeXeXeXeXeXeXXXI , y 0 0 0 }.eXeXeXeXeXeXeXC.% i $ 0   yXyXtXq $ 0 q 0 i , 7 N.eXeXeXB.0 0 0 0 0 0 0 $ yXyXyX",
"yXyXyX0 0 y - J.eXeXD.- - , @ R 5XeXeX$.- h , ~ eXeX6XOX*XeXeXeXR % s 0 0 0 0 [.eX7Xj.e.u.r.s.` , i t 0   yXyXtXq $ 0 q y , B Q.eXeX@Xo.X % 7 0 0 0 0 0 $ yXyXyX",
"yXyXyX0 0 y - { eX0XeXT.$.! p.>XeXeX_.7 0 y , ~ eXeXT.y s L.eXeXQ.7 0 0 0 0 0 [.eX2Xl @ - % % , q q 0 0   yXyXtX0 0 0 q , Y -XeX7X7Xz. .<.6.D 7 y 0 0 0 $ yXyXyX",
"yXyXyX0 0 0 s - z.eXeXeXeXeXeXeXeX>XP , y y , ~ eXeXL., , A 5XeXeXz.@ s 0 0 0 [.eX>XF 0 s s s y q q 0 0   yXyXtXq $ 0 s % i.eX6XeXeXeXeXeXeX6.% s 0 0 0 $ yXyXyX",
"yXyXyX0 0 0 0 0 - q.-XeXeXeXeXeXR.J , s 0 y , / eXeX!., l % 6.eXeXeX&.- y 0 0 OXeXeXF , 0 0 0 0 q q t 0   yXyXtXq # 0 s % e.eXeXeXeXeXeXeXeX<.% s 0 0 0 $ yXyXyX",
"yXyXyX0 0 0 0 0 0 - c <.c.V.j.( , 7 s 0 0 0 7 N 6.q. .7 0 0 0 =.6.q...7 y 0 0 &.q.>.l 0 0 0 0 0 0 0 t 0   yXyXtX0 0 0 0 7 A  .' ' ' ' ' '  .V 7 0 0 0 0 $ yXyXyX",
"yXyXyX0 0 0 0 0 0 s 7 - % % % - s 0 0 0 0 0 0 7 % - - y 0 0 0 - - % - y 0 0 0 - % - 7 0 0 0 0 0 0 0 t 0   yXyXtXq $ 0 0 0 7 - - - , - , - - 7 0 0 0 0 0 $ yXyXyX",
"yXyXyX0 0 0 0 0 0 0 0 s s s s y 0 0 0 0 0 0 0 0 s s y 0 0 0 0 s s s y 0 0 0 0 y s s 0 0 0 0 0 0 0 0 r 0   yXyXtX0 0 0 0 0 0 s y y s y y s y 0 0 0 0 0 0 $ yXyXyX",
"yXyXyX0 0 0 0 0 0 0 0 0 0 0 0 0 0 0 0 0 0 0 0 0 0 0 0 0 0 0 0 0 0 0 0 0 0 0 0 0 0 0 0 0 0 0 0 0 0 0 r 0   yXyXtX0 $ 0 0 0 0 0 0 0 0 0 0 0 0 0 0 0 0 0 0 $ yXyXyX",
"yXyXyX0 0 0 0 0 0 0 0 0 0 0 0 0 0 0 0 0 0 0 0 0 0 0 0 0 0 0 0 0 0 0 0 0 0 0 0 0 0 0 0 0 0 0 0 0 0 0 r 7   yXyXtX0 0 0 0 0 0 0 0 0 0 0 0 0 0 0 0 0 0 0 0 $ yXyXyX",
"yXyXyXyXyXyXyXyXyXyXyXyXyXyXyXyXyXyXyXyXyXyXyXyXyXyXyXyXyXyXyXyXyXyXyXyXyXyXyXyXyXyXyXyXyXyXyXyXyXyXyXyXyXyXyXyXyXyXyXyXyXyXyXyXyXyXyXyXyXyXyXyXyXyXyXyXyXyXyXyX",
"yXyXyXyXyXyXyXyXyXyXyXyXyXyXyXyXyXyXyXyXyXyXyXyXyXyXyXyXyXyXyXyXyXyXyXyXyXyXyXyXyXyXyXyXyXyXyXyXyXyXyXyXyXyXyXyXyXyXyXyXyXyXyXyXyXyXyXyXyXyXyXyXyXyXyXyXyXyXyXyX",
"yXyXyXyXyXyXyXyXyXyXyXyXyXyXyXyXyXyXyXyXyXyXyXyXyXyXyXyXyXyXyXyXyXyXyXyXyXyXyXyXyXyXyXyXyXyXyXyXyXyXyXyXyXyXyXyXyXyXyXyXyXyXyXyXyXyXyXyXyXyXyXyXyXyXyXyXyXyXyXyX",
"yXyXyXyXyXyXyXyXyXyXyXyXyXyXyXyXyXyXyXyXyXyXyXyXyXyXyXyXyXyXyXyXyXyXyXyXyXyXyXyXyXyXyXyXyXyXyXyXyXyXyXyXyXyXyXyXyXyXyXyXyXyXyXyXyXyXyXyXyXyXyXyXyXyXyXyXyXyXyXyX",
"yXyXyXyXyXyXyXyXyXyXyXyXyXyXyXyXyXyXyXyXyXyXyXyXyXyXyXyXyXyXyXyXyXyXyXyXyXyXyXyXyXyXyXyXyXyXyXyXyXyXyXyXyXyXyXyXyXyXyXyXyXyXyXyXyXyXyXyXyXyXyXyXyXyXyXyXyXyXyXyX",
"yXyXyXyXyXyXyXyXyXyXyXyXyXyXyXyXyXyXyXyXyXyXyXyXyXyXyXyXyXyXyXyXyXyXyXyXyXyXyXyXyXyXyXyXyXyXyXyXyXyXyXyXyXyXyXyXyXyXyXyXyXyXyXyXyXyXyXyXyXyXyXyXyXyXyXyXyXyXyXyX",
"yXyXyXyXyXyXyXyXyXyXyXyXyXyXyXyXyXyXyXyXyXyXyXyXyXyXyXyXyXyXyXyXyXyXyXyXyXyXyXyXyXyXyXyXyXyXyXyXyXyXyXyXyXyXyXyXyXyXyXyXyXyXyXyXyXyXyXyXyXyXyXyXyXyXyXyXyXyXyXyX",
"yXyXyXyXyXyXyXyXyXyXyXyXyXyXyXyXyXyXyXyXyXyXyXyXyXyXyXyXyXyXyXyXyXyXyXyXyXyXyXyXyXyXyXyXyXyXyXyXyXyXyXyXyXyXyXyXyXyXyXyXyXyXyXyXyXyXyXyXyXyXyXyXyXyXyXyXyXyXyXyX",
"yXyXyXyXyXyXyXyXyXyXyXyXyXyXyXyXyXyXyXyXyXyXyXyXyXyXyXyXyXyXyXyXyXyXyXyXyXyXyXyXyXyXyXyXyXyXyXyXyXyXyXyXyXyXyXyXyXyXyXyXyXyXyXyXyXyXyXyXyXyXyXyXyXyXyXyXyXyXyXyX",
"yXyXyXyXyXyXyXyXyXyXyXyXyXyXyXyXyXyXyXyXyXyXyXyXyXyXyXyXyXyXyXyXyXyXyXyXyXyXyXyXyXyXyXyXyXyXyXyXyXyXyXyXyXyXyXyXyXyXyXyXyXyXyXyXyXyXyXyXyXyXyXyXyXyXyXyXyXyXyXyX",
"yXyXyXyXyXyXyXyXyXyXyXyXyXyXyXyXyXyXyXyXyXyXyXyXyXyXyXyXyXyXyXyXyXyXyXyXyXyXyXyXyXyXyXyXyXyXyXyXyXyXyXyXyXyXyXyXyXyXyXyXyXyXyXyXyXyXyXyXyXyXyXyXyXyXyXyXyXyXyXyX",
"yXyXyXyXyXyXyXyXyXyXyXyXyXyXyXyXyXyXyXyXyXyXyXyXyXyXyXyXyXyXyXyXyXyXyXyXyXyXyXyXyXyXyXyXyXyXyXyXyXyXyXyXyXyXyXyXyXyXyXyXyXyXyXyXyXyXyXyXyXyXyXyXyXyXyXyXyXyXyXyX",
"yXyXyXyXyXyXyXyXyXyXyXyXyXyXyXyXyXyXyXyXyXyXyXyXyXyXyXyXyXyXyXyXyXyXyXyXyXyXyXyXyXyXyXyXyXyXyXyXyXyXyXyXyXyXyXyXyXyXyXyXyXyXyXyXyXyXyXyXyXyXyXyXyXyXyXyXyXyXyXyX",
"yXyXyXyXyXyXyXyXyXyXyXyXyXyXyXyXyXyXyXyXyXyXyXyXyXyXyXyXyXyXyXyXyXyXyXyXyXyXyXyXyXyXyXyXyXyXyXyXyXyXyXyXyXyXyXyXyXyXyXyXyXyXyXyXyXyXyXyXyXyXyXyXyXyXyXyXyXyXyXyX",
"yXyXyXyXyXyXyXyXyXyXyXyXyXyXyXyXyXyXyXyXyXyXyXyXyXyXyXyXyXyXyXyXyXyXyXyXyXyXyXyXyXyXyXyXyXyXyXyXyXyXyXyXyXyXyXyXyXyXyXyXyXyXyXyXyXyXyXyXyXyXyXyXyXyXyXyXyXyXyXyX",
"yXyXyXyXyXyXyXyXyXyXyXyXyXyXyXyXyXyXyXyXyXyXyXyXyXyXyXyXyXyXyXyXyXyXyXyXyXyXyXyXyXyXyXyXyXyXyXyXyXyXyXyXyXyXyXyXyXyXyXyXyXyXyXyXyXyXyXyXyXyXyXyXyXyXyXyXyXyXyXyX",
"yXyXyXyXyXyXyXyXyXyXyXyXyXyXyXyXyXyXyXyXyXyXyXyXyXyXyXyXyXyXyXyXyXyXyXyXyXyXyXyXyXyXyXyXyXyXyXyXyXyXyXyXyXyXyXyXyXyXyXyXyXyXyXyXyXyXyXyXyXyXyXyXyXyXyXyXyXyXyXyX",
"yXyXyXyXyXyXyXyXyXyXyXyXyXyXyXyXyXyXyXyXyXyXyXyXyXyXyXyXyXyXyXyXyXyXyXyXyXyXyXyXyXyXyXyXyXyXyXyXyXyXyXyXyXyXyXyXyXyXyXyXyXyXyXyXyXyXyXyXyXyXyXyXyXyXyXyXyXyXyXyX",
"yXyXyXyXyXyXyXyXyXyXyXyXyXyXyXyXyXyXyXyXyXyXyXyXyXyXyXyXyXyXyXyXyXyXyXyXyXyXyXyXyXyXyXyXyXyXyXyXyXyXyXyXyXyXyXyXyXyXyXyXyXyXyXyXyXyXyXyXyXyXyXyXyXyXyXyXyXyXyXyX",
"yXyXyXyXyXyXyXyXyXyXyXyXyXyXyXyXyXyXyXyXyXyXyXyXyXyXyXyXyXyXyXyXyXyXyXyXyXyXyXyXyXyXyXyXyXyXyXyXyXyXyXyXyXyXyXyXyXyXyXyXyXyXyXyXyXyXyXyXyXyXyXyXyXyXyXyXyXyXyXyX",
"yXyXyXyXyXyXyXyXyXyXyXyXyXyXyXyXyXyXyXyXyXyXyXyXyXyXyXyXyXyXyXyXyXyXyXyXyXyXyXyXyXyXyXyXyXyXyXyXyXyXyXyXyXyXyXyXyXyXyXyXyXyXyXyXyXyXyXyXyXyXyXyXyXyXyXyXyXyXyXyX",
"yXyXyXyXyXyXyXyXyXyXyXyXyXyXyXyXyXyXyXyXyXyXyXyXyXyXyXyXyXyXyXyXyXyXyXyXyXyXyXyXyXyXyXyXyXyXyXyXyXyXyXyXyXyXyXyXyXyXyXyXyXyXyXyXyXyXyXyXyXyXyXyXyXyXyXyXyXyXyXyX",
"yXyXyXyXyXyXyXyXyXyXyXyXyXyXyXyXyXyXyXyXyXyXyXyXyXyXyXyXyXyXyXyXyXyXyXyXyXyXyXyXyXyXyXyXyXyXyXyXyXyXyXyXyXyXyXyXyXyXyXyXyXyXyXyXyXyXyXyXyXyXyXyXyXyXyXyXyXyXyXyX",
"yXyXyXyXyXyXyXyXyXyXyXyXyXyXyXyXyXyXyXyXyXyXyXyXyXyXyXyXyXyXyXyXyXyXyXyXyXyXyXyXyXyXyXyXyXyXyXyXyXyXyXyXyXyXyXyXyXyXyXyXyXyXyXyXyXyXyXyXyXyXyXyXyXyXyXyXyXyXyXyX",
"yXyXyXyXyXyXyXyXyXyXyXyXyXyXyXyXyXyXyXyXyXyXyXyXyXyXyXyXyXyXyXyXyXyXyXyXyXyXyXyXyXyXyXyXyXyXyXyXyXyXyXyXyXyXyXyXyXyXyXyXyXyXyXyXyXyXyXyXyXyXyXyXyXyXyXyXyXyXyXyX",
"yXyXyXyXyXyXyXyXyXyXyXyXyXyXyXyXyXyXyXyXyXyXyXyXyXyXyXyXyXyXyXyXyXyXyXyXyXyXyXyXyXyXyXyXyXyXyXyXyXyXyXyXyXyXyXyXyXyXyXyXyXyXyXyXyXyXyXyXyXyXyXyXyXyXyXyXyXyXyXyX",
"yXyXyXyXyXyXyXyXyXyXyXyXyXyXyXyXyXyXyXyXyXyXyXyXyXyXyXyXyXyXyXyXyXyXyXyXyXyXyXyXyXyXyXyXyXyXyXyXyXyXyXyXyXyXyXyXyXyXyXyXyXyXyXyXyXyXyXyXyXyXyXyXyXyXyXyXyXyXyXyX",
"yXyXyXyXyXyXyXyXyXyXyXyXyXyXyXyXyXyXyXyXyXyXyXyXyXyXyXyXyXyXyXyXyXyXyXyXyXyXyXyXyXyXyXyXyXyXyXyXyXyXyXyXyXyXyXyXyXyXyXyXyXyXyXyXyXyXyXyXyXyXyXyXyXyXyXyXyXyXyXyX",
"yXyXyXyXyXyXyXyXyXyXyXyXyXyXyXyXyXyXyXyXyXyXyXyXyXyXyXyXyXyXyXyXyXyXyXyXyXyXyXyXyXyXyXyXyXyXyXyXyXyXyXyXyXyXyXyXyXyXyXyXyXyXyXyXyXyXyXyXyXyXyXyXyXyXyXyXyXyXyXyX"
};
