/* XPM */
static char *xpm_[] = {
/* columns rows colors chars-per-pixel */
"80 80 55 1 ",
"  c #010101",
". c #010101",
"X c #000000",
"o c #010101",
"O c #020202",
"+ c #010101",
"@ c #1B1B1B",
"# c #010101",
"$ c #040404",
"% c #232323",
"& c #ED802F",
"* c #ED802F",
"= c #ED802F",
"- c #ED802F",
"; c #ED802F",
": c #ED802F",
"> c #ED802F",
", c #ED802F",
"< c #ED802F",
"1 c #ED802F",
"2 c #ED802F",
"3 c #ED802F",
"4 c #ED802F",
"5 c #ED802F",
"6 c #ED802F",
"7 c #ED802F",
"8 c #ED802F",
"9 c #ED802F",
"0 c #ED802F",
"q c #020202",
"w c #010101",
"e c #010101",
"r c #010101",
"t c #ED802F",
"y c #ED802F",
"u c #ED802F",
"i c #ED802F",
"p c #ED802F",
"a c #ED802F",
"s c #ED802F",
"d c #ED802F",
"f c #ED802F",
"g c #ED802F",
"h c #ED802F",
"j c #030303",
"k c #020202",
"l c #ED802F",
"z c #ED802F",
"x c #ED802F",
"c c #ED802F",
"v c #ED802F",
"b c #2C1A0C",
"n c #ED802F",
"m c #ED802F",
"M c None",
/* pixels */
"MMMMMMMMMMMMMMMMXXXXXXXXXXXXXXXXXXXXXXXXXXXXXXXXXXXXXXXXXXXXXXXXMMMMMMMMMMMMMMMM",
"MMMMMMMMMMMMMMMMXXXXXXXXXXXXXXXXXXXXXXXXXXXXXXXXXXXXXXXXXXXXXXXXMMMMMMMMMMMMMMMM",
"MMMMMMMMMMMMMMMMXXXXXXXXXXXXXXXXXXXXXXXXXXXXXXXXXXXXXXXXXXXXXXXXMMMMMMMMMMMMMMMM",
"MMMMMMMMMMMMMMMMXXXXXXXXXXXXXXXXXXXXXXXXXXXXXXXXXXXXXXXXXXXXXXXXMMMMMMMMMMMMMMMM",
"MMMMMMMMMMMMMMMMXXXXXXXXXXXXXXXX9g%XXXXXXXXXXXXXXXXXXXXXXXXXXXXXMMMMMMMMMMMMMMMM",
"MMMMMMMMMMMMMMMMXXXXXXXXXXXXXX*g=XXXXXXXXXXXXXX%XXXXXXXXXXXXXXXXMMMMMMMMMMMMMMMM",
"MMMMMMMMMMMMMMMMXXXXXXXXXXXb%00XXXXXXXXX4000v*;;v0=1XXXXXXXXXXXXMMMMMMMMMMMMMMMM",
"MMMMMMMMMMMMMMMMXXXXXXXXXXXv&2XXXXXXX4*v00;=0-*a*-00v*bXXXXXXXXXMMMMMMMMMMMMMMMM",
"MMMMMMMMMMMMMMMMXXXXXXXXX>*vXXXXXXXb000=0000%g9XXX%@00-*XXXXXXXXMMMMMMMMMMMMMMMM",
"MMMMMMMMMMMMMMMMXXXXXXXX60-XXXXXXX=*;0;00*%@XXXXXXXX@v8v*vXXXXXXMMMMMMMMMMMMMMMM",
"MMMMMMMMMMMMMMMMXXXXXXX--;XXXXXX>0;;=0vXXXXXXXXXXXXXXXXXaf>9XXXXMMMMMMMMMMMMMMMM",
"MMMMMMMMMMMMMMMMXXXXXXb*05XXXX@00;0;>fXXXXXXXXXXXXXXXXXXXXu0XXXXMMMMMMMMMMMMMMMM",
"MMMMMMMMMMMMMMMMXXXXXy000XXXXXa000*=9XXXXXXXXXg3X824at%XXXXXv6XXMMMMMMMMMMMMMMMM",
"MMMMMMMMMMMMMMMMXXXXX000%XXXX0*=00vXXXXXXX%&*v00v*00000:XXXXXgXXMMMMMMMMMMMMMMMM",
"MMMMMMMMMMMMMMMMXXXXv>*6XXXX>0;00-@XXXXXXh00=;;;0000;;00v2gXXXXXMMMMMMMMMMMMMMMM",
"MMMMMMMMMMMMMMMMXXX%0-vXXXXX0;0;0%XXXXXX%&00000000000000;=h%XXXXcMMMMMMMMMMMMMMM",
"MMMMMMMMMMMMMMMqbXXl>08XXXX=;0>0XXXXXX%00;0000000000000000000%XXpMMMMMMMMMMMMMMM",
"MMMMMMMMMMMMMMjgXXX;-0XXXXb*;;8%XXXXXb>00000000000000000000000XXMcMMMMMMMMMMMMMM",
"MMMMMMMMMMMMMMb5XXX-*zXXXX0;000XXXXXXg00000000000000000000000;v%MMMMMMMMMMMMMMMM",
"MMMMMMMMMMMMMM99XXb3=XXXX100;0fXXXXX4*;00000000000000000000000-,pMMMMMMMMMMMMMMM",
"MMMMMMMMMMMMMM;gXX00;yXX%000*vXXXXXX0;000000000000000000000000000cMMMMMMMMMMMMMM",
"MMMMMMMMMMMMMg0MX@0;;%XXd000-XXXXXXX000000000000000000000000000;04MMMMMMMMMMMMMM",
"MMMMMMMMMMMMM4-MXX0=xXXX400=0%XXXXXv;00000;;;;;-000000000000000000gMMMMMMMMMMMMM",
"MMMMMMMMMMMMM;*MXX0-*XXX000>&XXXXXd*;000;000000*000000000000:p0;00,MMMMMMMMMMMMM",
"MMMMMMMMMMMMg09MX90;:XXXv;00XXXXXX200000*=*XXXXv0000000000000%80;;0gMMMMMMMMMMMM",
"MMMMMMMMMMMM&09MXb0;fXXX*-;0XXXXXX=00000bXXXXXXXd000000000000<X00;09MMMMMMMMMMMM",
"MMMMMMMMMMMM509MX-0;*XXX0;;0XXXXXXv;0;09XXXXXXXXXX0000000000-*XX0;0-MMMMMMMMMMMM",
"MMMMMMMMMMMM,0<MX,0;vXXX0;;0XXXXXX*-;0dXXXXXXXXXXX%0000000000vXX*0;0gMMMMMMMMMMM",
"MMMMMMMMMMMM-04MX%000%XX0;;0%XXXXi0;0,XXXXXXXXXXXXXX0000020=003Xg0;0&MMMMMMMMMMM",
"MMMMMMMMMMMM;0,MXg0=0yXX00;0XXXXX-0=0$XXa-a,XXXXXXXX00000%*,;0pXM,004MMMMMMMMMMM",
"MMMMMMMMMMMM;;-MXXv;0:XX0;;0XXXXXa&>XXXX;;vXXXXXXXXX00000%Xp;;:@M&00-MMMMMMMMMMM",
"MMMMMMMMMMMM-;0gXX*-00XX0;;0XXXX=,%XXXvv><@XXX-*vXXX90000uX00-*%Mv00-MMMMMMMMMMM",
"XXXXXXXXXXXX-00sXX00006y0;00%XXXutXXX@&>v%XXXv00%XXXv00006XXv;09Mq200MMMMMMMMMMM",
"XXXXXXXXXXXX900*XX00000a0000&XXXXXXXX%-2XXXX;200XXXX%;0005XX*>0>MM<00MMMMMMMMMMM",
"XXXXXXXXXXXXf0;0XX00000*=000>2XXXXXXXXXXXXX0;;0yXXXX%-;;05XX000>bM400MMMMMMMMMMM",
"XXXXXXXXXXXX%000bXs00000000000XXXXXXXXXXXXu0;;0%XXXX%0;;0<XX000=MM900MMMMMMMMMMM",
"XXXXXXXXXXXXXb*;*%X9000000000;0%XXXXXXXXXf=;0;vXXXXXXv;;vXXX000:MM<04MMMMMMMMMMM",
"XXXXXXXXXXXXXX===0Xp000000000000XXXXXXXX-0;00=2XXXXXh*00*XXX000:MM90hMMMMMMMMMMM",
"XXXXXXXXXXXXXX0-00fX000000000000v*;12<%&0;00;0XXXXXX>000-$XX0003MM<0cMMMMMMMMMMM",
"XXXXXXXXXXXXXX&*;;-g400000000000;-000;;:0000;0XXXXXX0000iXX%0008MM5;MMMMMMMMMMMM",
"XXXXXXXXXXXXXXXv00;000000000000000;;;;000000>;XXXXX%0;;06XXXv=0gMM-9MMMMMMMMMMMM",
"XXXXXXXXXXXXXXXX0;000000000000000000000000004%XXXXX10;;0XXXX*>0%Mc0gMMMMMMMMMMMM",
"XXXXXXXXXXXXXXXX:-=000000000000000000000000;vXXXXX@:00>;XXXX;>0XMg-MMMMMMMMMMMMM",
"XXXXXXXXXXXXXXXXX8000000000000000000000000=0XXXXXXh0;;6%XXXX08%XM9hMMMMMMMMMMMMM",
"XXXXXXXXXXXXXXXXXX=*;000000000000000000000*>XXXXXXh:0;0XXXX0;0%XM4MMMMMMMMMMMMMM",
"XXXXXXXXXXXXXXXXXX%v0;000000000000000000;0vXXXXXXb0=;;<XXXX0=0XXgpMMMMMMMMMMMMMM",
"XXXXXXXXXXXXXXXXXXXX00;0000000000000000;0<XXXXXXp0;0*-XXXX50vXXXgMMMMMMMMMMMMMMM",
"XXXXXXXXXXXXXXXXXXXXX800;;00000000000;00*XXXXXXX0;0;vXXXXX0>*XXXMMMMMMMMMMMMMMMM",
"XXXXXXXXXXXXXXXXXXXXXXX@f<-=-=0;;;-*,g%XXXXXXXs00000bXXXXX006XXXMMMMMMMMMMMMMMMM",
"XXXXXXXXXXXXXXXXXXX%XXXXX%-0*v0000;v*XXXXXXXX8000000XXXXbv>4$XXXMMMMMMMMMMMMMMMM",
"XXXXXXXXXXXXXXXXXXXXvxXXXXXXXXXXduXXXXXXXXXX@u00-:0XXXXX000$XXXXMMMMMMMMMMMMMMMM",
"XXXXXXXXXXXXXXXXXXXXv0pXXXXXXXXXXXXXXXXXXXv0;,000vXXXXX=008XXXXXMMMMMMMMMMMMMMMM",
"XXXXXXXXXXXXXXXXXXXXXX>hXXXXXXXXXXXXXXXXX,0000002XXXXX,0*bXXXXXXMMMMMMMMMMMMMMMM",
"XXXXXXXXXXXXXXXXXXXXXXX%*v0yXXXXXXXXX%X%v*;;000tXXXXXb0=,XXXXXXXMMMMMMMMMMMMMMMM",
"XXXXXXXXXXXXXXXXXXXXXXXXfu,0v;>3,1b200000000vfXXXXXXd;0uXXXXXXXXMMMMMMMMMMMMMMMM",
"XXXXXXXXXXXXXXXXXXXXXXXXXXu;*-00000=0000000pXXXXXXX%-;fXXXXXXXXXMMMMMMMMMMMMMMMM",
"XXXXXXXXXXXXXXXXXXXXXXXXXXXXXXd%00v*-i>*XXXXXXXXX6*vbXXXXXXXXXXXMMMMMMMMMMMMMMMM",
"XXXXXXXXXXXXXXXXXXXXXXXXXXXXXXXXX%XX@XXXXXXXXXXd<02XXXXXXXXXXXXXMMMMMMMMMMMMMMMM",
"XXXXXXXXXXXXXXXXXXXXXXXXXXXXXXXXXXXXXXXXXXXXXXvgu@XXXXXXXXXXXXXXMMMMMMMMMMMMMMMM",
"XXXXXXXXXXXXXXXXXXXXXXXXXXXXXXXXXXXXXXXXXXXXXXXXXXXXXXXXXXXXXXXXMMMMMMMMMMMMMMMM",
"XXXXXXXXXXXXXXXXXXXXXXXXXXXXXXXXXXXXXXXXXXXXXXXXXXXXXXXXXXXXXXXXMMMMMMMMMMMMMMMM",
"XXXXXXXXXXXXXXXXXXXXXXXXXXXXXXXXXXXXXXXXXXXXXXXXXXXXXXXXXXXXXXXXMMMMMMMMMMMMMMMM",
"XXXXXXXXXXXXXXXXXXXXXXXXXXXXXXXXXXXXXXXXXXXXXXXXXXXXXXXXXXXXXXXXMMMMMMMMMMMMMMMM",
"XXXXXXXXXXXXXXXXXXXXXXXXXXXXXXXXXXXXXXXXXXXXXXXXXXXXXXXXXXXXXXXXMMMMMMMMMMMMMMMM",
"XXXXXXXXXXXXXXXXXXXXXXXXXXXXXXXXXXXXXXXXXXXXXXXXXXXXXXXXMMMMMMMMMMMMMMMMMMMMMMMM",
"XXXXXXXXXXXXXXXXXXXXXXXXXXXXXXXXXXXXXXXXXXXXXXXXXXXXXXXXMMMMMMMMMMMMMMMMMMMMMMMM",
"XXXXXXXXXXXXXXXXXXXXXXXXXXXXXXXXXXXXXXXXXXXXXXXXXXXXXXXXkMMMMMMMMMMMMMMMMMMMMMMM",
"XXXXXXXXXXXXXXXXXXXXXXXXXXXXX%@@XXXXX$XXXX$XX$XXXXXXXXXXMMMMMMMMMMMMMMMMMMMMMMMM",
"XXXXXXXXXXXXXXXXXXXXXXXXXXXXXXXXXXXXXXXXXXXXXXXXXXX@XXXXqkMMMMMMMMMMMMMMMMMMMMMM",
"XXXXXXXXXXXXXXXXXXXXXXXXXXXXXXXXXXXX.XXXXXXXXXXXXXX%XXXX..jMMMMMMMMMMMMMMMMMMMMM",
"XXXXXXXXXXXXXXXXXXXXXXXXXXXXXXXXXXXXXXX@XX@X$%XXXX$@XXXXq.$MkMMMMMMMMMMMMMMMMMMM",
"XXXXXXXXXXXXXXXXXXXXXXXXXXXXXXXXXXXXXXX$XX%X$%XXXXXXXXXXMjjMMMMMMMMMMMMMMMMMMMMM",
"XXXXXXXXXXXXXXXXXXXXXXXXXXXXXX@XXXXXXXXXXXXXXXXXXXX$$@@$@qMMMMMMMMMMMMMMMMMMMMMM",
"XXXXXXXXXXXXXXXXXXXXXXXXXXXXXX$XXXXXXXX$XXXXXXXXXXOXXXXX qMMMMMMMMMMMMMMMMMMMMMM",
"XXXXXXXXXXXXXXXXXXXXXXXXXXXXXXX@XXXXOXX$XX%XXXXXXXOXXXXX$@MMMMMMMMMMMMMMMMMMMMMM",
"XXXXXXXXXXXXXXXXXXXXXXXXXXXXXXX@XXXX%XXXXX$XX$XXXX$@@@$$@@MMMMMMMMMMMMMMMMMMMMMM",
"XXXXXXXXXXXXXXXXXXXXXXXXXXXXXXXXXXXXXXXXXXXXXXXXXXXXXXXX$@MMMMMMMMMMMMMMMMMMMMMM",
"XXXXXXXXXXXXXXXXXXXXXXXXXXXXXXXXXXXXXXXXXXXXXXXXXXXXXXXXkjMMMMMMMMMMMMMMMMMMMMMM",
"XXXXXXXXXXXXXXXXXXXXXXXXXXXXXXXXXXXXXXXXXXXXXXXXXXXXXXXXMMMMMMMMMMMMMMMMMMMMMMMM",
"XXXXXXXXXXXXXXXXXXXXXXXXXXXXXXXXXXXXXXXXXXXXXXXXXXXXXXXXMMMMMMMMMMMMMMMMMMMMMMMM"
};
