/* XPM */
static char *xpm_[] = {
/* columns rows colors chars-per-pixel */
"80 80 105 2 ",
"   c #493485",
".  c #4A3485",
"X  c #4A3585",
"o  c #493385",
"O  c #4A3485",
"+  c #503A8A",
"@  c #4A3585",
"#  c #5E4997",
"$  c #62499C",
"%  c #624B9B",
"&  c #634A9D",
"*  c #7359A4",
"=  c #4D3887",
"-  c #4F3989",
";  c #4C3685",
":  c #4D3785",
">  c #4C3788",
",  c #634B9C",
"<  c #6A51A1",
"1  c #68509F",
"2  c #745BA4",
"3  c #5C4695",
"4  c #6A52A0",
"5  c #7359A4",
"6  c #654E9D",
"7  c #6E58A3",
"8  c #765DA7",
"9  c #886EB0",
"0  c #765EA6",
"q  c #775DA6",
"w  c #8D74B2",
"e  c #937AB6",
"r  c #937AB6",
"t  c #8F76B4",
"y  c #947AB6",
"u  c #493385",
"i  c #533D8E",
"p  c #543E90",
"a  c #594391",
"s  c #5F4898",
"d  c #62499C",
"f  c #574292",
"g  c #5C4696",
"h  c #634C9C",
"j  c #624A9D",
"k  c #6953A0",
"l  c #705AA4",
"z  c #8066AC",
"x  c #8E75B3",
"c  c #684FA0",
"v  c #6C55A2",
"b  c #745AA5",
"n  c #7D63AA",
"m  c #8B72B2",
"M  c #6952A0",
"N  c #7259A4",
"B  c #765CA5",
"V  c #846BAE",
"C  c #9379B6",
"Z  c #9077B5",
"A  c #9379B6",
"S  c #937AB6",
"D  c #846BAE",
"F  c #8B73B3",
"G  c #886FB0",
"H  c #8D74B3",
"J  c #9379B6",
"K  c #8F77B5",
"L  c #947AB6",
"P  c #9379B6",
"I  c #4C3784",
"U  c #4E3987",
"Y  c #523C8A",
"T  c #6A539F",
"R  c #503B87",
"E  c #4F3A87",
"W  c #4B3685",
"Q  c #5C4695",
"!  c #68509E",
"~  c #735AA4",
"^  c #7C63A9",
"/  c #8067AB",
"(  c #9279B5",
")  c #8F76B3",
"_  c #503B89",
"`  c #654D9E",
"'  c #664D9E",
"]  c #6C55A1",
"[  c #866EAF",
"{  c #6D58A2",
"}  c #6E56A1",
"|  c #886EAF",
" . c #876EAF",
".. c #8F76B4",
"X. c #543F89",
"o. c #57428E",
"O. c #7A61A8",
"+. c #876EAE",
"@. c #513C87",
"#. c #7C63A9",
"$. c #947BB5",
"%. c #644F92",
"&. c #70599F",
"*. c #937AB6",
"=. c None",
/* pixels */
"=.=.=.=.=.=.=.=.=.=.=.=.=.=.=.=.=.=.=.=.=.=.=.=.=.=.=.=.=.=.=.=.=.=.=.=.=.=.=.=.=.=.=.=.=.=.=.=.=.=.=.=.=.=.=.=.=.=.=.=.=.=.=.=.=.=.=.=.=.=.=.=.=.=.=.=.=.=.=.=.",
"=.=.=.=.=.=.=.=.=.=.=.=.=.=.=.=.=.=.=.=.=.=.=.=.=.=.=.=.=.=.=.=.=.=.=.=.=.=.=.=.=.=.=.=.=.=.=.=.=.=.=.=.=.=.=.=.=.=.=.=.=.=.=.=.=.=.=.=.=.=.=.=.=.=.=.=.=.=.=.=.",
"=.=.=.=.=.=.=.=.=.=.=.=.=.=.=.=.=.=.=.=.=.=.=.=.=.=.=.=.=.=.=.=.=.=.=.=.=.=.=.=.=.=.=.=.=.=.=.=.=.=.=.=.=.=.=.=.=.=.=.=.=.=.=.=.=.=.=.=.=.=.=.=.=.=.=.=.=.=.=.=.",
"=.=.=.=.=.=.=.=.=.=.=.=.=.=.=.=.=.=.=.=.=.=.=.=.=.=.=.=.=.=.=.=.=.=.=.=.=.=.=.=.=.=.=.=.=.=.=.=.=.=.=.=.=.=.=.=.=.=.=.=.=.=.=.=.=.=.=.=.=.=.=.=.=.=.=.=.=.=.=.=.",
"=.=.=.=.=.=.=.=.=.=.=.=.=.=.=.=.=.=.=.=.=.=.=.=.=.=.=.=.=.=.=.=.=.=.=.=.=.=.=.=.=.=.=.=.=.=.=.=.=.=.=.=.=.=.=.=.=.=.=.=.=.=.=.=.=.=.=.=.=.=.=.=.=.=.=.=.=.=.=.=.",
"=.=.=.=.=.=.=.=.=.=.=.=.=.=.=.=.=.=.=.=.=.=.=.=.=.=.=.=.=.=.=.=.=.=.=.=.=.=.=.=.=.=.=.=.=.=.=.=.=.=.=.=.=.=.=.=.=.=.=.=.=.=.=.=.=.=.=.=.=.=.=.=.=.=.=.=.=.=.=.=.",
"=.=.=.=.=.=.=.=.=.=.=.=.=.=.=.=.=.=.=.=.=.=.=.=.=.=.=.=.=.=.=.=.=.=.=.=.=.=.=.=.=.=.=.=.=.=.=.=.=.=.=.=.=.=.=.=.=.=.=.=.=.=.=.=.=.=.=.=.=.=.=.=.=.=.=.=.=.=.=.=.",
"=.=.=.=.=.=.=.=.=.=.=.=.=.=.=.=.=.=.=.=.=.=.=.=.=.=.=.=.=.=.=.=.=.=.=.=.=.=.=.=.=.=.=.=.=.=.=.=.=.=.=.=.=.=.=.=.=.=.=.=.=.=.=.=.=.=.=.=.=.=.=.=.=.=.=.=.=.=.=.=.",
"=.=.=.=.=.=.=.=.=.=.=.=.=.=.=.=.=.=.=.=.=.=.=.=.=.=.=.=.=.=.=.=.=.=.=.=.=.=.=.=.=.=.=.=.=.=.=.=.=.=.=.=.=.=.=.=.=.=.=.=.=.=.=.=.=.=.=.=.=.=.=.=.=.=.=.=.=.=.=.=.",
"=.=.=.=.=.=.=.=.=.=.=.=.=.=.=.=.=.=.=.=.=.=.=.=.=.=.=.=.=.=.=.=.=.=.=.=.=.=.=.=.=.=.=.=.=.=.=.=.=.=.=.=.=.=.=.=.=.=.=.=.=.=.=.=.=.=.=.=.=.=.=.=.=.=.=.=.=.=.=.=.",
"=.=.=.=.=.=.=.=.=.=.=.=.=.=.=.=.=.=.=.=.=.=.=.=.=.=.=.=.=.=.=.=.=.=.=.=.=.=.=.=.=.=.=.=.=.=.=.=.=.=.=.=.=.=.=.=.=.=.=.=.=.=.=.=.=.=.=.=.=.=.=.=.=.=.=.=.=.=.=.=.",
"=.=.=.=.=.=.=.=.=.=.=.=.=.=.=.=.=.=.=.=.=.=.=.=.=.=.=.=.=.=.=.=.=.=.=.=.=.=.=.=.=.=.=.=.=.=.=.=.=.=.=.=.=.=.=.=.=.=.=.=.=.=.=.=.=.=.=.=.=.=.=.=.=.=.=.=.=.=.=.=.",
"=.=.=.=.=.=.=.=.=.=.=.=.=.=.=.=.=.=.=.=.=.=.=.=.=.=.=.=.=.=.=.=.=.=.=.=.=.=.=.=.=.=.=.=.=.=.=.=.=.=.=.=.=.=.=.=.=.=.=.=.=.=.=.=.=.=.=.=.=.=.=.=.=.=.=.=.=.=.=.=.",
"=.=.=.=.=.=.=.=.=.=.=.=.=.=.=.=.=.=.=.=.=.=.=.=.=.=.=.=.=.=.=.=.=.=.=.=.=.=.=.=.=.=.=.=.=.=.=.=.=.=.=.=.=.=.=.=.=.=.=.=.=.=.=.=.=.=.=.=.=.=.=.=.=.=.=.=.=.=.=.=.",
"=.=.=.=.=.=.=.=.=.=.=.=.=.=.=.=.=.=.=.=.=.=.=.=.=.=.=.=.=.=.=.=.=.=.=.=.=.=.=.=.=.=.=.=.=.=.=.=.=.=.=.=.=.=.=.=.=.=.=.=.=.=.=.=.=.=.=.=.=.=.=.=.=.=.=.=.=.=.=.=.",
"=.=.=.=.=.=.=.=.=.=.=.=.=.=.=.=.=.=.=.=.=.=.=.=.=.=.=.=.=.=.=.=.=.=.=.=.=.=.=.=.=.=.=.=.=.=.=.=.=.=.=.=.=.=.=.=.=.=.=.=.=.=.=.=.=.=.=.=.=.=.=.=.=.=.=.=.=.=.=.=.",
"=.=.=.=.=.=.=.=.=.=.=.=.=.=.=.=.=.=.=.=.=.=.=.=.=.=.=.=.=.=.=.=.=.=.=.=.=.=.=.=.=.=.=.=.=.=.=.=.=.=.=.=.=.=.=.=.=.=.=.=.=.=.=.=.=.=.=.=.=.=.=.=.=.=.=.=.=.=.=.=.",
"=.=.=.=.=.=.=.=.=.=.=.=.=.=.=.=.=.=.=.=.=.=.=.=.=.=.=.=.=.=.=.=.=.=.=.=.=.=.=.=.=.=.=.=.=.=.=.=.=.=.=.=.=.=.=.=.=.=.=.=.=.=.=.=.=.=.=.=.=.=.=.=.=.=.=.=.=.=.=.=.",
"=.=.=.=.=.=.=.=.=.=.=.=.=.=.=.=.=.=.=.=.=.=.=.=.=.=.=.=.=.=.=.=.=.=.=.=.=.=.=.=.=.=.=.=.=.=.=.=.=.=.=.=.=.=.=.=.=.=.=.=.=.=.=.=.=.=.=.=.=.=.=.=.=.=.=.=.=.=.=.=.",
"=.=.=.=.=.=.=.=.=.=.=.=.=.=.=.=.=.=.=.=.=.=.=.=.=.=.=.=.=.=.=.=.=.=.=.=.=.=.=.=.=.=.=.=.=.=.=.=.=.=.=.=.=.=.=.=.=.=.=.=.=.=.=.=.=.=.=.=.=.=.=.=.=.=.=.=.=.=.=.=.",
"=.=.=.=.=.=.=.=.=.=.=.=.=.=.=.=.=.=.=.=.=.=.=.=.=.=.=.=.=.=.=.=.=.=.=.=.=.=.=.=.=.=.=.=.=.=.=.=.=.=.=.=.=.=.=.=.=.=.=.=.=.=.=.=.=.=.=.=.=.=.=.=.=.=.=.=.=.=.=.=.",
"=.=.=.=.=.=.=.=.=.=.=.=.=.=.=.=.=.=.=.=.=.=.=.=.=.=.=.=.=.=.=.=.=.=.=.=.=.=.=.=.=.=.=.=.=.=.=.=.=.=.=.=.=.=.=.=.=.=.=.=.=.=.=.=.=.=.=.=.=.=.=.=.=.=.=.=.=.=.=.=.",
"=.=.=.=.=.=.=.=.=.=.=.=.=.=.=.=.=.=.=.=.=.=.=.=.=.=.=.&.v B j P J %.=.=.=.=.=.=.=.=.=.=.=.=.=.=.=.=.=.=.=.=.=.=.=.=.=.=.=.=.=.=.=.=.=.=.=.=.=.=.=.=.=.=.=.=.=.=.",
"=.=.=.=.=.=.=.=.=.=.=.=.=.=.=.=.=.=.=.=.=.=.=.=.=.=.=.%.D H G G J %.=.=.=.=.=.=.=.=.=.=.=.=.=.=.=.=.=.=.=.=.=.=.=.=.~ : } } =.=.=.=.=.=.=.=.=.=.=.=.=.=.=.=.=.=.",
"=.=.=.=.=.=.=.=.=.=.=.=.=.=.=.=.=.=.=.=.=.=.=.=.=.=.=.%.G G D G J %.=.=.=.=.=.=.=.=.=.=.=.=.=.=.=.=.=.=.=.=.=.=.=.=.3 c c c c %.=.=.=.=.=.=.=.=.=.=.=.=.=.=.=.=.",
"=.=.=.=.=.=.=.=.=.=.=.=.=.=.=.=.=.=.=.=.=.=.=.=.=.=.=.=., G n D J %.=.=.=.=.=.=.=.=.=.=.=.=.=.=.=.=.=.=.=.=.=.=.=.=.; c c g c u =.=.=.=.=.=.=.=.=.=.=.=.=.=.=.=.",
"=.=.=.=.=.=.=.=.=.=.=.=.=.=.=.=.=.=.=.=.=.=.=.=.=.=.=.=.=.N n G J =.=.=.=.=.=.=.=.=.=.=.=.=.=.=.=.=.=.=.=.=.=.=.=.=.0 c j j c h =.=.=.=.=.=.=.=.=.=.=.=.=.=.=.=.",
"=.=.=.=.=.=.=.=.=.=.=.=.=.=.=.=.=.=.=.=.=.=.=.=.=.=.=.=.=.=._ 9 u =.=.=.=.=.=.=.=.=.=.=.=.=.=.=.=.=.=.=.=.=.=.=.=.=.0 c j j g u =.=.=.=.=.=.=.=.%.=.=.=.=.=.=.=.",
"=.=.=.=.=.=.=.=.=.=.=.=.=.=.=.=.=.=.=.=.=.=.=.=.=.=.=.=.=.=.=.=.=.=.=.=.=.=.=.=.=.=.=.=.=.=.=.=.=.=.=.=.=.=.=.=.=.=.; c g j j S %.=.=.=.=.=.=.=.=.=.=.=.=.=.=.=.",
"=.=.=.=.=.=.=.=.=.=.*.: e L A r 9 &.=.=.=.=.=.=.=.=.%.&.( ) _ =.=.=.=.=.=.=.=.=.=.=.=.@.T u u o i U W =.=.=.=.=.=.=.> n j j g u =.=.=.=.=.=.o.W R I R I W =.=.=.",
"=.=.=.=.=.=.=.=._ P J J J J J J J J A *.=.=.=.=.=.%.=.$.J J J G / =.=.=.=.=.=.=.=.W p b J G b b b b J v W =.=.=.=.=.' J g g j   =.=.=.=.=.W j j c c J n I =.=.=.",
"=.=.=.=.=.=.=.S J J J J J J J J J J J J y =.=.=.=.=.=.#.J J J H J %.=.=.=.=.=.=.- b b b b n v c c c b n n p =.=.=.=.I j j g g u =.=.=.=.%.n j j j c v W =.=.=.=.",
"=.=.=.=.=.=.L J J J J J J J J J J J J H J a =.=.=.=.=.%.D n n n J &.=.=.=.=.%.b n v v b v v b v c c v c c c o =.=.=.> n c j j u =.=.=.=.g c j j j c W =.=.=.=.=.",
"=.=.=.=.=.r J J J J J J J J J J J J J J J J ( =.=.=.=._ D n n n J o.=.=.=.=.o G v b b v b b G J v c c c c c j = =.=.; c c j j   =.=.=.u j j c c j W =.=.=.=.=.=.",
"=.=.=.=.) J J J J J J K $.$.~ a C J J J J J F =.=.=.=._ n n n n J %.=.=.=.X.n b b b H J u R @.W W u c c b c n _ =.=.= c j j j O =.=.3 j j j g n ; =.=.=.=.=.=.=.",
"=.=.=.=.J J J J J J ) =.=.=.=.=.=.| J J J J V u =.=.=.&.D n n n J %.=.=.=.f b b b n n ~ =.=.=.=.=.=.X.c G ; =.=.=.=.= n g j j O =.; j j j j j R =.=.=.=.=.=.=.=.",
"=.=.=.$.J J J J J #.=.=.=.=.=.=.=.=.a J G G G n %.=.=.#.n n n n J %.=.=.W n b n b v X.=.=.%.=.=.=.=.=.X.o.=.=.=.=.=.; c g j j X _ j j j j c ; =.=.=.=.=.=.=.=.=.",
"=.=.=.S J J J J w =.=.=.=.=.=.=.=.=.=.K G G n G ~ =.%.~ n v n n J %.=.=.a G b b v u =.=.=.=.=.=.=.=.=.=.=.=.=.=.=.=.> c g j j j j j j j j N =.=.=.=.=.=.=.=.=.=.",
"=.=.=.J J J J J ( =.=.=.=.=.=.=.=.=.=.a H D J J a =.=.#.n n n n J %.=.=.u b b c b ; =.=.=.=.=.=.=.=.=.=.=.=.=.=.=.=.> n j j j j j j j c j p o.=.=.=.=.=.=.=.=.=.",
"=.=.=.L J J J J #.=.=.=.=.=.=.=.=.=.=.#.H H J J | =.%.~ n n v n G %.=.=.2 b b c b ; =.=.=.=.=.=.=.=.=.=.=.=.=.=.=.=.I j p j j j g g g g g j 3 =.=.=.=.=.=.=.=.=.",
"=.=.=.v b v v b _ =.=.=.=.=.=.=.=.=.=.~ G v v v u =.=.%.D v j j c %.=.=.u g p p g %.=.=.=.=.=.=.=.=.=.=.=.=.=.=.=.=.; j i u u u u u u u u u u W =.=.=.=.=.=.=.=.",
"=.=.=.v v v v v #.=.=.=.=.=.=.=.=.=.=.u n v v v = =.=._ c c j j c =.=.=.X j p i p _ =.=.=.=.=.=.=.=.=.=.=.=.=.=.=.=.U i u u u u u = u u u u u X =.=.=.=.=.=.=.=.",
"=.=.=.n v v v v f =.=.=.=.=.=.=.=.=.&.G v k c j W =.%.W j g g g v o.=.=.; j i i j = =.=.=.=.=.=.=.=.=.=.=.=.=.=.=.=.O j u u u u I =.X u u u u u ; =.=.=.=.=.=.=.",
"=.=.=.J v v v v H ~ =.=.=.=.=.=.=.=.A J j k j p %.=.=.W g g p p j %.=.=.o.i u i p p _ =.=.=.=.=.=.=.=.=.=.=.=.=.=.=.; c u u u . =.=.@.i u u u u u =.=.=.=.=.=.=.",
"=.=.=.k v v v v v v R =.=.%.=.=.=.- j j j g g ; =.%.=.W p p p i j =.=.=.%.p u u u u u %.=.=.=.=.=.=.; .   o.=.=.=.=.; u u u u X =.=.=.X u u u u u = =.=.=.=.=.=.",
"=.=.=.l v v n v v k n i { ~ E : v j g g g g v =.=.=.=.W p u i i j %.=.=.=.; u u u u u u X ; X.o.> i u i u u = %.=.=.; u u u u   =.=.=.=.u u u u u u W =.=.=.=.=.",
"=.=.=.k v k v v v k j j n v g g k g g g j v X.=.=.=.=.X.i u u u u %.=.=.=.=.= i u u u u u u u u u u u u u u j > =.=.> p u u u X =.=.=.=.; u u u u u X =.=.=.=.=.",
"=.=.=.a k k k k j g j j j j g p g g p p p ; =.=.=.=.=.%.u u u u u =.=.=.=.=.=.p u u u u u u u u u u u u u i   =.=.=.I u u u u X =.=.=.=.=.O u u u u u Y =.=.=.=.",
"=.=.=.M j j j g g g g g g f f f p p i j W =.=.=.=.=.=.@.u u u u j o.=.=.=.=.=.=.  p u i u u u i u u u u j > =.=.=.=.; p u u u X =.=.=.=.=._ u u u u u @ =.=.=.=.",
"=.=.=.h j g g g } > j v f f i i p j > %.=.=.=.=.=.=.=.; i p u u i %.=.=.=.=.=.=.=.W O g u u u p u u u X X.=.=.=.=.=.; p u u u . =.=.=.=.=.=.O u u u u u = =.=.=.",
"=.=.=.N f f f f X.=.&.; > X ; ; ; %.=.=.=.=.=.=.=.=.=.=.; @.@.; X.=.=.=.=.=.=.=.=.=.=.X.W > - = ; ; %.=.=.=.=.=.=.=.o.; W ; X.@.=.=.=.=.=.=.o.Y I I I I I =.=.=.",
"=.=.=.h f f i i ; =.=.=.=.=.=.=.=.=.=.=.=.=.=.=.=.=.=.=.=.=.=.=.=.=.=.=.=.=.=.=.=.=.=.=.=.=.=.=.=.=.=.=.=.=.=.=.=.=.=.=.=.=.=.=.=.=.=.=.=.=.=.=.=.=.=.=.=.=.=.=.",
"=.=.=.f f f f i : =.=.=.=.=.=.=.=.=.=.=.=.=.=.=.=.=.=.=.=.=.=.=.=.=.=.=.=.=.=.=.=.=.=.=.=.=.=.=.=.=.=.=.=.=.=.=.=.=.=.=.=.=.=.=.=.=.=.=.=.=.=.=.=.=.=.=.=.=.=.=.",
"=.=.=.6 i u u u ; =.=.=.=.=.=.=.=.=.=.=.=.=.=.=.=.=.=.=.=.=.=.=.=.=.=.=.=.=.=.=.=.=.=.=.=.=.=.=.=.=.=.=.=.=.=.=.=.=.=.=.=.=.=.=.=.=.=.=.=.=.=.=.=.=.=.=.=.=.=.=.",
"=.=.=.O u u u u } =.=.=.=.=.=.=.=.=.=.=.=.=.=.=.=.=.=.=.=.=.=.=.=.=.=.=.=.=.=.=.=.=.=.=.=.=.=.=.=.=.=.=.=.=.=.=.=.=.=.=.=.=.=.=.=.=.=.=.=.=.=.=.=.=.=.=.=.=.=.=.",
"=.=.=.u u u o u W =.=.=.=.=.=.=.=.=.=.=.=.=.=.=.=.=.=.=.=.=.=.=.=.=.=.=.=.=.=.=.=.=.=.=.=.=.=.=.=.=.=.=.=.=.=.=.=.=.=.=.=.=.=.=.=.=.=.=.=.=.=.=.=.=.=.=.=.=.=.=.",
"=.=.=.O u u u u =.=.=.=.=.=.=.=.=.=.=.=.=.=.=.=.=.=.=.=.=.=.=.=.=.=.=.=.=.=.=.=.=.=.=.=.=.=.=.=.=.=.=.=.=.=.=.=.=.=.=.=.=.=.=.=.=.=.=.=.=.=.=.=.=.=.=.=.=.=.=.=.",
"=.=.=.@ u u u } =.=.=.=.=.=.=.=.=.=.=.=.=.=.=.=.=.=.=.=.=.=.=.=.=.=.=.=.=.=.=.=.=.=.=.=.=.=.=.=.=.=.=.=.=.=.=.=.=.=.=.=.=.=.=.=.=.=.=.=.=.=.=.=.=.=.=.=.=.=.=.=.",
"=.=.=.=.=.=.=.=.=.=.=.=.=.=.=.=.=.=.=.=.=.=.=.=.=.=.=.=.=.=.=.=.=.=.=.=.=.=.=.=.=.=.=.=.=.=.=.=.=.=.=.=.=.=.=.=.=.=.=.=.=.=.=.=.=.=.=.=.=.=.=.=.=.=.=.=.=.=.=.=.",
"=.=.=.=.=.=.=.=.=.=.=.=.=.=.=.=.=.=.=.=.=.=.=.=.=.=.=.=.=.=.=.=.=.=.=.=.=.=.=.=.=.=.=.=.=.=.=.=.=.=.=.=.=.=.=.=.=.=.=.=.=.=.=.=.=.=.=.=.=.=.=.=.=.=.=.=.=.=.=.=.",
"=.=.=.=.=.=.=.=.=.=.=.=.=.=.=.=.=.=.=.=.=.=.=.=.=.=.=.=.=.=.=.=.=.=.=.=.=.=.=.=.=.=.=.=.=.=.=.=.=.=.=.=.=.=.=.=.=.=.=.=.=.=.=.=.=.=.=.=.=.=.=.=.=.=.=.=.=.=.=.=.",
"=.=.=.=.=.=.=.=.=.=.=.=.=.=.=.=.=.=.=.=.=.=.=.=.=.=.=.=.=.=.=.=.=.=.=.=.=.=.=.=.=.=.=.=.=.=.=.=.=.=.=.=.=.=.=.=.=.=.=.=.=.=.=.=.=.=.=.=.=.=.=.=.=.=.=.=.=.=.=.=.",
"=.=.=.=.=.=.=.=.=.=.=.=.=.=.=.=.=.=.=.=.=.=.=.=.=.=.=.=.=.=.=.=.=.=.=.=.=.=.=.=.=.=.=.=.=.=.=.=.=.=.=.=.=.=.=.=.=.=.=.=.=.=.=.=.=.=.=.=.=.=.=.=.=.=.=.=.=.=.=.=.",
"=.=.=.=.=.=.=.=.=.=.=.=.=.=.=.=.=.=.=.=.=.=.=.=.=.=.=.=.=.=.=.=.=.=.=.=.=.=.=.=.=.=.=.=.=.=.=.=.=.=.=.=.=.=.=.=.=.=.=.=.=.=.=.=.=.=.=.=.=.=.=.=.=.=.=.=.=.=.=.=.",
"=.=.=.=.=.=.=.=.=.=.=.=.=.=.=.=.=.=.=.=.=.=.=.=.=.=.=.=.=.=.=.=.=.=.=.=.=.=.=.=.=.=.=.=.=.=.=.=.=.=.=.=.=.=.=.=.=.=.=.=.=.=.=.=.=.=.=.=.=.=.=.=.=.=.=.=.=.=.=.=.",
"=.=.=.=.=.=.=.=.=.=.=.=.=.=.=.=.=.=.=.=.=.=.=.=.=.=.=.=.=.=.=.=.=.=.=.=.=.=.=.=.=.=.=.=.=.=.=.=.=.=.=.=.=.=.=.=.=.=.=.=.=.=.=.=.=.=.=.=.=.=.=.=.=.=.=.=.=.=.=.=.",
"=.=.=.=.=.=.=.=.=.=.=.=.=.=.=.=.=.=.=.=.=.=.=.=.=.=.=.=.=.=.=.=.=.=.=.=.=.=.=.=.=.=.=.=.=.=.=.=.=.=.=.=.=.=.=.=.=.=.=.=.=.=.=.=.=.=.=.=.=.=.=.=.=.=.=.=.=.=.=.=.",
"=.=.=.=.=.=.=.=.=.=.=.=.=.=.=.=.=.=.=.=.=.=.=.=.=.=.=.=.=.=.=.=.=.=.=.=.=.=.=.=.=.=.=.=.=.=.=.=.=.=.=.=.=.=.=.=.=.=.=.=.=.=.=.=.=.=.=.=.=.=.=.=.=.=.=.=.=.=.=.=.",
"=.=.=.=.=.=.=.=.=.=.=.=.=.=.=.=.=.=.=.=.=.=.=.=.=.=.=.=.=.=.=.=.=.=.=.=.=.=.=.=.=.=.=.=.=.=.=.=.=.=.=.=.=.=.=.=.=.=.=.=.=.=.=.=.=.=.=.=.=.=.=.=.=.=.=.=.=.=.=.=.",
"=.=.=.=.=.=.=.=.=.=.=.=.=.=.=.=.=.=.=.=.=.=.=.=.=.=.=.=.=.=.=.=.=.=.=.=.=.=.=.=.=.=.=.=.=.=.=.=.=.=.=.=.=.=.=.=.=.=.=.=.=.=.=.=.=.=.=.=.=.=.=.=.=.=.=.=.=.=.=.=.",
"=.=.=.=.=.=.=.=.=.=.=.=.=.=.=.=.=.=.=.=.=.=.=.=.=.=.=.=.=.=.=.=.=.=.=.=.=.=.=.=.=.=.=.=.=.=.=.=.=.=.=.=.=.=.=.=.=.=.=.=.=.=.=.=.=.=.=.=.=.=.=.=.=.=.=.=.=.=.=.=.",
"=.=.=.=.=.=.=.=.=.=.=.=.=.=.=.=.=.=.=.=.=.=.=.=.=.=.=.=.=.=.=.=.=.=.=.=.=.=.=.=.=.=.=.=.=.=.=.=.=.=.=.=.=.=.=.=.=.=.=.=.=.=.=.=.=.=.=.=.=.=.=.=.=.=.=.=.=.=.=.=.",
"=.=.=.=.=.=.=.=.=.=.=.=.=.=.=.=.=.=.=.=.=.=.=.=.=.=.=.=.=.=.=.=.=.=.=.=.=.=.=.=.=.=.=.=.=.=.=.=.=.=.=.=.=.=.=.=.=.=.=.=.=.=.=.=.=.=.=.=.=.=.=.=.=.=.=.=.=.=.=.=.",
"=.=.=.=.=.=.=.=.=.=.=.=.=.=.=.=.=.=.=.=.=.=.=.=.=.=.=.=.=.=.=.=.=.=.=.=.=.=.=.=.=.=.=.=.=.=.=.=.=.=.=.=.=.=.=.=.=.=.=.=.=.=.=.=.=.=.=.=.=.=.=.=.=.=.=.=.=.=.=.=.",
"=.=.=.=.=.=.=.=.=.=.=.=.=.=.=.=.=.=.=.=.=.=.=.=.=.=.=.=.=.=.=.=.=.=.=.=.=.=.=.=.=.=.=.=.=.=.=.=.=.=.=.=.=.=.=.=.=.=.=.=.=.=.=.=.=.=.=.=.=.=.=.=.=.=.=.=.=.=.=.=.",
"=.=.=.=.=.=.=.=.=.=.=.=.=.=.=.=.=.=.=.=.=.=.=.=.=.=.=.=.=.=.=.=.=.=.=.=.=.=.=.=.=.=.=.=.=.=.=.=.=.=.=.=.=.=.=.=.=.=.=.=.=.=.=.=.=.=.=.=.=.=.=.=.=.=.=.=.=.=.=.=.",
"=.=.=.=.=.=.=.=.=.=.=.=.=.=.=.=.=.=.=.=.=.=.=.=.=.=.=.=.=.=.=.=.=.=.=.=.=.=.=.=.=.=.=.=.=.=.=.=.=.=.=.=.=.=.=.=.=.=.=.=.=.=.=.=.=.=.=.=.=.=.=.=.=.=.=.=.=.=.=.=.",
"=.=.=.=.=.=.=.=.=.=.=.=.=.=.=.=.=.=.=.=.=.=.=.=.=.=.=.=.=.=.=.=.=.=.=.=.=.=.=.=.=.=.=.=.=.=.=.=.=.=.=.=.=.=.=.=.=.=.=.=.=.=.=.=.=.=.=.=.=.=.=.=.=.=.=.=.=.=.=.=.",
"=.=.=.=.=.=.=.=.=.=.=.=.=.=.=.=.=.=.=.=.=.=.=.=.=.=.=.=.=.=.=.=.=.=.=.=.=.=.=.=.=.=.=.=.=.=.=.=.=.=.=.=.=.=.=.=.=.=.=.=.=.=.=.=.=.=.=.=.=.=.=.=.=.=.=.=.=.=.=.=.",
"=.=.=.=.=.=.=.=.=.=.=.=.=.=.=.=.=.=.=.=.=.=.=.=.=.=.=.=.=.=.=.=.=.=.=.=.=.=.=.=.=.=.=.=.=.=.=.=.=.=.=.=.=.=.=.=.=.=.=.=.=.=.=.=.=.=.=.=.=.=.=.=.=.=.=.=.=.=.=.=."
};
