/* XPM */
static char *xpm_[] = {
/* columns rows colors chars-per-pixel */
"80 80 202 2 ",
"   c #050605",
".  c #071807",
"X  c #0D1D10",
"o  c #161815",
"O  c #181B0D",
"+  c #072509",
"@  c #13270D",
"#  c #172B14",
"$  c #0D3813",
"%  c #1C3716",
"&  c #1A3115",
"*  c #152C12",
"=  c #20281C",
"-  c #223B1C",
";  c #264420",
":  c #242B23",
">  c #29392B",
",  c #343333",
"<  c #11250C",
"1  c #272727",
"2  c #193014",
"3  c #1F3D19",
"4  c #172C11",
"5  c #1C3616",
"6  c #254C21",
"7  c #13270C",
"8  c #283E1E",
"9  c #3B403B",
"0  c #42383F",
"q  c #084816",
"w  c #144718",
"e  c #075619",
"r  c #25421F",
"t  c #264F22",
"y  c #1D5826",
"u  c #2B4927",
"i  c #304E2B",
"p  c #265627",
"a  c #34572F",
"s  c #354636",
"d  c #2D5836",
"f  c #395A36",
"g  c #265423",
"h  c #246528",
"j  c #0B7424",
"k  c #16792A",
"l  c #236929",
"z  c #22752C",
"x  c #276635",
"c  c #3C6338",
"v  c #227233",
"b  c #16A638",
"n  c #405F3B",
"m  c #41683E",
"M  c #3D5941",
"N  c #347C43",
"B  c #484848",
"V  c #455C47",
"C  c #505F4E",
"Z  c #595B59",
"A  c #535654",
"S  c #656565",
"D  c #486B47",
"F  c #4D754C",
"G  c #556D58",
"H  c #4E7952",
"J  c #577959",
"K  c #537554",
"L  c #5F7A62",
"P  c #6B6A6B",
"I  c #667C69",
"U  c #737473",
"Y  c #888888",
"T  c #4F4F4F",
"R  c #5F5F5F",
"E  c #8F8B8F",
"W  c #11220B",
"Q  c #000000",
"!  c #142A0F",
"~  c #1F2A1D",
"^  c #1A3514",
"/  c #274820",
"(  c #1A3414",
")  c #27431F",
"_  c #213E1B",
"`  c #363835",
"'  c #121212",
"]  c #152B0F",
"[  c #1D3618",
"{  c #0A0B0A",
"}  c #162B11",
"|  c #253119",
" . c #1F241A",
".. c #283E1E",
"X. c #283F1E",
"o. c #144C1B",
"O. c #635E62",
"+. c #495A4A",
"@. c #19BA40",
"#. c #18AF3C",
"$. c #15A236",
"%. c #077A22",
"&. c #15AE3A",
"*. c #5B5B5B",
"=. c #D1D1D1",
"-. c #0A8628",
";. c #16842E",
":. c #0E952E",
">. c #1B8D33",
",. c #1D9736",
"<. c #228835",
"1. c #299442",
"2. c #19AC3B",
"3. c #0BB734",
"4. c #19B73E",
"5. c #18BC3F",
"6. c #17B53C",
"7. c #17AA3A",
"8. c #18B33D",
"9. c #14BA3B",
"0. c #1ABD41",
"q. c #25BD49",
"w. c #2FBE51",
"e. c #59845B",
"r. c #4D8B59",
"t. c #5E8461",
"y. c #648966",
"u. c #6A966D",
"i. c #6F8172",
"p. c #78857A",
"a. c #6F9772",
"s. c #749C78",
"d. c #70A273",
"f. c #78A57C",
"g. c #6DC481",
"h. c #8E9B90",
"j. c #1AC643",
"k. c #1ED047",
"l. c #29C14D",
"z. c #35C357",
"x. c #49C567",
"c. c #57C973",
"v. c #63CB7B",
"b. c #19BA3F",
"n. c #7FA884",
"m. c #6ECE85",
"M. c #868886",
"N. c #8B928B",
"B. c #989998",
"V. c #9AA59C",
"C. c #84B288",
"Z. c #AFD6B8",
"A. c #A8A9A8",
"S. c #ABB3AC",
"D. c #B7B6B7",
"F. c #BCBBBC",
"G. c #D6D6D6",
"H. c #D9DAD9",
"J. c #93CF99",
"K. c #94D7A4",
"L. c #C2BDC1",
"P. c #BBDFC4",
"I. c #C9C9C9",
"U. c #CFD0CF",
"Y. c #D9D9D9",
"T. c #EFEFEF",
"R. c #CEE1D2",
"E. c #DFE0DF",
"W. c #E6E5E5",
"Q. c #F5F5F5",
"!. c #BDBDBD",
"~. c #041003",
"^. c #183112",
"/. c #28391C",
"(. c #193013",
"). c #29381C",
"_. c #232419",
"`. c #52384C",
"'. c #595B5A",
"]. c #7A7A7A",
"[. c #1C2710",
"{. c #23391D",
"}. c #202716",
"|. c #263F1F",
" X c #3F5344",
".X c #2C9043",
"XX c #727173",
"oX c #9E9C9E",
"OX c #17AB3A",
"+X c #45B860",
"@X c #6ED386",
"#X c #12BF3B",
"$X c #958390",
"%X c #89BB95",
"&X c #E3D9E0",
"*X c #1E2814",
"=X c #2C4A26",
"-X c #202C16",
";X c #467651",
":X c #2F3122",
">X c None",
",X c #84C092",
/* pixels */
">X>X>X>X>X>X>X>X>X>X>X>X>X>X>X>X>X>X>X>X>X>X>X>X>X>X>X>X>X>X>X>X>X>X>X>X>X>X>X>X>X>X>X>X>X>X>X>X>X>X>X>X>X>X>X>X>X>X>X>X>X>X>X>X>X>X>X>X>X>X>X>X>X>X>X>X>X>X>X>X",
">X>X>X>X>X>X>X>X>X>X>X>X>X>X>X>X>X>X>X>X>X>X>X>X>X>X>X>X>X>X>X>X>X>X>X>X>X>X>X>X>X>X>X>X>X>X>X>X>X>X>X>X>X>X>X>X>X>X>X>X>X>X>X>X>X>X>X>X>X>X>X>X>X>X>X>X>X>X>X>X",
">X>X>X>X>X>X>X>X>X>X>X>X>X>X>X>X>X>X>X>X>X>X>X>X>X>X>X>X>X>X>X>X>X>X>X>X>X>X>X>X>X>X>X>X>X>X>X>X>X>X>X>X>X>X>X>X>X>X>X>X>X>X>X>X>X>X>X>X>X>X>X>X>X>X>X>X>X>X>X>X",
">X>X>X>X>X>X>X>X>X>X>X>X>X>X>X>X>X>X>X>X>X>X>X>X>X>X>X>X>X>X>X>X>X>X>X>X>X>X>X>X>X>X>X>X>X>X>X>X>X>X>X>X>X>X>X>X>X>X>X>X>X>X>X>X>X>X>X>X>X>X>X>X>X>X>X>X>X>X>X>X",
">X>X>X>X>X>X>X>X>X>X>X>X>X>X>X>X>X>X>X>X>X>X>X>X>X>X>X>X>X>X>X>X>X>X>X>X>X>X>X>X>X>X>X>X>X>X>X>X>X>X>X>X>X>X>X>X>X>X>X>X>X>X>X>X>X>X>X>X>X>X>X>X>X>X>X>X>X>X>X>X",
">X>X>X>X>X>X>X>X>X>X>X>X>X>X>X>X>X>X>X>X>X>X>X>X>X>X>X>X>X>X>X>X>X>X>X>X>X>X>X>X>X>X>X>X>X>X>X>X>X>X>X>X>X>X>X>X>X>X>X>X>X>X>X>X>X>X>X>X>X>X>X>X>X>X>X>X>X>X>X>X",
">X>X>X>X>X>X>X>X>X>X>X>X>X>X>X>X>X>X>X>X>X>X>X>X>X>X>X>X>X>X>X>X>X>X>X>X>X>X>X>X>X>X>X>X>X>X>X>X>X>X>X>X>X>X>X>X>X>X>X>X>X>X>X>X>X>X>X>X>X>X>X>X>X>X>X>X>X>X>X>X",
">X>X>X>X>X>X>X>X>X>X>X>X>X>X>X>X>X>X>X>X>X>X>X>X>X>X>X>X>X>X>X>X>X>X>X>X>X>X>X>X>X>X>X>X>X>X>X>X>X>X>X>X>X>X>X>X>X>X>X>X>X>X>X>X>X>X>X>X>X>X>X>X>X>X>X>X>X>X>X>X",
">X>X>X>X>X>X>X>X>X>X>X>X>X>X>X>X>X>X>X>X>X>X>X>X>X>X>X>X>X>X>X>X>X>X>X>X>X>X>X>X>X>X>X>X>X>X>X>X>X>X>X>X>X>X>X>X>X>X>X>X>X>X>X>X>X>X>X>X>X>X>X>X>X>X>X>X>X>X>X>X",
">X>X>X>X>X>X>X>X>X>X>X>X>X>X>X>X>X>X>X>X>X>X>X>X>X>X>X>X>X>X>X>X>X>X>X>X>X>X>X>X>X>X>X>X>X>X>X>X>X>X>X>X>X>X>X>X>X>X>X>X>X>X>X>X>X>X>X>X>X>X>X>X>X>X>X>X>X>X>X>X",
">X>X>X>X>X>X>X>X>X>X>X>X>X>X>X>X>X>X>X>X>X>X>X>X>X>X>X>X>X>X>X>X>X>X>X>X>X>X>X>X>X>X>X>X>X>X>X>X>X>X>X>X>X>X>X>X>X>X>X>X>X>X>X>X>X>X>X>X>X>X>X>X>X>X>X>X>X>X>X>X",
">X>X>X>X>X>X>X>X>X>X>X>X>X>X>X>X>X>X>X>X>X>X>X>X>X>X>X>X>X>X>X>X>X>X>X>X>X>X>X>X>X>X>X>X>X>X>X>X>X>X>X>X>X>X>X>X>X>X>X>X>X>X>X>X>X>X>X>X>X>X>X>X>X>X>X>X>X>X>X>X",
">X>X>X>X>X>X>X>X>X>X>X>X>X>X>X>X>X>X>X>X>X>X>X>X>X>X>X>X>X>X>X>X>X>X>X>X>X>X>X>X>X>X>X>X>X>X>X>X>X>X>X>X>X>X>X>X>X>X>X>X>X>X>X>X>X>X>X>X>X>X>X>X>X>X>X>X>X>X>X>X",
">X>X>X>X>X>X>X>X>X>X>X>X>X>X>X>X>X>X>X>X>X>X>X>X>X>X>X>X>X>X>X>X>X>X>X>X>X>X>X>X>X>X>X>X>X>X>X>X>X>X>X>X>X>X>X>X>X>X>X>X>X>X>X>X>X>X>X>X>X>X>X>X>X>X>X>X>X>X>X>X",
">X>X>X>X>X>X>X>X>X>X>X>X>X>X>X>X>X>X>X>X>X>X>X>X>X>X>X>X>X>X>X>X>X>X>X>X>X>X>X>X>X>X>X>X>X>X>X>X>X>X>X>X>X>X>X>X>X>X>X>X>X>X>X>X>X>X>X>X>X>X>X>X>X>X>X>X>X>X>X>X",
">X>X>X>X>X>X>X>X>X>X>X>X>X>X>X>X>X>X>X>X>X>X>X>X>X>X>X>X>X>X>X>X>X>X>X>X>X>X>X>X>X>X>X>X>X>X>X>X>X>X>X>X>X>X>X>X>X>X>X>X>X>X>X>X>X>X>X>X>X>X>X>X>X>X>X>X>X>X>X>X",
">X>X>X>X>X>X>X>X>X>X>X>X>X>X>X>X>X>X>X>X>X>X>X>X>X>X>X>X>X>X>X>X>X>X>X>X>X>X>X>X>X>X>X>X>X>X>X>X>X>X>X>X>X>X>X>X>X>X>X>X>X>X>X>X>X>X>X>X>X>X>X>X>X>X>X>X>X>X>X>X",
">X>X>X>X>X>X>X>X>X>X>X>X>X>X>X>X>X>X>X>X>X>X>X>X>X>X>X>X>X>X>X>X>X>X>X>X>X>X>X>X>X>X>X>X>X>X>X>X>X>X>X>X>X>X>X>X>X>X>X>X>X>X>X>X>X>X>X>X>X>X>X>X>X>X>X>X>X>X>X>X",
">X>X>X>X>X>X>X>X>X>X>X>X>X>X>X>X>X>X>X>X>X>X>X>X>X>X>X>X>X>X>X>X>X>X>X>X>X>X>X>X>X>X>X>X>X>X>X>X>X>X>X>X>X>X>X>X>X>X>X>X>X>X>X>X>X>X>X>X>X>X>X>X>X>X>X>X>X>X>X>X",
">X>X>X>X>X>X>X>X>X>X>X>X>X>X>X>X>X>X>X>X>X>X>X>X>X>X>X>X>X>X>X>X>X>X>X>X>X>X>X>X>X>X>X>X>X>X>X>X>X>X>X>X>X>X>X>X>X>X>X>X>X>X>X>X>X>X>X>X>X>X>X>X>X>X>X>X>X>X>X>X",
">X>X>X>X>X>X>X>X>X>X>X>X>X>X>X>X>X>X>X>X>X>X>X>X>X>X>X>X>X>X>X>X>X>X>X>X>X>X>X>X>X>X>X>X>X>X>X>X>X>X>X>X>X>X>X>X>X>X>X>X>X>X>X>X>X>X>X>X>X>X>X>X>X>X>X>X>X>X>X>X",
">X>X>X>X>X>X>X>X>X>X>X>X>X>X>X>X>X>X>X>X>X>X>X>X>X>X>X>X>X>X>X>X>X>X>X>X>X>X>X>X>X>X>X>X>X>X>X>X>X>X>X>X>X>X>X>X>X>X>X>X>X>X>X>X>X>X>X>X>X>X>X>X>X>X>X>X>X>X>X>X",
">X>X>X>X>X>X>X>X>X>X>X>X>X>X>X>X>X>X>X>X>X@ r % *X>X>X>X>X>X>X>X>X>X>X>X>X>X>X>X>X>X>X>X>X>X>X>X>X>X>X>X>X>X>X>X>X>X>X>X>X>X>X>X>X>X>X>X>X>X>X>X>X>X>X>X>X>X>X>X",
">X>X>X>X>X>X>X>X>X>X>X>X>X>X>X>X>X>X>X[.t D u.y.m (.>X>X>X>X>X>X>X>X:X~.~.-X>X>X>X>X>X>X>X>X>X>X>X>X>X>X>X>X>X>X>X>X>X>X>X>X>X>X>X>X>X>X>X>X>X>X>X>X>X>X>X>X>X>X",
">X>X>X>X>X>X>X>X>X>X>X>X>X>X>X>X>X>X(.g F y.% # a.d -X>X>X>X>X>X>X^.; c F m 4 }.>X>X>X>X>X>X>X>X>X>X>X>X>X>X>X>X>X>X>X>X>X>X>X>X>X>X>X>X>X>X>X>X>X>X>X>X>X>X>X>X",
">X>X>X>X>X~.} } ~.-X>X>X>X>X>X>X>X}.% r.y.. 4.j o s.5 >X>X>X>X>X-Xp D y.s K y.m ! -X>X>X>X>X>X>X>X>X>X>X>X>X>X>X>X>X>X>X>X>X>X>X>X>X>X>X>X>X>X>X>X>X>X>X>X>X>X>X",
">X>X>X>X( r D K D f r } -X>X>X>X}.3 m u.. 5.k.k.+ V e.{ >X>X>X>X3 i u.  q :.l J y.a { >X>X>X>X>X>X>X>X>X>X>X>X>X>X>X>X>X>X>X>X>X>X>X>X>X>X>X>X>X>X>X>X>X>X>X>X>X",
">X>X>X} - J V : u m y.e.a X.>X>X- c a.@ 5.j.4.l.2.  d.a >X>X>X~.t e.m . 0.k.4.:.x y.e.2 }.>X>X>X>X>X>X>X>X>X>X>X>X>X>X>X>X>X>X>X>X>X>X>X>X>X>X>X>X>X>X>X>X>X>X>X",
">X>X>X& f L F.F.P ,   : u.f ' 3 a a.@ :.k.4.4.4.j.e : u.( >X>X5 i s.- k j.5.0.j.5.j D y.c ~.>X>X>X>X>X>X>X>X>X>X>X>X>X>X>X>X>X>X>X>X>X>X>X>X>X>X>X>X>X>X>X>X>X>X",
">X>X>X& f J I.E.W.W.H.o # a.; p s.& :.k.4.0.j.4.0.4.. J c -X}.r e.D $ 0.0.0.0.0.0.j.:.y y.F ( >X>X>X>X>X>X>X>X>X>X>X>X>X>X>X>X>X>X>X>X>X>X>X>X>X>X>X>X>X>X>X>X>X",
">X>X>X% f L D.T.U.T.W.S > y.u d.> -.l.4.j.j.j.j.0.k.k o d.2 2 p d.- k j.0.0.5.0.0.5.0.0.$ D J ( >X>X>X>X>X>X>X>X>X>X>X>X>X>X>X>X>X>X>X>X>X>X>X>X>X>X>X>X>X>X>X>X",
">X>X>X& f J S.Y.U.Y.T.B : t.s., &.k.4.j.j.4.4.j.j.0.k.+ D e.3 y.D w 0.0.0.4.0.0.5.0.0.,.* , y.H 7 >X>X>X>X>X>X>X>X>X>X>X>X>X>X>X>X>X>X>X>X>X>X>X>X>X>X>X>X>X>X>X",
">X>X>X5 u J F.E.T.Y.Y.B oXm.N @.k.4.0.0.0.j.0.j.0.j.j.,.  u.c a.- ;.j.0.0.0.0.4.0.0.6.%.S T.L.G J 7 >X>X>X>X>X>X>X>X>X>X>X>X>X>X>X>X>X>X>X>X>X>X>X>X>X>X>X>X>X>X",
">X>X>X[ u L F.E.T.Y.T.$X].B &.q.4.0.0.j.0.0.0.0.j.j.4.k.w > J.f w 4.0.0.0.4.0.4.0.0.~.{.Y Y.W.D.G H 4 >X>X>X>X>X>X>X>X>X>X>X>X>X>X>X>X>X>X>X>X>X>X>X>X>X>X>X>X>X",
">X>X>X( ; J !.Y.T.Y.U.$X9 q 5.q.4.j.0.0.0.0.j.0.4.j.0.j.4.. D > >.j.0.0.0.0.0.4.0.%.>XB A.W.U.W.S.G e.2 >X>X>X>X>X>X>X>X>X>X>X>X>X>X>X>X>X>X>X>X>X>X>X>X>X>X>X>X",
">X>X>X}.- H n.E.T.E.P.0 > 0.q.q.0.0.0.0.0.0.0.0.j.0.j.j.l.k < y 4.0.0.4.4.4.4.4.b.>X'.P T.E.Y.U.W.A.s y.3 -X>X>X>X>X>X>X>X>X>X>X>X>X>X>X[.i l h a }.>X>X>X>X>X>X",
">X>X>X}.: H p.Y.T.E.I.T n.g.x.q.4.3.l.l.j.4.j.0.4.j.l.j.0.j.g 8.j.4.0.0.0.4.0.-.>X>XT A.W.Y.T.W.I.I t.t.; ' >X>X>X>X>X>X>X>X>X>X>X>X:X8 z 4.j.j.,.} >X>X>X>X>X>X",
">X>X>X}.$ H I T.T.E.L.d %XA x.2.l.x.l.0.4.0.4.l.z.3.j.0.0.j.9.0.j.0.0.0.4.0.j.>X>XXXU U.Y.T.W.S.J f.e.% [.>X>X>X>X>X>X>X>X>X>X>X>X_.l ,.j.0.0.j.,.} >X>X>X>X>X>X",
">X>X>X~.$ K I U.Y.E.D.O.Q Q T C v.K.v.c.l.j.4.z.K.l.0.0.0.0.j.4.4.0.0.3.k.k.[.>X>XT B.W.Y.W.B.H n.n & }.>X>X(.| O :X>X>X>X>X>X>X(.<.0.j.j.j.0.j.,.O >X>X>X>X>X>X",
">X>X>X>Xo.M I L.Y.E.D.oXQ Q Q Q V.R.W.W.P.z.3.0.x.z.0.0.0.j.4.j.0.0.j.j.k..X>X>X-XP I.W.Y.p.e.f.i < -X>X>X}.1.2.,.l :X>X>X>X>X>X& 5.j.j.,.4.0.j.,.).>X>X>X>X>X>X",
">X>X>X>X/ M t.S.N.N.N.*.Q Q Q Q >X'.Y F.Z.g.x.w.0.4.0.4.0.4.j.4.4.0.3.0.l >X>X>XM N.E.U.I y.a.t & >X>X>X>X[.>.j.k.z >X>X>X>X>X>Xw q.0.x u 0.0.j.+XQ Q Q Q Q Q Q ",
">X>X>X>X# c t.A.N.N.N.M.Q Q B. X>X,X1 ,Xr.z.q.4.0.0.0.0.4.0.4.4.0.4.j.;.>X>X>X>X{.*.N.i.a.y.% { >X>X>X>X>X}.>.j.l.z ~.>X>X>X>X>X=XN ~ >X^ 0.j.j.r.Q Q Q Q Q Q Q ",
">X>X>X>X( u L B.N.N.Y A Q A S ` >XB.I.M.Q Q ;.2.j.0.0.0.0.4.4.0.0.0.6.>X>X>X>XR M.M.M n.H * ~.>X>X>X>X>X>X[.<.j.j.l >X>X>X>X>X>X>X:X>X>X3 2.q.j.,.=XQ Q Q Q Q Q ",
">X>X>X>X} u H V.N.N.Y S R P U ' >XA.I.N.Q Q Q ~.7.9.0.0.4.0.0.4.4.j.k.7.=X>X` B.D.E.C.e.% }.>X>X>X:X}.*X>XO <.j.j.l ~.:X}.}.:X>X>X>X>X>X%.w.0.j.N * Q Q Q Q Q Q ",
">X>X>X>X=Xu J M.P P P P Z A Q Q Q T P C Q Q Q Q >Xj.j.0.0.2.0.0.4.4.4.4.2.%.}.` B.V.n.d }.>X>X>X:Xa <.<.<.z ,.j.j.>.z <.1.<.8 >X>X>X>X>X> 2.2.w.1.! Q Q Q Q Q Q ",
">X>X>X>X=Xg H p.P P P P Z Q Q Q Q T P ` Q Q Q Q e 0.0.0.2.0.0.0.4.4.4.5.4.l.7.%.+.C u.4 >X>X>X>X_.<.j.0.j.j.j.j.0.j.j.j.l.k.l >X>X>X:X>X.X2.2.1.,.[.Q Q Q Q Q Q ",
">X>X>X>X}.% H i.P P P P Z Z Q Q Q B N.> Q Q Q Q 0.2.2.0.0.0.0.6.4.0.0.4.4.5.4.4.1.M e.( >X>X>X>X~.<.j.j.j.j.j.0.0.j.j.j.k.l.l >X>X>X>X>X+Xx.,.,.+XQ Q Q Q Q Q Q ",
">X>X>X>X-X% F I P P P S Z Z R Q Q Q }.Q Q Q Q +X2.2.0.2.0.2.0.} $.j.5.4.4.4.5.5.j.t.e.} >X>X>X>X>Xr z z z l ,.j.j.<.l l z l 8 >X>X>X>X:X+Xk.,.N r.Q Q Q Q Q Q Q ",
">X>X>X>X-X% D I L.Y.U A Y.Y.S.U _.>X>X>X>X-X2.5.4.4.5.0.0.0.x # ~.#.4.5.5.5.5.4.z s.n }.>X>X>X>X>X>X:X*X:XO 1.4.0.<.[.:X*X*X>X>X>X>X>X>Xp l.0.0.,.^.>X>XQ Q Q Q ",
">X>X>X>X>X& f L D.Y.U o N.E.W.F.` >X_.>X>X1.4.2.4.4.4.4.0.,.> n.V ~.#.5.5.2.4.-.G e.< >X>X>X>X>X>X>X>X>X>X(.<.4.2.<.:X>X>X>X>X>X>X>X>X>X3 4.0.j.,.(.>X>XQ Q Q Q ",
">X>X>X>X>X4 a J S.Y.U o = I.I.C = D y.> w 2.2.2.4.4.4.2.0.y L H e.D { &.5.5.5.f i.< ~.>X>X>X>X>X>X>X>X>X>X[.<.j.4.<.>X>X>X>X>X>X>X% 7 O t 2.q.j.<.r 6 % Q Q Q Q ",
">X>X>X>X>X7 i K A.Y.B . K p.G J u.C.y.M 2.2.q.2.2.2.2.4.>.s u.# @ t.K ' v 3.N f.i   >X>X>X>X>X>X>X>X>X>X>X[.,.j.0.<.:X>X>X>X>X>X).;.<.2.2.4.0.j.2.,.2.,.6 Q Q Q ",
">X>X>X>X>X! u J N.U s e.u.u.s.t.i + J s.H 1.,.5.4.5.0.0.> I M W @ * J a.G r.n.D O >X>X>X>X>X>X>X>X>X>X>X>X_.m ,.,.n :X>X>X>X>X>X%.z.l.0.j.j.j.j.4.2.1.1.1.Q Q Q ",
">X>X>X>X>X} - J y.J f.e.& & - + } # * D n.s.J N ,.2.0.b.G y.# >X>X% # D f.n.D @ >X>X>X>X>X>X>X>X>X>X>X>X>X>X>XO _.*X>X>X>X>X:X>XX.<.0.4.2.2.q.0.4.2.<.<.g Q Q Q ",
">X>X>X>X>X:Xr g J t.f * (.' { -X>X>X7 & ; D a.n.n.t.r.n.n.t ~.>X>X-X# # u ; & -X>X>X>X>X>X>X>X>X>X>X>X>X>X>X>X>X>X>X>X>X>X>X>X>X:X- r %.& & 3 3 6 ^.& ^.Q Q Q Q ",
">X>X>X>X>X>X}.% * * 7 -X>X>X>X>X>X>X>X-XX * & i D t.n.t.t ' >X>X>X>X>X~.} ~.>X>X>X>X>X>X>X>X>X>X>X>X>X>X>X>X>X>X>X>X>X>X>X>X>X>X>X>X>X>X>X>X>X>XQ Q Q Q Q Q Q Q ",
">X>X>X>X>X>X>X-X}.-X>X>X>X>X>X>X>X>X>X>X>X-XX.4 4 # & % ( >X>X>X>X>X>X>X>X>X>X>X>X>X>X>X>X>X>X>X>X>X>X>X>X>X>X>X>X>X>X>X>X>X>X>X>X>X>X>X>X>X>X>X>X>X>X>X>X>X>X>X",
">X>X>X>X>X>X>X>X>X>X>X>X>X>X>X>X>X>X>X>X>X>X>X>X>X~.~.-X>X>X>X>X>X>X>X>X>X>X>X>X>X>X>X>X>X>X>X>X>X>X>X>X>X>X>X>X>X>X>X>X>X>X>X>X>X>X>X>X>X>X>X>X>X>X>X>X>X>X>X>X",
">X>X>X>X>X>X>X>X>X>X>X>X>X>X>X>X>X>X>X>X>X>X>X>X>X>X>X>X>X>X>X>X>X>X>X>X>X>X>X>X>X>X>X>X>X>X>X>X>X>X>X>X>X>X>X>X>X>X>X>X>X>X>X>X>X>X>X>X>X>X>X>X>X>X>X>X>X>X>X>X",
">X>X>X>X>X>X>X>X>X>X>X>X>X>X>X>X>X>X>X>X>X>X>X>X>X>X>X>X>X>X>X>X>X>X>X>X>X>X>X>X>X>X>X>X>X>X>X>X>X>X>X>X>X>X>X>X>X>X>X>X>X>X>X>X>X>X>X>X>X>X>X>X>X>X>X>X>X>X>X>X",
">X>X>X>X>X>X>X>X>X>X>X>X>X>X>X>X>X>X>X>X>X>X>X>X>X>X>X>X>X>X>X>X>X>X>X>X>X>X>X>X>X>X>X>X>X>X>X>X>X>X>X>X>X>X>X>X>X>X>X>X>X>X>X>X>X>X>X>X>X>X>X>X>X>X>X>X>X>X>X>X",
">X>X>X>X>X>X>X>X>X>X>X>X>X>X>X>X>X>X>X>X>X>X>X>X>X>X>X>X>X>X>X>X>X>X>X>X>X>X>X>X>X>X>X>X>X>X>X>X>X>X>X>X>X>X>X>X>X>X>X>X>X>X>X>X>X>X>X>X>X>X>X>X>X>X>X>X>X>X>X>X",
">X>X>X>X>X>X>X>X>X>X>X>X>X>X>X>X>X>X>X>X>X>X>X>X>X>X>X>X>X>X>X>X>X>X>X>X>X>X>X>X>X>X>X>X>X>X>X>X>X>X>X>X>X>X>X>X>X>X>X>X>X>X>X>X>X>X>X>X>X>X>X>X>X>X>X>X>X>X>X>X",
">X>X>X>X>X>X>X>X>X>X>X>X>X>X>X>X>X>X>X>X>X>X>X>X>X>X>X>X>X>X>X>X>X>X>X>X>X>X>X>X>X>X>X>X>X>X>X>X>X>X>X>X>X>X>X>X>X>X>X>X>X>X>X>X>X>X>X>X>X>X>X>X>X>X>X>X>X>X>X>X",
">X>X>X>X>X>X>X>X>X>X>X>X>X>X>X>X>X>X>X>X>X>X>X>X>X>X>X>X>X>X>X>X>X>X>X>X>X>X>X>X>X>X>X>X>X>X>X>X>X>X>X>X>X>X>X>X>X>X>X>X>X>X>X>X>X>X>X>X>X>X>X>X>X>X>X>X>X>X>X>X",
">X>X>X>X>X>X>X>X>X>X>X>X>X>X>X>X>X>X>X>X>X>X>X>X>X>X>X>X>X>X>X>X>X>X>X>X>X>X>X>X>X>X>X>X>X>X>X>X>X>X>X>X>X>X>X>X>X>X>X>X>X>X>X>X>X>X>X>X>X>X>X>X>X>X>X>X>X>X>X>X",
">X>X>X>X>X>X>X>X>X>X>X>X>X>X>X>X>X>X>X>X>X>X>X>X>X>X>X>X>X>X>X>X>X>X>X>X>X>X>X>X>X>X>X>X>X>X>X>X>X>X>X>X>X>X>X>X>X>X>X>X>X>X>X>X>X>X>X>X>X>X>X>X>X>X>X>X>X>X>X>X",
">X>X>X>X>X>X>X>X>X>X>X>X>X>X>X>X>X>X>X>X>X>X>X>X>X>X>X>X>X>X>X>X>X>X>X>X>X>X>X>X>X>X>X>X>X>X>X>X>X>X>X>X>X>X>X>X>X>X>X>X>X>X>X>X>X>X>X>X>X>X>X>X>X>X>X>X>X>X>X>X",
">X>X>X>X>X>X>X>X>X>X>X>X>X>X>X>X>X>X>X>X>X>X>X>X>X>X>X>X>X>X>X>X>X>X>X>X>X>X>X>X>X>X>X>X>X>X>X>X>X>X>X>X>X>X>X>X>X>X>X>X>X>X>X>X>X>X>X>X>X>X>X>X>X>X>X>X>X>X>X>X",
">X>X>X>X>X>X>X>X>X>X>X>X>X>X>X>X>X>X>X>X>X>X>X>X>X>X>X>X>X>X>X>X>X>X>X>X>X>X>X>X>X>X>X>X>X>X>X>X>X>X>X>X>X>X>X>X>X>X>X>X>X>X>X>X>X>X>X>X>X>X>X>X>X>X>X>X>X>X>X>X",
">X>X>X>X>X>X>X>X>X>X>X>X>X>X>X>X>X>X>X>X>X>X>X>X>X>X>X>X>X>X>X>X>X>X>X>X>X>X>X>X>X>X>X>X>X>X>X>X>X>X>X>X>X>X>X>X>X>X>X>X>X>X>X>X>X>X>X>X>X>X>X>X>X>X>X>X>X>X>X>X",
">X>X>X>X>X>X>X>X>X>X>X>X>X>X>X>X>X>X>X>X>X>X>X>X>X>X>X>X>X>X>X>X>X>X>X>X>X>X>X>X>X>X>X>X>X>X>X>X>X>X>X>X>X>X>X>X>X>X>X>X>X>X>X>X>X>X>X>X>X>X>X>X>X>X>X>X>X>X>X>X",
">X>X>X>X>X>X>X>X>X>X>X>X>X>X>X>X>X>X>X>X>X>X>X>X>X>X>X>X>X>X>X>X>X>X>X>X>X>X>X>X>X>X>X>X>X>X>X>X>X>X>X>X>X>X>X>X>X>X>X>X>X>X>X>X>X>X>X>X>X>X>X>X>X>X>X>X>X>X>X>X",
">X>X>X>X>X>X>X>X>X>X>X>X>X>X>X>X>X>X>X>X>X>X>X>X>X>X>X>X>X>X>X>X>X>X>X>X>X>X>X>X>X>X>X>X>X>X>X>X>X>X>X>X>X>X>X>X>X>X>X>X>X>X>X>X>X>X>X>X>X>X>X>X>X>X>X>X>X>X>X>X",
">X>X>X>X>X>X>X>X>X>X>X>X>X>X>X>X>X>X>X>X>X>X>X>X>X>X>X>X>X>X>X>X>X>X>X>X>X>X>X>X>X>X>X>X>X>X>X>X>X>X>X>X>X>X>X>X>X>X>X>X>X>X>X>X>X>X>X>X>X>X>X>X>X>X>X>X>X>X>X>X",
">X>X>X>X>X>X>X>X>X>X>X>X>X>X>X>X>X>X>X>X>X>X>X>X>X>X>X>X>X>X>X>X>X>X>X>X>X>X>X>X>X>X>X>X>X>X>X>X>X>X>X>X>X>X>X>X>X>X>X>X>X>X>X>X>X>X>X>X>X>X>X>X>X>X>X>X>X>X>X>X",
">X>X>X>X>X>X>X>X>X>X>X>X>X>X>X>X>X>X>X>X>X>X>X>X>X>X>X>X>X>X>X>X>X>X>X>X>X>X>X>X>X>X>X>X>X>X>X>X>X>X>X>X>X>X>X>X>X>X>X>X>X>X>X>X>X>X>X>X>X>X>X>X>X>X>X>X>X>X>X>X",
">X>X>X>X>X>X>X>X>X>X>X>X>X>X>X>X>X>X>X>X>X>X>X>X>X>X>X>X>X>X>X>X>X>X>X>X>X>X>X>X>X>X>X>X>X>X>X>X>X>X>X>X>X>X>X>X>X>X>X>X>X>X>X>X>X>X>X>X>X>X>X>X>X>X>X>X>X>X>X>X",
">X>X>X>X>X>X>X>X>X>X>X>X>X>X>X>X>X>X>X>X>X>X>X>X>X>X>X>X>X>X>X>X>X>X>X>X>X>X>X>X>X>X>X>X>X>X>X>X>X>X>X>X>X>X>X>X>X>X>X>X>X>X>X>X>X>X>X>X>X>X>X>X>X>X>X>X>X>X>X>X",
">X>X>X>X>X>X>X>X>X>X>X>X>X>X>X>X>X>X>X>X>X>X>X>X>X>X>X>X>X>X>X>X>X>X>X>X>X>X>X>X>X>X>X>X>X>X>X>X>X>X>X>X>X>X>X>X>X>X>X>X>X>X>X>X>X>X>X>X>X>X>X>X>X>X>X>X>X>X>X>X"
};
