/* XPM */
static char *xpm_[] = {
/* columns rows colors chars-per-pixel */
"80 80 101 2 ",
"   c #0B0708",
".  c #110D0E",
"X  c #130F10",
"o  c #0D1516",
"O  c #1A1617",
"+  c #211D1E",
"@  c #1A1F20",
"#  c #231F20",
"$  c #351F20",
"%  c #1C2222",
"&  c #262223",
"*  c #312D2E",
"=  c #332F30",
"-  c #383536",
";  c #771015",
":  c #431F21",
">  c #561E21",
",  c #661E21",
"<  c #781E22",
"1  c #4E2022",
"2  c #552022",
"3  c #413D3E",
"4  c #662124",
"5  c #633133",
"6  c #423F40",
"7  c #3C4242",
"8  c #484545",
"9  c #514E4F",
"0  c #524F50",
"q  c #595657",
"w  c #605D5E",
"e  c #6A6768",
"r  c #706E6E",
"t  c #726F70",
"y  c #787677",
"u  c #88181D",
"i  c #A9151B",
"p  c #9E1D22",
"a  c #A71D23",
"s  c #B81D23",
"d  c #B5363B",
"f  c #C8161E",
"g  c #EB0106",
"h  c #EC0D16",
"j  c #F80E18",
"k  c #EC131C",
"l  c #FA121C",
"z  c #C91C23",
"x  c #D41C23",
"c  c #EC1C25",
"v  c #F91B24",
"b  c #C82027",
"n  c #C62C32",
"m  c #C1383D",
"M  c #DB3138",
"N  c #EE222A",
"B  c #EE2D35",
"V  c #F92932",
"C  c #EE333A",
"Z  c #FE343C",
"A  c #EE3A41",
"S  c #AC4348",
"D  c #8A6769",
"F  c #817E7F",
"G  c #EC4249",
"H  c #F1464C",
"J  c #F14D53",
"K  c #EF545A",
"L  c #F1545A",
"P  c #F15B61",
"I  c #F3656A",
"U  c #F36D72",
"Y  c #F47479",
"T  c #DF7D80",
"R  c #F47B80",
"E  c #878485",
"W  c #918F90",
"Q  c #999798",
"!  c #B18B8C",
"~  c #A9A8A8",
"^  c #BAB9B9",
"/  c #F58488",
"(  c #F68E92",
")  c #F6979A",
"_  c #C4BBBB",
"`  c #F7A3A7",
"'  c #F8ADB0",
"]  c #FAB6B9",
"[  c #C8C7C8",
"{  c #D8D7D7",
"}  c #E6C4C5",
"|  c #FAC6C8",
" . c #FBCFD0",
".. c #E1DCDC",
"X. c #FCD7D8",
"o. c #DDE0E0",
"O. c #EAE9EA",
"+. c #F9EAEA",
"@. c #E8F2F1",
"#. c #FDFDFD",
"$. c None",
/* pixels */
"$.$.$.$.$.$.$.$.$.$.$.$.$.$.$.$.$.$.$.$.$.$.$.$.$.$.$.$.$.$.$.$.$.$.$.$.$.$.$.$.$.$.$.$.$.$.$.$.$.$.$.$.$.$.$.$.$.$.$.$.$.$.$.$.$.$.$.$.$.$.$.$.$.$.$.$.$.$.$.$.",
"$.$.$.$.$.$.$.$.$.$.$.$.$.$.$.$.$.$.$.$.$.$.$.$.$.$.$.$.$.$.$.$.$.$.$.$.$.$.$.$.$.$.$.$.$.$.$.$.$.$.$.$.$.$.$.$.$.$.$.$.$.$.$.$.$.$.$.$.$.$.$.$.$.$.$.$.$.$.$.$.",
"$.$.$.$.$.$.$.$.$.$.$.$.$.$.$.$.$.$.$.$.$.$.$.$.$.$.$.$.$.$.$.$.$.$.$.$.$.$.$.$.$.$.$.$.$.$.$.$.$.$.$.$.$.$.$.$.$.$.$.$.$.$.$.$.$.$.$.$.$.$.$.$.$.$.$.$.$.$.$.$.",
"$.$.$.$.$.$.$.$.$.$.$.$.$.$.$.$.$.$.$.$.$.$.$.$.$.$.$.$.$.$.$.$.$.$.$.$.$.$.$.$.$.$.$.$.$.$.$.$.$.$.$.$.$.$.$.$.$.$.$.$.$.$.$.$.$.$.$.$.$.$.$.$.$.$.$.$.$.$.$.$.",
"$.$.$.$.$.$.$.$.$.$.$.$.$.$.$.$.$.$.$.$.$.$.$.$.$.$.$.$.$.$.$.$.$.$.$.$.$.$.$.$.$.$.$.$.$.$.$.$.$.$.$.$.$.$.$.$.$.$.$.$.$.$.$.$.$.$.$.$.$.$.$.$.$.$.$.$.$.$.$.$.",
"$.$.$.$.$.$.$.$.$.$.$.$.$.$.$.$.$.$.$.$.$.$.$.$.$.$.$.$.$.$.$.$.$.$.$.$.$.$.$.$.$.$.$.$.$.$.$.$.$.$.$.$.$.$.$.$.$.$.$.$.$.$.$.$.$.$.$.$.$.$.$.$.$.$.$.$.$.$.$.$.",
"$.$.$.$.$.$.$.$.$.$.$.$.$.$.$.$.$.$.$.$.$.$.$.$.$.$.$.$.$.$.$.$.$.$.$.$.$.$.$.$.$.$.$.$.$.$.$.$.$.$.$.$.$.$.$.$.$.$.$.$.$.$.$.$.$.$.$.$.$.$.$.$.$.$.$.$.$.$.$.$.",
"$.$.$.$.$.$.$.$.$.$.$.$.$.$.$.$.$.$.$.$.$.$.$.$.$.$.$.$.$.$.$.$.$.$.$.$.$.$.$.$.$.$.$.$.$.$.$.$.$.$.$.$.$.$.$.$.$.$.$.$.$.$.$.$.$.$.$.$.$.$.$.$.$.$.$.$.$.$.$.$.",
"$.$.$.$.$.$.$.$.$.$.$.$.$.$.$.$.$.$.$.$.$.$.$.$.$.$.$.$.$.$.$.$.$.$.$.$.$.$.$.$.$.$.$.$.$.$.$.$.$.$.$.$.$.$.$.$.$.$.$.$.$.$.$.$.$.$.$.$.$.$.$.$.$.$.$.$.$.$.$.$.",
"$.$.$.$.$.$.$.$.$.$.$.$.$.$.$.$.$.$.$.$.$.$.$.$.$.$.$.$.$.$.$.$.$.$.$.$.$.$.$.$.$.$.$.$.$.$.$.$.$.$.$.$.$.$.$.$.$.$.$.$.$.$.$.$.$.$.$.$.$.$.$.$.$.$.$.$.$.$.$.$.",
"$.$.$.$.$.$.$.$.$.$.$.$.$.$.$.$.$.$.$.$.$.$.$.$.$.$.$.$.$.$.$.$.$.$.$.$.$.$.$.$.$.$.$.$.$.$.$.$.$.$.$.$.$.$.$.$.$.$.$.$.$.$.$.$.$.$.$.$.$.$.$.$.$.$.$.$.$.$.$.$.",
"$.$.$.$.$.$.$.$.$.$.$.$.$.$.$.$.$.$.$.$.$.$.$.$.$.$.$.$.$.$.$.$.$.$.$.$.$.$.$.$.$.$.$.$.$.$.$.$.$.$.$.$.$.$.$.$.$.$.$.$.$.$.$.$.$.$.$.$.$.$.$.$.$.$.$.$.$.$.$.$.",
"$.$.$.$.$.$.$.$.$.$.$.$.$.$.$.$.$.$.$.$.$.$.$.$.$.$.$.$.$.$.$.$.$.$.$.$.$.$.$.$.$.$.$.$.$.$.$.$.$.$.$.$.$.$.$.$.$.$.$.$.$.$.$.$.$.$.$.$.$.$.$.$.$.$.$.$.$.$.$.$.",
"$.$.$.$.$.$.$.$.$.$.$.$.$.$.$.$.$.$.$.$.$.$.$.$.$.$.$.$.$.$.$.$.$.$.$.$.$.$.$.$.$.$.$.$.$.$.$.$.$.$.$.$.$.$.$.$.$.$.$.$.$.$.$.$.$.$.$.$.$.$.$.$.$.$.$.$.$.$.$.$.",
"$.$.$.$.$.$.$.$.$.$.$.$.$.$.$.$.$.$.$.$.$.$.$.$.$.$.$.$.$.$.$.$.$.$.$.$.$.$.$.$.$.$.$.$.$.$.$.$.$.$.$.$.$.$.$.$.$.$.$.$.$.$.$.$.$.$.$.$.$.$.$.$.$.$.$.$.$.$.$.$.",
"$.$.$.$.$.$.$.$.$.$.$.$.$.$.$.$.$.$.$.$.$.$.$.$.$.$.$.$.$.$.$.$.$.$.$.$.$.$.$.$.$.$.$.$.$.$.$.$.$.$.$.$.$.$.$.$.$.$.$.$.$.$.$.$.$.$.$.$.$.$.$.$.$.$.$.$.$.$.$.$.",
"$.$.$.$.$.$.$.$.$.$.$.$.$.$.$.$.$.$.$.$.$.$.$.$.$.$.$.$.$.$.$.$.$.$.$.$.$.$.$.$.$.$.$.$.$.$.$.$.$.$.$.$.$.$.$.$.$.$.$.$.$.$.$.$.$.$.$.$.$.$.$.$.$.$.$.$.$.$.$.$.",
"$.$.$.$.$.$.$.$.$.$.$.$.$.$.$.$.$.$.$.$.$.$.$.$.$.$.$.$.$.$.$.$.$.$.$.$.$.$.$.$.$.$.$.$.$.$.$.$.$.$.$.$.$.$.$.$.$.$.$.$.$.$.$.$.$.$.$.$.$.$.$.$.$.$.$.$.$.$.$.$.",
"$.$.$.$.$.$.$.$.$.$.$.$.$.$.$.$.$.$.$.$.$.$.$.$.$.$.$.$.$.$.$.$.$.$.$.$.$.$.$.$.$.$.$.$.$.$.$.$.$.$.$.$.$.$.$.$.$.$.$.$.$.$.$.$.$.$.$.$.$.$.$.$.$.$.$.$.$.$.$.$.",
"$.$.$.$.$.$.$.$.$.$.$.$.$.$.$.$.$.$.$.$.$.$.$.$.$.$.$.$.$.$.$.$.$.$.$.$.$.$.$.$.$.$.$.$.$.$.$.$.$.$.$.$.$.$.$.$.$.$.$.$.$.$.$.$.$.$.$.$.$.$.$.$.$.$.$.$.$.$.$.$.",
"$.$.$.$.$.$.$.$.$.$.$.$.$.$.$.$.$.$.$.$.$.$.$.$.$.$.$.$.$.$.$.$.$.$.$.$.$.$.$.$.$.$.$.$.$.$.$.$.$.$.$.$.$.$.$.$.$.$.$.$.$.$.$.$.$.$.$.$.$.$.$.$.$.$.$.$.$.$.$.$.",
"$.$.$.$.$.$.$.$.$.$.$.$.$.$.$.$.$.$.$.$.$.$.$.$.$.$.$.$.$.$.$.$.$.$.$.$.$.$.$.$.$.$.$.$.$.$.$.$.$.$.$.$.$.$.$.$.$.$.$.$.$.$.$.$.$.$.$.$.$.$.$.$.$.$.$.$.$.$.$.$.",
"$.$.$.$.$.$.$.$.$.$.$.$.$.$.$.$.$.$.$.$.$.$.$.$.$.$.$.$.$.$.$.$.$.$.$.$.$.$.$.$.$.$.$.$.$.$.$.$.$.$.$.$.$.$.$.$.$.$.$.$.$.$.$.$.$.$.$.$.$.$.$.$.$.$.$.$.$.$.$.$.",
"$.$.$.& & # & & & # & # & & & & & & & # & # & & & # & # & & & # & # & & & # & # & # & & # & & & & & & # & & & # & & & # & # & & & # & # & & & & & & & # & $.$.$.",
"$.$.$.& # # + # + # + # # + # # + # # # # # # # # & & + % & # # + # + # # # # # + # # # # # # + & O # # + # # # + + # # + # # + # # # # O & # + + # # # # $.$.$.",
"$.$.$.& # # & + & + & # # # # # + # # # # @ @ @ O % O % % O @ # # # @ & # # # # # # # # # # # # & # # # & # # # # # # # & + # # # # # # & & # # # # # # # $.$.$.",
"$.$.$.& # # # # # # + # # # # # # # # # % % 1 ; p s s s a < $ % O & & & # # # # # # # @ # # # # & # # # + # # # # # # # # # # # # # # # # # @ # # # # # # $.$.$.",
"$.$.$.# # # # # # # # # # # # # # # # @ 2 s c v v v v v v v c s 2 % O & # # # # # # # # # # # # # # # # # # # # # # # # # # # # # # # # # # # # # # # # # $.$.$.",
"$.$.$.& + # # # # # + # # # # # # @ + a v v c c c c c c c c c v v a # + # + # # & & & # # # # # # O & & & + # + # + # + # # # # + # # + # + # # # # # # # $.$.$.",
"$.$.$.# # # + & # & & & & & # & @ $ z v c c c c c N c c c c c c c v z # % & # # O & # # # # # & & & & # & & & & & & & + & + + & # & & & & & # # # # # # # $.$.$.",
"$.$.$.& + # # & O O O O O O & % # x v c c c c c k h h h k c N c c c v f + O + & & & & O # # & # O O O & O O O O O O O O # & & O O O O O O O & & # # # # # $.$.$.",
"$.$.$.& # # & O & 8 8 8 6 - * X a v c c c c h c H Y / Y H k h c c c k Z S 8 & + O & & & & # & & 8 8 - O & 8 8 8 8 8 8 8 & & O = 8 8 8 8 8 & X & # # # # # $.$.$.",
"$.$.$.& + + + + [ #.#.#.#.#.@.! k c c v c h L X.#.#.#.#.#. .K h c c N +.#.#.E X & & + X + & X ~ #.#.{ O ^ #.#.#.#.#.#.#.Q X - O.#.#.#.#.#.O.r O & & # # # $.$.$.",
"$.$.$.# # + + * @.#.#.#.#.#.#.#.) h c c h / #.#.#.#.#.#.#.#.#.R h c h ] #.#.{ + & O 8 ^ * O * @.#.#.~ O @.#.#.#.#.#.#.#.[   q #.#.#.#.#.#.#.#.e X & # # # $.$.$.",
"$.$.$.& # # + + [ #.#.#.#.#.#.#.#.A k k U #.#.#.X./ U / X.#.#.#.I h k K #.#.#.w O X W #.e   t #.#.#.q . ^ #.#.#.#.#.#.#.W . 3 O.#.#.#.#.#.#.#...# # # # # $.$.$.",
"$.$.$.& # # + + * 8 8 8 8 8 { #.#.Y h N +.#.#.) k h h h k ` #.#.+.c c c X.#.#.^ O & { #.[   [ #.#.{ O + & 8 - 6 3 3 3 - & & + = 8 3 8 3 q @.#.#.8 O & # # $.$.$.",
"$.$.$.& # # # + O & & & & & [ #.#.Y g Y #.#.| h c c c N c h  .#.#.U h h / #.#.#.= 8 #.#.#.t @.#.#.y X # + & & * * & * & O & O & * & * & 8 O.#.#.- O & # # $.$.$.",
"$.$.$.& + # & + ~ #.@.+.+.@.#.#.#.H h L ] ' H k c c c v c k J ] ] J k c B #.#.#.E O O.#.#.@.#.#.@.= + + ~ #.+.@.+.@.O.#.E X = { #.@.+.@.#.#.#.{ O & # # # $.$.$.",
"$.$.$.& + & + * @.#.#.#.#.#.#.#.' k N h g g k c c c c c c c h g g h c N h ' #.#.O.. Q #.#.#.#.#.~ X & & +.#.#.#.#.#.#.#.[   q #.#.#.#.#.#.#.#.0 O & & # # $.$.$.",
"$.$.$.# + + + * O.#.#.#.#.#.#.` c c k H ` ` G k c c c c N k H ` ` H k c h L #.#.#.q - #.#.#.#.#.q O # * O.#.#.#.#.#.#.#.Q . 3 #.#.#.#.#.#.#.#.r O & # # # $.$.$.",
"$.$.$.& + # + * O.#.#.e q q m l c c h Y #.#.| h c N c c c h | #.#.U h c c k X.#.#.^   [ #.#.#.{ O & & & O.#.#.e 8 9 9 8 & & O 8 q q q 0 Q #.#.[ O & # # # $.$.$.",
"$.$.$.# + & + & O.#.#.* . o u v c c c N +.#.#.( h h k h h ) #.#.+.c c c N h T #.#.#.* e #.+.#.E X & + * O.#.#.8 O + & O O & & O X O O . 8 #.#.{ + # # # # $.$.$.",
"$.$.$.& # # + * O.#.#.3 O % 2 v c c c h Y #.#.#.| Y P Y  .#.#.#.U h c c c k 5 @.#.O.& & O.#.@.- + & + & O.#.#.O.O.O.O.O.y O & & & & & O q #.#.{ + + & + # $.$.$.",
"$.$.$.& + & O * O.#.#.7 O & & z v c c c h ( #.#.#.#.#.#.#.#.#.( h c c c v b . ~ #.Q O O Q #.^ X & & # & O.#.#.#.#.#.#.#.[ X & + & & & O q #.#.{ + # # # # $.$.$.",
"$.$.$.& # & + & { #.+.= + & @ , v c c c c k I X.#.#.#.#.#.X.I h N c c c v 4 o q #.9 + O 8 #.q O & & # + { #.#.#.#.#.#.#.~ O & # & & & O 8 #.#.[ O & & # # $.$.$.",
"$.$.$.# # # & O 3 r 8 O + # # @ s v c c c c h c J R ( Y J c h c k k k v a O & & 8 O O + # 9 & + O + # + - w w e e e e e * O + + & O O & O 8 e = O & # # # $.$.$.",
"$.$.$.& + # # & + X O & + & # # + x v c c c c B N N N N c c C C A H H B - & + & * - 3 = O X # & - 3 & O & * = O X X O O & & & & & = & + & O & & # # # # # $.$.$.",
"$.$.$.& # # # + & & & # # + + + + $ x v c c k | #.#.#.#.] g ] #.| ] } ..#.0   e #.@.+.@.[ - O = O.@.& 8 O.#.E # & & [ #.O.O.#.~ X { O.* . F #.t X & # # # $.$.$.",
"$.$.$.& + & + # # # # # # # # @ # # # s v v c C P #.#.K A h ] #.U i * { #.9   e #.[ & { #.W   - #.#.t #.+.e X % & & 9 y #.@.e 8 . y #.y . O.O.& & # # # # $.$.$.",
"$.$.$.& # # # # # # # # # # # # # # # @ > z v l V #.+.v l l ] #.D . + ..#.q   r #.O.^ O.{ 8 O = O.#.#.#.e   & & + & X - #.O.+ O & O O.{ e #.y X & & # # # $.$.$.",
"$.$.$.& # # # # # # # # # # # # # # # # @ @ 1 u d #.+.n a ; _ #.Q X 8 @.#.8   r #.{ O.#.r   + = @.+.F #.#.t . + # & O 8 #.O.& & & X y #.O.O.+ + # # # # # $.$.$.",
"$.$.$.# # # # # # # # # # # # # # # # # # # % o = #.#.= % o 0 +.#.O.#.#.~ & X r #.^ * O.#.W O * #.#.& 8 @.#.Q & + & O 8 #.+.& + & # + { #.t X & # # # # # $.$.$.",
"$.$.$.& + # # # # # # # # # # # # # # # # # # + & 0 9 & + & O & q y e 8 O + + = q 8 O - q q * & q 9 * X = q w * O & + * e q & & # & O 8 r & + # # # # # # $.$.$.",
"$.$.$.# # # # # # # # # # # # # # # # # # # + & & o O + & + & + O X X O & & + O O O & O O X + + O O + & + X O O & + & O X O + & # # & O X + & # # # # # # $.$.$.",
"$.$.$.& + + # # # # # # # # # # # # # # # # # + & & & + + # # & & & & & # # # # & & & & & & & + # & # # & & & & & # # & & & # # # # + & & & + # # # # # # $.$.$.",
"$.$.$.& # & # # # # + & # # # # # # # + & # # & & % + & # # # # + & # # # # # # # # # # # # + & + # # # + # # # # # # # # # # # # + & # # + & # # # # # & $.$.$.",
"$.$.$.& + + + # + + + + # + + + # + + + # + + + + + + # + + + # + + + + # + + + + # + + + # + + + + # + + + + # + + + + # + + + + + + # + + + # # + + + + $.$.$.",
"$.$.$.$.$.$.$.$.$.$.$.$.$.$.$.$.$.$.$.$.$.$.$.$.$.$.$.$.$.$.$.$.$.$.$.$.$.$.$.$.$.$.$.$.$.$.$.$.$.$.$.$.$.$.$.$.$.$.$.$.$.$.$.$.$.$.$.$.$.$.$.$.$.$.$.$.$.$.$.$.",
"$.$.$.$.$.$.$.$.$.$.$.$.$.$.$.$.$.$.$.$.$.$.$.$.$.$.$.$.$.$.$.$.$.$.$.$.$.$.$.$.$.$.$.$.$.$.$.$.$.$.$.$.$.$.$.$.$.$.$.$.$.$.$.$.$.$.$.$.$.$.$.$.$.$.$.$.$.$.$.$.",
"$.$.$.$.$.$.$.$.$.$.$.$.$.$.$.$.$.$.$.$.$.$.$.$.$.$.$.$.$.$.$.$.$.$.$.$.$.$.$.$.$.$.$.$.$.$.$.$.$.$.$.$.$.$.$.$.$.$.$.$.$.$.$.$.$.$.$.$.$.$.$.$.$.$.$.$.$.$.$.$.",
"$.$.$.$.$.$.$.$.$.$.$.$.$.$.$.$.$.$.$.$.$.$.$.$.$.$.$.$.$.$.$.$.$.$.$.$.$.$.$.$.$.$.$.$.$.$.$.$.$.$.$.$.$.$.$.$.$.$.$.$.$.$.$.$.$.$.$.$.$.$.$.$.$.$.$.$.$.$.$.$.",
"$.$.$.$.$.$.$.$.$.$.$.$.$.$.$.$.$.$.$.$.$.$.$.$.$.$.$.$.$.$.$.$.$.$.$.$.$.$.$.$.$.$.$.$.$.$.$.$.$.$.$.$.$.$.$.$.$.$.$.$.$.$.$.$.$.$.$.$.$.$.$.$.$.$.$.$.$.$.$.$.",
"$.$.$.$.$.$.$.$.$.$.$.$.$.$.$.$.$.$.$.$.$.$.$.$.$.$.$.$.$.$.$.$.$.$.$.$.$.$.$.$.$.$.$.$.$.$.$.$.$.$.$.$.$.$.$.$.$.$.$.$.$.$.$.$.$.$.$.$.$.$.$.$.$.$.$.$.$.$.$.$.",
"$.$.$.$.$.$.$.$.$.$.$.$.$.$.$.$.$.$.$.$.$.$.$.$.$.$.$.$.$.$.$.$.$.$.$.$.$.$.$.$.$.$.$.$.$.$.$.$.$.$.$.$.$.$.$.$.$.$.$.$.$.$.$.$.$.$.$.$.$.$.$.$.$.$.$.$.$.$.$.$.",
"$.$.$.$.$.$.$.$.$.$.$.$.$.$.$.$.$.$.$.$.$.$.$.$.$.$.$.$.$.$.$.$.$.$.$.$.$.$.$.$.$.$.$.$.$.$.$.$.$.$.$.$.$.$.$.$.$.$.$.$.$.$.$.$.$.$.$.$.$.$.$.$.$.$.$.$.$.$.$.$.",
"$.$.$.$.$.$.$.$.$.$.$.$.$.$.$.$.$.$.$.$.$.$.$.$.$.$.$.$.$.$.$.$.$.$.$.$.$.$.$.$.$.$.$.$.$.$.$.$.$.$.$.$.$.$.$.$.$.$.$.$.$.$.$.$.$.$.$.$.$.$.$.$.$.$.$.$.$.$.$.$.",
"$.$.$.$.$.$.$.$.$.$.$.$.$.$.$.$.$.$.$.$.$.$.$.$.$.$.$.$.$.$.$.$.$.$.$.$.$.$.$.$.$.$.$.$.$.$.$.$.$.$.$.$.$.$.$.$.$.$.$.$.$.$.$.$.$.$.$.$.$.$.$.$.$.$.$.$.$.$.$.$.",
"$.$.$.$.$.$.$.$.$.$.$.$.$.$.$.$.$.$.$.$.$.$.$.$.$.$.$.$.$.$.$.$.$.$.$.$.$.$.$.$.$.$.$.$.$.$.$.$.$.$.$.$.$.$.$.$.$.$.$.$.$.$.$.$.$.$.$.$.$.$.$.$.$.$.$.$.$.$.$.$.",
"$.$.$.$.$.$.$.$.$.$.$.$.$.$.$.$.$.$.$.$.$.$.$.$.$.$.$.$.$.$.$.$.$.$.$.$.$.$.$.$.$.$.$.$.$.$.$.$.$.$.$.$.$.$.$.$.$.$.$.$.$.$.$.$.$.$.$.$.$.$.$.$.$.$.$.$.$.$.$.$.",
"$.$.$.$.$.$.$.$.$.$.$.$.$.$.$.$.$.$.$.$.$.$.$.$.$.$.$.$.$.$.$.$.$.$.$.$.$.$.$.$.$.$.$.$.$.$.$.$.$.$.$.$.$.$.$.$.$.$.$.$.$.$.$.$.$.$.$.$.$.$.$.$.$.$.$.$.$.$.$.$.",
"$.$.$.$.$.$.$.$.$.$.$.$.$.$.$.$.$.$.$.$.$.$.$.$.$.$.$.$.$.$.$.$.$.$.$.$.$.$.$.$.$.$.$.$.$.$.$.$.$.$.$.$.$.$.$.$.$.$.$.$.$.$.$.$.$.$.$.$.$.$.$.$.$.$.$.$.$.$.$.$.",
"$.$.$.$.$.$.$.$.$.$.$.$.$.$.$.$.$.$.$.$.$.$.$.$.$.$.$.$.$.$.$.$.$.$.$.$.$.$.$.$.$.$.$.$.$.$.$.$.$.$.$.$.$.$.$.$.$.$.$.$.$.$.$.$.$.$.$.$.$.$.$.$.$.$.$.$.$.$.$.$.",
"$.$.$.$.$.$.$.$.$.$.$.$.$.$.$.$.$.$.$.$.$.$.$.$.$.$.$.$.$.$.$.$.$.$.$.$.$.$.$.$.$.$.$.$.$.$.$.$.$.$.$.$.$.$.$.$.$.$.$.$.$.$.$.$.$.$.$.$.$.$.$.$.$.$.$.$.$.$.$.$.",
"$.$.$.$.$.$.$.$.$.$.$.$.$.$.$.$.$.$.$.$.$.$.$.$.$.$.$.$.$.$.$.$.$.$.$.$.$.$.$.$.$.$.$.$.$.$.$.$.$.$.$.$.$.$.$.$.$.$.$.$.$.$.$.$.$.$.$.$.$.$.$.$.$.$.$.$.$.$.$.$.",
"$.$.$.$.$.$.$.$.$.$.$.$.$.$.$.$.$.$.$.$.$.$.$.$.$.$.$.$.$.$.$.$.$.$.$.$.$.$.$.$.$.$.$.$.$.$.$.$.$.$.$.$.$.$.$.$.$.$.$.$.$.$.$.$.$.$.$.$.$.$.$.$.$.$.$.$.$.$.$.$.",
"$.$.$.$.$.$.$.$.$.$.$.$.$.$.$.$.$.$.$.$.$.$.$.$.$.$.$.$.$.$.$.$.$.$.$.$.$.$.$.$.$.$.$.$.$.$.$.$.$.$.$.$.$.$.$.$.$.$.$.$.$.$.$.$.$.$.$.$.$.$.$.$.$.$.$.$.$.$.$.$.",
"$.$.$.$.$.$.$.$.$.$.$.$.$.$.$.$.$.$.$.$.$.$.$.$.$.$.$.$.$.$.$.$.$.$.$.$.$.$.$.$.$.$.$.$.$.$.$.$.$.$.$.$.$.$.$.$.$.$.$.$.$.$.$.$.$.$.$.$.$.$.$.$.$.$.$.$.$.$.$.$.",
"$.$.$.$.$.$.$.$.$.$.$.$.$.$.$.$.$.$.$.$.$.$.$.$.$.$.$.$.$.$.$.$.$.$.$.$.$.$.$.$.$.$.$.$.$.$.$.$.$.$.$.$.$.$.$.$.$.$.$.$.$.$.$.$.$.$.$.$.$.$.$.$.$.$.$.$.$.$.$.$.",
"$.$.$.$.$.$.$.$.$.$.$.$.$.$.$.$.$.$.$.$.$.$.$.$.$.$.$.$.$.$.$.$.$.$.$.$.$.$.$.$.$.$.$.$.$.$.$.$.$.$.$.$.$.$.$.$.$.$.$.$.$.$.$.$.$.$.$.$.$.$.$.$.$.$.$.$.$.$.$.$.",
"$.$.$.$.$.$.$.$.$.$.$.$.$.$.$.$.$.$.$.$.$.$.$.$.$.$.$.$.$.$.$.$.$.$.$.$.$.$.$.$.$.$.$.$.$.$.$.$.$.$.$.$.$.$.$.$.$.$.$.$.$.$.$.$.$.$.$.$.$.$.$.$.$.$.$.$.$.$.$.$."
};
