/* XPM */
static char *xpm_[] = {
/* columns rows colors chars-per-pixel */
"80 80 78 1 ",
"  c #211F20",
". c #221F20",
"X c #231F20",
"o c #231F20",
"O c #231F20",
"+ c #231F20",
"@ c #231F20",
"# c #6C777D",
"$ c #6C777D",
"% c #6C777D",
"& c #6C777D",
"* c #6C777D",
"= c #6C777D",
"- c #6C777D",
"; c #6C777D",
": c #231F20",
"> c #231F20",
", c #231F20",
"< c #231F20",
"1 c #6C777D",
"2 c #C4161C",
"3 c #C3151B",
"4 c #C4151B",
"5 c #C5151B",
"6 c #C3151B",
"7 c #6C777D",
"8 c #6C777D",
"9 c #6C777D",
"0 c #6C777D",
"q c #6C777D",
"w c #6C777D",
"e c #6C777D",
"r c #6C777D",
"t c #6C777D",
"y c #C4151B",
"u c #BE151B",
"i c #C5151B",
"p c #B7161B",
"a c #C2151B",
"s c #C2151B",
"d c #C4151B",
"f c #C5151B",
"g c #C8151B",
"h c #B7161B",
"j c #C5161C",
"k c #231F20",
"l c #231F20",
"z c #231F20",
"x c #6C777D",
"c c #6C777D",
"v c #6C777D",
"b c #6C777D",
"n c #231F20",
"m c #231F20",
"M c #6F7379",
"N c #C4151B",
"B c #BD151B",
"V c #6C777D",
"C c #6B767C",
"Z c #6C777D",
"A c #6B767C",
"S c #C0151B",
"D c #BD151B",
"F c #C4151B",
"G c #C9151B",
"H c #BC151B",
"J c #231F20",
"K c #6C777D",
"L c #251F20",
"P c #B2161C",
"I c #6C777D",
"U c #6C777D",
"Y c #6C777D",
"T c #C2151B",
"R c #C4151B",
"E c #414245",
"W c #D0141B",
"Q c None",
/* pixels */
"QQQQQQQQQQQQQQQQQQQQQQQQQQQQQQQQQQQQQQQQQQQQQQQQQQQQQQQQQQQQQQQQQQQQQQQQQQQQQQQQ",
"QQQQQQQQQQQQQQQQQQQQQQQQQQQQQQQQQQQQQQQQQQQQQQQQQQQQQQQQQQQQQQQQQQQQQQQQQQQQQQQQ",
"QQQQQQQQQQQQQQQQQQQQQQQQQQQQQQQQQQQQQQQQQQQQQQQQQQQQQQQQQQQQQQQQQQQQQQQQQQQQQQQQ",
"QQQQQQQQQQQQQQQQQQQQQQQQQQQQQQQQQQQQQQQQQQQQQQQQQQQQQQQQQQQQQQQQQQQQQQQQQQQQQQQQ",
"QQQQQQQQQQQQQQQQQQQQQQQQQQQQQQQQQQQQQQQQQQQQQQQQQQQQQQQQQQQQQQQQQQQQQQQQQQQQQQQQ",
"QQQQQQQQQQQQQQQQQQQQQQQQQQQQQQQQQQQQQQQQQQQQQQQQQQQQQQQQQQQQQQQQQQQQQQQQQQQQQQQQ",
"QQQQQQQQQQQQQQQQQQQQQQQQQQQQQQQQQQQQQQQQQQQQQQQQQQQQQQQQQQQQQQQQQQQQQQQQQQQQQQQQ",
"QQQQQQQQQQQQQQQQQQQQQQQQQQQQQQQQQQQQQQQQQQQQQQQQQQQQQQQQQQQQQQQQQQQQQQQQQQQQQQQQ",
"QQQQQQQQQQQQQQQQQQQQQQQQQQQQQQQQQQQQQQQQQQQQQQQQQQQQQQQQQQQQQQQQQQQQQQQQQQQQQQQQ",
"QQQQQQQQQQQQQQQQQQQQQQQQQQQQQQQQQQQQQQQQQQQQQQQQQQQQQQQQQQQQQQQQQQQQQQQQQQQQQQQQ",
"QQQQQQQQQQQQQQQQQQQQQQQQQQQQQQQQQQQQQQQQQQQQQQQQQQQQQQQQQQQQQQQQQQQQQQQQQQQQQQQQ",
"QQQQQQQQQQQQQQQQQQQQQQQQQQQQQQQQQQQQQQQQQQQQQQQQQQQQQQQQQQQQQQQQQQQQQQQQQQQQQQQQ",
"QQQQQQQQQQQQQQQQQQQQQQQQQQQQQQQQQQQQQQQQQQQQQQQQQQQQQQQQQQQQQQQQQQQQQQQQQQQQQQQQ",
"QQQQQQQQQQQQQQQQQQQQQQQQQQQQQQQQQQQQQQQQQQQQQQQQQQQQQQQQQQQQQQQQQQQQQQQQQQQQQQQQ",
"QQQQQQQQQQQQQQQQQQQQQQQQQQQQQQQQQQQQQQQQQQQQQQQQQQQQQQQQQQQQQQQQQQQQQQQQQQQQQQQQ",
"QQQQQQQQQQQQQQQQQQQQQQQQQQQQQQQQQQQQQQQQQQQQQQQQQQQQQQQQQQQQQQQQQQQQQQQQQQQQQQQQ",
"QQQQQQQQQQQQQQQQQQQQQQQQQQQQQQQQQQQQQQQQQQQQQQQQQQQQQQQQQQQQQQQQQQQQQQQQQQQQQQQQ",
"QQQQQQQQQQQQQQQQQQQQQQQQQQQQQQQQQQQQQQQQQQQQQQQQQQQQQQQQQQQQQQQQQQQQQQQQQQQQQQQQ",
"QQQQQQQQQQQQQQQQQQQQQQQQQQQQQQQQQQQQQQQQQQQQQQQQQQQQQQQQQQQQQQQQQQQQQQQQQQQQQQQQ",
"QQQQQQQQQQQQQQQQQQQQQQQQQQQQQQQQQQQQQQQQQQQQQQQQQQQQQQQQQQQQQQQQQQQQQQQQQQQQQQQQ",
"QQQQQQQQQQQQQQQQQQQQQQQQQQQQQQQQQQQQQQQQQQQQQQQQQQQQQQQQQQQQQQQQQQQQQQQQQQQQQQQQ",
"QQQQQQQQQQQQQQQQQQQQQQQQQQQQQQQQQQQQQQQQQQQQQQQQQQQQQQQQQQQQQQQQQQQQQQQQQQQQQQQQ",
"QQQQQQQQQQQQQQQQQQQQQQQQQQQQQQQQQQQQQQQQQQQQQQQQQQQQQQQQQQQQQQQQQQQQQQQQQQQQQQQQ",
"QQQQQQQQQQQQQQQQQQQQQQQQQQQQQQQQQQQQQQQQQQQQQQQQQQQQQQQQQQQQQQQQQQQQQQQQQQQQQQQQ",
"QQQQHjjRQ:o@@:@+ooXXOOX><QQQQQQQQQQL<>@.OX<mQQQQQQm.@@@@@oOoOOOO+<mQQQLzmmzmQQQQ",
"QQQ6djjdGXOO<OOOOOOOOOOOOOmQQQQQQQ<OOOO>mmOOOmQQQQ>OOOXOO.@OOOOOOOO>QQnO1OOOLQQQ",
"QQQdHQQju+X@>@OOXOOOOOO:OOO<QQQQLoO.<OOmQQ>OOO<QQQ>OOOOXOzL@oOOOOOOOOQnOOOmmmQQQ",
"QQQdjQQNaO<oO>XOOOOOOOOO+OOOLQQmOX@@XOOX<>o>OXO>LQ>@>OO@@OO@oOOOOOOOOnmOO>QmmQQQ",
"QQQGdjjsDX>@O>Oo:oo@oXOO+:OOmQLO+O:O.OOOOOOm+OXOmQ>:@OO@@o@o@@OOOOOOO:mOOo:OmQQQ",
"QQQQGuajRX>oO@OLQQQQQmOOOXOO>QoOO@>OO+mm<<OOXOOOmQ>O@OOO<QQQQQQ@OOOOOX<OOOOzQQQQ",
"QQQdusppuO<@O@OmQQQQQQ>OOOOO<mOOO>>O<mLQQQLXO.XO<Q<OOOOO<QQQQQQmOOOOOozOO:OOmQQQ",
"QQQH6spHBO<@O@OLQQQQQQ<OOOOOm>OOO>>+QmLmLQQQ<::O>Q<OOOOO<QQQQQQLOOOOO>mOOOOOLQQQ",
"QQQBddddH+,+OOOLQQQQQQOOOOOOQ  mo><>QmLQQQLQ,OOOzQ,OOOO.mQQQQQQ:OXOOOmQOOOO:QQQQ",
"QQQdgQQauX+O+OO<z<<nz OOOOOLQO@,+O@LQQLQQQQQmOOO<Q,OOOOO>zzm<z:OOmQO,QQkOOO:QQQQ",
"QQQdPQQTuO@O:OOOOOOOOOOOOOQQmOOOOOmQQQmLQQQQQ .X<Q,OO. .OOOOOOOOOQQmQQQ+OOO<QQQQ",
"QQQddfjfaO:O<oOOOOOOOOOOOO QmO.OOOmQQQLQLQQQmO@@LQ,OOO<XOOOOOOOOOoOXnQQXOOOLQQQQ",
"QQQsispdpO:,n:OOO1OOOOOOOOOOnOO.<O<QQQQQQQQQQXX@zQ>OOOXOXXX1OOOOOOOOO<Q<OOOnQQQQ",
"QQQQQQWjuOOOOO+mmmzzm<OOOOOOO :O>>mQQQQQQQQQQOOOnQzOOOOX>m<nmmm OOOOOOLLOOkQQQQQ",
"QQQWHddsHOOOO+OQQQQQQQLOOOOOOOOO<mLQQQQQQQQQm@mOzL OOOOXmQQQQQQQ OOOOOoQOOkQQQQQ",
"QQQddjHpQOOOOXOLQQQQQQQ<OOOOOOO,LmLQQQQQQQQQnLQzmXOO,OXOzQQQQQQQmOOOOOOQ+OOLQQQQ",
"QQQjddysQOOOOOOLQQQQQQQ>OOOO  O .>X<QQQQQQQL: @,>+:OmOOomQQQQQQQLOOOOO,QmnmQQQQQ",
"QQQQQNgdjOOOOOOmQQQQQQQ@OOOOO<OOOOOOmQQQQQm:<OO<O:<O<OO@mLQQQQQQnOOOOOoQQQQQQQQQ",
"QQQQNQQjpOOOOOOL<zmLQm@OOOOO m>O:oOO @mLLnO<<@m+@Q,O:Oo+<mzmQQm<OOOOOO  @OOOMLQQ",
"QQQdddydsOOOOOOOOOXoOOOOOOOO:QLOOooOOOOOOOm>OO<OmQ<O:O<OXXOOOXOOOOOOOO>O +O7lQQQ",
"QQQdTjdQQOOOOOOOOOOOOOOO  OO1QLIoOOOX>OOOXOO@mO:QQ<O:O<OX+OOOOOOOOOOOO>OOQLOYLQQ",
"QQQdWDsQQOOOOOOOOOOOOOOO  O>LQQQQOO@@>O:OOOO:m<QQQ<O,,<o>>OOOOOOOOOOOLnOOoOOUQQQ",
"QQQddddfjOO+OOOOOOOOOOOOx1.QQQQQQL<OOOOOOOOO@QQQQQ>OOOOOOOOOOOOOOOOOQQ<OOOOOKQQQ",
"QQQjjjjj6@@>>>@@@>>@>>>>:QQQQQQQQQQQL<><z<nLQQQQQQnO@+@@@::@>::,@>LQQQnO.OOmzQQQ",
"QQQQQQQQQQQQQQQQQQQQQQQQQQQQQQQQQQQQQQEQQQQQQQQQQQQQQQQQQQQQQQQQQQQQQQLQQLQLJQQQ",
"QQQn,Qn>LQQQQQLQQQQQQQQQQQQQQQQQmVCLQQLQQLQQQQQrAQQQ8KQQQQLQQLMMMQQQQQQQQQQQQQQQ",
"QQQ$;QZ$mQQQQQQQQQQQQQQQQQQQQQQQV$$$$QQQQQQQQQQ$vQQQ$CQQQQQQLY$$$$EQQQQQQQQQQQQQ",
"QQQ--X-$Qz$t+Q0$JV$bQe-7Qb0;$IQQC$mt$QY$$VQU$$L$Zz.A0Qc;=$IQQU$Kc$Ub$=JE$1$bQQQQ",
"QQQ;$8$$Q;$-$.$YQ$$QZ$1$A;$K$1QQA$$$Zn$cx$Y$0mQ$$$:QQQt$Y$-QQY$=$8Y$E#$K$Kw$LQQQ",
"QQQ&*QZ$Q$;LQQZ$AQ$-1$xYL0$Q$1QQZ$x$ZI$QA$1$KQL$;$YQQQ7$Q$eQQU$bmQb$Qw$K$mK$IQQQ",
"QQQ*;QO$Q1$$eC$$Z7$$Q$$;Lq$Q$1QQA$I;$Le;$wQ$$$E$Kq$QQQe$L$;QQz$cQQQ$&$xI$%$;QQQQ",
"QQQLLQQQQQmCQQYQQmEQQQVKQLQQnQQQLIQQIQQnLQQQYYQnQQQQQQLLQQEQQQmLQQQQUQQM$KQQQQQQ",
"QQQQQQQQQQQQQQQQQQQQQQQQQQQQQQQQQQQQQQQQQQQQQQQQQQQQQQQQQQQQQQQQQQQQQQQK$KQQQQQQ",
"QQQQQQQQQQQQQQQQQQQQQQQQQQQQQQQQQQQQQQQQQQQQQQQQQQQQQQQQQQQQQQQQQQQQQQQQQQQQQQQQ",
"QQQQQQQQQQQQQQQQQQQQQQQQQQQQQQQQQQQQQQQQQQQQQQQQQQQQQQQQQQQQQQQQQQQQQQQQQQQQQQQQ",
"QQQQQQQQQQQQQQQQQQQQQQQQQQQQQQQQQQQQQQQQQQQQQQQQQQQQQQQQQQQQQQQQQQQQQQQQQQQQQQQQ",
"QQQQQQQQQQQQQQQQQQQQQQQQQQQQQQQQQQQQQQQQQQQQQQQQQQQQQQQQQQQQQQQQQQQQQQQQQQQQQQQQ",
"QQQQQQQQQQQQQQQQQQQQQQQQQQQQQQQQQQQQQQQQQQQQQQQQQQQQQQQQQQQQQQQQQQQQQQQQQQQQQQQQ",
"QQQQQQQQQQQQQQQQQQQQQQQQQQQQQQQQQQQQQQQQQQQQQQQQQQQQQQQQQQQQQQQQQQQQQQQQQQQQQQQQ",
"QQQQQQQQQQQQQQQQQQQQQQQQQQQQQQQQQQQQQQQQQQQQQQQQQQQQQQQQQQQQQQQQQQQQQQQQQQQQQQQQ",
"QQQQQQQQQQQQQQQQQQQQQQQQQQQQQQQQQQQQQQQQQQQQQQQQQQQQQQQQQQQQQQQQQQQQQQQQQQQQQQQQ",
"QQQQQQQQQQQQQQQQQQQQQQQQQQQQQQQQQQQQQQQQQQQQQQQQQQQQQQQQQQQQQQQQQQQQQQQQQQQQQQQQ",
"QQQQQQQQQQQQQQQQQQQQQQQQQQQQQQQQQQQQQQQQQQQQQQQQQQQQQQQQQQQQQQQQQQQQQQQQQQQQQQQQ",
"QQQQQQQQQQQQQQQQQQQQQQQQQQQQQQQQQQQQQQQQQQQQQQQQQQQQQQQQQQQQQQQQQQQQQQQQQQQQQQQQ",
"QQQQQQQQQQQQQQQQQQQQQQQQQQQQQQQQQQQQQQQQQQQQQQQQQQQQQQQQQQQQQQQQQQQQQQQQQQQQQQQQ",
"QQQQQQQQQQQQQQQQQQQQQQQQQQQQQQQQQQQQQQQQQQQQQQQQQQQQQQQQQQQQQQQQQQQQQQQQQQQQQQQQ",
"QQQQQQQQQQQQQQQQQQQQQQQQQQQQQQQQQQQQQQQQQQQQQQQQQQQQQQQQQQQQQQQQQQQQQQQQQQQQQQQQ",
"QQQQQQQQQQQQQQQQQQQQQQQQQQQQQQQQQQQQQQQQQQQQQQQQQQQQQQQQQQQQQQQQQQQQQQQQQQQQQQQQ",
"QQQQQQQQQQQQQQQQQQQQQQQQQQQQQQQQQQQQQQQQQQQQQQQQQQQQQQQQQQQQQQQQQQQQQQQQQQQQQQQQ",
"QQQQQQQQQQQQQQQQQQQQQQQQQQQQQQQQQQQQQQQQQQQQQQQQQQQQQQQQQQQQQQQQQQQQQQQQQQQQQQQQ",
"QQQQQQQQQQQQQQQQQQQQQQQQQQQQQQQQQQQQQQQQQQQQQQQQQQQQQQQQQQQQQQQQQQQQQQQQQQQQQQQQ",
"QQQQQQQQQQQQQQQQQQQQQQQQQQQQQQQQQQQQQQQQQQQQQQQQQQQQQQQQQQQQQQQQQQQQQQQQQQQQQQQQ",
"QQQQQQQQQQQQQQQQQQQQQQQQQQQQQQQQQQQQQQQQQQQQQQQQQQQQQQQQQQQQQQQQQQQQQQQQQQQQQQQQ",
"QQQQQQQQQQQQQQQQQQQQQQQQQQQQQQQQQQQQQQQQQQQQQQQQQQQQQQQQQQQQQQQQQQQQQQQQQQQQQQQQ",
"QQQQQQQQQQQQQQQQQQQQQQQQQQQQQQQQQQQQQQQQQQQQQQQQQQQQQQQQQQQQQQQQQQQQQQQQQQQQQQQQ",
"QQQQQQQQQQQQQQQQQQQQQQQQQQQQQQQQQQQQQQQQQQQQQQQQQQQQQQQQQQQQQQQQQQQQQQQQQQQQQQQQ"
};
