/* XPM */
static char *xpm_[] = {
/* columns rows colors chars-per-pixel */
"80 80 37 1 ",
"  c #B70900",
". c #BB1505",
"X c #BE1F10",
"o c #BF2314",
"O c #C32F21",
"+ c #C02718",
"@ c #C32F21",
"# c #C5382A",
"$ c #C73F32",
"% c #CA493D",
"& c #CC4F43",
"* c #CE564B",
"= c #D16055",
"- c #D3675C",
"; c #D56E64",
": c #D56E64",
"> c #D7766D",
", c #D97C73",
"< c #DC877F",
"1 c #DE8E87",
"2 c #E19790",
"3 c #E29D96",
"4 c #E5A59F",
"5 c #E6A7A1",
"6 c #E8B0AA",
"7 c #E9B3AD",
"8 c #EAB6B1",
"9 c #ECBDB9",
"0 c #EEC5C1",
"q c #F1D0CD",
"w c #F3D5D2",
"e c #F4DBD8",
"r c #F5DEDC",
"t c #F8E6E4",
"y c #FAEEED",
"u c #FFFEFE",
"i c None",
/* pixels */
"iiiiiiiiiiiiiiiiiiiiiiiiiiiiiiiiiiiiiiiiiiiiiiiiiiiiiiiiiiiiiiiiiiiiiiiiiiiiiiii",
"iiiiiiiiiiiiiiiiiiiiiiiiiiiiiiiiiiiiiiiiiiiiiiiiiiiiiiiiiiiiiiiiiiiiiiiiiiiiiiii",
"iiiiiiiiiiiiiiiiiiiiiiiiiiiiiiiiiiiiiiiiiiiiiiiiiiiiiiiiiiiiiiiiiiiiiiiiiiiiiiii",
"iiiiiiiiiiiiiiiiiiiiiiiiiiiiiiiiiiiiiiiiiiiiiiiiiiiiiiiiiiiiiiiiiiiiiiiiiiiiiiii",
"iiiiiiiiiiiiiiiiiiiiiiiiiiiiiiiiiiiiiiiiiiiiiiiiiiiiiiiiiiiiiiiiiiiiiiiiiiiiiiii",
"iiiiiiiiiiiiiiiiiiiiiiiiiiiiiiiiiiiiiiiiiiiiiiiiiiiiiiiiiiiiiiiiiiiiiiiiiiiiiiii",
"iiiiiiiiiiiiiiiiiiiiiiiiiiiiiiiiiiiiiiiiiiiiiiiiiiiiiiiiiiiiiiiiiiiiiiiiiiiiiiii",
"iiiiiiiiiiiiiiiiiiiiiiiiiiiiiiiiiiiiiiiiiiiiiiiiiiiiiiiiiiiiiiiiiiiiiiiiiiiiiiii",
"iiiiiiiiiiiiiiiiiiiiiiiiiiiiiiiiiiiiiiiiiiiiiiiiiiiiiiiiiiiiiiiiiiiiiiiiiiiiiiii",
"iiiiiiiiiiiiiiiiiiiiiiiiiiiiiiiiiiiiiiiiiiiiiiiiiiiiiiiiiiiiiiiiiiiiiiiiiiiiiiii",
"iiiiiiiiiiiiiiiiiiiiiiiiiiiiiiiiiiiiiiiiiiiiiiiiiiiiiiiiiiiiiiiiiiiiiiiiiiiiiiii",
"iiiiiiiiiiiiiiiiiiiiiiiiiiiiiiiiiiiiiiiiiiiiiiiiiiiiiiiiiiiiiiiiiiiiiiiiiiiiiiii",
"iiiiiiiiiiiiiiiiiiiiiiiiiiiiiiiiiiiiiiiiiiiiiiiiiiiiiiiiiiiiiiiiiiiiiiiiiiiiiiii",
"iiiiiiiiiiiiiiiiiiiiiiiiiiiiiiiiiiiiiiiiiiiiiiiiiiiiiiiiiiiiiiiiiiiiiiiiiiiiiiii",
"iiiiiiiiiiiiiiiiiiiiiiiiiiiiiiiiiiiiiiiiiiiiiiiiiiiiiiiiiiiiiiiiiiiiiiiiiiiiiiii",
"iiiiiiiiiiiiiiiiiiiiiiiiiiiiiiiiiiiiiiiiiiiiiiiiiiiiiiiiiiiiiiiiiiiiiiiiiiiiiiii",
"iiiiiiiiiiiiiiiiiiiiiiiiiiiiiiiiiiiiiiiiiiiiiiiiiiiiiiiiiiiiiiiiiiiiiiiiiiiiiiii",
"iiiiiiiiiiiiiiiiiiiiiiiiiiiiiiiiiiiiiiiiiiiiiiiiiiiiiiiiiiiiiiiiiiiiiiiiiiiiiiii",
"iiiiiiiiiiiiiiiiiiiiiiiiiiiiiiiiiiiiiiiiiiiiiiiiiiiiiiiiiiiiiiiiiiiiiiiiiiiiiiii",
"iiiiiiiiiiiiiiiiiiiiiiiiiiiiiiiiiiiiiiiiiiiiiiiiiiiiiiiiiiiiiiiiiiiiiiiiiiiiiiii",
"iiiiiiiiiiiiiiiiiiiiiiiiiiiiiiiiiiiiiiiiiiiiiiiiiiiiiiiiiiiiiiiiiiiiiiiiiiiiiiii",
"iii+oo+oX+++++++++++++++oo+++++oooo+oo+o+..................................o+iii",
"iii++Xoo+Xoo+ooX+o+Xoooooooo+ooo++o+ooooo>111111111111111111111111111111111*.iii",
"iiiX++X+XoooooooooX+XoooooooooooXX+Xoooooyuuuuuuuuuuuuuuuuuuuuuuuuuuuuuuuuu1.iii",
"iiio+X+X+X+XoooooX+Xoooooooooooo+X+X++X+owyuuuuuuuuuuuuuuuuuuuuuuuuuuuuuuuu<.iii",
"iiioX+X+X+X+ooooX+X+ooooooooooooX+X+X++Xoeyuuuuuuuuuuuuuuuuuuuuuuuuuuuuuuuu1.iii",
"iii++XX+X+++oooooo+Xoooooooooooo+X+XX+X+owuuuuuuuuuuuuuyeqqwuuuuuuuuuuuuuuu1.iii",
"iiioX++X+X+XooooX+X+ooooXoooooooX+X++X+Xowuuuuuuuuuuu7-@oXXo#;0yuuuuuuuuuuu<.iii",
"iiioo+X+X+X+X+oo+oooooooX++X+XooX+X++X+Xoeuuuuuuuuur&..XX++XX..*yuuuuuuuuuu<.iii",
"iii+oo+++X+X+Xoooooooooo+XX+X+oo+X++X+++oeuuuuuuuuwo.++++X+Xo++.oquuuuuuuuu<.iii",
"iiio+X++++++++++XX+oooooX++X+ooo+X+.+XXXowuuuuuuuy$X+++X+++++X++.oyuuuuuuuu1.iii",
"iiioX+..........++oooooo+XX+oooo+X+3y7+Xoeuuuuuuu<.oX+X+....+++++.-uuuuuuuu1.iii",
"iii++X<08898771%.++X+ooo+Xo+o+oo+.<uuu3.owyuuuuuy@oo+++.;98>X+o+++Xeuuuuuuu1.iii",
"iiio+.8uuuuuuuuu1.X+Xo+oX+oooooo+.3uyu0.Oeuuuuuu9X+o++.=uuuu>.+oX+.3uuuuuuu<.iii",
"iiio+.7uuuuuuuuuu>.++Xo+++ooo+oo+.%uuu=Xowuuuuuu2.++++.7uuuuq.+o++.,uuuuuuu1.iii",
"iiio+.7uuu8;7uuuueX+X++oX.o+++ooX+X$,&.+owuuuuuu> .... 0uuuuq.+o++.:uuuuuuu1.iii",
"iiio+.7uuu<  1uuuy#ooo.o@#X.X...X+X. .X+oeuuuuuuq777777yuuuu8.+o++.>uuuuuuu1.iii",
"iiio+.7uyu1Xo&yuuu#XoX>wyye;-q70%.*989-.oruuuuuuuuuuuuuuuuuu,.++o+.2uuuuuuu1.iii",
"iii++.7uuu< .6uuuyooX4uuuuuuyuuu= >uuu1.oeuuuuuuuuuuuuuuuuuy+Xooooowuuuuuuu1.iii",
"iiio+.7uuuw3quuuu3.X;uuuuuuuuuuu= :uuu1.oeuuuuuuuuuuuuuuuuu>.+o++.-uuuuuuuu< iii",
"iiio+.7uuuuuuuuu9oXoeuuuw;-8uuuu=.:uyu1.oeuuuuuuuuuuuuuuuu8.+oo+oXwuuuuuuuu1.iii",
"iii++.7uuuuuuuy-ooX&uuuy@...quyu= >uuu1.oeuuuuuuuuuuuuuuuy@X++o+.4uuuuuuuuu1.iii",
"iiio+.7uyu6yuuu&.+.-uuu8.+@.1uuu= >uuu1.oeuuuuuuuuuuuuuuy$.+o++.>uuuuuuuuuu1.iii",
"iiio+.7uuu<1uuuy#oX-uuuw.X+.3uuu= >uuu1 oeuuuuuuuuuuuuuy%.++o+.:uuuuuuuuuuu<.iii",
"iiio+.7uyu1.ruuuqoX$uuuu1@o;yuuy= :uuu1.oeuuuuuuuuuuuuu%.+oo+.,uuuuuuuuuuuu<.iii",
"iiio+.7uuu1 =uuuu3..7uuuuyyyuuuu= >uuu1.Oruuuuuuuuuuuu&.++oo.1uuuuuuuuuuuuu1.iii",
"iiioo.7uuu1..5yuuu;.#yuuuuuuuuuu= >uuu1.oeuuuuuuuuuuu*.++ooX1yyyyyyyuuuuuuu1.iii",
"iiio+.6uyy<.o@quyuy%.$9uuuy72yyy*.;uyu<.owuuuuuuuuuu=.+oo+oo#Oo+O@o>uuuuuuu1.iii",
"iii+XX@###+++X+####@+X.&,,*.+##@+++###+Xoeuuuuuuuuu;.++X+X+XXXXXoo.:uuuuuuu1.iii",
"iiio++XXXXX++XX+XXXXoo+...X+oXXXX++.+X+Xoeuuuuuuuu;.++X+X+XX++X+o+.>uuuuuuu<.iii",
"iiio+X+X+X+XX++++o+oooo++++Xooo++X++++X+owuuuuuuu,.+++++++++++++o+X>uuuuuuu1.iii",
"iii+X+X+++X++X+XooX+X+ooX+X+ooooX+X+X++ooeuuuuuu; ................ ;uuuuuuu1.iii",
"iiioooX+X++XX++Xoo+Xoooo+XooX+oo++X+o+oooeyuuuut13122312222212231219uuuuuuu1.iii",
"iii+o++X++X++XX++oX+ooooX++Xoooo+X+Xooo+owuuuuuuuuuuuuuuuuuuuuuuuuuuuuuuuuu1.iii",
"iiioo+X+X++X+X+Xoooooooo+X+oooooX+X+o+oooruuuuuuuuuuuuuuuuyuuuuuuuuuuuuuuuu<.iii",
"iiio+X+X+XX+X+X+ooooooooX+X+oooo+X+Xo+oooquuuuuuuuuuuuuuuuuuuuuuuuuuuuuyuuu< iii",
"iiioooooX+ooooooooooooooooooooooX+oooooooeuuuuuuuuuyuuuuuuuuuuuuuuuuuuuuuuu1.iii",
"iiiooooo+Xoooooooooooooooooooooo+Xooooooo;<>,,<>,><<,,>>,,<>>,,,<>><<>><,><&Xiii",
"iiioXXooXoooXooXooooXoXoXXooXXooXoooXooXo. . . .. .  ... . . . . ... . ..  .oiii",
"iiiiiiiiiiiiiiiiiiiiiiiiiiiiiiiiiiiiiiiiiiiiiiiiiiiiiiiiiiiiiiiiiiiiiiiiiiiiiiii",
"iiiiiiiiiiiiiiiiiiiiiiiiiiiiiiiiiiiiiiiiiiiiiiiiiiiiiiiiiiiiiiiiiiiiiiiiiiiiiiii",
"iiiiiiiiiiiiiiiiiiiiiiiiiiiiiiiiiiiiiiiiiiiiiiiiiiiiiiiiiiiiiiiiiiiiiiiiiiiiiiii",
"iiiiiiiiiiiiiiiiiiiiiiiiiiiiiiiiiiiiiiiiiiiiiiiiiiiiiiiiiiiiiiiiiiiiiiiiiiiiiiii",
"iiiiiiiiiiiiiiiiiiiiiiiiiiiiiiiiiiiiiiiiiiiiiiiiiiiiiiiiiiiiiiiiiiiiiiiiiiiiiiii",
"iiiiiiiiiiiiiiiiiiiiiiiiiiiiiiiiiiiiiiiiiiiiiiiiiiiiiiiiiiiiiiiiiiiiiiiiiiiiiiii",
"iiiiiiiiiiiiiiiiiiiiiiiiiiiiiiiiiiiiiiiiiiiiiiiiiiiiiiiiiiiiiiiiiiiiiiiiiiiiiiii",
"iiiiiiiiiiiiiiiiiiiiiiiiiiiiiiiiiiiiiiiiiiiiiiiiiiiiiiiiiiiiiiiiiiiiiiiiiiiiiiii",
"iiiiiiiiiiiiiiiiiiiiiiiiiiiiiiiiiiiiiiiiiiiiiiiiiiiiiiiiiiiiiiiiiiiiiiiiiiiiiiii",
"iiiiiiiiiiiiiiiiiiiiiiiiiiiiiiiiiiiiiiiiiiiiiiiiiiiiiiiiiiiiiiiiiiiiiiiiiiiiiiii",
"iiiiiiiiiiiiiiiiiiiiiiiiiiiiiiiiiiiiiiiiiiiiiiiiiiiiiiiiiiiiiiiiiiiiiiiiiiiiiiii",
"iiiiiiiiiiiiiiiiiiiiiiiiiiiiiiiiiiiiiiiiiiiiiiiiiiiiiiiiiiiiiiiiiiiiiiiiiiiiiiii",
"iiiiiiiiiiiiiiiiiiiiiiiiiiiiiiiiiiiiiiiiiiiiiiiiiiiiiiiiiiiiiiiiiiiiiiiiiiiiiiii",
"iiiiiiiiiiiiiiiiiiiiiiiiiiiiiiiiiiiiiiiiiiiiiiiiiiiiiiiiiiiiiiiiiiiiiiiiiiiiiiii",
"iiiiiiiiiiiiiiiiiiiiiiiiiiiiiiiiiiiiiiiiiiiiiiiiiiiiiiiiiiiiiiiiiiiiiiiiiiiiiiii",
"iiiiiiiiiiiiiiiiiiiiiiiiiiiiiiiiiiiiiiiiiiiiiiiiiiiiiiiiiiiiiiiiiiiiiiiiiiiiiiii",
"iiiiiiiiiiiiiiiiiiiiiiiiiiiiiiiiiiiiiiiiiiiiiiiiiiiiiiiiiiiiiiiiiiiiiiiiiiiiiiii",
"iiiiiiiiiiiiiiiiiiiiiiiiiiiiiiiiiiiiiiiiiiiiiiiiiiiiiiiiiiiiiiiiiiiiiiiiiiiiiiii",
"iiiiiiiiiiiiiiiiiiiiiiiiiiiiiiiiiiiiiiiiiiiiiiiiiiiiiiiiiiiiiiiiiiiiiiiiiiiiiiii",
"iiiiiiiiiiiiiiiiiiiiiiiiiiiiiiiiiiiiiiiiiiiiiiiiiiiiiiiiiiiiiiiiiiiiiiiiiiiiiiii",
"iiiiiiiiiiiiiiiiiiiiiiiiiiiiiiiiiiiiiiiiiiiiiiiiiiiiiiiiiiiiiiiiiiiiiiiiiiiiiiii"
};
