/* XPM */
static char *xpm_[] = {
/* columns rows colors chars-per-pixel */
"80 80 232 2 ",
"   c #A71330",
".  c #A71330",
"X  c #A71330",
"o  c #A71330",
"O  c #A71330",
"+  c #A71330",
"@  c #A71330",
"#  c #A71330",
"$  c #A71330",
"%  c #A71330",
"&  c #A71330",
"*  c #A71330",
"=  c #A71330",
"-  c #A71330",
";  c #A71330",
":  c #A71330",
">  c #A71330",
",  c #A71330",
"<  c #A71330",
"1  c #A71330",
"2  c #A71330",
"3  c #A71330",
"4  c #A71330",
"5  c #A71330",
"6  c #A71330",
"7  c #A71330",
"8  c #A71330",
"9  c #A71330",
"0  c #A71330",
"q  c #A71330",
"w  c #A71330",
"e  c #A71330",
"r  c #A71330",
"t  c #A71330",
"y  c #A71330",
"u  c #A71330",
"i  c #A71330",
"p  c #A71330",
"a  c #A71330",
"s  c #A71330",
"d  c #A71330",
"f  c #A71330",
"g  c #A71330",
"h  c #A71330",
"j  c #A71330",
"k  c #A71330",
"l  c #A71330",
"z  c #A71330",
"x  c #A71330",
"c  c #A71330",
"v  c #A71330",
"b  c #A71330",
"n  c #A71330",
"m  c #A71330",
"M  c #A71330",
"N  c #A71330",
"B  c #A71330",
"V  c #A71330",
"C  c #A71330",
"Z  c #A71330",
"A  c #A71330",
"S  c #A71330",
"D  c #A71330",
"F  c #A71330",
"G  c #A71330",
"H  c #A71330",
"J  c #A71330",
"K  c #A71330",
"L  c #A71330",
"P  c #A71330",
"I  c #A71330",
"U  c #A71330",
"Y  c #A71330",
"T  c #A71330",
"R  c #A71330",
"E  c #A71330",
"W  c #A71330",
"Q  c #A71330",
"!  c #A71330",
"~  c #A71330",
"^  c #A71330",
"/  c #A71330",
"(  c #A71330",
")  c #A71330",
"_  c #A71330",
"`  c #A71330",
"'  c #A71330",
"]  c #A71330",
"[  c #A71330",
"{  c #A71330",
"}  c #A71330",
"|  c #A71330",
" . c #A71330",
".. c #A71330",
"X. c #A71330",
"o. c #A71330",
"O. c #A71330",
"+. c #A71330",
"@. c #A71330",
"#. c #A71330",
"$. c #A71330",
"%. c #A71330",
"&. c #A71330",
"*. c #A71330",
"=. c #A71330",
"-. c #A71330",
";. c #A71330",
":. c #A71330",
">. c #A71330",
",. c #A71330",
"<. c #A71330",
"1. c #A71330",
"2. c #A71330",
"3. c #A71330",
"4. c #A71330",
"5. c #A71330",
"6. c #A71330",
"7. c #A71330",
"8. c #A71330",
"9. c #A71330",
"0. c #A71330",
"q. c #A71330",
"w. c #A71330",
"e. c #A71330",
"r. c #A71330",
"t. c #A71330",
"y. c #A71330",
"u. c #A71330",
"i. c #A71330",
"p. c #A71330",
"a. c #A71330",
"s. c #A71330",
"d. c #A71330",
"f. c #A71330",
"g. c #A71330",
"h. c #A71330",
"j. c #A71330",
"k. c #A71330",
"l. c #A71330",
"z. c #A71330",
"x. c #A71330",
"c. c #A71330",
"v. c #A71330",
"b. c #A71330",
"n. c #A71330",
"m. c #A71330",
"M. c #A71330",
"N. c #A71330",
"B. c #A71330",
"V. c #A71330",
"C. c #A71330",
"Z. c #A71330",
"A. c #A71330",
"S. c #A71330",
"D. c #A71330",
"F. c #A71330",
"G. c #A71330",
"H. c #A71330",
"J. c #A71330",
"K. c #A71330",
"L. c #A71330",
"P. c #A71330",
"I. c #A71330",
"U. c #A71330",
"Y. c #A71330",
"T. c #A71330",
"R. c #A71330",
"E. c #A71330",
"W. c #A71330",
"Q. c #A71330",
"!. c #A71330",
"~. c #A71330",
"^. c #A71330",
"/. c #A71330",
"(. c #A71330",
"). c #A71330",
"_. c #A71330",
"`. c #A71330",
"'. c #A71330",
"]. c #A71330",
"[. c #A71330",
"{. c #A71330",
"}. c #A71330",
"|. c #A71330",
" X c #A71330",
".X c #A71330",
"XX c #A71330",
"oX c #A71330",
"OX c #A71330",
"+X c #A71330",
"@X c #A71330",
"#X c #A71330",
"$X c #A71330",
"%X c #A71330",
"&X c #A71330",
"*X c #A71330",
"=X c #A71330",
"-X c #A71330",
";X c #A71330",
":X c #A71330",
">X c #A71330",
",X c #A71330",
"<X c #A71330",
"1X c #A71330",
"2X c #A71330",
"3X c #A71330",
"4X c #A71330",
"5X c #A71330",
"6X c #A71330",
"7X c #A71330",
"8X c #A71330",
"9X c #A71330",
"0X c #A71330",
"qX c #A71330",
"wX c #A71330",
"eX c #A71330",
"rX c #A71330",
"tX c #A71330",
"yX c #A71330",
"uX c #A71330",
"iX c #A71330",
"pX c #A71330",
"aX c #A71330",
"sX c #A71330",
"dX c #A71330",
"fX c #A71330",
"gX c #A71330",
"hX c #A71330",
"jX c #A71330",
"kX c #A71330",
"lX c #A71330",
"zX c None",
/* pixels */
"zXzXzXzXzXzXzXzXzXzXzXzXzXzXzXzXzXzXzXzXzXzXzXzXzXzXzXzXzXzXzXzXzXzXzXzXzXzXzXzXzXzXzXzXzXzXzXzXzXzXzXzXzXzXzXzXzXzXzXzXzXzXzXzXzXzXzXzXzXzXzXzXzXzXzXzXzXzXzXzX",
"zXzXzXzXzXzXzXzXzXzXzXzXzXzXzXzXzXzXzXzXzXzXzXzXzXzXzXzXzXzXzXzXzXzXzXzXzXzXzXzXzXzXzXzXzXzXzXzXzXzXzXzXzXzXzXzXzXzXzXzXzXzXzXzXzXzXzXzXzXzXzXzXzXzXzXzXzXzXzXzX",
"zXzXzXzXzXzXzXzXzXzXzXzXzXzXzXzXzXzXzXzXzXzXzXzXzXzXzXzXzXzXzXzXzXzXzXzXzXzXzXzXzXzXzXzXzXzXzXzXzXzXzXzXzXzXzXzXzXzXzXzXzXzXzXzXzXzXzXzXzXzXzXzXzXzXzXzXzXzXzXzX",
"zXzXzXzXzXzXzXzXzXzXzXzXzXzXzXzXzXzXzXzXzXzXzXzXzXzXzXzXzXzXzXzXzXzXzXzXzXzXzXzXzXzXzXzXzXzXzXzXzXzXzXzXzXzXzXzXzXzXzXzXzXzXzXzXzXzXzXzXzXzXzXzXzXzXzXzXzXzXzXzX",
"zXzXzXzXzXzXzXzXzXzXzXzXzXzXzXzXzXzXzXzXzXzXzXzXzXzXzXzXzXzXzXzXzXzXzXzXzXzXzXzXzXzXzXzXzXzXzXzXzXzXzXzXzXzXzXzXzXzXzXzXzXzXzXzXzXzXzXzXzXzXzXzXzXzXzXzXzXzXzXzX",
"zXzXzXzXzXzXzXzXzXzXzXzXzXzXzXzXzXzXzXzXzXzXzXzXzXzXzXzXzXzXzXzXzXzXzXzXzXzXzXzXzXzXzXzXzXzXzXzXzXzXzXzXzXzXzXzXzXzXzXzXzXzXzXzXzXzXzXzXzXzXzXzXzXzXzXzXzXzXzXzX",
"zXzXzXzXzXzXzXzXzXzXzXzXzXzXzXzXzXzXzXzXzXzXzXzXzXzXzXzXzXzXzXzXzXzXzXzXzXzXzXzXzXzXzXzXzXzXzXzXzXzXzXzXzXzXzXzXzXzXzXzXzXzXzXzXzXzXzXzXzXzXzXzXzXzXzXzXzXzXzXzX",
"zXzXzXzXzXzXzXzXzXzXzXzXzXzXzXzXzXzXzXzXzXzXzXzXzXzXzXzXzXzXzXzXzXzXzXzXzXzXzXzXzXzXzXzXzXzXzXzXzXzXzXzXzXzXzXzXzXzXzXzXzXzXzXzXzXzXzXzXzXzXzXzXzXzXzXzXzXzXzXzX",
"zXzXzXzXzXzXzXzXzXzXzXzXzXzXzXzXzXzXzXzXzXzXzXzXzXzXzXzXzXzXzXzXzXzXzXzXzXzXzXzXzXzXzXzXzXzXzXzXzXzXzXzXzXzXzXzXzXzXzXzXzXzXzXzXzXzXzXzXzXzXzXzXzXzXzXzXzXzXzXzX",
"zXzXzXzXzXzXzXzXzXzXzXzXzXzXzXzXzXzXzXzXzXzXzXzXzXzXzXzXzXzXzXzXzXzXzXzXzXzXzXzXzXzXzXzXzXzXzXzXzXzXzXzXzXzXzXzXzXzXzXzXzXzXzXzXzXzXzXzXzXzXzXzXzXzXzXzXzXzXzXzX",
"zXzXzXzXzXzXzXzXzXzXzXzXzXzXzXzXzXzXzXzXzXzXzXzXzXzXzXzXzXzXzXzXzXzXzXzXzXzXzXzXzXzXzXzXzXzXzXzXzXzXzXzXzXzXzXzXzXzXzXzXzXzXzXzXzXzXzXzXzXzXzXzXzXzXzXzXzXzXzXzX",
"zXzXzXzXzXzXzXzXzXzXzXzXzXzXzXzXzXzXzXzXzXzXzXzXzXzXzXzXzXzXzXzXzXzXzXzXzXzXzXzXzXzXzXzXzXzXzXzXzXzXzXzXzXzXzXzXzXzXzXzXzXzXzXzXzXzXzXzXzXzXzXzXzXzXzXzXzXzXzXzX",
"zXzXzXzXzXzXzXzXzXzXzXzXzXzXzXzXzXzXzXzXzXzXzXzXzXzXzXzXzXzXzXzXzXzXzXzXzXzXzXzXzXzXzXzXzXzXzXzXzXzXzXzXzXzXzXzXzXzXzXzXzXzXzXzXzXzXzXzXzXzXzXzXzXzXzXzXzXzXzXzX",
"zXzXzXzXzXzXzXzXzXzXzXzXzXzXzXzXzXzXzXzXzXzXzXzXzXzXzXzXzXzXzXzXzXzXzXzXzXzXzXzXzXzXzXzXzXzXzXzXzXzXzXzXzXzXzXzXzXzXzXzXzXzXzXzXzXzXzXzXzXzXzXzXzXzXzXzXzXzXzXzX",
"zXzXzXzXzXzXzXzXzXzXzXzXzXzXzXzXzXzXzXzXzXzXzXzXzXzXzXzXzXzXzXzXzXzXzXzXzXzXzXzXzXzXzXzXzXzXzXzXzXzXzXzXzXzXzXzXzXzXzXzXzXzXzXzXzXzXzXzXzXzXzXzXzXzXzXzXzXzXzXzX",
"zXzXzXzXzXzXzXzXzXzXzXzXzXzXzXzXzXzXzXzXzXzXzXzXzXzXzXzXzXzXzXzXzXzXzXzXzXzXzXzXzXzXzXzXzXzXzXzXzXzXzXzXzXzXzXzXzXzXzXzXzXzXzXzXzXzXzXzXzXzXzXzXzXzXzXzXzXzXzXzX",
"zXzXzXzXzXzXzXzXzXzXzXzXzXzXzXzXzXzXzXzXzXzXzXzXzXzXzXzXzXzXzXzXzXzXzXzXzXzXzXzXzXzXzXzXzXzXzXzXzXzXzXzXzXzXzXzXzXzXzXzXzXzXzXzXzXzXzXzXzXzXzXzXzXzXzXzXzXzXzXzX",
"zXzXzXzXzXzXzXzXzXzXzXzXzXzXzXzXzXzXzXzXzXzXzXzXzXzXzXzXzXzXzXzXzXzXzXzXzXzXzXzXzXzXzXzXzXzXzXzXzXzXzXzXzXzXzXzXzXzXzXzXzXzXzXzXzXzXzXzXzXzXzXzXzXzXzXzXzXzXzXzX",
"zXzXzXzXzXzXzXzXzXzXzXzXzXzXzXzXzXzXzXzXzXzXzXzXzXzXzXzXzXzXzXzXzXzXzXzXzXzXzXzXzXzXzXzXzXzXzXzXzXzXzXzXzXzXzXzXzXzXzXzXzXzXzXzXzXzXzXzXzXzXzXzXzXzXzXzXzXzXzXzX",
"zXzXzXzXzXzXzXzXzXzXzXzXzXzXzXzXzXzXzXzXzXzXzXzXzXzXzXzXzXzXzXzXzXzXzXzXzXzXzXzXzXzXzXzXzXzXzXzXzXzXzXzXzXzXzXzXzXzXzXzXzXzXzXzXzXzXzXzXzXzXzXzXzXzXzXzXzXzXzXzX",
"zXzXzXzXzXzXzXzXzXzXzXzXzXzXzXzXzXzXzXzXzXzXzXzXzXzXzXzXzXzXzXzXzXzXzXzXzXzXzXzXzXzXzXzXzXzXzXzXzXzXzXzXzXzXzXzXzXzXzXzXzXzXzXzXzXzXzXzXzXzXzXzXzXzXzXzXzXzXzXzX",
"zXzXzXzXzXzXzXzXzXzXzXzXzXzXzXzXzXzXzXzXzXzXzXzXzXzXzXzXzXzXzXzXzXzXzXzXzXzXzXzXzXzXzXzXzXzXzXzXzXzXzXzXzXzXzXzXzXzXzXzXzXzXzXzXzXzXzXzXzXzXzXzXzXzXzXzXzXzXzXzX",
"zXzXzXzXzXzXzXzXzXzXzXzXzXzXzXzXzXzXzXzXzXzXzXzXzXzXzXzXzXzXzXzXzXzXzXzXzXzXzXzXzXzXzXzXzXzXzXzXzXzXzXzXzXzXzXzXzXzXzXzXzXzXzXzXzXzXzXzXzXzXzXzXzXzXzXzXzXzXzXzX",
"zXzXzXzXzXzXzXzXzXzXzXzXzXzXzXzXzXzXzXzXzXzXzXzXzXzXzXzXzXzXzXzXzXzXzXzXzXzXzXzXzXzXzXzXzXzXzXzXzXzXzXzXzXzXzXzXzXzXzXzXzXzXzXzXzXzXzXzXzXzXzXzXzXzXzXzXzXzXzXzX",
"zXzXzXzXzXzXzXzXzXzXzXzXzXzXzXzXzXzXzXzXzXzXzXzXzXzXzXzXzXzXzXzXzXzXzXzXzXzXzXzXzXzXzXzXzXzXzXzXzXzXzXzXzXzXzXzXzXzXzXzXzXzXzXzXzXzXzXzXzXzXzXzXzXzXzXzXzXzXzXzX",
"zXzXzXzXzXzXzXzXzXzXzXzXzXzXzXzXzXzXzXzXzXzXzXzXzXzXzXzXzXzXzXzXzXzXzXzXzXzXzXzXzXzXzXzXzXzXzXzXzXzXzXzXzXzXzXzXzXzXzXzXzXzXzXzXzXzXzXzXzXzXzXzXzXzXzXzXzXzXzXzX",
"zXzXzXzXzXzXzXzXzXzXzXzXzXzXzXzXzXzXzXzXzXzXzXzXzXzXzXzXzXzXzXzXzXzXzXzXzXzXzXzXzXzXzXzXzXzXzXzXzXzXzXzXzXzXzXzXzXzXzXzXzXzXzXzXzXzXzXzXzXzXzXzXzXzXzXzXzXzXzXzX",
"zXzXzXzXzXzXzXzXzXzXzXzXzXzXzXzXzXzXzXzXzXzXzXzXzXzXzXzXzXzXzXzXzXzXzXzXzXzXzXzXzXzXzXzXzXzXzXzXzXzXzXzXzXzXzXzXzXzXzXzXzXzXzXzXzXzXzXzXzXzXzXzXzXzXzXzXzXzXzXzX",
"zXzXzXzXzXzXzXzXzXzXzXzXzXzXzXzXzXzXzXzXzXzXzXzXzXzXzXzXzXzXzXzXzXzXzXzXzXzXzXzXzXzXzXzXzXzXzXzXzXzXzXzXzXzXzXzXzXzXzXzXzXzXzXzXlXzXzXlXiXsXzXzXzXzXzXzXhXjXlXjX",
"zXzXzXzXzXzXzXzXzXzXzXzXzXzXzXzXzXzXzXzXzXzXzXzXzXzXzXzXzXzXzXzXzXzXzXzXzXzXzXzXzXzXzXzXzXzXzXzXzXzXzXzXzXzXzXzXzXzXzXzXzXzXzXzXlXlXzXlXiX(., @.; ; h.zXhXiXlXlX",
"zXzXzXzXzXzXzXzXzXzXzXzXzXzXzXzXzXzXzXzXzXzXdX-X-X,XzXzXzXzXzXzXzXzXzXzXzXzXzXzXzXzXzXzXzXtX-X-XtXzXzXzXzXzXzXzXzXzXzXzXzXzXzXzXhXlXsXiX0.=.5XwXjXwXe S.sXiXzXzX",
"zXzXzXzXzXzXzXzXzXzXzXzXzXzXzXzXzXzXzXzXzXzXl._ } R -XzXzXzXzXzXzXzXzXzXzXzXzXzXzXzXzXdXzXV  . .$ zXuXzXzXzXzXzXzXzXzXzXzXzXzXzXhXiXiX`.; zXwX4X/.=.iX$ g.zXzXzX",
"zXzXzXzXzXzXzXzXzXzXzXzXzXzXfXfXfXfXfXfXsXsX+X| | | tXhXlXlXlXfXzXzXzXzXzXzXzXzXlXlXlXfXlXn | | 3 lXkXlXlXlXlXzXzXzXlXzXzXzXzXzXzXjXzXv 5Xc.} | | | zXjX  zXzXzX",
"zXzXzXzXzXzXzXzXzXzXzXzXzXzXzXfXkXfXfXfXsXaX{.| | | eXhXlXlXlXfXzXzXzXzXzXzXzXzXlXlXzXlXfXn | | X lXkXlXlXlXzXzXzXzXlXlXzXzXzXzXzXzXjXX rX,.2.| | | wXzX7 kXzXzX",
"zXzXzXzXzXzXzXzXzXzXzXzXzXzXfXfXkXkXhXfXhXfX}.| | | rXhXlXzXfXfXzXzXzXzXzXzXzXzXlXlXhXhXfXn | | e kXjXlXfXfXlXfXzXlXlXlXzXzXzXzXzXzXjX7 >XaX'.| | | rXiX- kXzXzX",
"zXzXzXzXzXzXzXzXzXzXzXfXfXfXiXqXfXfXhXhXhXfX#X| | | tXfXfXfXhXhXuXuXdXuXuXzXzXzXfXfXjXiXlXm | | e kXiXjXhXhXfXfXfXfXfXfXlXlXzXzXjXjXzXa M.wXb.| | | aX`.- zXzXzX",
"zXzXzXzXfXfXfXfXfXfXfXfXfXzXzXqXfXiXhXfXdXhX#X| | | zXzXsXhXfXfXzXzXzXzXzXzXzXuXdXiXhXhXgXm | | N lXaXdXiXhXfXfXyXsXlXlXzXfXhXhXzXjXzXrX@.jX>X=.(.dXzX  7XhXzXzX",
"zXzXzXzXhXhXfXfXzXzXzXfXiXwX).d.m.P.J.f +XkX{.| | | OX(.~.P.s i f z A.r.l.6XzXzXdXaXhXhXjXf | | E `.i.i.H.d i l S.E. XwXwXfXfXfXjXjXjXzX8XJ !.;X%Xa._ {.fXfXzXzX",
"zXzXzXfXhXfXhX<X$Xt.>.} | | | | | | | | u kX(.| | | | | | | | | | | | | | ^ :.o M.1XjXgXjXm | | | | | | | | | | | | | | | X.p $XgXjXgXiXgXwX!.r - C.:XiXhXfXlXzX",
"zXzXzXfX=X9.| | | | | | | | | | | | | | & wX|.| | | | | | | | | | | | | | | | | | | A.jXgXm | | | | | | | | | | | | | | | | | | | ).fXiXiXgXzXzXjXfXaXaXfXfXzXzX",
"zXzXzX  | | | | | | | | | | | | | U :.$.M.lX(.| | | | | 1.r ; u u 3 $.R [ | | | Q | Q 9XgXm | | | | E R : : u $.E E | | | | | | | m kXzXkXzXjXjXjXlXzXzXzXzXzXzX",
"zXzXzX| | | | | | | Z.w.z.5X-XpXlXkXzXzXlXlX(.| | | qXzXkXkXzXlXzXzXdXkX9Xl.!.7.| Q | l.gXc | | m zXzXlXkXzXzXkXzXzXwX>X(.l | | | L kXkXzXkXzXzXkXzXzXzXzXzXzXzX",
"zXzXzX| | | < `.tXfXzXfXpXhXfXfXkXzXlXlXiXiX}.| | | qXzXzXlXlXlXdXdXzXzXdXzXkXlX( | | `.jXm | | m zXfXlXzXlXfXfXlXzXzXzXhXhX).| | | aXlXzXzXzXzXkXkXzXzXzXzXzXzX",
"zXzXzX| | | a.kXfXfXfXfXpXiXfXfXzXzXzXzXiXqX$X| | | rXzXzXzXlXlXzXzXzXzXkXkXtXkXO.| | z gXi | | 8 zXfXzXzXzXkXkXzXlXlXlXsXsX(.| | | eXlXzXzXzXzXzXzXzXzXzXzXzXzX",
"zXzXzX| | | w.fXhXfXfXzXzXzXzXzXfXfXfXfXiXfX$X| | | zXzXfXfXfXfXzXzXzXzXzXzXzXzXO.| | n.pX+ | | 9 zXfXzXkXkXkXkXkXkXkXkXhXfX'.| | | iXjXkXzXzXzXzXzXzXzXzXzXzXzX",
"zXzXzX| | | 9.fXfXfXfXzXzXzXzXzXfXfXfXfXiXfX+X| | | fXzXfXfXfXfXzXzXzXzXzXzXzXzXO.| | z yX+ | | 9 zXfXzXkXkXkXkXkXkXkXfXhXfX).| | | wXjXlXzXzXzXzXzXzXzXzXzXzXzX",
"zXzXzX| | | Q.iXfXfXzXzXzXzXzXzXfXfXfXfXiXhXXX| | | rXfXhXfXsXhXzXdXdXdXdXdXzXzXE | | a.uXM | | r lXhXhXfXhXfXfXfXfXhXhXsXhX}.| | | wXzXlXkXzXzXzXzXzXzXzXzXzXzX",
"zXzXfX| | | 0.iXfXzXzXzXzXzXzXzXfXfXfXfXuXyX X| | | hXfXfXfXhXsXzXzXzXzXzXzXzX9X| | | 5XuXV | | M fXfXfXkXkXkXkXkXkXfXfXhXiXw.| | | aXkXkXkXzXzXzXzXzXzXzXzXzXzX",
"zXzXzX| | | {.dXdXiXzXzXzXzXzXzXzXzXzXzXzXzXXX| | | 3 V.OXM.M.z.a.oX{.).E.l % | | | | ).lX@ | | | ~.Y.!.'. Xj.XXM.r.oXD.2 L | | | J zXzXzXzXzXzXzXzXzXzXzXzXzXzX",
"zXzXzX| | | u.aXiXiXzXzXzXzXzXzXzXzXzXzXjXzX$X| | | | | | | | | | | | | | | | | | | | tXlXc | | | | | | | | | | | | | | | | | | | + zXzXzXzXzXzXzXzXzXzXzXzXzXzX",
"zXzXzX| | | b.zXiXfXfXzXzXzXzXzXzXzXzXzXjXzX+X| | | | | | | | | | | | | | | | | | } XXsXlXq | | | | | | | | | | | | | | | | | | r rXzXlXzXzXzXzXzXzXzXzXzXzXzXzX",
"zXzXzX>.*.| l.zXiXfXlXlXzXzXzXzXzXzXzXzXzXzX-XZ.N.i X | E | | | | | } A P *.# v.eXlXfXyXyX5XT.p m 4 +.| { | | | | | | >   H.'.zXzXzXlXzXzXzXzXzXzXzXzXzXzXzXzXzX",
"zXzXzXzXzXzXzXzXzXzXzXzXzXzXzXzXzXzXzXzXzXzXzXzXfXfXzXzXzXzXzXzXzXzXzXzXzXzXzXzXlXzXzXzXzXzXzXzXkXkXlXlXlXlXzXzXzXzXzXzXlXzXzXzXzXzXzXzXzXzXzXzXzXzXzXzXzXzXzXzX",
"zXzXzXzXzXzXzXzXzXzXzXzXzXzXzXzXzXzXzXzXzXzXzXzXkXfXzXzXzXzXzXzXzXzXzXzXzXzXzXzXzXzXzXzXzXzXzXzXkXkXlXlXzXlXzXzXzXzXzXzXlXzXzXzXzXzXzXzXzXzXzXzXzXzXzXzXzXzXzXzX",
"zXzXzXzXzXzXzXzXzXzXzXzXzXzXzXzXzXzXzXzXzXzXzXzXkXzXzXzXzXzXzXzXzXzXzXzXzXzXzXzXzXzXzXzXzXzXzXzXkXkXkXlXzXzXzXzXzXzXzXzXzXzXzXzXzXzXzXzXzXzXzXzXzXzXzXzXzXzXzXzX",
"zXzXzXzXzXzXzXzXzXzXzXzXzXzXzXzXzXzXzXzXzXzXzXzXkXzXzXzXzXzXzXzXzXzXzXzXzXzXzXzXzXzXzXzXzXzXzXzXkXkXlXlXzXzXzXzXzXzXzXzXzXzXzXzXzXzXzXzXzXzXzXzXzXzXzXzXzXzXzXzX",
"zXzXzXzXzXzXzXzXzXzXzXzXzXzXzXzXzXzXzXzXzXzXzXzXzXzXzXzXzXzXzXzXzXzXzXzXzXzXzXzXzXzXzXzXzXzXzXzXzXzXzXzXzXzXzXzXzXzXzXzXzXzXzXzXzXzXzXzXzXzXzXzXzXzXzXzXzXzXzXzX",
"zXzXzXzXzXzXzXzXzXzXzXzXzXzXzXzXzXzXzXzXzXzXzXzXzXzXzXzXzXzXzXzXzXzXzXzXzXzXzXzXzXzXzXzXzXzXzXzXzXzXzXzXzXzXzXzXzXzXzXzXzXzXzXzXzXzXzXzXzXzXzXzXzXzXzXzXzXzXzXzX",
"zXzXzXzXzXzXzXzXzXzXzXzXzXzXzXzXzXzXzXzXzXzXzXzXzXzXzXzXzXzXzXzXzXzXzXzXzXzXzXzXzXzXzXzXzXzXzXzXzXzXzXzXzXzXzXzXzXzXzXzXzXzXzXzXzXzXzXzXzXzXzXzXzXzXzXzXzXzXzXzX",
"zXzXzXzXzXzXzXzXzXzXzXzXzXzXzXzXzXzXzXzXzXzXzXzXzXzXzXzXzXzXzXzXzXzXzXzXzXzXzXzXzXzXzXzXzXzXzXzXzXzXzXzXzXzXzXzXzXzXzXzXzXzXzXzXzXzXzXzXzXzXzXzXzXzXzXzXzXzXzXzX",
"zXzXzXzXzXzXzXzXzXzXzXzXzXzXzXzXzXzXzXzXzXzXzXzXzXzXzXzXzXzXzXzXzXzXzXzXzXzXzXzXzXzXzXzXzXzXzXzXzXzXzXzXzXzXzXzXzXzXzXzXzXzXzXzXzXzXzXzXzXzXzXzXzXzXzXzXzXzXzXzX",
"zXzXzXzXzXzXzXzXzXzXzXzXzXzXzXzXzXzXzXzXzXzXzXzXzXzXzXzXzXzXzXzXzXzXzXzXzXzXzXzXzXzXzXzXzXzXzXzXzXzXzXzXzXzXzXzXzXzXzXzXzXzXzXzXzXzXzXzXzXzXzXzXzXzXzXzXzXzXzXzX",
"zXzXzXzXzXzXzXzXzXzXzXzXzXzXzXzXzXzXzXzXzXzXzXzXzXzXzXzXzXzXzXzXzXzXzXzXzXzXzXzXzXzXzXzXzXzXzXzXzXzXzXzXzXzXzXzXzXzXzXzXzXzXzXzXzXzXzXzXzXzXzXzXzXzXzXzXzXzXzXzX",
"zXzXzXzXzXzXzXzXzXzXzXzXzXzXzXzXzXzXzXzXzXzXzXzXzXzXzXzXzXzXzXzXzXzXzXzXzXzXzXzXzXzXzXzXzXzXzXzXzXzXzXzXzXzXzXzXzXzXzXzXzXzXzXzXzXzXzXzXzXzXzXzXzXzXzXzXzXzXzXzX",
"zXzXzXzXzXzXzXzXzXzXzXzXzXzXzXzXzXzXzXzXzXzXzXzXzXzXzXzXzXzXzXzXzXzXzXzXzXzXzXzXzXzXzXzXzXzXzXzXzXzXzXzXzXzXzXzXzXzXzXzXzXzXzXzXzXzXzXzXzXzXzXzXzXzXzXzXzXzXzXzX",
"zXzXzXzXzXzXzXzXzXzXzXzXzXzXzXzXzXzXzXzXzXzXzXzXzXzXzXzXzXzXzXzXzXzXzXzXzXzXzXzXzXzXzXzXzXzXzXzXzXzXzXzXzXzXzXzXzXzXzXzXzXzXzXzXzXzXzXzXzXzXzXzXzXzXzXzXzXzXzXzX",
"zXzXzXzXzXzXzXzXzXzXzXzXzXzXzXzXzXzXzXzXzXzXzXzXzXzXzXzXzXzXzXzXzXzXzXzXzXzXzXzXzXzXzXzXzXzXzXzXzXzXzXzXzXzXzXzXzXzXzXzXzXzXzXzXzXzXzXzXzXzXzXzXzXzXzXzXzXzXzXzX",
"zXzXzXzXzXzXzXzXzXzXzXzXzXzXzXzXzXzXzXzXzXzXzXzXzXzXzXzXzXzXzXzXzXzXzXzXzXzXzXzXzXzXzXzXzXzXzXzXzXzXzXzXzXzXzXzXzXzXzXzXzXzXzXzXzXzXzXzXzXzXzXzXzXzXzXzXzXzXzXzX",
"zXzXzXzXzXzXzXzXzXzXzXzXzXzXzXzXzXzXzXzXzXzXzXzXzXzXzXzXzXzXzXzXzXzXzXzXzXzXzXzXzXzXzXzXzXzXzXzXzXzXzXzXzXzXzXzXzXzXzXzXzXzXzXzXzXzXzXzXzXzXzXzXzXzXzXzXzXzXzXzX",
"zXzXzXzXzXzXzXzXzXzXzXzXzXzXzXzXzXzXzXzXzXzXzXzXzXzXzXzXzXzXzXzXzXzXzXzXzXzXzXzXzXzXzXzXzXzXzXzXzXzXzXzXzXzXzXzXzXzXzXzXzXzXzXzXzXzXzXzXzXzXzXzXzXzXzXzXzXzXzXzX",
"zXzXzXzXzXzXzXzXzXzXzXzXzXzXzXzXzXzXzXzXzXzXzXzXzXzXzXzXzXzXzXzXzXzXzXzXzXzXzXzXzXzXzXzXzXzXzXzXzXzXzXzXzXzXzXzXzXzXzXzXzXzXzXzXzXzXzXzXzXzXzXzXzXzXzXzXzXzXzXzX",
"zXzXzXzXzXzXzXzXzXzXzXzXzXzXzXzXzXzXzXzXzXzXzXzXzXzXzXzXzXzXzXzXzXzXzXzXzXzXzXzXzXzXzXzXzXzXzXzXzXzXzXzXzXzXzXzXzXzXzXzXzXzXzXzXzXzXzXzXzXzXzXzXzXzXzXzXzXzXzXzX",
"zXzXzXzXzXzXzXzXzXzXzXzXzXzXzXzXzXzXzXzXzXzXzXzXzXzXzXzXzXzXzXzXzXzXzXzXzXzXzXzXzXzXzXzXzXzXzXzXzXzXzXzXzXzXzXzXzXzXzXzXzXzXzXzXzXzXzXzXzXzXzXzXzXzXzXzXzXzXzXzX",
"zXzXzXzXzXzXzXzXzXzXzXzXzXzXzXzXzXzXzXzXzXzXzXzXzXzXzXzXzXzXzXzXzXzXzXzXzXzXzXzXzXzXzXzXzXzXzXzXzXzXzXzXzXzXzXzXzXzXzXzXzXzXzXzXzXzXzXzXzXzXzXzXzXzXzXzXzXzXzXzX",
"zXzXzXzXzXzXzXzXzXzXzXzXzXzXzXzXzXzXzXzXzXzXzXzXzXzXzXzXzXzXzXzXzXzXzXzXzXzXzXzXzXzXzXzXzXzXzXzXzXzXzXzXzXzXzXzXzXzXzXzXzXzXzXzXzXzXzXzXzXzXzXzXzXzXzXzXzXzXzXzX",
"zXzXzXzXzXzXzXzXzXzXzXzXzXzXzXzXzXzXzXzXzXzXzXzXzXzXzXzXzXzXzXzXzXzXzXzXzXzXzXzXzXzXzXzXzXzXzXzXzXzXzXzXzXzXzXzXzXzXzXzXzXzXzXzXzXzXzXzXzXzXzXzXzXzXzXzXzXzXzXzX",
"zXzXzXzXzXzXzXzXzXzXzXzXzXzXzXzXzXzXzXzXzXzXzXzXzXzXzXzXzXzXzXzXzXzXzXzXzXzXzXzXzXzXzXzXzXzXzXzXzXzXzXzXzXzXzXzXzXzXzXzXzXzXzXzXzXzXzXzXzXzXzXzXzXzXzXzXzXzXzXzX",
"zXzXzXzXzXzXzXzXzXzXzXzXzXzXzXzXzXzXzXzXzXzXzXzXzXzXzXzXzXzXzXzXzXzXzXzXzXzXzXzXzXzXzXzXzXzXzXzXzXzXzXzXzXzXzXzXzXzXzXzXzXzXzXzXzXzXzXzXzXzXzXzXzXzXzXzXzXzXzXzX",
"zXzXzXzXzXzXzXzXzXzXzXzXzXzXzXzXzXzXzXzXzXzXzXzXzXzXzXzXzXzXzXzXzXzXzXzXzXzXzXzXzXzXzXzXzXzXzXzXzXzXzXzXzXzXzXzXzXzXzXzXzXzXzXzXzXzXzXzXzXzXzXzXzXzXzXzXzXzXzXzX",
"zXzXzXzXzXzXzXzXzXzXzXzXzXzXzXzXzXzXzXzXzXzXzXzXzXzXzXzXzXzXzXzXzXzXzXzXzXzXzXzXzXzXzXzXzXzXzXzXzXzXzXzXzXzXzXzXzXzXzXzXzXzXzXzXzXzXzXzXzXzXzXzXzXzXzXzXzXzXzXzX"
};
