/* XPM */
static char *xpm_[] = {
/* columns rows colors chars-per-pixel */
"80 80 229 2 ",
"   c #FFCF25",
".  c #FFCF25",
"X  c #FFCF25",
"o  c #FFCF25",
"O  c #FFCF25",
"+  c #FFCF25",
"@  c #FFCF25",
"#  c #FFCF25",
"$  c #FFCF25",
"%  c #FFCF25",
"&  c #FFCF25",
"*  c #FFCF25",
"=  c #FFCF25",
"-  c #FFCF25",
";  c #FFCF25",
":  c #FFCF25",
">  c #FFCF25",
",  c #FFCF25",
"<  c #FFCF25",
"1  c #FFCF25",
"2  c #FFCF25",
"3  c #FFCF25",
"4  c #FFCF25",
"5  c #FFCF25",
"6  c #FFCF25",
"7  c #FFCF25",
"8  c #FFCF25",
"9  c #FFCF25",
"0  c #FFCF25",
"q  c #FFCF25",
"w  c #FFCF25",
"e  c #FFCF25",
"r  c #FFCF25",
"t  c #FFCF25",
"y  c #FFCF25",
"u  c #FFCF25",
"i  c #FFCF25",
"p  c #FFCF25",
"a  c #FFCF25",
"s  c #FFCF25",
"d  c #FFCF25",
"f  c #FFCF25",
"g  c #FFCF25",
"h  c #FFCF25",
"j  c #FFCF25",
"k  c #FFCF25",
"l  c #FFCF25",
"z  c #FFCF25",
"x  c #FFCF25",
"c  c #FFCF25",
"v  c #FFCF25",
"b  c #FFCF25",
"n  c #FFCF25",
"m  c #FFCF25",
"M  c #FFCF25",
"N  c #FFCF25",
"B  c #FFCF25",
"V  c #FFCF25",
"C  c #FFCF25",
"Z  c #FFCF25",
"A  c #FFCF25",
"S  c #FFCF25",
"D  c #FFCF25",
"F  c #FFCF25",
"G  c #FFCF25",
"H  c #FFCF25",
"J  c #FFCF25",
"K  c #FFCF25",
"L  c #FFCF25",
"P  c #FFCF25",
"I  c #FFCF25",
"U  c #FFCF25",
"Y  c #FFCF25",
"T  c #FFCF25",
"R  c #FFCF25",
"E  c #FFCF25",
"W  c #FFCF25",
"Q  c #FFCF25",
"!  c #FFCF25",
"~  c #FFCF25",
"^  c #FFCF25",
"/  c #FFCF25",
"(  c #FFCF25",
")  c #FFCF25",
"_  c #FFCF25",
"`  c #FFCF25",
"'  c #FFCF25",
"]  c #FFCF25",
"[  c #FFCF25",
"{  c #FFCF25",
"}  c #FFCF25",
"|  c #FFCF25",
" . c #FFCF25",
".. c #FFCF25",
"X. c #FFCF25",
"o. c #FFCF25",
"O. c #FFCF25",
"+. c #FFCF25",
"@. c #FFCF25",
"#. c #FFCF25",
"$. c #FFCF25",
"%. c #FFCF25",
"&. c #FFCF25",
"*. c #FFCF25",
"=. c #FFCF25",
"-. c #FFCF25",
";. c #FFCF25",
":. c #FFCF25",
">. c #FFCF25",
",. c #FFCF25",
"<. c #FFCF25",
"1. c #FFCF25",
"2. c #FFCF25",
"3. c #FFCF25",
"4. c #FFCF25",
"5. c #FFCF25",
"6. c #FFCF25",
"7. c #FFCF25",
"8. c #FFCF25",
"9. c #FFCF25",
"0. c #FFCF25",
"q. c #FFCF25",
"w. c #FFCF25",
"e. c #FFCF25",
"r. c #FFCF25",
"t. c #FFCF25",
"y. c #FFCF25",
"u. c #FFCF25",
"i. c #FFCF25",
"p. c #FFCF25",
"a. c #FFCF25",
"s. c #FFCF25",
"d. c #FFCF25",
"f. c #FFCF25",
"g. c #FFCF25",
"h. c #FFCF25",
"j. c #FFCF25",
"k. c #FFCF25",
"l. c #FFCF25",
"z. c #FFCF25",
"x. c #FFCF25",
"c. c #FFCF25",
"v. c #FFCF25",
"b. c #FFCF25",
"n. c #FFCF25",
"m. c #FFCF25",
"M. c #FFCF25",
"N. c #FFCF25",
"B. c #FFCF25",
"V. c #FFCF25",
"C. c #FFCF25",
"Z. c #FFCF25",
"A. c #FFCF25",
"S. c #FFCF25",
"D. c #FFCF25",
"F. c #FFCF25",
"G. c #FFCF25",
"H. c #FFCF25",
"J. c #FFCF25",
"K. c #FFCF25",
"L. c #FFCF25",
"P. c #FFCF25",
"I. c #FFCF25",
"U. c #FFCF25",
"Y. c #FFCF25",
"T. c #FFCF25",
"R. c #FFCF25",
"E. c #FFCF25",
"W. c #FFCF25",
"Q. c #FFCF25",
"!. c #FFCF25",
"~. c #FFCF25",
"^. c #FFCF25",
"/. c #FFCF25",
"(. c #FFCF25",
"). c #FFCF25",
"_. c #FFCF25",
"`. c #FFCF25",
"'. c #FFCF25",
"]. c #FFCF25",
"[. c #FFCF25",
"{. c #FFCF25",
"}. c #FFCF25",
"|. c #FFCF25",
" X c #FFCF25",
".X c #FFCF25",
"XX c #FFCF25",
"oX c #FFCF25",
"OX c #FFCF25",
"+X c #FFCF25",
"@X c #FFCF25",
"#X c #FFCF25",
"$X c #FFCF25",
"%X c #FFCF25",
"&X c #FFCF25",
"*X c #FFCF25",
"=X c #FFCF25",
"-X c #FFCF25",
";X c #FFCF25",
":X c #FFCF25",
">X c #FFCF25",
",X c #FFCF25",
"<X c #FFCF25",
"1X c #FFCF25",
"2X c #FFCF25",
"3X c #FFCF25",
"4X c #FFCF25",
"5X c #FFCF24",
"6X c #FFCF26",
"7X c #FFCF26",
"8X c #FFCF25",
"9X c #FFCF25",
"0X c #FFD025",
"qX c #FFCF25",
"wX c #FFCF25",
"eX c #FFCF25",
"rX c #FFCF25",
"tX c #FFCF25",
"yX c #FFCF25",
"uX c #FFCF25",
"iX c #FFCF25",
"pX c #FFCF25",
"aX c #FFCF25",
"sX c #FFCF25",
"dX c #FFCF25",
"fX c #FFCF25",
"gX c #FFD024",
"hX c #FFCF25",
"jX c None",
/* pixels */
"jXjXjXjXjXjXjXjXjXjXjXjXjXjXjXjXjXjXjXjXjXjXjXjXjXjXjXjXjXjXjXjXjXjXjXjXjXjXjXjXjXjXjXjXjXjXjXjXjXjXjXjXjXjXjXjXjXjXjXjXjXjXjXjXjXjXjXjXjXjXjXjXjXjXjXjXjXjXjXjX",
"jXjXjXjXjXjXjXjXjXjXjXjXjXjXjXjXjXjXjXjXjXjXjXjXjXjXjXjXjXjXjXjXjXjXjXjXjXjXjXjXjXjXjXjXjXjXjXjXjXjXjXjXjXjXjXjXjXjXjXjXjXjXjXjXjXjXjXjXjXjXjXjXjXjXjXjXjXjXjXjX",
"jXjXjXjXjXjXjXjXjXjXjXjXjXjXjXjXjXjXjXjXjXjXjXjXjXjXjXjXjXjXjXjXjXjXjXjXjXjXjXjXjXjXjXjXjXjXjXjXjXjXjXjXjXjXjXjXjXjXjXjXjXjXjXjXjXjXjXjXjXjXjXjXjXjXjXjXjXjXjXjX",
"jXjXjXjXjXjXjXjXjXjXjXjXjXjXjXjXjXjXjXjXjXjXjXjXjXjXjXjXjXjXjXjXjXjXjXjXjXjXjXjXjXjXjXjXjXjXjXjXjXjXjXjXjXjXjXjXjXjXjXjXjXjXjXjXjXjXjXjXjXjXjXjXjXjXjXjXjXjXjXjX",
"jXjXjXjXjXjXjXjXjXjXjXjXjXjXjXjXjXjXjXjXjXjXjXjXjXjXjXjXjXjXjXjXjXjXjXjXjXjXjXjXjXjXjXjXjXjXjXjXjXjXjXjXjXjXjXjXjXjXjXjXjXjXjXjXjXjXjXjXjXjXjXjXjXjXjXjXjXjXjXjX",
"jXjXjXjXjXjXjXjXjXjXjXjXjXjXjXjXjXjXjXjXjXjXjXjXjXjXjXjXjXjXjXjXjXjXjXjXjXjXjXjXjXjXjXjXjXjXjXjXjXjXjXjXjXjXjXjXjXjXjXjXjXjXjXjXjXjXjXjXjXjXjXjXjXjXjXjXjXjXjXjX",
"jXjXjXjXjXjXjXjXjXjXjXjXjXjXjXjXjXjXjXjXjXjXjXjXjXjXjXjXjXjXjXjXjXjXjXjXjXjXjXjXjXjXjXjXjXjXjXjXjXjXjXjXjXjXjXjXjXjXjXjXjXjXjXjXjXjXjXjXjXjXjXjXjXjXjXjXjXjXjXjX",
"jXjXjXjXjXjXjXjXjXjXjXjXjXjXjXjXjXjXjXjXjXjXjXjXjXjXjXjXjXjXjXjXjXjXjXjXjXjXjXjXjXjXjXjXjXjXjXjXjXjXjXjXjXjXjXjXjXjXjXjXjXjXjXjXjXjXjXjXjXjXjXjXjXjXjXjXjXjXjXjX",
"jXjXjXjXjXjXjXjXjXjXjXjXjXjXjXjXjXjXjXjXjXjXjXjXjXjXjXjXjXjXjXjXjXjXjXjXjXjXjXjXjXjXjXjXjXjXjXjXjXjXjXjXjXjXjXjXjXjXjXjXjXjXjXjXjXjXjXjXjXjXjXjXjXjXjXjXjXjXjXjX",
"jXjXjXjXjXjXjXjXjXjXjXjXjXjXjXjXjXjXjXjXjXjXjXjXjXjXjXjXjXjXjXjXjXjXjXjXjXjXjXjXjXjXjXjXjXjXjXjXjXjXjXjXjXjXjXjXjXjXjXjXjXjXjXjXjXjXjXjXjXjXjXjXjXjXjXjXjXjXjXjX",
"jXjXjXjXjXjXjXjXjXjXjXjXjXjXjXjXjXjXjXjXjXjXjXjXjXjXjXjXjXjXjXjXjXjXjXjXjXjXjXjXjXjXjXjXjXjXjXjXjXjXjXjXjXjXjXjXjXjXjXjXjXjXjXjXjXjXjXjXjXjXjXjXjXjXjXjXjXjXjXjX",
"jXjXjXjXjXjXjXjXjXjXjXjXjXjXjXjXjXjXjXjXjXjXjXjXjXjXjXjXjXjXjXjXjXjXjXjXjXjXjXjXjXjXjXjXjXjXjXjXjXjXjXjXjXjXjXjXjXjXjXjXjXjXjXjXjXjXjXjXjXjXjXjXjXjXjXjXjXjXjXjX",
"jXjXjXjXjXjXjXjXjXjXjXjXjXjXjXjXjXjXjXjXjXjXjXjXjXjXjXjXjXjXjXjXjXjXjXjXjXjXjXjXjXjXjXjXjXjXjXjXjXjXjXjXjXjXjXjXjXjXjXjXjXjXjXjXjXjXjXjXjXjXjXjXjXjXjXjXjXjXjXjX",
"jXjXjXjXjXjXjXjXjXjXjXjXjXjXjXjXjXjXjXjXjXjXjXjXjXjXjXjXjXjXjXjXjXjXjXjXjXjXjXjXjXjXjXjXjXjXjXjXjXjXjXjXjXjXjXjXjXjXjXjXjXjXjXjXjXjXjXjXjXjXjXjXjXjXjXjXjXjXjXjX",
"jXjXjXjXjXjXjXjXjXjXjXjXjXjXjXjXjXjXjXjXjXjXjXjXjXjXjXjXjXjXjXjXjXjXjXjXjXjXjXjXjXjXjXjXjXjXjXjXjXjXjXjXjXjXjXjXjXjXjXjXjXjXjXjXjXjXjXjXjXjXjXjXjXjXjXjXjXjXjXjX",
"jXjXjXjXjXjXjXjXjXjXjXjXjXjXjXjXjXjXjXjXjXjXjXjXjXjXjXjXjXjXjXjXjXjXjXjXjXjXjXjXjXjXjXjXjXjXjXjXjXjXjXjXjXjXjXjXjXjXjXjXjXjXjXjXjXjXjXjXjXjXjXjXjXjXjXjXjXjXjXjX",
"jXjXjXjXjXjXjXjXjXjXjXjXjXjXjXjXjXjXjXjXjXjXjXjXjXjXjXjXjXjXjXjXjXjXjXjXjXjXjXjXjXjXjXjXjXjXjXjXjXjXjXjXjXjXjXjXjXjXjXjXjXjXjXjXjXjXjXjXjXjXjXjXjXjXjXjXjXjXjXjX",
"jXjXjXjXjXjXjXjXjXjXjXjXjXjXjXjXjXjXjXjXjXjXjXjXjXjXjXjXjXjXjXjXjXjXjXjXjXjXjXjXjXjXjXjXjXjXjXjXjXjXjXjXjXjXjXjXjXjXjXjXjXjXjXjXjXjXjXjXjXjXjXjXjXjXjXjXjXjXjXjX",
"jXjXjXjXjXjXjXjXjXjXjXjXjXjXjXjXjXjXjXjXjXjXjXjXjXjXjXjXjXjXjXjXjXjXjXjXjXjXjXjXjXjXjXjXjXjXjXjXjXjXjXjXjXjXjXjXjXjXjXjXjXjXjXjXjXjXjXjXjXjXjXjXjXjXjXjXjXjXjXjX",
"jXjXjXjXjXjXjXjXjXjXjXjXjXjXjXjXjXjXjXjXjXjXjXjXjXjXjXjXjXjXjXjXjXjXjXjXjXjXjXjXjXjXjXjXjXjXjXjXjXjXjXjXjXjXjXjXjXjXjXjXjXjXjXjXjXjXjXjXjXjXjXjXjXjXjXjXjXjXjXjX",
"jXjXjXjXjXjXjXjXjXjXjXjXjXjXjXjXjXjXjXjXjXjXjXjXjXjXjXjXjXjXjXjXjXjXjXjXjXjXjXjXjXjXjXjXjXjXjXjXjXjXjXjXjXjXjXjXjXjXjXjXjXjXjXjXjXjXjXjXjXjXjXjXjXjXjXjXjXjXjXjX",
"jXjXjXjXjXjXjXjXjXjXjXjXjXjXjXjXjXjXjXjXjXjXjXjXjXjXjXjXjXjXjXjXjXjXjXjXjXjXjXjXjXjXjXjXjXjXjXjXjXjXjXjXjXjXjXjXjXjXjXjXjXjXjXjXjXjXjXjXjXjXjXjXjXjXjXjXjXjXjXjX",
"jXjXjXjXjXjXjXjXjXjXjXjXjXjXjXjXjXjXjXjXjXjXjXjXjXjXjXjXjXjXjXjXjXjXjXjXjXjXjXjXjXjXjXjXjXjXjXjXjXjXjXjXjXjXjXjXjXjXjXjXjXjXjXjXjXjXjXjXjXjXjXjXjXjXjXjXjXjXjXjX",
"jXjXjXjXjXjXjXjXjXjXjXjXjXjXjXjXjXjXjXjXjXjXjXjXjXjXjXjXjXjXjXjXjXjXjXjXjXjXjXjXjXjXjXjXjXjXjXjXjXjXjXjXjXjXjXjXjXjXjXjXjXjXjXjXjXjXjXjXjXjXjXjXjXjXjXjXjXjXjXjX",
"jXjXjXjXjXjXjXjXjXjXjXjXjXjXjXjXjXjXjXjXjXjXjXjXjXjXjXjXjXjXjXjXjXjXjXjXjXjXjXjXjXjXjXjXjXjXjXjXjXjXjXjXjXjXjXjXjXjXjXjXjXjXjXjXgXgXgXgXgXgXjXjXjXjXjXgXgXgXgXgX",
"jXjXjXjXjXjXjXjXjXjXjXjXjXjXjXjXjXjXjXjXjXjXjXjXjXjXjXjXjXjXjXjXjXjXjXjXjXjXjXjXjXjXjXjXjXjXjXjXjXjXjXjXjXjXjXjXjXjXjXjXjXjXjXjXgXgXgXgXgXgXjXjXjXjXjXgXgXgXgXhX",
"jXjXjXjXjXjXjXjXjXjXjXjXjXjXjXjXjXjXjXjXjXjXjXjXjXjXjXjXjXjXjXjXjXjXjXjXjXjXjXjXjXjXjXjXjXjXjXjXjXjXjXjXjXjXjXjXjXjXjXjXjXjXjXjXgXgXhXhXgXjXjXjXjXjXgXgXgXgXhXhX",
"jXjXjXjXjXjXjXjXjXjXjXjXjXjXjXjXjXjXjXjXjXjXjXjXjXjXjXjXjXjXjXjXjXjXjXjXjXjXjXjXjXjXjXjXjXjXjXjXjXjXjXjXjXjXjXjXjXjXjXjXjXjXjXjXgXhXhXpXjXjXjXjXjXjXgXgXgXgXhXpX",
"jXjXjXjXjXjXjXjXjXjXjXjXjXjXjXjXjXjXjXjXjXjXjXjXjXjXjXjXjXjXjXjXjXjXjXjXjXjXjXjXjXjXjXjXjXjXjXjXjXjXjXjXjXjXjXjXjXjXjXjXjXjXjXjXiXaXaXpXpXpXaXsXjXjXjXjXwXsXaXpX",
"jXjXjXjXjXjXjXjXjXjXjXjXjXjXjXjXjXjXjXjXjXjXjXjXjXjXjXjXjXjXjXjXjXjXjXjXjXjXjXjXjXjXjXjXjXjXjXjXjXjXjXjXjXjXjXjXjXjXjXjXjXjXjXjXiXuXfXfXpXfXaXiXjXjXjXjXiXuXaXfX",
"jXjXjXZ p t s s s ! J # $XjXjXjXjXg.>.s s s s s s s s ! +.+ jXjXjXjXjXjXu.>.s -.C.*X&.! -.).jXjXjXjXjXjX3X! s @.8 jXjXU.-.! >.s.tXtXhXhXhXhXtXuX^.) W ^ S.tXjXjX",
"jXjXjXp ^ ^ ^ ^ ^ ^ ^ ^ ^ # jXjXjXU ^ ^ ^ ^ ^ ^ ^ ^ ^ ^ ^ }.jXjXjXjXjXU.^ ^ ^ ^ C..X^ ^ ^ J.jXjXjXjXjXjX;X} ^ ^ + jXjXqX! ^ ^ ^ $XhXpXhXhXpXtX}.^ ^ ^ W uXjXjXgX",
"jXjXjXs ^ ^ ^ ^ ^ ^ ^ ^ ^ ^ g.6XfXt.^ ^ ^ ^ ^ ^ ^ ^ ^ ^  XfXwXwXjXjX*X} ^ ^ } ^ OX,X^ ^ ^ %XiXiXdXfXaXfX6X^ ^ ^ S.uXtXaX<X^ ^ ^ ^ 7XaXaXfXfXyX^ ^ ^ ^ >XgXgXgXgX",
"jXjXjXs ^ ^ ) h.$ * i ^ ^ ^ ^ .XfXd.^ ^ ^ g.$ o $ h.h.K.6XaXaXwXjXjXU ^ } ^ } ^ j.>X^ ^ ^ b.uXyXdXaXfXpXiX^ ^ ^ < iXiXiXyXR.^ ^ ^ 1.aXaXaXpXK.^ ^ ^ 6 wXgXgXgXgX",
"jXjXjXy ^ ^ f.sXsXaXhX/.^ ^ ^ o fX8.^ ^ d.hXpXpXdXdXwXfXeXtXiXiXjXE.^ } ^ ^ ^ ^ j.-X^ ^ ^ M.0XyXhXhXpXpXtX^ ^ ^ @ eXyXiXsXsXK ^ ^ ^ ^.uXpX:X^ ^ ^ ^ 4XtXgXgXgXgX",
"jXjXjX~ ^ ^ f.aXiXsXhXhXw.^ ^ R aX3.^ ^ K hXfXpXdXdXiXiXiXiXtXtX*X^ ^ ^ #.} } ^ n.7X^ ^ ^ .X6X6XhXhXpXhXaX/ ^ ^ @ 6XtXiXsXdX3X^ ^ ^ ^ -XpX) ^ ^ ^ %XiXtXjXgXgXgX",
"jXjXjXq ^ ^ o aXsXaXiXaX2 ^ ^ ) uX3.^ ^ A pXpXpXaXfXfXhXhXhXhXyXU ^ ^ ^ E.} ^ ^ OX,X^ ^ ^ x.aXwXhXhXgXgXtX^ ^ ^ E.pXfXpXfXsXfXC.^ ^ ^ j.V.^ ^ ^ R.uXaXpXhXhXgXgX",
"jXjXjXq ^ ^ w.aXiXiXaXaX. ^ ^ ;.aX8.^ ^ f hXpXpXfXfXhXfXpXfXhXx.^ $.^ 4 3X^ { ^ j.<X^ ^ ^  XaXwXgXgXgXgXiX^ ^ ^ 6 pXfXpXfXfXtXyXR ^ ^ ^ ^ ^ ^ ^ tXwXpXpXhXhXgXgX",
"jXjXjXi ^ ^ f 4XtXyXaX+X^ ^ ^ S fX8.^ ^ ^ 3.S A S A 0 >XpXhX6X^ ^ ^ ! jX*X^ { ^ j.-X^ ^ ^ .XdXwXgXgXgXgX6X^ ^ ^ * yXaXfXfXsXtXiX,X^ ^ ^ ^ ^ ^ `.wXwXaXfXhXgXgXgX",
"jXjXjXi ^ ^ ^ R.R.K.3.^ ^ ^ ^ =XfXg.^ ^ ^ ^ ^ ^ ^ ^ S uXfXpXg ^ { ^ _.gX*X^ { ^ M.-X^ ^ ^ M.wXtXgXgXgXgX0X^ ^ ^ 7 tXaXfXfXsXiXtXuXx.^ ^ ^ ^ 2 aXiXsXaXfXgXgXgXgX",
"jXjXjXr ^ ^ ^ ^ ^ ^ ^ ^ ^ ^ C.yXfX6.^ ^ ^ ^ ^ ^ ^ ^ eXhXhXx.^ ^ ^ _.aX3X*X^ ^ ^ _.-X^ ^ ^ OXyXtXhXhXpXhXaX%.^ ^ * yXiXsXaXpXpXfXjX<X^ ^ ^ q uXaXgXjXjXjXjXjXjXjX",
"jXjXjXr ^ ^ ^ ^ ^ ^ ^ ^ ^ +XfXaXfX6.^ ^ ) ; 1.* r +XpXpX3X^ ^ ^ >._._._._.^ ^ ^ _._.^ ^ ^ z.tXtXhXhXhXpXtX^ ^ ^ 7 tXiXsXfXfXpXpXgX=.^ ^ ^ >XaXdXgXjXjXjXjXjXjXjX",
"jXjXjXi ^ ^ m ^ ^ ^ ^ /.tXaXaXfXfX8.^ ^ S fXwXwXuXsXeXeXi ^ ^ ^ ^ ^ ^ ^ ^ ^ [ ^ _._.^ ^ ^ XXfXfXhXhXfXpX4X^ ^ ^ * tXyXiXiXiXfXpXK.^ ^ ^ R.uXuXaXjXjXjXjXjXjXjXjX",
"jXjXjXi ^ ^ o .X^ ^ ^ V.aXiXfXfXfX6.^ ^ S aXwXwXrXyXuXx.^ ^ ^ ^ ^ *.^ ^ } ^ ^ ^  X0X^ ^ ^ OXpXfXgXhXfXfXtX^ ^ ^ $ yXtXiXsXyXtX}.^ ^ ^ ^ 6XtXiXdXjXjXjXjXjXjXjXjX",
"jXjXjXs ^ ^   aXr ^ ^ ^ /.tXuXuXfX6.^ ^ S hXhXhXuXwX<X^ ^ ^ ^ ^ ^ ^ ^ ^ ^ ^ | ^ j.-X^ ^ ^ *XpXfXgXgXhXgXtX^ ^ ^ E.hXaXpXiXfXiX) ^ ^ ^ *XgXgXjXjXjXjXjXjXjXjXjXjX",
"jXjXjXs ^ ^ 1.aX-X^ ^ ^ ^ 1XdXtXfXh.^ ^ S hXhXhXuX<X^ ^ ^ ^ S.2X_.-X_._.C.^ ^ ^ j.>X^ ^ ^ $XpXpXgXgXjXgXaX] ^ ^ 7 pXpXpXsXaXV.^ ^ ^ C.wXhXjXjXjXjXjXjXjXjXjXjXjX",
"jXjXjXq ^ ^ y.sXfXM.^ ^ ^ r tXuXfX6.^ ^ ^ 6.S g K ^ ^ ^ ^ j.hXhXpXpXhXhX*X^ ^ ^ _.=X^ ^ ^ ! w.q.S 6.l /.pX^ ^ ^ ^ S 8.U U 8.^ ^ ^ ;.pXgXgXgXjXjXjXjXjXjXjXjXjXjX",
"jXjXjXq ^ ^ 1.aXaXfX$ ^ ^ ^ 2 fXfX6.^ ^ ^ ^ ^ ^ ^ ^ ^ ^ ^ eXpXfXpXpXfXpX*X^ } ^ $X}.^ ^ ^ ^ ^ ^ ^ ^ ^ t.jX^ ^ ^ ^ ^ ^ ^ ^ ^ ^ ^ ^ <XhXhXgXgXjXjXjXjXjXjXjXjXjXjX",
"jXjXjX=.^ ^ g.uXtXiX3X^ ^ ^ ^ $XiX~ ^ ^ ^ ^ ^ ^ ^ ^ ^ w.tXpXfXhXhXpXfXpX3X^ ^ ^ ^.<X^ ^ ^ ^ ^ ^ ^ ^ ^ 7 rX^ ^ ^ ^ ^ ^ ^ ^ ^ ^ ^ U.rXtXsXsXsXgXgXgXgXgXgXjXjXjXjX",
"jXjXaX; f S V.tXwXuXyX#XM w.M S eXG.N 3.g w.g 3.h.2 =XfXgXgXpXhXhXpXfXfX2XN d.N N.8XA t.e.g e.1.y.9.^ S.iXj.6.f f y.f 6.y.g m o fXjXrXdXpXpXgXgXgXgXgXgXjXjXjXjX",
"hXpXaXfXjXjXjXjXwXfXpXhXgXhXpXpXjXjXjXjXfXhXhXhXaXsXyXtXjXjXjXjXhXhXaXfXyXrXjXjX8XqXhXhXfXpXjXjXhXhXhXhXjXjXjXjXfXpXpXhXhXhXpXpXjXjXjXjXpXhXgXgXjXjXgXjXjXjXjXjX",
"hXpXpXpXjXjXjXjXaXaXpXpXgXhXhXhXjXjXjXjXpXpXhXhXfXwXiXuXjXjXjXjXhXhXsXsXiXiXgXgXeX6XhXhXhXpXjXjXhXhXhXhXjXjXjXjXfXfXhXhXhXhXhXpXjXjXjXjXpXhXgXgXjXjXjXjXjXjXjXjX",
"hXhXjXjXjXjXjXjXjXjXjXjXgXgXgXgXjXjXjXjXjXjXjXjXfXfXgXgXgXgXjXjXhXgXgXgXgXgXgXgXrXsXaXfXjXjXjXjXgXgXgXgXjXjXjXjXjXjXjXjXhXgXgXgXjXjXjXjXjXjXjXjXjXjXjXjXjXjXjXjX",
"gXgXjXjXjXjXjXjXjXjXjXjXgXgXgXgXjXjXjXjXjXjXjXjXpXpXgXgXgXgXgXgXhXgXgXgXgXgXgXgXiXwXfXfXjXjXjXjXgXgXgXgXjXjXjXjXjXjXjXjXhXgXgXgXjXjXjXjXjXjXjXjXjXjXjXjXjXjXjXjX",
"gXjXjXjXjXjXjXjXjXjXjXjXjXgXgXgXjXjXjXjXjXjXjXjXhXhXhXgXgXgXgXgXgXgXgXgXgXgXgXhXhXhXpXpXjXjXjXjXgXgXgXgXjXjXjXjXjXjXgXjXgXgXgXgXjXjXjXjXjXjXjXjXjXjXjXjXjXjXjXjX",
"gXjXjXjXjXjXjXjXjXjXjXjXjXgXgXgXjXjXjXjXjXjXjXjXhXhXhXgXgXgXgXgXgXgXgXgXgXgXgXhXhXhXhXhXjXjXjXjXgXgXgXgXjXjXjXjXjXjXgXgXgXgXgXgXjXjXjXjXjXjXjXjXjXjXjXjXjXjXjXjX",
"jXjXjXjXjXjXjXjXjXjXjXjXjXjXjXjXjXjXjXjXjXjXjXjXjXjXjXjXjXjXjXjXgXjXjXjXjXjXjXjXjXjXjXjXjXjXjXjXjXjXjXjXjXjXjXjXjXjXjXjXjXjXjXjXjXjXjXjXjXjXjXjXjXjXjXjXjXjXjXjX",
"jXjXjXjXjXjXjXjXjXjXjXjXjXjXjXjXjXjXjXjXjXjXjXjXjXjXjXjXjXjXjXjXjXjXjXjXjXjXjXjXjXjXjXjXjXjXjXjXjXjXjXjXjXjXjXjXjXjXjXjXjXjXjXjXjXjXjXjXjXjXjXjXjXjXjXjXjXjXjXjX",
"jXjXjXjXjXjXjXjXjXjXjXjXjXjXjXjXjXjXjXjXjXjXjXjXjXjXjXjXjXjXjXjXjXjXjXjXjXjXjXjXjXjXjXjXjXjXjXjXjXjXjXjXjXjXjXjXjXjXjXjXjXjXjXjXjXjXjXjXjXjXjXjXjXjXjXjXjXjXjXjX",
"jXjXjXjXjXjXjXjXjXjXjXjXjXjXjXjXjXjXjXjXjXjXjXjXjXjXjXjXjXjXjXjXjXjXjXjXjXjXjXjXjXjXjXjXjXjXjXjXjXjXjXjXjXjXjXjXjXjXjXjXjXjXjXjXjXjXjXjXjXjXjXjXjXjXjXjXjXjXjXjX",
"jXjXjXjXjXjXjXjXjXjXjXjXjXjXjXjXjXjXjXjXjXjXjXjXjXjXjXjXjXjXjXjXjXjXjXjXjXjXjXjXjXjXjXjXjXjXjXjXjXjXjXjXjXjXjXjXjXjXjXjXjXjXjXjXjXjXjXjXjXjXjXjXjXjXjXjXjXjXjXjX",
"jXjXjXjXjXjXjXjXjXjXjXjXjXjXjXjXjXjXjXjXjXjXjXjXjXjXjXjXjXjXjXjXjXjXjXjXjXjXjXjXjXjXjXjXjXjXjXjXjXjXjXjXjXjXjXjXjXjXjXjXjXjXjXjXjXjXjXjXjXjXjXjXjXjXjXjXjXjXjXjX",
"jXjXjXjXjXjXjXjXjXjXjXjXjXjXjXjXjXjXjXjXjXjXjXjXjXjXjXjXjXjXjXjXjXjXjXjXjXjXjXjXjXjXjXjXjXjXjXjXjXjXjXjXjXjXjXjXjXjXjXjXjXjXjXjXjXjXjXjXjXjXjXjXjXjXjXjXjXjXjXjX",
"jXjXjXjXjXjXjXjXjXjXjXjXjXjXjXjXjXjXjXjXjXjXjXjXjXjXjXjXjXjXjXjXjXjXjXjXjXjXjXjXjXjXjXjXjXjXjXjXjXjXjXjXjXjXjXjXjXjXjXjXjXjXjXjXjXjXjXjXjXjXjXjXjXjXjXjXjXjXjXjX",
"jXjXjXjXjXjXjXjXjXjXjXjXjXjXjXjXjXjXjXjXjXjXjXjXjXjXjXjXjXjXjXjXjXjXjXjXjXjXjXjXjXjXjXjXjXjXjXjXjXjXjXjXjXjXjXjXjXjXjXjXjXjXjXjXjXjXjXjXjXjXjXjXjXjXjXjXjXjXjXjX",
"jXjXjXjXjXjXjXjXjXjXjXjXjXjXjXjXjXjXjXjXjXjXjXjXjXjXjXjXjXjXjXjXjXjXjXjXjXjXjXjXjXjXjXjXjXjXjXjXjXjXjXjXjXjXjXjXjXjXjXjXjXjXjXjXjXjXjXjXjXjXjXjXjXjXjXjXjXjXjXjX",
"jXjXjXjXjXjXjXjXjXjXjXjXjXjXjXjXjXjXjXjXjXjXjXjXjXjXjXjXjXjXjXjXjXjXjXjXjXjXjXjXjXjXjXjXjXjXjXjXjXjXjXjXjXjXjXjXjXjXjXjXjXjXjXjXjXjXjXjXjXjXjXjXjXjXjXjXjXjXjXjX",
"jXjXjXjXjXjXjXjXjXjXjXjXjXjXjXjXjXjXjXjXjXjXjXjXjXjXjXjXjXjXjXjXjXjXjXjXjXjXjXjXjXjXjXjXjXjXjXjXjXjXjXjXjXjXjXjXjXjXjXjXjXjXjXjXjXjXjXjXjXjXjXjXjXjXjXjXjXjXjXjX",
"jXjXjXjXjXjXjXjXjXjXjXjXjXjXjXjXjXjXjXjXjXjXjXjXjXjXjXjXjXjXjXjXjXjXjXjXjXjXjXjXjXjXjXjXjXjXjXjXjXjXjXjXjXjXjXjXjXjXjXjXjXjXjXjXjXjXjXjXjXjXjXjXjXjXjXjXjXjXjXjX",
"jXjXjXjXjXjXjXjXjXjXjXjXjXjXjXjXjXjXjXjXjXjXjXjXjXjXjXjXjXjXjXjXjXjXjXjXjXjXjXjXjXjXjXjXjXjXjXjXjXjXjXjXjXjXjXjXjXjXjXjXjXjXjXjXjXjXjXjXjXjXjXjXjXjXjXjXjXjXjXjX",
"jXjXjXjXjXjXjXjXjXjXjXjXjXjXjXjXjXjXjXjXjXjXjXjXjXjXjXjXjXjXjXjXjXjXjXjXjXjXjXjXjXjXjXjXjXjXjXjXjXjXjXjXjXjXjXjXjXjXjXjXjXjXjXjXjXjXjXjXjXjXjXjXjXjXjXjXjXjXjXjX",
"jXjXjXjXjXjXjXjXjXjXjXjXjXjXjXjXjXjXjXjXjXjXjXjXjXjXjXjXjXjXjXjXjXjXjXjXjXjXjXjXjXjXjXjXjXjXjXjXjXjXjXjXjXjXjXjXjXjXjXjXjXjXjXjXjXjXjXjXjXjXjXjXjXjXjXjXjXjXjXjX",
"jXjXjXjXjXjXjXjXjXjXjXjXjXjXjXjXjXjXjXjXjXjXjXjXjXjXjXjXjXjXjXjXjXjXjXjXjXjXjXjXjXjXjXjXjXjXjXjXjXjXjXjXjXjXjXjXjXjXjXjXjXjXjXjXjXjXjXjXjXjXjXjXjXjXjXjXjXjXjXjX",
"jXjXjXjXjXjXjXjXjXjXjXjXjXjXjXjXjXjXjXjXjXjXjXjXjXjXjXjXjXjXjXjXjXjXjXjXjXjXjXjXjXjXjXjXjXjXjXjXjXjXjXjXjXjXjXjXjXjXjXjXjXjXjXjXjXjXjXjXjXjXjXjXjXjXjXjXjXjXjXjX",
"jXjXjXjXjXjXjXjXjXjXjXjXjXjXjXjXjXjXjXjXjXjXjXjXjXjXjXjXjXjXjXjXjXjXjXjXjXjXjXjXjXjXjXjXjXjXjXjXjXjXjXjXjXjXjXjXjXjXjXjXjXjXjXjXjXjXjXjXjXjXjXjXjXjXjXjXjXjXjXjX",
"jXjXjXjXjXjXjXjXjXjXjXjXjXjXjXjXjXjXjXjXjXjXjXjXjXjXjXjXjXjXjXjXjXjXjXjXjXjXjXjXjXjXjXjXjXjXjXjXjXjXjXjXjXjXjXjXjXjXjXjXjXjXjXjXjXjXjXjXjXjXjXjXjXjXjXjXjXjXjXjX",
"jXjXjXjXjXjXjXjXjXjXjXjXjXjXjXjXjXjXjXjXjXjXjXjXjXjXjXjXjXjXjXjXjXjXjXjXjXjXjXjXjXjXjXjXjXjXjXjXjXjXjXjXjXjXjXjXjXjXjXjXjXjXjXjXjXjXjXjXjXjXjXjXjXjXjXjXjXjXjXjX",
"jXjXjXjXjXjXjXjXjXjXjXjXjXjXjXjXjXjXjXjXjXjXjXjXjXjXjXjXjXjXjXjXjXjXjXjXjXjXjXjXjXjXjXjXjXjXjXjXjXjXjXjXjXjXjXjXjXjXjXjXjXjXjXjXjXjXjXjXjXjXjXjXjXjXjXjXjXjXjXjX",
"jXjXjXjXjXjXjXjXjXjXjXjXjXjXjXjXjXjXjXjXjXjXjXjXjXjXjXjXjXjXjXjXjXjXjXjXjXjXjXjXjXjXjXjXjXjXjXjXjXjXjXjXjXjXjXjXjXjXjXjXjXjXjXjXjXjXjXjXjXjXjXjXjXjXjXjXjXjXjXjX",
"jXjXjXjXjXjXjXjXjXjXjXjXjXjXjXjXjXjXjXjXjXjXjXjXjXjXjXjXjXjXjXjXjXjXjXjXjXjXjXjXjXjXjXjXjXjXjXjXjXjXjXjXjXjXjXjXjXjXjXjXjXjXjXjXjXjXjXjXjXjXjXjXjXjXjXjXjXjXjXjX"
};
