/* XPM */
static char *xpm_[] = {
/* columns rows colors chars-per-pixel */
"80 80 240 2 ",
"   c #160005",
".  c #0B0809",
"X  c #2F0616",
"o  c #043909",
"O  c #0D3812",
"+  c #390B2C",
"@  c #072E39",
"#  c #193423",
"$  c #5B0A0A",
"%  c #5B1414",
"&  c #660C0B",
"*  c #6C110F",
"=  c #6D1211",
"-  c #791715",
";  c #71110F",
":  c #652429",
">  c #094913",
",  c #0B5718",
"<  c #094910",
"1  c #0F651B",
"2  c #064F31",
"3  c #2C4C31",
"4  c #136826",
"5  c #2A7030",
"6  c #2E512B",
"7  c #32346F",
"8  c #1F2956",
"9  c #683372",
"0  c #542A5B",
"q  c #15564B",
"w  c #13664E",
"e  c #307550",
"r  c #2F766D",
"t  c #2A5A70",
"y  c #725C86",
"u  c #31452D",
"i  c #6A2323",
"p  c #872F2D",
"a  c #616E94",
"s  c #3E4494",
"d  c #687B9C",
"f  c #537F79",
"g  c #8493AB",
"h  c #98A2BC",
"j  c #CCD4E1",
"k  c #8390B5",
"l  c #65532F",
"z  c #841D19",
"x  c #8B211D",
"c  c #8C2522",
"v  c #942824",
"b  c #9F362E",
"n  c #A43936",
"m  c #AA4E50",
"M  c #AB413E",
"N  c #83395F",
"B  c #B2504E",
"V  c #B76570",
"C  c #9C4E5E",
"Z  c #D9777A",
"A  c #CB6C6D",
"S  c #C25B5B",
"D  c #39894E",
"F  c #358772",
"G  c #3CB372",
"H  c #3EA059",
"J  c #4EAF4E",
"K  c #4A936D",
"L  c #51AE72",
"P  c #5AA167",
"I  c #56CA7E",
"U  c #6AD573",
"Y  c #61D15F",
"T  c #328735",
"R  c #2B2DAE",
"E  c #2D2DB5",
"W  c #2A34B5",
"Q  c #3437B7",
"!  c #3130B4",
"~  c #333A91",
"^  c #3B46BA",
"/  c #3D48A7",
"(  c #3E5093",
")  c #484995",
"_  c #4754B9",
"`  c #464DB4",
"'  c #5567B3",
"]  c #6B6FB9",
"[  c #6F78C1",
"{  c #7372AA",
"}  c #3B3AC1",
"|  c #423FC7",
" . c #3C44C4",
".. c #3F52C5",
"X. c #4449C9",
"o. c #4955CA",
"O. c #4D58D2",
"+. c #515BD4",
"@. c #5159CC",
"#. c #5966C8",
"$. c #5867D7",
"%. c #5D74DB",
"&. c #5973C2",
"*. c #6978CB",
"=. c #6577DA",
"-. c #656FCD",
";. c #677CE2",
":. c #A6B0C6",
">. c #CDD6E4",
",. c #727BBD",
"<. c #463680",
"1. c #9269AE",
"2. c #9B64A1",
"3. c #DC7E84",
"4. c #CD7482",
"5. c #E07E82",
"6. c #3F9383",
"7. c #4C998B",
"8. c #4BB997",
"9. c #51B092",
"0. c #68B990",
"q. c #748EB2",
"w. c #56BAA5",
"e. c #55B7A9",
"r. c #6DB2B1",
"t. c #7A95B2",
"y. c #57C699",
"u. c #5ACA87",
"i. c #63CA8C",
"p. c #68CD99",
"a. c #6CD099",
"s. c #70D692",
"d. c #59C4A4",
"f. c #5BC9B9",
"g. c #6BD0AD",
"h. c #7AE193",
"j. c #7689D8",
"k. c #6E88D2",
"l. c #78ACC5",
"z. c #6B84E5",
"x. c #768AE8",
"c. c #7B94E9",
"v. c #7296EB",
"b. c #7DA8EF",
"n. c #64D0C0",
"m. c #B4C0D7",
"M. c #D3DCEB",
"N. c #899BB6",
"B. c #8B9AB0",
"V. c #99AAC2",
"C. c #B1BBCE",
"Z. c #C3CCDF",
"A. c #A9B7D0",
"S. c #B7C3DC",
"D. c #C7D1E3",
"F. c #CDD5E4",
"G. c #B79FB6",
"H. c #DE828A",
"J. c #E2848A",
"K. c #E98C92",
"L. c #EC9198",
"P. c #F19499",
"I. c #EA9CA7",
"U. c #8FD796",
"Y. c #8FEC9A",
"T. c #A7F4AD",
"R. c #9CF3A5",
"E. c #8496CD",
"W. c #B18ECB",
"Q. c #9AABC8",
"!. c #99AFD3",
"~. c #ACB9CE",
"^. c #A9B9D7",
"/. c #B5C1D5",
"(. c #8796E5",
"). c #8D9CEB",
"_. c #85A7EC",
"`. c #99A6EB",
"'. c #89A8F3",
"]. c #95B1F2",
"[. c #A8B5EB",
"{. c #A8B6F3",
"}. c #B2BCF5",
"|. c #AFB4EC",
" X c #C9D3E6",
".X c #B5C2DC",
"XX c #CDACDB",
"oX c #CBB8E6",
"OX c #91C6D1",
"+X c #B9C7DB",
"@X c #BACADC",
"#X c #BBC9E4",
"$X c #B9C7F5",
"%X c #AEC6F0",
"&X c #E9EEF7",
"*X c #CAD4E4",
"=X c #D3DCE9",
"-X c #CBD6E8",
";X c #D5DEEC",
":X c #C4CDF5",
">X c #CAD7F5",
",X c #D3DCF8",
"<X c #D0D3EA",
"1X c #E3D3EE",
"2X c #DAE4EF",
"3X c #DAE4F6",
"4X c #E5EAFA",
"5X c #ECF3FD",
"6X c #F6F8FE",
"7X c #E8EAF3",
"8X c #C5CEDF",
"9X c #CCD5E5",
"0X c #E1E8F3",
"qX c #E0E8F3",
"wX c #713839",
"eX c #52687D",
"rX c #424D40",
"tX c #793F3F",
"yX c #3E4289",
"uX c #98A1BA",
"iX c #425C4D",
"pX c #7079A6",
"aX c #B2B9CA",
"sX c #2A328B",
"dX c #BEC9DA",
"fX c #989FB6",
"gX c #AFB7CC",
"hX c #DBE1ED",
"jX c #D7DDE9",
"kX c #BCC3D7",
"lX c #818198",
"zX c #5B5559",
"xX c #7C83AA",
"cX c #C1C8DA",
"vX c #636685",
"bX c #DFDFE7",
"nX c None",
"mX c #A498A8",
"MX c #CFD3E2",
"NX c #C45E64",
/* pixels */
"nXnXnXnXnXnXnXnXnXnXnXnXnXnXnXnXnXnXnXnXnXnXnXnXnXnXnXnXnXnXnXnXnXnXnXnXnXnXnXnXnXnXnXnXnXnXnXnXnXnXnXnXnXnXnXnXnXnXnXnXnXnXnXnXnXnXnXnXnXnXnXnXnXnXnXnXnXnXnXnX",
"nXnXnXnXnXnXnXnXnXnXnXnXnXnXnXnXnXnXnXnXnXnXnXnXnXnXnXnXnXnXnXnXnXnXnXnXnXnXnXnXnXnXnXnXnXnXnXnXnXnXnXnXnXnXnXnXnXnXnXnXnXnXnXnXnXnXnXnXnXnXnXnXnXnXnXnXnXnXnXnX",
"nXnXnXnXnXnXnXnXnXnXnXnXnXnXnXnXnXnXnXnXnXnXnXnXnXnXnXnXnXnXnXnXnXnXnXnXnXnXnXnXnXnXnXnXnXnXnXnXnXnXnXnXnXnXnXnXnXnXnXnXnXnXnXnXnXnXnXnXnXnXnXnXnXnXnXnXnXnXnXnX",
"nXnXnXnXnXnXnXnXnXnXnXnXnXnXnXnXnXnXnXnXnXnXnXnXnXnXnXnXnXnXnXnXnXnXnXnXnXnXnXnXnXnXnXnXnXnXnXnXnXnXnXnXnXnXnXnXnXnXnXnXnXnXnXnXnXnXnXnXnXnXnXnXnXnXnXnXnXnXnXnX",
"nXnXnXnXnXnXnXnXnXnXnXnXnXnXnXnXnXnXnXnXnXnXnXnXnXnXnXnXnXnXnXnXnXvXxXxX<.<.,.[ ,.[ ,.a h vXnXnXnXnXnXnXnXnXnXnXnXnXnXnXnXnXnXnXnXnXnXnXnXnXnXnXnXnXnXnXnXnXnXnX",
"nXnXnXnXnXnXnXnXnXnXnXnXnXnXnXnXnXnXnXnXnXnXnXnXnXnXnXnXnXnXrXcX[ (.`.-.k.#.+.E.@.@.$.-.-.*.] <.xXnXnXnXnXnXnXnXnXnXnXnXnXnXnXnXnXnXnXnXnXnXnXnXnXnXnXnXnXnXnXnX",
"nXnXnXnXnXnXnXnXnXnXnXnXnXnXnXnXnXnXnXnXnXnXnXnXnXnXnXnXsX,.E.=.;.%.@.o._ X.X.X.` ` ` ` ` X._ #.;.-.pXvXnXnXnXnXnXnXnXnXnXnXnXnXnXnXnXnXnXnXnXnXnXnXnXnXnXnXnXnX",
"nXnXnXnXnXnXnXnXnXnXnXnXnXnXnXnXnXnXnXnXnXnXnXnXnXnXvX&.(.=.=.+.+.+.o.o.X. . .| Q } Q Q Q Q Q / @.@.-.*.h nXnXnXnXnXnXnXnXnXnXnXnXnXnXnXnXnXnXnXnXnXnXnXnXnXnXnX",
"nXnXnXnXnXnXnXnXnXnXnXnXnXnXnXnXnXnXnXnXnXnXnXnXzXa j.;.%.$.$.$.+.O.X.X.X. . .Q Q W ! W E R E ! Q / ` ` -.h nXnXnXnXnXnXnXnXnXnXnXnXnXnXnXnXnXnXnXnXnXnXnXnXnXnX",
"nXnXnXnXnXnXnXnXnXnXnXnXnXnXnXnXnXnXnXnXnXnXnXrX*.x.=.=.%.$.$.O.+.O.O.X. .Q Q Q Q W ! ! R R R E Q ! Q ` ..t.0.rXnXnXnXnXnXnXnXnXnXnXnXnXnXnXnXnXnXnXnXnXnXnXnXnX",
"nXnXnXnXnXnXnXnXnXnXnXnXnXnXnXnXnXnXnXnXnXnXsXx.(.=.;.%.%.$.$.$.O.O.X.X. .} } Q Q ! ! R R R R E R ! Q / ^ / T P iXnXnXnXnXnXnXnXnXnXnXnXnXnXnXnXnXnXnXnXnXnXnXnX",
"nXnXnXnXnXnXnXnXnXnXnXnXnXnXnXnXnXnXnXnXnXh ).(.=.;.=.%.%.$.$.O.O.O.O.X.X. .} } Q ! E ! E R R E R R R Q Q / u J r.3 nXnXnXnXnXnXnXnXnXnXnXnXnXnXnXnXnXnXnXnXnXnX",
"nXnXnXnXnXnXnXnXnXnXnXnXnXnXnXnXnXnXnXnXyX(.(.;.;.;.;.;.%.%.$.$.+.+.O.o.X. .| | } } } } E E E E R R R Q W ^ # 5 L f.a nXnXnXnXnXnXnXnXnXnXnXnXnXnXnXnXnXnXnXnXnX",
"nXnXnXnXnXnXnXnXnXnXnXnXnXnXnXnXnXnXnXsX).(.;.;.;.;.;.;.%.$.%.$.$.$.+.O.O.O.X.| X.} } } E E } E ! ! ! Q W #.@ # J d.n.u nXnXnXnXnXnXnXnXnXnXnXnXnXnXnXnXnXnXnXnX",
"nXnXnXnXnXnXnXnXnXnXnXnXnXnXnXnXnXnXrX;.).;.x.z.;.z.;.;.%.z.%.%.$.$.O.+.O.+.O.O.O.X.| } } } E E E } E E ..' @ . J L e.e.rXnXnXnXnXnXnXnXnXnXnXnXnXnXnXnXnXnXnXnX",
"nXnXnXnXnXnXnXnXnXnXnXnXnXnXnXnXnXnX` ).;.x.z.z.z.z.;.;.z.%.%.v.v.v.b.'.'._.'.b.c._.c.x.;.;.+.+. .O.O.=.k._ q # T J 8.n.r.rXnXnXnXnXnXnXnXnXnXnXnXnXnXnXnXnXnXnX",
"nXnXnXnXnXnXnXnXnXnXnXnXnXnXnXnXnX~ E.k.k.k.k.k.z.z.z.z.v.b.].b.b.v.%.#.o.^  . . .....O.#.%.z.z.z.z.k.&._ ' t @ 5 J 8.8.f.f nXnXnXnXnXnXnXnXnXnXnXnXnXnXnXnXnXnX",
"nXnXnXnXnXnXnXnXnXnXnXnXnXnXnXnXrX%.(.(.E.z.E.k.z.v.b.].b.k.#.o./ ..@.%.k.z.z.z.z.%.$... .} E } } W ^ ^ #.' ( q 4 Y 6.8.e.e.# nXnXnXnXnXnXnXnXnXnXnXnXnXnXnXnXnX",
"nXnXnXnXnXnXnXnXnXnXnXnXnXnXnXnX~ (.(.z.E.k.z.k.b._.j.#._ ..&.c.].%X$X$X$X%X}.{.].].].].b.v.;.;.%.&.%.&.k.*.' q q Y G 8.e.g.7.nXnXnXnXnXnXnXnXnXnXnXnXnXnXnXnXnX",
"nXnXnXnXnXnXnXnXnXnXnXnXnXnXnXvX@.(.z.(.k.E._.E.k._ _ *.b.].%X%X,X>X$X$X$X%X{.].`._.).(.(.(.(.(.(.(.c.(.(.v.q.r q Y G 9.e.f.f.u nXnXnXnXnXnXnXnXnXnXnXnXnXnXnXnX",
"nXnXnXnXnXnXnXnXnXnXnXnXnXnXnX8 x.(.(.(._.(.k./ _ k.[.>X3X,X,X$X>X,X>X$X%X}.}.{.[.`.`.).).(.(.(.(.).`.).`.(.k.r q Y G 8.8.w.n.r nXnXnXnXnXnXnXnXnXnXnXnXnXnXnXnX",
"nXnXnXnXnXnXnXnXnXnXnXnXnXnXnXX._.z.(.`.E.` / k.{.,X4X4X4X4X3X,X$X$X$X{.{.{.].{.{.{.`.`.`.).`.`.`.`.`.`.`.`.l.r w Y G 8.8.w.f.7.. nXnXnXnXnXnXnXnXnXnXnXnXnXnXnX",
"nXnXnXnXnXnXnXnXnXnXnXnXnXnXyX;.(._.(.&.) &.E.+X5X5X5X5X4X4X4X4X3X3X%X$X$X%X{.{.].{.{.{.{.{.{.{.{.[.{.`.`.).l.r e Y G 8.8.d.d.g.6 nXnXnXnXnXnXnXnXnXnXnXnXnXnXnX",
"nXnXnXnXnXnXnXnXnXnXnXnXnXnX8 x.OXE.` ) -.*X;X;X5X5X5X5X5X5X5X4X3X3X$X$X$X$X$X}.}.{.].{.}.}.{.}.}.{.[.{.|.`.l.r e U G 8.y.e.d.g.e rXnXnXnXnXnXnXnXnXnXnXnXnXnXnX",
"nXnXnXnXnXnXnXnXnXnXnXnXnXnX .'.(.` ) k.}.7X6X6X6X6X7X5X5X5X5X5X5X>X$X>X>X>X>X>X%X%X%X%X$X$X$X$X}.}.}.{.{.`.l.r D U G y.8.y.8.n.K vXnXnXnXnXnXnXnXnXnXnXnXnXnXnX",
"nXnXnXnXnXnXnXnXnXnXnXnXnXnX..(.) ) -.*X7X6X6X6X6X6X6X6X6X5X5X5X4X:X>X>X;X>X>X>X>X>X%X>X$X%X$X$X:X}.}.}.{.].r.r K U G y.y.y.d.f.K . nXnXnXnXnXnXnXnXnXnXnXnXnXnX",
"nXnXnXnXnXnXnXnXnXnXnXnXnX. ' 0 <.1.XX1X7X7X7X6X5X6X6X6X6X5X6X6X3X$X,X2X2X3X2X2X>X2X>X>X$X$X%X{.}.:X$X}.}.].r.w L h.L y.y.d.d.g.9.# rXnXnXnXnXnXnXnXnXnXnXnXnXnX",
"nXnXnXnXnXnXnXnXnXnXnXnXnXa <.0 G.I.K.K.P.XXoX1X6X6X6X6X6X6X6X6X5X>X>X3X3X3X3X3X3X3X;X>X$X$X%X{.{.}.:X$X%X[.9.w U U y.y.y.y.y.f.w.6 nXnXnXnXnXnXnXnXnXnXnXnXnXnX",
"nXnXnXnXnXnXnXnXnXnXnXnXnX8 { L.I.5.3.3.3.I.1.W.oX6X6X6X6X6X6X6X6X5X>X2X3X3X3X3X3X3X>X>X>X:X$X}.{.:X:X$X}.OX7.w h.I y.y.y.d.d.g.0.O nXnXnXnXnXnXnXnXnXnXnXnXnXnX",
"nXnXnXnXnXnXnXnXnXnXnXnXnXa 3.P.3.L.3.L.3.P.3.1.W.1X6X6X6X6X6X6X5X5X>X>X>X3X3X3X3X3X2X,X>X>X$X}.$X:X:X:X$XOXF r Y.I y.y.d.p.y.g.0.O vXnXnXnXnXnXnXnXnXnXnXnXnXnX",
"nXnXnXnXnXnXnXnXnXnXnXnXnXm Z P.L.3.3.3.3.3.I.4.1.XX6X6X6X6X6X6X6X6X5X>X>X3X2X3X3X2X2X,X>X-X:X}.>X>X:X:X%Xr.w L Y.I y.y.y.p.a.g.0.o mXnXnXnXnXnXnXnXnXnXnXnXnXnX",
"nXnXnXnXnXnXnXnXnXnXnXnXnXB A P.3.L.L.3.3.3.P.3.2.1.1X6X6X6X6X6X6X6X5X5X3X>X>X2X,X2X>X,X>X$X:X}.,X,X,X:X%X9.w h.h.u.a.y.p.y.g.g.9.< u nXnXnXnXnXnXnXnXnXnXnXnXnX",
"nXnXnXnXnXnXnXnXnXnXnXnXnXv S P.3.K.3.K.K.J.3.L.C 2.XX5X6X6X6X6X6X6X6X6X6X>X2X,X>X2X>X>X$X#X$X$X3X,X>X:XOXF e R.u.y.y.p.p.y.a.g.K . rXnXnXnXnXnXnXnXnXnXnXnXnXnX",
"nXnXnXnXnXnXnXnXnXnXnXnXvXx n Z K.3.K.3.3.J.K.L.4.2.W.1X6X6X6X6X6X6X6X6X4X>X;X,X2X>X>X>X$X>X,X3X3X,X,X$Xr.w 9.Y.u.a.p.g.p.g.g.g.5 o nXnXnXnXnXnXnXnXnXnXnXnXnXnX",
"nXnXnXnXnXnXnXnXnXnXnXnXnXb v Z K.3.3.K.J.K.K.3.3.N 1.oX6X6X6X6X6X6X6X6X3X>X,X,X,X>X>X:X,X4X3X4X3X,X>X%X7.4 Y.h.p.p.p.p.a.a.a.g., o nXnXnXnXnXnXnXnXnXnXnXnXnXnX",
"nXnXnXnXnXnXnXnXnXnXnXnXnXp x S I.3.K.3.K.3.J.J.L.4.N W.1X6X6X6X6X6X6X6X3X>X,X2X,X>X>X:X3X5X3X3X3X,X>Xr.w K R.u.a.a.a.p.p.a.g.0.o 6 zXnXnXnXnXnXnXnXnXnXnXnXnXnX",
"nXnXnXnXnXnXnXnXnXnXnXnXnXwXn b 4.3.K.3.K.J.J.J.3.L.9 2.XX7X7X6X6X6X6X6X>X>X3X,X,X:X$X,X4X4X4X3X,X>XOX7.2 R.h.a.a.a.p.p.p.p.g.D o O nXnXnXnXnXnXnXnXnXnXnXnXnXnX",
"nXnXnXnXnXnXnXnXnXnXnXnXnX  v x S 3.3.J.3.K.J.J.3.L.4.9 W.1X6X7X6X6X6X5X>X2X3X>X,X>X,X4X4X4X,X3X,X$Xe.q K T.i.a.a.a.a.a.g.a.p.6 < # nXnXnXnXnXnXnXnXnXnXnXnXnXnX",
"nXnXnXnXnXnXnXnXnXnXnXnXnXnXz x b 4.3.J.5.3.3.K.K.3.3.N 9 W.1X7X5X5X5X4X>X>X>X>X:X,X4X4X4X3X,X,X>Xl.F 4 T.s.p.a.a.a.a.a.p.U.D o 6 vXnXnXnXnXnXnXnXnXnXnXnXnXnXnX",
"nXnXnXnXnXnXnXnXnXnXnXnXnXnXi v z M 3.3.3.K.5.3.5.5.L.4.9 2.XX7X5X5X5X3X-X>X>X2X1X4X4X4X4X,X,X:XOX7.2 0.R.i.a.a.a.p.p.p.g.0.< o 4 nXnXnXnXnXnXnXnXnXnXnXnXnXnXnX",
"nXnXnXnXnXnXnXnXnXnXnXnXnXnXmXb z z M H.Z H.H.J.J.5.5.K.S 0 2.oX4X4X4X,X:X:X:X4X4X4X3X,X,X,X>X+X7.q D T.i.a.a.a.p.p.i.p.a.5 o o # nXnXnXnXnXnXnXnXnXnXnXnXnXnXnX",
"nXnXnXnXnXnXnXnXnXnXnXnXnXnXnX% ; z x B 5.Z Z Z 5.J.5.J.K.N 9 1.<X4X7X,X$X:X1X4X3X3X,X1X,X:X}.r.w 5 T.h.i.a.i.p.p.p.p.U.e < < O vXnXnXnXnXnXnXnXnXnXnXnXnXnXnXnX",
"nXnXnXnXnXnXnXnXnXnXnXnXnXnXnXX ; ; z z M Z 5.Z Z J.Z J.J.J.0 9 1.oX1X,X}.$X,X,X,X,X,X:X:X#Xr.r 2 U.Y.u.s.i.p.i.0.s.a.e < < o O nXnXnXnXnXnXnXnXnXnXnXnXnXnXnXnX",
"nXnXnXnXnXnXnXnXnXnXnXnXnXnXnXnX% * z z x n A Z Z Z Z Z 5.J.5.: 9 1.oX,X}.}.,X1X>X1X:X:X}.!.7.2 0.T.I i.i.i.i.u.a.0.5 < < O > zXnXnXnXnXnXnXnXnXnXnXnXnXnXnXnXnX",
"nXnXnXnXnXnXnXnXnXnXnXnXnXnXnXnXrX& ; z x x v M S Z Z Z Z A J.4.+ 9 1.|.}.}.:X:X:XoX}.|.|.q.q e T.u.i.u.u.i.s.i.P 1 < , < o # nXnXnXnXnXnXnXnXnXnXnXnXnXnXnXnXnX",
"nXnXnXnXnXnXnXnXnXnXnXnXnXnXnXnXnXi & ; z z x x v M S A Z H.A K.V + + 2.W.|.}.oX|.}.^.`.Q.r # U.s.L i.i.i.s.L 5 < , < > < > nXnXnXnXnXnXnXnXnXnXnXnXnXnXnXnXnXnX",
"nXnXnXnXnXnXnXnXnXnXnXnXnXnXnXnXnXnX- ; & z z x x v v b B S S A P.A + + 9 1.] ] ] ] [ ) 7 @ D R.u.i.i.L T 4 , < , < , O 4 rXnXnXnXnXnXnXnXnXnXnXnXnXnXnXnXnXnXnX",
"nXnXnXnXnXnXnXnXnXnXnXnXnXnXnXnXnXnXnX& & ; z z z x v v v v b n M 5.4.+ X 0 9 ) ) ) ~ <.7 @ U 0.H T T 1 , 1 , , , , > > u nXnXnXnXnXnXnXnXnXnXnXnXnXnXnXnXnXnXnX",
"nXnXnXnXnXnXnXnXnXnXnXnXnXnXnXnXnXnXnXMXm c = - - x x x z z c v v b Z K.: . + 0 9 ) ) 7 7 @ J T 1 1 1 1 4 , , > , > , # nXnXnXnXnXnXnXnXnXnXnXnXnXnXnXnXnXnXnXnX",
"nXnXnXnXnXnXnXnXnXnXnXnXnXnXnXnXnXnXnXnXzX= $ - - - - - z z x c v v c B K.C   . + 0 0 7 7 8 5 1 1 4 1 1 4 , , , > O 6 nXnXnXnXnXnXnXnXnXnXnXnXnXnXnXnXnXnXnXnXnX",
"nXnXnXnXnXnXnXnXnXnXnXnXnXnXnXnXnXnXnXnXnXX p - * ; - - z z z z x x v x n H.Z : .   + + 0 8 3 5 2 1 1 1 , , , > > 6 nXnXnXnXnXnXnXnXnXnXnXnXnXnXnXnXnXnXnXnXnXnX",
"nXnXnXnXnXnXnXnXnXnXnXnXnXnXnXnXnXnXnXnXnXnXvX- $ & * - z = z z - x x x x x B H.V %     X X % 6 4 4 1 4 , , > > iXnXnXnXnXnXnXnXnXnXnXnXnXnXnXnXnXnXnXnXnXnXnXnX",
"nXnXnXnXnXnXnXnXnXnXnXnXnXnXnXnXnXnXnXnXnXnXnXvXi $ * * z * z z - z c - c c - v V Z V :   . .   u 6 1 1 1 , 1 # nXnXnXnXnXnXnXnXnXnXnXnXnXnXnXnXnXnXnXnXnXnXnXnX",
"nXnXnXnXnXnXnXnXnXnXnXnXnXnXnXnXnXnXnXnXnXnXnXnXnXrXi % & & & z - - - - c - c c ; x B A A C m l b b B l 6 rXvXnXnXnXnXnXnXnXnXnXnXnXnXnXnXnXnXnXnXnXnXnXnXnXnXnX",
"nXnXnXnXnXnXnXnXnXnXnXnXnXnXnXnXnXnXnXnXnXnXnXnXnXnXnX  i ; ; * = = - - - - - - - - = ; c n B A B B n wXnXnXnXnXnXnXnXnXnXnXnXnXnXnXnXnXnXnXnXnXnXnXnXnXnXnXnXnX",
"nXnXnXnXnXnXnXnXnXnXnXnXnXnXnXnXnXnXnXnXnXnXnXnXnXnXnXnXnXrXX % $ $ & % & * = = = * = * & $ $ - X vXnXnXnXnXnXnXnXnXnXnXnXnXnXnXnXnXnXnXnXnXnXnXnXnXnXnXnXnXnXnX",
"nXnXnXnXnXnXnXnXnXnXnXnXnXnXnXnXnXnXnXnXnXnXnXnXnXnXnXnXnXnXnXvXrXi i = % - = % - = % : p X rXvXnXnXnXnXnXnXnXnXnXnXnXnXnXnXnXnXnXnXnXnXnXnXnXnXnXnXnXnXnXnXnXnX",
"nXnXnXnXnXnXnXnXnXnXnXnXnXnXnXnXnXnXnXnXnXnXnXnXnXnXnXnXnXnXnXnXnXnXnXzXnXvXmXrXrXrXnXnXnXnXnXnXnXnXnXnXnXnXnXnXnXnXnXnXnXnXnXnXnXnXnXnXnXnXnXnXnXnXnXnXnXnXnXnX",
"nXnXnXnXnXnXnXnXnXnXnXnXnXnXnXnXnXnXnXnXnXnXnXnXnXnXnXnXnXnXnXnXnXnXnXnXnXnXnXnXnXnXnXnXnXnXnXnXnXnXnXnXnXnXnXnXnXnXnXnXnXnXnXnXnXnXnXnXnXnXnXnXnXnXnXnXnXnXnXnX",
"nXnXnXnXnXnXnXnXnXnXnXnXnXnXnXnXnXnXnXnXnXnXnXnXnXnXnXnXnXnXnXnXnXnXnXnXnXnXnXnXnXnXnXnXnXnXnXnXnXnXnXnXnXnXnXnXnXnXnXnXnXnXnXnXnXnXnXnXnXnXnXnXnXnXnXnXnXnXnXnX",
"nXnXnXnXnXnXnXnXnXnXnXnXnXnXnXnXnXnXnXnXnXnXnXnXnXnXnXnXnXnXnXnXnXvXnXnXnXnXnXnXnXnXnXnXnXvXnXnXnXnXnXnXnXnXnXnXnXnXnXnXnXnXnXnXnXnXnXnXnXnXnXnXnXnXnXnXnXnXnXnX",
"nXnXnXnXnXnXnXnXnXnXnXnXnXnXnXnXnXnXvXvX. vXnXnXvXvXnXnXnXnXnXvXcXMXvXnXnXnXnXnXnXnXnXjXuXcXvXnXnXnXnXnXnXnXvXvXvXvXvXnXnXnXnXnXvXnXvXvXvXnXnXnXnXnXnXnXnXnXnXnX",
"nXnXnX0XB.E.Q.8X.X.X.XG.jXnXnXvX*X*X;X&X>.qX*X+X-X7XzXnXnXjXG.7X6X6X7X*X0XnXnXnXnX0X*X5X6X6X2XM.dXnXvXnXM.3X*X*X5X-X+X&Xm.vXnXnXcX5X*X=X6X2X*X.X0XvXnXnXnXnXnXnX",
"nXnXnXB.!.^.%X^.@X#X|.#X,X0XnXjX*X<X;X;X;X;X2X4X7X6XrXnX0X7X4X5X5X6X5X7X6X&XnXsX*X7X7X5X5X6X5X5X5X0XnXnXM.2X3X;X2X;X>X,X5X4XvXnXd -X2X;X2X2X2X2X4X6XMXnXnXnXnXnX",
"nXnXnXB.^.^.^.^.#X#X#X-X+X#XuXMX6X#X#X~.:X@X~.#X^.^.vX0X4X;X7X<X#X.X3X4X5X-X. jX X;X;X=X*X X,X4X3X3XcXnXB.2X*X@X%X^..X#X$X#X,XnXd #X>X*XE.B..X*X-X#X;XjXnXnXnXnX",
"nXnXnX.X^.*XE.nXrXvXxX$X#X#XZ.MX3X>X>XvXnXvXnXnXnXnXmX;X,X,X~.rXvXnXvXM.:XrX6.3X&X2X0XnXnXnXrX.X;X>X6XnX,.2X>X0XvXvXnXrXQ.#X3XjXlX#X7XZ.nXnXnXrXq.#X#X@XnXnXnXnX",
"nXnXnX~.!.^.0XnXnXnXnXM.#X#XB.xX#X#X#XnXnXnXnXnXnXnX0X>X3X-XvXnXnXnXnXnXnXzX2X3X4XG.nXnXnXnXnXvX~.,X>Xh h #X>X0XnXnXnXnXM.#X#X0Xd OX*XQ.nXnXnXnXmXQ.@X#X0XnXnXnX",
"nXnXnXA.q.E.0XnXnXnXnXB.!.^.0XvX^.!.+X.X0XB.0XB..XrX.X,X:X,.nXnXnXnXnXnXnXjX,X2X2XjXnXnXnXnXvXnXd 3X-X0Xh #X#XM.nXnXnXlX^.!.+XuX# OX*X8XnXnXnXnXnXh %X#X+XnXnXnX",
"nXnXnXD.Z.B..X,.kXM.0Xq.t.Q.eXjXQ.N.Q.Q.~.~.@X@X6XMXE.@X#Xa nXnXnXnXnXnXvXcX#X-XOXnXnXnXnXnXnXnXjXB.E.B.) r.V.N.M.M.B.Q.Q.N.#XvXrXE.!.D.nXnXnXnXnXd #X#X>XnXnXnX",
"nXnXnX@X/././. XS.N.V.B.V.B.nXjXN.B.V.V.B.B.V.~.+XrXB.Q.Q.cXnXnXnXnXnXnXnXrXV.Q.*XnXnXnXnXnXnXnXh E.Q.B.f -X@X@X@X@X@X@X+X-X,.nXd !.^..XnXnXnXnXnXt.%X+X#XnXnXnX",
"nXnXnX&X+X&X*X&X@X&X&X*X,.nXnXcX/./.&XxXrXsXdXrXdXnXB.@X+X.XnXnXnXvXnXnXnXvX;X;X4XMXvXvXnXnXnXnXOX-X-XM.h =X+X=X-X=X;X+X.Xh nXnXd -X3X.XnXnXnXnXjX;X~.^.D.nXnXnX",
"nXnXnX*X-X+X/.&X&X+XF.vXnXnXvXjX@X/.+XnXnXnXnXnXnXnXjX-X*X6XaXnXnXnXnXjX9XnX0X5X4X0XvXnXnXnXvX.X-X-X5Xu h 2X4XD.=X3X2X0XnXnXnXnXd -X6X XnXnXnXjX&X>X+X-Xh nXnXnX",
"nXnXnX-X7X2X6.0X6X<X<X0XnXnXnXMX@X&X*X0XaXh 0XjX6.cXrX*X4X;X2X0XMXh 0X5X4X0XxX5X4X4X*X0XjXh OX;X2X4XOXnXkX6X6X0XlX3X6X5X0XnXnXnXa ;X5X=XG.0XC.-X2X2X2XD.nXnXnXnX",
"nXnXnX2X7X7XcXnXqX5X=X;X0XnXnXjX=X*X*X2X6X2X3X7X5X6XjXlX,X4X3X5X4X3X6X6X5X2XvX3 2X5X5X5X6X7X7X4X7X*XvXnX,.5X6X0XzXjX2X6X6X0XnXnXd =X5X6X5X5X6X5X6X4X+XnXnXnXnXnX",
"nXnXnX2X5X5X0XnXnX.X7X4X5X0XvXMX2X7X5X7X6X5X5X4X5X6XjXnXjX-X7X4X6X6X6X6X*XMXvXnXjX*X5X6X6X6X5X4X.XrXnXnX0X5X6XG.nXnXlX6X6X6XqXnXh 6X6X7X7X5X5X5X-X0XnXnXnXnXnXnX",
"nXnXnXA.*X=Xh nXnXnX0XB.G.<XjXvX0XB.0XE.0XB.0XB.0X.XvXnXnXvXcXB..X~.D.a nXnXzXnXnXnXh 0X&X.X0XjXnXnXnXnXxX0X0XcXnXvXnXlXdXlX6.dXnXcX6 jXh h jXjXnXnXnXnXnXnXnXnX",
"nXnXnXnXnXnXnXnXnXnXnXnXnXnXnXnXnXnXnXnXnXnXnXnXnXnXnXnXnXnXnXnXnXnXnXnXnXnXnXnXnXnXnXnXnXnXnXnXnXnXnXnXnXnXnXnXnXnXnXnXnXnXnXnXnXnXnXnXnXnXnXnXnXnXnXnXnXnXnXnX",
"nXnXnXnXnXnXnXnXnXnXnXnXnXnXnXnXnXnXnXnXnXnXnXnXnXnXnXnXnXnXnXnXnXnXnXnXnXnXnXnXnXnXnXnXnXnXnXnXnXnXnXnXnXnXnXnXnXnXnXnXnXnXnXnXnXnXnXnXnXnXnXnXnXnXnXnXnXnXnXnX",
"nXnXnXnXnXnXnXnXnXnXnXnXnXnXnXnXnXnXnXnXnXnXnXnXnXnXnXnXnXnXnXnXnXnXnXnXnXnXnXnXnXnXnXnXnXnXnXnXnXnXnXnXnXnXnXnXnXnXnXnXnXnXnXnXnXnXnXnXnXnXnXnXnXnXnXnXnXnXnXnX",
"nXnXnXnXnXnXnXnXnXnXnXnXnXnXnXnXnXnXnXnXnXnXnXnXnXnXnXnXnXnXnXnXnXnXnXnXnXnXnXnXnXnXnXnXnXnXnXnXnXnXnXnXnXnXnXnXnXnXnXnXnXnXnXnXnXnXnXnXnXnXnXnXnXnXnXnXnXnXnXnX"
};
