/* XPM */
static char *xpm_[] = {
/* columns rows colors chars-per-pixel */
"80 80 55 1 ",
"  c #003072",
". c #003072",
"X c #003072",
"o c #003072",
"O c #003072",
"+ c #003072",
"@ c #003072",
"# c #003072",
"$ c #003072",
"% c #003072",
"& c #003072",
"* c #003072",
"= c #003072",
"- c #0079BA",
"; c #007ABB",
": c #007ABB",
"> c #007ABB",
", c #007ABB",
"< c #007ABB",
"1 c #007ABB",
"2 c #007ABB",
"3 c #007ABB",
"4 c #007ABB",
"5 c #007ABB",
"6 c #007ABB",
"7 c #007ABB",
"8 c #007ABB",
"9 c #007ABB",
"0 c #007ABB",
"q c #007ABB",
"w c #007ABB",
"e c #003072",
"r c #003072",
"t c #003072",
"y c #003072",
"u c #002C6E",
"i c #003072",
"p c #003072",
"a c #007ABB",
"s c #007ABB",
"d c #007ABB",
"f c #007ABB",
"g c #007ABB",
"h c #007ABB",
"j c #0079BA",
"k c #007ABB",
"l c #003072",
"z c #002E70",
"x c #003678",
"c c #007ABB",
"v c #007ABB",
"b c #007ABB",
"n c #004284",
"m c #007ABB",
"M c None",
/* pixels */
"MMMMMMMMMMMMMMMMMMMMMMMMMMMMMMMMMMMMMMMMMMMMMMMMMMMMMMMMMMMMMMMMMMMMMMMMMMMMMMMM",
"MMMMMMMMMMMMMMMMMMMMMMMMMMMMMMMMMMMMMMMMMMMMMMMMMMMMMMMMMMMMMMMMMMMMMMMMMMMMMMMM",
"MMMMMMMMMMMMMMMMMMMMMMMMMMMMMMMMMMMMMMMMMMMMMMMMMMMMMMMMMMMMMMMMMMMMMMMMMMMMMMMM",
"MMMMMMMMMMMMMMMMMMMMMMMMMMMMMMMMMMMMMMMMMMMMMMMMMMMMMMMMMMMMMMMMMMMMMMMMMMMMMMMM",
"MMMMMMMMMMMMMMMMMMMMMMMMMMMMMMMMMMMMMMMMMMMMMMMMMMMMMMMMMMMMMMMMMMMMMMMMMMMMMMMM",
"MMMMMMMMMMMMMMMMMMMMMMMMMMMMMMMMMMMMMMMMMMMMMMMMMMMMMMMMMMMMMMMMMMMMMMMMMMMMMMMM",
"MMMMMMMMMMMMMMMMMMMMMMMMMMMMnvww922222222qwslMMMMMMMMMMMMMMMMMMMMMMMMMMMMMMMMMMM",
"MMMMMMMMMMMMMMMMMMMMMMMMMaw22222222222222222229dnMMMMMMMMMMMMMMMMMMMMMMMMMMMMMMM",
"MMMMMMMMMMMMMMMMMMMMMMc642222222222222222222222228vMMMMMMMMMMMMMMMMMMMMMMMMMMMMM",
"MMMMMMMMMMMMMMMMMMMMv2222222222222222222222222222222hnMMMMMMMMMMMMMMMMMMMMMMMMMM",
"MMMMMMMMMMMMMMMMMMb42222222222222222222222222222222222aMMnMMMMMMMMMMMMMMMMMMMMMM",
"MMMMMMMMMMMMMMMMz022222222222222222222222222222222222228cMMMMMMMMMMMMMMMMMMMMMMM",
"MMMMMMMMMMMMMMM122222222222222222222222222222222222222222wnMMMMMMMMMMMMMMMMMMMMM",
"MMMMMMMMMMMMMM922222222222222222222222222222222222222222222cMMMMMMMMMMMMMMMMMMMM",
"MMMMMMMMMMMMd32966922222222222222222222222222222222222222222dMMMMMMMMMMMMMMMMMMM",
"MMMMMMMMMMMMgzMMMMMMnmaw5222222222222222222222222222222222222wMMMMMMMMMMMMMMMMMM",
"MMMMMMMMMMMMMdg111knMMMMMkw22222222222222222222222222222222222wMMMMMMMMMMMMMMMMM",
"MMMMMMMMMMMg522222222wnMMMMMv6222222222222222222222222222222222qMMMMMMMMMMMMMMMM",
"MMMMMMMMMM1222252229anMMMMMMbMkw22222222222222222222222222222222wMMMMMMMMMMMMMMM",
"MMMMMMMMMk2222222wdMnMMMMMMMMMMMm<22222222222222222222222222222221MMMMMMMMMMMMMM",
"MMMMMMMMMw222220bMMMMMMMMMMMMMMMMMmq222222222222222222222222222222gMMMMMMMMMMMMM",
"MMMMMMMMM92225gMnMMMMMMMMMMMMMMMMMMMm322222222222222222222222222222kMMMMMMMMMMMM",
"MMMMMMMMM2229MMMMMMMMMMMMMMMMMMMMMMMMMb22222222222222222222222222223bMMMMMMMMMMM",
"MMMMMMMMM32wMMMMMMMMMMMMMMMMMMMMMMMMMMMM;2222222222222222222222222229MMMMMMMMMMM",
"MMMMMMMMM2wMMMMMMMMMMMMMMMMMMMMMMMMMMMMMMb222222222222222222222222222gMMMMMMMMMM",
"MMMMMMMMM1MMMMMMMMMMMMMMMMMMMMMMMMMMMMMMMMM<22222222222222222222222222bMMMMMMMMM",
"MMMMMMMMMMMMMMy@nMMMMMMMMMMMMMMMMMMMMMMMMMMMa2222222222222222222222222wMMMMMMMMM",
"MMMMMMMMMMMMMMOXwnMnMMMMMMMMMMMMMMMMMMMMMMMMMm222222222222222222222222bMMMMMMMMM",
"MMMMMMMMMMMMM=XX>XMMMMMMMMMMMMMMMMMMMMMMMMMMMMM7222222222222222222222-MMMMMMMMMM",
"MMMMMMMMMMMMnXXXXX@zMMMMMMMMMMMMMMMMMMMMMMMMMMMMh22222222222222222229MMMMMMMMMMM",
"MMMMMMMMMMMM@XXXXXXopMMMMMMMMMMMMMMMMMMMMMMMMMMMMv222222222222222222bMMMMMMMMMMM",
"MMMMMMMMMMM#XXXXXXXXXnMMMMMMMMMMMMMMMMMMMMMMMMMMMMm22222222222222221MMMMMMMMMMMM",
"MMMMMMMMMMMXXXXXXXXXXXlMMMMMMMMMMMMMMMMMMMMMMMMMMMMM022222222222229MMMMMMMMMMMMM",
"MMMMMMMMMM@XXXXXXXXXXXqlMMMMMMMMMMMMMMMMMMMMMMMMMMMMM9222222222222bMMMMMMMMMMMMM",
"MMMMMMMMMpXXXXXXXXXXXXXX=MMMMMMMMMMMMMMMMMMMMMMMMMMMMMw22222222221MMMMMMMMMMMMMM",
"MMMMMMMMnXXXXXXXXXXXXXXXX=MMMMMMMMMMMMMMMMMMMMMMMMMMMMMw222222223MMMMMMMMMMMMMMM",
"MMMMMMMM+XXXXXXXXXXXXXXXXX+MMMMMMMMMMMMMMMMMMMMMMMMMMMMMw2222222dMMMMMMMMMMMMMMM",
"MMMMMMMyXXXXXXXXXXXXXXXXXXXXyMMMMMMMMMMMMMMMMMMMMMMMMMMMM1222221MMMMMMMMMMMMMMMM",
"MMMMMMMXXXXXXXXXXXXXXXXXXXXXXxMMMMMMMMMMMMMMMMMMMMMMMMMMMMw2220MMMMMMMMMMMMMMMMM",
"MMMMMM+XXXXXXXXXXXXXXXXXXXXXXX=MMMMMMMMMMMMMMMMMMMMMMMMMMMMa22dMMMMMMMMMMMMMMMMM",
"MMMMMzqXXXXXXXXXXXXXXXXXXXXXXXX%nMMMMMMMMMMMMMMMMMMMMMMMMMMM1wMMMMMMMMMMMMMMMMMM",
"MMMMMM#XXXXXXXXXXXXXXXXXXXXXXXXX3gMMMMMMMMMMMMMMMMMMMMMMMMMMMMMMMMpyMMMMMMMMMMMM",
"MMMMMMMXXXXXXXXXXXXXXXXXXXXXXXXXXX=MMzMMMMMMMMMMMMMMMMMMMMMMMMMMMpXrMMMMMMMMMMMM",
"MMMMMMMxXXXXXXXXXXXXXXXXXXXXXXXXXXX,yMMMMMMMMMMMMMMMMMMMMMMMMMMMy X#MMMMMMMMMMMM",
"MMMMMMMM#XXXXXXXXXXXXXXXXXXXXXXXXXXXX=yzMMMMMMMMMMMMMMMMMMMMMMM=XXX#MMMMMMMMMMMM",
"MMMMMMMMM@XXXXXXXXXXXXXXXXXXXXXXXXXXXX:yMMMMMMMMMMMMMMMMMMMMMz*XX XpMMMMMMMMMMMM",
"MMMMMMMMMM XXXXXXXXXXXXXXXXXXXXXXXXXXXXXorMMMMMMMMMMMMMMMMMzpXXXXXXzMMMMMMMMMMMM",
"MMMMMMMMMMMXXXXXXXXXXXXXXXXXXXXXXXXXXXXX.X+rMMMMMMMMMMMMMzyXXXXX X*MMMMMMMMMMMMM",
"MMMMMMMMMMMxXXXXXXXXXXXXXXXXXXXXXXXXXXXXXXXXXpMMMMMMMMMz=@XXXXXXXoMMMMMMMMMMMMMM",
"MMMMMMMMMMMMlqXXXXXXXXXXXXXXXXXXXXXXXXXXXXXXXXX=yMMMMM=oXXXXXXXX*MMMMMMMMMMMMMMM",
"MMMMMMMMMMMMMxXXXXXXXXXXXXXXXXXXXXXXXXXXXXXXXXXXXo=yMMMMzy*$+*lnMMMMMMMMMMMMMMMM",
"MMMMMMMMMMMMMMnXXXXXXXXXXXXXXXXXXXXXXXXXXXXXXXXXXXXXX@pbMMMMMMMyzMMMMMMMMMMMMMMM",
"MMMMMMMMMMMMMMMzXXXXXXXXXXXXXXXXXXXXXXXXXXXXXXXXXXXXXXXXXXo@@.X=MMMMMMMMMMMMMMMM",
"MMMMMMMMMMMMMMMMM*XXXXXXXXXXXXXXXXXXXXXXXXXXXXXXXXXXXXXXXXXXXXyMMMMMMMMMMMMMMMMM",
"MMMMMMMMMMMMMMMMMMlXXXXXXXXXXXXXXXXXXXXXXXXXXXXXXXXXXXXXXXXX@nMMMMMMMMMMMMMMMMMM",
"MMMMMMMMMMMMMMMMMMMM#XXXXXXXXXXXXXXXXXXXXXXXXXXXXXXXXXXXXXXyMMMMMMMMMMMMMMMMMMMM",
"MMMMMMMMMMMMMMMMMMMMMy+XXXXXXXXXXXXXXXXXXXXXXXXXXXXXXXXwXunMMMMMMMMMMMMMMMMMMMMM",
"MMMMMMMMMMMMMMMMMMMMMMMy=XXXXXXXXXXXXXXXXXXXXXXXXXXXXXX#nMMMMMMMMMMMMMMMMMMMMMMM",
"MMMMMMMMMMMMMMMMMMMMMMMMMM=OXXXXXXXXXXXXXXXXXXXXXXXX=yMMMMMMMMMMMMMMMMMMMMMMMMMM",
"MMMMMMMMMMMMMMMMMMMMMMMMMMMMpu+XXXXXXXXXXXXXXXXXO==nMMMMMMMMMMMMMMMMMMMMMMMMMMMM",
"MMMMMMMMMMMMMMMMMMMMMMMMMMMMMMMMyl==$Oo@oO+===ynMMMMMMMMMMMMMMMMMMMMMMMMMMMMMMMM",
"MMMMMMMMMMMMMMMMMMMMMMMMMMMMMMMMMMMMMMMMMMMMMMMMMMMMMMMMMMMMMMMMMMMMMMMMMMMMMMMM",
"MMMMMMMMMMMMMMMMMMMMMMMMMMMMMMMMMMMMMMMMMMMMMMMMMMMMMMMMMMMMMMMMMMMMMMMMMMMMMMMM",
"MMMMMMMMMMMMMMMMMMMMMMMMMMMMMMMMMMMMMMMMMMMMMMMMMMMMMMMMMMMMMMMMMMMMMMMMMMMMMMMM",
"MMMMMMMMMMMMMMMMMMMMMMMMMMMMMMMMMMMMMMMMMMMMMMMMMMMMMMMMMMMMMMMMMMMMMMMMMMMMMMMM",
"MMMMMMMM$=MMMMMMMMMMMMl*nMMMMMMMMMMMMMMMMMMMMMMMMMMMwkMMMMMMMMMMMMMMMMMMMMMMMMMM",
"MMMMMMMMX+MMMMMMMMMMMM=XyMMMMMMMMMMMMMMMMMMMMMMMMMMk26MMMMMMMMMMbppMMMMMMMMMMMMM",
"MMMMMMMM.+MMMMMMMMMMMMMpMMMMMMMMMMMMMMMMMMMMMMMMMMMMkMMMMMMMMMMMOXuMMMMMMMMMMMMM",
"MMM@u%#MX==XonMMlXX=MMy+nMOy=X+MMd0b02sc22aMnw558mMnwgM1wk86kMroXXoOO+=MMMM==MMM",
"MMMXXXyM@X+=X$MyX=yX=M=XyMXXX=X$Mk22w222w22MM9wa22Mk21Mw24w20Mz=XXyy*XwMMMp@MMMM",
"MMMXXnMMoXMMX+M+XyyoXMuXnMXXMMX&Mw2wMk2sMw5nMMMM72Mm2dMw2kMw2MM$X$MMyXXyMMXyMMMM",
"MMMX+MMMX+MM.+M@Xo.O+M=XyMw&MMX%Md2mMw2mMw2MMw2222Mn2wMw2MMw2MMoX=MMMXX=M*=MMMMM",
"MMMX$MMMX+MMo+M XMMMMM=XnMX=MMX+M12kM12mMw2Mp2gM62Mn21Mw2nMw2MbXXyMMM@X=y@MMMMMM",
"MMMX=MMMX+MMXoMyX*y==MuXyMX+MMX&Mw2zM12mMw2Ms2a122Mn2wMw2MMw2MywXyyyM=X. zMMMMMM",
"MMMX=MMMo$MM+=MM=XXX=MpXnMX=MM #Ma2nMd2nMw2Mn22ww2Mm2aMw2MMw5MMoooX=Mro yMMMMMMM",
"MMMMMMMMMMMMMMMMMMMMMMMMMMMMMMMMMMMMMMMMMMMMMMMMMMMMMMMMMMMMMMMMMMMMMMMMMMMMMMMM",
"MMMMMMMMMMMMMMMMMMMMMMMMMMMMMMMMMMMMMMMMMMMMMMMMMMMMMMMMMMMMMMMMMMMMMMMMMMMMMMMM",
"MMMMMMMMMMMMMMMMMMMMMMMMMMMMMMMMMMMMMMMMMMMMMMMMMMMMMMMMMMMMMMMMMMMMMMMMMMMMMMMM",
"MMMMMMMMMMMMMMMMMMMMMMMMMMMMMMMMMMMMMMMMMMMMMMMMMMMMMMMMMMMMMMMMMMMMMMMMMMMMMMMM",
"MMMMMMMMMMMMMMMMMMMMMMMMMMMMMMMMMMMMMMMMMMMMMMMMMMMMMMMMMMMMMMMMMMMMMMMMMMMMMMMM"
};
