/* XPM */
static char *xpm_[] = {
/* columns rows colors chars-per-pixel */
"80 80 188 2 ",
"   c #05162C",
".  c #061A38",
"X  c #00302F",
"o  c #04253C",
"O  c #162838",
"+  c #252830",
"@  c #273137",
"#  c #333536",
"$  c #36413E",
"%  c #4A4C3D",
"&  c #031C41",
"*  c #04294A",
"=  c #112B49",
"-  c #003049",
";  c #173545",
":  c #062A57",
">  c #102A57",
",  c #013B5B",
"<  c #113756",
"1  c #213648",
"2  c #023D61",
"3  c #02397A",
"4  c #01415E",
"5  c #164758",
"6  c #214E5E",
"7  c #334C5E",
"8  c #2F515B",
"9  c #3C4545",
"0  c #014867",
"q  c #194867",
"w  c #0C506E",
"e  c #014D71",
"r  c #154974",
"t  c #035274",
"y  c #185974",
"u  c #384F66",
"i  c #2A5665",
"p  c #395469",
"a  c #215D79",
"s  c #385A77",
"d  c #1A607E",
"f  c #10717F",
"g  c #046376",
"h  c #27637C",
"j  c #3B6267",
"k  c #464A47",
"l  c #4A504D",
"z  c #58574A",
"x  c #454F54",
"c  c #455558",
"v  c #5B5851",
"b  c #66604D",
"n  c #6B665B",
"m  c #7B765C",
"M  c #68735D",
"N  c #446D6F",
"B  c #586C79",
"V  c #4A6B77",
"C  c #686C68",
"Z  c #6E706B",
"A  c #78756B",
"S  c #646D71",
"D  c #677476",
"F  c #747875",
"G  c #817B54",
"H  c #887A68",
"J  c #858B5C",
"K  c #9C8C75",
"L  c #979678",
"P  c #8D887A",
"I  c #9DB77E",
"U  c #004C86",
"Y  c #075987",
"T  c #175486",
"R  c #025C90",
"E  c #1D5C90",
"W  c #265A85",
"Q  c #066887",
"!  c #086693",
"~  c #057999",
"^  c #1E7597",
"/  c #186D93",
"(  c #2C6783",
")  c #346C85",
"_  c #3B728A",
"`  c #2B6897",
"'  c #377397",
"]  c #366690",
"[  c #087EAD",
"{  c #207EA2",
"}  c #3278A8",
"|  c #446C8A",
" . c #5A6F80",
".. c #44778D",
"X. c #5E7C8F",
"o. c #4A7D92",
"O. c #567E94",
"+. c #617B82",
"@. c #407CAB",
"#. c #597FA0",
"$. c #01809F",
"%. c #0998B7",
"&. c #378AB0",
"*. c #518188",
"=. c #52928E",
"-. c #4D8197",
";. c #578699",
":. c #61899C",
">. c #78949C",
",. c #558DA7",
"<. c #4293AF",
"1. c #4689B7",
"2. c #5799B0",
"3. c #558CB4",
"4. c #6993A5",
"5. c #769BAC",
"6. c #679BB2",
"7. c #7A9FB0",
"8. c #688BA1",
"9. c #7CA2AE",
"0. c #7EA3B3",
"q. c #7EB2B4",
"w. c #4E99C4",
"e. c #5698C4",
"r. c #65A5C9",
"t. c #74ACCE",
"y. c #69ADD4",
"u. c #73AFD2",
"i. c #6BB3D7",
"p. c #7BB5D3",
"a. c #7DB2C7",
"s. c #808D8E",
"d. c #899889",
"f. c #9B9586",
"g. c #85999F",
"h. c #939B97",
"j. c #A99D8B",
"k. c #A09D96",
"l. c #91A98B",
"z. c #9FB597",
"x. c #A4B089",
"c. c #BAAA94",
"v. c #A5A899",
"b. c #86A7B5",
"n. c #90AFBC",
"m. c #94B2BE",
"M. c #88B7AE",
"N. c #A8AAA4",
"B. c #B4B9AD",
"V. c #ACB3AD",
"C. c #C2B59F",
"Z. c #C5BCA7",
"A. c #B5CE8A",
"S. c #CAC1AC",
"D. c #CAC7B3",
"F. c #D2D2B1",
"G. c #E2D2BA",
"H. c #8CB7C9",
"J. c #9AB7C3",
"K. c #85BBDA",
"L. c #90B8D1",
"P. c #A3BDC7",
"I. c #97C6D1",
"U. c #ABC2CC",
"Y. c #B2C5CD",
"T. c #A6C7D7",
"R. c #B7CBD4",
"E. c #BFD1D8",
"W. c #8AC6E4",
"Q. c #9ACCE4",
"!. c #9FD5EB",
"~. c #A2D6EC",
"^. c #B8D5E3",
"/. c #BEE6F4",
"(. c #CED1CC",
"). c #DBD4C3",
"_. c #C5D5DC",
"`. c #E5D9C2",
"'. c #EDE1CC",
"]. c #CCDBE1",
"[. c #D2DEE3",
"{. c #D9E4E8",
"}. c #E4EBEE",
"|. c #FFFCE4",
" X c #E9EEF1",
".X c #EBF1F4",
"XX c #FDFEFE",
"oX c None",
/* pixels */
"oXoXoXoXoXoXoXoXoXoXoXoXoXoXoXoXoXoXoXoXoXoXoXoXoXoXoXoXoXoXoXoXoXoXoXoXoXoXoXoXoXoXoXoXoXoXoXoXoXoXoXoXoXoXoXoXoXoXoXoXoXoXoXoXoXoXoXoXoXoXoXoXoXoXoXoXoXoXoXoX",
"oXoXoXoXoXoXoXoXoXoXoXoXoXoXoXoXoXoXoXoXoXoXoXoXoXoXoXoXoXoXoXoXoXoXoXoXoXoXoXoXoXoXoXoXoXoXoXoXoXoXoXoXoXoXoXoXoXoXoXoXoXoXoXoXoXoXoXoXoXoXoXoXoXoXoXoXoXoXoXoX",
"oXoXoXoXoXoXoXoXoXoXoXoXoXoXoXoXoXoXoXoXoXoXoXoXoXoXoXoXoXoXoXoXoXoXoXoXoXoXoXoXoXoXoXoXoXoXoXoXoXoXoXoXoXoXoXoXoXoXoXoXoXoXoXoXoXoXoXoXoXoXoXoXoXoXoXoXoXoXoXoX",
"oXoXoXoXoXoXoXoXoXoXoXoXoXoXoXoXoXoXoXoXoXoXoXoXoXoXoXoXoXoXoXoXoXoXoXoXoXoXoXoXoXoXoXoXoXoXoXoXoXoXoXoXoXoXoXoXoXoXoXoXoXoXoXoXoXoXoXoXoXoXoXoXoXoXoXoXoXoXoXoX",
"oXoXoXoXoXoXoXoXoXoXoXoXoXoXoXoXoXoXoXoXoXoXoXoXoXoXoXoXoXoXoXoXoXoXoXoXoXoXoXoXoXoXoXoXoXoXoXoXoXoXoXoXoXoXoXoXoXoXoXoXoXoXoXoXoXoXoXoXoXoXoXoXoXoXoXoXoXoXoXoX",
"oXoXoXoXoXoXoXoXoXoXoXoXoXoXoXoXoXoXoXoXoXoXoXoXoXoXoXoXoXoXoXoXoXoXoXoXoXoXoXoXoXoXoXoXoXoXoXoXoXoXoXoXoXoXoXoXoXoXoXoXoXoXoXoXoXoXoXoXoXoXoXoXoXoXoXoXoXoXoXoX",
"oXoXoXoXoXoXoXoXoXoXoXoXoXoXoXoXoXoXoXoXoXoXoXoXoXoXoXoXoXoXoXoXoXoXoXoXoXoXoXoXoXoXoXoXoXoXoXoXoXoXoXoXoXoXoXoXoXoXoXoXoXoXoXoXoXoXoXoXoXoXoXoXoXoXoXoXoXoXoXoX",
"oXoXoXoXoXoXoXoXoXoXoXoXoXoXoXoXoXoXoXoXoXoXoXoXoXoXoXoXoXoXoXoXoXoXoXoXoXoXoXoXoXoXoXoXoXoXoXoXoXoXoXoXoXoXoXoXoXoXoXoXoXoXoXoXoXoXoXoXoXoXoXoXoXoXoXoXoXoXoXoX",
"oXoXoXoXoXoXoXoXoXoXoXoXoXoXoXoXoXoXoXoXoXoXoXoXoXoXoXoXoXoXoXoXoXoXoXoXoXoXoXoXoXoXoXoXoXoXoXoXoXoXoXoXoXoXoXoXoXoXoXoXoXoXoXoXoXoXoXoXoXoXoXoXoXoXoXoXoXoXoXoX",
"oXoXoXoXoXoXoXoXoXoXoXoXoXoXoXoXoXoXoXoXoXoXoXoXoXoXoXoXoXoXoXoXoXoXoXoXoXoXoXoXoXoXoXoXoXoXoXoXoXoXoXoXoXoXoXoXoXoXoXoXoXoXoXoXoXoXoXoXoXoXoXoXoXoXoXoXoXoXoXoX",
"oXoXoXoXoXoXoXoXoXoXoXoXoXoXoXoXoXoXoXoXoXoXoXoXoXoXoXoXoXoXoXoXoXoXoXoXoXoXoXoXoXoXoXoXoXoXoXoXoXoXoXoXoXoXoXoXoXoXoXoXoXoXoXoXoXoXoXoXoXoXoXoXoXoXoXoXoXoXoXoX",
"oXoXoXoXoXoXoXoXoXoXoXoXoXoXoXoXoXoXoXoXoXoXoXoXoXoXoXoXoXoXoXoXoXoXoXoXoXoXoXoXoXoXoXoXoXoXoXoXoXoXoXoXoXoXoXoXoXoXoXoXoXoXoXoXoXoXoXoXoXoXoXoXoXoXoXoXoXoXoXoX",
"oXoXoXoXoXoXoXoXoXoXoXoXoXoXoXoXoXoXoXoXoXoXoXoXoXoXoXoXoXoXoXoXoXoXoXoXoXoXoXoXoXoXoXoXoXoXoXoXoXoXoXoXoXoXoXoXoXoXoXoXoXoXoXoXoXoXoXoXoXoXoXoXoXoXoXoXoXoXoXoX",
"oXoXoXoXoXoXoXoXoXoXoXoXoXoXoXoXoXoXoXoXoXoXoXoXoXoXoXoXoXoXoXoXoXoXoXoXoXoXoXoXoXoXoXoXoXoXoXoXoXoXoXoXoXoXoXoXoXoXoXoXoXoXoXoXoXoXoXoXoXoXoXoXoXoXoXoXoXoXoXoX",
"oXoXoXoXoXoXoXoXoXoXoXoXoXoXoXoXoXoXoXoXoXoXoXoXoXoXoXoXoXoXoXoXoXoXoXoXoXoXoXoXoXoXoXoXoXoXoXoXoXoXoXoXoXoXoXoXoXoXoXoXoXoXoXoXoXoXoXoXoXoXoXoXoXoXoXoXoXoXoXoX",
"oXoXoXoXoXoXoXoXoXoXoXoXoXoXoXoXoXoXoXoXoXoXoXoXoXoXoXoXoXoXoXoXoXoXoXoXoXoXoXoXoXoXoXoXoXoXoXoXoXoXoXoXoXoXoXoXoXoXoXoXoXoXoXoXoXoXoXoXoXoXoXoXoXoXoXoXoXoXoXoX",
"oXoXoXoXoXoXoXoXoXoXoXoXoXoXoXoXoXoXoXoXoXoXoXoXoXoXoXoXoXoXoXoXoXoXoXoXoXoXoXoXoXoXoXoXoXoXoXoXoXoXoXoXoXoXoXoXoXoXoXoXoXoXoXoXoXoXoXoXoXoXoXoXoXoXoXoXoXoXoXoX",
"oXoXoXoXoXoXoXoXoXoXoXoXoXoXoXoXoXoXoXoXoXoXoXoXoXoXoXoXoXoXoXoXoXoXoXoXoXoXoXoXoXoXoXoXoXoXoXoXoXoXoXoXoXoXoXoXoXoXoXoXoXoXoXoXoXoXoXoXoXoXoXoXoXoXoXoXoXoXoXoX",
"oXoXoXoXoXoXoXoXoXoXoXoXoXoXoXoXoXoXoXoXoXoXoXoXoXoXoXoXoXoXoXoXoXoXoXoXoXoXoXoXoXoXoXoXoXoXoXoXoXoXoXoXoXoXoXoXoXoXoXoXoXoXoXoXoXoXoXoXoXoXoXoXoXoXoXoXoXoXoXoX",
"oXoXoXoXoXoXoXoXoXoXoXoXoXoXoXoXoXoXoXoXoXoXoXoXoXoXoXoXoXoXoXoXoXoXoXoXoXoXoXoXoXoXoXoXoXoXoXoXoXoXoXoXoXoXoXoXoXoXoXoXoXoXoXoXoXoXoXoXoXoXoXoXoXoXoXoXoXoXoXoX",
"oXoXoXoXoXoXoXoXoXoXoXoXoXoXoXoXoXoXoXoXoXoXoXoXoXoXoXoXoXoXoXoXoXoXoXoXoXoXoXoXoXoXoXoXoXoXoXoXoXoXoXoXoXoXoXoXoXoXoXoXoXoXoXoXoXoXoXoXoXoXoXoXoXoXoXoXoXoXoXoX",
"oXoXoXoXoXoXoXoXoXoXoXoXoXoXoXoXoXoXoXoXoXoXoXoXoXoXoXoXoXoXoXoXoXoXoXoXoXoXoXoXoXoXoXoXoXoXoXoXoXoXoXoXoXoXoXoXoXoXoXoXoXoXoXoXoXoXoXoXoXoXoXoXoXoXoXoXoXoXoXoX",
"oXoXoXoXoXoXoXoXoXoXoXoXoXoXoXoXoXoXoXoXoXoXoXoXoXoXoXoXoXoXoXoXoXoXoXoXoXoXoXoXoXoXoXoXoXoXoXoXoXoXoXoXoXoXoXoXoXoXoXoXoXoXoXoXoXoXoXoXoXoXoXoXoXoXoXoXoXoXoXoX",
"oXoXoXoXoXoXoXoXoXoXoXoXoXoXoXoXoXoXoXoXoXoXoXoXoXoXoXoXoXoXoXoXoXoXoXoXoXoXoXoXoXoXoXoXoXoXoXoXoXoXoXoXoXoXoXoXoXoXoXoXoXoXoXoXoXoXoXoXoXoXoXoXoXoXoXoXoXoXoXoX",
"oXoXoX0 0 0 0 0 0 0 0 e 0 0 0 0 0 0 e 0 0 0 0 0 0 0 0 0 0 0 0 0 0 0 0 0 0 0 0 0 e e 0 0 0 0 0 0 e 0 0 e e 0 e 0 e e e e e e e e e e e t t 0 t 0 t 0 t 0 t oXoXoX",
"oXoXoX0 0 3 0 0 0 0 0 0 0 e 0 0 0 0 0 0 0 0 0 0 0 0 0 0 0 0 0 0 0 0 0 0 e 0 0 0 0 0 0 e 0 0 e 0 0 0 e 0 e e e e e e e t e t e e e e t 0 t t 0 t t t 0 t e oXoXoX",
"oXoXoX0 0 0 0 0 0 0 0 0 0 0 0 0 0 e 0 0 0 0 0 0 0 3 0 0 0 0 0 e 0 0 0 0 0 0 0 e e 0 0 e e 0 e e t 0 e e e 0 e e t e 0 0 0 0 t t t e e e 0 t 0 t 0 t t 0 0 oXoXoX",
"oXoXoX0 0 0 0 0 0 0 0 0 e 0 0 0 0 0 0 0 0 0 e 0 0 e 0 0 0 0 0 0 0 e e 0 e 0 0 0 0 0 0 e 0 e 0 e 0 t 0 e e e t e 0 t ' 2.<.^ w 4 0 t e e t 0 t 0 t 0 0 e e oXoXoX",
"oXoXoX0 0 0 0 0 0 0 0 0 0 0 0 0 0 0 0 0 0 e 0 0 0 0 0 0 0 0 0 0 0 0 0 0 0 0 0 e 0 0 0 0 0 e e 0 e 0 e t 0 t 0 g 6.t.T.L.6.Q.8 . = > e e t 0 t 0 0 0 t 0 0 oXoXoX",
"oXoXoX0 e 0 0 0 0 0 0 0 0 0 0 0 2 2 0 0 0 0 2 0 2 0 0 0 0 0 0 2 0 2 0 e 0 e e 2 w ) _ ( e 4 e e e t t 0 e 0 -.}..XL.R.R.XXXXX.O +   > U t t 0 t 0 t t 0 e oXoXoX",
"oXoXoX0 0 0 e 0 3 U.}.{.{.{.{.{.[.5.0 0 2 ..[._.[...2 0 e 2 ;.[.R.]._ 2 e 0 0 5.}.XXXXXX{.;.0 e 0 e e 0 e ,.H.^.Q.K.T.^.T.| | ;.s u W T t t t 0 0 t 0 0 0 oXoXoX",
"oXoXoX0 0 0 0 0 0 }.XXXXXXXXXXXXXXXX7.2 , 5.XXXXXXJ., e 0 w  XXXXXXX..2 e 0 _.XXXXXXXXXXXXXX9.0 t t t 0 ,.r.w.y.W.!.i.p.^.L.,.:.s 1 u ] U e 0 t 0 0 0 t e oXoXoX",
"oXoXoX0 0 0 0 0 y .XXXXXXXXXXXXXXXXX}.w , n.XXXXXX{.0 0 , 5.XXXXXXXX( 0 0 U.XXXXXXXXXXXXXXXX{.0 t e 0 / W.r.K.~./.~.W.i.p.].{.{.Y. .b.#.E : : e e 0 0 0 e oXoXoX",
"oXoXoX0 0 e 0 2 h XXXXXX_.0 b.XXXXXXXXW , U.XXXXXXXX_ 0 w }.XXXXXX.Xy 2 ;.XXXXXXXXXX{.XXXXXX-.0 t e t &.@.e.y.W.!.~.W.I.r.t.[.,.b.P.b.O.] r 2 2 e 0 0 e 0 oXoXoX",
"oXoXoXe 0 0 0 2 ..XXXXXXY., 0 .XXXXXXXa , _.XXXXXXXXb.: 0.XXXXXXXX}.w 2 _.XXXXXX[.( e ..XXT.0 e t w ^ } } @.y.K.W.Q.W.I.q.=.*.+.d.R.>.X.| W r 2 e 0 0 e e oXoXoX",
"oXoXoX0 0 0 0 2 :.XXXXXXm.: y XXXXXX.Xw 0 {.XXXXXXXX_.w .XXXXXXXXX{.0 ( XXXXXXXX( 2 e 0 _ W 0 t e w $.` ] } e.u.K.u.e.b.A.I x.L v.B.s.5. .u r 2 t 0 0 0 0 oXoXoX",
"oXoXoX0 0 0 0 2 0.XXXXXXU.( Y.XXXXXXR., y .XXXXXXXXX.XU.XXXXXXXXXX_.2 -.XXXXXXE.0 e e w 0 0 t t e t / T W ] ' 3.2.9.F.z.l.d.J L J z b b z # ; t Y 0 0 0 0 oXoXoX",
"oXoXoX0 0 0 0 2 J.XXXXXXXXXXXXXXXXXX.., ( XXXXXXXXXXXXXXXXXXXXXXXXU., 4.XXXXXXJ.0 e e e t e e e e Q T a W W W ` ` g.N.T y N M G ; O % # M k r Q ~ e 0 0 0 oXoXoX",
"oXoXoX0 0 0 0 , R.XXXXXXXXXXXXXXXX;.0 2 _ XXXXXXXXXXXXXXXXXXXX.XXXJ.: 4.XXXXXXJ.0 t t 0 0 t t t e t r 3 < r < s h.).(.B.V q 8 c m Z F @ l z 6 t $.t 0 0 0 oXoXoX",
"oXoXoX0 0 e 0 0 ].XXXXXXP. XXXXX}.0 0 2 ;.XXXXXX.XXXXXXXXX[.XXXXXX0., ;.XXXXXX{.e e 2 o.J.t e t e t ! 2 < :  .).F.'.'.|.N.- o o k H K z l k 5 g %.t 4 0 0 oXoXoX",
"oXoXoX0 0 e 0 w  XXXXXXXy U.XXXXXX..0 , 5.XXXXXXb.XXXXXX{.b.XXXXXX4.2 ( XXXXXXXXE.o.6.XXXX,.0 t t e Y r = = 9.B.c.D.C.Z.G.f.N.S ; K j.b v u f ~ $.t 0 0 0 oXoXoX",
"oXoXoX0 0 0 0 y .XXXXXXXw 5.XX.XXXb.2 2 n.XXXXXX) {.XXXX6.5.XXXXXX-.e 0 E.XXXXXXXXXXXXXXXX{.e t t t U 2 * o j >.h.j.j.j.C.Z.D.Z.f.H K S @ = 4 Q / e 4 4 0 oXoXoX",
"oXoXoX0 0 0 2 ( XXXXXX.X0 ..XXXXXX_.0 0 P.XXXX.Xw J.XX.Xw n.XXXXXX) 0 e _ XXXXXXXXXXXXXXXXU.e t t Y R : > * X 8 o.D A d.P H f.f.Z # Z D i o & ~ ~ 4 0 0 0 oXoXoX",
"oXoXoX0 0 0 2 O.XXXXXX.X0 y XXXXXXXXa 2 [.XXXX X0 -.XXm., R.XXXXXX( e e 0 -..XXXXXXXXXXXJ.t t t t t R 3 > > w 0 ^ ( x S D n A A n + k 8 <   : [ Q 4 0 0 0 oXoXoX",
"oXoXoX0 e 0 , a ;.;.:.o.0 0 ..;.O.;.y 4 o.;.;...0 w ;.y 4 _ ;.;.O.e 0 0 w 4 y ;.;.-.;._ 4 0 0 0 0 0 e e 0 , 0 t 4 4 4 5 q q i 5 5 5 < 5 - , 0 g w 4 0 4 0 oXoXoX",
"oXoXoX0 0 0 0 0 , 4 4 , 4 4 , 4 , , 0 0 , , , , 0 0 , 4 4 4 , , , 0 4 0 0 0 4 , , , , 4 0 0 0 0 0 0 0 0 0 4 4 4 0 0 0 0 0 0 0 0 0 w 0 0 0 0 0 4 0 0 0 0 0 oXoXoX",
"oXoXoX0 0 0 0 4 4 4 4 4 4 4 0 4 0 4 , 4 4 0 4 , 4 0 0 4 0 0 4 0 4 0 4 4 0 4 4 , 0 4 4 4 4 0 , , , 0 , , , 4 4 0 0 4 4 0 , 4 , , 4 4 , , 4 0 4 4 0 0 4 0 0 oXoXoX",
"oXoXoX0 4 0 4 h U.m.:., d R.{.b.4 h P._.;., -.U.V.h 4 5.y 0 9.w 9.0 w 5.4 9.P.P.y _ P.m.*.w J.P.P.a *.U.U.;.4 4 4 b.-.h m.o.R.Y.h w P.P.y , m.*.4 0 0 0 0 oXoXoX",
"oXoXoX0 0 0 4 :.Y.h _.*.) _.h ) 4 E.4.h h h ].h :.].0 R.h w [.0 _.) ..U., _.=._ 4 b.U.h XXh h ].-.2 P.n.h h 0 4 w XX5.m.{.Y.{.{._.y ) P.5._ XX4., 0 0 4 0 oXoXoX",
"oXoXoX0 4 0 4 ;.0.  ;.m.y {.J._ w _.4 - * M.5.- - Y.) J.y 0 E.4 *.m.m._ , _.U.9.4 4.[.Y.m.4 4 U.y - n.E.M.h 4 4 _ XX}.XXb.{.y 4.{.- h R.-.Y.b.9., 0 0 0 0 oXoXoX",
"oXoXoX0 0 0 4 :.U.w E.-.h E.y h 4 R.>.h .._ _.w h ].0 Y.=.) ].4 0 {.E.4 0 _.*.d 4 b.m.m.b., 4 E.h - P.0.y y 4 4 P.{.) XXb.XX{.XX*.h XXh o.U._._.0 0 4 0 0 oXoXoX",
"oXoXoX0 0 4 4 _ Y.U.9., h R.U.J.0 y U.R.:., 5.R._.o., ) Y.R.*.4 , 5.;.4 4 m.Y.Y.h *.4.4 R.y 4 b.y , 4.R.U.4.4 4 b.;.h m.;.R.R.:., >._.P.-.- ;.o.4 0 4 0 0 oXoXoX",
"oXoXoX0 0 0 4 4 4 4 4 0 4 4 4 4 0 4 4 4 , 0 , 0 4 4 w 4 4 4 4 0 0 4 4 4 0 4 4 4 0 4 4 0 4 0 4 4 0 0 4 4 4 0 0 0 4 4 4 4 0 , , , 0 4 4 4 0 0 4 4 4 0 0 0 4 oXoXoX",
"oXoXoX0 0 4 0 0 0 4 0 0 0 0 0 0 0 0 0 0 0 0 0 4 0 0 4 0 0 4 0 4 0 0 0 0 4 0 0 0 0 0 0 0 0 0 0 0 0 0 0 0 4 0 4 0 0 0 0 0 0 0 0 0 0 0 0 0 4 4 0 0 0 4 0 0 0 oXoXoX",
"oXoXoX0 0 0 4 0 0 4 0 4 0 4 0 4 0 4 0 4 4 0 0 0 4 4 0 0 0 4 0 0 4 0 4 0 0 0 4 0 0 4 4 0 0 4 0 4 0 0 4 4 0 0 0 0 4 0 0 0 0 4 4 0 0 0 0 4 0 0 0 0 0 0 0 4 0 oXoXoX",
"oXoXoX0 4 0 0 4 0 0 0 0 0 0 0 0 0 0 0 0 0 4 4 0 0 0 4 0 0 0 0 0 0 0 4 0 0 0 0 0 0 0 0 4 0 4 0 0 4 0 0 0 0 4 4 0 0 0 0 4 0 0 4 0 0 4 0 0 0 4 4 0 4 0 0 0 0 oXoXoX",
"oXoXoX0 0 0 0 0 4 0 0 0 0 0 0 0 0 0 0 0 0 0 0 0 0 0 0 0 0 0 0 0 0 4 0 0 0 0 0 0 0 0 0 0 0 0 0 0 0 0 0 0 0 0 0 0 0 4 0 0 0 0 0 0 0 0 0 0 0 0 0 0 0 0 0 0 0 oXoXoX",
"oXoXoXoXoXoXoXoXoXoXoXoXoXoXoXoXoXoXoXoXoXoXoXoXoXoXoXoXoXoXoXoXoXoXoXoXoXoXoXoXoXoXoXoXoXoXoXoXoXoXoXoXoXoXoXoXoXoXoXoXoXoXoXoXoXoXoXoXoXoXoXoXoXoXoXoXoXoXoXoX",
"oXoXoXoXoXoXoXoXoXoXoXoXoXoXoXoXoXoXoXoXoXoXoXoXoXoXoXoXoXoXoXoXoXoXoXoXoXoXoXoXoXoXoXoXoXoXoXoXoXoXoXoXoXoXoXoXoXoXoXoXoXoXoXoXoXoXoXoXoXoXoXoXoXoXoXoXoXoXoXoX",
"oXoXoXoXoXoXoXoXoXoXoXoXoXoXoXoXoXoXoXoXoXoXoXoXoXoXoXoXoXoXoXoXoXoXoXoXoXoXoXoXoXoXoXoXoXoXoXoXoXoXoXoXoXoXoXoXoXoXoXoXoXoXoXoXoXoXoXoXoXoXoXoXoXoXoXoXoXoXoXoX",
"oXoXoXoXoXoXoXoXoXoXoXoXoXoXoXoXoXoXoXoXoXoXoXoXoXoXoXoXoXoXoXoXoXoXoXoXoXoXoXoXoXoXoXoXoXoXoXoXoXoXoXoXoXoXoXoXoXoXoXoXoXoXoXoXoXoXoXoXoXoXoXoXoXoXoXoXoXoXoXoX",
"oXoXoXoXoXoXoXoXoXoXoXoXoXoXoXoXoXoXoXoXoXoXoXoXoXoXoXoXoXoXoXoXoXoXoXoXoXoXoXoXoXoXoXoXoXoXoXoXoXoXoXoXoXoXoXoXoXoXoXoXoXoXoXoXoXoXoXoXoXoXoXoXoXoXoXoXoXoXoXoX",
"oXoXoXoXoXoXoXoXoXoXoXoXoXoXoXoXoXoXoXoXoXoXoXoXoXoXoXoXoXoXoXoXoXoXoXoXoXoXoXoXoXoXoXoXoXoXoXoXoXoXoXoXoXoXoXoXoXoXoXoXoXoXoXoXoXoXoXoXoXoXoXoXoXoXoXoXoXoXoXoX",
"oXoXoXoXoXoXoXoXoXoXoXoXoXoXoXoXoXoXoXoXoXoXoXoXoXoXoXoXoXoXoXoXoXoXoXoXoXoXoXoXoXoXoXoXoXoXoXoXoXoXoXoXoXoXoXoXoXoXoXoXoXoXoXoXoXoXoXoXoXoXoXoXoXoXoXoXoXoXoXoX",
"oXoXoXoXoXoXoXoXoXoXoXoXoXoXoXoXoXoXoXoXoXoXoXoXoXoXoXoXoXoXoXoXoXoXoXoXoXoXoXoXoXoXoXoXoXoXoXoXoXoXoXoXoXoXoXoXoXoXoXoXoXoXoXoXoXoXoXoXoXoXoXoXoXoXoXoXoXoXoXoX",
"oXoXoXoXoXoXoXoXoXoXoXoXoXoXoXoXoXoXoXoXoXoXoXoXoXoXoXoXoXoXoXoXoXoXoXoXoXoXoXoXoXoXoXoXoXoXoXoXoXoXoXoXoXoXoXoXoXoXoXoXoXoXoXoXoXoXoXoXoXoXoXoXoXoXoXoXoXoXoXoX",
"oXoXoXoXoXoXoXoXoXoXoXoXoXoXoXoXoXoXoXoXoXoXoXoXoXoXoXoXoXoXoXoXoXoXoXoXoXoXoXoXoXoXoXoXoXoXoXoXoXoXoXoXoXoXoXoXoXoXoXoXoXoXoXoXoXoXoXoXoXoXoXoXoXoXoXoXoXoXoXoX",
"oXoXoXoXoXoXoXoXoXoXoXoXoXoXoXoXoXoXoXoXoXoXoXoXoXoXoXoXoXoXoXoXoXoXoXoXoXoXoXoXoXoXoXoXoXoXoXoXoXoXoXoXoXoXoXoXoXoXoXoXoXoXoXoXoXoXoXoXoXoXoXoXoXoXoXoXoXoXoXoX",
"oXoXoXoXoXoXoXoXoXoXoXoXoXoXoXoXoXoXoXoXoXoXoXoXoXoXoXoXoXoXoXoXoXoXoXoXoXoXoXoXoXoXoXoXoXoXoXoXoXoXoXoXoXoXoXoXoXoXoXoXoXoXoXoXoXoXoXoXoXoXoXoXoXoXoXoXoXoXoXoX",
"oXoXoXoXoXoXoXoXoXoXoXoXoXoXoXoXoXoXoXoXoXoXoXoXoXoXoXoXoXoXoXoXoXoXoXoXoXoXoXoXoXoXoXoXoXoXoXoXoXoXoXoXoXoXoXoXoXoXoXoXoXoXoXoXoXoXoXoXoXoXoXoXoXoXoXoXoXoXoXoX",
"oXoXoXoXoXoXoXoXoXoXoXoXoXoXoXoXoXoXoXoXoXoXoXoXoXoXoXoXoXoXoXoXoXoXoXoXoXoXoXoXoXoXoXoXoXoXoXoXoXoXoXoXoXoXoXoXoXoXoXoXoXoXoXoXoXoXoXoXoXoXoXoXoXoXoXoXoXoXoXoX",
"oXoXoXoXoXoXoXoXoXoXoXoXoXoXoXoXoXoXoXoXoXoXoXoXoXoXoXoXoXoXoXoXoXoXoXoXoXoXoXoXoXoXoXoXoXoXoXoXoXoXoXoXoXoXoXoXoXoXoXoXoXoXoXoXoXoXoXoXoXoXoXoXoXoXoXoXoXoXoXoX",
"oXoXoXoXoXoXoXoXoXoXoXoXoXoXoXoXoXoXoXoXoXoXoXoXoXoXoXoXoXoXoXoXoXoXoXoXoXoXoXoXoXoXoXoXoXoXoXoXoXoXoXoXoXoXoXoXoXoXoXoXoXoXoXoXoXoXoXoXoXoXoXoXoXoXoXoXoXoXoXoX",
"oXoXoXoXoXoXoXoXoXoXoXoXoXoXoXoXoXoXoXoXoXoXoXoXoXoXoXoXoXoXoXoXoXoXoXoXoXoXoXoXoXoXoXoXoXoXoXoXoXoXoXoXoXoXoXoXoXoXoXoXoXoXoXoXoXoXoXoXoXoXoXoXoXoXoXoXoXoXoXoX",
"oXoXoXoXoXoXoXoXoXoXoXoXoXoXoXoXoXoXoXoXoXoXoXoXoXoXoXoXoXoXoXoXoXoXoXoXoXoXoXoXoXoXoXoXoXoXoXoXoXoXoXoXoXoXoXoXoXoXoXoXoXoXoXoXoXoXoXoXoXoXoXoXoXoXoXoXoXoXoXoX",
"oXoXoXoXoXoXoXoXoXoXoXoXoXoXoXoXoXoXoXoXoXoXoXoXoXoXoXoXoXoXoXoXoXoXoXoXoXoXoXoXoXoXoXoXoXoXoXoXoXoXoXoXoXoXoXoXoXoXoXoXoXoXoXoXoXoXoXoXoXoXoXoXoXoXoXoXoXoXoXoX",
"oXoXoXoXoXoXoXoXoXoXoXoXoXoXoXoXoXoXoXoXoXoXoXoXoXoXoXoXoXoXoXoXoXoXoXoXoXoXoXoXoXoXoXoXoXoXoXoXoXoXoXoXoXoXoXoXoXoXoXoXoXoXoXoXoXoXoXoXoXoXoXoXoXoXoXoXoXoXoXoX",
"oXoXoXoXoXoXoXoXoXoXoXoXoXoXoXoXoXoXoXoXoXoXoXoXoXoXoXoXoXoXoXoXoXoXoXoXoXoXoXoXoXoXoXoXoXoXoXoXoXoXoXoXoXoXoXoXoXoXoXoXoXoXoXoXoXoXoXoXoXoXoXoXoXoXoXoXoXoXoXoX",
"oXoXoXoXoXoXoXoXoXoXoXoXoXoXoXoXoXoXoXoXoXoXoXoXoXoXoXoXoXoXoXoXoXoXoXoXoXoXoXoXoXoXoXoXoXoXoXoXoXoXoXoXoXoXoXoXoXoXoXoXoXoXoXoXoXoXoXoXoXoXoXoXoXoXoXoXoXoXoXoX",
"oXoXoXoXoXoXoXoXoXoXoXoXoXoXoXoXoXoXoXoXoXoXoXoXoXoXoXoXoXoXoXoXoXoXoXoXoXoXoXoXoXoXoXoXoXoXoXoXoXoXoXoXoXoXoXoXoXoXoXoXoXoXoXoXoXoXoXoXoXoXoXoXoXoXoXoXoXoXoXoX"
};
