/* XPM */
static char *xpm_[] = {
/* columns rows colors chars-per-pixel */
"80 80 217 2 ",
"   c #879C8A",
".  c #D4575C",
"X  c #E98F68",
"o  c #C8DC71",
"O  c #9670A0",
"+  c #B0607E",
"@  c #8172B6",
"#  c #B2627E",
"$  c #5F82BE",
"%  c #B06483",
"&  c #8074B4",
"*  c #D4E376",
"=  c #8276B4",
"-  c #BC1E2B",
";  c #BD222E",
":  c #BF2935",
">  c #BF323E",
",  c #C1323D",
"<  c #B40412",
"1  c #C93629",
"2  c #C02C38",
"3  c #C3363A",
"4  c #C52B28",
"5  c #C4231B",
"6  c #D14A29",
"7  c #C9453B",
"8  c #D35230",
"9  c #D9673D",
"0  c #DE753F",
"q  c #E27D3A",
"w  c #BC3847",
"e  c #B94053",
"r  c #C53A44",
"t  c #B94858",
"y  c #BC4D59",
"u  c #B95A68",
"i  c #B35B74",
"p  c #AE6280",
"a  c #B66577",
"s  c #BB6575",
"d  c #B0627F",
"f  c #D0736A",
"g  c #CC4649",
"h  c #CE5548",
"j  c #D15D4B",
"k  c #CA5053",
"l  c #D56549",
"z  c #D66A56",
"x  c #DA735E",
"c  c #DE7346",
"v  c #DC7662",
"b  c #D57275",
"n  c #E07C65",
"m  c #E27E56",
"M  c #F2B461",
"N  c #F7B660",
"B  c #F7AE62",
"V  c #F1A066",
"C  c #E08471",
"Z  c #C06874",
"A  c #5FAE3F",
"S  c #6AB44A",
"D  c #76B84D",
"F  c #6CB754",
"G  c #73B754",
"H  c #5A9A63",
"J  c #5FA167",
"K  c #64A968",
"L  c #7CBD60",
"P  c #79B276",
"I  c #70AF6F",
"U  c #97A185",
"Y  c #C9DC70",
"T  c #AEA837",
"R  c #B4AA38",
"E  c #EDAE46",
"W  c #F99A19",
"Q  c #F9A41D",
"!  c #EA8927",
"~  c #F79F25",
"^  c #E99232",
"/  c #C2AA3C",
"(  c #F9A229",
")  c #FAB42A",
"_  c #F9A637",
"`  c #FAB836",
"'  c #FFB04A",
"]  c #FCC73B",
"[  c #88BA4E",
"{  c #88BD56",
"}  c #95BF58",
"|  c #93BD4F",
" . c #87B879",
".. c #BDD96F",
"X. c #DFC667",
"o. c #F7AA5C",
"O. c #F09D53",
"+. c #F9BB48",
"@. c #F7A95B",
"#. c #E8B047",
"$. c #DD8575",
"%. c #F7AB5E",
"&. c #9AC257",
"*. c #8FC051",
"=. c #A6C65A",
"-. c #B3CA5D",
";. c #95C97B",
":. c #8CC575",
">. c #A7C967",
",. c #BCD76A",
"<. c #A7CD7E",
"1. c #C2D974",
"2. c #FACA44",
"3. c #FBD145",
"4. c #C8DB6D",
"5. c #FBC173",
"6. c #D0E074",
"7. c #CBE071",
"8. c #377DA9",
"9. c #326DB4",
"0. c #3D76B8",
"q. c #2262AE",
"w. c #7671AC",
"e. c #4479BB",
"r. c #5276B8",
"t. c #5882BF",
"y. c #7872B3",
"u. c #7871B3",
"i. c #7075B6",
"p. c #7E73B3",
"a. c #6B75B5",
"s. c #7873B4",
"d. c #5D93C8",
"f. c #AE6280",
"g. c #D87D84",
"h. c #3980A7",
"j. c #7AB293",
"k. c #4588AB",
"l. c #4886B7",
"z. c #5597B8",
"x. c #4F8EB5",
"c. c #5DA1BB",
"v. c #7099A6",
"b. c #4D84C2",
"n. c #558BC5",
"m. c #5C96CB",
"M. c #5F9FD2",
"N. c #688CC5",
"B. c #6597CB",
"V. c #629CD0",
"C. c #739BCC",
"Z. c #5EA5C7",
"A. c #62A6C6",
"S. c #62A4D5",
"D. c #77A3D1",
"F. c #84B783",
"G. c #DE8F8E",
"H. c #E29EA3",
"J. c #E5A6A7",
"K. c #E9B5B7",
"L. c #E8B2AF",
"P. c #E3A099",
"I. c #A4D192",
"U. c #ABD59A",
"Y. c #FCD59C",
"T. c #FDDCA5",
"R. c #EDC2BE",
"E. c #FDDFB7",
"W. c #FDE3A2",
"Q. c #FDE7BC",
"!. c #C3E1B8",
"~. c #85A9D3",
"^. c #95B4D9",
"/. c #A3BEDD",
"(. c #EBBDC0",
"). c #ABC6E2",
"_. c #B6CCE5",
"`. c #BDD1E8",
"'. c #EEC6C6",
"]. c #F3D8D7",
"[. c #F0CDD0",
"{. c #D6E9CA",
"}. c #CCE5C2",
"|. c #FEF2D6",
" X c #FEEDC9",
".X c #C8D9EC",
"XX c #D0DEEE",
"oX c #DBE6F3",
"OX c #F8E8E9",
"+X c #FEF3E1",
"@X c #E2EBF5",
"#X c #EBF1F8",
"$X c #FEFEFE",
"%X c #A0719D",
"&X c #9376A7",
"*X c #D86062",
"=X c #C46171",
"-X c #E4916C",
";X c #E88A63",
":X c #C7DC72",
">X c #F7B160",
",X c #D3E67A",
"<X c #D4E67A",
"1X c #D1E177",
"2X c #7480BD",
"3X c #4E84BF",
"4X c #6E8CC3",
"5X c #649CCD",
"6X c #6098CB",
"7X c #A674A1",
"8X c #D5847A",
"9X c #EBCD75",
"0X c #E1D174",
"qX c #F5C77B",
"wX c None",
"eX c #B0779A",
"rX c #918DAC",
/* pixels */
"wXwXwXwXwXwXwXwXwXwXwXwXwXwXwXwXwXwXwXwXwXwXwXwXwXwXwXwXwXwXwXwXwXwXwXwXwXwXwXwXwXwXwXwXwXwXwXwXwXwXwXwXwXwXwXwXwXwXwXwXwXwXwXwXwXwXwXwXwXwXwXwXwXwXwXwXwXwXwXwX",
"wXwXwXwXwXwXwXwXwXwXwXwXwXwXwXwXwXwXwXwXwXwXwXwXwXwXwXwXwXwXwXwXwXwXwXwXwXwXwXwXwXwXwXwXwXwXwXwXwXwXwXwXwXwXwXwXwXwXwXwXwXwXwXwXwXwXwXwXwXwXwXwXwXwXwXwXwXwXwXwX",
"wXwXwXwXwXwXwXwXwXwXwXwXwXwXwXwXwXwXwXwXwXwXwXwXwXwXwXwXwXwXwXwXwXwXwXwXwXwXwXwXwXwXwXwXwXwXwXwXwXwXwXwXwXwXwXwXwXwXwXwXwXwXwXwXwXwXwXwXwXwXwXwXwXwXwXwXwXwXwXwX",
"wXwXwXwXwXwXwXwXwXwXwXwXwXwXwXwXwXwXwXwXwXwXwXwXwXwXwXwXwXwXwXwXwXwXwXwXwXwXwXwXwXwXwXwXwXwXwXwXwXwXwXwXwXwXwXwXwXwXwXwXwXwXwXwXwXwXwXwXwXwXwXwXwXwXwXwXwXwXwXwX",
"wXwXwXwXwXwXwXwXwXwXwXwXwXwXwXwXwXwXwXwXwXwXwXwXwXwXwXwXwXwXwXwXwXwXwXwXwXwXwXwXwXwXwXwXwXwXwXwXwXwXwXwXwXwXwXwXwXwXwXwXwXwXwXwXwXwXwXwXwXwXwXwXwXwXwXwXwXwXwXwX",
"wXwXwXwXwXwXwXwXwXwXwXwXwXwXwXwXwXwXwXwXwXwXwXwXwXwXwXwXwXwXwXwXwXwXwXwXwXwXwXwXwXwXwXwXwXwXwXwXwXwXwXwXwXwXwXwXwXwXwXwXwXwXwXwXwXwXwXwXwXwXwXwXwXwXwXwXwXwXwXwX",
"wXwXwXwXwXwXwXwXwXwXwXwXwXwXwXwXwXwXwXwXwXwXwXwXwXwXwXwXwXwXwXwXwXwXwXwXwXwXwXwXwXwXwXwXwXwXwXwXwXwXwXwXwXwXwXwXwXwXwXwXwXwXwXwXwXwXwXwXwXwXwXwXwXwXwXwXwXwXwXwX",
"wXwXwXwXwXwXwXwXwXwXwXwXwXwXwXwXwXwXwXwXwXwXwXwXwXwXwXwXwXwXwXwXwXwXwXwXwXwXwXwXwXwXwXwXwXwXwXwXwXwXwXwXwXwXwXwXwXwXwXwXwXwXwXwXwXwXwXwXwXwXwXwXwXwXwXwXwXwXwXwX",
"wXwXwXwXwXwXwXwXwXwXwXwXwXwXwXwXwXwXwXwXwXwXwXwXwXwXwXwXwXwXwXwXwXwXwXwXwXwXwXwXwXwXwXwXwXwXwXwXwXwXwXwXwXwXwXwXwXwXwXwXwXwXwXwXwXwXwXwXwXwXwXwXwXwXwXwXwXwXwXwX",
"wXwXwXwXwXwXwXwXwXwXwXwXwXwXwXwXwXwXwXwXwXwXwXwXwXwXwXwXwXwXwXwXwXwXwXwXwXwXwXwXwXwXwXwXwXwXwXwXwXwXwXwXwXwXwXwXwXwXwXwXwXwXwXwXwXwXwXwXwXwXwXwXwXwXwXwXwXwXwXwX",
"wXwXwXwXwXwXwXwXwXwXwXwXwXwXwXwXwXwXwXwXwXwXwXwXwXwXwXwXwXwXwXwXwXwXwXwXwXwXwXwXwXwXwXwXwXwXwXwXwXwXwXwXwXwXwXwXwXwXwXwXwXwXwXwXwXwXwXwXwXwXwXwXwXwXwXwXwXwXwXwX",
"wXwXwXwXwXwXwXwXwXwXwXwXwXwXwXwXwXwXwXwXwXwXwXwXwXwXwXwXwXwXwXwXwXwXwXwXwXwXwXwXwXwXwXwXwXwXwXwXwXwXwXwXwXwXwXwXwXwXwXwXwXwXwXwXwXwXwXwXwXwXwXwXwXwXwXwXwXwXwXwX",
"wXwXwXwXwXwXwXwXwXwXwXwXwXwXwXwXwXwXwXwXwXwXwXwXwXwXwXwXwXwXwXwXwXwXwXwXwXwXwXwXwXwXwXwXwXwXwXwXwXwXwXwXwXwXwXwXwXwXwXwXwXwXwXwXwXwXwXwXwXwXwXwXwXwXwXwXwXwXwXwX",
"wXwXwXwXwXwXwXwXwXwXwXwXwXwXwXwXwXwXwXwXwXwXwXwXwXwXwXwXwXwXwXwXwXwXwXwXwXwXwXwXwXwXwXwXwXwXwXwXwXwXwXwXwXwXwXwXwXwXwXwXwXwXwXwXwXwXwXwXwXwXwXwXwXwXwXwXwXwXwXwX",
"wXwXwXwXwXwXwXwXwXwXwXwXwXwXwXwXwXwXwXwXwXwXwXwXwXwXwXwXwXwXwXwXwXwXwXwXwXwXwXwXwXwXwXwXwXwXwXwXwXwXwXwXwXwXwXwXwXwXwXwXwXwXwXwXwXwXwXwXwXwXwXwXwXwXwXwXwXwXwXwX",
"wXwXwXwXwXwXwXwXwXwXwXwXwXwXwXwXwXwXwXwXwXwXwXwXwXwXwXwXwXwXwXwXwXwXwXwXwXwXwXwXwXwXwXwXwXwXwXwXwXwXwXwXwXwXwXwXwXwXwXwXwXwXwXwXwXwXwXwXwXwXwXwXwXwXwXwXwXwXwXwX",
"wXwXwXwXwXwXwXwXwXwXwXwXwXwXwXwXwXwXwXwXwXwXwXwXwXwXwXwXwXwXwXwXwXwXwXwXwXwXwXwXwXwXwXwXwXwXwXwXwXwXwXwXwXwXwXwXwXwXwXwXwXwXwXwXwXwXwXwXwXwXwXwXwXwXwXwXwXwXwXwX",
"wXwXwXwXwXwXwXwXwXwXwXwXwXwXwXwXwXwXwXwXwXwXwXwXwXwXwXwXwXwXwXwXwXwXwXwXwXwXwXwXwXwXwXwXwXwXwXwXwXwXwXwXwXwXwXwXwXwXwXwXwXwXwXwXwXwXwXwXwXwXwXwXwXwXwXwXwXwXwXwX",
"wXwXwXwXwXwXwXwXwXwXwXwXwXwXwXwXwXwXwXwXwXwXwXwXwXwXwXwXwXwXwXwXwXwXwXwXwXwXwXwXwXwXwXwXwXwXwXwXwXwXwXwXwXwXwXwXwXwXwXwXwXwXwXwXwXwXwXwXwXwXwXwXwXwXwXwXwXwXwXwX",
"wXwXwXwXwXwXwXwXwXwXwXwXwXwXwXwXwXwXwXwXwXwXwXwXwXwXwXwXwXwXwXwXwXwXwXwXwXwXwXwXwXwXwXwXwXwXwXwXwXwXwXwXwXwXwXwXwXwXwXwXwXwXwXwXwXwXwXwXwXwXwXwXwXwXwXwXwXwXwXwX",
"wXwXwXwXwXwXwXwXwXwXwXwXwXwXwXwXwXwXwXwXwXwXwXwXwXwXwXwXwXwXwXwXwXwXwXwXwXwXwXwXwXwXwXwXwXwXwXwXwXwXwXwXwXwXwXwXwXwXwXwXwXwXwXwXwXwXwXwXwXwXwXwXwXwXwXwXwXwXwXwX",
"wXwXwXwXwXwXwXwXwXwXwXwXwXwXwXwXwXwXwXwXwXwXwXwXwXwXwXwXwXwXwXwXwXwXwXwXwXwXwXwXwXwXwXwXwXwXwXwXwXwXwXwXwXwXwXwXwXwXwXwXwXwXwXwXwXwXwXwXwXwXwXwXwXwXwXwXwXwXwXwX",
"wXwXwXwXwXwXwXwXwXwXwXwXwXwXwXwXwXwXwXwXwXwXwXwXwXwXwXwXwXwXwXwXwXwXwXwXwXwXwXwXwXwXwXwXwXwXwXwXwX9XeX9X6.6.6.6.4.:XwXwXwXwXwXwXwXwXwXwXwXwXwXwXwXwXwXwXwXwXwXwX",
"wXwXwXwXwXwXwXwXwXwXwXwXwXwXwXwXwXwXwXwXwXwXwXwXwXwXwXwXwXwXwXwXwXeXwXwXwXwXqXqX9X9X1X= 6.6.7.7.4.4.4.4.4.4.,.,.W...wXwXwXwXwXwXwXwXwXwXwXwXwXwXwXwXwXwXwXwXwXwX",
"wXwXwXwXwXwXwXwXwXwXwXwXwXwXwXwXwXwXwXwXwXwX1XqXqXeXwXeXwXwXwXwXwXwXwXwXwXwXC 4.&.&.>.>.=.=.=.-.-.-.-.=.=.=.=.| =.&.o O rX3XeXeXwXwXwXwXwXwXwXwXwXwXwXwXwXwXwXwX",
"wXwXwXwXwXwXwXwXwXwXwXwXwXwXwXwXwXwXwXwXwXwX@.@.5.5.@.2.%.%.%.%.E E B C 1X8X,X-.[ } | } =.=.=.=.=.=.-.=.=.=.=.=.=.*.v.y.y.y.y.y.w.s.s.s.s.%X3XeX3XwXwXwXwXwXwXwX",
"wXwXwXwXwXwXwXwXwXwXwXwXwXwXwXwXwXwXwXeX%XB +.+.2.+.3.2.2.+.+.+.3.] +.` _ ` ] Q R } &.&.=.=.=.=.-.=.=.=.=.=.&.:.j.j.v.A.N.C.~.D.N.N.N.N.C.N.N.N.N.r.d.i.s.wXwXwX",
"wXwXwXwXwXx f C C C C C C C Z Z d i g.g.a #.] 2.3.3.3.3.2.2.] ` 3.] ) ) ( ( ) Q R } &.&.| =.&.=.=.=.=.=.=.=.=. .A.A.Z.S.V.S.S.S.S.V.V.m.B.n.n.b.n.b.b.y.f.wXwXwX",
"wXwXwX+ s v z z $.$.v n n n n n n n x z z c 0 O.2.3.3.3.3.2.2.] ] ` ` ` ` ) ( ~ R { } } >.>.>.>.=.=.=.=.&.&.&. .A.c.V.V.V.V.V.V.V.V.m.m.m.m.n.b.n.b.b.y.s.wXwXwX",
"wXwXwXd a j j j c n x x x x x n v n z z z c c 0 2.3.3.3.2.2.] 2.` ` ` ` ) ( ( ~ R { &.{ {.$X$X$XI.&.=.&.&.&.&.j.c.m.M.V.V.V.V.V.S.M.m.m.m.n.n.b.b.b.e.y.s.wXwXwX",
"wXwXwXd u j j j l z z z z x z v z x z z j c 9 0 3.3.2.3.2.] ] ] ` ` ) ) _ ) ( ~ R { &.[ {.$X$X$X1.| | &.&.&.&. .c.c.V.m.V.V.V.n.m.m.m.b.b.n.b.b.b.b.e.y.s.wXwXwX",
"wXwXwXd u h j x n n n G.$.$.$.n v j j z j c 9 0 3.W.+X|.|.|.|.|.|.|.|. X` ( ) ~ R { { [ {.$X$X$XI.| } | &.*.*.P z.c.n.m.V.n.D._.XX@XXX.X^.n.b.b.b.b.b.y.%XwXwXwX",
"wXwXwXd y h 8 R.$X$X$X$X$X$X$X$X+X].G.8 j 9 9 q ] Q.$X$X$X$X$X$X#X$X$X$X` ) ( ~ R L *.[ {.$X$X$X<.[ &.*.*.{ *.P z.z.z.m.n.).$X$X$X$X$X$X$X@XB.e.b.e.e.y.3XwXwXwX",
"wXwXwXO u h 7 K.$X$X$X$X$X$X$X$X$X$X$XJ.7 l 8 q ] Q.$X$X$X$X$X$X$X$X$X$X_ ( ( ~ T L *.D {.$X$X$X<.[ *.{ { { *.P z.z.m.b.).$X$X$X$X$X$X$X$X$X$Xn.e.b.0.y.3XwXwXwX",
"wXwXwXO y 7 7 R.$X$X$X$X$X$X$X$X$X$X$X$X$.8 8 q ] W. XQ.+X$X$X$X$XQ. XW.) ( ( ~ T G { D {.$X$X$XI.{ { { { { [ P x.x.x.D.$X$X$X$X$XoX#X$X$X$X$X.X0.b.0.u.%XwXwXwX",
"wXwXwX-Xt 7 3 R.$X$X$X].P.J.P.R.$X$X$X$X'.6 8 q ] ] ] ) W.$X$X$X|.) Q ( ( ( ( ~ T G D D {.$X$X$X;.G { { { G *.I x.x.h.`.$X$X$X`.N.b.b.~.$X$X$X$XB.0.e.t.wXwXwXwX",
"wXwXwX-Xt 3 1 K.$X$X$XJ.1 7 7 7 K.$X$X$X].8 6 q ] ) ] ) W.$X$X$X+X` ) _ ( ( ( ~ T F G S {.$X$X$X<.D { G { G D I l.k.l.@X$X$X#Xb.b.b.b.9.^.$X$X$X~.9.0.i.wXwXwXwX",
"wXwXwX%Xt 3 3 K.$X$X$XL.3 h h > G.$X$X$X].6 1 ! ] ] ] ) W.$X$X$X+X` ( ( ( ( ( ~ T F G S {.$X$X$X;.S G D D G D K l.k.x.#X$X$X.Xe.b.e.b.e.C.$X$X$X^.9.0.i.wXwXwXwX",
"wXwXwXeXr 3 : K.$X$X$XJ.1 7 3 k [.$X$X$X'.1 3 ! ] ` ) ) W.$X$X$X+X( ( ( ~ ( ( ~ T F F S {.$X$X$X;.S D G G G G K k.k.k.oX$X$X#Xb.e.b.e.9.^.$X$X$X~.9.e.s.wXwXwXwX",
"wXwXwXeX, 2 ; K.$X$X$XOX].].].$X$X$X$X$Xb 4 1 ! ) ) ) Q Y.$X$X$X+X( ( ~ ( ( ~ ~ T F G S {.$X$X$X;.S D G G G D K 8.k.8.`.$X$X$X_.b.0.0.C.$X$X$X$Xn.9.e.$ wXwXwXwX",
"wXwXwXeXr r - K.$X$X$X$X$X$X$X$X$X$X$XH.; 3 1 ! ` _ ) Q Y.$X$X$X+X( ( ( ~ ( ( ~ X.F G S }.$X$X$X;.S G F G F D K 8.h.8.B.$X$X$X$X#XXXoX$X$X$X$X.X9.0.b.6XwXwXwXwX",
"wXwXwXeXr 2 - K.$X$X$X$X$X$X$X$X$XOXg.; : 1 1 ! ) ) _ W Y.$X$X$X+X( ~ ( ( ~ ~ ~ R F G S {.$X$X$X;.S G F G F S K 8.h.8.9.).$X$X$X$X$X$X$X$X$X$Xm.9.0.0.3XwXwXwXwX",
"wXwXwXwX, r - K.$X$X$X[.g.'.$X$X$X+Xr : 4 1 1 q ( ( ( W Y.$X$X$X+X( ( ~ ( ( ( ~ T F G S {.$X$X$X:.A S S S S D K 8.h.8.0.0.).$X$X$X$X$X$X$X$X^.9.b.0.b.rXwXwXwXwX",
"wXwXwXeX2 2 - L.$X$X$XH.< k $X$X$X$XH.; 2 1 1 ! ( ~ ( W Y.$X$X$X+X( ~ ( ( ~ ( ~ T S G S }.$X$X$XU.I.I.I.U.:.S J 8.8.8.0.0.9.N./.`.$X$X$X$X.X9.0.0.0.M.rXwXwXwXwX",
"wXwXwXeXr 2 - J.$X$X$XJ.; ; (.$X$X$X$Xr 2 1 1 ! ( ( ( W Y.$X$X$X+X~ ~ ( ( ( ~ ~ R F G S }.$X$X$X$X$X$X$X$X}.S J 8.8.8.0.0.e.0.q.^.$X$X$XoXb.9.b.0.0.e.rXwXwXwXwX",
"wXwXwX8Xr ; ; K.$X$X$XH.- - b $X$X$X$XG.- 1 1 ! ( ~ ( ~ Y.$X$X$X+X( ( ( ( ( ( ~ R F G S {.$X$X$X$X$X$X$X$X!.S J 8.8.8.0.0.e.0.B.$X$X$X$XS.9.e.0.e.0.b.3XwXwXwXwX",
"wXwXwX7Xr : ; K.$X$X$XJ.- r ; [.$X$X$XOX3 1 1 ! ( ~ ~ W Y.$X$X$X+X( ~ ( ~ ( ( ~ R F G S }.$X#X$X+X$X$X#X$X!.S H 8.8.8.0.e.0.e.@X$X#X$X).9.b.b.9.b.0.b.rXwXwXwXwX",
"wXwXwXeXr r - K.$X$X$XJ.- 2 - g.$X$X$X$XG.5 6 ! ( ~ ( W Y.$X$X$X+X( ~ ( ( ( ( ~ R F G G G  .L L L L L L *.G S H 8.h.8.0.0.9._.$X$X$XoXe.0.e.9.b.9.9.M.3XwXwXwXwX",
"wXwXwX=Xr r - H.OX[.OXG.- 2 2 r [.OX].OX(.2 6 ! W ~ ( W Y.$XOX$XOX( ( ( ( ( ~ ( R F G F F S F S F F S D S F G H 8.8.8.0.9.~.$X$X$X$XN.9.e.e.e.0.e.0.e.rXwXwXwXwX",
"wXwXwX=Xr : r : 2 2 2 2 r 2 : : : 2 r ; 2 4 6 ! ~ ( ( W T.$X$X$X+X( ~ ( ~ ~ ( ~ / F G F G G G G F F F G G F G H 8.8.8.9.0.n.N.N.V.n.9.e.0.e.0.e.0.9.S.3XwXwXwXwX",
"wXwXwX. r r 2 r 2 2 2 2 2 2 2 2 2 2 2 2 2 4 6 ! ~ ( ( W 5.E.T.E.T.~ ~ ( ( ( ( ~ / G S G G G G G G G G F F G G H 8.8.8.t.0.0.9.0.9.0.e.0.0.0.e.0.e.0.m.3XwXwXwXwX",
"wXwXwX. r : : 2 : : 2 : : : : 2 2 : : ; 2 4 8 ~ ~ ( ~ ( ~ W ~ ~ ~ ( ( ( ~ ( ~ ( / F G G G F F F F F G F F F S H 8.8.8.8.0.e.0.0.0.e.0.e.e.0.0.e.e.b.S.3XwXwXwXwX",
"wXwXwXeX*Xb u t t e e e r r w w g 3 3 r 2 5 8 ! ~ ~ ~ ( ( _ ( ( ~ ( ( ~ ( ~ ( ~ / L G S F F F S S G L { D L I H h.h.h.0.0.0.0.0.0.e.0.0.0.e.e.0.e.9.S.3XwXwXwXwX",
"wXwXwXwXwXg.f.f.f.f.f.g.f.f.f.f.a Z C O C q W ( ( ( ~ ~ ~ ~ ~ ~ ~ ( ( ( ~ ( ~ ( B ..,.,.,.1.,.4.,.4.4.4.[ 6.6.w.0.0.0.0.0.e.e.e.e.e.e.0.e.0.e.e.e.0.S.5XwXwXwXwX",
"wXwXwXwXwXs i Z O O O 7X-XeXwXwXwXwXwXwXC ` ) Q ~ ~ ! ~ ~ ! ~ ~ ~ ~ ~ ~ ( ( ( ` %.:X&.6.6.6.6.9XeXeXeXwXwXwXO N.0.0.0.0.0.0.0.0.0.0.0.0.0.0.e.e.0.0.n.6XwXwXwXwX",
"wXwXwXwXwXwXwXwXwXwXwXwXwXwXwXwXwXwXwXwXC ` ] ] _ _ _ _ _ _ _ _ _ _ ( @._ _ _ 2.-XwXwXwXwXwXwXwXwXwXwXwXwXwXO N.t.e.r.r.e.r.r.r.r.r.e.r.r.r.r.N.e.e.s.eXwXwXwXwX",
"wXwXwXwXwXwXwXwXwXwXwXwXwXwXwXwXwXwXwXwXeXeXqXqX9X0X0X0XC C B B C %.%.%.O.5.@.E wXwXwXwXwXwXwXwXwXwXwXwXwXwXwXwXwX%X3XO O s.i.i.y.y.y.y.y.y.y.y.f.p.wXwXwXwXwXwX",
"wXwXwXwXwXwXwXwXwXwXwXwXwXwXwXwXwXwXwXwXwXwXwXwXeXwXeXwXwXwXwXwXwXwXwXwXwXwXeXwXwXwXwXwXwXwXwXwXwXwXwXwXwXwXwXwXwXwXwXwXwXwXwXwXwXwXeX3XrXO s.w.r.i.wXwXwXwXwXwX",
"wXwXwXwXwXwXwXwXwXwXwXwXwXwXwXwXwXwXwXwXwXwXwXwXwXwXwXwXwXwXwXwXwXwXwXwXwXwXwXwXwXwXwXwXwXwXwXwXwXwXwXwXwXwXwXwXwXwXwXwXwXwXwXwXwXwXwXwXwXwXwXwXwXwXwXwXwXwXwXwX",
"wXwXwXwXwXwXwXwXwXwXwXwXwXwXwXwXwXwXwXwXwXwXwXwXwXwXwXwXwXwXwXwXwXwXwXwXwXwXwXwXwXwXwXwXwXwXwXwXwXwXwXwXwXwXwXwXwXwXwXwXwXwXwXwXwXwXwXwXwXwXwXwXwXwXwXwXwXwXwXwX",
"wXwXwXwXwXwXwXwXwXwXwXwXwXwXwXwXwXwXwXwXwXwXwXwXwXwXwXwXwXwXwXwXwXwXwXwXwXwXwXwXwXwXwXwXwXwXwXwXwXwXwXwXwXwXwXwXwXwXwXwXwXwXwXwXwXwXwXwXwXwXwXwXwXwXwXwXwXwXwXwX",
"wXwXwXwXwXwXwXwXwXwXwXwXwXwXwXwXwXwXwXwXwXwXwXwXwXwXwXwXwXwXwXwXwXwXwXwXwXwXwXwXwXwXwXwXwXwXwXwXwXwXwXwXwXwXwXwXwXwXwXwXwXwXwXwXwXwXwXwXwXwXwXwXwXwXwXwXwXwXwXwX",
"wXwXwXwXwXwXwXwXwXwXwXwXwXwXwXwXwXwXwXwXwXwXwXwXwXwXwXwXwXwXwXwXwXwXwXwXwXwXwXwXwXwXwXwXwXwXwXwXwXwXwXwXwXwXwXwXwXwXwXwXwXwXwXwXwXwXwXwXwXwXwXwXwXwXwXwXwXwXwXwX",
"wXwXwXwXwXwXwXwXwXwXwXwXwXwXwXwXwXwXwXwXwXwXwXwXwXwXwXwXwXwXwXwXwXwXwXwXwXwXwXwXwXwXwXwXwXwXwXwXwXwXwXwXwXwXwXwXwXwXwXwXwXwXwXwXwXwXwXwXwXwXwXwXwXwXwXwXwXwXwXwX",
"wXwXwXwXwXwXwXwXwXwXwXwXwXwXwXwXwXwXwXwXwXwXwXwXwXwXwXwXwXwXwXwXwXwXwXwXwXwXwXwXwXwXwXwXwXwXwXwXwXwXwXwXwXwXwXwXwXwXwXwXwXwXwXwXwXwXwXwXwXwXwXwXwXwXwXwXwXwXwXwX",
"wXwXwXwXwXwXwXwXwXwXwXwXwXwXwXwXwXwXwXwXwXwXwXwXwXwXwXwXwXwXwXwXwXwXwXwXwXwXwXwXwXwXwXwXwXwXwXwXwXwXwXwXwXwXwXwXwXwXwXwXwXwXwXwXwXwXwXwXwXwXwXwXwXwXwXwXwXwXwXwX",
"wXwXwXwXwXwXwXwXwXwXwXwXwXwXwXwXwXwXwXwXwXwXwXwXwXwXwXwXwXwXwXwXwXwXwXwXwXwXwXwXwXwXwXwXwXwXwXwXwXwXwXwXwXwXwXwXwXwXwXwXwXwXwXwXwXwXwXwXwXwXwXwXwXwXwXwXwXwXwXwX",
"wXwXwXwXwXwXwXwXwXwXwXwXwXwXwXwXwXwXwXwXwXwXwXwXwXwXwXwXwXwXwXwXwXwXwXwXwXwXwXwXwXwXwXwXwXwXwXwXwXwXwXwXwXwXwXwXwXwXwXwXwXwXwXwXwXwXwXwXwXwXwXwXwXwXwXwXwXwXwXwX",
"wXwXwXwXwXwXwXwXwXwXwXwXwXwXwXwXwXwXwXwXwXwXwXwXwXwXwXwXwXwXwXwXwXwXwXwXwXwXwXwXwXwXwXwXwXwXwXwXwXwXwXwXwXwXwXwXwXwXwXwXwXwXwXwXwXwXwXwXwXwXwXwXwXwXwXwXwXwXwXwX",
"wXwXwXwXwXwXwXwXwXwXwXwXwXwXwXwXwXwXwXwXwXwXwXwXwXwXwXwXwXwXwXwXwXwXwXwXwXwXwXwXwXwXwXwXwXwXwXwXwXwXwXwXwXwXwXwXwXwXwXwXwXwXwXwXwXwXwXwXwXwXwXwXwXwXwXwXwXwXwXwX",
"wXwXwXwXwXwXwXwXwXwXwXwXwXwXwXwXwXwXwXwXwXwXwXwXwXwXwXwXwXwXwXwXwXwXwXwXwXwXwXwXwXwXwXwXwXwXwXwXwXwXwXwXwXwXwXwXwXwXwXwXwXwXwXwXwXwXwXwXwXwXwXwXwXwXwXwXwXwXwXwX",
"wXwXwXwXwXwXwXwXwXwXwXwXwXwXwXwXwXwXwXwXwXwXwXwXwXwXwXwXwXwXwXwXwXwXwXwXwXwXwXwXwXwXwXwXwXwXwXwXwXwXwXwXwXwXwXwXwXwXwXwXwXwXwXwXwXwXwXwXwXwXwXwXwXwXwXwXwXwXwXwX",
"wXwXwXwXwXwXwXwXwXwXwXwXwXwXwXwXwXwXwXwXwXwXwXwXwXwXwXwXwXwXwXwXwXwXwXwXwXwXwXwXwXwXwXwXwXwXwXwXwXwXwXwXwXwXwXwXwXwXwXwXwXwXwXwXwXwXwXwXwXwXwXwXwXwXwXwXwXwXwXwX",
"wXwXwXwXwXwXwXwXwXwXwXwXwXwXwXwXwXwXwXwXwXwXwXwXwXwXwXwXwXwXwXwXwXwXwXwXwXwXwXwXwXwXwXwXwXwXwXwXwXwXwXwXwXwXwXwXwXwXwXwXwXwXwXwXwXwXwXwXwXwXwXwXwXwXwXwXwXwXwXwX",
"wXwXwXwXwXwXwXwXwXwXwXwXwXwXwXwXwXwXwXwXwXwXwXwXwXwXwXwXwXwXwXwXwXwXwXwXwXwXwXwXwXwXwXwXwXwXwXwXwXwXwXwXwXwXwXwXwXwXwXwXwXwXwXwXwXwXwXwXwXwXwXwXwXwXwXwXwXwXwXwX",
"wXwXwXwXwXwXwXwXwXwXwXwXwXwXwXwXwXwXwXwXwXwXwXwXwXwXwXwXwXwXwXwXwXwXwXwXwXwXwXwXwXwXwXwXwXwXwXwXwXwXwXwXwXwXwXwXwXwXwXwXwXwXwXwXwXwXwXwXwXwXwXwXwXwXwXwXwXwXwXwX",
"wXwXwXwXwXwXwXwXwXwXwXwXwXwXwXwXwXwXwXwXwXwXwXwXwXwXwXwXwXwXwXwXwXwXwXwXwXwXwXwXwXwXwXwXwXwXwXwXwXwXwXwXwXwXwXwXwXwXwXwXwXwXwXwXwXwXwXwXwXwXwXwXwXwXwXwXwXwXwXwX",
"wXwXwXwXwXwXwXwXwXwXwXwXwXwXwXwXwXwXwXwXwXwXwXwXwXwXwXwXwXwXwXwXwXwXwXwXwXwXwXwXwXwXwXwXwXwXwXwXwXwXwXwXwXwXwXwXwXwXwXwXwXwXwXwXwXwXwXwXwXwXwXwXwXwXwXwXwXwXwXwX",
"wXwXwXwXwXwXwXwXwXwXwXwXwXwXwXwXwXwXwXwXwXwXwXwXwXwXwXwXwXwXwXwXwXwXwXwXwXwXwXwXwXwXwXwXwXwXwXwXwXwXwXwXwXwXwXwXwXwXwXwXwXwXwXwXwXwXwXwXwXwXwXwXwXwXwXwXwXwXwXwX",
"wXwXwXwXwXwXwXwXwXwXwXwXwXwXwXwXwXwXwXwXwXwXwXwXwXwXwXwXwXwXwXwXwXwXwXwXwXwXwXwXwXwXwXwXwXwXwXwXwXwXwXwXwXwXwXwXwXwXwXwXwXwXwXwXwXwXwXwXwXwXwXwXwXwXwXwXwXwXwXwX"
};
