/* XPM */
static char *xpm_[] = {
/* columns rows colors chars-per-pixel */
"80 80 31 1 ",
"  c #095BA5",
". c #095BA5",
"X c #095BA5",
"o c #095BA5",
"O c #095BA5",
"+ c #095BA5",
"@ c #095BA5",
"# c #095BA5",
"$ c #095BA5",
"% c #095BA5",
"& c #095BA5",
"* c #095BA5",
"= c #095BA5",
"- c #095BA5",
"; c #095BA5",
": c #095BA5",
"> c #095BA5",
", c #095BA5",
"< c #095BA5",
"1 c #095BA5",
"2 c #095BA5",
"3 c #095BA5",
"4 c #095BA5",
"5 c #095BA5",
"6 c #095BA5",
"7 c #095BA5",
"8 c #095BA5",
"9 c #095BA5",
"0 c #095BA5",
"q c #095BA5",
"w c None",
/* pixels */
"wwwwwwwwwwwwwwwwwwwwwwwwwwwwwwwwwwwwwwwwwwwwwwwwwwwwwwwwwwwwwwwwwwwwwwwwwwwwwwww",
"wwwwwwwwwwwwwwwwwwwwwwwwwwwwwwwwwwwwwwwwwwwwwwwwwwwwwwwwwwwwwwwwwwwwwwwwwwwwwwww",
"wwwwwwwwwwwwwwwwwwwwwwwwwwwwwwwwwwwwwwwwwwwwwwwwwwwwwwwwwwwwwwwwwwwwwwwwwwwwwwww",
"wwwwwwwwwwwwwwwwwwwwwwwwwwwwwwwwwwwwwww>7wwwwwwwwwwwwwwwwwwwwwwwwwwwwwwwwwwwwwww",
"wwwwwwwwwwwwwwwwwwwwwwwwwwwwwwwwwwwwwww& wwwwwwwwwwwwwwwwwwwwwwwwwwwwwwwwwwwwwww",
"wwwwwwwwwwwwwwwwwwwwwwwwwwwwwwwwwwwwww5**0wwwwwwwwwwwwwwwwwwwwwwwwwwwwwwwwwwwwww",
"wwwwwwwwwwwwwwwwwwwwwwwwwwwwwwwwwwwwww:**.wwwwwwwwwwwwwwwwwwwwwwwwwwwwwwwwwwwwww",
"wwwwwwwwwwwwwwwwwwwwwwwwwwwwwwwwwwwww5****7wwwwwwwwwwwwwwwwwwwwwwwwwwwwwwwwwwwww",
"wwwwwwwwwwwwwwwwwwwwwwwwwwwwwwwwwwwww;****$wwwwwwwwwwwwwwwwwwwwwwwwwwwwwwwwwwwww",
"wwwwwwwwwwwwwwwwwwwwwwwwwwwwwwwwwwww5******0wwwwwwwwwwwwwwwwwwwwwwwwwwwwwwwwwwww",
"wwwwwwwwwwwwwwwwwwwwwwwwwwwwwwwwwwww:******@w0wwwwwwwwwwwwwwwwwwwwwwwwwwwwwwwwww",
"wwwwwwwwwwwwwwwwwwwwwwwwwwwwwwwwwww5********7wwwwwwwwwwwwwwwwwwwwwwwwwwwwwwwwwww",
"wwwwwwwwwwwwwwwwwwwwwwwwwwwwwwwwwww&********Owwwwwwwwwwwwwwwwwwwwwwwwwwwwwwwwwww",
"wwwwwwwwwwwwwwwwwwwwwwwwwwwwwwwwww5**********qwwwwwwwwwwwwwwwwwwwwwwwwwwwwwwwwww",
"wwwwwwwwwwwwwwwwwwwwwwwwwwwwwwwwww***********Xwwwwwwwwwwwwwwwwwwwwwwwwwwwwwwwwww",
"wwwwwwwwwwwwwwwwwwwwwwwwwwwwwwwww5************qwwwwwwwwwwwwwwwwwwwwwwwwwwwwwwwww",
"wwwwwwwwwwwwwwwwwwwwwwwwwwwwwwwww*************:wwwwwwwwwwwwwwwwwwwwwwwwwwwwwwwww",
"wwwwwwwwwwwwwwwwwwwwwwwwwwwwwwww>**************0wwwwwwwwwwwwwwwwwwwwwwwwwwwwwwww",
"wwwwwwwwwwwwwwwwwwwwwwwwwwwwwwww***************:wwwwwwwwwwwwwwwwwwwwwwwwwwwwwwww",
"wwwwwwwwwwwwwwwwwwwwwwwwwwwwwww5****************0wwwwwwwwwwwwwwwwwwwwwwwwwwwwwww",
"wwwwwwwwwwwwwwwwwwwwwwwwwwwwwww&****************$wwwwwwwwwwwwwwwwwwwwwwwwwwwwwww",
"wwwwwwwwwwwwwwwwwwwwwwwwwwwwww5******************qwwwwwwwwwwwwwwwwwwwwwwwwwwwwww",
"wwwwwwwwwwwwwwwwwwwwwwwwwwwwww&******************Xwwwwwwwwwwwwwwwwwwwwwwwwwwwwww",
"wwwwwwwwwwwwwwwwwwwwwwwwwwwww+********************qwwwwwwwwwwwwwwwwwwwwwwwwwwwww",
"wwwwwwwwwwwwwwwwwwwwwwwwwwwww&******************** wwwwwwwwwwwwwwwwwwwwwwwwwwwww",
"wwwwwwwwwwwwwwwwwwwwwwwwwwww5**********************0wwwwwwwwwwwwwwwwwwwwwwwwwwww",
"wwwwwwwwwwwwwwwwwwwwwwwwwwww&**********************.wwwwwwwwwwwwwwwwwwwwwwwwwwww",
"wwwwwwwwwwwwwwwwwwwwwwwwwww5************************qwwwwwwwwwwwwwwwwwwwwwwwwwww",
"wwwwwwwwwwwwwwwwwwwwwwwwwww*************************owwwwwwwwwwwwwwwwwwwwwwwwwww",
"wwwwwwwwwwwwwwwwwwwwwwwwww5******;#>7700qq71>X*******qwwwwwwwwwwwwwwwwwwwwwwwwww",
"wwwwwwwwwwwwwwwwwwwwwwwwww&***$<wwwwwwwwwwwwwww75****#wwwwwwwwwwwwwwwwwwwwwwwwww",
"wwwwwwwwwwwwwwwwwwwwwwwww+**#7wwwwwwwwwwwwwwwwwwww7;**0wwwwwwwwwwwwwwwwwwwwwwwww",
"wwwwwwwwwwwwwwwwwwwwwwwww**8wwwwwwwwwwwwwwwwwwwwwwww2*:wwwwwwwwwwwwwwwwwwwwwwwww",
"wwwwwwwwwwwwwwwwwwwwwwww3Owwwwwwwwwwwwwwwwwwwwwwwwwww0&0wwwwwwwwwwwwwwwwwwwwwwww",
"wwwwwwwwwwwwwwwwwwwwwwww9wwwwwwwwwwwwwww0wwwwwwwwwwwww09wwwwwwwwwwwwwwwwwwwwwwww",
"wwwwwwwwwwwwwwwwwwwwwwwwwwwwwwwwwwwwwwwwwwwwwwwwwwwww0wwwwwwwwwwwwwwwwwwwwwwwwww",
"wwwwwwwwwwwwwwwwwwwwwwwwwwwwwwwwww0q<>4+53290wwwwwwwwwwwwwwwwwwwwwwwwwwwwwwwwwww",
"wwwwwwwwwwwwwwwwwwwwwwwwwwwwwww75;************ <qwwwwwwwwwwwwwwwwwwwwwwwwwwwwwww",
"wwwwwwwwwwwwwwwwwwwwwwwwwwwww<;******************=qwwwwwwwwwwwwwwwwwwwwwwwwwwwww",
"wwwwwwwwwwwwwwwwwwwwwwww0ww3************************8wwwwwwwwwwwwwwwwwwwwwwwwwww",
"wwwwwwwwwwwwwwwwwwwwwwwww6***************************$0wwwwwwwwwwwwwwwwwwwwwwwww",
"wwwwwwwwwwwwwwwwwwwwwwww@******************************<wwwwwwwwwwwwwwwwwwwwwwww",
"wwwwwwwwwwwwwwwwwwwwww0*********************************#wwwwwwwwwwwwwwwwwwwwwww",
"wwwwwwwwwwwwwwwwwwwww0**************=$X#@@#.*************-wwwwwwwwwwwwwwwwwwwwww",
"wwwwwwwwwwwwwwwwwwwwq**********-180wwwwwwwwww0<O:*********=wwwwwwwwwwwwwwwwwwwww",
"wwwwwwwwwwwwwwwwwww0********:9wwwwwwww0wwwwwwwwwww<=*******:wwwwwwwwwwwwwwwwwwww",
"wwwwwwwwwwwwwwwwwww*******@0wwwwwwwwwwwwwwwwwwwwwwwwq$******$wwwwwwwwwwwwwwwwwww",
"wwwwwwwwwwwwwwwwww-*****+0wwwwwwwwwwwwwwwwwwwwwwwwwwww0+*****>wwwwwwwwwwwwwwwwww",
"wwwwwwwwwwwwwwwwwX****$wwwwwwwwwwwwwwwwwwwwwwwwwwwwwwwww7%****7wwwwwwwwwwwwwwwww",
"wwwwwwwwwwwwwwww8****7wwwwwwwwwwwwwwwwwwwwwwwwwwwwwwwwwwww2****wwwwwwwwwwwwwwwww",
"wwwwwwwwwwwwwwww***;wwwwwwwwwwwwwwwwwwwwwwwwwwwwwwwwwwwwwww0***5wwwwwwwwwwwwwwww",
"wwwwwwwwwwwwwww+**,wwwwwwwwwwwwwwwwwwwwwwwwwwwwwwwwwwwwwwwwwwX**0wwwwwwwwwwwwwww",
"wwwwwwwwwwwwwww**6wwwwwwwwwwwwwwwwwwwwwwwwwwwwwwwwwwwwwwwwwwww,*$wwwwwwwwwwwwwww",
"wwwwwwwwwwwwww4*0wwwwwwwwwwwwwwwwwwwwwwwwwwwwwwwwwwwwwwwwwwwwww1*qwwwwwwwwwwwwww",
"wwwwwwwwwwww0q&wwwwwwwwwwwwwwwwwwwwwwwwwwwwwwwwwwwwwwwwwwwwwwwww>:wwwwwwwwwwwwww",
"wwwwwwwwwwwww70wwwwwwwwwwwwwwwwwwwwwwwwwwwwwwwwwwwwwwwwwwwwwwwwww90wwwwwwwwwwwww",
"wwwwwwwwwwwwwwwwwwwwwwwwwwwwwwwwwwwwwwwwwwwwwwwwwwwwwwwwwwwwwwwwwwwwwwwwwwwwwwww",
"wwwwwwwwwwwwwwwwwwwwwwwwwwwwwwwwwwwwwwwwwwwwwwwwwwwwwwwwwwwwwwwwwwwwwwwwwwwwwwww",
"wwwwwwwwwwwwwwwwwwwwwwwwwwwwwwwwwwwwwwwwwwwwwwwww0wwwwwwwwwwwwwwwwwwwwwwwwwwwwww",
"wwwwwwwwwwwwwwwwwwwwwwwwwwwwwwwwwwwwwwwwwwwwwwwwwwwwwwwwwwwwwwwwwwwwwwwwwwwwwwww",
"wwwwwwwwwww,+0wwwwwwwww8#X#>0ww7O4+@O+++@++4#7w9@35><9wwwwwwwwwwww73+wwwwwwwwwww",
"wwwwwwwwww4**>wwwwwwwwo******,w2*************1w=*******qwwwwwwwwww%**7wwwwwwwwww",
"wwwwwwwwww****wwwwwww+******* w5*************1w:********70wwwwwwwq***owwwwwwwwww",
"wwwwwww0w,****1wwwwww***20q5**wq<9<69***<<<<10w;**,q7&**=wwwwwwww3****0wwwwwwwww",
"wwwwwwwww%****&wwwww0**Owwwwq+wwwwwww**=wwwwwww$**7wwq**%wwwwwww0*****+w0wwwwwww",
"wwwwwwww7**:&**7wwwww***0wwwwwwwwwwww**-wwwwwww$**7w0w***wwwwwww1**&***wwwwwwwww",
"wwwwwwww#**96**owwwww&***9ww0wwwwwww0**=wwwwwww$**0ww,***wwwwwww***0@**1wwwwwwww",
"wwwwwww0***ww***0wwww0****:0wwwwwwww0**&wwwwwww$**XO****5w0wwww7**$w7***wwwwwwww",
"wwwwwww3**1ww4**Owwwww7*****<wwwwwwww**=wwwwwww$*******5wwwwwww$**7ww&**9wwwwwww",
"wwwwwww***8007***0wwwwww>****<wwwwwww**=wwwwwww$*******wwwwwww0***0ww<**&wwwwwww",
"wwwwww<**********<wwwwwwwq****0wwwwww**=wwwwwwwX**98$**=wwwwww3***&&=****qwwwwww",
"wwwwww&***********ww0wwwwww***9wwwwww**=wwwwwww:**0ww***1wwww0***********#wwwwww",
"wwwww7***%::;::***<w0Xwww0w1**9wwwwww**=wwwwwww$**7ww1***wwww<**%:::&::***0wwwww",
"wwwww@**<wwwwww7**%w0*&0wwwX**6wwwwww**=wwwwwww$**7www***<www%**0wwwwww+**+wwwww",
"wwww0***wwwwwwww;**qw***%#****0wwwww0**=wwwwwwwo**8www7***0w7**;wwwwwwww***wwwww",
"wwww+**+wwwwwwww9**#w;*******9wwwwww0**&wwwwwww:**6wwww%**#w.**9wwwwwwww3**+wwww",
"wwww=**wwwwwwwwww**=ww2****%7wwwwwwww&*:wwwwwwwO**qwwww9***0*%:wwwwwwwwwq**:wwww",
"wwwwwwwwwwwwwwwwwwwwwwwwwwwwwwwwwwwwwwwwwwwwwwwwwwwwwwwwwwwwwwwwwwwwwwwwwwwwwwww",
"wwwwwwwwwwwwwwwwwwwwwwwwwwwwwwwwwwwwwwwwwwwwwwwwwwwwwwwwwwwwwwwwwwwwwwwwwwwwwwww",
"wwwwwwwwwwwwwwwwwwwwwwwwwwwwwwwwwwwwwwwwwwwwwwwwwwwwwwwwwwwwwwwwwwwwwwwwwwwwwwww"
};
