/* XPM */
static char *xpm_[] = {
/* columns rows colors chars-per-pixel */
"80 80 50 1 ",
"  c #77DF0A",
". c #87E807",
"X c #74DE0A",
"o c #76DF0A",
"O c #74DE0A",
"+ c #7BE109",
"@ c #7EE308",
"# c #94EE05",
"$ c #74DE0A",
"% c #76DF0A",
"& c #74DE0A",
"* c #74DE0A",
"= c #7CE209",
"- c #75DE0A",
"; c #94ED05",
": c #78E009",
"> c #74DE0A",
", c #84E608",
"< c #79E009",
"1 c #8BE906",
"2 c #8DEA06",
"3 c #7DE309",
"4 c #91EC05",
"5 c #9EF203",
"6 c #97EF05",
"7 c #83E608",
"8 c #95EE05",
"9 c #88E807",
"0 c #95EE05",
"q c #9BF104",
"w c #A2F503",
"e c #9EF303",
"r c #83E508",
"t c #7EE309",
"y c #79E009",
"u c #8FEB06",
"i c #7EE308",
"p c #79E009",
"a c #86E707",
"s c #7CE209",
"d c #92EC05",
"f c #75DE0A",
"g c #75DE0A",
"h c #7DE209",
"j c #82E508",
"k c #7FE408",
"l c #98F004",
"z c #86E707",
"x c #7BE209",
"c c None",
/* pixels */
"cccccccccccccccccccccccccccccccccccccccccccccccccccccccccccccccccccccccccccccccc",
"cccccccccccccccccccccccccccccccccccccccccccccccccccccccccccccccccccccccccccccccc",
"cccccccccccccccccccccccccccccccccccccccccccccccccccccccccccccccccccccccccccccccc",
"cccccccccccccccccccccccccccccccccccccccccccccccccccccccccccccccccccccccccccccccc",
"cccccccccccccccccccccccccccccccccccccccccccccccccccccccccccccccccccccccccccccccc",
"cccccccccccccccccccccccccccccccccccccccccccccccccccccccccccccccccccccccccccccccc",
"cccccccccccccccccccccccccccccccccccccccccccccccccccccccccccccccccccccccccccccccc",
"cccccccccccccccccccccccccccccccccccccccccccccccccccccccccccccccccccccccccccccccc",
"cccccccccccccccccccccccccccccccccccccccccccccccccccccccccccccccccccccccccccccccc",
"cccccccccccccccccccccccccccccccccccccccccccccccccccccccccccccccccccccccccccccccc",
"cccccccccccccccccccccccccccccccccccccccccccccccccccccccccccccccccccccccccccccccc",
"cccccccccccccccccccccccccccccccccccccccccccccccccccccccccccccccccccccccccccccccc",
"cccccccccccccccccccccccccccccccccccccccccccccccccccccccccccccccccccccccccccccccc",
"cccccccccccccccccccccccccccccccccccccccccccccccccccccccccccccccccccccccccccccccc",
"cccccccccccccccccccccccccccccccccccccccccccccccccccccccccccccccccccccccccccccccc",
"cccccccccccccccccccccccccccccccccccccccccccccccccccccccccccccccccccccccccccccccc",
"cccccccccccccccccccccccccccccccccccccccccccccccccccccccccccccccccccccccccccccccc",
"cccccccccccccccccccccccccccccccccccccccccccccccccccccccccccccccccccccccccccccccc",
"cccccccccccccccccccccccccccccccccccccccccccccccccccccccccccccccccccccccccccccccc",
"cccccccccccccccccccccccccccccccccccccccccccccccccccccccccccccccccccccccccccccccc",
"cccccccccccccccccccccccccccccccccccccccccccccccccccccccccccccccccccccccccccccccc",
"cccccccccccccccccccccccccccccccccccccccccccccccccccccccccccccccccccccccccccccccc",
"cccccccccccccccccccccccccccccccccccccccccccccccccccccccccccccccccccccccccccccccc",
"cccccccccccccccccccccccccccccccccccccccccccccccccccccccccccccccccccccccccccccccc",
"cccccccccccccccccccccccccccccccccccccccccccccccccccccccccccccccccccccccccccccccc",
"cccccccccccccccccccccccccccccccccccccccccccccccccccccccccccccccccccccccccccccccc",
"cccccccccccccccccccccccccccccccccccccccccccccccccccccccccccccccccccccccccccccccc",
"cccccccccccccccccccccccccccccccccccccccccccccccccccccccccccccccccccccccccccccccc",
"cccccccccccccccccccccccccccccccccccccccccccccccccccccccccccccccccccccccccccccccc",
"cccccccccccccccccccccccccccccccccccccccccccccccccccccccccccccccccccccccccccccccc",
"cccccccccccccccccccccccccccccccccccccccccccccccccccccccccccccccccccccccccccccccc",
"cccccccccccccccccccccccccccccccccccccccccccccccccccccccccccccccccccccccccccccccc",
"cccccccccccccccccci&%%%%9kccck=Occccr&$sczccccccczcz>=jcccx=%fcccccccccccz-9sccc",
"ccccccccccccccccc&==%%%=9%ccc>==3ccc3===scccccccccz%%==ccc3==%jczccccczcxq===ccc",
"cccccccccccccccc&9==%%9==:ccc%99:cccs=$==scccccccz==%=-ccct=%==pcccccccg%=%%$ccc",
"ccccccccccccczzl999=ysyypcccc-993cccci%=9q3ccczcs9===&zcccz3===0.cccccrw===>zccc",
"ccccccccccccccc4099zccccccccc;w0:cccccp09993ccchq9==:cccccccs9999 cccj99==Xccccc",
"ccccccccccccccc;q9>cccczzcccc;wq:cccczcs90708c600903cccccccccs99=q#c 00qqycccccc",
"ccccccccccccccceww czcccccccc#ww:czcccccswqqwwq0qq3cccccccccccfqq9w0wwwwpccccccc",
"ccccccccccccccceww3cccccccccc@ww4cccccccczewwwqqqscccccccccccccx$qqwwwwpcccccccc",
"ccccccccccccccc;ww3cccccccccceww4czccccczzkwwwwq3zcccccccccccczczwwwwwyccccccccc",
"ccccccccccccccc&ww:czcccccccc;ww5ccccccccf7wqwqqwtccccccccccczcf%qwwwwwjcccccccc",
"ccccccccccccccc$q0tcccccccccc;ww4cccccccx9w0q9qqwqycccccccccccjwq0wwwww0yccccccc",
"cccccccczcczcccq00ycccccccccc;ww4ccccccsq99q-c3q099>ccccccccch9q9wOciwq9q>cccccc",
"ccccczccccccccj0qwrcccccccccc-904cccccr=09q3ccc390==>ccccccc3=99q>cczp999=:ccccc",
"cccct yyys  t<q99wzccccccccccO994cccc3%===3cccccgq=%%Ozcccc 9===3ccccck99==-cccc",
"ccco%=w0====q9999hczcccccccccX9=4czc3==%=3cccccccf%=%%*ccct====jccccczcf%=%=&ccc",
"ccc%%%========9qpcccccccccccco==3ccc30=%gccccccczccO%=%zcc %=9rccccccccczX%==ccc",
"cccs==%%%%%%$Xyfcccccccccccccg=$zcccz%=kcccccccccccz-=rcccg==fcccccccccccc>=sccc",
"cccccccccccccccccccccccccccccccccccccccccccccccccccccccccccccccccccccccccccccccc",
"cccccccccccccccccccccccccccccccccccccccccccccccccccccccccccccccccccccccccccccccc",
"cccccccccccccccccccccccccccccccccccccccccccccccccccccccccccccccccccccccccccccccc",
"cccccccccccccccccccccccccccccccccccccccccccccccccccccccccccccccccccccccccccccccc",
"cccccccccccccccccccccccccccccccccccccccccccccccccccccccccccccccccccccccccccccccc",
"cccccccccccccccccccccccccccccccccccccccccccccccccccccccccccccccccccccccccccccccc",
"cccccccccccccccccccccccccccccccccccccccccccccccccccccccccccccccccccccccccccccccc",
"cccccccccccccccccccccccccccccccccccccccccccccccccccccccccccccccccccccccccccccccc",
"cccccccccccccccccccccccccccccccccccccccccccccccccccccccccccccccccccccccccccccccc",
"cccccccccccccccccccccccccccccccccccccccccccccccccccccccccccccccccccccccccccccccc",
"cccccccccccccccccccccccccccccccccccccccccccccccccccccccccccccccccccccccccccccccc",
"cccccccccccccccccccccccccccccccccccccccccccccccccccccccccccccccccccccccccccccccc",
"cccccccccccccccccccccccccccccccccccccccccccccccccccccccccccccccccccccccccccccccc",
"cccccccccccccccccccccccccccccccccccccccccccccccccccccccccccccccccccccccccccccccc",
"cccccccccccccccccccccccccccccccccccccccccccccccccccccccccccccccccccccccccccccccc",
"cccccccccccccccccccccccccccccccccccccccccccccccccccccccccccccccccccccccccccccccc",
"cccccccccccccccccccccccccccccccccccccccccccccccccccccccccccccccccccccccccccccccc",
"cccccccccccccccccccccccccccccccccccccccccccccccccccccccccccccccccccccccccccccccc",
"cccccccccccccccccccccccccccccccccccccccccccccccccccccccccccccccccccccccccccccccc",
"cccccccccccccccccccccccccccccccccccccccccccccccccccccccccccccccccccccccccccccccc",
"cccccccccccccccccccccccccccccccccccccccccccccccccccccccccccccccccccccccccccccccc",
"cccccccccccccccccccccccccccccccccccccccccccccccccccccccccccccccccccccccccccccccc",
"cccccccccccccccccccccccccccccccccccccccccccccccccccccccccccccccccccccccccccccccc",
"cccccccccccccccccccccccccccccccccccccccccccccccccccccccccccccccccccccccccccccccc",
"cccccccccccccccccccccccccccccccccccccccccccccccccccccccccccccccccccccccccccccccc",
"cccccccccccccccccccccccccccccccccccccccccccccccccccccccccccccccccccccccccccccccc",
"cccccccccccccccccccccccccccccccccccccccccccccccccccccccccccccccccccccccccccccccc",
"cccccccccccccccccccccccccccccccccccccccccccccccccccccccccccccccccccccccccccccccc",
"cccccccccccccccccccccccccccccccccccccccccccccccccccccccccccccccccccccccccccccccc",
"cccccccccccccccccccccccccccccccccccccccccccccccccccccccccccccccccccccccccccccccc",
"cccccccccccccccccccccccccccccccccccccccccccccccccccccccccccccccccccccccccccccccc"
};
