/* XPM */
static char *xpm_[] = {
/* columns rows colors chars-per-pixel */
"80 80 81 1 ",
"  c #003D94",
". c #014699",
"X c #0D4FA1",
"o c #0D53A1",
"O c #1759A5",
"+ c #225FA9",
"@ c #1E63AB",
"# c #006BB8",
"$ c #0373BC",
"% c #147BBF",
"& c #2765AC",
"* c #3269AF",
"= c #386CB1",
"- c #3D71B4",
"; c #406FB4",
": c #4675B7",
"> c #527DBC",
", c #197EC1",
"< c #4F85BE",
"1 c #5984BE",
"2 c #1E81C2",
"3 c #2886C4",
"4 c #348CC6",
"5 c #3C91C9",
"6 c #5E86C2",
"7 c #4696CB",
"8 c #569FCE",
"9 c #519ED0",
"0 c #648BC2",
"q c #6D90C5",
"w c #7898C9",
"e c #64A4CE",
"r c #78A6CD",
"t c #64A7D2",
"y c #75ACD2",
"u c #7BB3D8",
"i c #BEC3C8",
"p c #C3C3C3",
"a c #C7C6C5",
"s c #C7C6C6",
"d c #C9C7C5",
"f c #C8C7C5",
"g c #829FCC",
"h c #87A3CE",
"j c #8CA8D0",
"k c #97AED3",
"l c #87B9DA",
"z c #9BB5D8",
"x c #B4BBC6",
"c c #BAC0C8",
"v c #A6B9D9",
"b c #B0BEDA",
"n c #95C1DE",
"m c #A8C4DB",
"M c #B8C6DD",
"N c #BFD1DF",
"B c #8FC0E0",
"V c #9FC9E5",
"C c #A9CCE2",
"Z c #BACAE2",
"A c #BCD5E6",
"S c #CDCECE",
"D c #DADADA",
"F c #E1DFDF",
"G c #C7CEE3",
"H c #C6D5E5",
"J c #DADDE8",
"K c #C9E0EF",
"L c #D9E2EB",
"P c #CCE2F1",
"I c #D9E8F2",
"U c #EBE9E9",
"Y c #F4EDED",
"T c #FBF2ED",
"R c #E6EDF4",
"E c #EEF2F5",
"W c #FDFDFD",
"Q c #9A9A9A",
"! c #B3ABA3",
"~ c #A6A4A1",
"^ c None",
/* pixels */
"^^^^^^^^^^^^^^^^^^^^^^^^^^^^^^^^^^^^^^^^^^^^^^^^^^^^^^^^^^^^^^^^^^^^^^^^^^^^^^^^",
"^^^^^^^^^^^^^^^^^^^^^^^^^^^^^^^^^^^^^^^^^^^^^^^^^^^^^^^^^^^^^^^^^^^^^^^^^^^^^^^^",
"^^^^^^^^^^^^^^^^^^^^^^^^^^^^^^^^^^^^^^^^^^^^^^^^^^^^^^^^^^^^^^^^^^^^^^^^^^^^^^^^",
"^^^^^^^^^^^^^^^^^^^^^^^^^^^^^^^^^^^^^^^^^^^^^^^^^^^^^^^^^^^^^^^^^^^^^^^^^^^^^^^^",
"^^^^^^^^^^^^^^^^^^^^^^^^^^^^^^^^^^^^^^^^^^^^^^^^^^^^^^^^^^^^^^^^^^^^^^^^^^^^^^^^",
"^^^^^^^^^^^^^^^^^^^^^^^^^^^^^^^^^^^^^^^^^^^^^^^^^^^^^^^^^^^^^^^^^^^^^^^^^^^^^^^^",
"^^^^^^^^^^^^^^^^^^^^^^^^^^^^^^^^^^^^^^^^^^^^^^^^^^^^^^^^^^^^^^^^^^^^^^^^^^^^^^^^",
"^^^^^^^^^^^^^^^^^^^^^^^^^^^^^^^^^^^^^^^^^^^^^^^^^^^^^^^^^^^^^^^^^^^^^^^^^^^^^^^^",
"^^^^^^^^^^^^^^^^^^^^^^^^^^^^^^^^^^^^^^^^^^^^^^^^^^^^^^^^^^^^^^^^^^^^^^^^^^^^^^^^",
"^^^^^^^^^^^^^^^^^^^^^^^^^^^^^^^^^^^^^^^^^^^^^^^^^^^^^^^^^^^^^^^^^^^^^^^^^^^^^^^^",
"^^^^^^^^^^^^^^^^^^^^^^^^^^^^^^^^^^^^^^^^^^^^^^^^^^^^^^^^^^^^^^^^^^^^^^^^^^^^^^^^",
"^^^^^^^^^^^^^^^^^^^^^^^^^^^^^^^^^^^^^^^^^^^^^^^^^^^^^^^^^^^^^^^^^^^^^^^^^^^^^^^^",
"^^^^^^^^^^^^^^^^^^^^^^^^^^^^^^^^^^^^^^^^^^^^^^^^^^^^^^^^^^^^^^^^^^^^^^^^^^^^^^^^",
"^^^^^^^^^^^^^^^^^^^^^^^^^^^^^^^^^^^^^^^^^^^^^^^^^^^^^^^^^^^^^^^^^^^^^^^^^^^^^^^^",
"^^^^^^^^^^^^^^^^^^^^^^^^^^^^^^^^^^^^^^^^^^^^^^^^^^^^^^^^^^^^^^^^^^^^^^^^^^^^^^^^",
"^^^^^^^^^^^^^^^^^^^^^^^^^^^^^^^^^^^^^^^^^^^^^^^^^^^^^^^^^^^^^^^^^^^^^^^^^^^^^^^^",
"^^^^^^^^^^^^^^^^^^^^^^^^^^^^^^^^^^^^^^^^^^^^^^^^^^^^^^^^^^^^^^^^^^^^^^^^^^^^^^^^",
"^^^^^^^^^^^^^^^^^^^^^^^^^^^^^^^^^^^^^^^^^^^^^^^^^^^^^^^^^^^^^^^^^^^^^^^^^^^^^^^^",
"^^^^^^^^^^^^^^^^^^^^^^^^^^^^^^^^^^^^^^^^^^^^^^^^^^^^^^^^^^^^^^^^^^^^^^^^^^^^^^^^",
"^^^^^^^^^^^^^^^^^^^^^^^^^^^^^^^^^^^^^^^^^^^^^^^^^^^^^^^^^^^^^^^^^^^^^^^^^^^^^^^^",
"^^^^^^^^^^^^^^^^^^^^^^^^^^^^^^^^^^^^^^^^^^^^^^^^^^^^^^^^^^^^^^^^^^^^^^^^^^^^^^^^",
"^^^^^^^^^^^^^^^^^^^^^^^^^^^^^^^^^^^^^^^^^^^^^^^^^^^^^^^^^^^^^^^^^^^^^^^^^^^^^^^^",
"^^^^^^^^^^^^^^^^^^^^^^^^^^^^^^^^^^^^^^^^^^^^^^^^^^^^^^^^^^^^^^^^^^^^^^^^^^^^^^^^",
"^^^^^^^^^^^^^^^^^^^^^^^^^^^^^^^^^^^^^^^^^^^^^^^^^^^^^^^^^^^^^^^^^^^^^^^^^^^^^^^^",
"^^^^^^^^^^^^^^^^^^^^^^^^^^^^^^^^^^^^^^^^^^^^^^^^^^^^^^^^^^^^^^^^^^^^^^^^^^^^^^^^",
"^^^^^^^^^^^^^^^^^^^^^^^^^^^^^^^^^^^^^^^^^^^^^^^^^^^^^^^^^^^^^^^^^^^^^^^^^^^^^^^^",
"^^^^^^^^^^^^^^^^^^^^^^^^^^^^^^^^^^^^^^^^^^^^^^^^^^^^^^^^^^^^^^^^^^^^^^^^^^^^^^^^",
"^^^^~pSSSSSSSSSSSSSSSSSSSSSSSSSSSSSSSSSSSSSSSSSbxxcxxxxxxxxxxxcxxxxxxcxccSd~^^^^",
"^^^~UUYUYYYYRUYYUYYYUYTTUYUYYUYURYYYYYUYYYUYYYYbzvzzvvzvzkvzvzzzkvkvvvkvbhqM~^^^",
"^^^pUDYYYTYYYYYYYYYYTHyzTYYYYYYYYYYYYYYYYYYYYYYUJLJJJJJJJJJJRJUJJJJJJJJJRh+wp^^^",
"^^^SDDFYYYYYYYYYYYRTZ##3YUYYYYYYYYYYUYYYYYYYYYYGGGGGGGGGGJEWWWWERJGGGGGGM>:6i^^^",
"^^^SLDDUUYUUUUUUYUUTu##4YYUYYUURUUUUYYUUUUUUUUYGZMGGMMMGRWWWWWWWWWJbGZbGg;:6i^^^",
"^^^SFDDFUUUUYTYYTUUTr##4YUUUUUYYYUUUUUUUUTYYUUUMbbbbbbMYWWWWWWWWWWWJbbZk:::0i^^^",
"^^^SFDDDFUTFGmmmMHFTy##4UUUFUUMmGUUUUFUYFMHFFUUMvvvxvvGWWWWWWWWWWWWWbvv>::;6S^^^",
"^^^SFFDFFUj,$#$#$#eTy##4UUFTG2##$GYFUFUN%#2FUUFmkkkkkkkJWWWJvvZEWWWWZk0:>:;0i^^^",
"^^^NUFFFUy#$###$##yTy#$4YFYH$#$$#5YUUUU3#$yTUUUzjjjjjjjjHIbghjgGWWWWH6;:::;6i^^^",
"^^^DUFUUD$$$275537FTy#$4UTD,#$#$$#nTFYm$$$DUUUUkgggggggggwgghhwCWWWWv->:::;6x^^^",
"^^^SUUUUN$$$NTTTTUYTy##4TF3$$$n5##%LUY7#$8TRUUUjqwwwwwwwwwwqwwqLWWWWg;:::::6c^^^",
"^^^STRRYF$$$%5enHTUTy##4Y4#$#lTA#$#eTH$$$ATURUYhqqqqqqqqqqqqq0bWWWWE>:::>::6i^^^",
"^^^DEUYYTy##$###$7LWy##7e#$$BTRTy#$#Lu##5TUEYETw>066>0666660>zWWWWWk;:::::;6i^^^",
"^^^SWYEEEWl3$###$#4Wy##<m#$#nTETU2#$33##CWYEEEWq-:::::::;::=kWWWWWG-::::::-6c^^^",
"^^^SWEWTTEWTLCu4#$$PB#$4W9#$$PTEWC#$$$#3WTEETET0=;---;-;;;*zWWWWWG=-;;;-;;*6c^^^",
"^^^DWEEWEWEEWWWI$$#Al#$4WR,$#7WETW8#$$#BWEWETEW0*-======-+vWWWWWC*=-=====-*<s^^^",
"^^^SWTWEWA2,3342$$#Ul#$4EWl#%#nWEWR%#$2EWWTWWEW1&*=**=***MWWWWWz&====*=***&>S^^^",
"^^^SWWWEW4#####$##tWu##3WWW4#,,IWEW7##uWEWWWTWW1+**&&**&ZWWWWE0oOO+O+*&&&*+:M^^^",
"^^^SWWWWW7$$$#$$3BWWl##lWEWR3##9WWA#$$RWWWWWWWW<++&+&*OhWWWWWHjzzzzz0O*&&&+:s^^^",
"^^^DWWWWWWRPKKKIWWWWRHIWWWWWEHHIWW9##tWWWWWWWWW<O+++&O&IWWWWWWWWWWWWHO&&O&O-M^^^",
"^^^SWWWWWWWWWWWWWWWWWWWWWWWWWWWWWP$$$PWWWWWWWWW:o+O+OO-WWWWWWWWWEWWWHoO+OOO-i^^^",
"^^^DWWWWWWWWWWWWWWWWWWWWWWWWWWWWWt##7WWWWWWWWWW<XOOO@o&WWWWWWWWWWWWWko@OOOo*S^^^",
"^^^SWWWWWWWWWWWWWWWWWWWWWWWWWWWWI##$KWWWWWWWWWW-.OOoooOlzzzzzzzzzzvrOoooooo&S^^^",
"^^^pWEWWWWWWWWWWWWWWWWWWWWWWWWWWRCBPWWWWWWWWWWW-.o...o...............o.o...-D^^^",
"^^^~UWWWWWWWWWWWWWWWWWWWWWWWWWWWWWWWWWWWWWWWWWW<@&@&@&&&&&&&&&&&&&&*@@@@&&:mQ^^^",
"^^^^~pSSSSSSSSSSSSSSSSSSSSSSSSSSSSmfSSSSSSSSSSSipmscMaiiaMsxacccccxscccaamp^^^^^",
"^^^^^^^^^^^^^^^^^^^^^^^^^^^^^^^^^^^^^^^^^^^^^^^^^^^^^^^^^^^^^^^^^^^^^^^^^^^^^^^^",
"^^^^^^^^^^^^^^^^^^^^^^^^^^^^^^^^^^^^^^^^^^^^^^^^^^^^^^^^^^^^^^^^^^^^^^^^^^^^^^^^",
"^^^^^^^^^^^^^^^^^^^^^^^^^^^^^^^^^^^^^^^^^^^^^^^^^^^^^^^^^^^^^^^^^^^^^^^^^^^^^^^^",
"^^^^^^^^^^^^^^^^^^^^^^^^^^^^^^^^^^^^^^^^^^^^^^^^^^^^^^^^^^^^^^^^^^^^^^^^^^^^^^^^",
"^^^^^^^^^^^^^^^^^^^^^^^^^^^^^^^^^^^^^^^^^^^^^^^^^^^^^^^^^^^^^^^^^^^^^^^^^^^^^^^^",
"^^^^^^^^^^^^^^^^^^^^^^^^^^^^^^^^^^^^^^^^^^^^^^^^^^^^^^^^^^^^^^^^^^^^^^^^^^^^^^^^",
"^^^^^^^^^^^^^^^^^^^^^^^^^^^^^^^^^^^^^^^^^^^^^^^^^^^^^^^^^^^^^^^^^^^^^^^^^^^^^^^^",
"^^^^^^^^^^^^^^^^^^^^^^^^^^^^^^^^^^^^^^^^^^^^^^^^^^^^^^^^^^^^^^^^^^^^^^^^^^^^^^^^",
"^^^^^^^^^^^^^^^^^^^^^^^^^^^^^^^^^^^^^^^^^^^^^^^^^^^^^^^^^^^^^^^^^^^^^^^^^^^^^^^^",
"^^^^^^^^^^^^^^^^^^^^^^^^^^^^^^^^^^^^^^^^^^^^^^^^^^^^^^^^^^^^^^^^^^^^^^^^^^^^^^^^",
"^^^^^^^^^^^^^^^^^^^^^^^^^^^^^^^^^^^^^^^^^^^^^^^^^^^^^^^^^^^^^^^^^^^^^^^^^^^^^^^^",
"^^^^^^^^^^^^^^^^^^^^^^^^^^^^^^^^^^^^^^^^^^^^^^^^^^^^^^^^^^^^^^^^^^^^^^^^^^^^^^^^",
"^^^^^^^^^^^^^^^^^^^^^^^^^^^^^^^^^^^^^^^^^^^^^^^^^^^^^^^^^^^^^^^^^^^^^^^^^^^^^^^^",
"^^^^^^^^^^^^^^^^^^^^^^^^^^^^^^^^^^^^^^^^^^^^^^^^^^^^^^^^^^^^^^^^^^^^^^^^^^^^^^^^",
"^^^^^^^^^^^^^^^^^^^^^^^^^^^^^^^^^^^^^^^^^^^^^^^^^^^^^^^^^^^^^^^^^^^^^^^^^^^^^^^^",
"^^^^^^^^^^^^^^^^^^^^^^^^^^^^^^^^^^^^^^^^^^^^^^^^^^^^^^^^^^^^^^^^^^^^^^^^^^^^^^^^",
"^^^^^^^^^^^^^^^^^^^^^^^^^^^^^^^^^^^^^^^^^^^^^^^^^^^^^^^^^^^^^^^^^^^^^^^^^^^^^^^^",
"^^^^^^^^^^^^^^^^^^^^^^^^^^^^^^^^^^^^^^^^^^^^^^^^^^^^^^^^^^^^^^^^^^^^^^^^^^^^^^^^",
"^^^^^^^^^^^^^^^^^^^^^^^^^^^^^^^^^^^^^^^^^^^^^^^^^^^^^^^^^^^^^^^^^^^^^^^^^^^^^^^^",
"^^^^^^^^^^^^^^^^^^^^^^^^^^^^^^^^^^^^^^^^^^^^^^^^^^^^^^^^^^^^^^^^^^^^^^^^^^^^^^^^",
"^^^^^^^^^^^^^^^^^^^^^^^^^^^^^^^^^^^^^^^^^^^^^^^^^^^^^^^^^^^^^^^^^^^^^^^^^^^^^^^^",
"^^^^^^^^^^^^^^^^^^^^^^^^^^^^^^^^^^^^^^^^^^^^^^^^^^^^^^^^^^^^^^^^^^^^^^^^^^^^^^^^",
"^^^^^^^^^^^^^^^^^^^^^^^^^^^^^^^^^^^^^^^^^^^^^^^^^^^^^^^^^^^^^^^^^^^^^^^^^^^^^^^^",
"^^^^^^^^^^^^^^^^^^^^^^^^^^^^^^^^^^^^^^^^^^^^^^^^^^^^^^^^^^^^^^^^^^^^^^^^^^^^^^^^",
"^^^^^^^^^^^^^^^^^^^^^^^^^^^^^^^^^^^^^^^^^^^^^^^^^^^^^^^^^^^^^^^^^^^^^^^^^^^^^^^^",
"^^^^^^^^^^^^^^^^^^^^^^^^^^^^^^^^^^^^^^^^^^^^^^^^^^^^^^^^^^^^^^^^^^^^^^^^^^^^^^^^",
"^^^^^^^^^^^^^^^^^^^^^^^^^^^^^^^^^^^^^^^^^^^^^^^^^^^^^^^^^^^^^^^^^^^^^^^^^^^^^^^^"
};
