/* XPM */
static char *xpm_[] = {
/* columns rows colors chars-per-pixel */
"80 80 74 1 ",
"  c #010101",
". c #1B0C07",
"X c #061606",
"o c #161008",
"O c #080411",
"+ c #171717",
"@ c #220808",
"# c #211F1F",
"$ c #190E3A",
"% c #1C352F",
"& c #1D3034",
"* c #262626",
"= c #393938",
"- c #195F19",
"; c #1B671B",
": c #1D701D",
"> c #1D0A44",
", c #1D1041",
"< c #2F1C69",
"1 c #30146D",
"2 c #371E78",
"3 c #352E6F",
"4 c #35376C",
"5 c #372178",
"6 c #2D4C50",
"7 c #34585C",
"8 c #32784D",
"9 c #336656",
"0 c #337150",
"q c #344764",
"w c #345060",
"e c #474747",
"r c #575757",
"t c #676767",
"y c #777777",
"u c #DE3731",
"i c #ED2D31",
"p c #F22A31",
"a c #E23531",
"s c #BF4F30",
"d c #B45630",
"f c #89712F",
"g c #837930",
"h c #917031",
"j c #2A9C29",
"k c #31993D",
"l c #2CA82A",
"z c #30AF2F",
"x c #2DBB2C",
"c c #30B82E",
"v c #2FA832",
"b c #31A737",
"n c #24BE30",
"m c #31B530",
"M c #5A9730",
"N c #6B8A30",
"B c #2FC02B",
"V c #30C12B",
"C c #22C030",
"Z c #34C233",
"A c #328746",
"S c #319241",
"D c #370C81",
"F c #3B1A85",
"G c #3B2281",
"H c #868686",
"J c #969696",
"K c #A8A8A8",
"L c #B7B7B7",
"P c #C9C9C9",
"I c #D7D7D7",
"U c #E8E8E8",
"Y c #FEFEFE",
"T c None",
/* pixels */
"TTTTTTTTTTTTTTTTTTTTTTTTTTTTTTTTTTTTTTTTTTTTTTTTTTTTTTTTTTTTTTTTTTTTTTTTTTTTTTTT",
"TTTTTTTTTTTTTTTTTTTTTTTTTTTTTTTTTTTTTTTTTTTTTTTTTTTTTTTTTTTTTTTTTTTTTTTTTTTTTTTT",
"TTTTTTTTTTTTTTTTTTTTTTTTTTTTTTTTTTTTTTTTTTTTTTTTTTTTTTTTTTTTTTTTTTTTTTTTTTTTTTTT",
"TTTTTTTTTTTTTTTTTTTTTTTTTTTTTTTTTTTTTTTTTTTTTTTTTTTTTTTTTTTTTTTTTTTTTTTTTTTTTTTT",
"TTTTTTTTTTTTTTTTTTTTTTTTTTTTTTTTTTTTTTTTTTTTTTTTTTTTTTTTTTTTTTTTTTTTTTTTTTTTTTTT",
"TTT      X   X  O      . O   O    O O     O   O      OO   O   O   O   O     OTTT",
"TTT ;ljjjjjjjjjl61<<<<<<<<<<<<<<<<<<<<<<<<<<<<<<<<<<<<<<<<<<<<<<<<<<<<<<<<2$ TTT",
"TTT :ZcZZcZcccZb52G52G52552G2F552G2G22GGG555F555GF555F552G555F525G55F525G2G, TTT",
"TTT :Zzmmmmmmmx7222222552222525525222222222222222222222222252252252252<5555, TTT",
"TTT :Zmmmmmmmcz3252222252252255<222225522552222222222522522222222222225255G, TTT",
"TTT :ZzmmmmmmxAF22252222<2522252225222222222225225225522222225255252222255G, TTT",
"TTT :Zcmmmmmzxw222222222222225222522252222552D22222D2222522522222222525222G, TTT",
"TTT :Zzmmmmmmz4F522225252252522252222522552247088A8074222222222552222525225, TTT",
"TTT :Zzmcmmmcb52225252222222222522522222517kmxBxxxxVxmk9522252222225222252G, TTT",
"TTT :ZzmmmmmxA2225225522225252252222222220VxmmmmmmmmmmxBl92252222225252222G, TTT",
"TTT :Zcmmmmmx822225252252522222252525252qxmmmmmmmmmmmmmmxV0252255222222522G, TTT",
"TTT :Zzmmmmmx02222222222225225225225222D0Vmmmmmmmmmmmmcmmmxw222222222222225, TTT",
"TTT :Zzmmmmmx9252222222225222252222222228xmmmmmmmmmmmmmmmmxS22222222222222G, TTT",
"TTT :Zcmmmmzx7252222222222222222222222527Vmmmmmmmmmmmmmmmmmm32522255555522G, TTT",
"TTT :ZzmmmmmB9D52222252225255252252222525bcmcmmmmmmmmmmmmmmx3D2F2D222D2D22F> TTT",
"TTT :Zzmmmmmx92252525225252252522222522524mxmmmmmmmmmmmmmmmm899999999999779% TTT",
"TTT :ZcmmmmmB9D2222222222222222225252222524kccmmmmmmmcmmmmmmxVVVxZVVxxZBVxZ; TTT",
"TTT :ZzmmmmmBA2222222525252222522222522222227kcxcmmmmmmmmmmmmmmmmmmzzmmzmzZ; TTT",
"TTT :Zmmmmmmxk22255222222252522252252222222212q8vVxcmmmmmmmmmmmmmmmmmmmmmmZ; TTT",
"TTT :Zzmmmmmmz3252225222252252222222525222525522548bmxxcmmmmmmmmmmmmmmmmmmc; TTT",
"TTT :Zzcmmmmmxq252522225225222255222222225222255222249SvxVxcmmmmmmmmmmmmmmZ; TTT",
"TTT :ZcmmmmcmB0F5222525222222225252522522222525225222225q9AvxVcmmmmmmmmcmmZ; TTT",
"TTT :Zzmmmmmmxk552522222525252222222252222522222222222222225q0kmBBczzmmmmzZ; TTT",
"TTT :ZzmmmmmmmBq22222222222252225252522525255252222522555522222378kcBmzmmmZ; TTT",
"TTT :ZcmmcmmmmcS222222525225225222222222222222225222252222225522225q0bxxmzc; TTT",
"TTT :Zzmmmmcmmmxq22222222252522222222525252222522525222222222222252222qAzxZ; TTT",
"TTT :Zzmmmmmmmmcb22222222222225225522222225225222222252252222222222522F239m: TTT",
"TTT :ZmmmmcmmmmmB9D22252225252522225252225252222525225225222222552222255213& TTT",
"TTT :Zzmmmmmmmmmmmq2522252222222252222522222222522222222222552222225252225F> TTT",
"TTT :Zzmmmmmmmmcmxz4222222522222252522222522525225252522525225255252252522G, TTT",
"TTT :Zmmcmmmmmmmmmcm425252222552222255222252222222222252222222222222222255G, TTT",
"TTT :Zzmmmmmmcmmmmmmmw2252222222222252525222252525522225222222222222222222G, TTT",
"TTT :Zzcmmmmmmmmmmmmmx9222225252222225252225222222222522525225255225252522G, TTT",
"TTT :ZmmmmcmmmcmmmmmmmVS31552222225252225252222222222225225252222225252252G, TTT",
"TTT :Zmmmmmmmmmmmmmmmmmmm9222552222222252222255252252522522222255222222522G$ TTT",
"TTT :ZzmmmmmcmmmmmmmmmmmmVb75225522222252522222222222222222252522525222255G, TTT",
"TTT :Zzmmmmmmmmmmmmmmmmmmmmxb932225222222252255252522222522522222222522555G, TTT",
"TTT :ZcmmcmmmmmmmmmmmmmmmmmmxxmAw52222222222222222252222225225522552225222G, TTT",
"TTT :Zzmmmmmmmcmmmmcmxmmmmmmmmmxck0422D25555252222225222222222222222222252G, TTT",
"TTT :Zzmmmmmmmmmcmmmmmmmmmmmmmmmmcccv8r3212222255555222252522225522225252<G, TTT",
"TTT :ZcmmmcmcmmmmmmmmmmmcmmmmmmmmczmcVczA9q52D2255552222222252222225222222G, TTT",
"TTT :ZzmmmmmmmcmmmmmmmmmmmmmmmmmmmcmcmmmxZcbA94521222252225252255225252222G, TTT",
"TTT :ZmmmcmmmmmmmmcmmmmmmmmmmmmmmmmmccmmzmmcxBxmk0q522<5552222222222225225G, TTT",
"TTT :Zzmmmmmmmmmmmmmmmmmmmmzmmmmmmmmmmmmmmmmmmmxcccmk7422222222225255222525, TTT",
"TTT :ZzcmmmmmnxnCCnnnxCnnnnxCCCnnCnCnnnxmmmmmmmmzmmmcVmSw2222222222<222522G, TTT",
"TTT :ZcmmcmmcMfggggggggggggggggggggggggNcmmmmmmmmmmmmmcxcv9522225252525222G, TTT",
"TTT :ZzmmmmmnhpippipppipippipipppppppppsnmmmmmmmmmmmmmmmzmVb42522222222222G, TTT",
"TTT :Zmmmmmmngpuaaaaaaaauaaaaaaauaauuuidnmmmmmmmmmmmmmmmmmmcm4222222225252G, TTT",
"TTT :Zzmmmmmnfiaaaaaaaaaaaaaaaaaaaaaaaidcmmmmmmmmmmmcmmmmmmmcb225225522222G, TTT",
"TTT :ZmmmmmmChpaaaaaaaaaaaaaaaaaaaaaaaidnmmmmmmmmmmmmmmmmmmmmxq252222252225, TTT",
"TTT :cmmmmmmCgiuaaaaaaaaaaaaaaaaaaaaaaidmmmmmmmmmmmmmmmmmmmmzc7255225222225, TTT",
"TTT :ZmcmmmmZfpaaaaaaaaaaaaaaaaaaaaaaaidnmcmmmmcmmmmmmmmmmmmmV725552255225G, TTT",
"TTT :cllzmzznfiuaaaaaaaaaaaaaaaaaauaaaidzzmzlmmlzzmzmzzmzmzzmv52<2222225225, TTT",
"TTT XXXXXXXXXo@@@@@@@@@@@@@@@@@@@@@@@@@.XXXXXXXXXXXXXXXXXXXXXXOOOOOOOOOOOOOO TTT",
"TTT                                                                          TTT",
"TTT      +===+             *===*                                             TTT",
"TTT   +HIYYYYYIH*Jt     *HPYYYYYIJ*   =JHHHHe    eJHHHHHOeJHHHyHJ*  tHHyHJt XTTT",
"TTT  =UYYPHHHKUYYYK    yYYYPHyHIYYYy  rYYYYYYr O yYYYYYY+yYYYYYYU=  LYYYYYK  TTT",
"TTT  UYU=      6IYJ   HYYYt     yYYYH   rYYYYYr    eYUo    *IYYYr    KYY=   OTTT",
"TTT *YYY=Oo     +YJ  eYYYt       HYYYe  =YYYYYYt   =YU      *YYYU*  yYYe     TTT",
"TTT +UYYYUIILJyr+++  LYYP        OUYYL  eYUrYYYYJ  =YU+      eYYYU+rYYr      TTT",
"TTT  yYYYYYYYYYYYJ  oUYYK         LYYIo eYU *UYYYK *YUO       rYYYIUYt       TTT",
"TTT   =LUYYYYYYYYYL OUYYJ         LYYIO eYU+ +UYYYL=YU+        yYYYYH        TTT",
"TTT  rr +=eyHKPUYYYe PYYL         IYYL  eYU+  #IYUYUYU+         LYYUO       OTTT",
"TTT  IY*       OLYYy yYYY=       rYYYt  eYU+   oPYYYYU+         JYYIO        TTT",
"TTT  LYI=       KYYe OPYYI*     =UYYP   =YUO     LYYYU+         JYYI         TTT",
"TTT  PYYYIJyrtJIYYy   XKYYYKretKYYYKO =PUYYPP= O  HYYY*       JPYYYYPLX     XTTT",
"TTTO LIeHUYYYYYULe      rLYYYYYYYLe   =PLLLLP=     tLL+       JPLLLKPLO      TTT",
"TTT  oo   *ere=+          *ettte+                                           OTTT",
"TTT                                                                          TTT",
"TTT   O     X O            OO O O                                            TTT",
"TTTTTTTTTTTTTTTTTTTTTTTTTTTTTTTTTTTTTTTTTTTTTTTTTTTTTTTTTTTTTTTTTTTTTTTTTTTTTTTT",
"TTTTTTTTTTTTTTTTTTTTTTTTTTTTTTTTTTTTTTTTTTTTTTTTTTTTTTTTTTTTTTTTTTTTTTTTTTTTTTTT",
"TTTTTTTTTTTTTTTTTTTTTTTTTTTTTTTTTTTTTTTTTTTTTTTTTTTTTTTTTTTTTTTTTTTTTTTTTTTTTTTT",
"TTTTTTTTTTTTTTTTTTTTTTTTTTTTTTTTTTTTTTTTTTTTTTTTTTTTTTTTTTTTTTTTTTTTTTTTTTTTTTTT"
};
