/* XPM */
static char *xpm_[] = {
/* columns rows colors chars-per-pixel */
"80 80 128 2 ",
"   c #030101",
".  c #120C09",
"X  c #0E1001",
"o  c #181307",
"O  c #1B1514",
"+  c #000000",
"@  c #261F06",
"#  c #231D1B",
"$  c #231D1C",
"%  c #2A2204",
"&  c #372C04",
"*  c #3D3207",
"=  c #27221F",
"-  c #2D2C2B",
";  c #342E2B",
":  c #3C3431",
">  c #383635",
",  c #181616",
"<  c #0E0C0B",
"1  c #151312",
"2  c #171513",
"3  c #181715",
"4  c #463705",
"5  c #413D3C",
"6  c #4E4105",
"7  c #594604",
"8  c #644D02",
"9  c #6C5404",
"0  c #775C05",
"q  c #7E6000",
"w  c #06267D",
"e  c #494645",
"r  c #514D4C",
"t  c #54504F",
"y  c #585655",
"u  c #615E5E",
"i  c #696666",
"p  c #75716F",
"a  c #777575",
"s  c #000000",
"d  c #1C1B19",
"f  c #1E1C1A",
"g  c #020000",
"h  c #232021",
"j  c #AF2621",
"k  c #BB2721",
"l  c #CB221A",
"z  c #E0251B",
"x  c #FF251A",
"c  c #CA2C26",
"v  c #DB2D24",
"b  c #CA312B",
"n  c #DB322A",
"m  c #E62F25",
"M  c #FF2D22",
"N  c #FF3227",
"B  c #FD3D33",
"V  c #886904",
"C  c #9A7604",
"Z  c #A57E03",
"A  c #FD443A",
"S  c #FE4B43",
"D  c #FD5249",
"F  c #FE5D57",
"G  c #FE655D",
"H  c #CB6763",
"J  c #FE6A63",
"K  c #FE726A",
"L  c #FD7C76",
"P  c #A98306",
"I  c #B78C03",
"U  c #BC9404",
"Y  c #C99B05",
"T  c #D19F02",
"R  c #CDA006",
"E  c #D8A503",
"W  c #E4AC03",
"Q  c #E9B402",
"!  c #FBBD00",
"~  c #FFC600",
"^  c #FFD301",
"/  c #838181",
"(  c #FE837A",
")  c #001D8C",
"_  c #072D95",
"`  c #0B3196",
"'  c #193798",
"]  c #203986",
"[  c #27449E",
"{  c #2A47A3",
"}  c #8A8887",
"|  c #999797",
" . c #A1A09F",
".. c #AAA9A9",
"X. c #B1B0AF",
"o. c #ADB0BE",
"O. c #B7B6B6",
"+. c #FD8B85",
"@. c #FE938D",
"#. c #FE9A95",
"$. c #FFA19C",
"%. c #D9A5A3",
"&. c #C7B9B8",
"*. c #FEAAA6",
"=. c #FEB2AD",
"-. c #FFB9B5",
";. c #FFC2BE",
":. c #A4ACD4",
">. c #B0B6D9",
",. c #CCCCCC",
"<. c #DBCACA",
"1. c #CDD6D6",
"2. c #DADADA",
"3. c #FEC9C7",
"4. c #FED1CE",
"5. c #FED8D7",
"6. c #FEE2DE",
"7. c #D4D6E9",
"8. c #DCE6E7",
"9. c #DEE1F4",
"0. c #E9EAE9",
"q. c #FEEBEA",
"w. c #FDEFF1",
"e. c #EFF0F7",
"r. c #FEFEFE",
"t. c #000000",
"y. c #000000",
"u. c None",
/* pixels */
"u.u.u.u.u.u.u.u.u.u.u.u.u.u.u.u.u.u.u.u.u.u.u.u.u.u.u.u.u.u.u.u.u.u.u.u.u.u.u.u.u.u.u.u.u.u.u.u.u.u.u.u.u.u.u.u.u.u.u.u.u.u.u.u.u.u.u.u.u.u.u.u.u.u.u.u.u.u.u.u.",
"u.u.u.u.u.u.u.u.u.u.u.u.u.u.u.u.u.u.u.u.u.u.u.u.u.u.u.u.u.u.u.u.u.u.u.u.u.u.u.u.u.u.u.u.u.u.u.u.u.u.u.u.u.u.u.u.u.u.u.u.u.u.u.u.u.u.u.u.u.u.u.u.u.u.u.u.u.u.u.u.",
"u.u.u.u.u.u.u.u.u.u.u.u.u.u.u.u.u.u.u.u.u.u.u.u.u.u.u.u.u.u.u.u.u.u.u.u.u.u.u.u.u.u.u.u.u.u.u.u.u.u.u.u.u.u.u.u.u.u.u.u.u.u.u.u.u.u.u.u.u.u.u.u.u.u.u.u.u.u.u.u.",
"u.u.u.u.u.u.u.u.u.$ O . O O , .         $ $ O O O O , O O . X       . $ $ O O $ O 2 O O O # $ $ $ O # # # # - - ; ; ; ; : : ; ; ; = = $ O # d u.u.u.u.u.u.u.u.u.",
"u.u.u.u.u.u.u.u.u.$   . .   . 5 i p i e O + O 2 . . .   + # t a } i 5 . + . . . O O O # .   . . O $ O O # O . O O O . O O . . . O O O O 1 . , u.u.u.u.u.u.u.u.u.",
"u.u.u.u.u.u.u.u.u.$ . .   p 0.r.r.0.w.r.r...0.>   .   - X.r.r.e.0.r.r.2.i     $ 0.r.e.w.<.#     i r.e.0.r.} > r.r.0.0.r.X.  . &.e.0.r.0.- . 2 u.u.u.u.u.u.u.u.u.",
"u.u.u.u.u.u.u.u.u.# .   t r.r.y . . . - a r.r.>     e w.r.2.>     O } r.r.}   o ; } r.r.r.7.- + # : 2.r.r # O > / r.r.r.5   . : e.r.p : o . 2 u.u.u.u.u.u.u.u.u.",
"u.u.u.u.u.u.u.u.u.= . + | r.0.e O o   + + - r.>   O 0.r.0.# + . .   + | r.r.e   + e r.w.r.r.0.; + + O.r.. + . + + } r.r.O.  + } r.a +     . d u.u.u.u.u.u.u.u.u.",
"u.u.u.u.u.u.u.u.u.- .   t r.r.r.e.2.,.X.| t - X + y r.r. .+ . .   . + : r.r.| + + r r.a | r.r.e.> + ,.w.$   . . . +  .r.r.} i r.| + . .   . h u.u.u.u.u.u.u.u.u.",
"u.u.u.u.u.u.u.u.u.# . .   y 2.r.r.r.r.r.r.r.,.O + a r.r.} + . .   .   # e.r...  + r r.p + | r.r.r.> ..r..       .     X.r.r.r.O.  .   . .   . u.u.u.u.u.u.u.u.u.",
"u.u.u.u.u.u.u.u.u.$     ; i   : y a } ..,.e.r. .+ y r.r...+ .     . + > r.r.| + + t r.a + + a r.r.e.0.e.O     .       . 2.r.0.O   .         h u.u.u.u.u.u.u.u.u.",
"u.u.u.u.u.u.u.u.u.$ .   t r.y + + + + + + ..r.&.+ . 2.r.0.- +     + + ..r.r.> + + > r.i + . + u r.r.r.0.O   .     .     O.r.1.      . .   . 1 u.u.u.u.u.u.u.u.u.",
"u.u.u.u.u.u.u.u.u.o . + r r.r...r - O - y 0.r.u + + > e.r.0.e . . - ..r.r.a + . > } r...5 O + + e r.r.e.O +       + - t 0.r.0.y - +       . d u.u.u.u.u.u.u.u.u.",
"u.u.u.u.u.u.u.u.u..   + e 0.} ,.r.r.r.r.r.2.u + . . + # | e.r.e.e.r.r.,.t + + O 1.0.1.0.0.- + . + ; ,.,.. +       + p w.2.2.1.e.u + .       d u.u.u.u.u.u.u.u.u.",
"u.u.u.u.u.u.u.u.u..   .   . + + . : e 5 -     . .       + O > y u e O + +     + +     + + + + +                           .     .     .   . d u.u.u.u.u.u.u.u.u.",
"u.u.u.u.u.u.u.u.u.1 1 1 1 < 1 1 < < < < < < 2 1 < 1 1 1 2 1 s + < < < < 1 < 1 1 < < < 1 < 1 1 1 1 1 1 < 1 1 < < 1 1 1 < < 1 1 1 1 1 < 1 1 1 h u.u.u.u.u.u.u.u.u.",
"u.u.u.u.u.u.u.u.u.u.u.u.u.u.u.u.u.u.u.u.u.u.u.u.u.u.u.u.u.u.u.u.u.u.u.u.u.u.u.u.u.u.u.u.u.u.u.u.u.u.u.u.u.u.u.u.u.u.u.u.u.u.u.u.u.u.u.u.u.u.u.u.u.u.u.u.u.u.u.u.",
"u.u.u.u.u.u.u.u.u.t.g g g g g g g g g g g g g g g g g g g g g g g g g g g g g g g g g g g g g g g g g g g g g g g g g g g g g g g g g g t.s y.u.u.u.u.u.u.u.u.u.",
"u.u.u.u.u.u.u.u.u.    .   + + + + + + + + + + + + + + + + + + + + + + + + + + + + + + + + + + + + +   + + + + + + + + + + + + + + + + + + +   u.u.u.u.u.u.u.u.u.",
"u.u.u.u.u.u.u.u.u.  - ,.,.,.,.,.,.,.,.1.H l b c c c c k c c c c c c c c c c c k c c c c c c c c c c c c c c c c c c c c c c c c c c c c j + s u.u.u.u.u.u.u.u.u.",
"u.u.u.u.u.u.u.u.u.  - e.e.e.e.e.r.r.r.q.B N N N N N N N N N N N N N N N N N N N N N N N N N N N N N N N N N N N N N N N N N N N N N N N m + s u.u.u.u.u.u.u.u.u.",
"u.u.u.u.u.u.u.u.u.  - e.e.e.e.e.r.r.r.+.x N N N N N N N N N N N N N N N N N N N N N N N N N N N N N N N N N N N N N N N N N N N N N N N v + s u.u.u.u.u.u.u.u.u.",
"u.u.u.u.u.u.u.u.u.  > e.e.e.e.e.r.r.r.D x N N N N N N N N N M N N N N N N N N N N N N B N N N N B N N N N N N N N N N N N N N N N N N N v + s u.u.u.u.u.u.u.u.u.",
"u.u.u.u.u.u.u.u.u.  > e.e.e.e.e.r.r.4.M N N N N N N N N N N N N N N N N N N N N N N N x x x x x x x x x N B N N N N N N N N N N N N N N v + s u.u.u.u.u.u.u.u.u.",
"u.u.u.u.u.u.u.u.u.  - e.e.e.e.e.r.r.*.x N N N N N N N N N N N N N N N N N N N M N x B G +.$.=.=.*.@.K A x x B N N N N N N N N N N N N N c + s u.u.u.u.u.u.u.u.u.",
"u.u.u.u.u.u.u.u.u.  > e.e.e.e.e.r.r.+.x N N N N N N N N N N N N N N N N N N N N x L q.r.r.r.r.r.r.r.r.r.;.G x N N N N N N N N N N N N N v + s u.u.u.u.u.u.u.u.u.",
"u.u.u.u.u.u.u.u.u.  > e.e.e.e.e.r.r.F x N N N N N N N N N N M N N N N N M N N x G r.r.r.r.r.r.r.r.r.r.r.r.r.@.x N N N N N N N N N N N N v + < u.u.u.u.u.u.u.u.u.",
"u.u.u.u.u.u.u.u.u.  > e.e.e.e.e.r.r.D x N N N N N N N N N N N N N N N N N N B x -.r.r.r.r.r.r.r.r.r.r.r.r.r.r.K x N N N N N N N N N N N v + s u.u.u.u.u.u.u.u.u.",
"u.u.u.u.u.u.u.u.u.  > e.e.e.e.e.r.r.A M N N N N N N N N N M N N N N N N N N N x 4.r.r.r.r.r.r.r.r.r.r.r.r.r.r.5.N N N N N N N N N N N N n   s u.u.u.u.u.u.u.u.u.",
"u.u.u.u.u.u.u.u.u.  > e.e.e.e.e.r.w.A M N N N N N N N N N N N N N N N N N N N x -.r.r.r.r.r.r.r.r.r.r.r.r.r.r.r.D x M M M M M N M N N N v   s u.u.u.u.u.u.u.u.u.",
"u.u.u.u.u.u.u.u.u.  - e.e.e.e.e.r.w.A M N N N N N N N N N N N N N M N N N M N M D r.r.r.r.r.r.r.r.r.r.r.r.r.r.r.L M A B B A B B B N B B n + s u.u.u.u.u.u.u.u.u.",
"u.u.u.u.u.u.u.u.u.  - e.e.e.e.e.r.r.D M N N N N N N N N N N N N N N N N N N N B x F w.r.r.r.r.r.r.r.r.r.r.r.r.r.w.q.q.q.0.w.q.w.q.q.q.w.<.+ s u.u.u.u.u.u.u.u.u.",
"u.u.u.u.u.u.u.u.u.  > e.e.e.e.e.r.r.F x N N N N N N N N N N N N N N M N N N N N N x A *.r.r.r.r.r.r.r.r.r.r.r.r.r.r.r.r.r.r.r.r.r.r.r.r.2.  s u.u.u.u.u.u.u.u.u.",
"u.u.u.u.u.u.u.u.u.  > e.e.e.e.e.r.r.K x N N N M M N N N N N N N N N N N N N N N N N M x S #.4.r.r.r.r.r.r.r.r.r.r.r.r.r.r.r.r.r.r.r.r.r.2.  s u.u.u.u.u.u.u.u.u.",
"u.u.u.u.u.u.u.u.u.  > e.e.e.e.e.r.r.@.x N N N N N N N N M N N N N N N N M N N N N N N N M x x D +.3.w.r.r.r.r.r.r.r.r.r.r.r.r.r.r.r.r.r.2.  s u.u.u.u.u.u.u.u.u.",
"u.u.u.u.u.u.u.u.u.  > e.e.e.e.e.r.r.3.M N N N N N N N N N N N N N N N N N N N N N N N N N N N M x x B G #.4.w.r.r.r.r.r.r.r.r.r.r.r.r.r.2.  s u.u.u.u.u.u.u.u.u.",
"u.u.u.u.u.u.u.u.u.+ - r.e.e.e.e.r.r.r.S M N N N N N N N N N N N N N N N N N N N N N N N N N N N N N M x x x A J #.4.w.r.r.r.r.r.r.r.r.r.2.  s u.u.u.u.u.u.u.u.u.",
"u.u.u.u.u.u.u.u.u.  - r.e.e.e.e.r.r.r.+.x N N N N N N N N N N M N N N N N N N N N N N N N N N N N N N N B N M x x M A K *.q.r.r.r.r.r.r.2.  s u.u.u.u.u.u.u.u.u.",
"u.u.u.u.u.u.u.u.u.  - r.e.e.e.e.r.r.r.6.N N N N N N N N N N N N N N N N N N N N N N N N N N N N N N N N N N N N N N N x x N G *.q.r.r.r.2.  s u.u.u.u.u.u.u.u.u.",
"u.u.u.u.u.u.u.u.u.  - r.e.e.e.e.r.r.r.r.+.x N N N N N M N N N N N N N N M N N N M N N N N N M N N N N N N N N N N N N N N N x x N K 4.r.8.  s u.u.u.u.u.u.u.u.u.",
"u.u.u.u.u.u.u.u.u.  - e.e.e.e.e.r.r.r.r.r.S M N N N N N N N N M M N N N N N N N N N N M N N N N N N N N N N N N N N N N N N N N N x x J %.+ s u.u.u.u.u.u.u.u.u.",
"u.u.u.u.u.u.u.u.u.  - e.e.e.e.e.r.r.r.r.r.4.M N N N N N N N N N N N N N N N N N N N N N N N N N N N N N N N N N N N N N N N N N N N N M v   s u.u.u.u.u.u.u.u.u.",
"u.u.u.u.u.u.u.u.u.  - r.e.e.e.e.r.r.r.r.r.r.=.x N N N N N N N N N N N N M N N N N N N N N N M N N N N N N N N N N N N N N N N N N N N N m   s u.u.u.u.u.u.u.u.u.",
"u.u.u.u.u.u.u.u.u.  - r.e.e.e.e.r.r.r.r.r.r.r.*.x N N N N N N N N N N N N N N N N N N N N N N N M N N M N N N N N N N N N N N N N N N N v   s u.u.u.u.u.u.u.u.u.",
"u.u.u.u.u.u.u.u.u.+ - r.r.r.r.r.r.r.r.r.r.r.r.r.-.B x N N N N N N M N N N N N N N N N N N N N N N N N N N N N M N N N N N N N N N N N N m   s u.u.u.u.u.u.u.u.u.",
"u.u.u.u.u.u.u.u.u.+ > r.r.r.r.r.r.r.r.r.r.r.r.r.r.q.F x N N N N N N N N N N N N N N N N M N N N N N N N N N N N N N N N N N N N N N N N v   s u.u.u.u.u.u.u.u.u.",
"u.u.u.u.u.u.u.u.u.+ : r.r.r.r.r.r.r.r.r.r.r.r.r.r.r.r.$.B x M N N N N N N N N N M N N N N N N N M N N N N N N N N N N N N M N N N N N N m   s u.u.u.u.u.u.u.u.u.",
"u.u.u.u.u.u.u.u.u.  - r.r.r.r.r.r.r.r.r.r.r.r.r.r.r.r.r.w.+.B x M N N N N N N N N N N N N N N N N N N N N N N N N M N N N N N N N N N N v   s u.u.u.u.u.u.u.u.u.",
"u.u.u.u.u.u.u.u.u.+ - r.r.r.r.r.r.r.r.r.r.r.r.r.r.r.r.r.r.r.q.#.A x x N N N N N N N N N N N N N N N N N N N N N N N N N N N N M N N N N v + s u.u.u.u.u.u.u.u.u.",
"u.u.u.u.u.u.u.u.u.+ - r.r.r.r.r.r.r.r.r.r.r.r.r.r.r.r.r.r.r.r.r.r.3.( A M x M N N N N N N N N N N N N N N N N N N N N N N N N N N N N N v   s u.u.u.u.u.u.u.u.u.",
"u.u.u.u.u.u.u.u.u.+ - r.r.r.r.r.r.r.r.r.r.r.r.r.r.r.r.r.r.r.r.r.r.r.r.w.3.L S x x x M N N N N N N N N N N N N N N N N N N N N N N N N N v   s u.u.u.u.u.u.u.u.u.",
"u.u.u.u.u.u.u.u.u.  > r.r.r.r.r.r.r.r.r.r.r.r.r.r.r.r.r.r.r.r.r.r.r.r.r.r.r.r.3.$.K A M x x M N N N N N N N N N N M N N N N N N N N N N m   s u.u.u.u.u.u.u.u.u.",
"u.u.u.u.u.u.u.u.u.  - r.r.r.r.r.r.r.r.r.r.r.r.r.r.r.r.r.r.r.r.r.r.r.r.r.r.r.r.r.r.r.w.4.#.J A M x x M N N N N N N N N N N N M N N N N N m   s u.u.u.u.u.u.u.u.u.",
"u.u.u.u.u.u.u.u.u.  - r.r.r.r.r.r.r.r.r.r.r.r.r.r.r.r.r.r.r.r.r.r.r.r.r.r.r.r.r.r.r.r.r.r.r.w.4.#.J N x x N N N N N N N N N N N N N N N v   s u.u.u.u.u.u.u.u.u.",
"u.u.u.u.u.u.u.u.u.  - r.r.r.r.r.r.r.r.r.r.r.r.r.r.r.r.r.r.r.r.r.r.r.r.r.r.r.r.r.r.r.r.r.r.r.r.r.r.r.q.$.J N x M N N N N N N N N N N N N v   s u.u.u.u.u.u.u.u.u.",
"u.u.u.u.u.u.u.u.u.  : r.r.r.r.r.r.r.>.:.:.:.:.:.:.:.:.:.:.:.:.:.:.:.:.:.:.:.:.:.e.r.r.r.r.r.r.r.r.r.r.r.r.6.#.B x N M N N N N N N N N N m   s u.u.u.u.u.u.u.u.u.",
"u.u.u.u.u.u.u.u.u.+ - r.r.r.r.r.r.r.' ) ) ) ) ) ) ) ) ) ) ) ) ) ) ) ) ) ) ) ) ) 7.r.r.r.r.r.r.r.r.r.r.r.r.r.r.w.J x N N N N N N N N N N v + s u.u.u.u.u.u.u.u.u.",
"u.u.u.u.u.u.u.u.u.+ - r.r.r.r.r.r.e.{ _ ` _ ` ` ` ` ` _ ` ` ` ` ` ` ` ` ` ` ` _ 7.r.r.r.r.r.r.r.r.r.r.r.r.r.r.r.r.G x N N N N N N N N N n + s u.u.u.u.u.u.u.u.u.",
"u.u.u.u.u.u.u.u.u.+ - r.r.r.r.r.r.r.' _ _ _ _ _ _ _ _ _ _ ` _ _ _ _ _ _ _ ` _ ) 7.r.r.r.r.r.r.r.r.r.r.r.r.r.r.r.r.5.N N N N N N N N N N m   s u.u.u.u.u.u.u.u.u.",
"u.u.u.u.u.u.u.u.u.+ > r.r.r.r.r.r.r.[ _ _ _ _ _ _ _ _ _ _ ` _ ` _ _ _ _ _ _ _ _ 7.r.r.r.r.r.r.r.r.r.r.r.r.r.r.r.r.r.A N N N N N N N N N v   s u.u.u.u.u.u.u.u.u.",
"u.u.u.u.u.u.u.u.u.+ ; r.r.r.r.r.r.r.{ _ ` ` _ _ _ ` ` _ ` _ _ ` ` ` ` ` _ ` ` _ 9.r.r.r.r.r.r.r.r.r.r.r.r.r.r.r.r.r.A M N N N N N N N N m   s u.u.u.u.u.u.u.u.u.",
"u.u.u.u.u.u.u.u.u.  - 2.,.,.1.,.1.,.] w _ w ) w w w w w w w ) w w w ) w w w w w o.2.,.1.,.,.1.,.,.,.1.,.,.1.,.,.1.&.v v c v v v v v c n k   s u.u.u.u.u.u.u.u.u.",
"u.u.u.u.u.u.u.u.u.+ + + + + + + + + + + + + + +         + + + + + + + + + + + + + + + + + + + + + +   + + + + + + + +   +           + + + + s u.u.u.u.u.u.u.u.u.",
"u.u.u.u.u.u.u.u.u.+ + + +     + + + +   X o X X + + +     + + + + + + + + + + +     + +   + + + +   + + + + + + + + + + + + + + + +   + + + s u.u.u.u.u.u.u.u.u.",
"u.u.u.u.u.u.u.u.u.+ + + + +   . 6 C Y E W Q Q W R P q %           + . Y E T T E T T E 4 +   + + + + < P R Y R R R T Y R R Y I C 8   +   + + < u.u.u.u.u.u.u.u.u.",
"u.u.u.u.u.u.u.u.u.+ + + + + 9 W ~ ^ ~ ~ ~ ^ ^ ~ ~ ~ ^ *           + P ^ ~ ~ ~ ~ ~ ~ ~ Q . +   + + +   R ^ ~ ~ ~ ~ ~ ^ ^ ~ ~ ^ ~ ^ Q 4 +   + s u.u.u.u.u.u.u.u.u.",
"u.u.u.u.u.u.u.u.u.      + 0 ^ ~ ! ! ! ~ Y C Z Y Q ^ 9     +       7 ^ ! ! ! ! ~ ! ! ! ^ Z     +   + + R ~ ! ! ! ~ E 0 C W ! ! ! ! ~ R + + + s u.u.u.u.u.u.u.u.u.",
"u.u.u.u.u.u.u.u.u.+ +   + E ~ ! ! ! ! ~ Z 4 * @ & * <   + + + + . Q ~ ! ! ~ Q T ~ ! ! ! ^ 7 +   + + + R ~ ! ! ! ~ I   o Y ~ ! ! ! ^ P +   + s u.u.u.u.u.u.u.u.u.",
"u.u.u.u.u.u.u.u.u.        V ^ ~ ~ ! ! ! ~ ^ ~ ~ W I V   +       P ~ ! ! ! ^ C 4 ^ ! ! ! ~ ! @ +     < R ~ ! ~ ! ~ ! ~ ~ ~ ! ! ! Q V + + + + < u.u.u.u.u.u.u.u.u.",
"u.u.u.u.u.u.u.u.u.          7 Y Q ~ ^ ^ ~ ! ! ! ~ ~ ^ Y     + 9 ^ ! ~ ! ~ ~ % < T ~ ! ~ ! ~ I +       R ~ ! ! ! ! ! ! ! ~ ~ ! ! ! I 6 + + + < u.u.u.u.u.u.u.u.u.",
"u.u.u.u.u.u.u.u.u.          * 4 @ @ 4 4 V ! ! ! ! ! Q ^ 4 + o ! ! ! ! ! ! Q C V Y ~ ! ! ! ! ^ 0     + R ~ ! ~ ! ~ I + X % W ~ ! ! ~ ^ q +   s u.u.u.u.u.u.u.u.u.",
"u.u.u.u.u.u.u.u.u.        % ~ ~ E Z 0 0 C ! ! ! ! ! ~ ! o   I ~ ! ! ~ ! ~ ~ ^ ^ ~ ~ ! ! ! ! ! ! @   + Y ~ ! ! ! ~ T 6 7 V Q ! ! ! ! ~ Y + + s u.u.u.u.u.u.u.u.u.",
"u.u.u.u.u.u.u.u.u.+ + + o ! ^ ~ ~ ^ ^ ^ ^ ! ~ ~ ~ ^ W 4   9 ^ ! ~ ~ ! ~ Q Y Y Y Y R ~ ~ ! ~ ~ ~ Y     R ~ ~ ! ~ ~ ~ ^ ^ ^ ~ ! ~ ~ ^ ! & + + < u.u.u.u.u.u.u.u.u.",
"u.u.u.u.u.u.u.u.u.  + + % V P E Q Q ! ~ ~ ! ! E P 7   + @ W Q Q Q Q Q ! 4         + U ! Q Q Q Q ~ 0   Y ! Q Q Q Q Q Q Q Q Q Q W I q o + + + < u.u.u.u.u.u.u.u.u.",
"u.u.u.u.u.u.u.u.u.+ + + + + + + . o % & & @ o   + + +   X o X X X X X .       +       X . X X X . X   . X X X X X X X X X X X   + + + + + + < u.u.u.u.u.u.u.u.u.",
"u.u.u.u.u.u.u.u.u.+ + +       +     + + + + + +     + + + + +   + + + +         +   + + + + + + + + + + + + + + + + + + +     +     + + + + s u.u.u.u.u.u.u.u.u.",
"u.u.u.u.u.u.u.u.u.+ + + + + + +   +         + + + + + + + + + + + + +   + + + + + + + +   + +   + + + + +       + + + + +   + + + + + + + + < u.u.u.u.u.u.u.u.u.",
"u.u.u.u.u.u.u.u.u.u.u.u.u.u.u.u.u.u.u.u.u.u.u.u.u.u.u.u.u.u.u.u.u.u.u.u.u.u.u.u.u.u.u.u.u.u.u.u.u.u.u.u.u.u.u.u.u.u.u.u.u.u.u.u.u.u.u.u.u.u.u.u.u.u.u.u.u.u.u.u.",
"u.u.u.u.u.u.u.u.u.u.u.u.u.u.u.u.u.u.u.u.u.u.u.u.u.u.u.u.u.u.u.u.u.u.u.u.u.u.u.u.u.u.u.u.u.u.u.u.u.u.u.u.u.u.u.u.u.u.u.u.u.u.u.u.u.u.u.u.u.u.u.u.u.u.u.u.u.u.u.u.",
"u.u.u.u.u.u.u.u.u.u.u.u.u.u.u.u.u.u.u.u.u.u.u.u.u.u.u.u.u.u.u.u.u.u.u.u.u.u.u.u.u.u.u.u.u.u.u.u.u.u.u.u.u.u.u.u.u.u.u.u.u.u.u.u.u.u.u.u.u.u.u.u.u.u.u.u.u.u.u.u."
};
