/* XPM */
static char *xpm_[] = {
/* columns rows colors chars-per-pixel */
"80 80 185 2 ",
"   c #070607",
".  c #0E1116",
"X  c #131315",
"o  c #22262C",
"O  c #292E37",
"+  c #2E343A",
"@  c #2E3B49",
"#  c #3B414B",
"$  c #3F5063",
"%  c #405063",
"&  c #35699B",
"*  c #35699B",
"=  c #434B55",
"-  c #475460",
";  c #465A71",
":  c #606877",
">  c #4E657E",
",  c #586172",
"<  c #728093",
"1  c #35699B",
"2  c #35699B",
"3  c #35699B",
"4  c #35699B",
"5  c #35699B",
"6  c #4C749B",
"7  c #73A1D2",
"8  c #627E9B",
"9  c #6D8FB1",
"0  c #7B97B6",
"q  c #7B9ABA",
"w  c #7099C3",
"e  c #87A8CB",
"r  c #7AA7D8",
"t  c #7EA3CB",
"y  c #93B1D1",
"u  c #88B0D8",
"i  c #9EBEDF",
"p  c #356597",
"a  c #35699B",
"s  c #35699B",
"d  c #5E7288",
"f  c #4977A7",
"g  c #5A86B3",
"h  c #6B7B8E",
"j  c #4379B2",
"k  c #5F8FC1",
"l  c #6C92BA",
"z  c #6C96C2",
"x  c #739ECA",
"c  c #7DA1C6",
"v  c #7EA7D3",
"b  c #6E9CCD",
"n  c #85ABD4",
"m  c #8BADD2",
"M  c #83B0E0",
"N  c #88ABCF",
"B  c #93B0CE",
"V  c #91B4D8",
"C  c #90B3D8",
"Z  c #91BCE8",
"A  c #A2C0DE",
"S  c #AFCCE8",
"D  c #C0D1E1",
"F  c #7B92AD",
"G  c #7B8B9D",
"H  c #6390C0",
"J  c #6384A6",
"K  c #798DA5",
"L  c #7E95AF",
"P  c #638EBB",
"I  c #6A98C9",
"U  c #709DCD",
"Y  c #75A2D2",
"T  c #83A7CC",
"R  c #8FB0D1",
"E  c #7097C2",
"W  c #75A3D4",
"Q  c #7DA4CC",
"!  c #84AFDD",
"~  c #7DA6D2",
"^  c #8FB4D9",
"/  c #85AAD2",
"(  c #8ABAEC",
")  c #93BEEA",
"_  c #598DC7",
"`  c #5D91C8",
"'  c #6F9BCC",
"]  c #719DCB",
"[  c #77A7DA",
"{  c #88B2DD",
"}  c #699FD8",
"|  c #80A9D4",
" . c #6EA1D8",
".. c #77A7D9",
"X. c #8AB5E2",
"o. c #85B4E5",
"O. c #78ACE2",
"+. c #7CB1E8",
"@. c #90BEEE",
"#. c #90BDEB",
"$. c #8DBFF2",
"%. c #96B9DE",
"&. c #8FB6DE",
"*. c #9BC7F4",
"=. c #828E9F",
"-. c #84A0BE",
";. c #96B3D1",
":. c #A4C4E4",
">. c #C5DAEF",
",. c #85ABD4",
"<. c #8AB5E1",
"1. c #9CBBDC",
"2. c #96BCE3",
"3. c #92B7DE",
"4. c #82B0E2",
"5. c #88B8EB",
"6. c #95BFEB",
"7. c #8ABCF2",
"8. c #92C0F3",
"9. c #99C5F1",
"0. c #A1C5EA",
"q. c #98C3EF",
"w. c #8FC1F5",
"e. c #96C6F8",
"r. c #A2C9F0",
"t. c #AED3F6",
"y. c #B4DAFC",
"u. c #BCE2FF",
"i. c #C0D6EC",
"p. c #C2DFF9",
"a. c #CAE4FB",
"s. c #E4F1FD",
"d. c #E8F4FD",
"f. c #E9F3FD",
"g. c #B4D3F1",
"h. c #35699B",
"j. c #34689A",
"k. c #35699B",
"l. c #7292B5",
"z. c #7998B9",
"x. c #A2B1BF",
"c. c #7C99B7",
"v. c #85A3C1",
"b. c #9CB7D1",
"n. c #A6AEB5",
"m. c #35699B",
"M. c #7795B6",
"N. c #81A3C6",
"B. c #6092C6",
"V. c #7DA4CC",
"C. c #9DB8D4",
"Z. c #95BBE2",
"A. c #A4BFDB",
"S. c #7B9DC1",
"D. c #8DA8C5",
"F. c #92B7DC",
"G. c #749FCC",
"H. c #89B0D9",
"J. c #8DBEF0",
"K. c #A0C2E5",
"L. c #9AC0E7",
"P. c #86A6C7",
"I. c #A8BDD3",
"U. c #9FBDDC",
"Y. c #A2C6EA",
"T. c #95B5D6",
"R. c #B6CCE1",
"E. c #96BFEA",
"W. c #9BC3EC",
"Q. c #B3CBE4",
"!. c #060504",
"~. c #5D82AA",
"^. c #A5B4C2",
"/. c #9EC0E1",
"(. c #778FA9",
"). c #95AFCA",
"_. c #7CA6D1",
"`. c #A6C6E6",
"'. c #9FB8D4",
"]. c #93B8DE",
"[. c #798B9F",
"{. c #7A9BBA",
"}. c #8CA9C8",
"|. c #AFC4DA",
" X c None",
/* pixels */
" X X X X X X X X X X X X X X X X X X X X X X X X X X X X X X X X X X X X X X X X X X X X X X X X X X X X X X X X X X X X X X X X X X X X X X X X X X X X X X X X",
" X X X X X X X X X X X X X X X X X X X X X X X X X X X X X X X X X X X X X X X X X X X X X X X X X X X X X X X X X X X X X X X X X X X X X X X X X X X X X X X X",
" X X X X X X X X X X X X X X X X X X X X X X X X X X X X X X X X X X X X X X X X X X X X X X X X X X X X X X X X X X X X X X X X X X X X X X X X X X X X X X X X",
" X X X X X X X X X X X X X X X X X X X X X X X X X X X X X X X X X X X X X X X X X X X X X X X X X X X X X X X X X X X X X X X X X X X X X X X X X X X X X X X X",
" X X X X X X X X X X X X X X X X X X X X X X X X X X X X X X X X X X X X X X X X X X X X X X X X X X X X X X X X X X X X X X X X X X X X X X X X X X X X X X X X",
" X X X X X X X X X X X X X X X X X X X X X X X X X X X X X X X X X X X X X X X X X X X X X X X X X X X X X X X X X X X X X X X X X X X X X X X X X X X X X X X X",
" X X X X X X X X X X X X X X X X X X X X X X X X X X X X X X X X X X X X X X X X X X X X X X X X X X X X X X X X X X X X X X X X X X X X X X X X X X X X X X X X",
" X X X X X X X X X X X X X X X X X X X X X X X X X X X X X X X X X X X X X X X X X X X X X X X X X X X X X X X X X X X X X X X X X X X X X X X X X X X X X X X X",
" X X X X X X X X X X X X X X X X X X X X X X X X X X X X X X X X X X X X X X X X X X X X X X X X X X X X X X X X X X X X X X X X X X X X X X X X X X X X X X X X",
" X X X X X X X X X X X X X X X X X X X X X X X X X X X X X X X X X X X X X X X X X X X X X X X X X X X X X X X X X X X X X X X X X X X X X X X X X X X X X X X X",
" X X X X X X X X X X X X X X X X X X X X X X X X X X X X X X X X X X X X X X X X X X X X X X X X X X X X X X X X X X X X X X X X X X X X X X X X X X X X X X X X",
" X X X X X X X X X X X X X X X X X X X X X X X X X X X X X X X X X X X X X X X X X X X X X X X X X X X X X X X X X X X X X X X X X X X X X X X X X X X X X X X X",
" X X X X X X X X X X X X X X X X X X X X X X X X X X X X X X X X X X X X X X X X X X X X X X X X X X X X X X X X X X X X X X X X X X X X X X X X X X X X X X X X",
" X X X X X X X X X X X X X X X X X X X X X X X X X X X X X X X X X X X X X X X X X X X X X X X X X X X X X X X X X X X X X X X X X X X X X X X X X X X X X X X X",
" X X X X X X X X X X X X X X X X X X X X X X X X X X X X X X X X X X X X X X X X X X X X X X X X X X X X X X X X X X X X X X X X X X X X X X X X X X X X X X X X",
" X X X X X X X X X X X X X X X X X X X X X X X X X X X X X X X X X X X X X X X X X X X X X X X X X X X X X X X X X X X X X X X X X X X X X X X X X X X X X X X X",
" X X X X X X X X X X X X X X X X X X X X X X X X X X X X X X X X X X X X X X X X X X X X X X X X X X X X X X X X X X X X X X X X X X X X X X X X X X X X X X X X",
" X X X X X X X X X X X X X X X X X X X X X X X X X X X X X X X X X X X X X X X X X X X X X X X X X X X X X X X X X X X X X X X X X X X X X X X X X X X X X X X X",
" X X X X X X X X X X X X X X X X X X X X X X X X X X X X X X X X X X X X X X X X X X X X X X X X X X X X X X X X X X X X X X X X X X X X X X X X X X X X X X X X",
" X X X X X X X X X X X X X X X X X X X X X X X X X X X X X X X X X X X X X X X X X X X X X X X X X X X X X X X X X X X X X X X X X X X X X X X X X X X X X X X X",
" X X X X X X X X X X X X X X X X X X X X X X X X X X X X X X X X X X X X X X X X X X X X X X X X X X X X X X X X X X X X X X X X X X X X X X X X X X X X X X X X",
" X X X X X X X X X X X X X X X X X X X X X X X X X X X X X X X X X X X X X X X X X X X X X X X X X X X X X X X X X X X X X X X X X X X X X X X X X X X X X X X X",
" X X X X X X X X X X X X X X X X X X X X X X X X X X X X X X X X X X X X X X X X X X X X X X X X X X X X X X X X X X X X X X X X X X X X X X X X X X X X X X X X",
" X X X X X X X X X X X X X X X X X X X X X X X X X X X X X X X X X X X X X X X X X X X X X X X X X X X X X X X X X X X X X X X X X X X X X X X X X X X X X X X X",
" X X X X X X X X X X X X X X X X X X X X X X X X X X X X X X X X X X X X X X X X X X X X X X X X X X X X X X X X X X X X X X X X X X X X X X X X X X X X X X X X",
" X X X X X X X X X X X X X X X X X X X X X X X X X X X X X X X X X X X X X X X X X X X X X X X X X X X X X X X X X X X X X X X X X X X X X X X X X X X X X X X X",
" X X X X X X X X X X X X X X X X X X X X X X X X X X X X X X X X X X X X X X X X X X X X X X X X X X X X X X X X X X X X X X X X X X X X X X X X X X X X X X X X",
" X X X X X X X X X X X X X X X X X X X X X X X X X X X X X X X X X X X X X X X X X X X X X X X X X X X X X X X X X X X X X X X X X X X X X X X X X X X X X X X X",
" X X X X X X X X X X X X X X X X X X X X X X X X X X X X X X X X X X X X X X X X X X X X X X X X X X X X X X X X X X X X X X X X X X X X X X X X X X X X X X X X",
" X X X X X X X X X X X X X X X X X X X X X X X X X X X X X X X X X X X X X X X X X X X X X X X X X X X X X X X X X X X X X X X X X X X X X X X X X X X X X X X X",
" X X X X X X X X X X X X X X X X X X X X X X X X X X X X X X X X X X X X X X X X X X X X X X X X X X X X X X X X X X X X X X X X X X X X X X X X X X X X X X X X",
" X X X X X X X X X X X X X X X X X X X X X X X X X X X X X X X X X X X X X X X X X X X X X X X X X X X X X X X X X X X X X X X X X X X X X X X X X X X X X X X X",
" X X X X X X X X X X X X X X X X X X X X X X X X X X X X X X X X X X X X X X X X X X X X X X X X X X X X X X X X X X X X X X X X X X X X X X X X X X X X X X X X",
" X X X X X X X X X X X X X X X X X X X X X X X X X X X X X X X X X X X X X X X X X X X X X X X X X X X X X X X X X X X X X X X X X X X X X X X X X X X X X X X X",
" X X X X X X X X X X X X X X X X X X X X X X!.!. X X X X X X X X X X X X X X X X   X X X X!. X X X X X X X X X X X X X X X X X X X X X X X X X X X X X X X X X X",
" X X Xb _ J _ J #.J 2.=.S =. X X X=.q.w.j. X].e...b  XK. .!. X%.e z m. X5 /  X X_.e.V. X~.e.B.!.].[  .E !.I ]. XK.E e F [.[ U U P.   X X X X X X X X X X X X X X",
" X X X' O.+.7.7.w.r.g.g.i.s.!. XF 1.}.S z./.y.l.}.q.b D.q.F  X[ K.K.4.V.,.V. X XV.u. .!.K.1.b [.y.].).u.F ].O. XH g F H |.5.K.j.j. X X X X!. X X X!. X X!. X X X",
" X X X' O.7.7.w.e.K , a.f.f.   X X=.i.1. XF +. X Xe o.K.q.q.F _ K. X*.4.b  X X X/.,.e._.6.0.> 6 t    XN.e.}.y.`.9.{.].r K.e.J Q r  X X X X X X X X X!.2 _  X X X",
" X X X[ +.7.e.e.;.O K a.f.f.   XC.^. XS u.F q.!.!.%.*.6 [ !.y.u.K.!.V.q./. X X XF H F y.N *.M F 3. X XK 2. XI e.@. XF E {.e.}.}. X X X X~.k. X X Xm.+.j j  X X X",
" X X X] 7.e.e.6.# O :.u.f.>. X XR.1.=.>.A  X&.q.-.q.`.W.q. XU.d._.!.m.y.!. X X X].,.!.a.).N :. X^ 3.r.r.{.!.].u.L. X%.0.K.e.,.2.B.   X!.5 _ !.!. XB.1 W a  X X X",
" X X X' 7.7.e.d X O , u.y.r.!. X!.  :  X X X X# v.!. X|.v.!. X'.[. X!.~. X!. X X  .  X!.!.[.~. X Xb.F. X X X  v.~.[.).).  ).b.K./.!.~.K.s a j.j. X X X5 a  X X X",
" X X XW O.7.4.+ X o o G y.u.!. X X[.n.^.I. X X XB !. XZ.E. X!. X!.-.l. X!. X!.0. X XR.|. X X`.r. X XA  X X X{.^ C &.{. X XY.). X X Xs _ a a a a !. X X5 a  X X X",
" X X XU  .+.J   X   . . $ F !. XD  X X  D  X X X:.{.!.L.R  X!. X{.0.!  X X X Xi.i. X< v. X X/.d.R  XF  X X XJ.].   X X X X>.D. X!. X!. X1 j  X X X X X5 a  X X X",
" X X Xf _ } ;   X = f % X   !.!.>.   X X X!. X!.! K y &.Q. X X X_ F u.|. X X!.m x.D Q.Z. X  V.i A F.K |. X XF 9.).q  X X X>.C. X X X X Xo 2  X X X X X$ a  X X X",
" X X Xs j _ @ . [ +.+.+.t.D }. XS I. X  >. X X X3.!. XF S  X  '.i z.C N  X X XN  XI.i.|. X XN.%. X= R. X X XN |. X X X X Xg.).   X X X X X X X X X X X~.1  X X X",
" X X X5 f k o # W J W H w.x.   X XS i >.o  X X!.g.[. Xb.R. X XS |.!. XN [. X  N  X!.;.^. X X'.0  X. >. X X XH.) n ! |. X XB m |.s !. X X X X X X X X!.!. X X X X",
" X X X X X X X X X X X X X X X X X X X X X X X X X X X X!. X X X!. X X X!. X X X X!.!.!. X X X X X X X X X X X X X X X X X X X X X X X X X X X X X X X X X X X X",
" X X X X X X X X X X X X X X X X X X X X X X X X X X X X X X X X X X X X X X X X X!.!.!. X X X X X X X X X X X X X X X X X X X X X X X X X X X X X X X X X X X X",
" X X X X X X X X X X X X X X X X X X X X X X X X X X X X X X X X X X X X X X X X X X X X X X X X X X X X X X X X X X X X X X X X X X X X X X X X X X X X X X X X",
" X X X X X X X X X X X X X X X X X X X X X X X X X X X X X X X X X X X X X X X X X X X X X X X X X X X X X X X X X X X X X X X X X X X X X X X X X X X X X X X X",
" X X X X X X X X X X X X X X X X X X X X X X X X X X X X X X X X X X X X X X X X X X X X X X X X X X X X X X X X X X X X X X X X X X X X X X X X X X X X X X X X",
" X X X X X X X X X X X X X X X X X X X X X X X X X X X X X X X X X X X X X X X X X X X X X X X X X X X X X X X X X X X X X X X X X X X X X X X X X X X X X X X X",
" X X X X X X X X X X X X X X X X X X X X X X X X X X X X X X X X X X X X X X X X X X X X X X X X X X X X X X X X X X X X X X X X X X X X X X X X X X X X X X X X",
" X X X X X X X X X X X X X X X X X X X X X X X X X X X X X X X X X X X X X X X X X X X X X X X X X X X X X X X X X X X X X X X X X X X X X X X X X X X X X X X X",
" X X X X X X X X X X X X X X X X X X X X X X X X X X X X X X X X X X X X X X X X X X X X X X X X X X X X X X X X X X X X X X X X X X X X X X X X X X X X X X X X",
" X X X X X X X X X X X X X X X X X X X X X X X X X X X X X X X X X X X X X X X X X X X X X X X X X X X X X X X X X X X X X X X X X X X X X X X X X X X X X X X X",
" X X X X X X X X X X X X X X X X X X X X X X X X X X X X X X X X X X X X X X X X X X X X X X X X X X X X X X X X X X X X X X X X X X X X X X X X X X X X X X X X",
" X X X X X X X X X X X X X X X X X X X X X X X X X X X X X X X X X X X X X X X X X X X X X X X X X X X X X X X X X X X X X X X X X X X X X X X X X X X X X X X X",
" X X X X X X X X X X X X X X X X X X X X X X X X X X X X X X X X X X X X X X X X X X X X X X X X X X X X X X X X X X X X X X X X X X X X X X X X X X X X X X X X",
" X X X X X X X X X X X X X X X X X X X X X X X X X X X X X X X X X X X X X X X X X X X X X X X X X X X X X X X X X X X X X X X X X X X X X X X X X X X X X X X X",
" X X X X X X X X X X X X X X X X X X X X X X X X X X X X X X X X X X X X X X X X X X X X X X X X X X X X X X X X X X X X X X X X X X X X X X X X X X X X X X X X",
" X X X X X X X X X X X X X X X X X X X X X X X X X X X X X X X X X X X X X X X X X X X X X X X X X X X X X X X X X X X X X X X X X X X X X X X X X X X X X X X X",
" X X X X X X X X X X X X X X X X X X X X X X X X X X X X X X X X X X X X X X X X X X X X X X X X X X X X X X X X X X X X X X X X X X X X X X X X X X X X X X X X",
" X X X X X X X X X X X X X X X X X X X X X X X X X X X X X X X X X X X X X X X X X X X X X X X X X X X X X X X X X X X X X X X X X X X X X X X X X X X X X X X X",
" X X X X X X X X X X X X X X X X X X X X X X X X X X X X X X X X X X X X X X X X X X X X X X X X X X X X X X X X X X X X X X X X X X X X X X X X X X X X X X X X",
" X X X X X X X X X X X X X X X X X X X X X X X X X X X X X X X X X X X X X X X X X X X X X X X X X X X X X X X X X X X X X X X X X X X X X X X X X X X X X X X X",
" X X X X X X X X X X X X X X X X X X X X X X X X X X X X X X X X X X X X X X X X X X X X X X X X X X X X X X X X X X X X X X X X X X X X X X X X X X X X X X X X",
" X X X X X X X X X X X X X X X X X X X X X X X X X X X X X X X X X X X X X X X X X X X X X X X X X X X X X X X X X X X X X X X X X X X X X X X X X X X X X X X X",
" X X X X X X X X X X X X X X X X X X X X X X X X X X X X X X X X X X X X X X X X X X X X X X X X X X X X X X X X X X X X X X X X X X X X X X X X X X X X X X X X",
" X X X X X X X X X X X X X X X X X X X X X X X X X X X X X X X X X X X X X X X X X X X X X X X X X X X X X X X X X X X X X X X X X X X X X X X X X X X X X X X X",
" X X X X X X X X X X X X X X X X X X X X X X X X X X X X X X X X X X X X X X X X X X X X X X X X X X X X X X X X X X X X X X X X X X X X X X X X X X X X X X X X",
" X X X X X X X X X X X X X X X X X X X X X X X X X X X X X X X X X X X X X X X X X X X X X X X X X X X X X X X X X X X X X X X X X X X X X X X X X X X X X X X X",
" X X X X X X X X X X X X X X X X X X X X X X X X X X X X X X X X X X X X X X X X X X X X X X X X X X X X X X X X X X X X X X X X X X X X X X X X X X X X X X X X",
" X X X X X X X X X X X X X X X X X X X X X X X X X X X X X X X X X X X X X X X X X X X X X X X X X X X X X X X X X X X X X X X X X X X X X X X X X X X X X X X X",
" X X X X X X X X X X X X X X X X X X X X X X X X X X X X X X X X X X X X X X X X X X X X X X X X X X X X X X X X X X X X X X X X X X X X X X X X X X X X X X X X",
" X X X X X X X X X X X X X X X X X X X X X X X X X X X X X X X X X X X X X X X X X X X X X X X X X X X X X X X X X X X X X X X X X X X X X X X X X X X X X X X X",
" X X X X X X X X X X X X X X X X X X X X X X X X X X X X X X X X X X X X X X X X X X X X X X X X X X X X X X X X X X X X X X X X X X X X X X X X X X X X X X X X",
" X X X X X X X X X X X X X X X X X X X X X X X X X X X X X X X X X X X X X X X X X X X X X X X X X X X X X X X X X X X X X X X X X X X X X X X X X X X X X X X X",
" X X X X X X X X X X X X X X X X X X X X X X X X X X X X X X X X X X X X X X X X X X X X X X X X X X X X X X X X X X X X X X X X X X X X X X X X X X X X X X X X",
" X X X X X X X X X X X X X X X X X X X X X X X X X X X X X X X X X X X X X X X X X X X X X X X X X X X X X X X X X X X X X X X X X X X X X X X X X X X X X X X X"
};
