/* XPM */
static char *xpm_[] = {
/* columns rows colors chars-per-pixel */
"80 80 232 2 ",
"   c #130906",
".  c #140E0B",
"X  c #351407",
"o  c #2D2117",
"O  c #461708",
"+  c #512912",
"@  c #6D3916",
"#  c #663323",
"$  c #57362E",
"%  c #584625",
"&  c #734E2D",
"*  c #746738",
"=  c #715E51",
"-  c #705D48",
";  c #7B6855",
":  c #786B4B",
">  c #495D6E",
",  c #4C6174",
"<  c #747E79",
"1  c #6A7470",
"2  c #4E5A5D",
"3  c #8A3B26",
"4  c #983C25",
"5  c #913F1B",
"6  c #8B4519",
"7  c #9A6E13",
"8  c #996F17",
"9  c #A5791A",
"0  c #A76F0F",
"q  c #994529",
"w  c #99552A",
"e  c #9D4932",
"r  c #91522E",
"t  c #A54D28",
"y  c #A7552A",
"u  c #A34B31",
"i  c #A85835",
"p  c #B25A33",
"a  c #986539",
"s  c #926A31",
"d  c #A8662A",
"f  c #AA6536",
"g  c #B26739",
"h  c #B87639",
"j  c #A9762D",
"k  c #C87C39",
"l  c #996B47",
"z  c #86765C",
"x  c #97755A",
"c  c #8C6C43",
"v  c #B86A42",
"b  c #BA7944",
"n  c #A5774D",
"m  c #887866",
"M  c #907B64",
"N  c #A85940",
"B  c #C37F46",
"V  c #748478",
"C  c #AA8427",
"Z  c #B58D2C",
"A  c #A78836",
"S  c #B78739",
"D  c #B7963C",
"F  c #A98E2A",
"G  c #C5853B",
"H  c #C69D37",
"J  c #D1AB36",
"K  c #C49813",
"L  c #938550",
"P  c #B88649",
"I  c #B79C46",
"U  c #AC934B",
"Y  c #B5A349",
"T  c #B8A855",
"R  c #B4AC57",
"E  c #8A8876",
"W  c #95937B",
"Q  c #908970",
"!  c #B8B779",
"~  c #B3AA6E",
"^  c #A69C65",
"/  c #CB8848",
"(  c #CD924F",
")  c #C7A649",
"_  c #C7B659",
"`  c #D8B859",
"'  c #CAAC50",
"]  c #C8B866",
"[  c #D5BA67",
"{  c #C5B171",
"}  c #E1BE62",
"|  c #E0BB52",
" . c #B8C47D",
".. c #E6C756",
"X. c #D8C675",
"o. c #D0CB73",
"O. c #E7CD73",
"+. c #F0C43C",
"@. c #4F6788",
"#. c #5D7FA9",
"$. c #1D3EEC",
"%. c #1F45EE",
"&. c #1D43F1",
"*. c #244AED",
"=. c #2957ED",
"-. c #355AEA",
";. c #234AF2",
":. c #2957F3",
">. c #3457F2",
",. c #2E63ED",
"<. c #3568ED",
"1. c #3A75EE",
"2. c #2D63F3",
"3. c #3469F5",
"4. c #3B76F6",
"5. c #4575ED",
"6. c #466CF8",
"7. c #467BF7",
"8. c #527BFE",
"9. c #446BEB",
"0. c #425FF0",
"q. c #788C91",
"w. c #5D8DB8",
"e. c #7999B5",
"r. c #6B90B3",
"t. c #78A3BB",
"y. c #3D83F7",
"u. c #3B83EE",
"i. c #5589D9",
"p. c #538AC7",
"a. c #6899C4",
"s. c #6694D5",
"d. c #77A7CC",
"f. c #4787FA",
"g. c #5489FB",
"h. c #4D91FA",
"j. c #5897FB",
"k. c #558DE9",
"l. c #639CFB",
"z. c #689AEB",
"x. c #5BA4FB",
"c. c #66A4E7",
"v. c #78B5EA",
"b. c #69A5FC",
"n. c #76ACFC",
"m. c #66B1FC",
"M. c #7AB3FD",
"N. c #78A5E7",
"B. c #4EC9F8",
"V. c #59CCF8",
"C. c #65CEF7",
"Z. c #6AD2F8",
"A. c #78D5F7",
"S. c #74D0F5",
"D. c #969786",
"F. c #969C93",
"G. c #98A593",
"H. c #BAB987",
"J. c #ADB38E",
"K. c #8598AA",
"L. c #96A5A8",
"P. c #94AFB4",
"I. c #A6B4AF",
"U. c #A69887",
"Y. c #C7BC8C",
"T. c #BBC591",
"R. c #9FC4BF",
"E. c #B6C9A9",
"W. c #AECCB5",
"Q. c #C8C886",
"!. c #DBCA89",
"~. c #C5C898",
"^. c #DBDB97",
"/. c #D2D38E",
"(. c #E6D999",
"). c #E4D28B",
"_. c #EAE38F",
"`. c #C9D5A7",
"'. c #C9D8B5",
"]. c #D0D5AF",
"[. c #E4D9A6",
"{. c #D8E5B8",
"}. c #D4E2B0",
"|. c #E7E7B5",
" X c #F1EAB1",
".X c #8FB2D0",
"XX c #87B9FC",
"oX c #93BDFB",
"OX c #8DB8EB",
"+X c #A4BAC1",
"@X c #9DD1D1",
"#X c #ABC9D7",
"$X c #B5D8D6",
"%X c #B1CFCD",
"&X c #BBE3D4",
"*X c #99D9E6",
"=X c #8BC4FD",
"-X c #97C7FC",
";X c #87DBF8",
":X c #99D7FB",
">X c #8CCAEB",
",X c #B4DAE6",
"<X c #A2CCFB",
"1X c #A6D8FC",
"2X c #B4DDFB",
"3X c #AACEE7",
"4X c #9AE1F9",
"5X c #8BE0FC",
"6X c #B5E6EB",
"7X c #ABE6FA",
"8X c #B4EAFB",
"9X c #AEF1FC",
"0X c #B8F3FD",
"qX c #ADE6EB",
"wX c #C8DBC5",
"eX c #D1DDC8",
"rX c #CBE4C7",
"tX c #D9E9CA",
"yX c #C8E8D8",
"uX c #D5E9D7",
"iX c #D8F2D7",
"pX c #E4F6DA",
"aX c #ECF2CC",
"sX c #C6EAE8",
"dX c #D6F4E6",
"fX c #C4EBF6",
"gX c #C6F9FE",
"hX c #D5F8F6",
"jX c #D0F0E6",
"kX c #EBF7EA",
"lX c #C5DCE6",
"zX c None",
/* pixels */
"zXzXzXzXzXzXzXzXzXzXzXzXzXzXzXzXzXzXzXzXzXzXzXzXzXzXzXzXzXzXzXzXzXzXzXzXzXzXzXzXzXzXzXzXzXzXzXzXzXzXzXzXzXzXzXzXzXzXzXzXzXzXzXzXzXzXzXzXzXzXzXzXzXzXzXzXzXzXzXzX",
"zXzXzXzXzXzXzXzXzXzXzXzXzXzXzXzXzXzXzXzXzXzXzXzXzXzXzXzXzXzXzXzXzXzXzXzXzXzXzXzXzXzXzXzXzXzXzXzXzXzXzXzXzXzXzXzXzXzXzXzXzXzXzXzXzXzXzXzXzXzXzXzXzXzXzXzXzXzXzXzX",
"zXzXzXzXzXzXzXzXzXzXzXzXzXzXzXzXzXzXzXzXzXzXzXzXzXzXzXzXzXzXzXzXzXzXzXzXzXzXzXzXzXzXzXzXzXzXzXzXzXzXzXzXzXzXzXzXzXzXzXzXzXzXzXzXzXzXzXzXzXzXzXzXzXzXzXzXzXzXzXzX",
"zXzXzXzXzXzXzXzXzXzXzXzX*.$.$.$.$.%.%.%.;.;.*.:.:.8.9.5.7.3.:.2.,.3.2.3.3.4.7.f.f.7.4.4.4.4.7.f.g.f.f.f.f.y.f.4.f.h.g.f.f.4.4.7.4.7.7.f.zXzXzXzXzXzXzXzXzXzXzXzX",
"zXzXzXzXzXzXzXzXzXzXzXzX6.>.$.&.$.;.;.;.;.&.&.:.:.<.7.9.g.4.2.2.3.3.3.3.3.4.f.f.f.7.7.4.f.4.f.f.h.j.h.f.f.f.f.f.h.j.h.f.f.y.f.4.4.f.f.f.zXzXzXzXzXzXzXzXzXzXzXzX",
"zXzXzXzXzXzXzXzXzXzXzXzX>.6.0.$.%.*.;.*.:.:.:.:.:.=.6.g.5.8.4.3.3.3.3.4.4.4.7.f.f.h.y.y.y.f.y.f.j.j.j.f.f.f.f.f.j.j.j.h.y.f.y.f.f.f.g.f.zXzXzXzXzXzXzXzXzXzXzXzX",
"zXzXzXzXzXzXzXzXzXzXzXzX-.>.6.0.*.*.;.;.;.:.:.:.:.:.,.7.7.7.g.1.4.4.4.4.4.4.7.h.h.h.f.f.f.f.h.f.j.l.x.j.h.h.h.h.j.b.b.j.h.f.f.f.f.j.h.j.zXzXzXzXzXzXzXzXzXzXzXzX",
"zXzXzXzXzXzXzXzXzXzXzXzX6.0.0.6.6.=.;.;.:.:.:.:.>.>.2.3.g.g.g.k.u.4.4.f.4.y.4.h.h.j.j.f.f.h.h.h.b.n.b.l.j.j.j.l.b.b.n.x.h.h.h.h.h.x.j.j.zXzXzXzXzXzXzXzXzXzXzXzX",
"zXzXzXzXzXzXzXzXzXzXzXzX-.6.0.0.9.8.>.*.=.:.:.2.2.2.3.,.1.j.h.b.h.h.f.f.f.f.f.h.j.x.l.j.g.j.j.j.b.M.n.b.l.l.l.l.n.M.n.b.j.j.j.j.l.b.x.j.zXzXzXzXzXzXzXzXzXzXzXzX",
"zXzXzXzXzXzXzXzXzXzXzXzX$.>.6.6.0.9.8.>.=.>.>.:.2.2.3.3.1.h.b.v.v.m.c.j.h.f.f.f.x.b.n.l.l.l.l.b.n.M.XXM.b.b.n.b.M.XXXXb.b.b.x.l.n.n.b.j.zXzXzXzXzXzXzXzXzXzXzXzX",
"zXzXzXzXzXzXzXzXzXzXzXzX$.*.-.0.8.0.6.8.<.-.2.2.,.3.3.3.1.h.c.2 2 2 > p.x.h.h.h.x.n.n.n.b.b.b.m.M.XXoXXXn.n.n.M.=XoXXXn.b.n.b.n.M.n.n.l.zXzXzXzXzXzXzXzXzXzXzXzX",
"zXzXzXzXzXzXzXzXzXzXzXzX*.*.*.*.6.8.5.9.8.6.,.<.3.3.3.4.7.h.a.* * s * r.m.h.j.j.x.n.XXM.n.n.M.n.XX-X-XoXXXXXXXXX-X-X=XXXXXn.n.XXoXXXb.l.zXzXzXzXzXzXzXzXzXzXzXzX",
"zXzXzXzXzXzXzXzXzXzXzXzX*.;.;.*.=.2.f.7.9.g.8.<.<.3.4.4.y.x.a.: P U * r.n.x.x.x.b.M.oXoXXXM.XXXXXX-X<X<XoXXX=X=X<X<X-XXXXXXXXXoXoXoXn.b.zXzXzXzXzXzXzXzXzXzXzXzX",
"zXzXzXzXzXzXzXzXzXzXzXzX*.*.;.;.:.=.-.f.g.5.g.g.1.4.4.4.y.x.a.: P P % e.=Xb.b.b.b.XXoX-X-XXXXXXXXX:X<X<X-X-X=X-X<X<X<X-XXXoXoXoX-XoXn.M.zXzXzXzXzXzXzXzXzXzXzXzX",
"zXzXzXzXzXzXzXzXzXzXzXzX*.;.:.;.:.=.-.<.8.g.8.g.g.7.4.y.h.x.t.= ) P % P.:Xn.b.n.n.XXoX<X-X-X-X-X=X1X1X1X-X-X-X:X1X1X<X=X-X-X-X<X<XoXXXM.zXzXzXzXzXzXzXzXzXzXzXzX",
"zXzXzXzXzXzXzXzXzXzXzXzX;.;.:.:.=.-.:.<.<.5.j.k.g.j.y.4.f.x.r.& ( h & L.1XXXM.M.XXXXoX<X1X:X-X-X:X1X1X2X1X:X<X1X7X7X1X:X-X-X1X1X:X-XXXoXzXzXzXzXzXzXzXzXzXzXzXzX",
"zXzXzXzXzXzXzXzXzXzXzXzX;.>.=.:.:.2.2.2.2.<.7.l.j.j.j.h.f.m.r.* ( S # K.2X<XXXoXoX-X=X1X1X1X1X:X<X1X8X8X7X1X1X7X8X7X1X1X:X<X2X1X1X-X=X=XzXzXzXzXzXzXzXzXzXzXzXzX",
"zXzXzXzXzXzXzXzXzXzXzXzX*.=.=.,.2.2.3.3.4.3.5.7.l.z.z.n.c.n.t.& / h + K.8X1X<X-X-X-X-X1X7X7X1X1X1X7X8X8X8X1X1X8X8X8X7X1X1X7X8X7X1X-X-X-XzXzXzXzXzXzXzXzXzXzXzXzX",
"zXzXzXzXzXzXzXzXzXzXzXzX:.2.3.3.4.4.y.u.y.u.f.u.h.m.n.m.M.=Xt.& / y + K.8X1X1X<X-X:X<X1X7X8X8X1X7X8X8X0X8X7X7X9X0X0X8X7X7X8X8X8X1X:X<X:XzXzXzXzXzXzXzXzXzXzXzXzX",
"zXzXzXzXzXzXzXzXzXzXzXzX3.6.f.j.l.z.j.x.x.x.x.m.m.m.=X=X:X8XP.s / s # L.fXfXgXfX8X8X8X0XgXgXgX0X0X0XgXgX8X8X7X0X0X0X7X7X8X0X9X8X1X1X1X1XzXzXzXzXzXzXzXzXzXzXzXzX",
"zXzXzXzXzXzXzXzXzXzXzXzXg.p.@.1 1 V 1 1 V q.1 < < < < E E D.Q f b h l Q F.F.L.I.I.P.I.P.R.R.W.+X@XI.R.sXgX9X9X9X0X9X9XqX9X0X0X9X7X1X7X8XzXzXzXzXzXzXzXzXzXzXzXzX",
"zXzXzXzXzXzXzXzXzXzXzXzXj.q.& q r w 8 f A S j G S S S G h j j s f h h a a a a n a a s c c c c c * & % < gX9X7X0X0X8X9X9X9X0X9X7X7X7X8X0XzXzXzXzXzXzXzXzXzXzXzXzX",
"zXzXzXzXzXzXzXzXzXzXzXzXn.1 @ 6 q a v ( B / ( / G G / / / S P h b f f y w q w 6 6 6 6 & r 6 r l f b n c yX0X7X9X0X8X9X9X9X0X9X7X9X0X0X0XzXzXzXzXzXzXzXzXzXzXzXzX",
"zXzXzXzXzXzXzXzXzXzXzXzXz., r t q r i y i i b b h B G S / / / f d f 6 w i v g i g v g p g i w n ( ( ( L $X0X9X8X8X7X8X9X8X9X9X9X0X0X0X8XzXzXzXzXzXzXzXzXzXzXzXzX",
"zXzXzXzXzXzXzXzXzXzXzXzXh.@.$ # O O O X X X X X O O O + + + & / d h b r + $ $ # $ # # # & r 6 r l A l ; sX9X7X8X8X7X9X7X8X9X7X9X0X0X9X9XzXzXzXzXzXzXzXzXzXzXzXzX",
"zXzXzXzXzXzXzXzXzXzXzXzX4.i.@.@.@., @., , , , , > > , > , 2 z P k B b & o o o . . . . .         X o . V hX7X7X7X7X8X8X7X8X8X7X0X0X8X9X8XzXzXzXzXzXzXzXzXzXzXzXzX",
"zXzXzXzXzXzXzXzXzXzXzXzX,.u.h.x.x.m.M.M.=X;X=X:X:X:X:X1X1X0XG.a k k r U.hXsX2X,XqX$X#X%X+X#XI.+XI.P.P.,X8X7X7X7X7X7X7X7X8XqX8X8X8X8X9X9XzXzXzXzXzXzXzXzXzXzXzXzX",
"zXzXzXzXzXzXzXzXzXzXzXzX,.<.1.1.u.f.f.h.h.b.m.M.XXXXoX-X-X1XL.d h h w D.hXgXgXgX0X0X0XgX0X0X0X0X0X0X0X7X7X7X7X7X1XqX1X7X7X7X8X8X8X8X7X9XzXzXzXzXzXzXzXzXzXzXzXzX",
"zXzXzXzXzXzXzXzXzXzXzXzX,.2.3.1.1.4.4.7.f.f.h.b.M.XXoX-X<X8XL.d G d r F.gX8X0X0X8X9XqX8X7X7XqXqX9XqX1X4X7X4X4X4X4X7X7X7X7X7X7X8X8X7X8X0XzXzXzXzXzXzXzXzXzXzXzXzX",
"zXzXzXzXzXzXzXzXzXzXzXzX2.2.3.3.3.4.4.f.y.f.h.h.j.n.oX-X1X8XG.d ( y e F.gX8X8X9X8X8X7X7X7X7X7X4X7X4X4X4X5X5X5X4X:X4X:X4X:X7X2X7X7XqX8X8XzXzXzXzXzXzXzXzXzXzXzXzX",
"zXzXzXzXzXzXzXzXzXzXzXzX,.2.3.3.4.4.4.4.f.y.h.h.j.b.n.XX<X8XG.d / g i D.gX9X9X8X8X8X7X7XqX7X7X4X4X:X;XA.A.A.A.A.A.;X;X4X4X4X7XqX7X8X8X8XzXzXzXzXzXzXzXzXzXzXzXzX",
"zXzXzXzXzXzXzXzXzXzXzXzX3.<.<.3.4.4.4.y.y.f.h.x.b.b.n.XX-X8XG.p G d r W gX9X7X7X9X7X7X7X1X7X4X5X;XA.A.Z.Z.C.Z.C.Z.A.A.;X5X4X7X1X7X7X8X7XzXzXzXzXzXzXzXzXzXzXzXzX",
"zXzXzXzXzXzXzXzXzXzXzXzX8.g.g.7.7.7.7.7.f.h.h.j.x.n.n.XX-X7XD.d G p e D.gX8X9X9X7X7X7XqX7X4X4X;XA.Z.C.C.V.B.V.V.V.Z.Z.A.;X5X7X7X8XqX7XqXzXzXzXzXzXzXzXzXzXzXzXzX",
"zXzXzXzXzXzXzXzXzXzXzXzX5.7.7.g.j.g.l.l.j.j.j.j.b.b.n.XX-X8XD.j k k 4 D.gX8X8X8X7X7X7X4X7X5X;XA.A.C.V.B.B.B.B.B.V.V.C.Z.A.;X:X4X1X7X7X8XzXzXzXzXzXzXzXzXzXzXzXzX",
"zXzXzXzXzXzXzXzXzXzXzXzXg.g.g.g.g.g.g.l.l.n.n.XXXXXXoXoX-X2XD.d k p q E gX9X8X7X9X7X7X7X4X:X;XA.Z.V.V.B.B.B.B.B.B.V.V.C.A.A.;X4X1X7X7X8XzXzXzXzXzXzXzXzXzXzXzXzX",
"zXzXzXzXzXzXzXzXzXzXzXzX3.6.7.f.g.l.j.l.b.n.XXXXoX-X<X<X2XfXD.d h t u M gX8X8X7X7X7X:X7X4X;XA.S.C.C.V.V.V.V.B.V.V.V.V.C.Z.A.;X4X7X7X7X8XzXzXzXzXzXzXzXzXzXzXzXzX",
"zXzXzXzXzXzXzXzXzXzXzXzX,.3.3.1.1.f.f.k.j.b.M.OXoX<X<X<X2XfXF.d h y 4 Q gX6X8X7X7X7X7X4X4X5XA.Z.Z.C.V.C.C.V.V.V.V.V.V.C.Z.A.;X5X4X7X7X7XzXzXzXzXzXzXzXzXzXzXzXzX",
"zXzXzXzXzXzXzXzXzXzXzXzX,.2.3.4.4.4.4.f.f.h.j.b.M.XX-X<X2XfXU.h h u 4 m gX0X8X9X7X7X7X7X:X;XA.Z.Z.C.C.C.C.C.C.C.Z.C.Z.C.Z.A.;X:X:X7X7X7XzXzXzXzXzXzXzXzXzXzXzXzX",
"zXzXzXzXzXzXzXzXzXzXzXzX,.3.3.4.4.4.f.f.f.h.j.j.b.n.XX=X<X8XD./ b t t E gX8X7X9X7X7X7X4X*X5XA.A.Z.S.C.Z.;XS.Z.C.Z.C.Z.Z.A.A.;X5X7XqX8X7XzXzXzXzXzXzXzXzXzXzXzXzX",
"zXzXzXzXzXzXzXzXzXzXzXzX,.3.3.4.4.7.4.f.h.h.j.b.n.M.XX-X<X2XW h h y q m gX8X7X7X7X7X7XqX4X;XA.A.Z.S.Z.A.*X*XA.*XA.Z.Z.Z.A.A.A.5X4X7X7X7XzXzXzXzXzXzXzXzXzXzXzXzX",
"zXzXzXzXzXzXzXzXzXzXzXzX3.2.4.3.4.4.f.f.f.h.j.b.b.XXXXoX<X8XW g B q 4 m gX8X8X7X7X7X7X1X:X;XA.Z.A.A.Z.5X&X%XqX@X:XA.A.A.A.A.;X5X4X7X7X7XzXzXzXzXzXzXzXzXzXzXzXzX",
"zXzXzXzXzXzXzXzXzXzXzXzX2.3.3.3.4.y.4.f.f.h.j.l.n.XXXXoX<X8XW g i i q m gX8X8X8X6X7XqX7X7X*X;XA.*X@XA.9XT.T.W.E.$X*X*XqX@X;X;X*X7X7X7X7XzXzXzXzXzXzXzXzXzXzXzXzX",
"zXzXzXzXzXzXzXzXzXzXzXzX<.<.1.7.f.f.g.j.j.l.n.XXoXoX<X1X2XfXW h y u 4 m gX0X9X7X7X7X7X7X6X&X*X;XW.W.qX&Xo.! {.T.E.yX%X&XW.*X*XqXqX7X6X8XzXzXzXzXzXzXzXzXzXzXzXzX",
"zXzXzXzXzXzXzXzXzXzXzXzXf.g.g.g.g.j.j.l.l.n.XXXXoX<X<X1X2XgXQ h f p 4 m gX8X7X7X7X7X7XqX&XE.&X;XE.T.%X}.R T.}.o.T.I.W.E.T.$X$X&X&X9X6XqXzXzXzXzXzXzXzXzXzXzXzXzX",
"zXzXzXzXzXzXzXzXzXzXzXzX7.5.7.g.g.g.l.j.n.n.XXXXoX-X<X<X1X8XQ f p u 4 m gX8X7X7X7X6X&X6XwX .rX@X'. . . .o. . .R R J.`.~.T.&XW.E.jX%XW.fXzXzXzXzXzXzXzXzXzXzXzXzX",
"zXzXzXzXzXzXzXzXzXzXzXzX8.g.g.h.g.g.j.j.j.l.z.b.n.n.XXoX<X8XQ f p u 4 z gX8X8X7X7XfXW.eXtXo.}.W.'. . .] ] _ o.Y R Q.[.! ! rX`.~.dX'.rX6XzXzXzXzXzXzXzXzXzXzXzXzX",
"zXzXzXzXzXzXzXzXzXzXzXzX3.5.4.1.4.5.7.f.f.h.j.l.b.M.M.oX-X2XM d p u 4 z hX0X8X8X8XfX`.'. X_.|.}.`./.o.R U R _ R Y ^ ^.R  .}./.^.aX].eXsXzXzXzXzXzXzXzXzXzXzXzXzX",
"zXzXzXzXzXzXzXzXzXzXzXzX,.,.3.3.4.y.4.f.f.h.h.l.b.n.M.=X-X2XQ a u u t x hX8X9X8X6XfX].|.(.O._.`.T./._ _ Y Y Y Y U Y o._ o.~ o._./.Y.yX8XzXzXzXzXzXzXzXzXzXzXzXzX",
"zXzXzXzXzXzXzXzXzXzXzXzX2.2.3.3.4.4.4.y.f.h.j.j.b.n.n.XX<X2XM w u u q x gX0X9X7XqXiX|.O._ ` o.).o.] _ D Y ' I D I Y R | _ Y _ _.R X.hX8XzXzXzXzXzXzXzXzXzXzXzXzX",
"zXzXzXzXzXzXzXzXzXzXzXzX2.3.3.3.4.4.4.y.y.h.j.j.b.n.XX-X1XfXM i e e q x 0X9X9X7X0XiXR F J ....O.o.Y ) C C D D S A Y ' J J F J O.T ' tXfXzXzXzXzXzXzXzXzXzXzXzXzX",
"zXzXzXzXzXzXzXzXzXzXzXzX2.2.3.3.4.4.7.7.y.g.j.l.n.oX-X<X2XfXM a q e t M 6X0X9X8XjXW.F K J +.K 9 Z D 8 8 C 9 D U A D D H C 9 H J ) C `.fXzXzXzXzXzXzXzXzXzXzXzXzX",
"zXzXzXzXzXzXzXzXzXzXzXzX2.2.3.4.3.4.4.7.h.j.b.M.XXoX-X<X1X2Xz w q q t L 6X0X0X0X0XiXY J +.K C 0 0 C 8 8 7 7 8 9 F A F 8 7 8 F J Z A rXfXzXzXzXzXzXzXzXzXzXzXzXzX",
"zXzXzXzXzXzXzXzXzXzXzXzX:.2.2.3.1.7.k.j.l.b.b.n.XXXXXXXX-X3Xz w u u t x jXgX0X9XqX6X`.A ) J J Z Z C Z Z 9 C S 9 D H C C 9 Z ) ) s ! jX8XzXzXzXzXzXzXzXzXzXzXzXzX",
"zXzXzXzXzXzXzXzXzXzXzXzX:.3.3.f.g.g.g.j.j.b.b.b.b.b.b.M.=X1Xm i i q q x jXgX0X9X9X9X6X}.I H ' ' | | ` } } } ..} } ` ` ` ' ' ) U ~.pX8X0XzXzXzXzXzXzXzXzXzXzXzXzX",
"zXzXzXzXzXzXzXzXzXzXzXzX6.8.f.g.f.g.g.g.j.j.h.j.j.j.b.n.XX<Xm f e 4 t x sXfX9X9X9X0X9XiX! 7 9 A D ) ` ' [ } ` [ ) ) I I I S 8 L iXsX0X0XzXzXzXzXzXzXzXzXzXzXzXzX",
"zXzXzXzXzXzXzXzXzXzXzXzX7.5.7.7.g.g.g.f.7.7.f.f.h.j.b.b.=X*Xz w u 4 y x 6X0X7X9X0XgX0X6X`.A P [ X.).O.O.O.O.O.O.` [ X.X.[ ) s ! yX0X0X0XzXzXzXzXzXzXzXzXzXzXzXzX",
"zXzXzXzXzXzXzXzXzXzXzXzX5.7.f.8.y.4.3.4.4.y.y.f.h.h.j.b.v.1Xz g e 3 y x ,X8X8X8XgX0X0X6XiX!.{ ~ !.[.[.[ I U ) / ' !.).X.{ { ~ |.jX9X0X0XzXzXzXzXzXzXzXzXzXzXzXzX",
"zXzXzXzXzXzXzXzXzXzXzXzX6.4.3.,.3.3.4.4.4.y.y.f.h.h.z.n.-X2XM g u 5 t x ,X8X8XgXgX0X9X0X%XH./.! T ( Y.aX[.U U {  X{ U P ~ `.~ E fX0X9X9XzXzXzXzXzXzXzXzXzXzXzXzX",
"zXzXzXzXzXzXzXzXzXzXzXzX=.-.,.2.2.3.3.4.4.4.f.f.y.h.b.XX-X1Xz p u 4 u x $X8X0XfXgX9X8X9X&X`.aXaX(.!.~.].kXY.^ aX~.~ !.[.tXpX[.E.6X0X8X8XzXzXzXzXzXzXzXzXzXzXzXzX",
"zXzXzXzXzXzXzXzXzXzXzXzX:.>.2.2.2.3.3.4.4.4.4.f.h.b.n.XX=X3X; g u q i x 3XfX0X8X8X7X7X9XhXT.{.tX`.pXlXeXaXaXaX|.J.wXdXeX'.pXY.uXgX0X8X7XzXzXzXzXzXzXzXzXzXzXzXzX",
"zXzXzXzXzXzXzXzXzXzXzXzX:.:.:.2.3.2.3.3.4.1.7.g.j.l.b.M.M.>Xz g i e t x $XfX2X2X1X7X7X8XjX~ ^.aX}.kXkX{. X X XX.H.iXdXtX XaX~ `.gX0X0X7XzXzXzXzXzXzXzXzXzXzXzXzX",
"zXzXzXzXzXzXzXzXzXzXzXzX:.:.:.2.2.2.3.3.1.7.g.j.l.l.l.l.b.OX; g u 4 t x lX2X2X1X<X1X7X0XuX!.[ (. X[.`.}.O.O...] Q.^.}.|._.Q.[ ^.gX0X8X1XzXzXzXzXzXzXzXzXzXzXzXzX",
"zXzXzXzXzXzXzXzXzXzXzXzX:.:.:.:.2.3.3.3.7.g.g.g.j.j.h.j.x.S.; g 4 u u l $X8X-X-X<X1X7X8XjXQ.!.|.).Q.! !.[ U A U ~ !.! ).(.tX{ rX8X8X8X7XzXzXzXzXzXzXzXzXzXzXzXzX",
"zXzXzXzXzXzXzXzXzXzXzXzX*.:.:.2.:.:.4.7.g.f.g.g.f.f.f.f.j.M.= p u u t n #X<X-X-X-X:X2X8XsX~.tXuX`.pXpXQ.{ j L s L ].pX}.}.kX~.rX1X1X8X1XzXzXzXzXzXzXzXzXzXzXzXzX",
"zXzXzXzXzXzXzXzXzXzXzXzX:.:.:.=.-.4.7.7.f.g.f.7.6.y.f.f.j.m.; f u e t n +X-X=X=X-X1X2X7XuX`.wX,XrXhXwXY.n ~ eX% z W iXyXwXdX~.wX:X1X1X1XzXzXzXzXzXzXzXzXzXzXzXzX",
"zXzXzXzXzXzXzXzXzXzXzXzX;.;.:.>.4.6.5.7.f.7.3.4.4.4.4.f.x.v.= g e 4 p x .X=XXXXX-X<X1X2XI.~.tXuXkX}.~ L ; sXhXU.% : G.aXkXdX].D.#X<X1X<XzXzXzXzXzXzXzXzXzXzXzXzX",
"zXzXzXzXzXzXzXzXzXzXzXzX;.;.3.6.6.<.5.8.4.3.3.4.4.4.4.f.h.v.= g q 4 t l .X=XM.XX-X-X-X3XI.< W D.M : L W lX1XqXhXI.1 - - V q.V K.1XoXoX<XzXzXzXzXzXzXzXzXzXzXzXzX",
"zXzXzXzXzXzXzXzXzXzXzXzX:.3.6.3.3.6.6.<.2.2.3.3.4.4.4.f.h.v.= g u 4 t l .X=Xm.XX-X-X-XoX<X#X#XI.I.%X2X2X:X;X7X1X2X2X#XI.I.$XlX3X=XoXXXoXzXzXzXzXzXzXzXzXzXzXzXzX",
"zXzXzXzXzXzXzXzXzXzXzXzX6.3.-.<.7.3.2.:.2.3.3.3.2.4.4.1.x.OX: f 3 e y n d.M.b.XXoX-XXXXXXXXXoX2X2X1X=XoX-X:X1X1X-XoX<X<X<X1X:XOXXXXXM.XXzXzXzXzXzXzXzXzXzXzXzXzX",
"zXzXzXzXzXzXzXzXzXzXzXzX>.>.6.6.>.=.:.:.:.2.2.3.3.4.1.7.b.OX- f r q t l d.M.v.XXXXXXXXn.n.XXoX-X<X-XXXoXOX-X<X-X-XoXXXOX-X-X-XXXn.n.n.n.zXzXzXzXzXzXzXzXzXzXzXzX",
"zXzXzXzXzXzXzXzXzXzXzXzX>.6.>.:.:.:.:.:.:.2.,.2.3.3.1.j.b.v.- g q e y l t.M.m.v.n.n.l.n.b.n.oX3X.X.XOXOXOX3X3X3XOXOXXXOXOXoX-XXXn.l.b.b.zXzXzXzXzXzXzXzXzXzXzXzX",
"zXzXzXzXzXzXzXzXzXzXzXzX0.;.;.;.*.;.:.:.:.2.2.2.2.4.7.j.j.OX= v 5 i y c t.M.m.b.b.l.l.l.l.n.XXd.K..Xe.e.P.q.L.P.K..Xa..X.XoXoXM.b.l.l.j.zXzXzXzXzXzXzXzXzXzXzXzX",
"zXzXzXzXzXzXzXzXzXzXzXzX;.;.;.;.%.:.:.:.:.:.2.:.2.4.g.8.b.v.- g e N y l e.n.b.b.j.h.j.x.j.b.M.OX#.#.r.w.w.r.K.e.r.r.r.w.w.v.n.n.b.j.j.j.zXzXzXzXzXzXzXzXzXzXzXzX",
"zXzXzXzXzXzXzXzXzXzXzXzX;.&.&.;.;.*.%.:.=.:.=.-.4.h.5.k.j.c.- g N e p c t.m.x.j.h.h.h.k.j.l.n.N.r.#.i.k.i.z.N.s.s.i.i.i.p.b.n.n.l.h.h.h.zXzXzXzXzXzXzXzXzXzXzXzX",
"zXzXzXzXzXzXzXzXzXzXzXzX&.&.&.;.%.:.:.;.:.=.=.3.8.5.7.g.f.c.- i 3 e y a t.m.j.f.f.f.f.f.h.l.b.b.k.j.j.j.j.b.n.n.b.j.j.j.j.j.b.b.j.h.f.f.zXzXzXzXzXzXzXzXzXzXzXzX",
"zXzXzXzXzXzXzXzXzXzXzXzX$.&.;.&.%.%.*.;.;.:.3.8.6.5.g.1.f.c.= i 3 q y a t.m.j.7.y.f.f.f.h.j.l.l.j.h.h.h.j.j.b.b.j.g.j.h.h.j.j.j.j.f.f.y.zXzXzXzXzXzXzXzXzXzXzXzX",
"zXzXzXzXzXzXzXzXzXzXzXzX&.&.&.%.%.;.%.:.;.2.6.6.<.g.3.<.f.s.; i 3 q q a e.m.h.4.y.f.y.f.f.j.j.j.f.f.h.f.f.j.b.x.j.h.f.f.f.f.j.j.j.f.f.4.zXzXzXzXzXzXzXzXzXzXzXzX",
"zXzXzXzXzXzXzXzXzXzXzXzXzXzXzXzXzXzXzXzXzXzXzXzXzXzXzXzXzXzXzXzXzXzXzXzXzXzXzXzXzXzXzXzXzXzXzXzXzXzXzXzXzXzXzXzXzXzXzXzXzXzXzXzXzXzXzXzXzXzXzXzXzXzXzXzXzXzXzXzX",
"zXzXzXzXzXzXzXzXzXzXzXzXzXzXzXzXzXzXzXzXzXzXzXzXzXzXzXzXzXzXzXzXzXzXzXzXzXzXzXzXzXzXzXzXzXzXzXzXzXzXzXzXzXzXzXzXzXzXzXzXzXzXzXzXzXzXzXzXzXzXzXzXzXzXzXzXzXzXzXzX",
"zXzXzXzXzXzXzXzXzXzXzXzXzXzXzXzXzXzXzXzXzXzXzXzXzXzXzXzXzXzXzXzXzXzXzXzXzXzXzXzXzXzXzXzXzXzXzXzXzXzXzXzXzXzXzXzXzXzXzXzXzXzXzXzXzXzXzXzXzXzXzXzXzXzXzXzXzXzXzXzX"
};
