/* XPM */
static char *xpm_[] = {
/* columns rows colors chars-per-pixel */
"80 80 49 1 ",
"  c #000000",
". c #000000",
"X c #000000",
"o c #000000",
"O c #000000",
"+ c #000000",
"@ c #000000",
"# c #000000",
"$ c #FEC20F",
"% c #FEC20F",
"& c #FEC20F",
"* c #FEC20F",
"= c #FEC20F",
"- c #FEC20F",
"; c #FEC20F",
": c #FEC20F",
"> c #FEC20F",
", c #FEC20F",
"< c #FEC20F",
"1 c #FEC20F",
"2 c #FEC20F",
"3 c #FEC20F",
"4 c #FEC20F",
"5 c #FEC20F",
"6 c #FEC20F",
"7 c #FEC20F",
"8 c #FEC20F",
"9 c #FEC20F",
"0 c #000000",
"q c #000000",
"w c #000000",
"e c #000000",
"r c #FEC20F",
"t c #FEC20F",
"y c #FEC20F",
"u c #FEC20F",
"i c #FEC20F",
"p c #FEC20F",
"a c #FEC20F",
"s c #020100",
"d c #010000",
"f c #FEC20F",
"g c #FEC20F",
"h c #FEC20F",
"j c #FEC20F",
"k c #010100",
"l c #FEC20F",
"z c #FCC10F",
"x c None",
/* pixels */
"kkkkkkkkkkkkkkkkkkkkkkkkkkkkkkkkkkkkkkkkkkkkkkkkkkkkkkkkkkkkkkkkeeeeeeeeeeeeeeee",
"kkkkkkkkkkkkkkkkkkkkkkkkkkkkkkkkkkkkkkkkkkkkkkkkkkkkkkkkkkkkkkkkeeeeeeeeeeeeeeee",
"kkkkkkkkkkkkkkkkkkkkkkkkkkkkkkkkkkkkkkkkkkkkkkkkkkkkkkkkkkkkkkkkeeeeeeeeeeeeeeee",
"kkkkkkkkkkkkkkkkkkkkkkkkkkkkkkkkkkkkkkkkkkkkkkkkkkkkkkkkkkkkkkkkeeeeeeeeeeeeeeee",
"kkkkkkkkkkkkkkkkkkkkkkkkkkkkkkkkkkkkkkkkkkkkkkkkkkkkkkkkkkkkkkkkeeeeeeeeeeeeeeee",
"kkkkkkkkkkkkkkkkkkkkkkkkkkkkkkkkkkkkkkkkkkkkkkkkkkkkkkkkkkkkkkkkeeeeeeeeeeeeeeee",
"kkkkkkkkkkkkkkkkkkkkkkkkkkkkkkkkkkkkkkkkkkkkkkkkkkkkkkkkkkkkkkkkeeeeeeeeeeeeeeee",
"kkkkkkkkkkkkkkkkkkkkkkkkkkkkkkkkkkkkkkkkkkkkkkkkkkkkkkkkkkkkkkkkeeeeeeeeeeeeeeee",
"kkkkkkkkkkkkkkkkkkkkkkkkkkkkkkkkkkkkkkkkkkkkkkkkkkkkkkkkkkkkkkkkeeeeeeeeeeeeeeee",
"kkkkkkkkkkkkkkkkkkkkkkkkkkkkkkkkkkkkkkkkkkkkkkkkkkkkkkkkkkkkkkkkeeeeeeeeeeeeeeee",
"kkkkkkkkkkkkkkkkkkkkkkkkkkkkkkkkkkkkkkkkkkkkkkkkkkkkkkkkkkkkkkkkeeeeeeeeeeeeeeee",
"kkkkkkkkkkkkkkkkkkkkkkkkkkkkkkkkkkkkkkkkkkkkkkkkkkkkkkkkkkkkkkkkeeeeeeeeeeeeeeee",
"kkkkkkkkkkkkkkkkkkkkkkkkkkkkkkkkkkkkkkkkkkkkkkkkkkkkkkkkkkkkkkkkeeeeeeeeeeeeeeee",
"kkkkkkkkkkkkkkkkkkkkkkkkkkkkkkkkkkkkkkkkkkkkkkkkkkkkkkkkkkkkkkkkeeeeeeeeeeeeeeee",
"kkkkkkkkkkkkkkkkkkkkkkkkkkkkkkkkkkkkkkkkkkkkkkkkkkkkkkkkkkkkkkkkeeeeeeeeeeeeeeee",
"kkkkkkkkkkkkkkkkkkkkkkkkkkkkkkkkkkkkkkkkkkkkkkkkkkkkkkkkkkkkkkkkeeeeeeeeeeeeeeee",
"kkkkkkkkkkkkkkkkkkkkkkkkkkkkkkkkkkkkkkkkkkkkkkkkkkkkkkkkkkkkkkkkssssssssssseeeee",
"kkkkkkkkkke@oX  .XXO0kkkkkkd#0@@@+@+@+@@qekkkkkkkkkkkkkkkkkkk0+osssssssssseeeeee",
"kkkkkkkk+.          .kkkkkk0              .oekkkkkkkkkkkkkqo    ssssssssseeeeeee",
"kkkkkkq.            .kkkkkk0                 Okkkkkkkkkkkk      sssssssssseeeeee",
"kkkkk0              .kkkkkkq                  .dkkkkkkkkkkX     ssssssssssssssee",
"kkkke               Xkkkkkkw                   Xkkkkkkkkkko     ssssssssssssssee",
"kkkk.         XX    okkkkkk0                    ekkkkkkkkk@     ssssssssssssseee",
"kkkq        0dkkkde00kkkkkk0      XddeqO        +kkkkkkkkkq   O@ssssssssssssseee",
"kkk+       ekkkkkkkkkkkkkkkw      Okkkkkw       okkkkkkkkkdXqkkkeeessssssssseeee",
"kkkX      okkkkkkkkkkkkkkkkq      +kkkkkkO      .kkkkkkkkkkkkkkkeeeesssssssseeee",
"kkk.      okkkkkkkkkkkkkkkkq      Okkkkkkq       dkkkkkkkkkkkkkkeeeesssssssseeee",
"kkk.       ekkkkkkkkkkkkkkkq      okkkkkkq       kkkkkkkkkkkkkkkeeeesssssssseeee",
"kkko        0kkkkkkkkkkkkkkq .    +kkkkkk@      Xkkkkkkkkkkkkkkkeeeesssssssseeee",
"kkk@         .0kkkkkkkkkkkk0      Okkkkkd       @kkkkkkkkkkkkkkksseesssssssseeee",
"kkkd            @dkkkkkkkkkq      Okkkkd.       kkkkkkkkkkkkkkkksssssssssssseeee",
"kkkk+             Odkkkkkkkw      .@#+X        #kkkkkkkkkkkkkkkksssssssssssseeee",
"eeeessssssssssssssssssssssssssss              +kkkkkkkkkkkkkkkkksssssssssssseeee",
"eeeessssssssssssssssssssssssssss             +kkkkkkkkkkkkkkkkkksssssssssssseeee",
"eeeessxssssssssssssssssssessssss          .Oekkkkkkkkkkkkkkkkkkksssssssssesseeee",
"eeesssxxsssssssssssssssseessssss          #kkkkkkkkkkkkkkkkkkkkksssssssssesseeee",
"eeeexxxxsssssssssssssssseeesssss  XX       dkkkkkkkkkkkkkkkkkkkOsssssssssseeeeee",
"eeeexxxxssxxessssssssssseeesssss  +e       okkkkkkkkkkkkkkkkkk+ sssssssseseeeeee",
"eeeexxxxxxxxssssssssssseeeesssss  Oko       qkkkkkkkkkkkkkkkk@  sssssssseeeeeeee",
"eeeexxxxxxxxssssssssssseesxsssss  Okd        kkkkkkkkkkkkkkk0 . sssssssseeeeeeee",
"eeeeeeeessseeesssssssssseeesssss  Okk0       okkkkkkkkkkkkkq    sssssssssssseeee",
"eeeeeeeessseeesssssssssseeesssss  +kkkX       0kkkkkkkkkkkw     sssssssssssseeee",
"eeeessssssssessssssssssseessssss  Okkke        dkkkkkkkkkd      ssssssssssssssse",
"eeeessssssssssssssssssssesssssss  +kkkk+       okkkkkkkkkw      ssssssssssslsess",
"eessssssssssssssssssssssddesssss  Okkkkk        qkkkkkkkkq      sssssssssssslsss",
"eeesssssssssssssssssssssdsesssss  +kkkkk0        kkkkkkkkq      ssssssssssssllss",
"eesssssssssssssssssseessssssssls  OkkkkkkX       Okkkkkkkw      sssssssssssszlee",
"eesssssssssssssssseeeeesssssssll  okkkkkkd        0kkkkkkq      ssssssssssssfeee",
"eeeezgjzllsssssseeeeeeeeeeesfjfzggzeeeeeeeff##zz+@@keeeeeehhh###fjjzllllsssslsee",
"eeeeeellslslsssseeeeeeeeeeeeeellleeeeeeeessesslekkkkeeeeeeeelllleellslsssssseeee",
"eeeeeeeesssssssseeeeeeeeeeeeeeeelseeeeeeeeeesseeeekkeeeeeeeesssseeeesssssssseeee",
"eeeeeeeszzlzlllleeeseeeeeeeeeeeslleeeeeseeeeeseseeeseeeseeeesllleeeszzlllllleeee",
"eee9>:5>:>>>55>>5>>>:>>5-,::>>555555:>::-:>>5>:>8,55::55>>55>:>>>>:>>>555555<eee",
"eee;555555555555555555555>>>555555555555:>5555555>555555555555555555555555553eee",
"eee15%:53155355;15558555$13$:53555755>4$;555589>5555:2555558%:5555755554=555:eee",
"eee*5eu5s&53s,5is55us55$lsee35lp5<s7>3essj55usls=555ts$5>5fszsh556s;55felsu5:eee",
"eee,5l8jg554s45il55*l5555hh555z=54e%>,e<3e<5rl5zz555sef5>5g95&s658s;5is:5ge53eee",
"eee;5lsj5554e95&l55ul5555ga555f=5,e1>4xhff>5&l&l7554e7s>55jt55s95-e25jj559e3:eee",
"eee65lfz>551s55=l55*l5555zr555z%55s65;lxs,55*lsu555he&ep55l955er59s<5gh553e3>eee",
"eee55l7fs55,e*5hl55&l5<55jg555zz5=e15;s8e955=f=s555lzfsl55zt5fe:5&e,5yl,5ls:1eee",
"eee65s=5sr55heee955=esl55fi5:5$sssa552s,9s259l5lf5$l55*s45zess8559l555zesl55,eee",
"eee25:555;5555345555;55555555555255555:55,555555555555555554:5555555555;:5551eee",
"eee85555555555>>5555>5555555555555555555555555555555555555555555555555555555,eee",
"eee25>5555>5>5>>5>5>>>5555555:5>55>5>5>5555555555555>555555>>5>5555555>55555-eee",
"eeeeeeeeeeeeeeeeeeeeeeeeeeeeeeeeeeeeeeeeeeeeeeeeeeeeeeeeeeeeeeeeeeeeeeeeeeeeeeee",
"eeeeeeeeeeeeeeeeeeeeeeeeeeeeeeeeeeeeeeeeeeeeeeeeeeeeeeeeeeeeeeeeeeeeeeeeeeeeeeee",
"eeeeeeeeeeeeeeeeeeeeeeeeeeeeeeeeeeeeeeeeeeeeeeeeeeeeeeeeeeeeeeeeeeeeeeeeeeeeeeee",
"eeeeeeeeeeeeeeeeeeeeeeeeeeeeeeeeeeeeeeeeeeeeeeeeeeeeeeeeeeeeeeeeeeeeeeeeeeeeeeee",
"eeeeeeeeeeeeeeeeeeeeeeeeeeeeeeeeeeeeeeeeeeeeeeeeeeeeeeeeeeeeeeeeeeeeeeeeeeeeeeee",
"eeeeeeeeeeeeeeeeeeeeeeeeeeeeeeeeeeeeeeeeeeeeeeeeeeeeeeeeeeeeeeeeeeeeeeeeeeeeeeee",
"eeeeeeeeeeeeeeeeeeeeeeeeeeeeeeeeeeeeeeeeeeeeeeeeeeeeeeeeeeeeeeeeeeeeeeeeeeeeeeee",
"eeeeeeeeeeeeeeeeeeeeeeeeeeeeeeeeeeeeeeeeeeeeeeeeeeeeeeeeeeeeeeeeeeeeeeeeeeeeeeee",
"eeeeeeeeeeeeeeeeeeeeeeeeeeeeeeeeeeeeeeeeeeeeeeeeeeeeeeeeeeeeeeeeeeeeeeeeeeeeeeee",
"eeeeeeeeeeeeeeeeeeeeeeeeeeeeeeeeeeeeeeeeeeeeeeeeeeeeeeeeeeeeeeeeeeeeeeeeeeeeeeee",
"eeeeeeeeeeeeeeeeeeeeeeeeeeeeeeeeeeeeeeeeeeeeeeeeeeeeeeeeeeeeeeeeeeeeeeeeeeeeeeee",
"eeeeeeeeeeeeeeeeeeeeeeeeeeeeeeeeeeeeeeeeeeeeeeeeeeeeeeeeeeeeeeeeeeeeeeeeeeeeeeee",
"eeeeeeeeeeeeeeeeeeeeeeeeeeeeeeeeeeeeeeeeeeeeeeeeeeeeeeeeeeeeeeeeeeeeeeeeeeeeeeee",
"eeeeeeeeeeeeeeeeeeeeeeeeeeeeeeeeeeeeeeeeeeeeeeeeeeeeeeeeeeeeeeeeeeeeeeeeeeeeeeee",
"eeeeeeeeeeeeeeeeeeeeeeeeeeeeeeeeeeeeeeeeeeeeeeeeeeeeeeeeeeeeeeeeeeeeeeeeeeeeeeee",
"eeeeeeeeeeeeeeeeeeeeeeeeeeeeeeeeeeeeeeeeeeeeeeeeeeeeeeeeeeeeeeeeeeeeeeeeeeeeeeee"
};
