/* XPM */
static char *xpm_[] = {
/* columns rows colors chars-per-pixel */
"80 80 237 2 ",
"   c #111FC6",
".  c #111FC6",
"X  c #111FC6",
"o  c #111FC6",
"O  c #111FC6",
"+  c #111FC6",
"@  c #111FC6",
"#  c #111FC6",
"$  c #111FC6",
"%  c #111FC6",
"&  c #111FC6",
"*  c #111FC6",
"=  c #111FC6",
"-  c #111FC6",
";  c #111FC6",
":  c #111FC6",
">  c #111FC6",
",  c #111FC6",
"<  c #111FC6",
"1  c #111FC6",
"2  c #111FC6",
"3  c #111FC6",
"4  c #111FC6",
"5  c #111FC6",
"6  c #111FC6",
"7  c #111FC6",
"8  c #111FC6",
"9  c #111FC6",
"0  c #111FC6",
"q  c #111FC6",
"w  c #111FC6",
"e  c #111FC6",
"r  c #111FC6",
"t  c #111FC6",
"y  c #111FC6",
"u  c #111FC6",
"i  c #111FC6",
"p  c #111FC6",
"a  c #111FC6",
"s  c #111FC6",
"d  c #111FC6",
"f  c #111FC6",
"g  c #111FC6",
"h  c #111FC6",
"j  c #111FC6",
"k  c #111FC6",
"l  c #111FC6",
"z  c #111FC6",
"x  c #111FC6",
"c  c #111FC6",
"v  c #111FC6",
"b  c #111FC6",
"n  c #111FC6",
"m  c #111FC6",
"M  c #111FC6",
"N  c #111FC6",
"B  c #111FC6",
"V  c #111FC6",
"C  c #111FC6",
"Z  c #111FC6",
"A  c #111FC6",
"S  c #111FC6",
"D  c #111FC6",
"F  c #111FC6",
"G  c #111FC6",
"H  c #111FC6",
"J  c #111FC6",
"K  c #111FC6",
"L  c #111FC6",
"P  c #111FC6",
"I  c #111FC6",
"U  c #111FC6",
"Y  c #111FC6",
"T  c #111FC6",
"R  c #111FC6",
"E  c #111FC6",
"W  c #111FC6",
"Q  c #111FC6",
"!  c #111FC6",
"~  c #111FC6",
"^  c #111FC6",
"/  c #111FC6",
"(  c #111FC6",
")  c #111FC6",
"_  c #111FC6",
"`  c #111FC6",
"'  c #111FC6",
"]  c #111FC6",
"[  c #111FC6",
"{  c #111FC6",
"}  c #111FC6",
"|  c #111FC6",
" . c #111FC6",
".. c #111FC6",
"X. c #111FC6",
"o. c #111FC6",
"O. c #111FC6",
"+. c #111FC6",
"@. c #111FC6",
"#. c #111FC6",
"$. c #111FC6",
"%. c #111FC6",
"&. c #111FC6",
"*. c #111FC6",
"=. c #111FC6",
"-. c #111FC6",
";. c #111FC6",
":. c #111FC6",
">. c #111FC6",
",. c #111FC6",
"<. c #111FC6",
"1. c #111FC6",
"2. c #111FC6",
"3. c #111FC6",
"4. c #111FC6",
"5. c #111FC6",
"6. c #111FC6",
"7. c #111FC6",
"8. c #111FC6",
"9. c #111FC6",
"0. c #111FC6",
"q. c #111FC6",
"w. c #111FC6",
"e. c #111FC6",
"r. c #111FC6",
"t. c #111FC6",
"y. c #111FC6",
"u. c #111FC6",
"i. c #111FC6",
"p. c #111FC6",
"a. c #111FC6",
"s. c #111FC6",
"d. c #111FC6",
"f. c #111FC6",
"g. c #111FC6",
"h. c #111FC6",
"j. c #111FC6",
"k. c #111FC6",
"l. c #111FC6",
"z. c #111FC6",
"x. c #111FC6",
"c. c #111FC6",
"v. c #111FC6",
"b. c #111FC6",
"n. c #111FC6",
"m. c #111FC6",
"M. c #111FC6",
"N. c #111FC6",
"B. c #111FC6",
"V. c #111FC6",
"C. c #111FC6",
"Z. c #111FC6",
"A. c #111FC6",
"S. c #111FC6",
"D. c #111FC6",
"F. c #111FC6",
"G. c #111FC6",
"H. c #111FC6",
"J. c #111FC6",
"K. c #111FC6",
"L. c #111FC6",
"P. c #111FC6",
"I. c #111FC6",
"U. c #111FC6",
"Y. c #111FC6",
"T. c #111FC6",
"R. c #111FC6",
"E. c #111FC6",
"W. c #111FC6",
"Q. c #111FC6",
"!. c #111FC6",
"~. c #111FC6",
"^. c #111FC6",
"/. c #111FC6",
"(. c #111FC6",
"). c #111FC6",
"_. c #111FC6",
"`. c #111FC6",
"'. c #111FC6",
"]. c #111FC6",
"[. c #111FC6",
"{. c #111FC6",
"}. c #111FC6",
"|. c #111FC6",
" X c #111FC6",
".X c #111FC6",
"XX c #111FC6",
"oX c #111FC6",
"OX c #111FC6",
"+X c #111FC6",
"@X c #111FC6",
"#X c #111FC6",
"$X c #111FC6",
"%X c #111FC6",
"&X c #111FC6",
"*X c #111FC6",
"=X c #111FC6",
"-X c #111FC6",
";X c #111FC6",
":X c #111FC6",
">X c #111FC6",
",X c #111FC6",
"<X c #111FC6",
"1X c #111FC6",
"2X c #111FC6",
"3X c #111FC6",
"4X c #111FC6",
"5X c #111FC6",
"6X c #111FC6",
"7X c #111FC6",
"8X c #111FC6",
"9X c #111FC6",
"0X c #101FC5",
"qX c #111FC6",
"wX c #111FC6",
"eX c #111FC6",
"rX c #111FC6",
"tX c #111FC6",
"yX c #111FC6",
"uX c #111FC6",
"iX c #111FC6",
"pX c #111FC6",
"aX c #111FC6",
"sX c #111FC6",
"dX c #111FC6",
"fX c #111FC6",
"gX c #111FC6",
"hX c #101FC5",
"jX c #111FC6",
"kX c #111FC6",
"lX c #111FC6",
"zX c #111FC6",
"xX c #111FC6",
"cX c #111FC6",
"vX c #111FC6",
"bX c #111FC6",
"nX c None",
/* pixels */
"nXnXnXnXnXnXnXnXnXnXnXnXnXnXnXnXnXnXnXnXnXnXnXnXnXnXnXnXnXnXnXnXnXnXnXnXnXnXnXnXnXnXnXnXnXnXnXnXnXnXnXnXnXnXnXnXnXnXnXnXnXnXnXnXnXnXnXnXnXnXnXnXnXnXnXnXnXnXnXnX",
"nXnXnXnXnXnXnXnXnXnXnXnXnXnXnXnXnXnXnXnXnXnXnXnXnXnXnXnXnXnXnXnXnXnXnXnXnXnXnXnXnXnXnXnXnXnXnXnXnXnXnXnXnXnXnXnXnXnXnXnXnXnXnXnXnXnXnXnXnXnXnXnXnXnXnXnXnXnXnXnX",
"nXnXnXnXnXnXnXnXnXnXnXnXnXnXnXnXnXnXnXnXnXnXnXnXnXnXnXnXnXnXnXnXnXnXnXnXnXnXnXnXnXnXnXnXnXnXnXnXnXnXnXnXnXnXnXnXnXnXnXnXnXnXnXnXnXnXnXnXnXnXnXnXnXnXnXnXnXnXnXnX",
"nXnXnXnXnXnXnXnXnXnXnXnXnXnXnXnXnXnXnXnXnXnXnXnXnXnXnXnXnXnXnXnXnXnXnXnXnXnXnXnXnXnXnXnXnXnXnXnXnXnXnXnXnXnXnXnXnXnXnXnXnXnXnXnXnXnXnXnXnXnXnXnXnXnXnXnXnXnXnXnX",
"nXnXnXnXnXnXnXnXnXnXnXnXnXnXnXnXnXnXnXnXnXnXnXnXnXnXnXnXnXnXnXnXnXnXnXnXnXnXnXnXnXnXnXnXnXnXnXnXnXnXnXnXnXnXnXnXnXnXnXnXnXnXnXnXnXnXnXnXnXnXnXnXnXnXnXnXnXnXnXnX",
"nXnXnXnXnXnXnXnXnXnXnXnXnXnXnXnXnXnXnXnXnXnXnXnXnXnXnXnXnXnXnXnXnXnXnXnXnXnXnXnXnXnXnXnXnXnXnXnXnXnXnXnXnXnXnXnXnXnXnXnXnXnXnXnXnXnXnXnXnXnXnXnXnXnXnXnXnXnXnXnX",
"nXnXnXnXnXnXnXnXnXnXnXnXnXnXnXnXnXnXnXnXnXnXnXnXnXnXnXnXnXnXnXnXnXnXnXnXnXnXnXnXnXnXnXnXnXnXnXnXnXnXnXnXnXnXnXnXnXnXnXnXnXnXnXnXnXnXnXnXnXnXnXnXnXnXnXnXnXnXnXnX",
"nXnXnXnXnXnXnXnXnXnXnXnXnXnXnXnXnXnXnXnXnXnXnXnXnXnXnXnXnXnXnXnXnXnXnXnXnXnXnXnXnXnXnXnXnXnXnXnXnXnXnXnXnXnXnXnXnXnXnXnXnXnXnXnXnXnXnXnXnXnXnXnXnXnXnXnXnXnXnXnX",
"nXnXnXnXnXnXnXnXnXnXnXnXnXnXnXnXnXnXnXnXnXnXnXnXnXnXnXnXnXnXnXnXnXnXnXnXnXnXnXnXnXnXnXnXnXnXnXnXnXnXnXnXnXnXnXnXnXnXnXnXnXnXnXnXnXnXnXnXnXnXnXnXnXnXnXnXnXnXnXnX",
"nXnXnXnXnXnXnXnXnXnXnXnXnXnXnXnXnXnXnXnXnXnXnXnXnXnXnXnXnXnXnXnXnXnXnXnXnXnXnXnXnXnXnXnXnXnXnXnXnXnXnXnXnXnXnXnXnXnXnXnXnXnXnXnXnXnXnXnXnXnXnXnXnXnXnXnXnXnXnXnX",
"nXnXnXnXnXnXnXnXnXnXnXnXnXnXnXnXnXnXnXnXnXnXnXnXnXnXnXnXnXnXnXnXnXnXnXnXnXnXnXnXnXnXnXnXnXnXnXnXnXnXnXnXnXnXnXnXnXnXnXnXnXnXnXnXnXnXnXnXnXnXnXnXnXnXnXnXnXnXnXnX",
"nXnXnXnXnXnXnXnXnXnXnXnXnXnXnXnXnXnXnXnXnXnXnXnXnXnXnXnXnXnXnXnXnXnXnXnXnXnXnXnXnXnXnXnXnXnXnXnXnXnXnXnXnXnXnXnXnXnXnXnXnXnXnXnXnXnXnXnXnXnXnXnXnXnXnXnXnXnXnXnX",
"nXnXnXnXnXnXnXnXnXnXnXnXnXnXnXnXnXnXnXnXnXnXnXnXnXnXnXnXnXnXnXnXnXnXnXnXnXnXnXnXnXnXnXnXnXnXnXnXnXnXnXnXnXnXnXnXnXnXnXnXnXnXnXnXnXnXnXnXnXnXnXnXnXnXnXnXnXnXnXnX",
"nXnXnXnXnXnXnXnXnXnXnXnXnXnXnXnXnXnXnXnXnXnXnXnXnXnXnXnXnXnXnXnXnXnXnXnXnXnXnXnXnXnXnXnXnXnXnXnXnXnXnXnXnXnXnXnXnXnXnXnXnXnXnXnXnXnXnXnXnXnXnXnXnXnXnXnXnXnXnXnX",
"nXnXnXnXnXnXnXnXnXnXnXnXnXnXnXnXnXnXnXnXnXnXnXnXnXnXnXnXnXnXnXnXnXnXnXnXnXnXnXnXnXnXnXnXnXnXnXnXnXnXnXnXnXnXnXnXnXnXnXnXnXnXnXnXnXnXnXnXnXnXnXnXnXnXnXnXnXnXnXnX",
"nXnXnXnXnXnXnXnXnXnXnXnXnXnXnXnXnXnXnXnXnXnXnXnXnXnXnXnXnXnXnXnXnXnXnXnXnXnXnXnXnXnXnXnXnXnXnXnXnXnXnXnXnXnXnXnXnXnXnXnXnXnXnXnXnXnXnXnXnXnXnXnXnXnXnXnXnXnXnXnX",
"nXnXnXnXnXnXnXnXnXnXnXnXnXnXnXnXnXnXnXnXnXnXnXnXnXnXnXnXnXnXnXnXnXnXnXnXnXnXnXnXnXnXnXnXnXnXnXnXnXnXnXnXnXnXnXnXnXnXnXnXnXnXnXnXnXnXnXnXnXnXnXnXnXnXnXnXnXnXnXnX",
"nXnXnXnXnXnXnXnXnXnXnXnXnXnXnXnXnXnXnXnXnXnXnXnXnXnXnXnXnXnXnXnXnXnXnXnXnXnXnXnXnXnXnXnXnXnXnXnXnXnXnXnXnXnXnXnXnXnXnXnXnXnXnXnXnXnXnXnXnXnXnXnXnXnXnXnXnXnXnXnX",
"nXnXnXnXnXnXnXnXnXnXnXnXnXnXnXnXnXnXnXnXnXnXnXnXnXnXnXnXnXnXnXnXnXnXnXnXnXnXnXnXnXnXnXnXnXnXnXnXnXnXnXnXnXnXnXnXnXnXnXnXnXnXnXnXnXnXnXnXnXnXnXnXnXnXnXnXnXnXnXnX",
"nXnXnXnXnXnXnXnXnXnXnXnXnXnXnXnXnXnXnXnXnXnXnXnXnXnXnXnXnXnXnXnXnXnXnXnXnXnXnXnXnXnXnXnXnXnXnXnXnXnXnXnXnXnXnXnXnXnXnXnXnXnXnXnXnXnXnXnXnXnXnXnXnXnXnXnXnXnXnXnX",
"nXnXnXnXnXnXnXnXnXnXnXnXnXnXnXnXnXnXnXnXnXnXnXnXnXnXnXnXnXnXnXnXnXnXnXnXnXnXnXnXnXnXnXnXnXnXnXnXnXnXnXnXnXnXnXnXnXnXnXnXnXnXnXnXnXnXnXnXnXnXnXnXnXnXnXnXnXnXnXnX",
"nXnXnXnXnXnXnXnXnXnXnXnXnXnXnXnXnXnXnXnXnXnXnXnXnXnXnXnXnXnXnXnXnXnXnXnXnXnXnXnXnXnXnXnXnXnXnXnXnXnXnXnXnXnXnXnXnXnXnXnXnXnXnXnXnXnXnXnXnXnXnXnXnXnXnXnXnXnXnXnX",
"nXnXnXnXnXnXnXnXnXnXnXnXnXnXnXnXnXnXnXnXnXnXnXnXnXnXnXnXnXnXnXnXnXnXnXnXnXnXnXnXnXnXnXnXnXnXnXnXnXnXnXnXnXnXnXnXnXnXnXnXnXnXnXnXnXnXnXnXnXnXnXnXnXnXnXnXnXnXnXnX",
"nXnXnXnXnXnXnXnXnXnXnXnXnXnXnXnXaXnXI.$ kXnXaXnXnXnXnXnXnXnXnXnXnXnXnXnXnXnXnXnXnXnXnXnXnXnXnXnXnXnXnXnXnXnXnXnXnXnXnXnXnXnXnXnXnXnXnXnXnXnXnXnXnXnXnXnXnXnXnXnX",
"nXnXnXnXnXnXnXnXnXnXnXnXnXnXnXnXaXnXI.Q P I.kXnXnXkXnXnXnXnXnXnXnXnXnXnXnXnXnXnXnXnXnXnXnXnXnXnXnXnXnXnXnXnXnXnXnXnXnXnXnXnXnXnXnXnXnXnXnXnXnXnXnXnXnXnXnXnXnXnX",
"nXnXnXnXnXnXnXnXnXnXnXnXnXnXnXnXaXnX<.Q Q Q B `.kXnXkXnXnXnXnXnXnXnXnXnXnXnXnXnXnXnXnXnXnXnXnXnXnXnXnXnXnXnXnXnXnXnXnXnXnXnXnXnXnXnXnXnXnXnXnXnXnXnXnXnXnXnXnXnX",
"nXnXnXnXnXnXnXnXnXnXnXnXnXnXnXnXnXnXI.Q ' ' Q Q % 7XnXnXnXnXnXnXnXnXnXnXnXnXnXnXnXnXnXnXnXnXnXnXnXnXnXnXnXnXnXnXnXnXnXnXnXnXnXnXnXnXnXnXnXnXnXnXnXnXnXnXnXnXnXnX",
"nXnXnXnXnXnXnXnXnXnXnXnXnXnXnXnXkXnXI.Q Q Q ' Q Q [ y.nXnXpXnXnXnXnXnXnXnXnXnXnXnXnXnXnXnXnXnXnXnXnXnXnXnXnXnXnXnXnXnXnXnXnXnXnXnXnXnXnXnXnXnXnXnXnXnXnXnXnXnXnX",
"nXnXnXnXnXnXnXnXnXnXnXnXnXnXnXnXkXnXI.Q ' Q Q Q ' Q Q R 5.nXnXnXnXnXnXnXnXnXnXnXnXnXnXnXnXnXnXnXnXnXnXnXnXnXnXnXnXnXnXnXnXnXnXnXnXnXnXnXnXnXnXnXnXnXnXnXnXnXnXnX",
"nXnXnXnXnXnXnXnXnXnXnXnXnXnXnXnXaXnXI.Q Q Q Q Q Q Q ' Q Q o.=XnXnXnXpXnXnXnXnXnXnXnXnXnXnXnXnXnXnXnXnXnXnXnXnXnXnXnXnXnXnXnXnXnXnXnXnXnXnXnXnXnXnXnXnXnXnXnXnXnX",
"nXnXnXnXnXnXnXnXnXnXnXnXnXnXnXnXaXnXI.Q [ ' Q Q Q Q Q Q Q Q Q w 7XnXnXvXnXnXnXnXnXnXnXnXnXnXnXnXnXnXnXnXnXnXnXnXnXnXnXnXnXnXnXnXnXnXnXnXnXnXnXnXnXnXnXnXnXnXnXnX",
"nXnXnXnXnXnXnXnXnXnXnXnXnXnXnXnXaXnX<.Q Q Q Q Q Q Q Q Q Q W Q Q f j.nXnXnXnXnXnXnXnXnXnXnXnXnXnXnXnXnXnXnXnXnXnXnXnXnXnXnXnXnXnXnXnXnXnXnXnXnXnXnXnXnXnXnXnXnXnX",
"bXbXcXcXcXcXxXsXcXcXaXkXcXcXaXkXqXqX{.Q O.-.C Q Q Q Q Q Q Q Q Q Q Q B @XnXnXnXnXaXcXcXbXbXbXvXnXnXnXnXnXaXaXcXcXvXvXvXvXvXvXvXvXaXaXcXcXcXbXkXaXaXcXcXcXnXnXnXnX",
"bXbXbXcXcXxXsXdXzXkXkX8XaXkXkXdXqXuX7.Q xXxXI.Q ` Q Q Q Q Q Q Q Q Q Q Q ;.7XnXnXaXaXcXlXvXbXvXvXnXnXvXbXgXgXcXcXvXvXvXvXvXcXbXvXfXjXaXaXcXcX9X9XaXaXcXcXnXnXnXnX",
"bXbXzXzXcXcX9XdXcXcXiX8XcXcX8XdXkXsXI.Q qXsX;.Q Q Q Q Q Q Q Q Q Q Q W W Q Q 6 7XkXkXvXnXvXvXvXvXkXkXvXvXqXgXcXcXvXvXvXvXgX9XvXvXpXjXkXfXcX9XjX9XjX9XbXcXvXnXnXnX",
"bXbXxXsXdX!.3. X3._.L.P.2._.3.`.I.sX2X;.kXxXI.;.;.;.;.P Q Q Q Q Q Q Q Q Q *.o.V.1XvXvXvXbXvXvXvXaXdXyX.XL.2XcXzXvXvXvXvXY.A._.bX).x.3.8.7.L.<.S.1.L.T.bXnXnXnXnX",
"nXnXnXcXO.Q Q Q Q Q Q Q Q Q Q Q Q <XqXgXbXbXbXvXnXnXnXwXQ Q Q Q Q Q Q Q ;.nXnX@XQ ;.,XnXvXvXnXnXaXzX2XQ Q ;.cXaXvXvXbXnX-.Q Q zXm.Q Q Q Q Q Q Q Q Q Q #.bXbXnXnX",
"nXnXnX;.Q Q Q Q Q Q Q Q Q Q Q Q Q -XkXkXbXbXvXvXnXnXkXxX;.Q Q Q Q Q Q Q /.nXnXR Q Q Q ;.aXnXvXvXcXcX>XQ Q 1.zXkXbXbXbXnX;.Q Q aX1.Q Q Q Q Q Q Q Q Q Q Q 0 bXnXnX",
"nXnXnXQ Q ..).T.T.).5X(.1X~.3X-X~.kX%Xv zXbXI.R #.;.kXxXuXQ Q Q Q Q Q w nXnXM.Q Q Q Q Q Q I.nXnXaXlX:XQ Q 4.zXaXnXnXnXnX;.Q Q vXH.Q Q m.!.`.$X`.*X5.Q Q Q nXnXnX",
"nXnXnXQ Q -.pXrXyXqX9XpXdXjXdXnXqXgX`.Q lXnX;.Q Q Q ;.zXkX`.Q Q Q Q N nXnX7Xv Q Q Q Q Q Q Q [ 2XcXlX2XQ Q ;.cXqXkXaXvXnX;.Q Q vX1.Q Q <XdX8XvXcXfXkX#.Q Q nXnXnX",
"nXnXzX .Q Q ] h H c c c v c Q ;.,XdX2.Q 8XaX;.Q Q Q [ vXnXnXf Q [ Q I.nXaX;.Q Q Q Q Q Q Q Q J I.kXgX;XQ Q W h Q Q i ) J Q Q Q nXj.Q Q T.9X9XcXcXbXnX;.Q Q nXnXnX",
"nXnXzXpX] Q Q Q Q Q Q Q Q Q Q Q k gX`.Q pXfXI.Q Q Q Q ;.nXnX2XQ Q ;.nXnX:XQ Q Q Q Q Q Q Q I.vXvXkXjX2XQ Q Q Q Q Q Q Q Q Q Q Q nX<.Q Q 3XkXdXcXcXbXnX;.Q Q nXnXnX",
"nXnXnXnXeX4.K.;.;.;.<.;.L.;.;.Q Q <X9.Q 9XxX;.Q Q Q Q Q 2XnXnX;.Q =XnXnX;.Q Q Q Q Q Q ;.aXlXvXvXkXzX2XQ Q } ;.;.;.;.;.;.R Q Q nXH.Q Q !.aXkXaXaXcXbX;.Q Q nXnXnX",
"nXnXnXnXdXnXnXnXlXzXzXnXzXzXfXQ Q !.8.Q 9XaX@XQ Q Q Q Q H nXnXrXI.vXvXI.Q Q Q Q Q -.qXnXvXbXvXvXzXcX;XQ Q 4.nXvXnXnXbXbX;.Q Q nX2.Q Q ,XzXcXcXcXbXbX;.Q Q nXbXbX",
"cXxXkX1.*.;.;.;.;.;.;.;.;.;.J Q Q <X%XQ 2XnXcXrX5XwXI Q Q 5.vXlXcXcXnX[ Q Q Q l T.fXbXzXlXbXvXvXzXbX;XQ Q ;.nXbXcXcXcXnX<.Q Q nXH.Q Q ;.;.K.;.;.;.;._ Q Q cXbXbX",
"cXxXsXK Q Q Q Q Q Q Q Q Q Q Q Q Z 8Xq.Q c nXcXcXgX9X;.Q Q Q tXvXcXlX;.Q Q m I.bXsXfXlXbXbXbXvXvXcXcX;XQ Q 4.nXnXcXbXcXbX;.Q Q bX,.Q Q Q Q Q Q Q Q Q Q Q _.nXbXbX",
"cXlXnX;.h f l I j I I v J U p x.zXbX`.Q Q [ I.I.`.7.I Q Q Q N uXlXI.Q Q ;.xXbXbXsXzXzXbXbXvXvXvXsXsX2XQ Q ;.bXcXbXbXbXbX;.Q Q nXS.Q Q Q Q Q Q Q Q Q f '.nXnXnXnX",
"bXbXnXnXnXnXnXnXnXnXnXnXnXnXbXbXbXbX^.Q Q Q Q Q Q Q Q Q Q Q Q Q Q Q B I.nXnXlXbXaXzXlXlXvXvXvXvXzXfXqX;X>XfXbXbXbXbXbXnXaXwXjXnXyX7XeX,XuXkX5X:XyX-XhXsXbXnXnXnX",
"bXnXnXnXnXnXnXnXnXnXnXnXnXnXnXbXfXaX`.Q Q Q Q Q Q Q Q Q Q Q Q Q Q _.vXvXbXvXnXnXnXnXnXnXnXnXnXnXcXcXvXvXvXvXvXnXnXnXnXvXnXvXvXvXnXnXnXbXnXnXbXbXnXbXnXbXnXnXnXnX",
"bXbXnXbXbXnXbXnXnXbXnXbXbXnXbXbXsXsX6.Q Q Q Q Q Q Q Q Q Q Q Q ;.sXvXvXvXvXnXnXnXnXnXnXnXnXnXnXnXcXcXvXcXvXvXvXnXnXnXnXnXvXvXvXnXnXbXbXbXbXbXbXbXbXbXbXbXnXnXnXnX",
"nXnXnXnXnXnXnXnXnXnXnXnXnXnXbXnX0XfX{.Q Q Q Q Q Q Q Q Q Q O.>XbXzXzXvXnXvXvXnXnXnXnXnXnXnXnXnXnXvXvXvXvXnXnXnXnXnXnXnXnXnXnXvXvXnXnXnXnXbXnXnXnXnXnXbXnXnXnXnXnX",
"nXnXnXnXnXnXnXnXnXnXnXnXnXnXnXnX9XpX7.Q Q Q Q Q Q Q Q R $XaXsXzXcXzXvXvXvXvXnXnXnXnXnXnXnXnXnXnXvXvXvXvXnXnXnXnXnXnXnXnXnXnXnXnXnXnXnXnXnXnXnXnXnXnXnXnXnXnXnXnX",
"nXnXnXnXnXnXnXnXnXnXnXnXnXnXnXnXsXcX`.Q Q Q Q Q Q Q 3.gXkXkXlXbXcXvXvXvXnXnXnXnXnXnXnXnXnXnXnXnXvXvXnXnXnXnXnXnXnXnXnXnXnXnXnXnXnXnXnXnXnXnXnXnXnXnXnXnXnXnXnXnX",
"nXnXnXnXnXnXnXnXnXnXnXnXnXnXnXnXsXaX6.Q Q Q Q Q ;.nXnXnXsXaXnXnXbXbXvXvXnXnXnXnXnXnXnXnXnXnXnXnXvXvXnXnXnXnXnXnXnXnXnXnXnXnXnXnXnXnXnXnXnXnXnXnXnXnXnXnXnXnXnXnX",
"nXnXnXnXnXnXnXnXnXnXnXnXnXnXnXnXqXfX$XQ Q Q R 6XnXnXbXnXzXlXlXbXnXvXvXvXnXnXnXnXnXnXnXnXnXnXnXnXvXnXnXnXnXnXnXnXnXnXnXnXnXnXnXnXnXnXnXnXnXnXnXnXnXnXnXnXnXnXnXnX",
"nXnXnXnXnXnXnXnXnXnXnXnXnXnXnXnXqXqX9.Q Q {.vXvXnXnXnXnXzXzXbXbXnXvXvXvXnXnXnXnXnXnXnXnXnXnXnXnXvXnXnXnXnXnXnXnXnXnXnXnXnXnXnXnXnXnXnXnXnXnXnXnXnXnXnXnXnXnXnXnX",
"nXnXnXnXnXnXnXnXnXnXnXnXnXnXnXnXvXvX{.;.cXzXvXbXnXnXnXnXnXnXnXnXnXnXnXnXnXnXnXnXnXnXnXnXnXnXnXnXnXnXnXnXnXnXnXnXnXnXnXnXnXnXnXnXnXnXnXnXnXnXnXnXnXnXnXnXnXnXnXnX",
"nXnXnXnXnXnXnXnXnXnXnXnXnXnXnXnXnXnXgXsXbXcXvXvXnXnXnXnXnXnXnXnXnXnXnXnXnXnXnXnXnXnXnXnXnXnXnXnXnXnXnXnXnXnXnXnXnXnXnXnXnXnXnXnXnXnXnXnXnXnXnXnXnXnXnXnXnXnXnXnX",
"nXnXnXnXnXnXnXnXnXnXnXnXnXnXnXnXnXnXnXnXbXvXvXvXnXnXnXnXnXnXnXnXnXnXnXnXnXnXnXnXnXnXnXnXnXnXnXnXnXnXnXnXnXnXnXnXnXnXnXnXnXnXnXnXnXnXnXnXnXnXnXnXnXnXnXnXnXnXnXnX",
"nXnXnXnXnXnXnXnXnXnXnXnXnXnXnXnXnXnXnXnXbXvXvXvXnXnXnXnXnXnXnXnXnXnXnXnXnXnXnXnXnXnXnXnXnXnXnXnXnXnXnXnXnXnXnXnXnXnXnXnXnXnXnXnXnXnXnXnXnXnXnXnXnXnXnXnXnXnXnXnX",
"nXnXnXnXnXnXnXnXnXnXnXnXnXnXnXnXnXnXnXnXnXnXnXnXnXnXnXnXnXnXnXnXnXnXnXnXnXnXnXnXnXnXnXnXnXnXnXnXnXnXnXnXnXnXnXnXnXnXnXnXnXnXnXnXnXnXnXnXnXnXnXnXnXnXnXnXnXnXnXnX",
"nXnXnXnXnXnXnXnXnXnXnXnXnXnXnXnXnXnXnXnXnXnXnXnXnXnXnXnXnXnXnXnXnXnXnXnXnXnXnXnXnXnXnXnXnXnXnXnXnXnXnXnXnXnXnXnXnXnXnXnXnXnXnXnXnXnXnXnXnXnXnXnXnXnXnXnXnXnXnXnX",
"nXnXnXnXnXnXnXnXnXnXnXnXnXnXnXnXnXnXnXnXnXnXnXnXnXnXnXnXnXnXnXnXnXnXnXnXnXnXnXnXnXnXnXnXnXnXnXnXnXnXnXnXnXnXnXnXnXnXnXnXnXnXnXnXnXnXnXnXnXnXnXnXnXnXnXnXnXnXnXnX",
"nXnXnXnXnXnXnXnXnXnXnXnXnXnXnXnXnXnXnXnXnXnXnXnXnXnXnXnXnXnXnXnXnXnXnXnXnXnXnXnXnXnXnXnXnXnXnXnXnXnXnXnXnXnXnXnXnXnXnXnXnXnXnXnXnXnXnXnXnXnXnXnXnXnXnXnXnXnXnXnX",
"nXnXnXnXnXnXnXnXnXnXnXnXnXnXnXnXnXnXnXnXnXnXnXnXnXnXnXnXnXnXnXnXnXnXnXnXnXnXnXnXnXnXnXnXnXnXnXnXnXnXnXnXnXnXnXnXnXnXnXnXnXnXnXnXnXnXnXnXnXnXnXnXnXnXnXnXnXnXnXnX",
"nXnXnXnXnXnXnXnXnXnXnXnXnXnXnXnXnXnXnXnXnXnXnXnXnXnXnXnXnXnXnXnXnXnXnXnXnXnXnXnXnXnXnXnXnXnXnXnXnXnXnXnXnXnXnXnXnXnXnXnXnXnXnXnXnXnXnXnXnXnXnXnXnXnXnXnXnXnXnXnX",
"nXnXnXnXnXnXnXnXnXnXnXnXnXnXnXnXnXnXnXnXnXnXnXnXnXnXnXnXnXnXnXnXnXnXnXnXnXnXnXnXnXnXnXnXnXnXnXnXnXnXnXnXnXnXnXnXnXnXnXnXnXnXnXnXnXnXnXnXnXnXnXnXnXnXnXnXnXnXnXnX",
"nXnXnXnXnXnXnXnXnXnXnXnXnXnXnXnXnXnXnXnXnXnXnXnXnXnXnXnXnXnXnXnXnXnXnXnXnXnXnXnXnXnXnXnXnXnXnXnXnXnXnXnXnXnXnXnXnXnXnXnXnXnXnXnXnXnXnXnXnXnXnXnXnXnXnXnXnXnXnXnX",
"nXnXnXnXnXnXnXnXnXnXnXnXnXnXnXnXnXnXnXnXnXnXnXnXnXnXnXnXnXnXnXnXnXnXnXnXnXnXnXnXnXnXnXnXnXnXnXnXnXnXnXnXnXnXnXnXnXnXnXnXnXnXnXnXnXnXnXnXnXnXnXnXnXnXnXnXnXnXnXnX",
"nXnXnXnXnXnXnXnXnXnXnXnXnXnXnXnXnXnXnXnXnXnXnXnXnXnXnXnXnXnXnXnXnXnXnXnXnXnXnXnXnXnXnXnXnXnXnXnXnXnXnXnXnXnXnXnXnXnXnXnXnXnXnXnXnXnXnXnXnXnXnXnXnXnXnXnXnXnXnXnX",
"nXnXnXnXnXnXnXnXnXnXnXnXnXnXnXnXnXnXnXnXnXnXnXnXnXnXnXnXnXnXnXnXnXnXnXnXnXnXnXnXnXnXnXnXnXnXnXnXnXnXnXnXnXnXnXnXnXnXnXnXnXnXnXnXnXnXnXnXnXnXnXnXnXnXnXnXnXnXnXnX",
"nXnXnXnXnXnXnXnXnXnXnXnXnXnXnXnXnXnXnXnXnXnXnXnXnXnXnXnXnXnXnXnXnXnXnXnXnXnXnXnXnXnXnXnXnXnXnXnXnXnXnXnXnXnXnXnXnXnXnXnXnXnXnXnXnXnXnXnXnXnXnXnXnXnXnXnXnXnXnXnX",
"nXnXnXnXnXnXnXnXnXnXnXnXnXnXnXnXnXnXnXnXnXnXnXnXnXnXnXnXnXnXnXnXnXnXnXnXnXnXnXnXnXnXnXnXnXnXnXnXnXnXnXnXnXnXnXnXnXnXnXnXnXnXnXnXnXnXnXnXnXnXnXnXnXnXnXnXnXnXnXnX",
"nXnXnXnXnXnXnXnXnXnXnXnXnXnXnXnXnXnXnXnXnXnXnXnXnXnXnXnXnXnXnXnXnXnXnXnXnXnXnXnXnXnXnXnXnXnXnXnXnXnXnXnXnXnXnXnXnXnXnXnXnXnXnXnXnXnXnXnXnXnXnXnXnXnXnXnXnXnXnXnX",
"nXnXnXnXnXnXnXnXnXnXnXnXnXnXnXnXnXnXnXnXnXnXnXnXnXnXnXnXnXnXnXnXnXnXnXnXnXnXnXnXnXnXnXnXnXnXnXnXnXnXnXnXnXnXnXnXnXnXnXnXnXnXnXnXnXnXnXnXnXnXnXnXnXnXnXnXnXnXnXnX",
"nXnXnXnXnXnXnXnXnXnXnXnXnXnXnXnXnXnXnXnXnXnXnXnXnXnXnXnXnXnXnXnXnXnXnXnXnXnXnXnXnXnXnXnXnXnXnXnXnXnXnXnXnXnXnXnXnXnXnXnXnXnXnXnXnXnXnXnXnXnXnXnXnXnXnXnXnXnXnXnX",
"nXnXnXnXnXnXnXnXnXnXnXnXnXnXnXnXnXnXnXnXnXnXnXnXnXnXnXnXnXnXnXnXnXnXnXnXnXnXnXnXnXnXnXnXnXnXnXnXnXnXnXnXnXnXnXnXnXnXnXnXnXnXnXnXnXnXnXnXnXnXnXnXnXnXnXnXnXnXnXnX",
"nXnXnXnXnXnXnXnXnXnXnXnXnXnXnXnXnXnXnXnXnXnXnXnXnXnXnXnXnXnXnXnXnXnXnXnXnXnXnXnXnXnXnXnXnXnXnXnXnXnXnXnXnXnXnXnXnXnXnXnXnXnXnXnXnXnXnXnXnXnXnXnXnXnXnXnXnXnXnXnX",
"nXnXnXnXnXnXnXnXnXnXnXnXnXnXnXnXnXnXnXnXnXnXnXnXnXnXnXnXnXnXnXnXnXnXnXnXnXnXnXnXnXnXnXnXnXnXnXnXnXnXnXnXnXnXnXnXnXnXnXnXnXnXnXnXnXnXnXnXnXnXnXnXnXnXnXnXnXnXnXnX",
"nXnXnXnXnXnXnXnXnXnXnXnXnXnXnXnXnXnXnXnXnXnXnXnXnXnXnXnXnXnXnXnXnXnXnXnXnXnXnXnXnXnXnXnXnXnXnXnXnXnXnXnXnXnXnXnXnXnXnXnXnXnXnXnXnXnXnXnXnXnXnXnXnXnXnXnXnXnXnXnX"
};
