/* XPM */
static char *xpm_[] = {
/* columns rows colors chars-per-pixel */
"80 80 81 1 ",
"  c #1B494A",
". c #0C3C51",
"X c #1F4C48",
"o c #335E3F",
"O c #2F5A41",
"+ c #3E6739",
"@ c #3E6739",
"# c #426A38",
"$ c #466E36",
"% c #2F5A41",
"& c #355F3E",
"* c #4F7532",
"= c #5A7F2C",
"- c #436B37",
"; c #4E7432",
": c #003257",
"> c #003257",
", c #003257",
"< c #003257",
"1 c #003257",
"2 c #12414F",
"3 c #12424E",
"4 c #003257",
"5 c #1E4B49",
"6 c #2A5643",
"7 c #315C40",
"8 c #001965",
"9 c #002E59",
"0 c #003257",
"q c #214E48",
"w c #013357",
"e c #003157",
"r c #013257",
"t c #003157",
"y c #0A3A52",
"u c #E20030",
"i c #003257",
"p c #E20030",
"a c #E20030",
"s c #E20030",
"d c #E20030",
"f c #E20030",
"g c #E20030",
"h c #6A8C25",
"j c #809F1A",
"k c #9AB50E",
"l c #8DAA14",
"z c #92AF12",
"x c #96B210",
"c c #A3BD0A",
"v c #ACC406",
"b c #B4CC02",
"n c #BDD300",
"m c #C4DA00",
"M c #001E62",
"N c #003257",
"B c #001C63",
"V c #003257",
"C c #003257",
"Z c #003058",
"A c #E20030",
"S c #001766",
"D c #003257",
"F c #E20030",
"G c #E20030",
"H c #E20030",
"J c #E20030",
"K c #E20030",
"L c #E20030",
"P c #E20030",
"I c #003058",
"U c #003257",
"Y c #E20030",
"T c #001772",
"R c #E20030",
"E c #E20030",
"W c #E20030",
"Q c #002F5A",
"! c #E20030",
"~ c #0000A3",
"^ c None",
/* pixels */
"^^^^^^^^^^^^^^^^^^^^^^^^^^^^^^^^^^^^^^^^^^^^^^^^^^^^^^^^^^^^^^^^^^^^^^^^^^^^^^^^",
"^^^^^^^^^^^^^^^^^^^^^^^^^^^^^^^^^^^^^^^^^^^^^^^^^^^^^^^^^^^^^^^^^^^^^^^^^^^^^^^^",
"^^^^^^^^^^^^^^^^^^^^^^^^^^^^^^^^^^^^^^^^^^^^^^^^^^^^^^^^^^^^^^^^^^^^^^^^^^^^^^^^",
"^^^^^^^^^^^^^^^^^^^^^^^^^^^^^^^^^^^^^^^^^^^^^^^^^^^^^^^^^^^^^^^^^^^^^^^^^^^^^^^^",
"^^^^^^^^^^^^^^^^^^^^^^^^^^^^^^^^^^^^^^^^^^^^^^^^^^^^^^^^^^^^^^^^^^^^^^^^^^^^^^^^",
"^^^^^^^^^^^^^^^^^^^^^^^^^^^^^^^^^^^^^^^^^^^^^^^^^^^^^^^^^^^^^^^^^^^^^^^^^^^^^^^^",
"^^^^^^^^^^^^^^^^^^^^^^^^^^^^^^^^^^^^^^^^^^^^^^^^^^^^^^^^^^^^^^^^^^^^^^^^^^^^^^^^",
"^^^^^^^^^^^^^^^^^^^^^^^^^^^^^^^^^^^^^^^^^^^^^^^^^^^^^^^^^^^^^^^^^^^^^^^^^^^^^^^^",
"^^^^^^^^^^^^^^^^^^^^^^^^^^^^^^^^^^^^^^^^^^^^^^^^^^^^^^^^^^^^^^^^^^^^^^^^^^^^^^^^",
"^^^^^^^^^^^^^^^^^^^^^^^^^^^^^^^^^^^^^^^^^^^^^^^^^^^^^^^^^^^^^^^^^^^^^^^^^^^^^^^^",
"^^^^^^^^^^^^^^^^^^^^^^^^^^^^^^^^^^^^^^^^^^^^^^^^^^^^^^^^^^^^^^^^^^^^^^^^^^^^^^^^",
"^^^^^^^^^^^^^^^^^^^^^^^^^^^^^^^^^^^^^^^^^^^^^^^^^^^^^^^^^^^^^^^^^^^^^^^^^^^^^^^^",
"^^^^^^^^^^^^^^^^^^^^^^^^^^^^^^^^^^^^^^^^^^^^^^^^^^^^^^^^^^^^^^^^^^^^^^^^^^^^^^^^",
"^^^^^^^^^^^^^^^^^^^^^^^^^^^^^^^^^^^^^^^^^^^^^^^^^^^^^^^^^^^^^^^^^^^^^^^^^^^^^^^^",
"^^^^^^^^^^^^^^^^^^^^^^^^^^^^^^^^^^^^^^^^^^^^^^^^^^^^^^^^^^^^^^^^^^^^^^^^^^^^^^^^",
"^^^^^^^^^^^^^^^^^^^^^^^^^^^^^^^^^^^^^^^^^^^^^^^^^^^^^^^^^^^^^^^^^^^^^^^^^^^^^^^^",
"^^^^^^^^^^^^^^^^^^^^^^^^^^^^^^^^^^^^^^^^^^^^^^^^^^^^^^^^^^^^^^^^^^^^^^^^^^^^^^^^",
"^^^^^^^^^^^^^^^^^^^^^^^^^^^^^^^^^^^^^^^^^^^^^^^^^^^^^^^^^^^^^^^^^^^^^^^^^^^^^^^^",
"^^^^^^^^^^^^^^^^^^^^^^^^^^^^^^^^^^^^^^^^^^^^^^^^^^^^^^^^^^^^^^^^^^^^^^^^^^^^^^^^",
"^^^^^^^^^^^^^^^^^^^^^^^^^^^^^^^^^^^^^^^^^^^^^^^^^^^^^^^^^^^^^^^^^^^^^^^^^^^^^^^^",
"^^^^^^^^^^^^^^^^^^^^^^^^^^^^^^^^^^^^^^^^^^^^^^^^^^^^^^^^^^^^^^^^^^^^^^^^^^^^^^^^",
"^^^^^^^^^^^^^^^^^^^^^^^^^^^^^^^^^^^^^^^^^^^^^^^^^^^^^^^^^^^^^^^^^^^^^^^^^^^^^^^^",
"^^^^^^^^^^^^^^^^^^^^^^^^^^^^^^^^^^^^^^^^^^^^^^^^^^^^^^^^^^^^^^^^^^^^^^^^^^^^^^^^",
"^^^^^^^^^^^^^^^^^^^^^^^^^^^^^^^^^^^^^^^^^^^^^^^^^^^^^^^^^^^^^^^^^^^^^^^^^^^^^^^^",
"^^^^^^^^^^^^^^^^^^^^^^^^^^^^^^^^^^^^^^^^^^^^^^^^^^^^^^^^^^^^^^^^^^^^^^^^^^^^^^^^",
"^^^^^^^^^^^^^^^^^^^^^^^^^^^^^^^^^^^^^^^^^^^^^^^^^^^^^^^^^^^^^^^^^^^^^^^^^^^^^^^^",
"^^^^^^^^^^^^^^^^^^^^^^^^^^^^^^^^^^^^^^^^^^^^^^^^^^^^^^^^^^^^^^^^^^^^^^^^^^^^^^^^",
"^^^^^^^^^^^^^^^^^^^^^^^^^^^^^^^^^^^^^^^^^^^^^^^^^^^^^^^^^^^^^^^^^^^^^^^^^^^^^^^^",
"^^^^^^^^^^^^^^^^^^^^^^^^^^^^^^^^^^U^^^^^^^^^^^^^^^^^^^^^^^^^^^^^^^^^2-@@;@4^^^^^",
"^^^W^^^^^^^W^^^^^^^^^^^^^^^UUU^^^^^^^^^^^^^^^^^^^^^^^^^^^^^^^^^^^^^rhmbmmvq^^^^^",
"^^^pP^^^^^WsW^^^^^^^^^^^r4>>>>iU444Z^^Z44,S^^S14:Qw,4,,,,iV^^^^^^^^7mvvbvvq^^^^^",
"^^^ddW^^^^Wdd^^W^^^^^^U2>>>>>>4^>>>i^^r>5>w^^i>>>^4>>>>>>>>4^^^^^^tlbbbbbvq^^^^^",
"^^^dddY^Q^QdddQ^^^^^^^>>>>>>>>>^4>>4^^i>>>,^^i>>>^i>>>>>>>>>i^^^^Z;mcx;mccq^^^^^",
"^^^dddd!^^!ddddQ^Q^^^Q>>>>Q^^QU^i>>>^^1>>>>^^>>>i^,>>,^QC>>>>^^^^Xcmm76mbcq^^^^^",
"^^^dddddY^!dddddQ^^^^C>>>r^^^^^^Z>>>Z^>>>>>Q^>>>r^i>>1^^^i>>>U^^Zhmmj8+mbvq^^^^^",
"^^^FdddddR^Fddddd!^^^Z>>>>I^^^^^S>>>S^>>>>>UU>>>I^1>>>^^^i>>>Q^^OvcvXQ+mbvq^^^^^",
"^^^^Gddddd!^gdddddQ^^Q>>>>>1Z^^^^>>>ZI>><>>ZU>>>U^4>><^^I>>>:^^ijbm=S^7mbcq^^^^^",
"^^^^QFdddddRQgddddd!^^V>>>>>>>I^^>>>iC>>I>>Dr>>>Q^1>>>ii>>>>Q^Q;mvxi^^obvcq^^^^^",
"^^^^QEdddddAQKdddddY^^^I>>>>>>>Q^4>>ir>>Q>>yi>>,^^>>>>>>>>>U^^3cbm@8rr@mbc rr^^^",
"^^^^RdddddAQJdddddW^^^^^^Uy>>>>y^r>>>:>:^1>>>>>i^^4>>>>>>>^^^^7mbvzzzzcbbbcz7^^^",
"^^^EdddddAQFddddd!^^^^Q^^^^C>>>:^C>>>>>1^i>>>>>r^^4>>4r>>>i^^^6vvvmbmvbvbbbm;^^^",
"^^^dddddP^!dddddW^^^^^^^^^^^>>>>^Q>>>>>r^D>>>>>U^^4>>,^>>>>U^^Xcbmvbvbvvvvbn-^^^",
"^^^ddddR^^QddddWQ^^^^^WV^^^r>>>1^^>>>>>C^I>>>>>Q^^i>>:^Z>>>>^^y6%%66%6hmbv@%3^^^",
"^^^dddAQ^^!ddd!^Q^^^^^>6>>>>>>>Q^^>>>>>Q^Q>>>>>^^^i>>1^^i>>>i^^^^^^^^^@mvv2^^^^^",
"^^^ddAQ^^^!dd!^^^^^^^^>>>>>>>>Z^^^1>>>>^^^>>>>:^^^,>><^^Q>>>>Z^^^^^^^Q;mvvq^^^^^",
"^^^dRQ^^^^WdY^^^^^^^^^8>>>>>.U^^^^V>>>4^^^i>:>r^^^i>>>^^^Z>>>2^^^^^^^^-vxz ^^^^^",
"^^^E^Q^^^^!RQ^^^^^^^^^^QUQQ^^^^^^^^^^^^^^^^Q^^^^^^^^^^^^^^^Q^Q^^^^^^^QriyiC^^^^^",
"^^^^^^^^^^Q^^^^^^^^^^^^^QUU^^^^^^Q^^^^^^^^Q^^^^QQQ^^^^^^^^^^^^^^Q^^^^^^^^^^^^^^^",
"^^^^^^^^^^^^^^^^^^^^^^^^ZrCr^UQ^^iQQQ^QQ^^CUU1^iZIZ^ZrIZ^Z^QZ^Q^rQ^^Z^^QQQQ^^^^^",
"^^^^^^^^^^^^^^^^^^^^^^^^ZiiZQiiIriZriZiiI^UrCrZZZQZiDiriZiCrrirrirCrrrrrrr4^^^^^",
"^^^^^^^^^^^^^^^^^^^^^^^^ZZQirCii^Z4rCrZIirQirS,QrQrr^rZCiCriQrQrZ^i1ZrrUr^r^^^^^",
"^^^^^^^^^^^^^^^^^^^^^^^^IirUCrCIriUrrIIUU^^rI^r^rrrC^rCrIrZCZZZCrrZZiSZUSri^^^^^",
"^^^^^^^^^^^^^^^^^^^^^^^^QQQ^^Q^^^^^^^^^^^^^^^^^^^^^^^^^^^^^^^^^^^^^^^^^^IiC^^^^^",
"^^^^^^^^^^^^^^^^^^^^^^^^^^^^^^^^^^^^^^^^^^^^^^^^^^^^^^^^^^^^^^^^^^^^^^^^^^^^^^^^",
"^^^^^^^^^^^^^^^^^^^^^^^^^^^^^^^^^^^^^^^^^^^^^^^^^^^^^^^^^^^^^^^^^^^^^^^^^^^^^^^^",
"^^^^^^^^^^^^^^^^^^^^^^^^^^^^^^^^^^^^^^^^^^^^^^^^^^^^^^^^^^^^^^^^^^^^^^^^^^^^^^^^",
"^^^^^^^^^^^^^^^^^^^^^^^^^^^^^^^^^^^^^^^^^^^^^^^^^^^^^^^^^^^^^^^^^^^^^^^^^^^^^^^^",
"^^^^^^^^^^^^^^^^^^^^^^^^^^^^^^^^^^^^^^^^^^^^^^^^^^^^^^^^^^^^^^^^^^^^^^^^^^^^^^^^",
"^^^^^^^^^^^^^^^^^^^^^^^^^^^^^^^^^^^^^^^^^^^^^^^^^^^^^^^^^^^^^^^^^^^^^^^^^^^^^^^^",
"^^^^^^^^^^^^^^^^^^^^^^^^^^^^^^^^^^^^^^^^^^^^^^^^^^^^^^^^^^^^^^^^^^^^^^^^^^^^^^^^",
"^^^^^^^^^^^^^^^^^^^^^^^^^^^^^^^^^^^^^^^^^^^^^^^^^^^^^^^^^^^^^^^^^^^^^^^^^^^^^^^^",
"^^^^^^^^^^^^^^^^^^^^^^^^^^^^^^^^^^^^^^^^^^^^^^^^^^^^^^^^^^^^^^^^^^^^^^^^^^^^^^^^",
"^^^^^^^^^^^^^^^^^^^^^^^^^^^^^^^^^^^^^^^^^^^^^^^^^^^^^^^^^^^^^^^^^^^^^^^^^^^^^^^^",
"^^^^^^^^^^^^^^^^^^^^^^^^^^^^^^^^^^^^^^^^^^^^^^^^^^^^^^^^^^^^^^^^^^^^^^^^^^^^^^^^",
"^^^^^^^^^^^^^^^^^^^^^^^^^^^^^^^^^^^^^^^^^^^^^^^^^^^^^^^^^^^^^^^^^^^^^^^^^^^^^^^^",
"^^^^^^^^^^^^^^^^^^^^^^^^^^^^^^^^^^^^^^^^^^^^^^^^^^^^^^^^^^^^^^^^^^^^^^^^^^^^^^^^",
"^^^^^^^^^^^^^^^^^^^^^^^^^^^^^^^^^^^^^^^^^^^^^^^^^^^^^^^^^^^^^^^^^^^^^^^^^^^^^^^^",
"^^^^^^^^^^^^^^^^^^^^^^^^^^^^^^^^^^^^^^^^^^^^^^^^^^^^^^^^^^^^^^^^^^^^^^^^^^^^^^^^",
"^^^^^^^^^^^^^^^^^^^^^^^^^^^^^^^^^^^^^^^^^^^^^^^^^^^^^^^^^^^^^^^^^^^^^^^^^^^^^^^^",
"^^^^^^^^^^^^^^^^^^^^^^^^^^^^^^^^^^^^^^^^^^^^^^^^^^^^^^^^^^^^^^^^^^^^^^^^^^^^^^^^",
"^^^^^^^^^^^^^^^^^^^^^^^^^^^^^^^^^^^^^^^^^^^^^^^^^^^^^^^^^^^^^^^^^^^^^^^^^^^^^^^^",
"^^^^^^^^^^^^^^^^^^^^^^^^^^^^^^^^^^^^^^^^^^^^^^^^^^^^^^^^^^^^^^^^^^^^^^^^^^^^^^^^",
"^^^^^^^^^^^^^^^^^^^^^^^^^^^^^^^^^^^^^^^^^^^^^^^^^^^^^^^^^^^^^^^^^^^^^^^^^^^^^^^^",
"^^^^^^^^^^^^^^^^^^^^^^^^^^^^^^^^^^^^^^^^^^^^^^^^^^^^^^^^^^^^^^^^^^^^^^^^^^^^^^^^",
"^^^^^^^^^^^^^^^^^^^^^^^^^^^^^^^^^^^^^^^^^^^^^^^^^^^^^^^^^^^^^^^^^^^^^^^^^^^^^^^^",
"^^^^^^^^^^^^^^^^^^^^^^^^^^^^^^^^^^^^^^^^^^^^^^^^^^^^^^^^^^^^^^^^^^^^^^^^^^^^^^^^",
"^^^^^^^^^^^^^^^^^^^^^^^^^^^^^^^^^^^^^^^^^^^^^^^^^^^^^^^^^^^^^^^^^^^^^^^^^^^^^^^^",
"^^^^^^^^^^^^^^^^^^^^^^^^^^^^^^^^^^^^^^^^^^^^^^^^^^^^^^^^^^^^^^^^^^^^^^^^^^^^^^^^",
"^^^^^^^^^^^^^^^^^^^^^^^^^^^^^^^^^^^^^^^^^^^^^^^^^^^^^^^^^^^^^^^^^^^^^^^^^^^^^^^^",
"^^^^^^^^^^^^^^^^^^^^^^^^^^^^^^^^^^^^^^^^^^^^^^^^^^^^^^^^^^^^^^^^^^^^^^^^^^^^^^^^"
};
