/* XPM */
static char *xpm_[] = {
/* columns rows colors chars-per-pixel */
"80 80 206 2 ",
"   c #060108",
".  c #12020B",
"X  c #0F1009",
"o  c #1C1201",
"O  c #020413",
"+  c #150711",
"@  c #10000C",
"#  c #1F090E",
"$  c #250C07",
"%  c #2B1307",
"&  c #381808",
"*  c #220F13",
"=  c #291513",
"-  c #381B15",
";  c #271217",
":  c #391C0D",
">  c #382007",
",  c #3C2714",
"<  c #0F000C",
"1  c #10000C",
"2  c #0F0314",
"3  c #392013",
"4  c #4D1F09",
"5  c #431909",
"6  c #591E0D",
"7  c #4A1F16",
"8  c #472509",
"9  c #562909",
"0  c #453002",
"q  c #5B330A",
"w  c #462513",
"e  c #522E14",
"r  c #463019",
"t  c #593313",
"y  c #642A0A",
"u  c #673809",
"i  c #7A3608",
"p  c #6A3514",
"a  c #763D19",
"s  c #5D3D23",
"d  c #6F470A",
"f  c #7A4406",
"g  c #7B500D",
"h  c #694218",
"j  c #784615",
"k  c #79511C",
"l  c #6B4723",
"z  c #7A4821",
"x  c #745422",
"c  c #825318",
"v  c #9A6821",
"b  c #A06E32",
"n  c #10000C",
"m  c #0F000C",
"M  c #5B370D",
"N  c #10000C",
"B  c #230708",
"V  c #10000C",
"C  c #653C1B",
"Z  c #945919",
"A  c #6A3515",
"S  c #9A5A12",
"D  c #9E5C20",
"F  c #905126",
"G  c #965914",
"H  c #7E5420",
"J  c #965C1F",
"K  c #8E5816",
"L  c #9F5408",
"P  c #AC6D12",
"I  c #944E1E",
"U  c #925C1C",
"Y  c #A85C08",
"T  c #AD6F15",
"R  c #A96D0B",
"E  c #935920",
"W  c #A4661F",
"Q  c #A26A11",
"!  c #AA5F11",
"~  c #9B6424",
"^  c #AB711D",
"/  c #A6732F",
"(  c #874B08",
")  c #964A09",
"_  c #8B520C",
"`  c #995707",
"'  c #8A4A17",
"]  c #8A5519",
"[  c #995C19",
"{  c #A65C06",
"}  c #A45C19",
"|  c #B15E15",
" . c #99630D",
".. c #9C641A",
"X. c #A96206",
"o. c #B96808",
"O. c #B17104",
"+. c #A6671B",
"@. c #B76B16",
"#. c #AB7213",
"$. c #BA751A",
"%. c #BB7219",
"&. c #C7781A",
"*. c #C57D1C",
"=. c #BB7811",
"-. c #8E4E28",
";. c #885624",
":. c #9B5D26",
">. c #86652F",
",. c #996323",
"<. c #B27329",
"1. c #A66826",
"2. c #B76F25",
"3. c #AB7225",
"4. c #BC7826",
"5. c #C17125",
"6. c #C28029",
"7. c #B57328",
"8. c #A56118",
"9. c #B66B1A",
"0. c #A96E1B",
"q. c #B97019",
"w. c #A65B1E",
"e. c #B56F0E",
"r. c #B47620",
"t. c #BF8119",
"y. c #BD761C",
"u. c #CB8B1D",
"i. c #AA732D",
"p. c #A87134",
"a. c #B56B26",
"s. c #B96927",
"d. c #B47426",
"f. c #AD7B36",
"g. c #A5773A",
"h. c #C36D07",
"j. c #C87407",
"k. c #D97A04",
"l. c #C36816",
"z. c #C87A19",
"x. c #D57D19",
"c. c #E67E04",
"v. c #F47E02",
"b. c #EF7F13",
"n. c #F07F17",
"m. c #C36F20",
"M. c #C67B25",
"N. c #D27F23",
"B. c #B57025",
"V. c #BE6B11",
"C. c #BE8028",
"Z. c #DB8609",
"A. c #CB841A",
"S. c #D98719",
"D. c #DB9218",
"F. c #DA8B12",
"G. c #EA8903",
"H. c #F38803",
"J. c #E99208",
"K. c #F79204",
"L. c #E78A15",
"P. c #F48A14",
"I. c #E99216",
"U. c #F39213",
"Y. c #C98325",
"T. c #DA8825",
"R. c #D89228",
"E. c #CA8731",
"W. c #D49930",
"Q. c #E38C22",
"!. c #E79225",
"~. c #E09632",
"^. c #FBA125",
"/. c #10000C",
"(. c #22111B",
"). c #11010C",
"_. c #41201A",
"`. c #814114",
"'. c #83490E",
"]. c #693A12",
"[. c #825215",
"{. c #8A5616",
"}. c #9B6826",
"|. c #11020E",
" X c #5D371A",
".X c #10000C",
"XX c #5C351B",
"oX c #643D19",
"OX c #754317",
"+X c #8D4200",
"@X c #6F3109",
"#X c #834B14",
"$X c #AC5801",
"%X c #634330",
"&X c #8F5C15",
"*X c #A66F22",
"=X c #10000C",
"-X c #5C300D",
";X c #6B441B",
":X c #32170F",
">X c #6E350C",
",X c #91550A",
"<X c #C77510",
"1X c #250E0E",
"2X c #E86D00",
"3X c None",
/* pixels */
"3X3X3X3X3X3X3X3X3X3X3X3X3X3X3X3X3X3X3X3X3X3X3X3X3X3X3X3X3X3X3X3X3X3X3X3X3X3X3X3X3X3X3X3X3X3X3X3X3X3X3X3X3X3X3X3X3X3X3X3X3X3X3X3X3X3X3X3X3X3X3X3X3X3X3X3X3X3X3X3X",
"3X3X3X3X3X3X3X3X3X3X3X3X3X3X3X3X3X3X3X3X3X3X3X3X3X3X3X3X3X3X3X3X3X3X3X3X3X3X3X3X3X3X3X3X3X3X3X3X3X3X3X3X3X3X3X3X3X3X3X3X3X3X3X3X3X3X3X3X3X3X3X3X3X3X3X3X3X3X3X3X",
"3X3X3X3X3X3X3X3X3X3X3X3X3X3X3X3X3X3X3X3X3X3X3X3X3X3X3X3X3X3X3X3X3X3X3X3X3X3X3X3X3X3X3X3X3X3X3X3X3X3X3X3X3X3X3X3X3X3X3X3X3X3X3X3X3X3X3X3X3X3X3X3X3X3X3X3X3X3X3X3X",
"3X3X3X3X3X3X3X3X3X3X3X3X3X3X3X3X3X3X3X3X3X3X3X3X3X3X3X3X3X3X3X3X3X3X3X3X3X3X3X3X3X3X3X3X3X3X3X3X3X3X3X3X3X3X3X3X3X3X3X3X3X3X3X3X3X3X3X3X3X3X3X3X3X3X3X3X3X3X3X3X",
"3X3X3X3X3X3X3X3X3X3X3X3X3X3X3X3X3X3X3X3X3X3X3X3X3X3X3X3X3X3X3X3X3X3X3X3X3X3X3X3X3X3X3X3X3X3X3X3X3X3X3X3X3X3X3X3X3X3X3X3X3X3X3X3X3X3X3X3X3X3X3X3X3X3X3X3X3X3X3X3X",
"3X3X3X3X3X3X3X3X3X3X3X3X3X3X3X3X3X3X3X3X3X3X3X3X3X3X3X3X3X3X3X3X3X3X3X3X3X3X3X3X3X3X3X3X3X3X3X3X3X3X3X3X3X3X3X3X3X3X3X3X3X3X3X3X3X3X3X3X3X3X3X3X3X3X3X3X3X3X3X3X",
"3X3X3X3X3X3X3X3X3X3X3X3X3X3X3X3X3X3X3X3X3X3X3X3X3X3X3X3X3X3X3X3X3X3X3X3X3X3X3X3X3X3X3X3X3X3X3X3X3X1X3X3X3X3X3X3X3X3X3X3X3X3X3X3X3X3X3X3X3X3X3X3X3X3X3X3X3X3X3X3X",
"3X3X3X3X3X3X3X3X3X3X3X3X3X3X3X3X3X3X3X3X3X3X3X3X:XV.C.V.&X1X3X3X3X3X3X3X3X3X3X3X3X3X3X3X3X&XB.( K XX1X3X3X3X3X3X3X3X3X3X3X3X3X3X3X3X3X3X3X3X3X3X3X3X3X3X3X3X3X3X",
"3X3X3X3X3X3X3X3X3X3X3X3X3X3X3X3X3X3X3X3X3X3X3X3X_.z.L.L.T.f.Y @X1X3X3X3X3X3X3X3X3X3X3X3X1Xq.U.L.S.m.V.;X:X3X3X3X3X3X3X3X3X3X3X3X3X3X3X3X3X3X3X3X3X3X3X3X3X3X3X3X",
"3X3X3X3X3X3X3X3X3X3X3X3X3X3X3X3X3X3X3X3X3X3X3X:Xw.P.G.H.H.J.T.6.f. X:X1X3X3X3X3X3X3X3X3X_.T.K.H.P.K.^.Y.C.V.-X3X3X3X3X3X3X3X3X3X3X3X3X3X3X3X3X3X3X3X3X3X3X3X3X3X",
"3X3X3X3X3X3X3X3X3X3X3X3X3X3X3X3X3X3X3X3X3X3X3X-Xl.L.v.b.b.H.G.L.D.Z.Y.~ :X1X3X3X3X3X3X1XI P.v.v.P.G.G.G.I.D.F.v XX3X3X3X3X3X3X3X3X3X3X3X3X3X3X3X3X3X3X3X3X3X3X3X",
"3X3X3X3X3X3X3X3X3X3X3X3X3X3X3X3X3X3X3X3X3X3X3X'.F.G.G.H.L.G.G.G.G.J.^.E.,X3X3X3X3X3X3X:Xt.J.G.G.G.L.G.K.J.J.D.D.B.1X3X3X3X3X3X3X3X3X3X3X3X3X3X3X3X3X3X3X3X3X3X3X",
"3X3X3X3X3X3X3X3X3X3X3X3X3X3X3X3X3X3X3X3X3X3X3XV.J.G.G.G.G.L.G.G.H.H.H.L.A 3X3X3X3X3X3XXXI.K.G.G.G.L.L.G.Z.Z.Z.D.[ ,X3X3X3X3X3X3X3X3X3X3X3X3X3X3X3X3X3X3X3X3X3X3X",
"3X3X3X3X3X3X3X3X3X3X3X3X3X3X3X3X3X3X3X3X3X3X:X} J.H.G.G.G.J.J.G.H.H.H.P.] =X3X3X3X3X3X~ L.K.H.G.G.G.G.G.Z.Z.Z.Z.Y.A 3X3X3X3X3X3X3X3X3X3X3X3X3X3X3X3X3X3X3X3X3X3X",
"3X3X3X3X3X3X3X3X3X3X3X3X3X3X3X3X3X3X3X3X3X3XA S.H.G.H.G.G.G.G.G.H.H.H.H.S.H 1X3X3X3X>Xm.U.v.H.G.G.G.G.G.Z.Z.Z.Z.S.[ >X3X3X3X3X3X@Xs p.K ).3X3X3X3X3X3X3X3X3X3X3X",
"3X3X3X3X3X3X3X3X3X3X3X3X3X3X3X3X3X3X3X3X3X1Xw.P.v.G.G.G.G.G.H.G.H.G.G.G.L.T.8.> OX].V.U.H.H.G.G.G.G.G.G.Z.Z.Z.Z.F.A.F.A &X@X&X~ l.!.^.!.&.V.&X,X3X3X3X3X3X3X3X3X",
"3X3X3X3X3X3X3X3X3X3X3X3X3X3X3X3X3X3X3X3X3X@XY.K.H.G.G.G.G.G.G.G.G.G.G.G.G.J.I.S.M.*.*.P.v.H.G.G.L.G.G.G.G.G.G.G.G.H.J.Z.Y.*.z.L.H.H.H.H.H.L.N.p.&X@X:X3X3X3X3X3X",
"3X3X3X3X3X3X3X3X3X3X3X3X3X3X3X3X3X3X3X3X3XS Q.H.G.H.G.P.G.G.G.J.G.H.G.G.J.Z.G.G.K.j.m.J.G.H.G.L.v.G.G.G.G.H.H.G.J.Z.J.G.G.K.G.J.G.G.G.G.G.G.G.G.U.P.X.&X3X3X3X3X",
"3X3X3X3X3X3X3X3X3X3X3X3X3X3X3X3X3X3X3X3X=X8.G.G.G.G.L.G.G.G.G.Z.G.H.G.G.G.G.G.H.G.o.L.G.G.G.G.Z.G.G.G.G.G.G.P.G.G.G.G.G.G.G.G.G.G.G.G.G.G.G.G.G.G.J.Q.B.1X3X3X3X",
"3X3X3X3X3X3X3X3X3X3X3X3X3X3X3X3X3X3X3X3X;XZ.G.G.J.G.Z.G.G.G.G.G.G.G.J.G.G.G.G.H.k.h.J.G.G.G.G.J.G.G.G.G.G.G.c.G.G.G.G.G.G.G.G.G.G.G.G.G.G.G.G.G.G.U.^.p.1X3X3X3X",
"3X3X3X3X3X3X3X3X3X3X3X3X3X3X3X3X3X3X3X3XV.H.H.G.G.G.G.G.G.H.G.G.G.G.G.G.G.G.H.H.j.x.H.G.Z.J.G.G.Z.J.H.G.J.G.G.H.G.G.G.H.H.G.G.G.G.G.G.G.G.H.G.G.H.H.I.A 3X3X3X3X",
"3X3X3X3X3X3X3X3X3X3X3X3X3X3X3X3X3X3X3X:Xz.P.G.G.G.G.G.G.G.H.G.G.G.G.G.H.G.G.K.k.&.L.G.G.G.G.G.H.G.G.H.G.G.G.J.H.H.G.H.G.G.G.G.G.G.G.G.H.G.G.G.G.G.H.!.XX3X3X3X3X",
"3X3X3X3X3X3X3X3X3X3X3X3X3X3X3X3X3X3X3XK S.H.G.G.J.G.G.G.G.H.G.G.G.G.G.G.G.G.G.Z.z.H.H.G.J.G.G.H.G.G.H.G.G.G.G.G.G.G.G.G.G.G.G.G.G.G.G.G.G.G.G.G.G.L.w.1X3X3X3X3X",
"3X3X3X3X3X3X3X3X3X3X3X3X3X3X3X3X3X3X3X~ G.G.G.L.S.S.P.G.G.G.G.G.H.G.G.J.G.G.G.j.F.H.G.G.S.S.I.H.G.G.G.G.G.G.G.G.G.G.G.G.G.G.G.H.G.G.H.G.G.G.G.G.G.Q.A 3X3X3X3X3X",
"3X3X3X3X3X3X3X3X3X3X3X3X3X3X3X3X3X3X@X$.H.H.H.l.i ] z.S.L.I.G.G.H.H.G.G.J.J.Z.$.L.H.H.c.) a 3.z.L.I.L.G.H.H.G.J.J.G.G.G.G.G.G.G.G.G.G.G.G.G.G.G.J.6.@X3X3X3X3X3X",
"3X3X3X3X3X3X3X3X3X3X3X3X3X3X3X3X3X3XA I.H.c.H.x.6 . % p 1.4.S.G.H.G.G.G.Z.G.j.z.H.c.G.P.) $ # 8 -.6.A.L.H.G.G.G.G.G.G.G.G.G.G.G.G.H.G.G.H.G.G.G.I.V.3X3X3X3X3X3X",
"3X3X3X3X3X3X3X3X3X3X3X3X3X3X3X3X3X3XV.I.G.G.H.L.d     @ $ 9 $.L.c.G.G.G.G.G.j.F.H.G.G.U.@.o     . & _ T.G.G.G.G.G.J.J.G.G.G.G.G.G.G.G.G.G.G.G.G.D.A 3X3X3X3X3X3X",
"3X3X3X3X3X3X3X3X3X3X3X3X3X3X3X3X3X,XF.J.G.J.G.U.[ X   O   $ } !.H.G.G.H.J.G.z.G.G.J.G.H.x.w   O   @ y T.H.G.G.G.G.G.G.G.H.G.G.G.G.G.G.G.G.H.G.G.C.1X3X3X3X3X3X3X",
"3X3X3X3X3X3X3X3X3X3X3X3X3X3X3X3X3X~ G.G.G.L.H.H.z.&         j I.Z.G.G.H.G.j.j.H.G.L.G.H.G.j         % z.J.G.G.G.G.G.G.G.H.K.G.G.H.H.H.G.G.L.G.I.0 3X3X3X3X3X3X3X",
"3X3X3X3X3X3X3X3X3X3X3X3X3X3X3X3X=Xy.G.G.G.L.H.H.L.e         8 Y.D.G.G.H.G.@.S.H.G.G.G.G.P.[ X       o ..Q.S.G.G.H.G.G.S.4.Y.D.J.G.G.G.G.G.G.H.F.2X3X3X3X3X3X3X3X",
"3X3X3X3X3X3X3X3X3X3X3X3X3X3X3X3XXXT.K.G.G.J.G.H.L.'         o +.I.G.G.H.Z.$.J.G.G.G.G.G.K.M.>         u Q.J.G.G.G.L.z.p & 0 g 3.E.Q.G.G.G.c.K.y.:X3X3X3X3X3X3X3X",
"3X3X3X3X3X3X3X3X3X3X3X3X3X3X3X3X~ U.G.G.G.Z.G.H.P.7.$       X ( I.H.G.!.$.z.G.G.G.G.G.H.H.T.t         8 A.H.G.L.L.} 8       . % y { x.G.G.H.K.V.3X3X3X3X3X3X3X3X",
"3X3X3X3X3X3X3X3X3X3X3X3X3X3X3X=Xe.G.G.G.G.G.H.H.H.z.7         u G.H.I.3.[ G.G.G.J.J.G.H.H.L.' #       $ o.H.K.Y.z % X       O   $ p z.G.c.H.L.,X3X3X3X3X3X3X3X3X",
"3X3X3X3X3X3X3X3X3X3X3X3X3X3X3X&XL.G.G.G.G.G.G.H.H.L.'         & M.R.] % ..J.G.G.Z.G.J.G.H.H.5.=       @ ] R.$.t .       O O   & ;.E.L.H.H.L.8.1X3X3X3X3X3X3X3X3X",
"3X3X3X3X3X3X3X3X3X3X3X3X3X3X3XV.L.G.G.G.Z.J.G.G.H.K.} #       X l p o : z.H.G.G.G.G.G.G.G.H.x.9         r k >             # u $.Q.L.H.H.H.T.Y 3X3X3X3X3X3X3X3X3X",
"3X3X3X3X3X3X3X3X3X3X3X3X3X3X@Xm.G.G.G.G.G.J.G.G.G.H.z.&         X     j P.G.H.G.G.J.G.G.H.H.P.f           X             $ j S.H.v.H.H.v.J.5.@X3X3X3X3X3X3X3X3X3X",
"3X3X3X3X3X3X3X3X3X3X3X3X3X1XV.P.G.G.G.G.G.G.G.G.G.v.L.q             * @.H.Z.G.G.G.H.G.G.G.v.H.=..                     7 :.T.P.v.v.H.H.H.I.w.3X3X3X3X3X3X3X3X3X3X",
"3X3X3X3X3X3X3X3X3X3X3X3X3X1XB.U.G.L.v.H.G.G.G.G.G.v.K._             8 L.H.G.c.H.G.G.G.J.G.H.H.F.:       X         X u l.I.G.v.H.G.G.G.H.D.K 3X3X3X3X3X3X3X3X3X3X",
"3X3X3X3X3X3X3X3X3X3X3X3X3X-Xm.H.c.G.H.G.J.G.G.G.G.P.L.k             -.P.v.G.H.H.G.G.G.G.G.P.P.*.=             . % g T.b.G.G.H.G.G.L.K.K. .1X3X3X3X3X3X3X3X3X3X3X",
"3X3X3X3X3X3X3X3X3X3X3X3X3XA T.G.H.H.G.G.G.G.G.H.K.x.a .   @     O o m.G.G.H.G.G.G.G.G.H.H.L.[ :           O O 9 l.J.G.G.G.G.H.G.J.H.K.U.~ 3X3X3X3X3X3X3X3X3X3X3X",
"3X3X3X3X3X3X3X3X3X3X3X3X|.q.G.G.G.G.H.G.H.G.G.J.1.,               0 J.G.G.G.G.H.G.H.G.H.x.h #               , 4.J.G.G.k.G.J.G.G.G.G.H.S._.3X3X3X3X3X3X3X3X3X3X3X",
"3X3X3X3X3X3X3X3X3X3X3X3X{.I.H.G.G.L.H.c.G.P.A._ $   O             t.J.G.G.L.J.G.c.H.L.*.8   O O             , R.J.G.G.L.G.G.G.G.G.H.H.y.=X3X3X3X3X3X3X3X3X3X3X3X",
"3X3X3X3X3X3X3X3X3X3X3X3X~ L.H.H.c.G.G.G.L.$.u #   O O           $ N.K.H.G.v.G.G.P.S._ &   O                 % o.G.K.G.G.G.G.G.G.H.H.P.~ 3X3X3X3X3X3X3X3X3X3X3X3X",
"3X3X3X3X3X3X3X3X3X3X3X:X1.U.H.H.v.H.L.L.} 5               o     l Q.H.v.v.G.J.D.$.p o             X X   X   # ' P.G.G.Z.G.G.J.G.H.H.x.{.3X3X3X3X3X3X3X3X3X3X3X3X",
"3X3X3X3X3X3X3X3X3X3X3X&XA.H.H.H.J.J.F.u $ O O O       o x k .   ..I.G.H.G.G.J.t.&   O O       @ 8 >.>         p T.H.G.G.H.G.J.G.H.P.w.1X3X3X3X3X3X3X3X3X3X3X3X3X",
"3X3X3X3X3X3X3X3X3X3X1XV.D.G.G.L.D.#.0 X   O O       & ` W.*.% & A.J.G.G.!.A.d %   O O O     o i C.W.d         5 m.J.G.G.H.G.J.G.G.L.K 3X3X3X3X3X3X3X3X3X3X3X3X3X",
"3X3X3X3X3X3X3X3X3X3X:X+.J.G.G.A.' &         O   . 9 6.I.G.D.t h I.Z.G.L.@.y               % i.R.J.J. .#   O   # ,.I.G.G.G.G.G.G.J.5.@X3X3X3X3X3X3X3X3X3X3X3X3X3X",
"3X3X3X3X3X3X3X3X3X3XK T.G.G.b.x.) 5 X         o ] S.J.G.G.J.] +.L.G.G.L.| 6 #           e *.J.G.G.K.z.%         j D.G.G.G.Z.G.G.I.V.3X3X3X3X3X3X3X3X3X3X3X3X3X3X",
"3X3X3X3X3X3X3X3X3X=XV.U.G.G.G.G.S.A. .t = + 8 } L.H.v.J.J.H.1.A.H.v.H.H.J.Y.#.f , + % j k.P.v.G.J.H.Q.e         > A.J.G.G.G.Z.H.L.K 3X3X3X3X3X3X3X3X3X3X3X3X3X3X",
"3X3X3X3X3X3X3X3X3X>XC.G.G.G.G.G.G.L.J.S.6.<.M.I.H.v.G.G.G.c.M.L.G.G.G.H.G.J.J.L.M.1.5.S.P.v.H.G.Z.G.L.'         $ 5.J.G.G.G.G.J.*.@X3X3X3X3X3X3X3X3X3X3X3X3X3X3X",
"3X3X3X3X3X3X3X3X3XM !.G.G.G.G.G.G.G.G.G.H.K.G.G.G.G.G.G.G.j.x.H.H.G.G.G.H.G.G.G.G.H.H.G.G.G.G.G.G.G.K.o.o       . ' U.H.G.G.c.L.~ 3X3X3X3X3X3X3X3X3X3X3X3X3X3X3X",
"3X3X3X3X3X3X3X3X:X,.I.G.G.G.G.G.G.G.G.G.G.G.G.G.G.G.G.G.G.@.T.H.G.G.G.G.G.G.G.G.G.G.G.G.G.G.G.G.G.G.J.A.8   O O   e I.G.G.G.H.z.{.3X3X3X3X3X3X3X3X3X3X3X3X3X3X3X",
"3X3X3X3X3X3X3X3X>XY.G.H.G.G.G.G.G.G.G.G.G.G.G.G.G.H.G.G.k.$.L.G.H.G.G.G.G.J.G.G.G.G.G.G.G.G.G.G.G.G.G.L.j .       : C.J.G.G.G.t.=X3X3X3X3X3X3X3X3X3X3X3X3X3X3X3X",
"3X3X3X3X3X3X3X3XV.S.c.G.G.G.G.G.G.G.G.G.G.G.G.G.G.G.G.G.h.Y.G.G.H.H.G.G.G.G.G.G.G.G.G.G.G.G.G.G.G.G.G.P.j.( 0 o   o  .J.k.G.Z.S 3X3X3X3X3X3X3X3X3X3X3X3X3X3X3X3X",
"3X3X3X3X3X3X3X@XY.K.G.G.H.G.G.J.K.K.H.G.G.G.G.G.G.G.G.G.@.I.K.K.H.G.H.G.G.G.H.G.G.K.K.K.K.K.K.K.H.H.K.H.G.L.$.<.h & i J.K.K.A.,X3X3X3X3X3X3X3X3X3X3X3X3X3X3X3X3X",
"3X3X3X3X=X|..XA N.K.G.H.G.H.Z.O.X.X.k.H.G.G.G.G.G.G.H.o.' X.{ h.H.H.H.G.G.G.G.G.G.o.{ { X.X.{ { { X.X.o.c.H.J.I.L.l.l.O.X.=.h .X.X)..X.X=X3X3X3X3X3X3X3X3X3X3X3X",
"3X3X3X3X1 @ @ = z.H.c.H.G.H.{ @ @ O i K.G.G.G.G.G.G.G.q   @ O # o.K.H.G.G.G.G.H.h.$   O @ @ @   O @ @ # 5 ( k.G.H.U.x.9 O @ @ @ @ @ + @ 2 1 .X3X3X3X3X3X3X3X3X3X",
"3X3X3X3X1 @ @ * h.H.H.G.G.K.{ . .   u K.G.G.G.G.G.K.o.# @ . . @ f H.G.G.G.G.G.H.{ # @ . @ @ @ . @ @ @ @ O @ 8 k.H.H.k.9 O . @ @ . @ @ @ . @ @ ).3X3X3X3X3X3X3X3X",
"3X3X3X=X1 . @ $ l.v.H.H.G.H.{ . .   u K.G.G.G.G.G.G.i @ . . . O & Z.G.H.G.G.G.G.X.$ @ . @ # . . . . @ @ . .   f v.H.c.9 O . @ . @ @ @ . @ @ @ @ .X3X3X3X3X3X3X3X",
"3X3X3X3X1 . @ * o.P.G.G.Z.K.` . . @ u K.G.G.G.G.G.k.: @ . O . @ . ` K.H.H.G.G.K.X.# @ O * X.j.j.j.j._ $ @ . @ - c.H.Z.9 @ . @ ).=X=X=X).@ . . @ m 3X3X3X3X3X3X3X",
"3X3X3X=X1 . @ $ o.P.G.G.G.K.` . @ O u H.G.G.G.G.K.{ + @ @ & $ @ . q G.Z.G.J.G.H.X.$ @ @ = k.K.H.H.J.K.( O . @ $ j.H.Z.8   . . .X3X3X3X3X).@ @ @ 2 =X3X3X3X3X3X3X",
"3X3X3X3X1 . @ * h.K.K.K.K.K.X.. +   u H.G.G.G.H.v.y   @ $ &.8   . 5 h.G.Z.G.G.H.{ # @ @ $ k.H.c.G.G.H.) @ . @ # j.J.k.9 O @ @ .X3X3X3X3X3X1 + @ . .X3X3X3X3X3X3X",
"3X3X3X3X1 @ @ . s ;.j g ( ) y . .   g ^.G.L.L.H.h.* @ O 8 C.j @ .   ( Z.Z.G.J.J.X.+ @ @ = k.K.G.L.P.k.9 @ @ @ & k.K.k.9 O . @ .X3X3X3X3X3XV @ + . ).3X3X3X3X3X3X",
"3X3X3X=X1 . @ @   O       O   . .   > '.&XA 1.Q.( @ . @ ) Z.X.* @ @ 9 Z.Z.Z.#.h M . @ @ # 5 8 8 > 8 - . @ @   y G.H.L.w @ . @ .X3X3X3X3X3XV @ . @ ).3X3X3X3X3X3X",
"3X3X3X3X1 @ @ @ . . . . . . @ @ . . V 3X3X3X/.V.w . @ & G.K.G.u O . # :.E.o.2.@X=X+ . . . 2       O O @ @ @ $ O.G.H.A.7 @ @ @ ).3X3X3X3X3XV @ . @ V 3X3X3X3X3X3X",
"3X3X3X=X1 @ . @ @ 2 @ @ @ 2 2 . . . m 3X3X3X3X).. . @ p x.k.Z.` # . @ e $.z.p.3X.X+ @ . . . O . . . . . # - X.G.G.J.7.= @ . @ .X3X3X3X3X3XV + @ @ ).3X3X3X3X3X3X",
"3X3X3X3X< @ . @ .X3X=X3X3X3X).. . @ m 3X3X3X3Xm . @ @ + $ # # # . @ O % j.Q.;X1X).@ . . . : u - @ @ @ # ( c.G.G.J.J.0.m @ . @ .X3X3X3X3X3Xm @ @ . ).3X3X3X3X3X3X",
"3X3X3X3X1 . . @ =X3X3X3X3X3X).@ @ . V 3X3X3X=X@ . @ + @ @ @ @ @ . . @ @ _ +.2X1X.X@ @ @ . ~ !.h.# @ . @ y G.H.G.K.!.A 1 @ @ @ .X3X3X3X3X.X@ @ @ @ =X3X3X3X3X3X3X",
"3X3X3X3X1 . @ @ =X3X3X3X3X3X).. @ + m 3X3X3XV @ . + # $ @ @   O   @ @   F C 3X3X.X. @ +   # C.T.] + @ @ @ ) H.H.J.7.@X1 + . @ .X3X3X3X=Xm @ @ . 1 3X3X3X3X3X3X3X",
"3X3X3X3X1 @ @ @ =X3X3X3X3X3X.X@ @ @ V 3X3X3X2 @ . B B 8 u g [ [ { q @ @ = X 3X3X.X@ @ . + 3X:Xe a.t @ @ @ # o.H.L.w.3XB @ @ . m V m m 2 + @ @ @ ).3X3X3X3X3X3X3X",
"3X3X3X=X2 . . 2 .X3X3X3X3X3X.X@ @ @ m 3X3X.X. @ @ V 3X1X:XS w.Q.^.O.# @ * V 3X3X.X@ . @ B =X3X3X=X@X# @ @ @ & k.L.{.3Xm @ @ . . . @ @ . . @ + m 3X3X3X3X3X3X3X3X",
"3X3X3X3X1 @ . @ .X3X3X3X3X3X).. @ + m 3X3Xm + @ @ =X3X3X3X3X=X@XOXl - @ . . =X3X.X@ @ . + 3X3X3X3X3X.X@ @ . @ t p.=X3X1 + @ . @ @ . . @ @ 2 V =X3X3X3X3X3X3X3X3X",
"3X3X3X3Xm < < m 3X3X3X3X3X3X.X1 1 1 ).3X3Xm 1 < V 3X3X3X3X3X3X3X3X1X(.2 @ n .X3X.Xm < 1 V 3X3X3X3X3X3X).# B . 2 .X3X3XN 2 @ n @ @ 1 < m ).=X3X3X3X3X3X3X3X3X3X3X",
"3X3X3X3X3X3X3X3X3X3X3X3X3X3X3X3X3X3X3X3X3X3X3X3X3X3X3X3X3X3X3X3X3X3X3X3X3X3X3X3X3X3X3X3X3X3X3X3X3X3X3X3X3X3X3X3X3X3X3X3X3X3X3X3X3X3X3X3X3X3X3X3X3X3X3X3X3X3X3X3X",
"3X3X3X3X3X3X3X3X3X3X3X3X3X3X3X3X3X3X3X3X3X3X3X3X3X3X3X3X3X3X3X3X3X3X3X3X3X3X3X3X3X3X3X3X3X3X3X3X3X3X3X3X3X3X3X3X3X3X3X3X3X3X3X3X3X3X3X3X3X3X3X3X3X3X3X3X3X3X3X3X",
"3X3X3X3X3X3X3X3X3X3X3X3X3X3X3X3X3X3X3X3X3X3X3X3X3X3X3X3X3X3X3X3X3X3X3X3X3X3X3X3X3X3X3X3X3X3X3X3X3X3X3X3X3X3X3X3X3X3X3X3X3X3X3X3X3X3X3X3X3X3X3X3X3X3X3X3X3X3X3X3X",
"3X3X3X3X3X3X3X3X3X3X3X3X3X3X3X3X3X3X3X3X3X3X3X3X3X3X3X3X3X3X3X3X3X3X3X3X3X3X3X3X3X3X3X3X3X3X3X3X3X3X3X3X3X3X3X3X3X3X3X3X3X3X3X3X3X3X3X3X3X3X3X3X3X3X3X3X3X3X3X3X",
"3X3X3X3X3X3X3X3X3X3X3X3X3X3X3X3X3X3X3X3X3X3X3X3X3X3X3X3X3X3X3X3X3X3X3X3X3X3X3X3X3X3X3X3X3X3X3X3X3X3X3X3X3X3X3X3X3X3X3X3X3X3X3X3X3X3X3X3X3X3X3X3X3X3X3X3X3X3X3X3X",
"3X3X3X3X3X3X3X3X3X3X3X3X3X3X3X3X3X3X3X3X3X3X3X3X3X3X3X3X3X3X3X3X3X3X3X3X3X3X3X3X3X3X3X3X3X3X3X3X3X3X3X3X3X3X3X3X3X3X3X3X3X3X3X3X3X3X3X3X3X3X3X3X3X3X3X3X3X3X3X3X",
"3X3X3X3X3X3X3X3X3X3X3X3X3X3X3X3X3X3X3X3X3X3X3X3X3X3X3X3X3X3X3X3X3X3X3X3X3X3X3X3X3X3X3X3X3X3X3X3X3X3X3X3X3X3X3X3X3X3X3X3X3X3X3X3X3X3X3X3X3X3X3X3X3X3X3X3X3X3X3X3X"
};
