/* XPM */
static char *xpm_[] = {
/* columns rows colors chars-per-pixel */
"80 80 202 2 ",
"   c #010101",
".  c #000000",
"X  c #020202",
"o  c #060606",
"O  c #050505",
"+  c #0A0A0A",
"@  c #080808",
"#  c #0D0D0D",
"$  c #0E0E0E",
"%  c #0F0F0F",
"&  c #0F0F0F",
"*  c #111111",
"=  c #101010",
"-  c #121212",
";  c #131313",
":  c #121212",
">  c #131313",
",  c #111111",
"<  c #121212",
"1  c #141414",
"2  c #151515",
"3  c #161616",
"4  c #141414",
"5  c #191919",
"6  c #1A1A1A",
"7  c #1E1E1E",
"8  c #131313",
"9  c #101010",
"0  c #0F0F0F",
"q  c #121212",
"w  c #121212",
"e  c #222222",
"r  c #252525",
"t  c #2B2B2B",
"y  c #2B2B2B",
"u  c #333333",
"i  c #3D3D3D",
"p  c #3B3B3B",
"a  c #2B2B2B",
"s  c #0E0E0E",
"d  c #101010",
"f  c #0F0F0F",
"g  c #373737",
"h  c #474747",
"j  c #414141",
"k  c #464646",
"l  c #484848",
"z  c #4F4F4F",
"x  c #525252",
"c  c #5E5E5E",
"v  c #5B5B5B",
"b  c #5F5F5F",
"n  c #4B4B4B",
"m  c #6A6A6A",
"M  c #6D6D6D",
"N  c #696969",
"B  c #767676",
"V  c #727272",
"C  c #7C7C7C",
"Z  c #808080",
"A  c #787878",
"S  c #737373",
"D  c #6E6E6E",
"F  c #7C7C7C",
"G  c #848484",
"H  c #555555",
"J  c #646464",
"K  c #5B5B5B",
"L  c #767676",
"P  c #8C8C8C",
"I  c #818181",
"U  c #919191",
"Y  c #101010",
"T  c #101010",
"R  c #242424",
"E  c #0F0F0F",
"W  c #0B0B0B",
"Q  c #292929",
"!  c #4C4C4C",
"~  c #505050",
"^  c #4F4F4F",
"/  c #363636",
"(  c #535353",
")  c #555555",
"_  c #111111",
"`  c #0F0F0F",
"'  c #202020",
"]  c #262626",
"[  c #141414",
"{  c #0D0D0D",
"}  c #232323",
"|  c #424242",
" . c #5C5C5C",
".. c #5F5F5F",
"X. c #818181",
"o. c #6D6D6D",
"O. c #A9A9A9",
"+. c #787878",
"@. c #9B9B9B",
"#. c #A8A8A8",
"$. c #AFAFAF",
"%. c #858585",
"&. c #848484",
"*. c #8E8E8E",
"=. c #8A8A8A",
"-. c #8C8C8C",
";. c #979797",
":. c #949494",
">. c #929292",
",. c #9E9E9E",
"<. c #9A9A9A",
"1. c #909090",
"2. c #959595",
"3. c #9A9A9A",
"4. c #919191",
"5. c #A5A5A5",
"6. c #A2A2A2",
"7. c #A5A5A5",
"8. c #AEAEAE",
"9. c #A9A9A9",
"0. c #B6B6B6",
"q. c #B2B2B2",
"w. c #BABABA",
"e. c #BDBDBD",
"r. c #C0C0C0",
"t. c #BCBCBC",
"y. c #C9C9C9",
"u. c #BCBCBC",
"i. c #A8A8A8",
"p. c #C2C2C2",
"a. c #C5C5C5",
"s. c #CDCDCD",
"d. c #CBCBCB",
"f. c #D0D0D0",
"g. c #D1D1D1",
"h. c #D9D9D9",
"j. c #DFDFDF",
"k. c #DEDEDE",
"l. c #DDDDDD",
"z. c #D9D9D9",
"x. c #E2E2E2",
"c. c #E6E6E6",
"v. c #E9E9E9",
"b. c #EBEBEB",
"n. c #EDEDED",
"m. c #EEEEEE",
"M. c #F3F3F3",
"N. c #F0F0F0",
"B. c #F7F7F7",
"V. c #F5F5F5",
"C. c #F9F9F9",
"Z. c #FBFBFB",
"A. c #FCFCFC",
"S. c #FDFDFD",
"D. c #FFFFFF",
"F. c #FEFEFE",
"G. c #FFFFFF",
"H. c #FFFFFF",
"J. c #FFFFFF",
"K. c #0A0A0A",
"L. c #101010",
"P. c #101010",
"I. c #343434",
"U. c #747474",
"Y. c #5E5E5E",
"T. c #4B4B4B",
"R. c #0C0C0C",
"E. c #0B0B0B",
"W. c #1D1D1D",
"Q. c #040404",
"!. c #0B0B0B",
"~. c #050505",
"^. c #090909",
"/. c #2F2F2F",
"(. c #4C4C4C",
"). c #070707",
"_. c #080808",
"`. c #3C3C3C",
"'. c #050505",
"]. c #020202",
"[. c #000000",
"{. c #000000",
"}. c #040404",
"|. c #030303",
" X c #090909",
".X c #040404",
"XX c #000000",
"oX c #020202",
"OX c #020202",
"+X c #040404",
"@X c #010101",
"#X c #000000",
"$X c #020202",
"%X c #080808",
"&X c #101010",
"*X c #101010",
"=X c #080808",
"-X c #626262",
";X c #464646",
":X c #0B0B0B",
">X c #EFEFEF",
",X c None",
/* pixels */
",X,X,X,X,X,X,X,X,X,X,X,X,X,X,X,X,X,X,X,X,X,X,X,X,X,X,X,X,X,X,X,X,X,X,X,X,X,X,X,X,X,X,X,X,X,X,X,X,X,X,X,X,X,X,X,X,X,X,X,X,X,X,X,X,X,X,X,X,X,X,X,X,X,X,X,X,X,X,X,X",
",X,X,X,X,X,X,X,X,X,X,X,X,X,X,X,X,X,X,X,X,X,X,X,X,X,X,X,X,X,X,X,X,X,X,X,X,X,X,X,X,X,X,X,X,X,X,X,X,X,X,X,X,X,X,X,X,X,X,X,X,X,X,X,X,X,X,X,X,X,X,X,X,X,X,X,X,X,X,X,X",
",X,X,X,X,X,X,X,X,X,X,X,X,X,X,X,X,X,X,X,X,X,X,X,X,X,X,X,X,X,X,X,X,X,X,X,X,X,X,X,X,X,X,X,X,X,X,X,X,X,X,X,X,X,X,X,X,X,X,X,X,X,X,X,X,X,X,X,X,X,X,X,X,X,X,X,X,X,X,X,X",
",X,X,X,X,X,X,X,X,X,X,X,X,X,X,X,X,X,X,X,X,X,X,X,X,X,X,X,X,X,X,X,X,X,X,X,X,X,X,X,X,X,X,X,X,X,X,X,X,X,X,X,X,X,X,X,X,X,X,X,X,X,X,X,X,X,X,X,X,X,X,X,X,X,X,X,X,X,X,X,X",
",X,X,X,X,X,X,X,X,X,X,X,X,X,X,X,X,X,X,X,X,X,X,X,X,X,X,X,X,X,X,X,X,X,X,X,X,X,X,X,X,X,X,X,X,X,X,X,X,X,X,X,X,X,X,X,X,X,X,X,X,X,X,X,X,X,X,X,X,X,X,X,X,X,X,X,X,X,X,X,X",
",X,X,X,X,X,X,X,X,X,X,X,X,X,X,X,X,X,X,X,X,X,X,X,X,X,X,X,X,X,X,X,X,X,X,X,X,X,X,X,X,X,X,X,X,X,X,X,X,X,X,X,X,X,X,X,X,X,X,X,X,X,X,X,X,X,X,X,X,X,X,X,X,X,X,X,X,X,X,X,X",
",X,X,X,X,X,X,X,X,X,X,X,X,X,X,X,X,X,X,X,X,X,X,X,X,X,X,X,X,X,X,X,X,X,X,X,X,X,X,X,X,X,X,X,X,X,X,X,X,X,X,X,X,X,X,X,X,X,X,X,X,X,X,X,X,X,X,X,X,X,X,X,X,X,X,X,X,X,X,X,X",
",X,X,X,X,X,X,X,X,X,X,X,X,X,X,X,X,X,X,X,X,X,X,X,X,X,X,X,X,X,X,X,X,X,X,X,X,X,X,X,X,X,X,X,X,X,X,X,X,X,X,X,X,X,X,X,X,X,X,X,X,X,X,X,X,X,X,X,X,X,X,X,X,X,X,X,X,X,X,X,X",
",X,X,X,X,X,X,X,X,X,X,X,X,X,X,X,X,X,X,X,X,X,X,X,X,X,X,X,X,X,X,X,X,X,X,X,X_.~.,X,X,X,X,X,X,X,X,X,X,X,X,X,X,X,X=X=X,X,X,X,X,X,X,X,X,X,X,X,X,X,X,X,X,X,X,X,X,X,X,X,X",
",X,X,X,X,X,X,X,X,X,X,X,X,X,X,X,X,X,X,X,X,X,X,X,X,X,X,X,X,X,X,X,X,X,X,X_.d w ` _.oX,X,X,X,X,X,X,X,X,X,X,X,X,X,X=X,X,X,X,X,X,X,X,X,X,X,X,X,X,X,X,X,X,X,X,X,X,X,X,X",
",X,X,X,X,X,X,X,X,X,X,X,X,X,X,X,X,X,X,X,X,X,X,X,X,X,X,X,X,X,X,X,X,X,X:XY 3 = 3 w d { ~.$X,X,X,X,X,X,X,X,X,X,X=X=X,X,X,X,X,X,X,X,X,X,X,X,X,X,X,X,X,X,X,X,X,X,X,X,X",
",X,X,X,X,X,X,X,X,X,X,X,X,X,X,X,X,X,X,X,X,X,X,X,X,X,X,X,X,X,X,X,X,X,X'.q 3 = = = 3 4 2 Y { '.,X,X,X,X,X,X,X,X=X=X,X,X,X,X,X,X,X,X,X,X,X,X,X,X,X,X,X,X,X,X:X,X,X,X",
",X,X,X,X,X,X,X,X,X,X,X,X,X,X,X,X,X,X,X,X,X,X,X,X,X,X,X,X,X,X,X,X,X,XK.4 ; ; = ; 4 ; ; 3 ; f ].,X=X,X,X,X=X=X=X=X,X,X,X,X,X,X,X,X,X,X,X,X,X,X,X,X,X,X,X,X:X,X,X,X",
",X,X,X,X,X,X,X,X,X,X,X,X,X,X,X,X,X,X,X,X,X,X,X,X,X,X,X,X,X,X,X:X,X$XW ; < ; & ; ; ; ; $ 3 4 ~.,X=X=X,X,X=X=X=X=X:X,X,X,X,X,X,X,X,X,X,X,X,X,X,X,X,X,X,X,X,X,X,X,X",
",X,X,X,X,X,X,X,X,X,X,X,X,X,X,X,X,X,X,X,X,X,X,X,X,X,X,X,X,X,X,X:X,X~.q ; ; ; ; ; ; ; ; ; ; ; { ,X=X=X=X=X=X=X=X$X,X$X:X:X,X,X,X,X,X,X,X,X,X,X,X,X,X,X,X,X,X,X,X,X",
",X,X,X,X,X,X,X,X,X,X,X,X,X,X,X,X,X,X,X,X,X,X,X,X,X,X,X,X,X,X,X,X,XK.5 3 ; ; & ; ; ; ; ; ; ; w Q.=X,X,X,X=X=X|.!._.,X,X,X,X:X,X,X,X,X,X,X,X,X,X,X,X,X,X,X,X,X,X,X",
",X,X,X,X,X,X,X,X#X#X#X#X#X#X#X#X#X#X#X#X#X#X#X#X,X,X,X,X,X,X,X,X$XY 3 = = 3 = 3 = = = = = = 3 w K.|.$X$X|._.Y 3 w W ~.|.$X,X,X,X=X=X=X=X=X=X=X=X=X=X=X=X,X,X,X,X",
",X,X,X,X,X,X,X,X#X#X#X#X#X#X#X#X#X#X#X#X#X#X#X#X,X,X,X,X,X,X,X,X~.< = = 3 = = = 3 3 = 3 3 = = 3 3 w 0 0 0 q 3 = = 3 4 0 f Q.|.,X=X=X=X=X=X=X=X=X=X=X=X=X,X,X,X,X",
",X,X,X,X,X,X,X,X#X#X#X#X#X#X#X#X#X#X#X#X#X#X#X#X,X,X,X,X,X,X:X,X` 3 3 = = = 3 = = = = = = = = = = 3 3 = 3 3 3 = 3 3 = ; 3 3 f ` '.=X=X=X=X=X=X=X=X=X=X=X,X,X=X=X",
",X,X,X,X,X,X,X,X#X#X#X#X#X#X#X#X#X#X#X#X#X#X#X#X,X,X,X,X,X:X,X{.f = = = 3 = = = = 3 3 = = 3 = 3 ; ; ; = = = = = = = ; ; ; = 3 3 W =X=X=X=X=X=X=X=X=X=X=X,X,X,X=X",
",X,X,X,X,X,X,X,X#X#X#X#X#X#X#X#X#X#X#X#X#X#X#X#X,X,X,X,X,X,X,XK.3 = = 3 = 3 = 3 = = = 3 3 = = = ; ; = = = 3 = 3 = 3 = 3 = = < 3 d =X=X=X,X,X,X,X=X=X=X=X=X=X=X=X",
",X,X,X,X,X,X,X,X#X#X#X#X#X#X#X#X#X#X#X#X#X#X#X#X,X,X,X,X,X,X,X{ 3 = = = = 3 = = = 3 = = = = 3 = ; ; 3 = 3 = = = = = = 3 = = ; ; { ,X=X=X,X,X,X,X=X=X=X=X=X=X=X=X",
",X,X,X,X,X,X,X,X#X#X#X#X#X#X#X#X#X#X#X#X#X#X#X#X,X,X,X,X,X,X{.w 3 = 3 = = = = 3 3 = 3 = 3 = = 3 ; ; ; & = = = 3 = 3 = = 3 = ; d _.,X=X,X,X,X,X,X=X=X=X=X=X=X=X=X",
",X,X,X,X,X,X,X,X#X#X#X#X#X#X#X#X#X#X#X#X#X#X#X#X,X,X,X,X,X,XK.3 = 3 = = 3 = = = = = = 3 = = 3 = ; ; ; ; = 3 3 = = = 3 = 3 3 = Y $X,X,X,X,X,X,X,X=X=X=X=X=X=X=X=X",
",X,X,X,X=X=X=X=X=X=X=X=X#X#X#X#X#X#X#X#X=X=X,X,X,X,X,X=X,X$XY 3 = = = 3 = = = = 3 = = = 3 3 = = 3 = = = = = = = 3 = = 3 3 = = K.,X=X,X,X,X,X,X,X,X,X,X,X:X,X,X,X",
",X,X,X,X=X=X=X=X=X=X#X=X#X#X#X#X#X#X#X#X=X=X,X,X,X,X=X=X,X~.< = = 3 = 3 = 3 = 3 = = = 3 3 = 3 = = 3 3 = 3 3 = 3 3 = = 3 3 3 w ].,X,X,X,X,X,X,X,X,X,X,X,X:X,X,X,X",
",X,X,X,X=X=X#X#X#X#X=X=X#X#X=X=X#X#X#X#X=X=X=X=X,X,X,X,X:XW 3 ; = = = = = = = 3 = 3 = = = = = = # + + = = = + + # 3 = # + $ W oX,X,X,X,X,X,X,X,X,X,X,X,X:X,X,X,X",
",X,X,X,X*XP.| ' [ ' ' ' ' T [ _ ).#X#X#X=X=X=X=X,X,X=X,X{.d = = 3 = 3 = = 3 = = = 3 = = 3 = = 5 t u u 7 # e u u t = = t u p ` ,X=X,X,X,X,X,X,X,X,X,X,X,X:X,X,X,X",
",X,X,X,X{.D p.p.f.p.w.w.w.w.w.0.j #X=X=X=X=X=X=X,X,X=X=X^.3 3 = 3 = = = 3 3 = = = 3 = 3 3 = = 7 ;.g.r.i O j p.x.*.= ; >.x.p./ #X$X,X,X,X,X,X,X,X,X,X,X,X:X,X,X,X",
",X,X,X,X].-.b.b.D.D.D.D.D.D.D.D.D  X=X=X=X=X=X=X,X,X$X*XW 3 = = = = 3 = = = = 3 = = = 3 = = = 3 w.D.c.k   k n.D.9.= & 6.m.x.+.#X:X,X,X,X,X,X,X,X,X,X,X,X:X,X,X,X",
",X,X,X,XOXt V N m p.D.B.r.N V V | =X=X=X=X=X=X=X,X=X=X'.w 3 = 3 = 3 = 3 = 3 = 3 = 3 = 3 = 3 = 7 7.n.f.j O k v.D.9.= ; 6.B.x.! oX:X:X,X,X,X,X,X,X,X,X,X,X:X,X,X,X",
",X,X,X,X,X{.)._.Q.1.D.M.D Q._.~.|.=X=X=X=X=X=X=X,X=X=X!.3 3 = = = = = 3 = = = = = 3 = = 3 = = 3 u i p 7 + l v.D.9.= 4 7.B.x.( #X:X,X,X,X,X,X,X,X,X,X,X,X:X,X,X,X",
",X,X,X,X,X,X,X,XoXi.M.M.I .X#X#X#X#X#X#X#X#X#X#X,X,X:XW 3 3 = 3 3 3 3 = 3 = 3 = 3 = = 3 3 = 3 = # # # = + j v.D.9.= # 7.D.l.( ,X#X#X#X#X#X#X#X#X#X#X#X#X:X,X,X,X",
",X,X,X,X,X,X$X,X|.i.M.M.1. X#X#X#X#X#X#X#X#X#X#X,X,X_.w # # 3 = = # = = = = = = = = = = = = = 3 = 3 # 3 + j v.D.9.= # 7.B.x.! ,X#X#X#X#X#X#X#X#X#X#X#X#X:X,X,X,X",
",X,X,X,X,X,X:X,X|.1.M.M.F  X#X#XO #X%X} / @ #X#X:X,X` 3 r r # # 5 5 5 = 3 5 5 7 3 = 3 5 5 5 = = 5 5 5 3 + k v.D.7.= # ,.D.x.! ,X#X#X#X{ (.W.L.).#X#X#X#X:X,X,X,X",
",X,X,X,X,X,X:X,XOX1.M.M.M '.#X).b r.7.7.7.@.! #X,X$X] *.d.g.&.i 7.f.B # e ;.f.9.u + x w.a.C # 7 *.s.9.i O k v.D.7.= = 6.B.l.! ,X#X2 X.9.N.g.9.L /.#X#X#X:X,X,X,X",
",X,X,X,X,X,X,X,X|.1.D.B.D .XoXl t.w.w.w.6.6.6._ ,X^.=.D.D.D.M.a.c.D.7.# r f.D.n.p   B D.D.6.# 5 0.D.x.k   k v.D.7.= + ,.C.x.( ,XR.0.0.w.9.9.<.<.;.P.,X,X,X,X,X,X",
",X,X,X,X,X,X:X,X|.1.D.A.D oX!.9.w.t.X # V w.6.l ,X' a.D.n.;.M l.M.D.;.# r a.D.c.p   m A.D.,.# 5 9.A.z.j   k v.D.7.3   >.C.x.! ,X#X=.t.w.7 ^.=.<.h.| ,X,X:X,X,X,X",
",X,X,X,X,X,X,X,X|.1.D.B.F oX' r.0.8.#X#X' t.D.X.:Xg f.D.x.i   Z D.D.;.# r p.D.v.p   m D.D.;.# 5 t.D.x.i   k v.D.6.3   %.C.x.! =X[ P i.1.#X#Xm <.c.K OX,X:X:X:X,X",
",X,X,X,X,X,X,X,X|.1.D.n.S |.{ &.t.O._ #X7 v.D.D W y f.D.f.t O z v.D.,.# e p.D.c.i   m A.D.;.= 5 t.D.l.j   k v.D.9._ K.1.D.x.! =X7 6.,.~ O #XL w.B.c _.,X:X:X,X,X",
",X,X,X,X,X,X=X=X;X&.D.B.F OX X_ ~.#X#X#Xo.<.<.-.  y s.D.p.e O x v.D.,.# e a.D.c.i   M D.D.;.# 5 q.C.z.j O l N.C.6.R.oX1.C.x.( ,X).W.). X#X#XX.t.A.v ].,X:X,X,X,X",
",X,X,X,X,X,X=X=X'.1.D.A.D |.,X{.O j : j %.<.6.>.+ y s.D.p.r O z n.D.,.# e p.D.c.i   m A.D.;.# 5 q.C.x.j X l c.C.6.R.|.1.C.x.! ,X:XoX/.+.o.+.,.8.B.v ].,X$X,X,X,X",
",X,X,X,X=X=X=X=X-X1.C.B.F |.,Xg z z z 6.0.0.6.>.+ r s.D.p.e O z v.D.6.# e a.D.c.i   m A.D.;.# 5 t.D.x.k X k v.C.>.Q.|.i.D.x.! ,XOX+.g.c.x.0.0.8.B.v ].,X:X,X,X,X",
",X,X,X,X=X=X=X=X|.1.C.B.F OXQ.>.z z p #XC 0.0.i.O r s.D.p.r O x n.D.,.# e p.D.c.i   m D.D.;.= 5 9.D.z.j X k n.C.%.Q.|.1.D.x.! ,XT.p.C.B.6.z 9.8.B.v ].,X:X,X,X,X",
"=X=X=X=X=X=X=X=X|.1.C.M.>.#XT.p.f.d.z #Xe <.;.:.O t s.D.p.r O x n.D.,.# r p.D.c.i   m A.D.;.# 5 t.D.x.j   k n.D.=.!.'.1.D.l.( :XK B.D.<.L.).m D.B.v {.,X:X:X:X,X",
"=X=X=X=X=X=X=X=X|.1.C.B.1.#X..d.s.r.#X#X^.<.9.i.O u g.D.p.e O x v.D.,.# r p.D.c.i   m A.D.;.= 5 9.D.l.j   l v.D.%.!.;X1.D.l.( $XK D.D.J #X-XI D.A.v ].,X:X,X:X,X",
"=X=X=X=X=X=X=X=X|.1.D.D.i..X! d.s.L #X#Xa 7.9.;.O y s.D.r.r O x n.D.,.+ e w.D.c.p O m A.D.;.# 5 9.D.x.j   l v.D.%.Q.}.1.D.x.( $XJ D.D.#..X-XI D.M.x ].,X:X,X,X,X",
"=X=X=X=X=X=X=X=X|.1.D.D.I oX..d.d.I #X#XW.7.7.:.+ y a.D.f.u O x v.D.,.# e a.D.c.u   m A.D.;.# 5 t.D.l.j   l v.D.&.Q..X1.D.l.( $XL D.D.b  X XI M.M.z ].,X:X,X,X,X",
"=X=X=X=X=X=X=X=X X1.D.B.F $X| h.C.1._.#X+.D.D.=.+ r g.D.l.j   x n.D.,.# r p.D.v.i   C D.D.;.# 5 9.D.l.j   k c.M.=.^. X1.D.l./ &Xb D.D.D oX].*.M.M.v {.,X$X,X,X,X",
"=X=X=X=X=X=X=X=X X1.A.A.F oX/ r.B.p.+.+.g.D.D.*.O 7 r.D.M.,.x r.D.D.,.+ 7 w.D.M.;.V s.D.D.;.# 5 t.D.l.j   k c.M.=.~._.1.D.x.+.oX+.C.D.t.+.o.c.C.M.L ].,X:X:X,X,X",
"=X=X=X=X=X=X=X,X X-.D.D.F oX~.=.D.C.c.w.9.n.D.>.# = B B.D.D.M.n.A.D.6.= = %.D.D.D.n.z.B.D.;.# 5 t.D.v.j   k n.D.=.Q.|.-.D.c./ -X/.f.C.C.M.0.>.B.D.D ].,X:X:X,X,X",
"=X=X=X=X=X=X=X,X|.K =.B t oX,X| 1.7.*.g y =.;.c 3 # 5 B w.0.B B x.D.,.= # e C r.0.m k &.,.m = 5 M ,.;.t @ r C Z k _.,X+.Z C | -XoXr :.7.%./ T B C / $X,X:X,X,X,X",
"=X=X,X,X,X,X,X,X,X_.~.~.|.=X=X=X~.^.~.K.# 3 = 3 = 3 = # 5 5 O l v.D.,.# = = # e 5 # # = = 3 = = 3 # & ; < Q.~.Q._.,X,X_.Q.~.|.,X,XOXQ.Q.~.,X$XQ.Q.|.,X,X:X,X,X,X",
"=X=X,X,X,X,X,X,X,X=X=X=X=X=X=X=X,X,X,X^.3 = = = = 3 3 = # = + l v.D.6.= = 3 3 # = = 3 = = = = 3 = = < ; f OX,X:X,X,X,X,X,X,X,X,X:X,X,X,X,X,X,X:X,X,X,X,X:X,X,X,X",
"=X=X,X,X,X,X,X,X,X=X=X=X=X=X=X=X:X:X|.W = 3 = 3 = = 3 = 3 3 + z v.D.;.= = 3 = 3 = 3 3 3 3 = = 3 = = 3 3 { :X$X:X,X,X,X:X:X:X,X,X,X:X:X:X,X,X,X:X,X,X,X,X:X,X,X,X",
"=X=X,X,X,X,X,X,X,X=X=X=X=X=X=X=X,X,X_.w = = 3 = = = = 3 = 3 + z v.D.,.= 3 = = 3 = = = = 3 = 3 = = 3 = < _.$X,X,X,X,X,X,X,X,X,X,X,X,X,X,X,X,X,X,X,X,X,X,X:X,X,X,X",
",X,X,X,X,X,X,X,X,X,X,X,X,X,X,X,X=X=XP.= 3 3 3 = = 3 3 = = = @ x B.D.6.= = 3 = = = = = = 3 = = = 3 = 3 d |.,X:X,X,X,X,X,X,X,X,X,X,X,X,X,X,X,X,X,X,X,X,X,X:X,X,X,X",
",X,X,X,X,X,X,X,X,X,X,X,X,X,X,X,X=X|.d 5 = = = = = = = = 3 = & u 6.t.D 3 = 3 = = 3 = 3 = 3 = 3 = = = = { ,X:X:X,X,X,X,X,X,X,X,X,X,X,X,X,X,X,X,X,X,X,X,X,X:X,X,X,X",
",X,X,X,X,X,X,X,X,X,X,X,X,X=X,X=X=X^.* ; = = 3 3 = 3 = 3 3 = ; ; = = 3 = = 3 3 = 3 = = = = 3 = = = 3 < _.,X,X,X,X,X,X,X,X,X,X,X,X,X,X,X,X,X,X,X,X,X,X,X,X:X,X,X,X",
",X,X,X,X,X,X,X,X,X,X,X,X,X=X=X=X=X!.> ; = 3 = = = = = = 3 = ; ; = # 3 = = = 3 = = = 3 3 = = = 3 = = { ,X,X,X,X,X,X,X,X,X,X,X,X,X,X,X,X,X,X,X,X,X,X,X,X,X:X,X,X,X",
",X,X,X,X,X,X,X,X,X,X,X,X,X,X,X,X,X` = ; < ; ; ; 3 3 = = = ; ; ; 3 3 3 = = 3 = = = = 3 = = 3 = 3 3 3 E.,X:X,X,X,X,X,X,X,X,X,X,X,X,X,X,X,X,X,X,X,X,X,X,X,X:X,X,X,X",
",X,X,X,X,X,X,X,X,X,X,X,X,X,X=X=X,XE.# = ; ; ; 4 = = = 3 ; = ; ; = = = 3 3 = 3 = 3 = = = = = = = = w ].,X:X,X,X,X,X,X,X,X,X,X,X,X,X,X,X,X,X,X,X,X,X,X,X,X:X,X,X,X",
",X,X,X,X,X,X,X,X,X,X,X,X,X,X,X,X,X,XOX~.f = 4 5 = = = 3 5 3 & ; 3 = 3 = = 3 = = 3 = = = 3 = 3 = 3 Y $X,X,X,X,X,X,X,X,X,X,X,X,X,X,X,X,X,X,X,X,X,X,X,X,X,X:X,X,X,X",
",X,X,X,X,X,X,X,X,X,X,X,X,X,X,X,X,X,X,X,X{._.K.f w = 3 3 W ~._._.K.f 3 3 = = = 3 = = 3 = 3 = = = = Q.,X,X,X,X,X,X,X,X,X,X,X,X,X,X,X,X,X,X,X,X,X,X,X,X,X,X:X,X,X,X",
",X,X,X,X,X,X,X,X,X,X,X,X,X,X,X,X,X,X:X:X:X:X,XoX_.{ Y K.*X=X=X=X=X'.W 4 5 ; ; ; ; ; ; & ; ; ; ; W |.=X=X=X,X,X,X,X,X,X,X,X,X,X,X,X,X,X,X,X,X,X,X,X,X,X,X:X,X,X,X",
",X,X,X,X,X,X,X,X,X,X,X,X,X,X,X,X,X,X,X,X:X:X:X,X=X=X$X=X$X=X=X=X=X=X$XT 3 3 ; ; & ; ; ; & ; $ ; { ,X=X=X,X,X,X,X,X,X,X,X,X,X,X,X,X,X,X,X,X,X,X,X,X,X,X,X:X,X,X,X",
",X,X,X,X,X,X,X,X,X,X,X,X,X,X,X,X,X,X,X,X,X,X,X:X=X=X=X=X=X=X=X=X=X=X=XK.; ; ; ; = = ; ; ; ; < < !.=X=X=X,X,X,X,X,X,X,X,X,X,X,X,X,X,X,X,X,X,X,X,X,X,X,X,X:X,X,X,X",
",X,X,X,X,X,X,X,X,X,X,X,X,X,X,X,X,X,X,X,X,X,X,X,X=X,X=X=X=X=X=X=X=X=X=X_.< 3 $ < ; & ; ; ; < ; f |.=X=X=X,X,X,X,X,X,X,X,X,X,X,X,X,X,X,X,X,X,X,X,X,X,X,X,X:X,X,X,X",
",X,X,X,X,X,X,X,X,X,X,X,X,X,X,X,X,X,X,X,X,X,X,X,X,X,X,X,X=X=X=X=X=X=X=X*X!.& = 3 = = = 3 3 = ; K.=X=X=X,X,X,X,X,X,X,X,X,X,X,X,X,X,X,X,X,X,X,X,X,X,X,X,X,X:X,X,X,X",
",X,X,X,X,X,X,X,X,X,X,X,X,X,X,X,X,X,X,X,X,X,X,X,X,X,X,X,X=X=X=X=X=X=X=X=X=X.XQ.` w < 3 = ; = ; ~.=X=X,X,X,X,X,X,X,X,X,X,X,X,X,X,X,X,X,X,X,X,X,X,X,X,X,X,X:X,X,X,X",
",X,X,X,X,X,X,X,X,X,X,X,X,X,X,X,X,X,X,X,X,X,X,X,X,X,X,X,X,X,X=X,X=X=X=X=X=X=X:X$XOXQ.Y w = = W $X,X,X,X,X,X,X,X,X,X,X,X,X,X,X,X,X,X,X,X,X,X,X,X,X,X,X,X,X:X,X,X,X",
",X,X,X,X,X,X,X,X:X,X:X,X:X,X:X:X,X:X,X:X,X:X,X,X,X,X,X,X,X,X,X,X=X=X=X=X=X=X:X:X,X,X$XQ.f f _.,X=X,X,X,X,X,X,X,X,X:X,X:X,X:X:X:X,X,X:X,X:X,X,X,X:X,X:X:X:X,X,X,X",
",X,X,X,X,X:X:X:X:X:X:X:X:X:X:X:X:X:X:X:X:X:X:X:X,X:X:X:X:X:X:X:X,X,X:X:X:X:X:X:X$X:X,X,XOXOX:X:X,X,X:X:X:X:X:X:X:X:X:X:X:X:X:X:X:X:X:X:X:X:X:X:X:X:X:X:X:X:X,X,X",
",X,X,X,X,X,X,X,X:X,X:X:X,X,X:X:X:X:X:X,X:X,X:X,X,X,X,X,X:X,X:X:X,X,X,X,X:X:X,X,X,X,X,X,X:X,X,X,X,X,X,X,X,X,X:X,X:X:X:X:X,X,X:X:X:X,X:X:X,X,X:X:X:X:X:X:X,X,X,X,X",
",X,X,X,X,X,X,X,X,X,X:X,X,X,X,X,X:X,X,X,X:X,X,X,X,X,X,X,X,X,X:X,X,X,X,X,X,X,X,X,X,X,X,X,X,X,X,X,X,X,X,X,X,X,X,X,X,X,X:X,X,X,X,X,X,X,X:X,X,X,X,X,X,X,X,X,X,X,X,X,X",
",X,X,X,X,X,X,X,X,X,X,X,X,X,X,X,X,X,X,X,X,X,X,X,X,X,X,X,X,X,X,X,X,X,X,X,X,X,X,X,X,X,X,X,X,X,X,X,X,X,X,X,X,X,X,X,X,X,X,X,X,X,X,X,X,X,X,X,X,X,X,X,X,X,X,X,X,X,X,X,X",
",X,X,X,X,X,X,X,X,X,X,X,X,X,X,X,X,X,X,X,X,X,X,X,X,X,X,X,X,X,X,X,X,X,X,X,X,X,X,X,X,X,X,X,X,X,X,X,X,X,X,X,X,X,X,X,X,X,X,X,X,X,X,X,X,X,X,X,X,X,X,X,X,X,X,X,X,X,X,X,X",
",X,X,X,X,X,X,X,X,X,X,X,X,X,X,X,X,X,X,X,X,X,X,X,X,X,X,X,X,X,X,X,X,X,X,X,X,X,X,X,X,X,X,X,X,X,X,X,X,X,X,X,X,X,X,X,X,X,X,X,X,X,X,X,X,X,X,X,X,X,X,X,X,X,X,X,X,X,X,X,X",
",X,X,X,X,X,X,X,X,X,X,X,X,X,X,X,X,X,X,X,X,X,X,X,X,X,X,X,X,X,X,X,X,X,X,X,X,X,X,X,X,X,X,X,X,X,X,X,X,X,X,X,X,X,X,X,X,X,X,X,X,X,X,X,X,X,X,X,X,X,X,X,X,X,X,X,X,X,X,X,X",
",X,X,X,X,X,X,X,X,X,X,X,X,X,X,X,X,X,X,X,X,X,X,X,X,X,X,X,X,X,X,X,X,X,X,X,X,X,X,X,X,X,X,X,X,X,X,X,X,X,X,X,X,X,X,X,X,X,X,X,X,X,X,X,X,X,X,X,X,X,X,X,X,X,X,X,X,X,X,X,X"
};
