/* XPM */
static char *xpm_[] = {
/* columns rows colors chars-per-pixel */
"80 80 52 1 ",
"  c #000000",
". c #040404",
"X c #060606",
"o c #060606",
"O c #3F057F",
"+ c #6F355D",
"@ c #763D58",
"# c #571D6E",
"$ c #450B7A",
"% c #4C1375",
"& c #521971",
"* c #5C236A",
"= c #642B65",
"- c #6A3061",
"; c #7D4453",
": c #616161",
"> c #070606",
", c #0C0A09",
"< c #262626",
"1 c #070707",
"2 c #090909",
"3 c #575757",
"4 c #545352",
"5 c #9D643D",
"6 c #B57D2C",
"7 c #A36B39",
"8 c #AD7532",
"9 c #B07830",
"0 c #854C4E",
"q c #8B5349",
"w c #945C43",
"e c #824950",
"r c #996040",
"t c #D0981A",
"y c #BB8328",
"u c #CE961B",
"i c #D19919",
"p c #DAA213",
"a c #E2AA0D",
"s c #C48C22",
"d c #C89020",
"f c #1D0096",
"g c #2C008B",
"h c #360085",
"j c #040404",
"k c #0B0B0B",
"l c #0E0E0E",
"z c #0F0F0F",
"x c #161616",
"c c #141414",
"v c #232221",
"b c None",
/* pixels */
"bbbbbbbbbbbbbbbbbbbbbbbbbbbbbbbbbbbbbbbbbbbbbbbbbbbbbbbbbbbbbbbbbbbbbbbbbbbbbbbb",
"bbbbbbbbbbbbbbbbbbbbbbbbbbbbbbbbbbbbbbbbbbbbbbbbbbbbbbbbbbbbbbbbbbbbbbbbbbbbbbbb",
"bbbbbbbbbbbbbbbbbbbbbbbbbbbbbbbbbbbbbbbbbbbbbbbbbbbbbbbbbbbbbbbbbbbbbbbbbbbbbbbb",
"bbbbbbbbbbbbbbbbbbbbbbbbbbbbbbbbbbbbbbbbbbbbbbbbbbbbbbbbbbbbbbbbbbbbbbbbbbbbbbbb",
"bbb1........................obbkzbbbbbbbbbbbb> .......................Xbjjbbbbbb",
"bbb>                         Xbboozbbbbbbbbb>                         obj.ocbbbb",
"bbb1                          obb. ojbbbbbb>.                         obj   jbbb",
"bbb1                         . >bbX ..1bbb1 .                         Xbj . Xbbb",
"bbb1                            >bb.  .cb1                            Xbj . obbb",
"bbb1                           ..>bc..cb1.                            Xbj   obbb",
"bbb1                              1bczbk                              Xbj   >bbb",
"bbb> .                           ..1bbk                               Xbj . obbb",
"bbb1 .                              jz                              . Xbj . obbb",
"bbb1                                 .                                Xbj . obbb",
"bbb1                                                                  Xbj   obbb",
"bbb>                                                                  Xbj . >bbb",
"bbb1                                                      .>>         Xbj  .cbbb",
"bbb> .                                                 . ocbbc.       Xbj. cbbbb",
"bbb1                                               .   .obbbbb1..     Xbj.jbbbbb",
"bbb1                                                  .kbbbbbb>       Xb1>bbbbbb",
"bbb> .                                           o>>.>cbbbbbb> .      Xbcbbbbbbb",
"bbb1                                            >bbbbbbbbbbz.        .Xbbbbbbbbb",
"bbb1                                            cbbbbbbbbc>  .        Xbbbbbbbbb",
"bbb1                                           .cbbbbbbb1             Xbbbbbbbbb",
"bbb1                                           1bbbbbbz.  .>>.        cbbbbbzbbb",
"bbb>                                      .  >cbbbbbbb> .>bbbc.      1bbbbbzXbbb",
"bbb,                                      ..zbbbbbbbbbk .bbbbb>..   .bbbbbbXobbb",
"bbb,                                     .1bbbbbbbbbbb1 >bbbbbz    .1bbbbb1 >bbb",
"bbb,..                                 .>bbbbbbzjbbbbb1 >bbbbbc    .bbbbbc. obbb",
"bbb,                                 ojbbbbbbb> .zbbbb1.obbbbbb. . 1bbbbb>  obbb",
"bbb,                                obbbbbbbz. ..jbbbb1 .cbbbbb.  .cbbbbz   obbb",
"bbb>                               .jbbbbbb1.    1bbbbj .jbbbbb>  >bbbbbj . obbb",
"bbb,                                >bbbbbX      jbbbbj  >bbbbb>..zbbbbbj   obbb",
"bbb,                                 1cbj.       1bbbbz  .bbbbb1.>bbbbbbj.. obbb",
"bbb,                                  .        ..1bbbbc   jbbbbz.jbbbbbbj   obbb",
"bbb>                                    .        jbbbbc   >bbbbbjbbbbblbj . obbb",
"bbb,                        ..              ..   jbbbbc.  .cbbbbbbbbbb,bj   obbb",
"bbb,                         z>            oc. ..jbbbbc.   1bbbbbbbbbzXbj . obbb",
"bbb,                         cb,        . Xbb.   zbbbbc    .bbbbbbbbb1.bj   obbb",
"bbb,                        .cbbj       .2bbc.   zbbbbc.  ..jbbbbbbbb..bj.. obbb",
"bbb,.                        cccbz.    .jbccc... zbbbbc.    >bbbbbbbc.obj ..Xbbb",
"bbb,.                        bc.zbc. ..zbc.zb... cbbbbc     .cbbbbbbk obj  .,bbb",
"bbb,                         cb .1bb..cbk..zb.   cbbbbc    . jbbbbbbX Xbj ..Xbbb",
"bbb,                       . cc  .zbbbbck1zbb.  .cbbbbc      obbbbbc. Xbj ..Xbbb",
"bbb,                    X...v  3  zbbbbbbbbbc.   bbbbbz.      zbbbb1  obj . ,bbb",
"bbb,                    XX..4  4  zbbbbbbbbbc. ..cbbbbc       .zbcj.  .bj . Xbbb",
"bbb,                    XX<<4, <  zbbbbbbbbbb....cbbbbc         .     obj   Xbbb",
"bbb> .     .   .     .  XX,<,  3. zbbbbbbbbbc... cbbbbb.     .    . . obj   <bbb",
"bbb,...........    br4         b        bbbbk<<< cbbbbbX........XXXXXXXb2...<jbb",
"bbbczkkzzjkzjzzz     ,                  bbbbb,x,zbbbbbbzzkllkzzjlllllllbck<,xbbb",
"bbbbbbbbbbbbbbbb                        bbbbbbbbbbbbbbbbbbbbbbbbbbbbcbbbbx:4bbbb",
"bbbbbbbbbbbbbbbb                        bbbbbbbbbbbbbbbbbbbbbbbbbbbbbbbbbxxlbbbb",
"bbbbbbbbbbbbbbbb      bb            bbb bbbbbbbbbbbbbbbbbbbbbbbbbbbbbbbbbbbbbbbb",
"bbbbbbbbjbbbcbcb     jbb            bbj bjjbbbj bbbbbbbbjbbbbbbcbbbjbbbbbcbbjbbb",
"bbbsustt9tttttusw357b7tt rw3 5w3w5  tttttt9ttt6yusttustt9ttttsistttsusstiyyytbbb",
"bbbuiiuuptuuuuup777t98udb755b855587biiiiiiitiituuuuupiuuptuuduupuudiiiiippuuubbb",
"bbbiuuuuuuuuuuuuduuuuisstuuiuuuu55ttutiiuuiuuudipidsuiuuuiduuuuiiipiiiuuuuiuubbb",
"bbbpuiiiiiiiiiuu87yyyy8ypiiiuiui555wysiiiuiuiiyr77ysiuiupty7yyyyy66yuiiiiuiuibbb",
"bbbauiiuuuiuippyhhO$#O$%ruiiuuiu56:%&5puiiuut:Oh%h$=siuupeOOOO%$hhh#iuuuiiiiubbb",
"bbbiuiiuiiiiituqgOh%$Ogh$qpuiuii53*&$:puuuis-hhh$h$h*diup-hOhhhhhhg;auuiuiuiibbb",
"bbbiiuiiiuuiiupehh0y89e$$$9suuuieh$$h*yyiupwhh=yyy=hgeduy$h&5yy7999uiuuiiiiiubbb",
"bbbiiiuiiiiiiis#h$ydudd=g$yuuuiyhh*eg&ddudp0h$7pyiy$$-di7hh-uuudiiiiiiiiiuiuibbb",
"bbbiiiiiuiuiuuy%h*puip9#h=duduy*ghyqg&yiuudegh+ypiyyysduq$h0puipppiiiiiuiiiuubbb",
"bbbiiiiuiiiiddwO$:755r#g$8iudd5hh*u:h#6iuduyhhh#wyiuiiud+hOeqe0qe;5iuiiuiuiiibbb",
"bbbiuiuiiiiiupeghhggggh$6puiii&hh6p7hgwpuuup5$hhgh@siuii&hhggggfgf0puiiuuiiiubbb",
"bbbuiiuiuiuiii=hO$$$$Ohh=diupwgh;aps$g;puuuupd0%hhh$yiis$h$*******ypuuiiiiuiibbb",
"bbbiiuiiuiiuiu%h$sddds+hgepis$hO@00;hh-puipiuipdr%hg=pp7hg+pupipiiiuiiuiuiiiubbb",
"bbbiiiiuiiuup6hh=iiiiishh=ipehhhgggghh&up9=#qpdups$h%dpqhhqpduduuuiiuiuiiiuuibbb",
"bbbiiiiuuiiuprhheappppqhg;ayhhO####*$h$sp8hg#pppps$h#up-hh6appppppiuiiiuuiiiibbb",
"bbbiiiiiiiiupegh@5rrw@hhh9p-hhwpiiip;hh9pd%hh-77r&hg0pd&h$qrw5wrrrdiuiiiiiuiubbb",
"bbbuiiiuiuuui=ghhgggggghqa7hh&iuuiipqghrpp7hhghhhgg=iiyhhhggggggg$uiuiuiuiiiibbb",
"bbbiuuiiiiuid&$%$$%$%&+8pi=OO7puiiui8$hqpdi9=$hhh&0iip7O$$%$%%$%O;puiiuiiiuuibbb",
"bbbuiuiiiiiiudddddddduppuudddiiiiuiiudduiuuppdy9yipiuiuddusdusduduiiiuiiiiuiubbb",
"bbbuiiiuuiiuiiiipiiiiuuuuuiiiiiiiiiuiiiiiuuuuiipiiiiiiuiiiiiiiiipdiiiuiuuiuiibbb",
"bbbuiuuuiiuiuiuuuuuiiiuuiiuuuiiiiuiuiuuuiuuiuuuuuiiiuiiuiuiiuuuuidiiiiiiiiiiubbb",
"bbbuiuuuuuiiiuuuiuuiiiuuiuiiiiuiiuiiiiiiiiiiuiuuiuiiiiuiiiuiiiiiiiiuuiuuuuiuibbb",
"bbbbbbbbbbbbbbbbbbbbbbbbbbbbbbbbbbbbbbbbbbbbbbbbbbbbbbbbbbbbbbbbbbbbbbbbbbbbbbbb",
"bbbbbbbbbbbbbbbbbbbbbbbbbbbbbbbbbbbbbbbbbbbbbbbbbbbbbbbbbbbbbbbbbbbbbbbbbbbbbbbb",
"bbbbbbbbbbbbbbbbbbbbbbbbbbbbbbbbbbbbbbbbbbbbbbbbbbbbbbbbbbbbbbbbbbbbbbbbbbbbbbbb",
"bbbbbbbbbbbbbbbbbbbbbbbbbbbbbbbbbbbbbbbbbbbbbbbbbbbbbbbbbbbbbbbbbbbbbbbbbbbbbbbb"
};
