/* XPM */
static char *xpm_[] = {
/* columns rows colors chars-per-pixel */
"80 80 66 1 ",
"  c #1D8AB8",
". c #1D8AB8",
"X c #1D8AB8",
"o c #1D8AB8",
"O c #1D8AB8",
"+ c #1D8AB8",
"@ c #0078AD",
"# c #077EB1",
"$ c #1D8AB8",
"% c #1D8AB8",
"& c #1D8AB8",
"* c #1D8AB8",
"= c #1D8AB8",
"- c #1D8AB8",
"; c #1D8AB8",
": c #0D82B3",
"> c #1D8AB8",
", c #1D8AB8",
"< c #238DBA",
"1 c #2C92BD",
"2 c #3194BE",
"3 c #198FC1",
"4 c #1694C9",
"5 c #0E9EDA",
"6 c #119BD6",
"7 c #3B9AC1",
"8 c #0DA0DE",
"9 c #27A1D4",
"0 c #0BA3E3",
"q c #04ADF4",
"w c #00B4FE",
"e c #439DC4",
"r c #4CA2C7",
"t c #56A7CA",
"y c #63AECE",
"u c #67B0CF",
"i c #6BB2D0",
"p c #79B9D5",
"a c #82BED8",
"s c #8BC3DA",
"d c #96C9DE",
"f c #9DCCE0",
"g c #A2CFE1",
"h c #AAD3E4",
"j c #B8DAE8",
"k c #C1DFEB",
"l c #C8E2ED",
"z c #CFE6F0",
"x c #D6EAF2",
"c c #E0EFF5",
"v c #EAF4F8",
"b c #FBFDFE",
"n c #1D8AB8",
"m c #1D8AB8",
"M c #1D8AB8",
"N c #1D8AB8",
"B c #1D8AB8",
"V c #1D8AB8",
"C c #1D8AB8",
"Z c #1D8AB8",
"A c #1D8AB9",
"S c #1D8AB8",
"D c #1D8AB8",
"F c #1D8AB9",
"G c #1D8AB8",
"H c None",
/* pixels */
"HHHHHHHHHHHHHHHHHHHHHHHHHHHHHHHHHHHHHHHHHHHHHHHHHHHHHHHHHHHHHHHHHHHHHHHHHHHHHHHH",
"HHHHHHHHHHHHHHHHHHHHHHHHHHHHHHHHHHHHHHHHHHHHHHHHHHHHHHHHHHHHHHHHHHHHHHHHHHHHHHHH",
"HHHHHHHHHHHHHHHHHHHHHHHHHHHHHHHHHHHHHHHHHHHHHHHHHHHHHHHHHHHHHHHHHHHHHHHHHHHHHHHH",
"HHHHHHHHHHHHHHHHHHHHHHHHHHHHHHHHHHHHHHHHHHHHHHHHHHHHHHHHHHHHHHHHHHHHHHHHHHHHHHHH",
"HHHHHHHHHHHHHHHHHHHHHHHHHHHHHHHHHHHHHHHHHHHHHHHHHHHHHHHHHHHHHHHHHHHHHHHHHHHHHHHH",
"HHHHHHHHHHHHHHHHHHHHHHHHHHHHHHHHHHHHHHHHHHHHHHHHHHHHHHHHHHHHHHHHHHHHHHHHHHHHHHHH",
"HHHHHHHHHHHHHHHHHHHHHHHHHHHHHHHHHHHHHHHHHHHHHHHHHHHHHHHHHHHHHHHHHHHHHHHHHHHHHHHH",
"HHHHHHHHHHHHHHHHHHHHHHHHHHHHHHHHHHHHHHHHHHHHHHHHHHHHHHHHHHHHHHHHHHHHHHHHHHHHHHHH",
"HHHHHHHHHHHHHHHHHHHHHHHHHHHHHHHHHHHHHHHHHHHHHHHHHHHHHHHHHHHHHHHHHHHHHHHHHHHHHHHH",
"HHHHHHHHHHHHHHHHHHHHHHHHHHHHHHHHHHHHHHHHHHHHHHHHHHHHHHHHHHHHHHHHHHHHHHHHHHHHHHHH",
"HHHHHHHHHHHHHHHHHHHHHHHHHHHHHHHHHHHHHHHHHHHHHHHHHHHHHHHHHHHHHHHHHHHHHHHHHHHHHHHH",
"HHHHHHHHHHHHHHHHHHHHHHHHHHHHHHHHHHHHHHHHHHHHHHHHHHHHHHHHHHHHHHHHHHHHHHHHHHHHHHHH",
"HHHHHHHHHHHHHHHHHHHHHHHHHHHHHHHHHHHHHHHHHHHHHHHHHHHHHHHHHHHHHHHHHHHHHHHHHHHHHHHH",
"HHHHHHHHHHHHHHHHHHHHHHHHHHHHHHHHHHHHHHHHHHHHHHHHHHHHHHHHHHHHHHHHHHHHHHHHHHHHHHHH",
"HHHHHHHHHHHHHHHHHHHHHHHHHHHHHHHHHHHHHHHHHHHHHHHHHHHHHHHHHHHHHHHHHHHHHHHHHHHHHHHH",
"HHHHHHHHHHHHHHHHHHHHHHHHHHHHHHHHHHHHHHHHHHHHHHHHHHHHHHHHHHHHHHHHHHHHHHHHHHHHHHHH",
"HHHHHHHHHHHHHHHHHHHHHHHAFZ.+---&---+.BCHHHHHHHHHHHHHHHHHHHHHHHHHHHHHHHHHHHHHHHHH",
"HHHHHHHHHHHHHHHHHHHDB &;>>4<><>>>>>>><3;;-+BmHHHHHHHHHHHHHHHHHHHHHHHHHHHHHHHHHHH",
"HHHHHHHHHHHHHHHHm.=>>>4<>>>>>>>>>>>>>>>>3<>>3,-BHHHHHHHHHHHHHHHHHHHHHHHHHHHHHHHH",
"HHHHHHHHHHHHHHm&3<>>;>><>>>>>>>>>>>>>>>>>>>>><>>>-ZAHHHHHHHHHHHHHHHHHHHHHHHHHHHH",
"HHHHHHHHHHHHm&>>>>>>>>>>>>>>>>>>><>>>>>>>>>>>>>>>>>,-mHHHHHHHHHHHHHHHHHHHHHHHHHH",
"HHHHHHHHHHH-3>;>>>>>>>>>>>>>><>>>>>>>>3<>>>>>>>>>>>><3=BHHHHHHHHHHHHHHHHHHHHHHHH",
"HHHHHHHHHS=><>>>>>>>>>>>>3>>>>>>>>>>>>>><>>>>><>>>>>>>><;.HHHHHHHHHHHHHHHHHHHHHH",
"HHHHHHHHm>>>>>>>>>>>><>>>>>>>>>>>>>>>>>>>>>>>>>>>>>>>>>;<3,BHHHHHHHHHHHHHHHHHHHH",
"HHHHHHHm3<>>>>>>>>>>>>>>>>>>>><>>>>>>>>>>>><>>>>>>>>><3>>;>>&mHHHHHHHHHHHHHHHHHH",
"HHHHHHH4<<>>>>><>><>>>>>>>>>>>>>>>>>>>>>>>>3>>>>>>>>>>>>>>>>3<+HHHHHHHHHHHHHHHHH",
"HHHHHH&>;>>>>>>>>>>>><>>>>>>>>>>>>3>>>>>>>>>>>>>>>>>>>>>>>>>>>3=SHHHHHHHHHHHHHHH",
"HHHHHB>>>>>>>>>>>>>>>>>>>>>>>>>>>><>>>><>>>>>>>>>>>>>>>>>>>>>>;<>BHHHHHHHHHHHHHH",
"HHHHH,>>>>;>>>>>>3>>>>>>>>>>>>>>>>><>>>>><>>>>>>>><>>>>>>>>>>>>>>>+HHHHHHHHHHHHH",
"HHHHC3;>>><<>>>>><>><>;>><>>>>>>>>>3>>>>>>>>>>>>>>>>>><>>>>>>>>>>>>-HHHHHHHHHHHH",
"HHHH->>>>6088466>5445804>>>>>>>>>>>>>>>>>>>>>>3<>>>>>>>>>><>>>>><>>>&HHHHHHHHHHH",
"HHHH$<>>>qwww0qq>w05wqq6>>>>><>>>>>>>>>>>>>>>>>>>>>>>>>>>>>>>>>>>>><3&HHHHHHHHHH",
"HHHH,>>>>>5w4>qq0w86w003>>>>>>>>><>>>>>>>>>>>>>>>>>>>>>>>>>>>>>>>>>>;>-HHHHHHHHH",
"HHHm>>>>>>6w3>qwww86wqq4>>>>>>>>>>>>>>>>>>>>>>>>>>>>>>>>>>>>>>>>>>>>>>9mHHHHHHHH",
"HHHC>>>>>>6w4>qq>w86w643>>>>>>><>>>>>>><<>>><>>>>><>>>>>>>>>>>>>><>>>>>>CHHHHHHH",
"HHHF>>>>><6w>>qq>w86www8>>>>>>>:>>>>>>>>>:>>>>>:>>>>>>>>>>>>>>>>>:>>>>>>$HHHHHHH",
"HHHD>>>>>>>63>44>433994><222<121<>>17>>321<>1121<71>12<1722<7>>711227<>>>+HHHHHH",
"HHHH&>><>>>>>><>><:yvbvtrvvbgsbbxe:hbr:jbbxycbvbslvejbtlvbctvs7vpcbcbu:>>3SHHHHH",
"HHHH ;>>>>>>>>>>><:ubjbzybjdyfbdba<bbg:xvdbhdvbjivbsvbucvsptbbpbadvbjr>>>>+HHHHH",
"HHHHB>;>>>>>>>>>><:ubrfvpbvbidblbuybzx>lblbu@hb>3bbxbbyxbvjrbbcbu#jv>:>>>>,HHHHH",
"HHHHH,3<>>><>>>>><>ybtgbibhsedbxf>hbzbekbbv1:hb12vxbxvuxxsurbzbbu:kv<><>>><CHHHH",
"HHHHH->>>>>>>>>>>>:ibxbjybzjpgb1:1vbcbslxpbp#jb12bhbjbicbjhubpzbu#lb<>>>>;> HHHH",
"HHHHHH>>>>>>>>><><:txxl7rxxvfpz7:rxi>lfhj2zh:sl<1jijujrhzxztxrrxt#dj>>>>>><=HHHH",
"HHHHHH+>;>>>>>3>>>>>>>>:>>>>>><>>><>>>>>>>>>>>>ixj7hkjletzk77jljeykll7:>>>34HHHH",
"HHHHHHA,<>>>>>>>>>>>>>><>>>>>>>>>>>>>>>>>>>>>>7bxbgkbbvibvbztbzbjsblk7>>>><>mHHH",
"HHHHHHHm33>>>>><>>>>>>>>>>3<>>>>>>>>>>><>>>>>>3vvzt:jv<ibepbibhvjsbjh<>>>>>>mHHH",
"HHHHHHHHm9>>>>>>>>>>>>>>>>>>>>>>>>>>>>>>>>>>>>>pxbh#hv:pb1ybpbbbrpblj<>>>>>>CHHH",
"HHHHHHHHH >>>>>>>>>>>>>>>>>>><>>>>><>>>>>>>>>:rbaxz#jv>tbdlvybdbssbpp7>>>>>,HHHH",
"HHHHHHHHHH&4<>>>>>>>>>>>>>>>>>>>>>>>>>>>>>><>><lbbi#hc<>hbbprbtjcfbbbt>>>>>$AHHH",
"HHHHHHHHHHH&<;>>><>>>>>>3<>>>>>>>><>>>>>>>>>>>>3t7>>77>>>r7><r<7777re1>>>>>-HHHH",
"HHHHHHHHHHHH-3>>>>>>>>>>>>>><>>>>>>>>>>>>>>>>><>>:>>>>><>:>>>:>>>>:>:>>>>>>mHHHH",
"HHHHHHHHHHHHH+>>>>>>>>>><>>>>>3>>>>>>>>>>>>>>>>>>>>>>>>>><>>>>>><>><<>>>>3,HHHHH",
"HHHHHHHHHHHHHHC3<;>>>>>>>>>>>>>>>>>3>><>>>>>>>>>>>>>>>>>>>><>>>>>>>>>>>>>>.HHHHH",
"HHHHHHHHHHHHHHHD=3>>>>>>>>>>>>>>>>><3>>>>>>>>>>>>>><>>>>>>>>>>>>>>>>>><>>&HHHHHH",
"HHHHHHHHHHHHHHHHH+>>>>>>>>>>>>>>>>>>>>>>>>>>>>>>>>>>>>>>>>>>>>>>>>>>>>>>;HHHHHHH",
"HHHHHHHHHHHHHHHHHHm&>>>>>>>>>>><>>>>>>>><>>>>><>>>>>>>>>>>>>>>>>>>>>>>>>mHHHHHHH",
"HHHHHHHHHHHHHHHHHHHHB$3<>>>>>>>>>>>>>>>>>>>>>>>>>>>>>>>>><>>>>>>>>>>;>>mHHHHHHHH",
"HHHHHHHHHHHHHHHHHHHHHH.;>>>>>>>>>>>>><>>>>>>>>>>>>>>>>>>>>>>>>>>>>>>>=DHHHHHHHHH",
"HHHHHHHHHHHHHHHHHHHHHHHHB=><>>>>>>>>>>>>><>>>>>>>>>>>>>>>>>>>>>>>>>> HHHHHHHHHHH",
"HHHHHHHHHHHHHHHHHHHHHHHHHHm-,>>>>>>>>>>>>>>>>>>>>>>><>>>>>>3<>>><3&CHHHHHHHHHHHH",
"HHHHHHHHHHHHHHHHHHHHHHHHHHHHAZ-,>><<>>>>>>>>>>>>>>>>>>>>>>>>>3<>&mHHHHHHHHHHHHHH",
"HHHHHHHHHHHHHHHHHHHHHHHHHHHHHHHAB-,4>>>><<>>>>>>>>>>><>>>>>>>&.DHHHHHHHHHHHHHHHH",
"HHHHHHHHHHHHHHHHHHHHHHHHHHHHHHHHHHHmZ+-$43<3>>><>>>>3134,= BDHHHHHHHHHHHHHHHHHHH",
"HHHHHHHHHHHHHHHHHHHHHHHHHHHHHHHHHHHHHHHHHmB.+ ------++CFAHHHHHHHHHHHHHHHHHHHHHHH",
"HHHHHHHHHHHHHHHHHHHHHHHHHHHHHHHHHHHHHHHHHHHHHHHHHHHHHHHHHHHHHHHHHHHHHHHHHHHHHHHH",
"HHHHHHHHHHHHHHHHHHHHHHHHHHHHHHHHHHHHHHHHHHHHHHHHHHHHHHHHHHHHHHHHHHHHHHHHHHHHHHHH",
"HHHHHHHHHHHHHHHHHHHHHHHHHHHHHHHHHHHHHHHHHHHHHHHHHHHHHHHHHHHHHHHHHHHHHHHHHHHHHHHH",
"HHHHHHHHHHHHHHHHHHHHHHHHHHHHHHHHHHHHHHHHHHHHHHHHHHHHHHHHHHHHHHHHHHHHHHHHHHHHHHHH",
"HHHHHHHHHHHHHHHHHHHHHHHHHHHHHHHHHHHHHHHHHHHHHHHHHHHHHHHHHHHHHHHHHHHHHHHHHHHHHHHH",
"HHHHHHHHHHHHHHHHHHHHHHHHHHHHHHHHHHHHHHHHHHHHHHHHHHHHHHHHHHHHHHHHHHHHHHHHHHHHHHHH",
"HHHHHHHHHHHHHHHHHHHHHHHHHHHHHHHHHHHHHHHHHHHHHHHHHHHHHHHHHHHHHHHHHHHHHHHHHHHHHHHH",
"HHHHHHHHHHHHHHHHHHHHHHHHHHHHHHHHHHHHHHHHHHHHHHHHHHHHHHHHHHHHHHHHHHHHHHHHHHHHHHHH",
"HHHHHHHHHHHHHHHHHHHHHHHHHHHHHHHHHHHHHHHHHHHHHHHHHHHHHHHHHHHHHHHHHHHHHHHHHHHHHHHH",
"HHHHHHHHHHHHHHHHHHHHHHHHHHHHHHHHHHHHHHHHHHHHHHHHHHHHHHHHHHHHHHHHHHHHHHHHHHHHHHHH",
"HHHHHHHHHHHHHHHHHHHHHHHHHHHHHHHHHHHHHHHHHHHHHHHHHHHHHHHHHHHHHHHHHHHHHHHHHHHHHHHH",
"HHHHHHHHHHHHHHHHHHHHHHHHHHHHHHHHHHHHHHHHHHHHHHHHHHHHHHHHHHHHHHHHHHHHHHHHHHHHHHHH",
"HHHHHHHHHHHHHHHHHHHHHHHHHHHHHHHHHHHHHHHHHHHHHHHHHHHHHHHHHHHHHHHHHHHHHHHHHHHHHHHH",
"HHHHHHHHHHHHHHHHHHHHHHHHHHHHHHHHHHHHHHHHHHHHHHHHHHHHHHHHHHHHHHHHHHHHHHHHHHHHHHHH",
"HHHHHHHHHHHHHHHHHHHHHHHHHHHHHHHHHHHHHHHHHHHHHHHHHHHHHHHHHHHHHHHHHHHHHHHHHHHHHHHH",
"HHHHHHHHHHHHHHHHHHHHHHHHHHHHHHHHHHHHHHHHHHHHHHHHHHHHHHHHHHHHHHHHHHHHHHHHHHHHHHHH"
};
