/* XPM */
static char *xpm_[] = {
/* columns rows colors chars-per-pixel */
"80 80 47 1 ",
"  c #EE2E26",
". c #ED1E16",
"X c #ED241C",
"o c #EE2E26",
"O c #EE2E26",
"+ c #EE3129",
"@ c #EF3D35",
"# c #EE2E26",
"$ c #EE2E26",
"% c #EE2E26",
"& c #EF4039",
"* c #F0433C",
"= c #F04B44",
"- c #F1534C",
"; c #F25D56",
": c #F2625C",
"> c #F36A65",
", c #F47973",
"< c #EE2E26",
"1 c #EE2E26",
"2 c #EE2E26",
"3 c #EE2E26",
"4 c #EE2E26",
"5 c #F5817D",
"6 c #F58A85",
"7 c #F6948F",
"8 c #F79B97",
"9 c #F7A19D",
"0 c #F8A8A5",
"q c #FABCB9",
"w c #FAC0BE",
"e c #FBC8C6",
"r c #FCD9D7",
"t c #FCE0DE",
"y c #FDEAE9",
"u c #FEF0EF",
"i c #FFFDFD",
"p c #EE2E26",
"a c #EE2E26",
"s c #EE2E26",
"d c #EE2E26",
"f c #EE2E26",
"g c #EE2E26",
"h c #EE2E26",
"j c #EE2E26",
"k c #EE2E26",
"l c None",
/* pixels */
"llllllllllllllllllllllllllllllllllllllllllllllllllllllllllllllllllllllllllllllll",
"llllllllllllllllllllllllllllllllllllllllllllllllllllllllllllllllllllllllllllllll",
"llllllllllllllllllllllllllllllllllllllllllllllllllllllllllllllllllllllllllllllll",
"llllllllllllllllllllllllllllllllllllllllllllllllllllllllllllllllllllllllllllllll",
"llllllllllllllllllllllllllllllllllllllllllllllllllllllllllllllllllllllllllllllll",
"llllllllllllllllllllllllllllllllllllllllllllllllllllllllllllllllllllllllllllllll",
"llllllllllllllllllllllllllllllllllllllllllllllllllllllllllllllllllllllllllllllll",
"llllllllllllllllllllllllllllllllllllllllllllllllllllllllllllllllllllllllllllllll",
"llllllllllllllllllllllllllllllllllllllllllllllllllllllllllllllllllllllllllllllll",
"llllllllllllllllllllllllllllllllllllllllllllllllllllllllllllllllllllllllllllllll",
"llllllllllllllllllllllllllllllllllllllllllllllllllllllllllllllllllllllllllllllll",
"llllllllllllllllllllllllllllllllllllllllllllllllllllllllllllllllllllllllllllllll",
"llllllllllllllllllllllllllllllllllllllllllllllllllllllllllllllllllllllllllllllll",
"llllllllllllllllllllllllllllllllllllllllllllllllllllllllllllllllllllllllllllllll",
"llllllllllllllllllllllllllllllllllllllllllllllllllllllllllllllllllllllllllllllll",
"llllllllllllllllllllllllllllllllllllllllllllllllllllllllllllllllllllllllllllllll",
"llllllllllllllllllllllllllllllllllllllllllllllllllllllllllllllllllllllllllllllll",
"llllllllllllllllllllllllllllllllllllllllllllllllllllllllllllllllllllllllllllllll",
"llllllllllllllllllllllllllllllllllllllllllllllllllllllllllllllllllllllllllllllll",
"llllllllllllllllllllllllllllllllllllllllllllllllllllllllllllllllllllllllllllllll",
"llllllllllllllllllllllllllllllllllllllllllllllllllllllllllllllllllllllllllllllll",
"llllllllllllllllllllllllllllllllllllllllllllllllllllllllllllllllllllllllllllllll",
"llllllllllllllllllllllllllllllllllllllllllllllllllllllllllllllllllllllllllllllll",
"llllllllllllllllllllllllllllllllllllllllllllllllllllllllllllllllllllllllllllllll",
"llllllllllllllllllllllllllllllllllllllllllllllllllllllllllllllllllllllllllllllll",
"lll<OO++++++OOOO++++O+4llkoOOOOO++OOOOOOOOOO+klldOOOOOOOOOO++OO+OOO4llllllllllll",
"lllOOOOOOOOOOOOOOOOOOOOklhO+OOOOOOOOOOOOOOOOO4ll$+OOOOOOOOO+OO+OOOOOllllllh4dlll",
"lllOOOOOOOOOOOOOOOOOOOollh+OOOOOOOO+OOOOOOOOO4ll$OOOOOOOOOOOOOOOOOOOhllh4l4hOlll",
"lllOOOOOOOOOOOOOOOOOOO%ll4OOOOOOOOOOOOOOOOOOO4ll$OOOOOOOOOOO+OOOOOOOllh%Ohl44lll",
"lllOOO+OO+OOOOOOOOOOOOOllhOOOOOOOO+OOOOOOOOO+4ll$OOOOOO+OOOOOOOOOOOOhll44lhohlll",
"lllOOOO+OOOOOOOOOOOOOOollh+OOOOOOOOOOO+OOOOOO4ll$OOOOOOOOOOOOOOOOO++llllll3$4lll",
"lllOOO++++++OOO+OO+OOOoll4+OOOO+++OOOOOOOOOOO4ll$OOOOOOOOO+++++OOO++klllllllllll",
"lllOOOOXXXXXXXXXXXXO+++llhOO+++XXXOOOOOOOOOOO4ll$OOOOOOOX.OXX.X+OOOOllllllllllll",
"lllO+X*weweeweeewwq@O+ollhOO++X7eq@OOOOOOOOOO4ll$OOOO+OX;0eeq6@XOOOOllllllllllll",
"lllO+X=iiiiiiiiiiii*X+XllhOOO+Xrii=XO+OOOOOOO4ll3OOOOX*eiiiiiiu6++OOhlllllllllll",
"lllO+O=uuuuuiiuuuuy@O++ll4OOO+Xeiu*O+OOOOOOOO4lloOO+O=yiiiuuiiii=X+Ollklllllllll",
"lllO+OO@**+5ii7+**@OOO#ll4OOO+Xeiu*XOOOOOOOOO4ll%+OOOriiy,*+-0i>X+OOklllllllllll",
"lllOOOOXOO.,ii6.+OOOOOollhOO++Xeiu*O+OOOOOOOO4ll$+O.5iiy+.OOXX@XOOOOklllllllllll",
"lllO+OO+O+X,ii6.+OOOOOOlldOO++Xeiu*OOOOOOOOOO4ll$++Xeii:.++++OOOOOOOklllllllllll",
"lllO+OOOO+.,ii6.+O+OOOOllhOO++Xeii*XOOOOOOOOO4ll$+X@yirO+++OOOOO+OOOklllllllllll",
"lllOOOOOO+.,ii6X++OOOO lld+OO+Oeii*O+OO++OOOO4ll OO&uieO++OOOOOOOOOOllllllllllll",
"lllOOO+O++.,ii6.+OOOOOOlldOOO+Xeiu*XOOOOOOOOO4ll OO+yiy+O+OOOO++OOOOklllllllllll",
"lllOOOO+O+.,ii6.+OOOOOolldOOO+Xeiu*O+++OOOOOO4ll O+Xwii,.++++OX+OOOOklllllllllll",
"lllOOOO++OX,ii6X++OOOOOllhOOO+Xeiu@.XXXOOOOOO4ll O+X>iiu-.XX.+;XOOOOklllllllllll",
"lllOOOOOO+X,ii6.+OOOOO#lldOOO+Xeii0::::-OOOOOdll OO+Xqiii9:;,ei7OOOOllllllllllll",
"lll+OOO+O+.,ii6.+OOOOOOll4OOO+X0iiiiiiirOOOOO4ll OOOO+eiiiiiiiii-XOOhlllllllllll",
"lll+OOOOO+X,ii7.++OOOOollh+OOOO*uiiiiiiyOOOOO4ll3OOOOOO8uiiiiir;OOOOklllllllllll",
"lllOOOOOOOO-99;X+OOOO+OllhO+OO+X@6888896OOOOO4lloOOOOOOX*,897;OXOOOOklllllllllll",
"lll+OOOOOOOO..X+OOOOOOolldOOOOO+O.......OOOOO4ll%OOOOOO+XX...XO+OOOOllllllllllll",
"lll+OOOOOOO+O++OOOOOOOokldOOO+OO++++++++OOOOO4ll%OOOOOOO+++O++OOOOOOllllllllllll",
"lll++OOOOO+OOOOOOO+OOO lldOOOOOOOOOO++OOOOOO+4ll3OOOOOOO+OOOO+OOOOOOhlklllllllll",
"lll+OOOOOOOOOOOOOOOOOOollhOOOOOOOOOOOOO+OOOOO4lloOOOO+OOOOOOOOOOOOOOllllllllllll",
"lllO+OOOOOOOOOOOOOOO++OlldOOOOOOOOOOOOOOOOOOO4ll%+OOOOOOOOO+OOOOOOOOklllllllllll",
"lll+OOOOOOOOOOOOOOOOO+olld+OOOOOOOOO+OOOOOOOO4ll%OO+OO+OOOOOOOOOOOO+klllllllllll",
"lll4OOOOOOOOOOO+++++OO4lll++OOOOOOOOO++O++OOOklld+++OOO+OOOOOOOO+O+1llllllllllll",
"llllllllllllllllllllllllllllllllllllllllllllllllllllllllllllllllllllllllllllllll",
"llllllllllllllllllllllllllllllllllllllllllllllllllllllllllllllllllllllllllllllll",
"llllllllllllllllllllllllllllllllllllllllllllllllllllllllllllllllllllllllllllllll",
"llllllllllllllllllllllllllllllllllllllllllllllllllllllllllllllllllllllllllllllll",
"llllllllllllllllllllllllllllllllllllllllllllllllllllllllllllllllllllllllllllllll",
"llllllllllllllllllllllllllllllllllllllllllllllllllllllllllllllllllllllllllllllll",
"llllllllllllllllllllllllllllllllllllllllllllllllllllllllllllllllllllllllllllllll",
"llllllllllllllllllllllllllllllllllllllllllllllllllllllllllllllllllllllllllllllll",
"llllllllllllllllllllllllllllllllllllllllllllllllllllllllllllllllllllllllllllllll",
"llllllllllllllllllllllllllllllllllllllllllllllllllllllllllllllllllllllllllllllll",
"llllllllllllllllllllllllllllllllllllllllllllllllllllllllllllllllllllllllllllllll",
"llllllllllllllllllllllllllllllllllllllllllllllllllllllllllllllllllllllllllllllll",
"llllllllllllllllllllllllllllllllllllllllllllllllllllllllllllllllllllllllllllllll",
"llllllllllllllllllllllllllllllllllllllllllllllllllllllllllllllllllllllllllllllll",
"llllllllllllllllllllllllllllllllllllllllllllllllllllllllllllllllllllllllllllllll",
"llllllllllllllllllllllllllllllllllllllllllllllllllllllllllllllllllllllllllllllll",
"llllllllllllllllllllllllllllllllllllllllllllllllllllllllllllllllllllllllllllllll",
"llllllllllllllllllllllllllllllllllllllllllllllllllllllllllllllllllllllllllllllll",
"llllllllllllllllllllllllllllllllllllllllllllllllllllllllllllllllllllllllllllllll",
"llllllllllllllllllllllllllllllllllllllllllllllllllllllllllllllllllllllllllllllll",
"llllllllllllllllllllllllllllllllllllllllllllllllllllllllllllllllllllllllllllllll",
"llllllllllllllllllllllllllllllllllllllllllllllllllllllllllllllllllllllllllllllll",
"llllllllllllllllllllllllllllllllllllllllllllllllllllllllllllllllllllllllllllllll",
"llllllllllllllllllllllllllllllllllllllllllllllllllllllllllllllllllllllllllllllll",
"llllllllllllllllllllllllllllllllllllllllllllllllllllllllllllllllllllllllllllllll"
};
