/* XPM */
static char *xpm_[] = {
/* columns rows colors chars-per-pixel */
"80 80 225 2 ",
"   c #EE2E26",
".  c #EE2E26",
"X  c #EE2E26",
"o  c #EE2E26",
"O  c #EC1A11",
"+  c #ED1C13",
"@  c #ED1D14",
"#  c #ED1E16",
"$  c #ED1F16",
"%  c #ED1F17",
"&  c #ED2017",
"*  c #ED2018",
"=  c #ED2118",
"-  c #ED2119",
";  c #ED2219",
":  c #ED221A",
">  c #ED231A",
",  c #ED231B",
"<  c #ED241C",
"1  c #ED251C",
"2  c #ED251D",
"3  c #ED261D",
"4  c #ED261E",
"5  c #ED271E",
"6  c #ED271F",
"7  c #ED281F",
"8  c #EE2E26",
"9  c #ED2820",
"0  c #EE2820",
"q  c #EE2920",
"w  c #EE2921",
"e  c #EE2A21",
"r  c #EE2A22",
"t  c #EE2B22",
"y  c #EE2B23",
"u  c #EE2C23",
"i  c #EE2E26",
"p  c #EE2E26",
"a  c #EE2C24",
"s  c #EE2D25",
"d  c #EE2E25",
"f  c #EE2E26",
"g  c #EE2E26",
"h  c #EE2E27",
"j  c #EE2F27",
"k  c #EE2E26",
"l  c #EE2E26",
"z  c #EE2E26",
"x  c #EE2E26",
"c  c #EE2E26",
"v  c #EE2E26",
"b  c #EE2E26",
"n  c #EE2F27",
"m  c #EE3028",
"M  c #EE2F28",
"N  c #EE3028",
"B  c #EE2E26",
"V  c #EE2E26",
"C  c #EE2E26",
"Z  c #EE3028",
"A  c #EE3029",
"S  c #EE3129",
"D  c #EE312A",
"F  c #EE322A",
"G  c #EE332C",
"H  c #EE342C",
"J  c #EF342D",
"K  c #EF352D",
"L  c #EF362E",
"P  c #EF372F",
"I  c #EE3129",
"U  c #EF3730",
"Y  c #EF3931",
"T  c #EF3A33",
"R  c #EF3B34",
"E  c #EF3C34",
"W  c #EF3C35",
"Q  c #EF3D35",
"!  c #EF3D36",
"~  c #EF3E37",
"^  c #EF4038",
"/  c #F0413A",
"(  c #F0423A",
")  c #F0423B",
"_  c #F0433C",
"`  c #F0453E",
"'  c #F04841",
"]  c #F04A43",
"[  c #F04B44",
"{  c #F04C46",
"}  c #F1514A",
"|  c #F1524B",
" . c #F1544D",
".. c #F1554E",
"X. c #F1554F",
"o. c #F1564F",
"O. c #F15750",
"+. c #F15751",
"@. c #F15851",
"#. c #F25A53",
"$. c #F25D57",
"%. c #F25F58",
"&. c #F2605A",
"*. c #F2615B",
"=. c #F2625C",
"-. c #F2635D",
";. c #F2645D",
":. c #F2655F",
">. c #F36660",
",. c #F36862",
"<. c #F36963",
"1. c #F36B65",
"2. c #F36B66",
"3. c #F36C66",
"4. c #F36D67",
"5. c #F36D68",
"6. c #F36E69",
"7. c #F36F6A",
"8. c #F3716C",
"9. c #F4726D",
"0. c #F4736D",
"q. c #F47671",
"w. c #F47873",
"e. c #F47974",
"r. c #F47A75",
"t. c #F47B76",
"y. c #F47C77",
"u. c #F57E7A",
"i. c #F57F7A",
"p. c #EE2E26",
"a. c #EE2E26",
"s. c #EE2E26",
"d. c #EE2E26",
"f. c #EE2E26",
"g. c #EE2E26",
"h. c #EE2E26",
"j. c #EE2E26",
"k. c #EE2E26",
"l. c #EE2E26",
"z. c #EE2E26",
"x. c #EE2E26",
"c. c #EE2E26",
"v. c #EE2E26",
"b. c #F5817C",
"n. c #F5827E",
"m. c #F68C87",
"M. c #F68D88",
"N. c #F68F8A",
"B. c #F6918C",
"V. c #F6928D",
"C. c #F69692",
"Z. c #F79793",
"A. c #F79E9B",
"S. c #F79F9B",
"D. c #F7A29F",
"F. c #F8AAA6",
"G. c #F8AAA7",
"H. c #F8ABA7",
"J. c #F8ACA9",
"K. c #F8ADA9",
"L. c #F8AEAB",
"P. c #F9B7B4",
"I. c #FABDBB",
"U. c #FBCFCD",
"Y. c #FCD5D3",
"T. c #FCD6D5",
"R. c #FCD7D5",
"E. c #FCD8D6",
"W. c #FCD8D7",
"Q. c #FCD9D7",
"!. c #FCD9D8",
"~. c #FCDAD8",
"^. c #FCDCDB",
"/. c #FCDDDC",
"(. c #FCDEDD",
"). c #FCDFDE",
"_. c #FCE0DE",
"`. c #FDE1E0",
"'. c #FDE2E1",
"]. c #FDE3E2",
"[. c #FDE4E3",
"{. c #FDE6E5",
"}. c #FDE7E6",
"|. c #FDE8E7",
" X c #FDE9E8",
".X c #FDE9E9",
"XX c #FDEBEA",
"oX c #FDECEC",
"OX c #FEEDED",
"+X c #FEEFEE",
"@X c #FEEFEF",
"#X c #FEF0EF",
"$X c #FEF0F0",
"%X c #FEF1F0",
"&X c #FEF1F1",
"*X c #FEF3F2",
"=X c #FEF3F3",
"-X c #FEF4F4",
";X c #FEF6F6",
":X c #FEF8F7",
">X c #FFF9F9",
",X c #FFFAFA",
"<X c #FFFBFA",
"1X c #FFFBFB",
"2X c #FFFCFC",
"3X c #FFFDFD",
"4X c #FFFEFD",
"5X c #FFFEFE",
"6X c #FFFFFF",
"7X c #EE2E26",
"8X c #EE2E26",
"9X c #EE2E26",
"0X c #EE2E26",
"qX c #EE2E26",
"wX c #EE2E26",
"eX c #EE2E26",
"rX c #EE2E26",
"tX c #EE2E26",
"yX c #EE2E26",
"uX c #EE2E26",
"iX c #EE2E26",
"pX c #EE2E26",
"aX c #EE2E26",
"sX c #EE2E26",
"dX c None",
/* pixels */
"dXdXdXdXdXdXdXdXdXdXdXdXdXdXdXdXdXdXdXdXdXdXdXdXdXdXdXdXdXdXdXdXdXdXdXdXdXdXdXdXdXdXdXdXdXdXdXdXdXdXdXdXdXdXdXdXdXdXdXdXdXdXdXdXdXdXdXdXdXdXdXdXdXdXdXdXdXdXdXdX",
"dXdXdXdXdXdXdXdXdXdXdXdXdXdXdXdXdXdXdXdXdXdXdXdXdXdXdXdXdXdXdXdXdXdXdXdXdXdXdXdXdXdXdXdXdXdXdXdXdXdXdXdXdXdXdXdXdXdXdXdXdXdXdXdXdXdXdXdXdXdXdXdXdXdXdXdXdXdXdXdX",
"dXdXdXdXdXdXdXdXdXdXdXdXdXdXdXdXdXdXdXdXdXdXdXdXdXdXdXdXdXdXdXdXdXdXdXdXdXdXdXdXdXdXdXdXdXdXdXdXdXdXdXdXdXdXdXdXdXdXdXdXdXdXdXdXdXdXdXdXdXdXdXdXdXdXdXdXdXdXdXdX",
"dXdXdXdXdXdXdXdXdXdXdXdXdXdXdXdXdXdXdXdXdXdXdXdXdXdXdXdXdXdXdXdXdXdXdXdXdXdXdXdXdXdXdXdXdXdXdXdXdXdXdXdXdXdXdXdXdXdXdXdXdXdXdXdXdXdXdXdXdXdXdXdXdXdXdXdXdXdXdXdX",
"dXdXdXdXdXdXdXdXdXdXdXdXdXdXdXdXdXdXdXdXdXdXdXdXdXdXdXdXdXdXdXdXdXdXdXdXdXdXdXdXdXdXdXdXdXdXdXdXdXdXdXdXdXdXdXdXdXdXdXdXdXdXdXdXdXdXdXdXdXdXdXdXdXdXdXdXdXdXdXdX",
"dXdXdXdXdXdXdXdXdXdXdXdXdXdXdXdXdXdXdXdXdXdXdXdXdXdXdXdXdXdXdXdXdXdXdXdXdXdXdXdXdXdXdXdXdXdXdXdXdXdXdXdXdXdXdXdXdXdXdXdXdXdXdXdXdXdXdXdXdXdXdXdXdXdXdXdXdXdXdXdX",
"dXdXdXdXdXdXdXdXdXdXdXdXdXdXdXdXdXdXdXdXdXdXdXdXdXdXdXdXdXdXdXdXdXdXdXdXdXdXdXdXdXdXdXdXdXdXdXdXdXdXdXdXdXdXdXdXdXdXdXdXdXdXdXdXdXdXdXdXdXdXdXdXdXdXdXdXdXdXdXdX",
"dXdXdXdXdXdXdXdXdXdXdXdXdXdXdXdXdXdXdXdXdXdXdXdXdXdXdXdXdXdXdXdXdXdXdXdXdXdXdXdXdXdXdXdXdXdXdXdXdXdXdXdXdXdXdXdXdXdXdXdXdXdXdXdXdXdXdXdXdXdXdXdXdXdXdXdXdXdXdXdX",
"dXdXdXdXdXdXdXdXdXdXdXdXdXdXdXdXdXdXdXdXdXdXdXdXdXdXdXdXdXdXdXdXdXdXdXdXdXdXdXdXdXdXdXdXdXdXdXdXdXdXdXdXdXdXdXdXdXdXdXdXdXdXdXdXdXdXdXdXdXdXdXdXdXdXdXdXdXdXdXdX",
"dXdXdXdXdXdXdXdXdXdXdXdXdXdXdXdXdXdXdXdXdXdXdXdXdXdXdXdXdXdXdXdXdXdXdXdXdXdXdXdXdXdXdXdXdXdXdXdXdXdXdXdXdXdXdXdXdXdXdXdXdXdXdXdXdXdXdXdXdXdXdXdXdXdXdXdXdXdXdXdX",
"dXdXdXdXdXdXdXdXdXdXdXdXdXdXdXdXdXdXdXdXdXdXdXdXdXdXdXdXdXdXdXdXdXdXdXdXdXdXdXdXdXdXdXdXdXdXdXdXdXdXdXdXdXdXdXdXdXdXdXdXdXdXdXdXdXdXdXdXdXdXdXdXdXdXdXdXdXdXdXdX",
"dXdXdXdXdXdXdXdXdXdXdXdXdXdXdXdXdXdXdXdXdXdXdXdXdXdXdXdXdXdXdXdXdXdXdXdXdXdXdXdXdXdXdXdXdXdXdXdXdXdXdXdXdXdXdXdXdXdXdXdXdXdXdXdXdXdXdXdXdXdXdXdXdXdXdXdXdXdXdXdX",
"dXdXdXdXdXdXdXdXdXdXdXdXdXdXdXdXdXdXdXdXdXdXdXdXdXdXdXdXdXdXdXdXdXdXdXdXdXdXdXdXdXdXdXdXdXdXdXdXdXdXdXdXdXdXdXdXdXdXdXdXdXdXdXdXdXdXdXdXdXdXdXdXdXdXdXdXdXdXdXdX",
"dXdXdXdXdXdXdXdXdXdXdXdXdXdXdXdXdXdXdXdXdXdXdXdXdXdXdXdXdXdXdXdXdXdXdXdXdXdXdXdXdXdXdXdXdXdXdXdXdXdXdXdXdXdXdXdXdXdXdXdXdXdXdXdXdXdXdXdXdXdXdXdXdXdXdXdXdXdXdXdX",
"dXdXdXdXdXdXdXdXdXdXdXdXdXdXdXdXdXdXdXdXdXdXdXdXdXdXdXdXdXdXdXdXdXdXdXdXdXdXdXdXdXdXdXdXdXdXdXdXdXdXdXdXdXdXdXdXdXdXdXdXdXdXdXdXdXdXdXdXdXdXdXdXdXdXdXdXdXdXdXdX",
"dXdXdXdXdXdXdXdXdXdXdXdXdXdXdXdXdXdXdXdXdXdXdXdXdXdXdXdXdXdXdXdXdXdXdXdXdXdXdXdXdXdXdXdXdXdXdXdXdXdXdXdXdXdXdXdXdXdXdXdXdXdXdXdXdXdXdXdXdXdXdXdXdXdXdXdXdXdXdXdX",
"dXdXdXdXdXdXdXdXdXdXdXdXdXdXdXdXdXdXdXdXdXdXdXdXdXdXdXdXdXdXdXdXdXdXdXdXdXdXdXdXdXdXdXdXdXdXdXdXdXdXdXdXdXdXdXdXdXdXdXdXdXdXdXdXdXdXdXdXdXdXdXdXdXdXdXdXdXdXdXdX",
"dXdXdXdXdXdXdXdXdXdXdXdXdXdXdXdXdXdXdXdXdXdXdXdXdXdXdXdXdXdXdXdXdXdXdXdXdXdXdXdXdXdXdXdXdXdXdXdXdXdXdXdXdXdXdXdXdXdXdXdXdXdXdXdXdXdXdXdXdXdXdXdXdXdXdXdXdXdXdXdX",
"dXdXdXdXdXdXdXdXdXdXdXdXdXdXdXdXdXdXdXdXdXdXdXdXdXdXdXdXdXdXdXdXdXdXdXdXdXdXdXdXdXdXdXdXdXdXdXdXdXdXdXdXdXdXdXdXdXdXdXdXdXdXdXdXdXdXdXdXdXdXdXdXdXdXdXdXdXdXdXdX",
"dXdXdXdXdXdXdXdXdXdXdXdXdXdXdXdXdXdXdXdXdXdXdXdXdXdXdXdXdXdXdXdXdXdXdXdXdXdXdXdXdXdXdXdXdXdXdXdXdXdXdXdXdXdXdXdXdXdXdXdXdXdXdXdXdXdXdXdXdXdXdXdXdXdXdXdXdXdXdXdX",
"dXdXdXdXdXdXdXdXdXdXdXdXdXdXdXdXdXdXdXdXdXdXdXdXdXdXdXdXdXdXdXdXdXdXdXdXdXdXdXdXdXdXdXdXdXdXdXdXdXdXdXdXdXdXdXdXdXdXdXdXdXdXdXdXdXdXdXdXdXdXdXdXdXdXdXdXdXdXdXdX",
"dXdXdXdXdXdXdXdXdXdXdXdXdXdXdXdXdXdXdXdXdXdXdXdXdXdXdXdXdXdXdXdXdXdXdXdXdXdXdXdXdXdXdXdXdXdXdXdXdXdXdXdXdXdXdXdXdXdXdXdXdXdXdXdXdXdXdXdXdXdXdXdXdXdXdXdXdXdXdXdX",
"dXdXdXdXdXdXdXdXdXdXdXdXdXdXdXdXdXdXdXdXdXdXdXdXdXdXdXdXdXdXdXdXdXdXdXdXdXdXdXdXdXdXdXdXdXdXdXdXdXdXdXdXdXdXdXdXdXdXdXdXdXdXdXdXdXdXdXdXdXdXdXdXdXdXdXdXdXdXdXdX",
"dXdXdXx.g g g g g g g g g g g g g g g g g g g g M eXdXdXdXl.M d M M M M M M M M M M M M d S S d M M p.dXdXdXeXM M M M M M M M M g g g g g g g g g g g g z.dXdXdX",
"dXdXdXg g g g g g g g g g g g g g g g g g g g b g j.dXdXeXM d d M M a M a M M a d d d d S d S d d d L yXdXdXv.M y M g g g g g g g g g g g g g g g g g g g dXdXdX",
"dXdXdXg g g g g g g g g g g g g g g g g g g g b g d.dXdXeXS d d M a M d M a a M S d d d d d d d d S D yXdXpXz.S t M g g g g g g g g g g g g g g g g g g g dXdXdX",
"dXdXdXg g g g g g g g g g g g g g g g g g g g b h d.dXdXeXS a d a M a M a M M a d d S d d S d d S d S tXdXdXz.J u g g g g g g g g g g g g g g g g g g g g dXdXdX",
"dXdXdXg g g g g g g g g g g g g g g g g g g g g h d.dXdXeXd a d M d M a M a M M d d d d d d d d d a J uXdXdXv.S u g g g g g g g g g g g g g g g g g g g g dXdXdX",
"dXdXdXg g g g g g g g g g g g g g g g g g g g b h d.dXdXtXJ a M a M a M a M a M d S d d d d d d d s d eXdXdXk.S b S g g g g g g g g g g g g g g g g g g g dXdXdX",
"dXdXdXg g g g g g g g Z g g g Z g g Z Z g g g i S v.dXdXtXS d M M d M M M d M a d d d d d d S d d a J tXdXdXk.U u g g g g g g g g g g g g g g g g g g g g dXdXdX",
"dXdXdXg g g g Z Z Z Z Z Z Z Z Z Z Z Z Z Z g g i M z.pXdXtXS S d a M M M S S M a d d d d d S d d d d S tXdXdXv.y V M g g g g g g Z Z Z Z Z Z g g g g g g g dXdXdX",
"dXdXdXg g g g 6 & = = = = = = = = = = = = g g b M v.dXdXyXJ M d M d M < @ @ a M d S d d d d d S d S J tXdXdXv.M h y g g g a S S r = = = = r Z Z g g g g g dXdXdX",
"dXdXdXg g g r ..u.w.w.t.w.t.w.w.e.b.e.b.q.^ k s J k.dXdXeXh a d a M h 1.t.t./ r Z g g g g g g g g b g qXdXdXj.g b g g g g Z r = _ 4.n.n.>.! = r Z g g g g dXdXdX",
"dXdXdXg g Z % F.6X6X6X6X6X6X6X6X;X;X;X;X;X&.: n D v.dXdXeXh d d M a Z oX6X6X7.= Z g g g g g g g g g g qXdXdXj.g b g g Z Z = { P.-X6X6X6X6X-XK._ = Z g g g dXdXdX",
"dXdXdXg g Z % F.6X6X6X6X6X<X<X6X;X;X;X;X;X,.4 k S v.dXdXeXD a M M M M ).6X6X3.= Z g g g g g g g g b g qXdXdXj.g g g g Z = 0.6X6X6X6X6X6X6X6X6X-X5.6 Z g g dXdXdX",
"dXdXdXg Z Z = N.}.Y.!.Y.'.6X6X6X_.`.T.Y.`.O.4 j D z.dXdXeXM d d a a M _.6X6X7.= Z g g g g g g g g b g qXdXdXj.g b g Z = 0.6X6X6X6X&XY.Y.-X6X6X6Xn.< Z g g dXdXdX",
"dXdXdXg g g g r y g g = ..6X6X#XT r g g a d d a D z.pXpXiXL D M g g Z '.6X6X4.= Z g g g g g g g g g g qXdXdXj.g b Z r ` <X6X6X6Xm.! r g / C.6Xu.O Z g g g dXdXdX",
"dXdXdXg g g g g g g M 6 O.6X6X#XT V g g D d d a d v.dXdXeXd M d g g Z '.6X6X5.= Z g g M g g g g g b g qXdXdXj.g b Z % G.6X<X6X%.O r g g r = / r g g g g g dXdXdX",
"dXdXdXg g g g g g g Z 6 #.6X6X#XQ r M g d d d d D l.dXdXeXD a d g g Z '.6X6X4.= Z M g g g g g g g b g qXdXdXj.g b g Y oX6X6XB.O P g g g g Z r Z g g g g g dXdXdX",
"dXdXdXg g g g g g g g 6 O.6X6X&XQ r j g d d D d D k.dXdXeXa d d g g Z '.6X6X5.= Z g g g g g g g g b g qXdXdXj.g I = $.6X6X:X/ r g g g g g g g g g g g g g dXdXdX",
"dXdXdXg g g g g g g Z 6 ..6X6X#XQ r j g g g g v S v.dXdXtXJ a D g g Z '.6X6X4.= Z g g g g g g g g b g qXdXdXj.g I = 0.6X6X).g g g g g g g g g g g g g g g dXdXdX",
"dXdXdXg g g g g g g Z 6 O.6X6X&XQ r j g g g g v D k.dXdXtXS d d g g Z '.6X6X4.= Z Z g g g g g g g g g qXdXdXj.g I = 8.6X6X).g g Z g g g g g g g g g g g g dXdXdX",
"dXdXdXg g g g g g g g 6 O.6X6X#XQ r g g g g g v S v.dXdXtXD d d g g Z '.6X6X5.= Z g g g g g g g g b g qXdXdXj.g I 6 #.6X6X1X' 7 Z g g g g g Z g g g g g g dXdXdX",
"dXdXdXg g g g g g g Z = O.6X6X&XQ r M g g g g v D k.dXdXyXL d d g g Z '.6X6X5.= Z g g Z g g g g g b g qXdXdXj.g b h H |.6X6XA.O Z Z g g Z Z 6 Z g g g g g dXdXdX",
"dXdXdXg g g g g g g Z 6 O.6X6X#XQ t g g g g g v S v.dXdXeXd a d g g Z '.6X6X<.+ Z g g r g g g g g g g qXdXdXj.g b Z % D.6X<X6X0.O 6 g g = 6 } r g g g g g dXdXdX",
"dXdXdXg g g g g g g Z 6 O.6X6X&XQ t M g g g g v J z.dXdXeXd s d g g Z '.6X6XI.Y P Y P U Z g g g g b g qXdXdXj.g i g r Y oX6X6X6XD.[ Z P } G.6XB.% Z g g g dXdXdX",
"dXdXdXg g g g g g g g 6 O.6X6X&XQ t M g g g g v S v.dXdXeXD a d g M r Y.6X<X6X-X X X X&XU.Z g g g b g qXdXdXj.g i g Z 6 =.6X6X<X6X6X}.}.6X6X<X6XN.= Z g g dXdXdX",
"dXdXdXg g g g g g g g 6 O.6X6XoXQ t j g g g g v J v.dXdXeXS d S g Z % N.6X6X<X6X6X6X6X6X}.Z g g g b g qXdXdXj.g b g g Z = =.oX6X6X6X6X6X6X6X6X[.$.r Z g g dXdXdX",
"dXdXdXg g g g g g g g 6 O.6X6X-XR r g g g g g b g d.dXdXiXJ S d g g g g K.6X6X6X6X6X6X6X}.Z g g g g g qXdXdXj.g b g g g Z 6 T A. X6X6X6X6X'.C.P = g g g g dXdXdX",
"dXdXdXg g g g g g g g g P =.;.%.Z g g g g g g b g d.dXdXeXS d d g g g g 6 ] =.=.;.;.=.>.#.g g g g b g qXdXdXj.g b g g g g Z r % Z O.4.1...Z % g Z g g g g dXdXdX",
"dXdXdXg g g g g g g g g g < < 6 g g g g g g g g S v.dXdXeXS a d g g g g g 6 = 6 = 6 < = 6 g g g g b g qXdXdXj.g g g g g g g g Z g 6 = = 6 g Z g g g g g g dXdXdX",
"dXdXdXg g g g g g g g g g Z Z g g g g g g g g b S d.dXdXeXd s d g g g g g Z Z Z Z Z Z Z g g g g g b g qXdXdXj.g b g g g g g g g Z Z Z Z g g g g g g g g g dXdXdX",
"dXdXdXg g g g g g g g g g g g g g g g g g g g i M v.dXdXtXJ a S g g g g g g g g g g g g g g g g g b g qXdXdXj.g b g g g g g g g g g g g g g g g g g g g g dXdXdX",
"dXdXdXg g g g g g g g g g g g g g g g g g g g i J z.dXdXtXS d d g g g g g g g g g g g g g g g g g g g qXdXdXj.g b g g g g g g g g g g g g g g g g g g g g dXdXdX",
"dXdXdXg g g g g g g g g g g g g g g g g g g g b S z.pXdXtXS S d g g g g g g g g g g g g g g g g g b g qXdXdXj.g g g g g g g g g g g g g g g g g g g g g g dXdXdX",
"dXdXdXg g g g g g g g g g g g g g g g g g g g i M v.pXdXyXJ d d g g g g g g g g g g g g g g g g g b g qXdXdXd.g b g g g g g g g g g g g g g g g g g g g g dXdXdX",
"dXdXdXg g g g g g g g g g g g g g g g g g g g b g h.dXdXeXg g g g g g g g g g g g g g g g g g g g g g 0XdXdXk.g b g g g g g g g g g g g g g g g g g g g g dXdXdX",
"dXdXdXv.g g i g i g i g g i i g i g g i i g i g B uXdXdXpX  g b i g i g g i i g i g g i i g i g b g   pXdXdXtX8 g b g g b g b g i g g i i g i g g i g g x.dXdXdX",
"dXdXdXdXdXdXdXdXdXdXdXdXdXdXdXdXdXdXdXdXdXdXdXdXdXdXdXdXdXdXdXdXdXdXdXdXdXdXdXdXdXdXdXdXdXdXdXdXdXdXdXdXdXdXdXdXdXdXdXdXdXdXdXdXdXdXdXdXdXdXdXdXdXdXdXdXdXdXdXdX",
"dXdXdXdXdXdXdXdXdXdXdXdXdXdXdXdXdXdXdXdXdXdXdXdXdXdXdXdXdXdXdXdXdXdXdXdXdXdXdXdXdXdXdXdXdXdXdXdXdXdXdXdXdXdXdXdXdXdXdXdXdXdXdXdXdXdXdXdXdXdXdXdXdXdXdXdXdXdXdXdX",
"dXdXdXdXdXdXdXdXdXdXdXdXdXdXdXdXdXdXdXdXdXdXdXdXdXdXdXdXdXdXdXdXdXdXdXdXdXdXdXdXdXdXdXdXdXdXdXdXdXdXdXdXdXdXdXdXdXdXdXdXdXdXdXdXdXdXdXdXdXdXdXdXdXdXdXdXdXdXdXdX",
"dXdXdXdXdXdXdXdXdXdXdXdXdXdXdXdXdXdXdXdXdXdXdXdXdXdXdXdXdXdXdXdXdXdXdXdXdXdXdXdXdXdXdXdXdXdXdXdXdXdXdXdXdXdXdXdXdXdXdXdXdXdXdXdXdXdXdXdXdXdXdXdXdXdXdXdXdXdXdXdX",
"dXdXdXdXdXdXdXdXdXdXdXdXdXdXdXdXdXdXdXdXdXdXdXdXdXdXdXdXdXdXdXdXdXdXdXdXdXdXdXdXdXdXdXdXdXdXdXdXdXdXdXdXdXdXdXdXdXdXdXdXdXdXdXdXdXdXdXdXdXdXdXdXdXdXdXdXdXdXdXdX",
"dXdXdXdXdXdXdXdXdXdXdXdXdXdXdXdXdXdXdXdXdXdXdXdXdXdXdXdXdXdXdXdXdXdXdXdXdXdXdXdXdXdXdXdXdXdXdXdXdXdXdXdXdXdXdXdXdXdXdXdXdXdXdXdXdXdXdXdXdXdXdXdXdXdXdXdXdXdXdXdX",
"dXdXdXdXdXdXdXdXdXdXdXdXdXdXdXdXdXdXdXdXdXdXdXdXdXdXdXdXdXdXdXdXdXdXdXdXdXdXdXdXdXdXdXdXdXdXdXdXdXdXdXdXdXdXdXdXdXdXdXdXdXdXdXdXdXdXdXdXdXdXdXdXdXdXdXdXdXdXdXdX",
"dXdXdXdXdXdXdXdXdXdXdXdXdXdXdXdXdXdXdXdXdXdXdXdXdXdXdXdXdXdXdXdXdXdXdXdXdXdXdXdXdXdXdXdXdXdXdXdXdXdXdXdXdXdXdXdXdXdXdXdXdXdXdXdXdXdXdXdXdXdXdXdXdXdXdXdXdXdXdXdX",
"dXdXdXdXdXdXdXdXdXdXdXdXdXdXdXdXdXdXdXdXdXdXdXdXdXdXdXdXdXdXdXdXdXdXdXdXdXdXdXdXdXdXdXdXdXdXdXdXdXdXdXdXdXdXdXdXdXdXdXdXdXdXdXdXdXdXdXdXdXdXdXdXdXdXdXdXdXdXdXdX",
"dXdXdXdXdXdXdXdXdXdXdXdXdXdXdXdXdXdXdXdXdXdXdXdXdXdXdXdXdXdXdXdXdXdXdXdXdXdXdXdXdXdXdXdXdXdXdXdXdXdXdXdXdXdXdXdXdXdXdXdXdXdXdXdXdXdXdXdXdXdXdXdXdXdXdXdXdXdXdXdX",
"dXdXdXdXdXdXdXdXdXdXdXdXdXdXdXdXdXdXdXdXdXdXdXdXdXdXdXdXdXdXdXdXdXdXdXdXdXdXdXdXdXdXdXdXdXdXdXdXdXdXdXdXdXdXdXdXdXdXdXdXdXdXdXdXdXdXdXdXdXdXdXdXdXdXdXdXdXdXdXdX",
"dXdXdXdXdXdXdXdXdXdXdXdXdXdXdXdXdXdXdXdXdXdXdXdXdXdXdXdXdXdXdXdXdXdXdXdXdXdXdXdXdXdXdXdXdXdXdXdXdXdXdXdXdXdXdXdXdXdXdXdXdXdXdXdXdXdXdXdXdXdXdXdXdXdXdXdXdXdXdXdX",
"dXdXdXdXdXdXdXdXdXdXdXdXdXdXdXdXdXdXdXdXdXdXdXdXdXdXdXdXdXdXdXdXdXdXdXdXdXdXdXdXdXdXdXdXdXdXdXdXdXdXdXdXdXdXdXdXdXdXdXdXdXdXdXdXdXdXdXdXdXdXdXdXdXdXdXdXdXdXdXdX",
"dXdXdXdXdXdXdXdXdXdXdXdXdXdXdXdXdXdXdXdXdXdXdXdXdXdXdXdXdXdXdXdXdXdXdXdXdXdXdXdXdXdXdXdXdXdXdXdXdXdXdXdXdXdXdXdXdXdXdXdXdXdXdXdXdXdXdXdXdXdXdXdXdXdXdXdXdXdXdXdX",
"dXdXdXdXdXdXdXdXdXdXdXdXdXdXdXdXdXdXdXdXdXdXdXdXdXdXdXdXdXdXdXdXdXdXdXdXdXdXdXdXdXdXdXdXdXdXdXdXdXdXdXdXdXdXdXdXdXdXdXdXdXdXdXdXdXdXdXdXdXdXdXdXdXdXdXdXdXdXdXdX",
"dXdXdXdXdXdXdXdXdXdXdXdXdXdXdXdXdXdXdXdXdXdXdXdXdXdXdXdXdXdXdXdXdXdXdXdXdXdXdXdXdXdXdXdXdXdXdXdXdXdXdXdXdXdXdXdXdXdXdXdXdXdXdXdXdXdXdXdXdXdXdXdXdXdXdXdXdXdXdXdX",
"dXdXdXdXdXdXdXdXdXdXdXdXdXdXdXdXdXdXdXdXdXdXdXdXdXdXdXdXdXdXdXdXdXdXdXdXdXdXdXdXdXdXdXdXdXdXdXdXdXdXdXdXdXdXdXdXdXdXdXdXdXdXdXdXdXdXdXdXdXdXdXdXdXdXdXdXdXdXdXdX",
"dXdXdXdXdXdXdXdXdXdXdXdXdXdXdXdXdXdXdXdXdXdXdXdXdXdXdXdXdXdXdXdXdXdXdXdXdXdXdXdXdXdXdXdXdXdXdXdXdXdXdXdXdXdXdXdXdXdXdXdXdXdXdXdXdXdXdXdXdXdXdXdXdXdXdXdXdXdXdXdX",
"dXdXdXdXdXdXdXdXdXdXdXdXdXdXdXdXdXdXdXdXdXdXdXdXdXdXdXdXdXdXdXdXdXdXdXdXdXdXdXdXdXdXdXdXdXdXdXdXdXdXdXdXdXdXdXdXdXdXdXdXdXdXdXdXdXdXdXdXdXdXdXdXdXdXdXdXdXdXdXdX",
"dXdXdXdXdXdXdXdXdXdXdXdXdXdXdXdXdXdXdXdXdXdXdXdXdXdXdXdXdXdXdXdXdXdXdXdXdXdXdXdXdXdXdXdXdXdXdXdXdXdXdXdXdXdXdXdXdXdXdXdXdXdXdXdXdXdXdXdXdXdXdXdXdXdXdXdXdXdXdXdX",
"dXdXdXdXdXdXdXdXdXdXdXdXdXdXdXdXdXdXdXdXdXdXdXdXdXdXdXdXdXdXdXdXdXdXdXdXdXdXdXdXdXdXdXdXdXdXdXdXdXdXdXdXdXdXdXdXdXdXdXdXdXdXdXdXdXdXdXdXdXdXdXdXdXdXdXdXdXdXdXdX",
"dXdXdXdXdXdXdXdXdXdXdXdXdXdXdXdXdXdXdXdXdXdXdXdXdXdXdXdXdXdXdXdXdXdXdXdXdXdXdXdXdXdXdXdXdXdXdXdXdXdXdXdXdXdXdXdXdXdXdXdXdXdXdXdXdXdXdXdXdXdXdXdXdXdXdXdXdXdXdXdX"
};
