/* XPM */
static char *xpm_[] = {
/* columns rows colors chars-per-pixel */
"80 80 216 2 ",
"   c #894E0E",
".  c #9A6C44",
"X  c #956A41",
"o  c #9A5D15",
"O  c #A26822",
"+  c #936743",
"@  c #A4734A",
"#  c #926642",
"$  c #9D5F16",
"%  c #8B623E",
"&  c #8A633E",
"*  c #AE7434",
"=  c #9A6C45",
"-  c #A27249",
";  c #B07633",
":  c #B67C3A",
">  c #A57248",
",  c #B48053",
"<  c #A36F3F",
"1  c #B1772F",
"2  c #B77B30",
"3  c #A97B50",
"4  c #AA7545",
"5  c #AD784E",
"6  c #C99E66",
"7  c #CA955F",
"8  c #E3B26E",
"9  c #BE9A67",
"0  c #DFC388",
"q  c #A15401",
"w  c #905719",
"e  c #9D5C13",
"r  c #A55901",
"t  c #AC620A",
"y  c #AF6915",
"u  c #B36C16",
"i  c #B8731D",
"p  c #AF6A1B",
"a  c #986C43",
"s  c #AD7437",
"d  c #A67338",
"f  c #BB7926",
"g  c #B3762F",
"h  c #B2783A",
"j  c #B88140",
"k  c #C4853B",
"l  c #B4762F",
"z  c #9C5C13",
"x  c #A86F32",
"c  c #B57A39",
"v  c #A7764C",
"b  c #B57A3C",
"n  c #BE8A44",
"m  c #B97D3A",
"M  c #B37E51",
"N  c #B37E47",
"B  c #C98844",
"V  c #C17F2B",
"C  c #9D6F45",
"Z  c #A17348",
"A  c #A8764B",
"S  c #B17D50",
"D  c #AD794C",
"F  c #B47D4A",
"G  c #AF7D50",
"H  c #B47F52",
"J  c #B78052",
"K  c #C38958",
"L  c #BC8656",
"P  c #B68052",
"I  c #AE7E52",
"U  c #BE8454",
"Y  c #C28B59",
"T  c #C68A54",
"R  c #D49151",
"E  c #CB935B",
"W  c #BC7B2C",
"Q  c #BE834B",
"!  c #C08552",
"~  c #D29A53",
"^  c #D79965",
"/  c #D9A66B",
"(  c #EEA768",
")  c #DBB77D",
"_  c #D1A56F",
"`  c #E0A166",
"'  c #E5AD72",
"]  c #E7C88F",
"[  c #CB8E3F",
"{  c #BF863A",
"}  c #C2812E",
"|  c #C98A3A",
" . c #BE8349",
".. c #BB8455",
"X. c #C1904B",
"o. c #CD935F",
"O. c #CB9C59",
"+. c #D1A973",
"@. c #CFB689",
"#. c #CF9F65",
"$. c #E7B273",
"%. c #DAA76A",
"&. c #C4AB81",
"*. c #D1A971",
"=. c #D4AC7C",
"-. c #CC8E47",
";. c #D0954A",
":. c #D29749",
">. c #C88C59",
",. c #D49159",
"<. c #D19C59",
"1. c #D79857",
"2. c #D2934D",
"3. c #D59862",
"4. c #D3A464",
"5. c #DAA253",
"6. c #E79A5A",
"7. c #DAA45A",
"8. c #E5B061",
"9. c #E2A65F",
"0. c #CE9D6A",
"q. c #D89763",
"w. c #D9A66C",
"e. c #EAA56C",
"r. c #E69C64",
"t. c #DBB373",
"y. c #E9B96C",
"u. c #EBC983",
"i. c #DEB16E",
"p. c #E7AA68",
"a. c #F5A466",
"s. c #E9B46C",
"d. c #FFB16E",
"f. c #FDAF71",
"g. c #EFBC76",
"h. c #FDBA78",
"j. c #FABB76",
"k. c #E5A870",
"l. c #ECA76A",
"z. c #F6B26F",
"x. c #F4C47D",
"c. c #F9C37B",
"v. c #DEBB85",
"b. c #D9BF8F",
"n. c #E0CB9C",
"m. c #EFC685",
"M. c #FACA86",
"N. c #FFD28D",
"B. c #FDCD90",
"V. c #FDD896",
"C. c #E9D098",
"Z. c #F9DDA2",
"A. c #FFE7A9",
"S. c #FFEAB2",
"D. c #97601B",
"F. c #8B633F",
"G. c #765634",
"H. c #9C7D56",
"J. c #694B2F",
"K. c #814A0E",
"L. c #914900",
"P. c #7E5939",
"I. c #916845",
"U. c #885916",
"Y. c #A26823",
"T. c #AB7845",
"R. c #B38256",
"E. c #D49A58",
"W. c #CEAE7A",
"Q. c #BE966A",
"!. c #965B13",
"~. c #906235",
"^. c #B47733",
"/. c #A97442",
"(. c #B47A39",
"). c #AE6E27",
"_. c #9B724B",
"`. c #D59663",
"'. c #AB835A",
"]. c #CB8E48",
"[. c #DAA975",
"{. c #EFB175",
"}. c #F6C685",
"|. c #CEBA97",
" X c #D9A369",
".X c #E2B783",
"XX c #CEA86F",
"oX c #D29356",
"OX c #DEB173",
"+X c #EEB77C",
"@X c #E9AE73",
"#X c #DBC38D",
"$X c #EFB378",
"%X c #F2D3A0",
"&X c #FCE6B3",
"*X c #E4D298",
"=X c #D7B789",
"-X c #EAD29C",
";X c #6B4717",
":X c #7B562F",
">X c #4C250E",
",X c #7E4A0D",
"<X c #BA8751",
"1X c #DAC7A1",
"2X c #AC722B",
"3X c #B68154",
"4X c #DE9550",
"5X c #E6BF89",
"6X c #C69C6C",
"7X c #DDA96E",
"8X c #FFF3CC",
"9X c #66462B",
"0X c #C49652",
"qX c #F9D597",
"wX c #FFFDAE",
"eX c None",
/* pixels */
"eXeXeXeXeXeXeXeXeXeXeXeXeXeXeXeXeXeXeXeXeXeXeXeXeXeXeXeXeXeXeXeXeXeXeXeXeXeXeXeXeXeXeXeXeXeXeXeXeXeXeXeXeXeXeXeXeXeXeXeXeXeXeXeXeXeXeXeXeXeXeXeXeXeXeXeXeXeXeXeX",
"eXeXeXeXeXeXeXeXeXeXeXeXeXeXeXeXeXeXeXeXeXeXeXeXeXeXeXeXeXeXeXeXeXeXeXeXeXeXeXeXeXeXeXeXeXeXeXeXeXeXeXeXeXeXeXeXeXeXeXeXeXeXeXeXeXeXeXeXeXeXeXeXeXeXeXeXeXeXeXeX",
"eXeXeXeXeXeXeXeXeXeXeXeXeXeXeXeXeXeXeXeXeXeXeXeXeXeXeXeXeXeXeXeXeXeXeXeXeXeXeXeXeXeXeXeXeXeXeXeXeXeXeXeXeXeXeXeXeXeXeXeXeXeXeXeXeXeXeXeXeXeXeXeXeXeXeXeXeXeXeXeX",
"eXeXeXeXeXeXeXeXeXeXeXeXeXeXeXeXeXeXeXeXeXeXeXeXeXeXeXeXeXeXeXeXeXeXeXeXeXeXeXeXeXeXeXeXeXeXeXeXeXeXeXeXeXeXeXeXeXeXeXeXeXeXeXeXeXeXeXeXeXeXeXeXeXeXeXeXeXeXeXeX",
"eXeXeXeXeXeXeXeXeXeXeXeXeXeXeXeXeXeXeXeXeXeXeXeXeXeXeXeXeXeXeXeXeXeXeXeXeXeXeXeXeXeXeXeXeXeXeXeXeXeXeXeXeXeXeXeXeXeXeXeXeXeXeXeXeXeXeXeXeXeXeXeXeXeXeXeXeXeXeXeX",
"eXeXeXeXeXeXeXeXeXeXeXeXeXeXeXeXeXeXeXeXeXeXeXeXeXeXeXeXeXeXeXeXeXeXeXeXeXeXeXeXeXeXeXeXeXeXeXeXeXeXeXeXeXeXeXeXeXeXeXeXeXeXeXeXeXeXeXeXeXeXeXeXeXeXeXeXeXeXeXeX",
"eXeXeXeXeXeXeXeXeXeXeXeXeXeXeXeXeXeXeXeXeXeXeXeXeXeXeXeXeXeXeXeXeXeXeXeXeXeXeXeXeXeXeXeXeXeXeXeXeXeXeXeXeXeXeXeXeXeXeXeXeXeXeXeXeXeXeXeXeXeXeXeXeXeXeXeXeXeXeXeX",
"eXeXeXeXeXeXeXeXeXeXeXeXeXeXeXeXeXeXeXeXeXeXeXeXeXeXeXeXeXeXeXeXeXeXeXeXeXeXeXeXeXeXeXeXeXeXeXeXeXeXeXeXeXeXeXeXeXeXeXeXeXeXeXeXeXeXeXeXeXeXeXeXeXeXeXeXeXeXeXeX",
"eXeXeXeXeXeXeXeXeXeXeXeXeXeXeXeXeXeXeXeXeXeXeXeXeXeXeXeXeXeXeXeXeXeXeXeXeXeXeXeXeXeXeXeXeXeXeXeXeXeXeXeXeXeXeXeXeXeXeXeXeXeXeXeXeXeXeXeXeXeXeXeXeXeXeXeXeXeXeXeX",
"eXeXeXeXeXeXeXeXeXeXeXeXeXeXeXeXeXeXeXeXeXeXeXeXeXeXeXeXeXeXeXeXeXeXeXeXeXeXeXeXeXeXeXeXeXeXeXeXeXeXeXeXeXeXeXeXeXeXeXeXeXeXeXeXeXeXeXeXeXeXeXeXeXeXeXeXeXeXeXeX",
"eXeXeXeXeXeXeXeXeXeXeXeXeXeXeXeXeXeXeXeXeXeXeXeXeXeXeXeXeXeXeXeXeXeXeXeXeXeXeXeXeXeXeXeXeXeXeXeXeXeXeXeXeXeXeXeXeXeXeXeXeXeXeXeXeXeXeXeXeXeXeXeXeXeXeXeXeXeXeXeX",
"eXeXeXeXeXeXeXeXeXeXeXeXeXeXeXeXeXeXeXeXeXeXeXeXeXeXeXeXeXeXeXeXeXeXeXeXeXeXeXeXeXeXeXeXeXeXeXeXeXeXeXeXeXeXeXeXeXeXeXeXeXeXeXeXeXeXeXeXeXeXeXeXeXeXeXeXeXeXeXeX",
"eXeXeXeXeXeXeXeXeXeXeXeXeXeXeXeXeXeXeXeXeXeXeXeXeXeXeXeXeXeXeXeXeXeXeXeXeXeXeXeXeXeXeXeXeXeXeXeXeXeXeXeXeXeXeXeXeXeXeXeXeXeXeXeXeXeXeXeXeXeXeXeXeXeXeXeXeXeXeXeX",
"eXeXeXeXeXeXeXeXeXeXeXeXeXeXeXeXeXeXeXeXeXeXeXeXeXeXeXeXeXeXeXeXeXeXeXeXeXeXeXeXeXeXeXeXeXeXeXeXeXeXeXeXeXeXeXeXeXeXeXeXeXeXeXeXeXeXeXeXeXeXeXeXeXeXeXeXeXeXeXeX",
"eXeXeXeXeXeXeXeXeXeXeXeXeXeXeXeXeXeXeXeXeXeXeXeXeXeXeXeXeXeXeXeXeXeXeXeXeXeXeXeXeXeXeXeXeXeXeXeXeXeXeXeXeXeXeXeXeXeXeXeXeXeXeXeXeXeXeXeXeXeXeXeXeXeXeXeXeXeXeXeX",
"eXeXeXeXeXeXeXeXeXeXeXeXeXeXeXeXeXeXeXeXeXeXeXeXeXeXeXeXeXeXeXeXeXeXeXeXeXeXeXeXeXeXeXeXeXeXeXeXeXeXeXeXeXeXeXeXeXeXeXeXeXeXeXeXeXeXeXeXeXeXeXeXeXeXeXeXeXeXeXeX",
"eXeXeXeXeXeXeXeXeXeXeXeXeXeXeXeXeXeXeXeXeXeXeXeXeXeXeXeXeXeXeXeXeXeXeXeXeXeXeXeXeXeXeXeXeXeXeXeXeXeXeXeXeXeXeXeXeXeXeXeXeXeXeXeXeXeXeXeXeXeXeXeXeXeXeXeXeXeXeXeX",
"eXeXeXeXeXeXeXeXeXeXeXeXeXeXeXeXeXeXeXeXeXeXeXeXeXeXeXeXeXeXeXeXeXeXeXeXeXeXeXeXeXeXeXeXeXeXeXeXeXeXeXeXeXeXeXeXeXeXeXeXeXeXeXeXeXeXeXeXeXeXeXeXeXeXeXeXeXeXeXeX",
"eXeXeXeXeXeXeXeXeXeXeXeXeXeXeXeX9XP.( 2.z.p.m.q.X.- W >XeXeXeXeXeXeXeXeXeXeXeXeXeXeXeXeXeXeXeXeXeXeXeXeXeXeXeXeXeXeXeXeXeXeXeXeXeXeXeXeXeXeXeXeXeXeXeXeXeXeXeXeX",
"eXeXeXeXeXeXeXeXeXeXeXeXeXeX!.I k.f.M.h.m.m.m.m.m.k.r.6...G.9XeXeXeXeXeXeXeXeXeXeXeXeXeXeXeXeXeXeXeXeXeXeXeXeXeXeXeXeXeXeXeXeXeXeXeXeXeXeXeXeXeXeXeXeXeXeXeXeXeX",
"eXeXeXeXeXeXeXeXeXeXeXeX!.U ,.r.a.a.6.6.:.:.2.,.6.6.6.a.r.6.3.+ eXeXeXeXeXeXeXeXeXeXeXeXeXeXeXeXeXeXeXeXeXeXeXeXeXeXeXeXeXeXeXeXeXeXeXeXeXeXeXeXeXeXeXeXeXeXeXeX",
"eXeXeXeXeXeXeXeXeXeXeXv l.,.q.,.B 2 !.U.eXeXeXeXJ.R.+ g >.,.q.,.J 4XeXeXeXeXeXeXeXeXeXeXeXeXeXeXeXeXeXeXeXeXeXeXeXeXeXeXeXeXeXeXeXeXeXeXeXeXeXeXeXeXeXeXeXeXeXeX",
"eXeXeXeXeXeXeXeXeXU.S >.e.>.h !.>XeXeXeXeXeXeXeXeXeXeXeXJ.z ;.,.>. .+ eXeXeXeXeXeXeXeXeXeXeXeXeXeXeXeXeXeXeXeXeXeXeXeXeXeXeXeXeXeXeXeXeXeXeXeXeXeXeXeXeXeXeXeXeX",
"eXeXeXeXeXeXeXeXU.F ,.,.T + eXeXeXeXeXeXeXeXeXeXeXeXeXeXeXeX,Xb 3.>...+ eXeXeXeXeXeXeXeXeXeXeXeXeXeXeXeXeXeXeXeXeXeXeXeXeXeXeXeXeXeXeXeXeXeXeXeXeXeXeXeXeXeXeXeX",
"eXeXeXeXeXeXeXJ.H ,.>.s J.eXeXeXeXeXeXeXeXeXeXeXeXeXeXeXeXeXeXeXO >.>...!.eXeXeXeXeXeXeXeXeXeXeXeXeXeXeXeXeXeXeXeXeXeXeXeXeXeXeXeXeXeXeXeXeXeXeXeXeXeXeXeXeXeXeX",
"eXeXeXeXeXeXeXD ,.,.c eXeXeXeXeXeXeXeXeXeXeXeXeXeXeXeXeXeXeXeXeXeX2  .,.o.U.eXeXeXeXeXeXeXeXeXeXeXeXeXeXeXeXeXeXeXeXeXeXeXeXeXeXeXeXeXeXeXeXeXeXeXeXeXeXeXeXeXeX",
"eXeXeXeXeXeX. 1.1.s >XeXeXeXeXeXeXeXeXeXeXeXeXeXeXeXeXeXeXeXeXeXeXeXO >.q.K eXeXeXeXeXeXeXeXeXeXeXeXeXeXeXeXeXeXeXeXeXeXeXeXeXeXeXeXeXeXeXeXeXeXeXeXeXeXeXeXeXeX",
"eXeXeXeXeXG.r.r. .>XeXeXeXeXeXeXeXeXeXeXeXeXeXeXeXeXeXeXeXeXeXeXeXeX>Xc q.f.$XeXeXeXeXeXeX>XeXeXeXeXeXeXeXeXeXeXeXeXeXeXeXeXeXeXeXeXeXeXeXeXeXeXeXeXeXeXeXeXeXeX",
"eXeXeXeXeX..c.6.!.eXeXeXeXeXeXeXeXeXeXeXeXeXeXeXeXeXeXeXeXeXeXeXeXeXeX4X .f.k.>XeXeXeXeXeXeXeXeXeXeXeXeXeXeXeXeXeXeXeXeXeXeXeXeXeXeXeXeXeXeXeXeXeXeXeXeXeXeXeXeX",
"eXeXeXeX!.m.c.k eXeXeXeXeXeXeXeXeXeXeXeXeXeXeXeXeXeXeXeXeXeXeXeXeXeXeXeX+ d.N.] eXeXeXeX9X2 % ] &.=XeXeXeXeXJ.2 #X0 0 #XeX+ + + 2 P.2 % oX#X9XeXeXeXeXeXeXeXeXeX",
"eXeXeXeX&.S.j.J.eXeXeXeXeXeXeXeXeXeXeXeXeXeXeXeXeXeXeXeXeXeXeXeXeXeXeXeX>X:.V.b.>XeXeXeX!.9.N.N.V.x.eXeXeXeXR.7.V.N.V.<.eXy :.| :.:.:.:.7.8.7.#.oXeXeXeXeXeXeXeX",
"eXeXeX>Xn.S.#.eXeXeXeXeXeXeXeXeXeXeXeXeXeXeXeXeXeXeXeXeXeXeXeXeXeXeXeXeXeX& B.A.#XeXeXeXJ.9.m.x.M.p.>XeXeX>X,X9.m.c.N.5.>Xp :.| ;.| -.| | | | :.:.2.8XeXeXeXeXeX",
"eXeXeX+ V.N.2 eXeXeXeXeXeXeXeXeXeXeXeXeXeXeXeX9XeXeXeXeXeXeXeXeXeXeXeXeXeX!.j.A.I eXeXeXG.y.x.x.c.5.eXeXeXeXU.c.c.c.c.8.eXX.} | | | | | | | | | } -.2.>XeXeXeXeX",
"eXeXeX] N.a.+ eXG.D U U S J U D _ eXI 3.I eXeX0X&...4X=XJ T I T J I J % eX>X;.N.=.>XeXeX0X8.s.s.x.2.>XeXeXeXE.c.s.x.c.u.9X{ } } V | f y f f } } } V | I eXeXeXeX",
"eXeXeXT h.1.4XeX!.3.w.3.>.3.k.e.m.9X3.,.m.4XeX0Xy.>.4X] e.3.3.F 3.>.3.v eXeXm h.e.eXeXeX+ 8.s.p.s.[ eXeXeXeX;Xx.s.s.9.u.9X[ } } V p.W.9X>X!.2.V i V f | #XeXeXeX",
"eXeXeXS p. .>XeXeX!.#X& K w.5XoX<X9XJ ,.r.m.eX9X3.H 4X4X X}.v...v }. X8XeXeXM r.l.J.eXeXG.1.7.9.9.| m W @ X.X.9.7.7.7.y.9XW t } | V.7XeXeXeXJ.:.i i i } &.eXeXeX",
"eXeXeXD q.J eXeXeXeXeX% D &.eXeX9X9Xk.r.q.q.=XeX3.H J.eXeXeX&.X.. eXeXeXeXeXW ,.o.J.eXeXJ.8.:.7.7.7.:.7.7.:.7.:.7.7.7.i.0X[ y u t :.!.eXeXeXeXv i t u y w.eXeXeX",
"eXeXeXJ >.B >XeXeXeXeX XG *.eXeXeX9XG e._ q.>.9XX.H J.eXeXeX&.Z & eX>XeXeXeX& >.L J.eXeX#X:.:.:.:.:.:.:.:.:.:.:.:.:.:.y.qXO.t t r -.qXeXeXeXeX=Xi t y r w.eXeXeX",
"eXeXeXA 3.j >XeXeXeXeX/.K =.9XeX>X9XY l.qX^ 3._ #.H !.eXeXeX_ H & eXeXeXeXeXm >.#.J.eXeX#X:.| | | | | | | :.| :.| :.| 8.9Xc r t q V 8XeXeXeXeXz y r r r w.eXeXeX",
"eXeX>X> 3.3.8XeXeXeXeX+ =.w.9XeXeXeXL 3.!.U.3.l.e.0.0XeXeXeX_ F W eXeXeXeXeXc 3.G eXeXeX!.5.} | | | [ [ } X.5.:.} | :.u.0XX.r r t :.=XeXeXeXeXU r r r r &.eXeXeX",
"eXeX>X. #.F G.eXeXeXeX7Xe.3.eXeXeXeXY o.!.eX] H J K U.eXeXeX] F # eXeXeXeX>XF 3.v eXeXeX#X-.f { | :.0XeXeXeX_.| } } [ { eXX.t t q u R.eXeXeXW p r r r f =XeXeXeX",
"eXeX>X4XL  .2 eXeXeXeX+ L 0.eXeXeX9XK 3.!.eXeX3.G ..R.eXeXeX&.o.v eXeXeXeXR.2.H . eXeXeX#X-.i f f a.9XeXeXeX}.| } } u [ 9X5.t t r t z o o t r r r r r h eXeXeXeX",
"eXeXeX>XJ o.h eXeXeXeX!.^ I eXeXeXeXI I !.eXeX5XI I 4XeXeXeX4 I & eXeXeXeXW H G J.eX>XeX#X{ y i u 2.eXeXeXeX#X| t u u [ 9XX.q r r r r r t r r r r q f !.eXeXeXeX",
"eXeXeXeX. o...!.eXeXeXeXeXeXeXeXeXeXeXeXeXeX9X9XeXeXeXeXeXeXeXeXeXeXeXeX>Xj ..Y J.eXeXeX#X{ t u u 2.4XeXeXeX#X| t t y [ 9XX.q r r r r r r r r q r k #XeXeXeXeXeX",
"eXeXeXeXJ.F o.c eXeXeXeXeXeXeXeXeXeXeXeXeXeXeXeXeXeXeXeXeXeXeXeXeXeXeXeX4  .H & eXeX>XeX X| t t r :.eXeXeXeX#X| t t t u 9Xy.t t r r r r r t u X.c !.eXeXeXeXeXeX",
"eXeXeXeXeXA o. .!.eXeXeXeXeXeXeXeXeXeXeXeXeXeXeXeXeXeXeXeXeXeXeXeXeXeX4XF 3.J J.eXeXeXeXJ.n   m z h 4XeXeXeX#XD   w w W 0XO.q e p i p g g c ] !.eXeXeXeXeXeXeXeX",
"eXeXeXeX>XJ...3...>XeXeXeXeXeXeXeXeXeXeXeXeXeXeXeXeXeXeXeXeXeXeXeXeXeXv 2.H & eXeXeXeXeXeX9X9X9XeXeXeXeXeXeXeX>XeXeXeX>XeXeXeXeXeXeX4XeXeXeXeXeXeXeXeXeXeXeXeXeX",
"eXeXeXeXeXeX. 3.r.P eXeXeXeXeXeXeXeXeXeXeXeXeXeXeXeXeXeXeXeXeXeXeXeXW 3.>.S >XeXeXeXeXeXeXeXeXeXeXeXeXeXeXeXeXeXeXeXeXeXeXeXeXeXeXeXeXeXeXeXeXeXeXeXeXeXeXeXeXeX",
"eXeXeXeXeXeXeXL r.q.c eXeXeXeXeXeXeXeXeXeXeXeXeXeXeXeXeXeXeXeXeXeX#Xr.3.3.U.eXeXeXeXeXeXeXeXeXeXeXeXeXeXeXeXeXeXeXeXeXeXeXeXeXeXeXeXeXeXeXeXeXeXeXeXeXeXeXeXeXeX",
"eXeXeXeXeXeX>XU.e.M.h.m 4XeXeXeXeXeXeXeXeXeXeXeXeXeXeXeXeXeXeXeXW r.k.k.+ eXeXeXeXeXeXeXeXeXeXeXeXeXeXeXeXeXeXeXeXeXeXeXeXeXeXeXeXeXeXeXeXeXeXeXeXeXeXeXeXeXeXeX",
"eXeXeXeXeXeXeXeX0Xm.Z.B.p.!.eXeXeXeXeXeXeXeXeXeXeXeXeXeXeXeX4XT M.V.m.% eXeXeXeXeXeXeXeXeXeXeXeXeXeXeXeXeXeXeXeXeXeXeXeXeXeXeXeXeXeXeXeXeXeXeXeXeXeXeXeXeXeXeXeX",
"eXeXeXeXeXeXeXeX>X0Xb.S.C.h.I !.eXeXeXeXeXeXeXeXeXeXeXeX4XW a.B.S.C.% eXeXeXeXeXeXeXeXeXeXeXeXeXeXeXeXeXeXeXeXeXeXeXeXeXeXeXeXeXeXeXeXeXeXeXeXeXeXeXeXeXeXeXeXeX",
"eXeXeXeXeXeXeXeXeXeX>X&.C.N.f.9.P z 0X9XeXeXeXeX>X:XR.T 6.a.M.B.b.U.eXeXeXeXeXeXeXeXeXeXeXeXeXeXeXeXeXeXeXeXeXeXeXeXeXeXeXeXeXeXeXeXeXeXeXeXeXeXeXeXeXeXeXeXeXeX",
"eXeXeXeXeXeXeXeXeXeXeXeX#X3.p.p.q.q.m.q.,.2.R  .r.a.>.q.r.a.m.% eXeXeXeXeXeXeXeXeXeXeXeXeXeXeXeXeXeXeXeXeXeXeXeXeXeXeXeXeXeXeXeXeXeXeXeXeXeXeXeXeXeXeXeXeXeXeXeX",
"eXeXeXeXeXeXeXeXeXeXeXeXeXeX!.I 0.q.q.r.r.q.r.e.,.>.>.H I + 9XeXeXeXeXeXeXeXeXeXeXeXeXeXeXeXeXeXeXeXeXeXeXeXeXeXeXeXeXeXeXeXeXeXeXeXeXeXeXeXeXeXeXeXeXeXeXeXeXeX",
"eXeXeXeXeXeXeXeXeXeXeXeXeXeXeXeX9X!.W I J D K >.v v + U.eXeXeXeXeXeXeXeXeXeXeXeXeXeXeXeXeXeXeXeXeXeXeXeXeXeXeXeXeXeXeXeXeXeXeXeXeXeXeXeXeXeXeXeXeXeXeXeXeXeXeXeX",
"eXeXeXeXeXeXeXeXeXeXeXeXeXeXeXeXeXeXeXeXeXeX9XeXeXeXeXeXeXeXeXeXeXeXeXeXeXeXeXeXeXeXeXeXeXeXeXeXeXeXeXeXeXeXeXeXeXeXeXeXeXeXeXeXeXeXeXeXeXeXeXeXeXeXeXeXeXeXeXeX",
"eXeXeXeXeXeXeXeXeXeXeX9X=X=X/.#XeXoX5XeX=XQ.eXeXeXeX X=X9XeX!.=XJ.eXeXeXeXeXeXeXeXeXeXeXeXeXeXeXeXeXeXeXeXeXeXeXeXeXeXeXeXeXeXeXeXeXeXeXeXeXeXeXeXeXeXeXeXeXeXeX",
"eXeXeXeXeXeXeXeXeXeXeXv m._ U I eXa.k.eX#.m.9XeXeX9X0.3.z eX0.>.] eXeXeXeXeXeXeXeXeXeXeXeXeXeXeXeXeXeXeXeXeXeXeXeXeXeXeXeXeXeXeXeXeXeXeXeXeXeXeXeXeXeXeXeXeXeXeX",
"eXeXeXeXeXeXeXeXeXeXeXW r.z R.0XeX3.3.eXI m.9XeXeXJ.3.0.&.8X*.3.% eXeXeXeXeXeXeXeXeXeXeXeXeXeXeXeXeXeXeXeXeXeXeXeXeXeXeXeXeXeXeXeXeXeXeXeXeXeXeXeXeXeXeXeXeXeXeX",
"eXeXeXeXeXeXeXeXeXeXJ.v 3.L L + eX3.3.eX] k.eXeXeX4X3.% J &.I #.W eXeXeXeXeXeXeXeXeXeXeXeXeXeXeXeXeXeXeXeXeXeXeXeXeXeXeXeXeXeXeXeXeXeXeXeXeXeXeXeXeXeXeXeXeXeXeX",
"eXeXeXeXeXeXeXeXeXeXeX@Xe.9XeXeXeXD 3.eXI f.+ =X=X8X3.!.I H _.Y # eXeXeXeXeXeXeXeXeXeXeXeXeXeXeXeXeXeXeXeXeXeXeXeXeXeXeXeXeXeXeXeXeXeXeXeXeXeXeXeXeXeXeXeXeXeXeX",
"eXeXeXeXeXeXeXeXeXeXeX[.' !.eXeXeXA J eXv >.*.H H 9XL U.+ J 4XL # eXeXeXeXeXeXeXeXeXeXeXeXeXeXeXeXeXeXeXeXeXeXeXeXeXeXeXeXeXeXeXeXeXeXeXeXeXeXeXeXeXeXeXeXeXeXeX",
"eXeXeXeXeXeXeXeXeXeXeXeXeXeXeXeXeXeXeXeXeXeXeXeXeXeXeXeXeXeXeXeXeXeXeXeXeXeXeXeXeXeXeXeXeXeXeXeXeXeXeXeXeXeXeXeXeXeXeXeXeXeXeXeXeXeXeXeXeXeXeXeXeXeXeXeXeXeXeXeX",
"eXeXeXeXeXeXeXeXeXeXeXeXeXeXeXeXeXeXeXeXeXeXeXeXeXeXeXeXeXeXeXeXeXeXeXeXeXeXeXeXeXeXeXeXeXeXeXeXeXeXeXeXeXeXeXeXeXeXeXeXeXeXeXeXeXeXeXeXeXeXeXeXeXeXeXeXeXeXeXeX",
"eXeXeXeXeXeXeXeXeXeXeXeXeXeXeXeXeXeXeXeXeXeXeXeXeXeXeXeXeXeXeXeXeXeXeXeXeXeXeXeXeXeXeXeXeXeXeXeXeXeXeXeXeXeXeXeXeXeXeXeXeXeXeXeXeXeXeXeXeXeXeXeXeXeXeXeXeXeXeXeX",
"eXeXeXeXeXeXeXeXeXeXeXeXeXeXeXeXeXeXeXeXeXeXeXeXeXeXeXeXeXeXeXeXeXeXeXeXeXeXeXeXeXeXeXeXeXeXeXeXeXeXeXeXeXeXeXeXeXeXeXeXeXeXeXeXeXeXeXeXeXeXeXeXeXeXeXeXeXeXeXeX",
"eXeXeXeXeXeXeXeXeXeXeXeXeXeXeXeXeXeXeXeXeXeXeXeXeXeXeXeXeXeXeXeXeXeXeXeXeXeXeXeXeXeXeXeXeXeXeXeXeXeXeXeXeXeXeXeXeXeXeXeXeXeXeXeXeXeXeXeXeXeXeXeXeXeXeXeXeXeXeXeX",
"eXeXeXeXeXeXeXeXeXeXeXeXeXeXeXeXeXeXeXeXeXeXeXeXeXeXeXeXeXeXeXeXeXeXeXeXeXeXeXeXeXeXeXeXeXeXeXeXeXeXeXeXeXeXeXeXeXeXeXeXeXeXeXeXeXeXeXeXeXeXeXeXeXeXeXeXeXeXeXeX",
"eXeXeXeXeXeXeXeXeXeXeXeXeXeXeXeXeXeXeXeXeXeXeXeXeXeXeXeXeXeXeXeXeXeXeXeXeXeXeXeXeXeXeXeXeXeXeXeXeXeXeXeXeXeXeXeXeXeXeXeXeXeXeXeXeXeXeXeXeXeXeXeXeXeXeXeXeXeXeXeX",
"eXeXeXeXeXeXeXeXeXeXeXeXeXeXeXeXeXeXeXeXeXeXeXeXeXeXeXeXeXeXeXeXeXeXeXeXeXeXeXeXeXeXeXeXeXeXeXeXeXeXeXeXeXeXeXeXeXeXeXeXeXeXeXeXeXeXeXeXeXeXeXeXeXeXeXeXeXeXeXeX",
"eXeXeXeXeXeXeXeXeXeXeXeXeXeXeXeXeXeXeXeXeXeXeXeXeXeXeXeXeXeXeXeXeXeXeXeXeXeXeXeXeXeXeXeXeXeXeXeXeXeXeXeXeXeXeXeXeXeXeXeXeXeXeXeXeXeXeXeXeXeXeXeXeXeXeXeXeXeXeXeX",
"eXeXeXeXeXeXeXeXeXeXeXeXeXeXeXeXeXeXeXeXeXeXeXeXeXeXeXeXeXeXeXeXeXeXeXeXeXeXeXeXeXeXeXeXeXeXeXeXeXeXeXeXeXeXeXeXeXeXeXeXeXeXeXeXeXeXeXeXeXeXeXeXeXeXeXeXeXeXeXeX",
"eXeXeXeXeXeXeXeXeXeXeXeXeXeXeXeXeXeXeXeXeXeXeXeXeXeXeXeXeXeXeXeXeXeXeXeXeXeXeXeXeXeXeXeXeXeXeXeXeXeXeXeXeXeXeXeXeXeXeXeXeXeXeXeXeXeXeXeXeXeXeXeXeXeXeXeXeXeXeXeX",
"eXeXeXeXeXeXeXeXeXeXeXeXeXeXeXeXeXeXeXeXeXeXeXeXeXeXeXeXeXeXeXeXeXeXeXeXeXeXeXeXeXeXeXeXeXeXeXeXeXeXeXeXeXeXeXeXeXeXeXeXeXeXeXeXeXeXeXeXeXeXeXeXeXeXeXeXeXeXeXeX",
"eXeXeXeXeXeXeXeXeXeXeXeXeXeXeXeXeXeXeXeXeXeXeXeXeXeXeXeXeXeXeXeXeXeXeXeXeXeXeXeXeXeXeXeXeXeXeXeXeXeXeXeXeXeXeXeXeXeXeXeXeXeXeXeXeXeXeXeXeXeXeXeXeXeXeXeXeXeXeXeX",
"eXeXeXeXeXeXeXeXeXeXeXeXeXeXeXeXeXeXeXeXeXeXeXeXeXeXeXeXeXeXeXeXeXeXeXeXeXeXeXeXeXeXeXeXeXeXeXeXeXeXeXeXeXeXeXeXeXeXeXeXeXeXeXeXeXeXeXeXeXeXeXeXeXeXeXeXeXeXeXeX",
"eXeXeXeXeXeXeXeXeXeXeXeXeXeXeXeXeXeXeXeXeXeXeXeXeXeXeXeXeXeXeXeXeXeXeXeXeXeXeXeXeXeXeXeXeXeXeXeXeXeXeXeXeXeXeXeXeXeXeXeXeXeXeXeXeXeXeXeXeXeXeXeXeXeXeXeXeXeXeXeX",
"eXeXeXeXeXeXeXeXeXeXeXeXeXeXeXeXeXeXeXeXeXeXeXeXeXeXeXeXeXeXeXeXeXeXeXeXeXeXeXeXeXeXeXeXeXeXeXeXeXeXeXeXeXeXeXeXeXeXeXeXeXeXeXeXeXeXeXeXeXeXeXeXeXeXeXeXeXeXeXeX",
"eXeXeXeXeXeXeXeXeXeXeXeXeXeXeXeXeXeXeXeXeXeXeXeXeXeXeXeXeXeXeXeXeXeXeXeXeXeXeXeXeXeXeXeXeXeXeXeXeXeXeXeXeXeXeXeXeXeXeXeXeXeXeXeXeXeXeXeXeXeXeXeXeXeXeXeXeXeXeXeX"
};
