/* XPM */
static char *xpm_[] = {
/* columns rows colors chars-per-pixel */
"80 80 92 1 ",
"  c #010101",
". c #070F12",
"X c #011319",
"o c #181819",
"O c #010101",
"+ c #031C26",
"@ c #1F2223",
"# c #032938",
"$ c #252525",
"% c #39393A",
"& c #020202",
"* c #030303",
"= c #033549",
"- c #003A50",
"; c #024159",
": c #024B67",
"> c #04526F",
", c #01597B",
"< c #484848",
"1 c #555555",
"2 c #686969",
"3 c #7B7B7B",
"4 c #020202",
"5 c #040303",
"6 c #030405",
"7 c #010101",
"8 c #005F84",
"9 c #03658B",
"0 c #016C94",
"q c #02729C",
"w c #037CAA",
"e c #0286B8",
"r c #058DC1",
"t c #0292CA",
"y c #019BD6",
"u c #01A1DE",
"i c #00ADEF",
"p c #03A0DC",
"a c #00ADEF",
"s c #009DEC",
"d c #00ADEF",
"f c #09B0EF",
"g c #00ADF2",
"h c #05B4F7",
"j c #18B5F0",
"k c #00B5F9",
"l c #27B9F1",
"z c #35BEF2",
"x c #3DC0F3",
"c c #49C4F3",
"v c #58C9F4",
"b c #67CEF5",
"n c #6ED0F6",
"m c #76D3F6",
"M c #878787",
"N c #8F8F90",
"B c #999999",
"V c #A7A8A8",
"C c #AFB0B1",
"Z c #B5B5B5",
"A c #88D8F7",
"S c #99DEF9",
"D c #A7E3F9",
"F c #B8E8FB",
"G c #C7C7C7",
"H c #DADADA",
"J c #C8EDFC",
"K c #CFF0FC",
"L c #DBF3FD",
"P c #E7E7E8",
"I c #E6F7FD",
"U c #FDFEFF",
"Y c #040404",
"T c #040404",
"R c #030303",
"E c #040404",
"W c #00ADEF",
"Q c #00ADEF",
"! c #00ADEF",
"~ c #00ADEF",
"^ c #00ADEF",
"/ c #00ADEF",
"( c #00ADEF",
") c #00ADEF",
"_ c #030303",
"` c #000000",
"' c #00ADEF",
"] c #00ADEF",
"[ c #00ADEF",
"{ c #00ADEF",
"} c #043B50",
"| c None",
/* pixels */
"||||||||||||||||||||||||||||||||||||||||||||||||||||||||||||||||||||||||||||||||",
"||||||||||||||||||||||||||||||||||||||||||||||||||||||||||||||||||||||||||||||||",
"||||||||||||||||||||||||||||||||||||||||||||||||||||||||||||||||||||||||||||||||",
"||||||||||||||||||||||||||||||||||||||||||||||||||||||||||||||||||||||||||||||||",
"||||||||||||||||||||||||||||||||||||||||||||||||||||||||||||||||||||||||||||||||",
"||||||||||||||||||||||||||||||||||||||||||||||||||||||||||||||||||||||||||||||||",
"||||||||||||||||||||||||||||||||||||||||||||||||||||||||||||||||||||||||||||||||",
"||||||||||||||||||||||||||||||||||||||||||||||||||||||||||||||||||||||||||||||||",
"||||||||||||||||||||||||||||||||||||||||||||||||||||||||||||||||||||||||||||||||",
"||||||||||||||||||||||||||||||||||||||||||||||||||||||||||||||||||||||||||||||||",
"||||||||||||||||||||||||||||||||||||||||||||||||||||||||||||||||||||||||||||||||",
"||||||||||||||||||||||||||||||||||||||||||||||||||||||||||||||||||||||||||||||||",
"||||||||||||||||||||||||||||||||||||||||||||||||||||||||||||||||||||||||||||||||",
"||||||||||||||||||||||||||||||||||||||||||||||||||||||||||||||||||||||||||||||||",
"||||||||||||||||||||||||||||||||||||||||||||||||||||||||||||||||||||||||||||||||",
"||||||||||||||||||||||||||||||||||||||||||||||||||||||||||||||||||||||||||||||||",
"||||||||||||||||||||||||||||||||||||||||||||||||||||||||||||||||||||||||||||||||",
"||||||||||||||||||||||||||||||||||||||||||||||||||||||||||||||||||||||||||||||||",
"||||||||||||||||||||||||||||||||||||||||||||||||||||||||||||||||||||||||||||||||",
"||||||||||||||||||||||||||||||||||||||||||||||||||||||||||||||||||||||||||||||||",
"||||||||||||||||||||||||||||||||||||||||||||||||||||||||||||||||||||||||||||||||",
"||||||||||||||||||||||||||||||||||||||||||||||||||||||||||||||||||||||||||||||||",
"||||||||||||||||||||||||||||||||||||||||||||||||||||||||||||||||||||||||||||||||",
"|||kdddddddddddddddddddddddddddddddddddddddddddddddddddddddddddddddddhddddddd|||",
"|||gdddddddddddhdddddddddgddhdddddddddddddddddddgdddddddddddddddddddddddgdddd|||",
"|||dddgddgddddddddddddgdddddddddddddddggdddddddddddddgddddddddddhdddddddddddd|||",
"|||dddddgddddddddddddddddddddddddddddddddddddgdddddddddddddddgddddddddddddddd|||",
"|||ddddddddddddddddgddddhdddddddddddddddddddgddddddddddgddgdddddddddddddddddd|||",
"|||dddddhdhddddddddddddddddddddddddddddddddgddddgdddggfgdddddgddddddhddddddgd|||",
"|||ddddddddddddddddddddgdddddddddfddgddhdgddddddddddgkkgddddddddddddddddddddd|||",
"|||ddddddddfffffffffffffffffffffddddddddkhfffffddddjzxxlfddffffffffffdddddddd|||",
"|||dddgddddFIIILIILILIIIIILIILLLJSxddddcJLIIIIJddxFIUUUUImAULLILLLIIJdddddhdd|||",
"|||ddddddddLUUUUUUUUUUUUUUUUUUUUUUUbdgcUUUUUUULglUUUUUUUUUUUUUUUUUUUIddddgddd|||",
"|||ddddddddLUUKDUUUUDKUUUUUUIDDLUUUUfkIUUUUUUULgDUUUIDFUUUUUUUKDDKUUIgddddddd|||",
"|||ddddhdddJIUxdIUUIdzULIUUUFkkfIUUUlcUUUIvUUULkJUUUcgsSUUUUUUvskxIUJdddddddd|||",
"|||ddddddgffffdfIUUIjdjgcUUUJfjcUUUUjDUUUvkUUULdKUUUlkglAmJUUUAzzgfffdddddddd|||",
"|||ddddddddddddjIUUIfddkcUUUUIUUUUUJjUUUUlzUUULgKUUUlkddddnUUUUUJdgkddddddddd|||",
"|||ddddddddddddfIUUIfgfdxUUUUUUUUULjvUUUUUUUUULgKUUUlgggdknUUUUUKgdfgdddddddd|||",
"|||dgddgdddddddfIUUIfhkdcUUUIDUUUUAkFUUUUUUUUULkKUUUjgklbcDUUUSvcgdgdddddddgd|||",
"|||ddddddddddddfIUUIkghdzUUUFkbUUUInUUUUAnAUUUIlIUUUxgdmUUUUUUvsklJFSdddgdddd|||",
"|||ddddddddddhdjUUUUmdgfFUUUFkkKUUUUUUUFdgfUUUUUUUUULmAIUUUUUUDbbDUUIdddhhfff```",
"|||dddddddddddddLUUUIdklUUUUFggcUUUUUUUvdkjUUUUUUUUUUUUUUUUUUUUUUUUULdddfkfff```",
"|||ddddgddhdddddcUUULgglUUUUFgfgJUUUUUJgkdjUUUUUUUUUUUUUUUUUUUUUUUUUIdddfffff```",
"|||dddddddddddddkjccxdgfcccczgkgjccccxddggfcccccccccccxcccccccccccccxdddfffff```",
"|||dddddddddddddddddkgddgdkggddgkggkdkgdkgdgkgkgddgghhhhhgkgkddddddkddddfffkf```",
"|||dhdddddddddddddfgfgdddgdfdddghhhhhhhhhhhhhhhgkkiyurewqyhgggfdffffdddfffhhf```",
"|||dddddgddgdddddddddddhhhhdddkyyteeww088>:--##++X.      qhgdgdddddfddddfffff```",
"|||ddddddddddddddgdddgy:-=##+X..                     $o. 0hkdddgdddddddffffff```",
"|||dfffffkffffkhpkfkhhu**   O  O    o<%O$23N<oCCCP3<UUU%O9hdddkhffffkhffffkhf```",
"|||dhkffhhfkfffhppfffhp+*<CGVONHPP11UUU3<UHPU2BHUB%GH @.O,hkdddhfkfffhfkfffhf```",
"|||puuttuuyyupttttkktut# PHMB GP1GPHG NU1U.OU3 1U OVUM< O:kruuuypuupupupupuyp```",
"||||```_````````__||```[ UV OOZG 2UHV 1U1UM2U2 1U$ oMGU3 5|_````````````````````",
"||||||||````````|||||||& 3UUH NUGUZGZ <U1UPUH  <U$    HZ+}````````````````.`````",
"||||||||````````|||||||&   %U13UM2 CPoMU%U<<U3 %U% MUPU2X+```````````````.~{#```",
"||||||||````````|||||||& 3NNU%MU   %PUUM.H< 3V oN$ o11% .5``````````````````````",
"||||||||````````|||||||4 3GG3O%2 O  .$o    O    OO    O  *```````````````.]=X```",
"````````````````|||||||4     O       O O OO **&457666TERR_||||||``````````}}````",
"````````````````|||||||4 * **44677YYRRR```||||||||||||||||||||||````````````````",
"````````````````||||||||||||||||||||||||||||||||||||||||||||||||````````````````",
"````````````````||||||||||||||||||||||||||||||||||||||||||||||||````````````````",
"````````````````||||||||||||||||||||||||||||||||||||||||||||||||````````````````",
"````````````````||||||||||||||||||||||||||||||||||||||||||||||||````````````````",
"````````````````||||||||||||||||||||||||||||||||||||||||||||||||````````````````",
"````````````````||||||||||||||||||||||||||||||||||||||||||||||||````````````````",
"````````````````````````````````````````````````````````````````````````````````",
"````````````````````````````````````````````````````````````````````````````````",
"````````````````````````````````````````````````````````````````````````````````",
"````````````````````````````````````````````````````````````````````````````````",
"````````````````````````````````````````````````````````````````````````````````",
"````````````````````````````````````````````````````````````````````````````````",
"````````````````````````````````````````````````````````````````````````````````",
"````````````````````````````````````````````````````````````````````````````````",
"````````````````````````````````````````````````````````````````````````````````",
"````````````````````````````````````````````````````````````````````````````````",
"````````````````````````````````````````````````````````````````````````````````",
"````````````````````````````````````````````````````````````````````````````````",
"````````````````````````````````````````````````````````````````````````````````",
"````````````````````````````````````````````````````````````````````````````````",
"````````````````````````````````````````````````````````````````````````````````",
"````````````````````````````````````````````````````````````````````````````````"
};
