/* XPM */
static char *xpm_[] = {
/* columns rows colors chars-per-pixel */
"80 80 71 1 ",
"  c #3A4A0E",
". c #3E4D13",
"X c #45541B",
"o c #4B620F",
"O c #4F6514",
"+ c #566B1E",
"@ c #4D5B27",
"# c #505E2A",
"$ c #58692B",
"% c #5E7329",
"& c #5D6D30",
"* c #5F7031",
"= c #697C37",
"- c #697C37",
"; c #62762D",
": c #697C37",
"> c #697C37",
", c #697C37",
"< c #697C37",
"1 c #697C37",
"2 c #636F40",
"3 c #677345",
"4 c #747F56",
"5 c #697C37",
"6 c #697C37",
"7 c #6E813B",
"8 c #74893B",
"9 c #6F8140",
"0 c #768748",
"q c #7D9341",
"w c #7B8955",
"e c #859C45",
"r c #85945C",
"t c #8BA348",
"y c #93AB4C",
"u c #99B24F",
"i c #9EB851",
"p c #A2BC54",
"a c #838D67",
"s c #8C9A65",
"d c #919F6C",
"f c #8D9674",
"g c #909977",
"h c #93A06F",
"j c #9BA87A",
"k c #9FAC80",
"l c #A1AD83",
"z c #AAB58D",
"x c #AEB893",
"c c #B3BC99",
"v c #B6C09E",
"b c #BCC5A6",
"n c #C2CAAE",
"m c #C6CDB3",
"M c #CBD1B9",
"N c #D6DBCA",
"B c #DEE3D3",
"V c #E4E7DA",
"C c #E9ECE2",
"Z c #EFF1E9",
"A c #F2F4EE",
"S c #FEFEFD",
"D c #697C37",
"F c #697C37",
"G c #697C37",
"H c #697C37",
"J c #697C37",
"K c #697C37",
"L c #697C37",
"P c #697C37",
"I c None",
/* pixels */
"IIIIIIIIIIIIIIIIIIIIIIIIIIIIIIIIIIIIIIIIIIIIIIIIIIIIIIIIIIIIIIIIIIIIIIIIIIIIIIII",
"IIIIIIIIIIIIIIIIIIIIIIIIIIIIIIIIIIIIIIIIIIIIIIIIIIIIIIIIIIIIIIIIIIIIIIIIIIIIIIII",
"IIIIIIIIIIIIIIIIIIIIIIIIIIIIIIIIIIIIIIIIIIIIIIIIIIIIIIIIIIIIIIIIIIIIIIIIIIIIIIII",
"IIIIIIIIIIIIIIIIIIIIIIIIIIIIIIIIIIIIIIIIIIIIIIIIIIIIIIIIIIIIIIIIIIIIIIIIIIIIIIII",
"IIIIIIIIIIIIIIIIIIIIIIIIIIIIIIIIIIIIIIIIIIIIIIIIIIIIIIIIIIIIIIIIIIIIIIIIIIIIIIII",
"IIIIIIIIIIIIIIIIIIIIIIIIIIIIIIIIIIIIIIIIIIIIIIIIIIIIIIIIIIIIIIIIIIIIIIIIIIIIIIII",
"IIIIIIIIIIIIIIIIIIIIIIIIIIIIIIIIIIIIIIIIIIIIIIIIIIIIIIIIIIIIIIIIIIIIIIIIIIIIIIII",
"IIIIIIIIIIIIIIIIIIIIIIIIIIIIIIIIIIIIIIIIIIIIIIIIIIIIIIIIIIIIIIIIIIIIIIIIIIIIIIII",
"IIIIIIIIIIIIIIIIIIIIIIIIIIIIIIIIIIIIIIIIIIIIIIIIIIIIIIIIIIIIIIIIIIIIIIIIIIIIIIII",
"IIIIIIIIIIIIIIIIIIIIIIIIIIIIIIIIIIIIIIIIIIIIIIIIIIIIIIIIIIIIIIIIIIIIIIIIIIIIIIII",
"IIIIIIIIIIIIIIIIIIIIIIIIIIIIIIIIIIIIIIIIIIIIIIIIIIIIIIIIIIIIIIIIIIIIIIIIIIIIIIII",
"IIIIIIIIIIIIIIIIIIIIIIIIIIIIIIIIIIIIIIIIIIIIIIIIIIIIIIIIIIIIIIIIIIIIIIIIIIIIIIII",
"IIIIIIIIIIIIIIIIIIIIIIIIIIIIIIIIIIIIIIIIIIIIIIIIIIIIIIIIIIIIIIIIIIIIIIIIIIIIIIII",
"IIIIIIIIIIIIIIIIIIIIIIIIIIIIIIIIIIIIIIIIIIIIIIIIIIIIIIIIIIIIIIIIIIIIIIIIIIIIIIII",
"IIIIIIIIIIIIIIIIIIIIIIIIIIIIIIIIIIIIIIIIIIIIIIIIIIIIIIIIIIIIIIIIIIIIIIIIIIIIIIII",
"IIIIIIIIIIIIIIIIIIIIIIIIIIIIIIIIIIIIIIIIIIIIIIIIIIIIIIIIIIIIIIIIIIIIIIIIIIIIIIII",
"IIIIIIIIIIIIIIIIIIIIIIIIIIIIIIIIIIIIIIIIIIIIIIIIIIIIIIIIIIIIIIIIIIIIIIIIIIIIIIII",
"IIIIIIIIIIIIIIIIIIIIIIIIIIIIIIIIIIIIIIIIIIIIIIIIIIIIIIIIIIIIIIIIIIIIIIIIIIIIIIII",
"IIIIIIIIIIIIIIIIIIIIIIIIIIIIIIIIIIIIIIIIIIIIIIIIIIIIIIIIIIIIIIIIIIIIIIIIIIIIIIII",
"IIIIIIIIIIIIIIIIIIIIIIIIIIIIIIIIIIIIIIIIIIIIIIIIIIIIIIIIIIIIIIIIIIIIIIIIIIIIIIII",
"IIIIIIIIIIIIIIIIIIIIIIIIIIIIIIIIIIIIIIIIIIIIIIIIIIIIIIIIIIIIIIIIIIIIIIIIIIIIIIII",
"IIIIIIIIIIIIIIIIIIIIIIIIIIIIIIIIIIIIIIIIIIIIIIIIIIIIIIIIIIIIIIIIIIIIIIIIIIIIIIII",
"IIIIIIIIIIIIIIIIIIIIIIIIIIIIIIIIIIIIIIIIIIIIIIIIIIIIIIIIIIIIIIIIIIIIIIIIIIIIIIII",
"IIIIIIIIIIIIIIIIIIIIIIIIIIIIIIIIIIIIIIIIIIIIIIIIIIIIIIIIIIIIIIIIIIIIIIIIIIIIIIII",
"IIIIIIIIIIIIIIIIIIIIIIIIIIIIIIIIIIIIIIIIIIIIIIIIIIIIIIIIIIIIIIIIIIIIIIIIIIIIIIII",
"IIIIIIIIIIIIIIIIIIIIIIIIIIIIIIIIIIIIIIIIIIIIIIIIIIIIIIIIIIIIIIIIIIIIIIIIIIIIIIII",
"III$>>>>>>>:>>>;>>>:>>>;>>>:>>>>>>>>>>>>;>>>>>>>>:>>:>>>>>>;>>>>>>>$5FIIIIIIIIII",
"III>::777::7::::7::7::7:7:7:::::7:7:7::7::7:7:7::7:::7::7:777::7;77:8875IIIIIIII",
"III>7::::::::::7::::::::::::77:7:7:777:77::::77:::::::::::::::::::::7>:77KIIIIII",
"III>::::::::7:::7:7:::::::::&&$&&*$&&&&$&&%&$&*:7:::7::::::::::7:::7:7:>87PIKIII",
"III>7::::7::::::::::::::::7>@@@@@@@@@@@@@@@@@@@@$::::::::7::::::::7:::;7778KIIII",
"III>:::::::::::::::::::7:::;@@@@@@@@@@@@@@@,@@@@@,::::::::7:::::::::::77>79XIIII",
"III>::::::::::::::::::::::::@#@@@@@@@@@@@@@@@@@@#@#::::::7:::::::::7:::7::::GIII",
"III>:::::::::7::::::7::::::>@@@@@@@@@@@@@@@@@@#@@#@&::::::::7:::::::::::::::5III",
"III>::::7::7:7::7:7:::::::::@#@@,&$$$$$$$$$$$##@@@@#:::::7:::7::::::7:::7:::$III",
"III>:7:7:;;;;;::::;;;;;;:::>XX@XX;:::::::::::>X@#@@@:::7:;;;;;:7:::;;;;;;:::>III",
"III>:::;7ssssw;7:0ssssss:::04444ws9:::7ee7::>dM2X##@>:7;:rsrsr;:::rssssdw:::$III",
"III>:7;hSSSSSSz%0ZSSSSSS0;xSSSSSSSj%::eiie>7%xSwX#@@>7;wCSSSSSn:;xSSSSSSn%7;>III",
"III::;wSVsssrNSrhSzrssss7;VSa44wwg0::7utyy::%xS4X##@>::VSjsssbSx%VZrssrsw7:7>III",
"III>7%zSr%;;%0SbhSr%:>;;;>VN X@XX*:::qi98p0:%xS4X#@@:;rSx+;;%;CC;ZN%:;;;;;::>III",
"III>7%cSAAAASASMwSSASASAb;VNX$@@$::::yy::ut:%xS4X#@@:;dSAAAAAZSA;MSSASSSVs;:>III",
"III>7%cSMmMmmnmj;jnmmmnCSwVNX#@@$:::8iq::eu7%xSw@@@@:;sSBmMmMMMc:0vmmmnmSN;7>III",
"III::%xSq++%%%%::%+$+%OrSrVN.@@@X::>eu7::9ie%xS4.@@@*%sSjo%%%%%;7;+%++%ONV;:>III",
"III>:;lSMw0w09::8rrrrrwvSrNSw3233w9:ut::::yy$zSl&22>w9wSCr0000:::wrrrrrrAB;:>III",
"III>::7VSSSSSl;;lSSSSSSSA9hSSSSSSSj8i8::::ei8wSSSSSSSN%mSSSSSm%7:VSSSSSSSb;7>III",
"III>::::jjljjw;:wjjjjjljw::rfffffg0887:::::q8>wffgggld%:dlljls:::djjjjllh:::>III",
"III$::::;%%;;::::%;%;;;%:::>XX.XXX@$$$$$$$$$$&$XXXXX$;::;%;%;;::::;;;%;%;:::>III",
"III6::::::7:7::::77:::7:7:::&@$###@@#@@@@@@@@@@@@#@@:7::7::7::::::::7::7::::>III",
"IIIH7-977>::::::::::7::::::7:@@@@@@@@@@@@@@@#@@@@@@@:::::::::::7:::::::::7::>III",
"IIIIX77>777:::::::::::::::::::#@#@@@#@@@##@@@@@@@@@@>:::::::::::::7:::::::::>III",
"IIIIK77:::::::7::::::::::::::::$@@@@@@@@@@@@@@@@@@@@::::::::::::::::::7:::::>III",
"IIIIIK:8>7::::::7::::::7:::::::7:*&$&$&&$$&$&$&&$&&$:7::::::7:::::7:::::::::>III",
"IIIIIIP>::::::7:7:::::::7::::::::::77:7::7:77:7::::7::::::7::::::::::::::7::>III",
"IIIIIIIIF>:8::::::::::::::::7::::::::::::::::::::::::::::::::::::7::::::::::>III",
"IIIIIIIIIIG<$:::::::::::::::::::::::::::::::::::::::::::::::::::::::::77::::>III",
"IIIIIIIIIIIIIIIIIIIIIIIIIIIIIIIIIIIIIIIIIIIIIIIIIIIIIIIIIIIIIIIIIIIIIIIIIIIIIIII",
"IIIIIIIIIIIIIIIIIIIIIIIIIIIIIIIIIIIIIIIIIIIIIIIIIIIIIIIIIIIIIIIIIIIIIIIIIIIIIIII",
"IIIIIIIIIIIIIIIIIIIIIIIIIIIIIIIIIIIIIIIIIIIIIIIIIIIIIIIIIIIIIIIIIIIIIIIIIIIIIIII",
"IIIIIIIIIIIIIIIIIIIIIIIIIIIIIIIIIIIIIIIIIIIIIIIIIIIIIIIIIIIIIIIIIIIIIIIIIIIIIIII",
"IIIIIIIIIIIIIIIIIIIIIIIIIIIIIIIIIIIIIIIIIIIIIIIIIIIIIIIIIIIIIIIIIIIIIIIIIIIIIIII",
"IIIIIIIIIIIIIIIIIIIIIIIIIIIIIIIIIIIIIIIIIIIIIIIIIIIIIIIIIIIIIIIIIIIIIIIIIIIIIIII",
"IIIIIIIIIIIIIIIIIIIIIIIIIIIIIIIIIIIIIIIIIIIIIIIIIIIIIIIIIIIIIIIIIIIIIIIIIIIIIIII",
"IIIIIIIIIIIIIIIIIIIIIIIIIIIIIIIIIIIIIIIIIIIIIIIIIIIIIIIIIIIIIIIIIIIIIIIIIIIIIIII",
"IIIIIIIIIIIIIIIIIIIIIIIIIIIIIIIIIIIIIIIIIIIIIIIIIIIIIIIIIIIIIIIIIIIIIIIIIIIIIIII",
"IIIIIIIIIIIIIIIIIIIIIIIIIIIIIIIIIIIIIIIIIIIIIIIIIIIIIIIIIIIIIIIIIIIIIIIIIIIIIIII",
"IIIIIIIIIIIIIIIIIIIIIIIIIIIIIIIIIIIIIIIIIIIIIIIIIIIIIIIIIIIIIIIIIIIIIIIIIIIIIIII",
"IIIIIIIIIIIIIIIIIIIIIIIIIIIIIIIIIIIIIIIIIIIIIIIIIIIIIIIIIIIIIIIIIIIIIIIIIIIIIIII",
"IIIIIIIIIIIIIIIIIIIIIIIIIIIIIIIIIIIIIIIIIIIIIIIIIIIIIIIIIIIIIIIIIIIIIIIIIIIIIIII",
"IIIIIIIIIIIIIIIIIIIIIIIIIIIIIIIIIIIIIIIIIIIIIIIIIIIIIIIIIIIIIIIIIIIIIIIIIIIIIIII",
"IIIIIIIIIIIIIIIIIIIIIIIIIIIIIIIIIIIIIIIIIIIIIIIIIIIIIIIIIIIIIIIIIIIIIIIIIIIIIIII",
"IIIIIIIIIIIIIIIIIIIIIIIIIIIIIIIIIIIIIIIIIIIIIIIIIIIIIIIIIIIIIIIIIIIIIIIIIIIIIIII",
"IIIIIIIIIIIIIIIIIIIIIIIIIIIIIIIIIIIIIIIIIIIIIIIIIIIIIIIIIIIIIIIIIIIIIIIIIIIIIIII",
"IIIIIIIIIIIIIIIIIIIIIIIIIIIIIIIIIIIIIIIIIIIIIIIIIIIIIIIIIIIIIIIIIIIIIIIIIIIIIIII",
"IIIIIIIIIIIIIIIIIIIIIIIIIIIIIIIIIIIIIIIIIIIIIIIIIIIIIIIIIIIIIIIIIIIIIIIIIIIIIIII",
"IIIIIIIIIIIIIIIIIIIIIIIIIIIIIIIIIIIIIIIIIIIIIIIIIIIIIIIIIIIIIIIIIIIIIIIIIIIIIIII",
"IIIIIIIIIIIIIIIIIIIIIIIIIIIIIIIIIIIIIIIIIIIIIIIIIIIIIIIIIIIIIIIIIIIIIIIIIIIIIIII",
"IIIIIIIIIIIIIIIIIIIIIIIIIIIIIIIIIIIIIIIIIIIIIIIIIIIIIIIIIIIIIIIIIIIIIIIIIIIIIIII",
"IIIIIIIIIIIIIIIIIIIIIIIIIIIIIIIIIIIIIIIIIIIIIIIIIIIIIIIIIIIIIIIIIIIIIIIIIIIIIIII",
"IIIIIIIIIIIIIIIIIIIIIIIIIIIIIIIIIIIIIIIIIIIIIIIIIIIIIIIIIIIIIIIIIIIIIIIIIIIIIIII",
"IIIIIIIIIIIIIIIIIIIIIIIIIIIIIIIIIIIIIIIIIIIIIIIIIIIIIIIIIIIIIIIIIIIIIIIIIIIIIIII"
};
