/* XPM */
static char *xpm_[] = {
/* columns rows colors chars-per-pixel */
"80 80 84 1 ",
"  c #3C487E",
". c #6D695E",
"X c #746D5A",
"o c #7D7454",
"O c #575A6D",
"+ c #434D79",
"@ c #4B5274",
"# c #545871",
"$ c #5F6067",
"% c #676562",
"& c #1631AA",
"* c #907E3E",
"= c #8B7C4B",
"- c #817652",
"; c #97853F",
": c #B89B2E",
"> c #A48D3B",
", c #AA9239",
"< c #B39831",
"1 c #CFAA1F",
"2 c #D1AB1E",
"3 c #DAB218",
"4 c #E9BC0E",
"5 c #E3B812",
"6 c #C9A623",
"7 c #F8C804",
"8 c #FFD900",
"9 c #FFE500",
"0 c #988542",
"q c #00169D",
"w c #0525A4",
"e c #132D97",
"r c #1C3292",
"t c #283B8A",
"y c #000CAB",
"u c #001AA7",
"i c #000DB6",
"p c #0015B2",
"a c #0021A3",
"s c #112DAB",
"d c #1834AC",
"f c #0424B3",
"g c #1D34B0",
"h c #2138AF",
"j c #263BB3",
"k c #354382",
"l c #2C419C",
"z c #2A46B4",
"x c #3748B9",
"c c #3E52B9",
"v c #475490",
"b c #434EBD",
"n c #4655BC",
"m c #5164BE",
"M c #243FC1",
"N c #304DC7",
"B c #4C55C1",
"V c #565CC4",
"C c #4C68C1",
"Z c #5863C4",
"A c #5F72C3",
"S c #6769CB",
"D c #6A77C9",
"F c #727BCD",
"G c #7A79D2",
"H c #6A81CB",
"J c #7484C9",
"K c #7D87D0",
"L c #8188CE",
"P c #8987D7",
"I c #928FDA",
"U c #8A96D6",
"Y c #9797DB",
"T c #A29CDF",
"R c #99A7DB",
"E c #A2A5DD",
"W c #A8A6E1",
"Q c #BBB8E7",
"! c #CDC7EE",
"~ c #D2CBEE",
"^ c #D4CDF1",
"/ c #DDD4F4",
"( c #E1D7F5",
") c None",
/* pixels */
"))))))))))))))))))))))))))))))))))))))))))))))))))))))))))))))))))))))))))))))))",
"))))))))))))))))))))))))))))))))))))))))))))))))))))))))))))))))))))))))))))))))",
"))))))))))))))))))))))))))))))))))))))))))))))))))))))))))))))))))))))))))))))))",
"))))))))))))))))))))))))))))))))))))))))))))))))))))))))))))))))))))))))))))))))",
"))))))))))))))))))))))))))))))))))))))))))))))))))))))))))))))))))))))))))))))))",
"))))))))))))))))))))))))))))))))))))))))))))))))))))))))))))))))))))))))))))))))",
"))))))))))))))))))))))))))))))))))))))))))))))))))))))))))))))))))))))))))))))))",
"))))))))))))))))))))))))))))))))))))))))))))))))))))))))))))))))))))))))))))))))",
"))))))))))))))))))))))))))))))))))))))))))))))))))))))))))))))))))))))))))))))))",
"))))))))))))))))))))))))))))))))))))))))))))))))))))))))))))))))))))))))))))))))",
"))))))))))))))))))))))))))))))))))))))))))))))))))))))))))))))))))))))))))))))))",
"))))&wwwwwwwwwwwwwwwwwwwwwwwwwwwwwwwwwwwwwwwwwwwwwwwwwwwwwwwwwwwwwwwwwwwwww&))))",
")))&aaauaaaaaaauwuaaaaaaaaaaauwaaauaaaaaaauaaaawaaauuwaaaaaaaaauaaaaaaaaaaaa&)))",
")))waaawaaaaaaaaaaaaaaaaaaaaaaaaaaaaaaaaaaaaaaaaaaaaaaaaaaaaaaaaawaaaaaaaaaaw)))",
")))wwaaaaaaaaaaaaaaaaaaaaaaaaaaaaaaaaaaaaaaaaaaaaaaaaaaaaaaaaaaaauaaaauwaaaaw)))",
")))wuaaaaaaaaaaaaaaaaaaauaaaaaaaaaaaaaaaaaaaaaaaaaaaaaaaaaaaaaaaaaaaaaaaaaaaw)))",
")))waaaaaaaaaaaaaaaaaaaaaaaaaaaaaaaaaaaaaaaaaaaaaaaaaaaaaaaaaaaaaaaaaaaaaaauw)))",
")))waaaaaaaaaaaaaaauaaaaaaaaaaaaaaaaaaaaaaaaaaaaaaaaaaaaaaaaaaaaaaaaaaaaaaaaw)))",
")))waaaaaaawaaaaaaaaaaaaaaaaaaaaaaaaaaaaaaaaaaaaaaaaaaaaaaaaaaaaaaaaaaaaaaaaw)))",
")))waaaaaaauaaaaaaaaaaaaaaaaaaaaaaaaaaaaaaaaaaaaaaaawuaaaaaaaaaaaaaaaaaaaaaaw)))",
")))wuaaaaaaaaaaaaaaaaaaaaaauaaaaaaaauaaaaaaaaaaaaaaaaaaaaaaauaaaaauaaaaaaaaaw)))",
")))wwaaaaaaaaaaaaaaaaaaaaaaaaaaaaaaaaaaaaaaaaauaaaaaaaaaaaaaaaaaaawaaaaaaaaaw)))",
")))waaaaaaaaaaaaaaaaaaaaaaaaaaaaaaaaaaaaaaaaaaaaaaaaaaaaaaaaaaaaaaaaaaaaaaaaw)))",
")))waaaaaaaaaaaaaaaaaaaaaaaaaaaaaaaaaaaaaaaaaaaaaaaaaaaaaaaaaaaaaaaaaaaaaawuw)))",
")))wawaaaaaaaaaaaaaaaaaaaaaaaaaaaaaaaaaaaaaaaaaaaaaaaaaaaaaaaaaaaaaaaaaaaawaw)))",
")))wuaaaaaaaaaaaaaaaaaaaaaaaaaaaaaaaaaaaaaaaaaaaaaaaaaaaaaaaaaaaaaaaaaaaaaaaw)))",
")))waaaaaaaaaaaaaaauuaaaaaaaaaaaauwaaaaaaaaaaaaaaaaaaaaaaaaawuaaaaaaaaaaaaauw)))",
")))waaaaaaaaaaaaaaawaaaaaaaaawuaaaaaaaaaaaaaaaaaaaaaaaaaaaaaaaaaaaaaaaaaaaaaw)))",
")))waaaaaaaaaaaaaaaaaaaaaaaaaaaaaaaaaaaaaaaaaaaaaaaaaaaaaaaaaaaaaaauaaaaaaaaw)))",
")))wuaaaaaaaauaaaaaaaaaaaaaaaaaaaaaaaaaaaaaaaaaaaaaaaaaaaaaaaaaaaaaaaaaaaaaaw)))",
")))waaaaaaaaaaaaaaaaaaaaaaaaaaaaaaauaaaaaaaaaaaaaaaaaaaaaawaaaaaaaaaaaaaaaauw)))",
")))wawaaaaaaaaaaaaaaaaaaaaaaaaaaaaaaaaaaaaauaaaaaaaaaaaaaauaaaaaaaaaaaaaaawaw)))",
")))waaaaaaaaaaaaaaaaaaaaaaaaaaaaaaaaaaaaaaaaaaaaaqaauqqqaauaaaafaaaaaaaaaaaaw)))",
")))waaaaaaaaaaawaawqqaawaaawaaaaaaawauuwqqwqaauaassdggjjjjhggsssaaaaaaaaaaaaw)))",
")))waaaaaaaaaaadzzzzdaqqqqppaqqqqqqquasdjxxnmVVZSZVVBbNBjjjgsssaaaaaaaaaaaaaw)))",
")))waaaaaaaaaaadzmHURRRUAx$0lznZFKUYETEETYIIPGGSSVVnbbxjjjjjdssasaaaaaaaaaaaw)))",
")))waaaaaaaaaaadcCHKRREUJN,9vzCDFLUUYYYYYIIPPGGDSVVBnbxxjjhgdsfaaaaaaaaaaaaaw)))",
")))waaaaaaaaaasdzzzhssqqqy08tyqqqqqqqqwssggjjxxbnbnnbbxzxjjhdssfaaaaaaaaaaaaw)))",
")))waaaaaaaaaauqwawaaaaaap08tusauaaaaaauawququuuyuuausssssspffasaaaaaaaaaaaaw)))",
")))waaaaaaaaaqcKdaaaaaaawp08tuwaaaaaawaaaaaaawuk,+uuuqqwqur;Ouwwaaaaaaaaaaaaw)))",
")))waaaaaaaaaqF(zqaaaaaawp;8tuaaaaaaaaaaaaaaawu#9Xpaaaaawut9,pwaswuaaaaaaawaw)))",
")))waaaaaaaaaqD~gqaqaawuqp08tpuuuuauuuauuuuuupuwreapuuuuapt80iuuuuaaaaaaaaaaw)))",
")))waaaaaaaasqF~EKnEcqucEM*82666:rt1:3k 66226,ak3++561661ot846666%uaaaaaaaauw)))",
")))waaaaaaaaaqD~QEz/YqwY~f;845479%t877 ,953579++9%+755579,r7754484aaaaaaaaaaw)))",
")))waaaaaaaaaqD^zaqU!dd~Ly;8tup#9%r9=pu<7kre-8@ 9.pauu,86wt80pwu34aaaaaaaaaaw)))",
")))waaaaaaaaaqF^jqqn/mC/xy>8tau#9%t8=pu<888889# 9%paw69<wpt80pwu34waaaaaaaaaw)))",
")))waaaaaaaaaqD^zqasQWWWap08rpi 9%t9=uu<7=--o=t+9.pt38Xippt80uaa34aaaaaaaaauw)))",
")))waaaaaaaaaqD~zqauJ~~Dqp08o%$08.r8=up:8%@#@Ow@8%r786O%. t80paa34aaaaaaaawaw)))",
")))wawaaaaaaaqF(jqaqz~!gwp>888888@t90pp0889999O 9$$978989:r9>pwa47aaaaaaaaaaw)))",
")))wuaaaaaaaaugcswaaaxzaaat@v+ @kue#taawk+++ @ee#re++@++@tw#tuaak+aaaaaauaaaw)))",
")))waaaaaaaaaawquaaaawqaaaupuupupaapuaaaupuuupaupaapuupupaapuaaauuaaaaaaaaaaw)))",
")))waaaaaaaaaaaaaaaaaaaaaaawwawawaaaaaaaaaaaawaaaaaaaawaaaaaaaaaaaaaaaaaaaaaw)))",
")))waaaaaaaaaaaaaaaaaaaaaaaaaaaaaaaaaaaaaaaaaaaaaaaaaaaaaaaaaaaaaaawaaaaaaaaw)))",
")))wuaaaaaaaaaaaaaaaaaaaaaaaaaaaaaaaaaaaaaaaaauwaaaaaaaaaaaaaaaaaaauaaaaaaauw)))",
")))waaaaaaaaaaaaaaaaaaaaaaaaaaaaaaaaaaaaaaaaaaaaaaaaaaaaaaaaaaaaaaaaaaaaaaaaw)))",
")))wawaaaaaaaaaaaaaaaaaaaaaaaaaaaaaaaaaaaaaaaaaaaaaaaaaaaaaaaaaaaaaaaaaaaaaaw)))",
")))wuaaaaaaaaaaaaaaaaauwaaaaaawuaaaaaaaaaaaaaaaaaaaaaaaaaaaaaaaaaaaaaaaaaawaw)))",
")))wwaaaaaaaaaaaaaaaaaaaaaaaaaaaaaaaaaaaaaaaaaaaaaaaaaaaaaaaaaauaaaaaaaaaaaaw)))",
")))waaaaaaaaaaaaaaaaaaaaaaaaaaaaaaaaaauaaaaaaaaaaaaaaaauaaaaaaaaaaauaaaaaaauw)))",
")))waaaaaaaaaaaaaaaaaaaaaaaaaaaaaaaaaaaaaaaaaaaaaaaaaaaaaaaaaaaaaaaaaaaaaaaaw)))",
")))waaaaaauaaaaaaaaaaaaaaaaaaaaaaaaaaaaaaaaaaaaaaaaaaaaaaaaaaaaaaaaaaaaaaaaaw)))",
")))waaaaaaaaaaaaaaaaaaaaaaaaaaaaaaaaaaaaaaaaaaaaaaaaaaaaaaaaaaaaaaaaaaaaaaaaw)))",
")))waaaaaaaaaaaaaaaaaaaaaaaaaaaaaaaaaaaaaaaaaaaaaaaaaaaaaaaaaaaaaaaaaaaaaaauw)))",
")))waaaaaaaaaaaaaaaaaauaaaaaaaaaaaaaaaaaaaauaaaaaaaaaaaaaaaaaaaaaaaaaaaaaawaw)))",
")))waaaaaaaaaaaaaaaaaaaaaaaaaaaaaaaaaaaaaaaaaaaaaaaaaaaaaaaaaaaaaaaaaaaaaaaaw)))",
")))waaaaaaaaaaaaaaaaaaaaaaaaaaaauaaaaaaaaaaaaaaaaaaaaaaaauaaaaaaaaaaaaaaaaaaw)))",
")))wuaaaaaaaaaaauaaaaaaaaaaaaaaaaaaaaaaaaaaaaaaaaaaaaaaaaaaaaaaaaaaaaaaaaaaaw)))",
")))wwaaaaaaaaaaaaaaaaaaaaaaaaaaaaaaaaaaaaaaaaaaaaaaaaaaaaaaaaaaaaaaawaaaaaaaw)))",
")))&aaaaaaaauaaaawaaauaauaaauaawaaaaaaaaawaauaaauaaauaawaaaaaaaauaaauaaaaaaa&)))",
"))))&wwwwwwwwwwwwwwwwwwwwwwwwwwwwwwwwwwwwwwwwwwwwwwwwwwwwwwwwwwwwwwwwwwwwww&))))",
"))))))))))))))))))))))))))))))))))))))))))))))))))))))))))))))))))))))))))))))))",
"))))))))))))))))))))))))))))))))))))))))))))))))))))))))))))))))))))))))))))))))",
"))))))))))))))))))))))))))))))))))))))))))))))))))))))))))))))))))))))))))))))))",
"))))))))))))))))))))))))))))))))))))))))))))))))))))))))))))))))))))))))))))))))",
"))))))))))))))))))))))))))))))))))))))))))))))))))))))))))))))))))))))))))))))))",
"))))))))))))))))))))))))))))))))))))))))))))))))))))))))))))))))))))))))))))))))",
"))))))))))))))))))))))))))))))))))))))))))))))))))))))))))))))))))))))))))))))))",
"))))))))))))))))))))))))))))))))))))))))))))))))))))))))))))))))))))))))))))))))",
"))))))))))))))))))))))))))))))))))))))))))))))))))))))))))))))))))))))))))))))))",
"))))))))))))))))))))))))))))))))))))))))))))))))))))))))))))))))))))))))))))))))"
};
