/* XPM */
static char *xpm_[] = {
/* columns rows colors chars-per-pixel */
"80 80 21 1 ",
"  c #231F20",
". c #231F20",
"X c #231F20",
"o c #231F20",
"O c #231F20",
"+ c #231F20",
"@ c #231F20",
"# c #231F20",
"$ c #231F20",
"% c #231F20",
"& c #231F20",
"* c #231F20",
"= c #231F20",
"- c #231F20",
"; c #231F20",
": c #231F20",
"> c #231F20",
", c #231F20",
"< c #231F20",
"1 c #231F20",
"2 c None",
/* pixels */
"22222222222222222222222222222222222222222222222222222222222222222222222222222222",
"22222222222222222222222222222222222222222222222222222222222222222222222222222222",
"22222222222222222222222222222222222222222222222222222222222222222222222222222222",
"22222222222222222222222222222222222222222222222222222222222222222222222222222222",
"22222222222222222222222222222222222222222222222222222222222222222222222222222222",
"22222222222222222222222222222222222222222222222222222222222222222222222222222222",
"22222222222222222222222222222222222222222222222222222222222222222222222222222222",
"22222222222222222222222222222222222222222222222222222222222222222222222222222222",
"22222222222222222222222222222222222222222222222222222222222222222222222222222222",
"22222222222222222222222222222222222222222222222222222222222222222222222222222222",
"22222222222222222222222222222222222222222222222222222222222222222222222222222222",
"22222222222222222222222222222222222222222222222222222222222222222222222222222222",
"22222222222222222222222222222222222222222222222222222222222222222222222222222222",
"22222222222222222222222222222222222222222222222222222222222222222222222222222222",
"22222222222222222222222222222222222222222222222222222222222222222222222222222222",
"22222222222222222222222222222222222222222222222222222222222222222222222222222222",
"22222222222222222222222222222222222222222222222222222222222222222222222222222222",
"22222222222222222222222222222222222222222222222222222222222222222222222222222222",
"2222222222222222222222222222222222>% oooo.%>222222222222222222222222222222222222",
"22222222222222222222222222222222;oooooooooooo%2222222222222222222222222222222222",
"222222222222222222222222222222>.ooooooooooooooo>22222222222222222222222222222222",
"22222222222222222222222222222%oooooooooooooooooo%2222222222222222222222222222222",
"2222222222222222222222222222#ooooooX#;;>>%+oooooo#222222222222222222222222222222",
"222222222222222222222222222%oooooO>22222222>Oooooo%22222222222222222222222222222",
"22222222222222222222222222;ooooo%22221o.X#222%ooooo>2222222222222222222222222222",
"22222222222222222222222222Xoooo>2222;ooooo>222>ooooX<222222222222222222222222222",
"2222222222222222222222222;oooo%22< ooooooo>2222%oooo%222222222222222222222222222",
"2222222222222222222222222XoooX222#oooooooo>22222+oooo222222222222222222222222222",
"222222222222222222222222>oooo>222$oooooooo>22222>oooo>22222222222222222222222222",
"222222222222222222222222%ooo+2222>oooooooo<222222+ooo#22222222222222222222222222",
"222222222222222222222222+ooo%222222>oo. oo>222222%ooo+22222222222222222222222222",
"222222222222222222222222Xooo;2222221;;%>>#>222222>oooX22222222222222222222222222",
"222222222222222222222221oooo>2222221o2@;2;>222222>oooo22222222222222222222222222",
"222222222222222222222221oooo>222222<o;o@+@>212222>oooo22222222222222222222222222",
"222222222222222222222222oooo>222222<oooooo<222222>oooo12222222222222222222222222",
"222222222222222222222222@ooo$22222<%oooooo#222222&oooo22222222222222222222222222",
"222222222222222222222222%oooX2222Ooooooooooo+2222.ooo$22222222222222222222222222",
"222222222222222222222222>oooo1221oooooooooooo1221oooo>22222222222222222222222222",
"2222222222222222222222222oooo+22>oooooooooooo222#oooo122222222222222222222222222",
"2222222222222222222222222%oooo>21oooooooooooo22>oooo@222222222222222222222222222",
"22222222222222222222222221ooooo12%#$$$#$$$$#>2<ooooo1222222222222222222222222222",
"22222222222222222222222222;ooooo>222222222222>ooooo;2222222222222222222222222222",
"222222222222222222222222222 ooooo$122222222<$oooooo22222222222222222222222222222",
"2222222222222222222222222222ooooooo+;112>>$ooooooo122222222222222222222222222222",
"22222222222222222222222222222.oooooooooooooooooo+2222222222222222222222222222222",
"222222222222222222222222222222$oooooooooooooooo$22222222222211222222222222222222",
"2222222222222222@oo%22222222222<@oooooooooooo 122222222222%oooO22222222222222222",
"222222222222222>oooo:2222222222221%XooooooO;1222222222222<ooooo12222222222222222",
"222222222222222%oooo>21222222222222211><<12222222222222221ooooO22222222222>%%222",
"222222222222222%oooo;22222222222222222222222222222222222222<>12222222222222<<222",
"2222221;O+@;<22%oooo%2222<%@+$;1222222>$.@%>22222>@OO$>2221;$>222222;# +@;222222",
"22222;ooooooo%2%oooo;221.ooooooo>2221ooooooo.222ooooooo+22oooo$222>Xooooooo<2222",
"2222%ooooooooo2;oooo;22$ooooooooo122Ooooooooo;2ooooooooo;1ooooo22<ooooooooo%2222",
"2221ooooo>oooo2%oooo%22+ooo>>oooo;21ooooo>>oo>1ooooo>>oo<2oooo 22Xoooo;#ooo>2222",
"222@oooo:2>oo;2%oooo;22<@.;2;oooo$21ooooo%22122ooooo%22221ooooO2>ooooO22#O%22222",
"222ooooo>222222;oooo%2221%+oooooo$22;oooooo@222%oooooo@22>ooooO2%oooo%2222222222",
"222ooooo1222222%oooo:22$oooo+oooo%222:ooooooX222>ooooooo21ooooX2%oooo%2222222222",
"222ooooo>222122%oooo;2>oooo22oooo%22112:ooooo;2122>ooooo%1ooooO2%oooo#2222<22222",
"222Oooooo<<$o 2&ooooX2>oooo&Oooooo<1oo*2%oooo$1oo;2%oooo$<ooooo2>ooooo%>%Xo>2222",
"2221oooooooooo2&oooooO>oooooooooooo>ooooooooo>>ooooooooo>1oooooo<#ooooooooo;2222",
"2222>oooooooo:2<ooooo%2Ooooo+%oooo:2 ooooooo#22@ooooooo%22#ooooo<2@ooooooo#22222",
"22222>+oooo 12221+X%>222& X>22%+%<222> ooo#>2222:XoooO>2222>$#%1222%++XX#>222222",
"22222222222222222222222222222222222222222222222222222222222222222222222222222222",
"22222222222222222222222222222222222222222222222222222222222222222222222222222222",
"22222222222222222222222222222222222222222222222222222222222222222222222222222222",
"22222222222222222222222222222222222222222222222222222222222222222222222222222222",
"22222222222222222222222222222222222222222222222222222222222222222222222222222222",
"22222222222222222222222222222222222222222222222222222222222222222222222222222222",
"22222222222222222222222222222222222222222222222222222222222222222222222222222222",
"22222222222222222222222222222222222222222222222222222222222222222222222222222222",
"22222222222222222222222222222222222222222222222222222222222222222222222222222222",
"22222222222222222222222222222222222222222222222222222222222222222222222222222222",
"22222222222222222222222222222222222222222222222222222222222222222222222222222222",
"22222222222222222222222222222222222222222222222222222222222222222222222222222222",
"22222222222222222222222222222222222222222222222222222222222222222222222222222222",
"22222222222222222222222222222222222222222222222222222222222222222222222222222222",
"22222222222222222222222222222222222222222222222222222222222222222222222222222222",
"22222222222222222222222222222222222222222222222222222222222222222222222222222222",
"22222222222222222222222222222222222222222222222222222222222222222222222222222222",
"22222222222222222222222222222222222222222222222222222222222222222222222222222222"
};
