/* XPM */
static char *xpm_[] = {
/* columns rows colors chars-per-pixel */
"80 80 189 2 ",
"   c #010101",
".  c #150C0C",
"X  c #191616",
"o  c #241A1A",
"O  c #2B2020",
"+  c #272424",
"@  c #342B2B",
"#  c #393838",
"$  c #6B0101",
"%  c #7C0101",
"&  c #422E2F",
"*  c #483A3A",
"=  c #474646",
"-  c #585757",
";  c #6C5858",
":  c #78595B",
">  c #726162",
",  c #6E4B4C",
"<  c #696566",
"1  c #7C6869",
"2  c #797676",
"3  c #846D6E",
"4  c #848282",
"5  c #928C8C",
"6  c #989495",
"7  c #736E6F",
"8  c #7A7778",
"9  c #8A8989",
"0  c #8A8484",
"q  c #A09292",
"w  c #ACA4A4",
"e  c #B8B6B7",
"r  c #969595",
"t  c #CF9A9A",
"y  c #ACA9A9",
"u  c #CFCECE",
"i  c #CACACA",
"p  c #E1E1E1",
"a  c #890303",
"s  c #960000",
"d  c #80100D",
"f  c #861F1B",
"g  c #A80101",
"h  c #B70405",
"j  c #A91816",
"k  c #BA1613",
"l  c #9E241E",
"z  c #932624",
"x  c #873731",
"c  c #BB2D28",
"v  c #A93538",
"b  c #C90606",
"n  c #D70103",
"m  c #C51314",
"M  c #E80102",
"N  c #E91010",
"B  c #C3201E",
"V  c #DD322F",
"C  c #C13A3F",
"Z  c #DB3434",
"A  c #C52829",
"S  c #E33C39",
"D  c #F43A37",
"F  c #815C5D",
"G  c #BE5046",
"H  c #B65951",
"J  c #896B6C",
"K  c #876E70",
"L  c #897A7B",
"P  c #977A7B",
"I  c #8B7475",
"U  c #8E7A7B",
"Y  c #A08282",
"T  c #999899",
"R  c #C84A47",
"E  c #CD4E52",
"W  c #C85F5C",
"Q  c #D55E5E",
"!  c #F14847",
"~  c #F54B4E",
"^  c #FF5355",
"/  c #C76666",
"(  c #D86966",
")  c #CF7163",
"_  c #C87072",
"`  c #DF7E79",
"'  c #D9706F",
"]  c #E86766",
"[  c #F97575",
"{  c #C69293",
"}  c #DEBBBB",
"|  c #D17D7E",
" . c #E9C0C0",
".. c #8E8080",
"X. c #9E8384",
"o. c #9C8A8B",
"O. c #888586",
"+. c #97898A",
"@. c #9A9797",
"#. c #959394",
"$. c #A6A2A3",
"%. c #A69899",
"&. c #A68A8B",
"*. c #AA9E9E",
"=. c #BF9B9B",
"-. c #ACA9A9",
";. c #BAADAE",
":. c #B9B7B7",
">. c #B5B3B4",
",. c #CBCBCB",
"<. c #A9A7A7",
"1. c #B5B5B6",
"2. c #AD9F9F",
"3. c #F4B1B1",
"4. c #D9D7D7",
"5. c #DAD9D9",
"6. c #C38484",
"7. c #D78486",
"8. c #E68C8F",
"9. c #ED8F92",
"0. c #F09295",
"q. c #F69C98",
"w. c #FF8B8A",
"e. c #E1AC9F",
"r. c #C7ADAD",
"t. c #C4BABB",
"y. c #DACFCF",
"u. c #EEA0A3",
"i. c #FBB8B8",
"p. c #FDA4A6",
"a. c #FDC2BC",
"s. c #C0BFC0",
"d. c #E4F8F8",
"f. c #CAC8C8",
"g. c #D3CFCF",
"h. c #CBD4D4",
"j. c #D8D8D8",
"k. c #DADADA",
"l. c #E4E9E9",
"z. c #DEEDED",
"x. c #FFC9C9",
"c. c #F0D4CD",
"v. c #FECFD0",
"b. c #E6E0E0",
"n. c #DCE7E7",
"m. c #E9E6E7",
"M. c #FAEDED",
"N. c #FBFBFB",
"B. c #E2E2E2",
"V. c #AFAFAF",
"C. c #DADADA",
"Z. c #E2E3E3",
"A. c #E5E5E5",
"S. c #E7E7E7",
"D. c #EBEFEF",
"F. c #EBEBEB",
"G. c #F1F0F0",
"H. c #665353",
"J. c #766B6B",
"K. c #ABACAC",
"L. c #DADADA",
"P. c #949393",
"I. c #C86364",
"U. c #F5E5E5",
"Y. c #A7A5A5",
"T. c #B7B7B8",
"R. c #B3B1B2",
"E. c #E3E5E5",
"W. c #A8A0A1",
"Q. c #EBEBEB",
"!. c #F2F4F4",
"~. c #F8F9F8",
"^. c #D6D4D5",
"/. c #F7FFFF",
"(. c #F5F5F5",
"). c #F6F3F3",
"_. c #C46766",
"`. c #757374",
"'. c #9D9A9B",
"]. c #888788",
"[. c #C4C3C4",
"{. c #F7F7F7",
"}. c #FCFBFB",
"|. c #6E6868",
" X c #D0FFFF",
".X c #E8E8E8",
"XX c None",
"oX c #AB6665",
"OX c #ED6E6F",
/* pixels */
"XXXXXXXXXXXXXXXXXXXXXXXXXXXXXXXXXXXXXXXXXXXXXXXXXXXXXXXXXXXXXXXXXXXXXXXXXXXXXXXXXXXXXXXXXXXXXXXXXXXXXXXXXXXXXXXXXXXXXXXXXXXXXXXXXXXXXXXXXXXXXXXXXXXXXXXXXXXXXXXX",
"XXXXXXXXXXXXXXXXXXXXXXXXXXXXXXXXXXXXXXXXXXXXXXXXXXXXXXXXXXXXXXXXXXXXXXXXXXXXXXXXXXXXXXXXXXXXXXXXXXXXXXXXXXXXXXXXXXXXXXXXXXXXXXXXXXXXXXXXXXXXXXXXXXXXXXXXXXXXXXXX",
"XXXXXXXXXXXXXXXXXXXXXXXXXXXXXXXXXXXXXXXXXXXXXXXXXXXXXXXXXXXXXXXXXXXXXXXXXXXXXXXXXXXXXXXXXXXXXXXXXXXXXXXXXXXXXXXXXXXXXXXXXXXXXXXXXXXXXXXXXXXXXXXXXXXXXXXXXXXXXXXX",
"XXXXXXXXXXXXXXXXXXXXXXXXXXXXXXXXXXXXXXXXXXXXXXXXXXXXXXXXXXXXXXXXXXXXXXXXXXXXXXXXXXXXXXXXXXXXXXXXXXXXXXXXXXXXXXXXXXXXXXXXXXXXXXXXXXXXXXXXXXXXXXXXXXXXXXXXXXXXXXXX",
"XXXXXXXXXXXXXXXXXXXXXXXXXXXXXXXXXXXXXXXXXXXXXXXXXXXXXXXXXXXXXXXXXXXXXXXXXXXXXXXXXXXXXXXXXXXXXXXXXXXXXXXXXXXXXXXXXXXXXXXXXXXXXXXXXXXXXXXXXXXXXXXXXXXXXXXXXXXXXXXX",
"XXXXXXXXXXXXXXXXXXXXXXXXXXXXXXXXXXXXXXXXXXXXXXXXXXXXXXXXXXXXXXXXXXXXXXXXXXXXXXXXXXXXXXXXXXXXXXXXXXXXXXXXXXXXXXXXXXXXXXXXXXXXXXXXXXXXXXXXXXXXXXXXXXXXXXXXXXXXXXXX",
"XXXXXXXXXXXXXXXXXXXXXXXXXXXXXXXXXXXXXXXXXXXXXXXXXXXXXXXXXXXXXXXXXXXXXXXXXXXXXXXXXXXXXXXXXXXXXXXXXXXXXXXXXXXXXXXXXXXXXXXXXXXXXXXXXXXXXXXXXXXXXXXXXXXXXXXXXXXXXXXX",
"XXXXXXXXXXXXXXXXXXXXXXXXXXXXXXXXXXXXXXXXXXXXXXXXXXXXXXXXXXXXXXXXXXXXXXXXXXXXXXXXXXXXXXXXXXXXXXXXXXXXXXXXXXXXXXXXXXXXXXXXXXXXXXXXXXXXXXXXXXXXXXXXXXXXXXXXXXXXXXXX",
"XXXXXXXXXXXXXXXXXXXXXXXXXXXXXXXXXXXXXXXXXXXXXXXXXXXXXXXXXXXXXXXXXXXXXXXXXXXXXXXXXXXXXXXXXXXXXXXXXXXXXXXXXXXXXXXXXXXXXXXXXXXXXXXXXXXXXXXXXXXXXXXXXXXXXXXXXXXXXXXX",
"XXXXXXXXXXXXXXXXXXXXXXXXXXXXXXXXXXXXXXXXXXXXXXXXXXXXXXXXXXXXXXXXXXXXXXXXXXXXXXXXXXXXXXXXXXXXXXXXXXXXXXXXXXXXXXXXXXXXXXXXXXXXXXXXXXXXXXXXXXXXXXXXXXXXXXXXXXXXXXXX",
"XXXXXXXXXXXXXXXXXXXXXXXXXXXXXXXXXXXXXXXXXXXXXXXXXXXXXXXXXXXXXXXXXXXXXXXXXXXXXXXXXXXXXXXXXXXXXXXXXXXXXXXXXXXXXXXXXXXXXXXXXXXXXXXXXXXXXXXXXXXXXXXXXXXXXXXXXXXXXXXX",
"XXXXXXXXXXXXXXXXXXXXXXXXXXXXXXXXXXXXXXXXXXXXXXXXXXXXXXXXXXXXXXXXXXXXXXXXXXXXXXXXXXXXXXXXXXXXXXXXXXXXXXXXXXXXXXXXXXXXXXXXXXXXXXXXXXXXXXXXXXXXXXXXXXXXXXXXXXXXXXXX",
"XXXXXXXXXXXXXXXXXXXXXXXXXXXXXXXXXXXXXXXXXXXXXXXXXXXXXXXXXXXXXXXXXXXXXXXXXXXXXXXXXXXXXXXXXXXXXXXXXXXXXXXXXXXXXXXXXXXXXXXXXXXXXXXXXXXXXXXXXXXXXXXXXXXXXXXXXXXXXXXX",
"XXXXXXXXXXXXXXXXXXXXXXXXXXXXXXXXXXXXXXXXXXXXXXXXXXXXXXXXXXXXXXXXXXXXXXXXXXXXXXXXXXXXXXXXXXXXXXXXXXXXXXXXXXXXXXXXXXXXXXXXXXXXXXXXXXXXXXXXXXXXXXXXXXXXXXXXXXXXXXXX",
"XXXXXXXXXXXXXXXXXXXXXXXXXXXXXXXXXXXXXXXXXXXXXXXXXXXXXXXXXXXXXXXXXXXXXXXXXXXXXXXXXXXXXXXXXXXXXXXXXXXXXXXXXXXXXXXXXXXXXXXXXXXXXXXXXXXXXXXXXXXXXXXXXXXXXXXXXXXXXXXX",
"XXXXXXXXXXXXXXXXXXXXXXXXXXXXXXXXXXXXXXXXXXXXXXXXXXXXXXXXXXXXXXXXXXXXXXXXXXXXXXXXXXXXXXXXXXXXXXXXXXXXXXXXXXXXXXXXXXXXXXXXXXXXXXXXXXXXXXXXXXXXXXXXXXXXXXXXXXXXXXXX",
"XXXXXXXXXXXXXXXXXXXXXXXXXXXXXXXXXXXXXXXXXXXXXXXXXXXXXXXXXXXXXXXXXXXXXXXXXXXXXXXXXXXXXXXXXXXXXXXXXXXXXXXXXXXXXXXXXXXXXXXXXXXXXXXXXXXXXXXXXXXXXXXXXXXXXXXXXXXXXXXX",
"XXXXXXXXXXXXXXXXXXXXXXXXXXXXXXXXXXXXXXXXXXXXXXXXXXXXXXXXXXXXXXXXXXXXXXXXXXXXXXXXXXXXXXXXXXXXXXXXXXXXXXXXXXXXXXXXXXXXXXXXXXXXXXXXXXXXXXXXXXXXXXXXXXXXXXXXXXXXXXXX",
"XXXXXXXXXXXXXXXXXXXXXXXXXXXXXXXXXXXXXXXXXXXXXXXXXXXXXXXXXXXXXXXXXXXXXXXXXXXXXXXXXXXXXXXXXXXXXXXXXXXXXXXXXXXXXXXXXXXXXXXXXXXXXXXXXXXXXXXXXXXXXXXXXXXXXXXXXXXXXXXX",
"XXXXXXXXXXXXXXXXXXXXXXXXXXXXXXXXXXXXXXXXXXXXXXXXXXXXXXXXXXXXXXXXXXXXXXXXXXXXXXXXXXXXXXXXXXXXXXXXXXXXXXXXXXXXXXXXXXXXXXXXXXXXXXXXXXXXXXXXXXXXXXXXXXXXXXXXXXXXXXXX",
"XXXXXXXXXXXXXXXXXXXXXXXXXXXXXXXXXXXXXXXXXXXXXXXXXXXXXXXXXXXXXXXXXXXXXXXXXXXXXXXXXXXXXXXXXXXXXXXXXXXXXXXXXXXXXXXXXXXXXXXXXXXXXXXXXXXXXXXXXXXXXXXXXXXXXXXXXXXXXXXX",
"XXXXXXXXXXXXXXXXXXXXXXXXXXXXXXXXXXXXXXXXXXXXXXXXXXXXXXXXXXXXXXXXXXXXXXXXXXXXXXXXXXXXXXXXXXXXXXXXXXXXXXXXXXXXXXXXXXXXXXXXXXXXXXXXXXXXXXXXXXXXXXXXXXXXXXXXXXXXXXXX",
"XXXXXXXXXXXXXXXXXXXXXXXXXXXXXXXXXXXXXXXXXXXXXXXXXXXXXXXXXXXXXXXXXXXXXXXXXXXXXXXXXXXXXXXXXXXXXXXXXXXXXXXXXXXXXXXXXXXXXXXXXXXXXXXXXXXXXXXXXXXXXXXXXXXXXXXXXXXXXXXX",
"XXXXXXXXXXXXXXXXXXXXXXXXXXXXXXXXXXXXXXXXXXXXXXXXXXXXXXXXXXXXXXXXXXXXXXXXXXXXXXXXXXXXXXXXXXXXXXXXXXXXXXXXXXXXXXXXXXXXXXXXXXXXXXXXXXXXXXXXXXXXXXXXXXXXXXXXXXXXXXXX",
"XXXXXXXXXXXXXXXXXXXXXXXXXXXXXXXXXXXXXXXXXXXXXXXXXXXXXXXXXXXXXXXXXXXXXXXXXXXXXXXXXXXXXXXXXXXXXXXXXXXXXXXXXXXXXXXXXXXXXXXXXXXXXXXXXXXXXXXXXXXXXXXXXXXXXXXXXXXXXXXX",
"XXXXXXXXXXXXXXXXXXXXXXXXXXXXXXXXXXXXXXXXXXXXXXXXXXXXXXXXXXXXXXXXXXXXXXXXXXXXXXXXXXXXXXXXXXXXXXXXXXXXXXXXXXXXXXXXXXXXXXXXXXXXXXXXXXXXXXXXXXXXXXXXXXXXXXXXXXXXXXXX",
"XXXXXXXXXXXXXXXXXXXXXXXXXXXXXXXXXXXXXXXXXXXXXXXXXXXXXXXXXXXXXXXXXXXXXXXXXXXXXXXXXXXXXXXXXXXXXXXXXXXXXXXXXXXXXXXXXXXXXXXXXXXXXXXXXXXXXXXXXXXXXXXXXXXXXXXXXXXXXXXX",
"XXXXXXXXXXXXXXXXXXXXXXXXXXXXXXXXXXXXXXXXXXXXXXXXXXXXXXXXXXXXXXXXXXXXXXXXXXXXXXXXXXXXXXXXXXXXXXXXXXXXXXXXXXXXXXXXXXXXXXXXXXXXXXXXXXXXXXXXXXXXXXXXXXXXXXXXXXXXXXXX",
"XXXXXX0 < 7 > > > > ; ; , , I ).XXXXXXXXXXXXXXXX).;.>.>.>.>.>.*.:.t.i XXXXXXXXXXXXXXXXXXXXXX X(.*.O.I I I 3 3 3 O.}.XXXX}.R.2.>.#.#.#.O.<.p 2.2 2 I I XXXXXXXXXX",
"XXXXXXJ.F P q . X . . . o . + :.B.V.XXXXXXXXXXXXO.K + @ + @ + < @.,.N.`.XXXXXXXXXXXXXXXXXXXX<.f.2 *.* o o o . + 2 O.XXy m.j.# @ + + + + X X . < f.%.H.XXXXXXXXXX",
"XXXXXXXX0 M.m.o               2 N.j.).XXXXXXXXR.&.@         + 2 $.j.# XXXXXXXXXXXXXXXXXXXXXXXX#.:.2 2 .         = @.>.l.N.-                 @ m.N.~.XXXXXXXXXXXX",
"XXXXXXXX|.N.N.+.              o N.N.5.XXXXXXXX*.I         . y #.j.}.XXXXXXXXXXXXXXXXXXXXXXXXXXXXV.;.2 -           O.d.M.@.                X m.N.y XXXXXXXXXXXXXX",
"XXXXXXXXXXV.N.N.+               @.N.N.].XXXX).&.@         - %.j.}.XXXXXXXXXXXXXXXXXXXXXXXXXXXXXXXXB.t.2 +         + ,.O.                  -.N.D.XXXXXXXXXXXXXXXX",
"XXXXXXXXXXXXm.N.%.              @ N.N.#.XXXX*.I         K.@.s.~.XXXXXXXXXXXX).G.| | O XXXXXXXXXXXX|.B...=           .                   > j.>.XXXXXXXXXXXXXXXXXX",
"XXXXXXXXXXXXR.N.M.#               1.N.j.y R.-.@         >.f.f.XXXXXXXXXXXXO.M.M.c.x.u.6.| XXXXXXXXXX~.s.< .                           * t.;.XXXXXXXXXXXXXXXXXXXX",
"XXXXXXXXXXXXXXk.N.@.              + n.j.g.,.O.        # l.k.~.XXXXXXXXI.] i.x.i.0.8.8.8.8.t XXXXXXXXXXf.$.#                         O *.:.}.XXXXXXXXXXXXXXXXXXXX",
"XXXXXXXXXXXXXXy m.j.#               V.g.>.:.#         - m.j.}.XXXXXXXXR ~ 8.0.[ R R R C v v V.XXXXXXXXV.b.O.                      . P ;.).XXXXXXXXXXXXXXXXXXXXXX",
"XXXXXXXXXXXXXXXX*.m.O.              + >.O.2           < m.S.XXXXXXXXx S [ x.q.R l d h g b j 8.`.XXXXXXV.k.:.X                     F &.R.XXXXXXXXXXXXXXXXXXXXXXXX",
"XXXXXXXXXXXXXXXX).r.r.@               # = X           < m.D.XXXXXXXXH D x.M.! B a a g h b s v V.XXXXXX).j.g.L.                  : +.8 XXXXXXXXXXXXXXXXXXXXXXXXXX",
"XXXXXXXXXXXXXXXXXXO.*.I                               < m.#.XXXXXX'.Q N q.W h b j c R ( ` Z k 5.XXXXXXJ.g.l.-                 . t.M.~.XXXXXXXXXXXXXXXXXXXXXXXXXX",
"XXXXXXXXXXXXXXXXXXJ.t.X.&                             < :.V.XXXXXX{.i.D m g g z R ) e.c.i.V m f.|.XX|.).k.k.-                   @ m.j.H.XXXXXXXXXXXXXXXXXXXXXXXX",
"XXXXXXXXXXXXXXXXXXXXO.K F                             < -.d.XXXXXXP.7.N k g s % d f x H R k A B.}.XXXX}.,.>.=                     = M.f.`.XXXXXXXXXXXXXXXXXXXXXX",
"XXXXXXXXXXXXXXXXXXXX`.O.F &                           e @.B.XXXXXX}.f.M n a $ % % a a l c b 7.C.XXXXXXy D.V.+                       ; b.>.XXXXXXXXXXXXXXXXXXXXXX",
"XXXXXXXXXXXXXXXXXXXXXX- : ; .                         K.,.<.XXXXXXXXA.] M b a s h b h h N m b.y XXXXXX>.#.y .                         < g.< XXXXXXXXXXXXXXXXXXXX",
"XXXXXXXXXXXXXXXXXXXXXXH.q : &                         #.m.).XXXXXXXXJ.N.~ N b g h n h M n =.N.}.XXXX`.N.4 #                             3 ;.8 XXXXXXXXXXXXXXXXXX",
"XXXXXXXXXXXXXXXXXXXXXXXX= > : .                     - g.1.XXXXXXXXXXXXV.l.( m N n ~ q.Q ;.m.}.XXXXXXV.,.< .         + .                   3 +.8 XXXXXXXXXXXXXXXX",
"XXXXXXXXXXXXXXXXXXXXXXXX|.2 I *                   X k.N.).XXXXXXXXXXXXXXG.m.f.6.6.r.f.h.n.).XXXXXX).n.D.-         * < O.=                   F P R.XXXXXXXXXXXXXX",
"XXXXXXXXXXXXXXXXXXXXXXXXXX8 L L .                 4 m.G.XXXXXXXXXXXXXXXXXXP.D.k.l.j.B.G.XXXXXXXXP.g.:.:.+       @ 2 @.s.:.X                 . F O.H.XXXXXXXXXXXX",
"XXXXXXXXXXXXXXXXXXXXXXXXXX`.@.,.>               X j.j.}.XXXXXXXXXXXXXXXXXXXXXX  `.|.XXXXXXXXXX).n.f.j.<       + %.i  Xk.N.>.                  o 3 2 XXXXXXXXXXXX",
"XXXXXXXXXXXXXXXXXXXXXXXXXXXX8 g.f.+             4 m.V.XXXXXXXXXXXXXXXXXXXXXXXXXX  XXXXXXXXXXV.j.j.b.2       O @.;.H.XX}.f.m.u                   o 2 O.XXXXXXXXXX",
"XXXXXXXXXXXXXXXXXXXXXXXXXXXXXXf.N.+.. @ . . . @ m.N.|.XXXXXXXXXXXXXXXXXXXXXXXXXXXXXXXXXXXXM.j.k.f.2 X + + @ *.,.H.XXXXXX`.M.h.< . . . . . . . .   - s.V.XXXXXXXX",
"XXXXXXXXXXXXXXXXXXXXXXXXXXXXXXy b.:.%.t.Y K : 6 G..XXXXXXXXXXXXXXXXXXXXXXXXXXXXXXXXXXXXXXXV.g.n.-.>.;.-.>.*.,.).XXXXXXXXXX|.O.-.&.&.X.%.Y P U U U 1 $.k.y XXXXXX",
"XXXXXXXXXXXXXXXXXXXXXXXXXXXXXXXXXXXXXXXXXXXXXXXXXXXXXXXXXXXXXXXXXXXXXXXXXXXXXXXXXXXXXXXXXXXXXXXXXXXXXXXXXXXXXXXXXXXXXXXXXXXXXXXXXXXXXXXXXXXXXXXXXXXXXXXXXXXXXXXX",
"XXXXXXXXXXXXXXXXXXXXXXXXXXXXXXXXXXXXXXXXXXXXXXXXXXXXXXXXXXXXXXXXXXXXXXXXXXXXXXXXXXXXXXXXXXXXXXXXXXXXXXXXXXXXXXXXXXXXXXXXXXXXXXXXXXXXXXXXXXXXXXXXXXXXXXXXXXXXXXXX",
"XXXXXXXXXXXXXXXXXXXXXXXXXXXXXXXXXXXXXXXXXXXXXXXXXXXXXXXXXXXXXXXXXXXXXXXXXXXXXXXXXXXXXXXXXXXXXXXXXXXXXXXXXXXXXXXXXXXXXXXXXXXXXXXXXXXXXXXXXXXXXXXXXXXXXXXXXXXXXXXX",
"XXXXXXXXXXXXXXXXXXXXXXXXXXXXXXXXXXXXXXXXXXXXXXXXXXXXXXXXXXXXXXXXXXXXXXXXXXXXXXXXXXXXXXXXXXXXXXXXXXXXXXXXXXXXXXXXXXXXXXXXXXXXXXXXXXXXXXXXXXXXXXXXXXXXXXXXXXXXXXXX",
"XXXXXXXXXXXXXXXXXXXXXXXXXXXXXXXXXXXXXXXXXXXXXXXXXXXXXXXXXXXXXXXXXXXXXXXXXXXXXXXXXXXXXXXXXXXXXXXXXXXXXXXXXXXXXXXXXXXXXXXXXXXXXXXXXXXXXXXXXXXXXXXXXXXXXXXXXXXXXXXX",
"XXXXXXXXXXXXXXXXXXXXXXXXXXXXXXXXXXXXXXXXXXXXXXXXXXXXXXXXXXXXXXXXXXXXXXXXXXXXXXXXXXXXXXXXXXXXXXXXXXXXXXXXXXXXXXXXXXXXXXXXXXXXXXXXXXXXXXXXXXXXXXXXXXXXXXXXXXXXXXXX",
"XXXXXXXXXXXXXXXXXXXXXXXXXXXXXXXXXXXXXXXXXXXXXXXXXXXXXXXXXXXXXXXXXXXXXXXXXXXXXXXXXXXXXXXXXXXXXXXXXXXXXXXXXXXXXXXXXXXXXXXXXXXXXXXXXXXXXXXXXXXXXXXXXXXXXXXXXXXXXXXX",
"XXXXXXXXXXXXXXXXXXXXXXXXXXXXXXXXXXXXXXXXXXXXXXXXXXXXXXXXXXXXXXXXXXXXXXXXXXXXXXXXXXXXXXXXXXXXXXXXXXXXXXXXXXXXXXXXXXXXXXXXXXXXXXXXXXXXXXXXXXXXXXXXXXXXXXXXXXXXXXXX",
"XXXXXXXXXXXXXXXXXXXXXXXXXXXXXXXXXXXXXXXXXXXXXXXXXXXXXXXXXXXXXXXXXXXXXXXXXXXXXXXXXXXXXXXXXXXXXXXXXXXXXXXXXXXXXXXXXXXXXXXXXXXXXXXXXXXXXXXXXXXXXXXXXXXXXXXXXXXXXXXX",
"XXXXXXXXXXXXXXXXXXXXXXXXXXXXXXXXXXXXXXXXXXXXXXXXXXXXXXXXXXXXXXXXXXXXXXXXXXXXXXXXXXXXXXXXXXXXXXXXXXXXXXXXXXXXXXXXXXXXXXXXXXXXXXXXXXXXXXXXXXXXXXXXXXXXXXXXXXXXXXXX",
"XXXXXXXXXXXXXXXXXXXXXXXXXXXXXXXXXXXXXXXXXXXXXXXXXXXXXXXXXXXXXXXXXXXXXXXXXXXXXXXXXXXXXXXXXXXXXXXXXXXXXXXXXXXXXXXXXXXXXXXXXXXXXXXXXXXXXXXXXXXXXXXXXXXXXXXXXXXXXXXX",
"XXXXXXXXXXXXXXXXXXXXXXXXXXXXXXXXXXXXXXXXXXXXXXXXXXXXXXXXXXXXXXXXXXXXXXXXXXXXXXXXXXXXXXXXXXXXXXXXXXXXXXXXXXXXXXXXXXXXXXXXXXXXXXXXXXXXXXXXXXXXXXXXXXXXXXXXXXXXXXXX",
"XXXXXXXXXXXXXXXXXXXXXXXXXXXXXXXXXXXXXXXXXXXXXXXXXXXXXXXXXXXXXXXXXXXXXXXXXXXXXXXXXXXXXXXXXXXXXXXXXXXXXXXXXXXXXXXXXXXXXXXXXXXXXXXXXXXXXXXXXXXXXXXXXXXXXXXXXXXXXXXX",
"XXXXXXXXXXXXXXXXXXXXXXXXXXXXXXXXXXXXXXXXXXXXXXXXXXXXXXXXXXXXXXXXXXXXXXXXXXXXXXXXXXXXXXXXXXXXXXXXXXXXXXXXXXXXXXXXXXXXXXXXXXXXXXXXXXXXXXXXXXXXXXXXXXXXXXXXXXXXXXXX",
"XXXXXXXXXXXXXXXXXXXXXXXXXXXXXXXXXXXXXXXXXXXXXXXXXXXXXXXXXXXXXXXXXXXXXXXXXXXXXXXXXXXXXXXXXXXXXXXXXXXXXXXXXXXXXXXXXXXXXXXXXXXXXXXXXXXXXXXXXXXXXXXXXXXXXXXXXXXXXXXX",
"XXXXXXXXXXXXXXXXXXXXXXXXXXXXXXXXXXXXXXXXXXXXXXXXXXXXXXXXXXXXXXXXXXXXXXXXXXXXXXXXXXXXXXXXXXXXXXXXXXXXXXXXXXXXXXXXXXXXXXXXXXXXXXXXXXXXXXXXXXXXXXXXXXXXXXXXXXXXXXXX",
"XXXXXXXXXXXXXXXXXXXXXXXXXXXXXXXXXXXXXXXXXXXXXXXXXXXXXXXXXXXXXXXXXXXXXXXXXXXXXXXXXXXXXXXXXXXXXXXXXXXXXXXXXXXXXXXXXXXXXXXXXXXXXXXXXXXXXXXXXXXXXXXXXXXXXXXXXXXXXXXX",
"XXXXXXXXXXXXXXXXXXXXXXXXXXXXXXXXXXXXXXXXXXXXXXXXXXXXXXXXXXXXXXXXXXXXXXXXXXXXXXXXXXXXXXXXXXXXXXXXXXXXXXXXXXXXXXXXXXXXXXXXXXXXXXXXXXXXXXXXXXXXXXXXXXXXXXXXXXXXXXXX",
"XXXXXXXXXXXXXXXXXXXXXXXXXXXXXXXXXXXXXXXXXXXXXXXXXXXXXXXXXXXXXXXXXXXXXXXXXXXXXXXXXXXXXXXXXXXXXXXXXXXXXXXXXXXXXXXXXXXXXXXXXXXXXXXXXXXXXXXXXXXXXXXXXXXXXXXXXXXXXXXX",
"XXXXXXXXXXXXXXXXXXXXXXXXXXXXXXXXXXXXXXXXXXXXXXXXXXXXXXXXXXXXXXXXXXXXXXXXXXXXXXXXXXXXXXXXXXXXXXXXXXXXXXXXXXXXXXXXXXXXXXXXXXXXXXXXXXXXXXXXXXXXXXXXXXXXXXXXXXXXXXXX",
"XXXXXXXXXXXXXXXXXXXXXXXXXXXXXXXXXXXXXXXXXXXXXXXXXXXXXXXXXXXXXXXXXXXXXXXXXXXXXXXXXXXXXXXXXXXXXXXXXXXXXXXXXXXXXXXXXXXXXXXXXXXXXXXXXXXXXXXXXXXXXXXXXXXXXXXXXXXXXXXX",
"XXXXXXXXXXXXXXXXXXXXXXXXXXXXXXXXXXXXXXXXXXXXXXXXXXXXXXXXXXXXXXXXXXXXXXXXXXXXXXXXXXXXXXXXXXXXXXXXXXXXXXXXXXXXXXXXXXXXXXXXXXXXXXXXXXXXXXXXXXXXXXXXXXXXXXXXXXXXXXXX",
"XXXXXXXXXXXXXXXXXXXXXXXXXXXXXXXXXXXXXXXXXXXXXXXXXXXXXXXXXXXXXXXXXXXXXXXXXXXXXXXXXXXXXXXXXXXXXXXXXXXXXXXXXXXXXXXXXXXXXXXXXXXXXXXXXXXXXXXXXXXXXXXXXXXXXXXXXXXXXXXX",
"XXXXXXXXXXXXXXXXXXXXXXXXXXXXXXXXXXXXXXXXXXXXXXXXXXXXXXXXXXXXXXXXXXXXXXXXXXXXXXXXXXXXXXXXXXXXXXXXXXXXXXXXXXXXXXXXXXXXXXXXXXXXXXXXXXXXXXXXXXXXXXXXXXXXXXXXXXXXXXXX",
"XXXXXXXXXXXXXXXXXXXXXXXXXXXXXXXXXXXXXXXXXXXXXXXXXXXXXXXXXXXXXXXXXXXXXXXXXXXXXXXXXXXXXXXXXXXXXXXXXXXXXXXXXXXXXXXXXXXXXXXXXXXXXXXXXXXXXXXXXXXXXXXXXXXXXXXXXXXXXXXX",
"XXXXXXXXXXXXXXXXXXXXXXXXXXXXXXXXXXXXXXXXXXXXXXXXXXXXXXXXXXXXXXXXXXXXXXXXXXXXXXXXXXXXXXXXXXXXXXXXXXXXXXXXXXXXXXXXXXXXXXXXXXXXXXXXXXXXXXXXXXXXXXXXXXXXXXXXXXXXXXXX",
"XXXXXXXXXXXXXXXXXXXXXXXXXXXXXXXXXXXXXXXXXXXXXXXXXXXXXXXXXXXXXXXXXXXXXXXXXXXXXXXXXXXXXXXXXXXXXXXXXXXXXXXXXXXXXXXXXXXXXXXXXXXXXXXXXXXXXXXXXXXXXXXXXXXXXXXXXXXXXXXX",
"XXXXXXXXXXXXXXXXXXXXXXXXXXXXXXXXXXXXXXXXXXXXXXXXXXXXXXXXXXXXXXXXXXXXXXXXXXXXXXXXXXXXXXXXXXXXXXXXXXXXXXXXXXXXXXXXXXXXXXXXXXXXXXXXXXXXXXXXXXXXXXXXXXXXXXXXXXXXXXXX"
};
