/* XPM */
static char *xpm_[] = {
/* columns rows colors chars-per-pixel */
"80 80 231 2 ",
"   c #1C2C45",
".  c #1C2C45",
"X  c #1C2C45",
"o  c #1C2C45",
"O  c #1C2C45",
"+  c #1C2C45",
"@  c #1C2C45",
"#  c #1C2C45",
"$  c #1C2C45",
"%  c #1C2C45",
"&  c #1C2C45",
"*  c #1C2C45",
"=  c #1C2C45",
"-  c #1C2C45",
";  c #1C2C45",
":  c #1C2C45",
">  c #1C2C45",
",  c #1C2C45",
"<  c #1C2C45",
"1  c #1C2C45",
"2  c #1C2C45",
"3  c #1C2C45",
"4  c #1C2C45",
"5  c #1C2C45",
"6  c #1C2C45",
"7  c #1C2C45",
"8  c #1C2C45",
"9  c #1C2C45",
"0  c #1C2C45",
"q  c #1C2C45",
"w  c #1C2C45",
"e  c #1C2C45",
"r  c #1C2C45",
"t  c #1C2C45",
"y  c #1C2C45",
"u  c #1C2C45",
"i  c #1C2C45",
"p  c #1C2C45",
"a  c #1C2C45",
"s  c #1C2C45",
"d  c #1C2C45",
"f  c #1C2C45",
"g  c #1C2C45",
"h  c #1C2C45",
"j  c #1C2C45",
"k  c #1C2C45",
"l  c #1C2C45",
"z  c #1C2C45",
"x  c #1C2C45",
"c  c #1C2C45",
"v  c #1C2C45",
"b  c #1C2C45",
"n  c #1C2C45",
"m  c #1C2C45",
"M  c #1C2C45",
"N  c #1C2C45",
"B  c #1C2C45",
"V  c #1C2C45",
"C  c #1C2C45",
"Z  c #1C2C45",
"A  c #1C2C45",
"S  c #1C2C45",
"D  c #1C2C45",
"F  c #1C2C45",
"G  c #1C2C45",
"H  c #1C2C45",
"J  c #1C2C45",
"K  c #1C2C45",
"L  c #1C2C45",
"P  c #1C2C45",
"I  c #1C2C45",
"U  c #1C2C45",
"Y  c #1C2C45",
"T  c #1C2C45",
"R  c #1C2C45",
"E  c #1C2C45",
"W  c #1C2C45",
"Q  c #1C2C45",
"!  c #1C2C45",
"~  c #1C2C45",
"^  c #1C2C45",
"/  c #1C2C45",
"(  c #1C2C45",
")  c #1C2C45",
"_  c #1C2C45",
"`  c #1C2C45",
"'  c #1C2C45",
"]  c #1C2C45",
"[  c #1C2C45",
"{  c #1C2C45",
"}  c #1C2C45",
"|  c #1C2C45",
" . c #1C2C45",
".. c #1C2C45",
"X. c #1C2C45",
"o. c #1C2C45",
"O. c #1C2C45",
"+. c #1C2C45",
"@. c #1C2C45",
"#. c #1C2C45",
"$. c #1C2C45",
"%. c #1C2C45",
"&. c #1C2C45",
"*. c #1C2C45",
"=. c #1C2C45",
"-. c #1C2C45",
";. c #1C2C45",
":. c #1C2C45",
">. c #1C2C45",
",. c #1C2C45",
"<. c #1C2C45",
"1. c #1C2C45",
"2. c #1C2C45",
"3. c #1C2C45",
"4. c #1C2C45",
"5. c #1C2C45",
"6. c #1C2C45",
"7. c #1C2C45",
"8. c #1C2C45",
"9. c #1C2C45",
"0. c #1C2C45",
"q. c #1C2C45",
"w. c #1C2C45",
"e. c #1C2C45",
"r. c #1C2C45",
"t. c #1C2C45",
"y. c #1C2C45",
"u. c #1C2C45",
"i. c #1C2C45",
"p. c #1C2C45",
"a. c #1C2C45",
"s. c #1C2C45",
"d. c #1C2C45",
"f. c #1C2C45",
"g. c #1C2C45",
"h. c #1C2C45",
"j. c #1C2C45",
"k. c #1C2C45",
"l. c #1C2C45",
"z. c #1C2C45",
"x. c #1C2C45",
"c. c #1C2C45",
"v. c #1C2C45",
"b. c #1C2C45",
"n. c #1C2C45",
"m. c #1C2C45",
"M. c #1C2C45",
"N. c #1C2C45",
"B. c #1C2C45",
"V. c #1C2C45",
"C. c #1C2C45",
"Z. c #1C2C45",
"A. c #1C2C45",
"S. c #1C2C45",
"D. c #1C2C45",
"F. c #1C2C45",
"G. c #1C2C45",
"H. c #1C2C45",
"J. c #1C2C45",
"K. c #1C2C45",
"L. c #1C2C45",
"P. c #1C2C45",
"I. c #1C2C45",
"U. c #1C2C45",
"Y. c #1C2C45",
"T. c #1C2C45",
"R. c #1C2C45",
"E. c #1C2C45",
"W. c #1C2C45",
"Q. c #1C2C45",
"!. c #1C2C45",
"~. c #1C2C45",
"^. c #1C2C45",
"/. c #1C2C45",
"(. c #1C2C45",
"). c #1C2C45",
"_. c #1C2C45",
"`. c #1C2C45",
"'. c #1C2C45",
"]. c #1C2C45",
"[. c #1C2C45",
"{. c #1C2C45",
"}. c #1C2C45",
"|. c #1C2C45",
" X c #1C2C45",
".X c #1C2C45",
"XX c #1C2C45",
"oX c #1C2C45",
"OX c #1C2C45",
"+X c #1C2C45",
"@X c #1C2C45",
"#X c #1C2C45",
"$X c #1C2C45",
"%X c #1C2C45",
"&X c #1C2C45",
"*X c #1C2C45",
"=X c #1C2C45",
"-X c #1C2C45",
";X c #1C2C45",
":X c #1C2C45",
">X c #1C2C45",
",X c #1C2C45",
"<X c #1C2C45",
"1X c #1C2C45",
"2X c #1C2C45",
"3X c #1C2C45",
"4X c #1C2C45",
"5X c #1C2C45",
"6X c #1C2C45",
"7X c #1C2C45",
"8X c #1C2C45",
"9X c #1C2C45",
"0X c #1C2C45",
"qX c #1C2C45",
"wX c #1C2C45",
"eX c #1C2C45",
"rX c #1C2C45",
"tX c #1C2C45",
"yX c #1C2C45",
"uX c #1C2C45",
"iX c #1C2C45",
"pX c #1C2C45",
"aX c #1C2C45",
"sX c #1C2C45",
"dX c #1C2C45",
"fX c #1C2C45",
"gX c #1C2C45",
"hX c #1C2C45",
"jX c #1C2C45",
"kX c #1C2C45",
"lX c None",
/* pixels */
"lXlXlXlXlXlXlXlXlXlXlXlXlXlXlXlXlXlXlXlXlXlXlXlXlXlXlXlXlXlXlXlXlXlXlXlXlXlXlXlXlXlXlXlXlXlXlXlXlXlXlXlXlXlXlXlXlXlXlXlXlXlXlXlXlXlXlXlXlXlXlXlXlXlXlXlXlXlXlXlX",
"lXlXlXlXlXlXlXlXlXlXlXlXlXlXlXlXlXlXlXlXlXlXlXlXlXlXlXlXlXlXlXlXlXlXlXlXlXlXlXlXlXlXlXlXlXlXlXlXlXlXlXlXlXlXlXlXlXlXlXlXlXlXlXlXlXlXlXlXlXlXlXlXlXlXlXlXlXlXlXlX",
"lXlXlXlXlXlXlXlXlXlXlXlXlXlXlXlXlXlXlXlXlXlXlXlXlXlXlXlXlXlXlXlXlXlXlXlXlXlXlXlXlXlXlXlXlXlXlXlXlXlXlXlXlXlXlXlXlXlXlXlXlXlXlXlXlXlXlXlXlXlXlXlXlXlXlXlXlXlXlXlX",
"lXlXlXlXlXlXlXlXlXlXlXlXlXlXlXlXlXlXlXlXlXlXlXlXlXlXlXlXlXlXlXlXlXlXlXlXlXlXlXlXlXlXlXlXlXlXlXlXlXlXlXlXlXlXlXlXlXlXlXlXlXlXlXlXlXlXlXlXlXlXlXlXlXlXlXlXlXlXlXlX",
"lXlXlXlXlXlXlXlXlXlXlXlXlXlXlXlXlXlXlXlXlXlXlXlXlXlXlXlXlXlXlXlXlXlXlXlXlXlXlXlXlXlXlXlXlXlXlXlXlXlXlXlXlXlXlXlXlXlXlXlXlXlXlXlXlXlXlXlXlXlXlXlXlXlXlXlXlXlXlXlX",
"lXlXlXlXlXlXlXlXlXlXlXlXlXlXlXlXlXlXlXlXlXlXlXlXlXlXlXlXlXlXlXlXlXlXlXlXlXlXlXlXlXlXlXlXlXlXlXlXlXlXlXlXlXlXlXlXlXlXlXlXlXlXlXlXlXlXlXlXlXlXlXlXlXlXlXlXlXlXlXlX",
"lXlXlXlXlXlXlXlXlXlXlXlXlXlXlXlXlXlXlXlXlXlXlXlXlXlXlXlXlXlXlXlXlXlXlXlXlXlXlXlXlXlXlXlXlXlXlXlXlXlXlXlXlXlXlXlXlXlXlXlXlXlXlXlXlXlXlXlXlXlXlXlXlXlXlXlXlXlXlXlX",
"lXlXlXlXlXlXlXlXlXlXlXlXlXlXlXlXlXlXlXlXlXlXlXlXlXlXlXlXlXlXlXlXlXlXlXlXlXlXlXlXlXlXlXlXlXlXlXlXlXlXlXlXlXlXlXlXlXlXlXlXlXlXlXlXlXlXlXlXlXlXlXlXlXlXlXlXlXlXlXlX",
"lXlXlXlXlXlXlXlXlXlXlXlXlXlXlXlXlXlXlXlXlXlXlXlXlXlXlXlXlXlXlXlXlXlXlXlXlXlXlXlXlXlXlXlXlXlXlXlXlXlXlXlXlXlXlXlXlXlXlXlXlXlXlXlXlXlXlXlXlXlXlXlXlXlXlXlXlXlXlXlX",
"lXlXlXlXlXlXlXlXlXlXlXlXlXlXlXlXlXlXlXlXlXlXlXlXlXlXlXlXlXlXlXlXlXlXlXlXlXlXlXlXlXlXlXlXlXlXlXlXlXlXlXlXlXlXlXlXlXlXlXlXlXlXlXlXlXlXlXlXlXlXlXlXlXlXlXlXlXlXlXlX",
"lXlXlXlXlXlXlXlXlXlXlXlXlXlXlXlXlXlXlXlXlXlXlXlXlXlXlXlXlXlXlXlXlXlXlXlXlXlXlXlXlXlXlXlXlXlXlXlXlXlXlXlXlXlXlXlXlXlXlXlXlXlXlXlXlXlXlXlXlXlXlXlXlXlXlXlXlXlXlXlX",
"lXlXlXlXlXlXlXlXlXlXlXlXlXlXlXlXlXlXlXlXlXlXlXlXlXlXlXlXlXlXlXlXlXlXlXlXlXlXlXlXlXlXlXlXlXlXlXlXlXlXlXlXlXlXlXlXlXlXlXlXlXlXlXlXlXlXlXlXlXlXlXlXlXlXlXlXlXlXlXlX",
"lXlXlXlXlXlXlXlXlXlXlXlXlXlXlXlXlXlXlXlXlXlXlXlXlXlXlXlXlXlXlXlXlXlXlXlXlXlXlXlXlXlXlXlXlXlXlXlXlXlXlXlXlXlXlXlXlXlXlXlXlXlXlXlXlXlXlXlXlXlXlXlXlXlXlXlXlXlXlXlX",
"lXlXlXlXlXlXlXlXlXlXlXlXlXlXlXlXlXlXlXlXlXlXlXlXlXlXlXlXlXlXlXlXlXlXlXlXlXlXlXlXlXlXlXlXlXlXlXlXlXlXlXlXlXlXlXlXlXlXlXlXlXlXlXlXlXlXlXlXlXlXlXlXlXlXlXlXlXlXlXlX",
"lXlXlXlXlXlXlXlXlXlXlXlXlXlXlXlXlXlXlXlXlXlXlXlXlXlXlXlXlXlXlXlXlXlXlXlXlXlXlXlXlXlXlXlXlXlXlXlXlXlXlXlXlXlXlXlXlXlXlXlXlXlXlXlXlXlXlXlXlXlXlXlXlXlXlXlXlXlXlXlX",
"lXlXlXlXlXlXlXlXlXlXlXlXlXlXlXlXlXlXlXlXlXlXlXlXlXlXlXlXlXlXlXlXlXlXlXlXlXlXlXlXlXlXlXlXlXlXlXlXlXlXlXlXlXlXlXlXlXlXlXlXlXlXlXlXlXlXlXlXlXlXlXlXlXlXlXlXlXlXlXlX",
"lXlXlXlXlXlXlXlXlXlXlXlXlXlXlXlXlXlXlXlXlXlXlXlXlXlXlXlXlXlXlXlXlXlXlXlXlXlXlXlXlXlXlXlXlXlXlXlXlXlXlXlXlXlXlXlXlXlXlXlXlXlXlXlXlXlXlXlXlXlXlXlXlXlXlXlXlXlXlXlX",
"lXlXlXlXlXlXlXlXlXlXlXlXlXlXlXlXlXlXlXlXlXlXlXlXlXlXlXlXlXlXlXlXlXlXlXlXlXlXlXlXlXlXlXlXlXlXlXlXlXlXlXlXlXlXlXlXlXlXlXlXlXlXlXlXlXlXlXlXlXlXlXlXlXlXlXlXlXlXlXlX",
"lXlXlXlXlXlXlXlXlXlXlXlXlXlXlXlXlXlXlXlXlXlXlXlXlXlXlXlXlXlXlXlXlXlXlXlXlXlXlXlXlXlXlXlXlXlXlXlXlXlXlXlXlXlXlXlXlXlXlXlXlXlXlXlXlXlXlXlXlXlXlXlXlXlXlXlXlXlXlXlX",
"lXlXlXlXlXlXlXlXlXlXlXlXlXlXlXlXlXlXlXlXlXlXlXlXlXlXlXlXlXlXlXlXlXlXlXlXlXlXlXlXlXlXlXlXlXlXlXlXlXlXlXlXlXlXlXlXlXlXlXlXlXlXlXlXlXlXlXlXlXlXlXlXlXlXlXlXlXlXlXlX",
"lXlXlXlXlXlXlXlXlXlXlXlXlXlXlXlXlXlXlXlXlXlXlXlXlXlXlXlXlXlXlXlXlXlXlXlXlXlXlXlXlXlXlXlXlXlXlXlXlXlXlXlXlXlXlXlXlXlXlXlXlXlXlXlXlXlXlXlXlXlXlXlXlXlXlXlXlXlXlXlX",
"lXlXlXlXlXlXlXlXlXlXlXlXlXlXlXlXlXlXlXlXlXlXlXlXlXlXlXlXlXlXlXlXlXlXlXlXlXlXlXlXlXlXlXlXlXlXlXlXlXlXlXlXlXlXlXlXlXlXlXlXlXlXlXlXlXlXlXlXlXlXlXlXlXlXlXlXlXlXlXlX",
"lXlXlXlXlXlXlXlXlXlXlXlXlXlXlXlXlXlXlXlXlXlXlXlXlXlXlXlXlXlXlXlXlXlXlXlXlXlXlXlXlXlXlXlXlXlXlXlXlXlXlXlXlXlXlXlXlXlXlXlXlXlXlXlXlXlXlXlXlXlXlXlXlXlXlXlXlXlXlXlX",
"lXlXlXlXlXlXlXlXlXlXlXlXlXlXlXlXlXlXlXlXlXlXlXlXlXlXlXlXlXlXlXlXlXlXlXlXlXlXlXlXlXlXlXlXlXlXlXlXlXlXlXlXlXlXlXlXlXlXlXlXlXlXlXlXlXlXlXlXlXlXlXlXlXlXlXlXlXlXlXlX",
"lXlXlXlXlXlXlXlXlXlXlXlXlXlXlXlXlXlXlXlXlXlXlXlXlXlXlXlXlXlXlXlXlXlXlXlXlXlXlXlXlXlXlXlXlXlXlXlXlXlXlXlXlXlXlXlXlXlXlXlXlXlXlXlXlXlXlXlXlXlXlXlXlXlXlXlXlXlXlXlX",
"lXlXlXlXlXlXlXlXlXlXlXlXlXlXlXlXlXlXlXlXlXlXlXlXlXlXlXlXlXlXlXlXlXlXlXlXlXlXlXlXlXlXlXlXlXlXlXlXlXlXlXlXlXlXlXlXlXlXlXlXlXlXlXlXlXlXlXlXlXlXlXlXlXlXlXlXlXlXlXlX",
"lXlXlXlXlXlXlXlXlXlXlXlXlXlXlXlXlXlXlXlXlXlXlXlXlXlXlXlXlXlXlXlXlXlXlXlXlXlXlXlXkXkXkXkXlXlXlXlXlXlXlXlXlXlXlXlXlXlXlXlXlXlXlXlXlXlXlXlXlXlXlXlXlXlXlXlXlXlXlXlX",
"lXlXlXlXlXlXlXlXlXlXlXlXlXlXlXlXlXlXlXlXlXlXlXlXlXlXlXlXlXlXlXlXlXlXlXlXlXlXlXlXkXkXkXkXlXlXlXlXlXlXlXlXlXlXlXlXlXlXlXlXlXlXlXlXlXlXlXlXlXlXlXlXlXlXlXlXlXlXlXlX",
"lXlXlXlXlXlXlXlXlXlXlXlXlXlXlXlXlXlXlXlXlXlXlXlXlXlXlXlXlXlXlXlXlXlXkXkXlXlXlXlXkXkXkXkXlXlXlXlXlXlXlXlXlXlXlXlXlXlXlXlXlXlXlXlXlXlXlXlXlXlXlXlXlXlXlXlXlXlXlXlX",
"lXlXlXlXlXlXlXlXlXlXlXlXlXlXlXlXlXlXlXlXlXlXlXlXlXlXlXlXlXlXlXlXlXlXlXkXlXlXlXlXkXhXkXkXlXlXlXlXlXlXlXlXlXlXlXlXlXlXlXlXlXlXlXlXlXlXlXlXlXlXlXlXlXlXlXlXlXlXlXlX",
"lXlXlXP # OXlXlXlXlXlXtXlXa.a u.lXlXlXtXk.w v a S ` G.lXlXlX_.S / lXkXkXlXlXlXlXhXhXhXfXi i lXlXlXlXlXlXlXlXlXg.t S j v # i g.lXlXhXlXlXZ.a a a a { *XsXhXhXhXhX",
"lXlXlXp a *.lXtXlXlXlXlXlX0 a W lXlX|.: a a a a a a a P tXlX1.a a g.kXkXlXlXlXlXhXhXhX*.a a m.lXlXlXlXlXlXlXP a a a a a a a a 2XlXlXgXK a a a a a a a Y.lXlXlXhX",
"kXkXkXT a a <XfXkXkXkXlXeXa a s.fXeXa a a ;.#X,XOXG a a X yX,Xa a a eXfXfXjXjXjXdXjXW.a a a a lXlXlXlXjXsXI a a a B./.Y.s.~ s.sXsXgX_ a a s.5X3XW.a a a *XsXdXhX",
"kXkXkX,Xa a G gXfXkXfXlXL.a a ;XlX,.a a Y.iXtXhXsXlX7.a a A.sXU.a a i lXfXfXhXjXjXpXa a a a a F.lXlXjXlX;Xa a X pXlXlXlXyXiXgXsXsXOXa a s.gXlXlXyXpXh a R lXgXgX",
"kXkXkXkX6.a a 4XkXkXkXlXu a a lXrXa a 4 iXpXhXhXiXgXgXa a G lXlX7.a a 7.jXjXhXjXpX^ a a &X{ a a eXjXdXlX7.a a ,XjXsXjXlXlXlXgXgXlX7.a & 5XlXsXpX;X=XI a a lXlXlX",
"lXkXfXgX4Xa a *.kXfXlXgXa a Q lX#Xa a D.gXiXlXlXgXsXlX&.a a gXlXsXa a a P.hXfXhX|.a a &.jX$Xa a ,.jXdXlX&.a a lXjXjXOX; G 2 / eXlX$.a a a a a a a a a a a lXlXlX",
"lXlXlXfXdXT a a ,XkXkXF.a a $XlXR.a a H.hXfXhXlXjXgXhX&.a h lXlXhXP.a a D gXfXsXa a A gXgXhX;.a a 3XlXlX} a A lXdXfXo.a a a a D.lX& a a a a a a a < } 7.<XsXlXlX",
"lXlXkXkXdX=Xa a W kXpXa a h jXlX|.a a 5.hXgXhXhXhXgXlX; a a lXlXfXkX7.a a 7.hX7.a a 3XlXhXfXeXa a { lXlXo.a a rXjXdX0Xh.D.a a 3.lX1 a M =X=XeXeXlXlXgXsXgXgXlXlX",
"lXlXkXkXdXgX*.a a kX6.a a |.lXjXlXa a a fXhXhXhXhXlX6Xa a u kXfXhXhXfX; a a P.8Xa a } I _ G } a a a OXlXB.a a `.jXsXlXlXlX&.a 7.lXr.a a @XiXgXlXlXhXlXsXgXhXhXlX",
"lXlXlXlXgXgX,Xa a a a a 4 lXjXfXkXu.a a &.lXhXlXlXjX  a a  XkXkXhXhXfX0Xa a a sXJ.a a a a a a a a a a lX9Xa a a &XjXlXlXlXj a 5.lXiXa a a =XjXjXlXlXsX<XjXjXlXlX",
"lXlXlXlXlXfXkXG a a a a 5XdXjXlXkXlXh a a 8 Z.B.;.a a a ,.fXkXkXkXkXfXhX7.a a 7.gXC.-.5.7.7.6.7.&.a a U.pXA.a a a G B.7.h a a P.lXlXH.a a a *.F.F.7.a a A.lXlXlX",
"lXlXlXlXlXkXfX,Xa a a ~.fXpXlXlXlXkXlX8 a a a a a a a i.kXfXkXlXkXhXfXrXa a a ,XgXhXdXpXhXhXpXdXlXN a a pXsX^.a a a a a a a t sXkXfXpXB.a a a a a a a a oXlXlXlX",
"lXlXlXlXkXkXgXfXh.a F.lXdXlXlXlXlXlXlXlX'.;.< 9 u s.2XjXkXkXkXlXsXiXfXL a a A.hXgXgXpXpXhXhXhXgXlX3X; W.sXsXlXeXF.{ 4 t I W.lXlXkXlXfXkXsXd.u > < ;.H.8XiXpXlXlX",
"lXlXlXlXkXkXkXfXfXdXpXjXjXjXlXlXlXlXlXjXpXlXlXlXjXdXdXjXkXkXkXlXpXiXH.a a 7 iXhXhXgXgXdXkXkXhXlXgXgXjXjXgXgXjXlXdXdXlXlXjXlXlXlXlXlXlXfXlXlXkXkXlXlXfXfXgXgXlXlX",
"lXlXlXlXkXlXlXlXfXfXfXlXlXlXlXlXlXlXlXlXpXdXdXfXjXjXjXlXlXlXjXgXdX=Xa a a dXhXhXhXhXlXlXlXlXlXlXgXjXjXjXlXlXlXjXjXjXjXjXgXjXjXlXlXlXlXlXkXfXfXkXlXfXfXkXlXlXlXlX",
"lXlXlXlXlXlXlXlXlXlXlXlXlXlXlXlXlXlXlXlXdXfXlXjXlXlXjXlXlXlXjXjXlXa a a |.lXfXhXhXhXlXlXlXlXlXlXjXjXlXjXlXlXlXlXjXlXlXlXjXjXlXlXlXlXlXlXkXlXkXkXlXlXlXlXlXlXlXlX",
"lXlXlXlXlXlXlXlXlXlXlXlXlXlXlXlXlXlXlXlXlXlXlXlXlXlXlXlXlXlXsXgX7.a a 7.pXpXgXhXkXkXlXlXlXlXlXlXlXlXlXlXlXlXlXlXlXlXlXlXlXlXlXlXlXlXlXlXlXlXlXlXlXlXlXlXlXlXlXlX",
"lXlXlXlXlXlXlXlXlXlXlXlXlXlXlXlXlXlXlXlXlXlXlXlXlXlXlXlXjXjXdX'.a a   lXpXdXfXfXkXkXlXlXlXlXlXlXlXlXlXlXlXlXlXlXlXlXlXlXlXlXlXlXlXlXlXlXlXlXlXlXlXlXlXlXlXlXlXlX",
"lXlXlXlXlXlXlXlXlXlXlXlXlXlXlXlXlXlXlXlXlXlXlXlXlXlXlXlXjXjXeXa a a +XjXjXlXlXlXlXlXlXlXlXlXlXlXlXlXlXlXlXlXlXlXlXlXlXlXlXlXlXlXlXlXlXlXlXlXlXlXlXlXlXlXlXlXlXlX",
"lXlXlXlXlXlXlXlXlXlXlXlXlXlXlXlXlXlXlXlXlXlXlXlXlXlXlXlXgXjX6.a a 7.sXgXjXlXlXlXlXlXlXlXlXlXlXlXlXlXlXlXlXlXlXlXlXlXlXlXlXlXlXlXlXlXlXlXlXlXlXlXlXlXlXlXlXlXlXlX",
"lXlXlXlXlXlXlXlXlXlXlXlXlXlXlXlXlXlXlXlXlXlXlXlXlXlXlXlXgXjX{.a t lXlXlXlXlXlXlXlXlXlXlXlXlXlXlXlXlXlXlXlXlXlXlXlXlXlXlXlXlXlXlXlXlXlXlXlXlXlXlXlXlXlXlXlXlXlXlX",
"lXlXlXlXlXlXlXlXlXlXlXlXlXlXlXlXlXlXlXlXlXlXlXlXlXlXlXlXgXsXsXlXlXlXlXlXlXlXlXlXlXlXlXlXlXlXlXlXlXlXlXlXlXlXlXlXlXlXlXlXlXlXlXlXlXlXlXlXlXlXlXlXlXlXlXlXlXlXlXlX",
"lXlXlXlXlXlXlXlXlXlXlXlXlXlXlXlXlXlXlXlXlXlXlXlXlXlXlXlXlXlXlXlXlXlXlXlXlXlXlXlXlXlXlXlXlXlXlXlXlXlXlXlXlXlXlXlXlXlXlXlXlXlXlXlXlXlXlXlXlXlXlXlXlXlXlXlXlXlXlXlX",
"lXlXlXlXlXlXlXlXlXlXlXlXlXlXlXlXlXlXlXlXlXlXlXlXlXlXlXlXlXlXlXlXlXlXlXlXlXlXlXlXlXlXlXlXlXlXlXlXlXlXlXlXlXlXlXlXlXlXlXlXlXlXlXlXlXlXlXlXlXlXlXlXlXlXlXlXlXlXlXlX",
"lXlXlXlXlXlXlXlXlXlXlXlXlXlXlXlXlXlXlXlXlXlXlXlXlXlXlXlXlXlXlXlXlXlXlXlXlXlXlXlXlXlXlXlXlXlXlXlXlXlXlXlXlXlXlXlXlXlXlXlXlXlXlXlXlXlXlXlXlXlXlXlXlXlXlXlXlXlXlXlX",
"lXlXlXlXlXlXlXlXlXlXlXlXlXlXlXlXlXlXlXlXlXlXlXlXlXlXlXlXlXlXlXlXlXlXlXlXlXlXlXlXlXlXlXlXlXlXlXlXlXlXlXlXlXlXlXlXlXlXlXlXlXlXlXlXlXlXlXlXlXlXlXlXlXlXlXlXlXlXlXlX",
"lXlXlXlXlXlXlXlXlXlXlXlXlXlXlXlXlXlXlXlXlXlXlXlXlXlXlXlXlXlXlXlXlXlXlXlXlXlXlXlXlXlXlXlXlXlXlXlXlXlXlXlXlXlXlXlXlXlXlXlXlXlXlXlXlXlXlXlXlXlXlXlXlXlXlXlXlXlXlXlX",
"lXlXlXlXlXlXlXlXlXlXlXlXlXlXlXlXlXlXlXlXlXlXlXlXlXlXlXlXlXlXlXlXlXlXlXlXlXlXlXlXlXlXlXlXlXlXlXlXlXlXlXlXlXlXlXlXlXlXlXlXlXlXlXlXlXlXlXlXlXlXlXlXlXlXlXlXlXlXlXlX",
"lXlXlXlXlXlXlXlXlXlXlXlXlXlXlXlXlXlXlXlXlXlXlXlXlXlXlXlXlXlXlXlXlXlXlXlXlXlXlXlXlXlXlXlXlXlXlXlXlXlXlXlXlXlXlXlXlXlXlXlXlXlXlXlXlXlXlXlXlXlXlXlXlXlXlXlXlXlXlXlX",
"lXlXlXlXlXlXlXlXlXlXlXlXlXlXlXlXlXlXlXlXlXlXlXlXlXlXlXlXlXlXlXlXlXlXlXlXlXlXlXlXlXlXlXlXlXlXlXlXlXlXlXlXlXlXlXlXlXlXlXlXlXlXlXlXlXlXlXlXlXlXlXlXlXlXlXlXlXlXlXlX",
"lXlXlXlXlXlXlXlXlXlXlXlXlXlXlXlXlXlXlXlXlXlXlXlXlXlXlXlXlXlXlXlXlXlXlXlXlXlXlXlXlXlXlXlXlXlXlXlXlXlXlXlXlXlXlXlXlXlXlXlXlXlXlXlXlXlXlXlXlXlXlXlXlXlXlXlXlXlXlXlX",
"lXlXlXlXlXlXlXlXlXlXlXlXlXlXlXlXlXlXlXlXlXlXlXlXlXlXlXlXlXlXlXlXlXlXlXlXlXlXlXlXlXlXlXlXlXlXlXlXlXlXlXlXlXlXlXlXlXlXlXlXlXlXlXlXlXlXlXlXlXlXlXlXlXlXlXlXlXlXlXlX",
"lXlXlXlXlXlXlXlXlXlXlXlXlXlXlXlXlXlXlXlXlXlXlXlXlXlXlXlXlXlXlXlXlXlXlXlXlXlXlXlXlXlXlXlXlXlXlXlXlXlXlXlXlXlXlXlXlXlXlXlXlXlXlXlXlXlXlXlXlXlXlXlXlXlXlXlXlXlXlXlX",
"lXlXlXlXlXlXlXlXlXlXlXlXlXlXlXlXlXlXlXlXlXlXlXlXlXlXlXlXlXlXlXlXlXlXlXlXlXlXlXlXlXlXlXlXlXlXlXlXlXlXlXlXlXlXlXlXlXlXlXlXlXlXlXlXlXlXlXlXlXlXlXlXlXlXlXlXlXlXlXlX",
"lXlXlXlXlXlXlXlXlXlXlXlXlXlXlXlXlXlXlXlXlXlXlXlXlXlXlXlXlXlXlXlXlXlXlXlXlXlXlXlXlXlXlXlXlXlXlXlXlXlXlXlXlXlXlXlXlXlXlXlXlXlXlXlXlXlXlXlXlXlXlXlXlXlXlXlXlXlXlXlX",
"lXlXlXlXlXlXlXlXlXlXlXlXlXlXlXlXlXlXlXlXlXlXlXlXlXlXlXlXlXlXlXlXlXlXlXlXlXlXlXlXlXlXlXlXlXlXlXlXlXlXlXlXlXlXlXlXlXlXlXlXlXlXlXlXlXlXlXlXlXlXlXlXlXlXlXlXlXlXlXlX",
"lXlXlXlXlXlXlXlXlXlXlXlXlXlXlXlXlXlXlXlXlXlXlXlXlXlXlXlXlXlXlXlXlXlXlXlXlXlXlXlXlXlXlXlXlXlXlXlXlXlXlXlXlXlXlXlXlXlXlXlXlXlXlXlXlXlXlXlXlXlXlXlXlXlXlXlXlXlXlXlX",
"lXlXlXlXlXlXlXlXlXlXlXlXlXlXlXlXlXlXlXlXlXlXlXlXlXlXlXlXlXlXlXlXlXlXlXlXlXlXlXlXlXlXlXlXlXlXlXlXlXlXlXlXlXlXlXlXlXlXlXlXlXlXlXlXlXlXlXlXlXlXlXlXlXlXlXlXlXlXlXlX",
"lXlXlXlXlXlXlXlXlXlXlXlXlXlXlXlXlXlXlXlXlXlXlXlXlXlXlXlXlXlXlXlXlXlXlXlXlXlXlXlXlXlXlXlXlXlXlXlXlXlXlXlXlXlXlXlXlXlXlXlXlXlXlXlXlXlXlXlXlXlXlXlXlXlXlXlXlXlXlXlX",
"lXlXlXlXlXlXlXlXlXlXlXlXlXlXlXlXlXlXlXlXlXlXlXlXlXlXlXlXlXlXlXlXlXlXlXlXlXlXlXlXlXlXlXlXlXlXlXlXlXlXlXlXlXlXlXlXlXlXlXlXlXlXlXlXlXlXlXlXlXlXlXlXlXlXlXlXlXlXlXlX",
"lXlXlXlXlXlXlXlXlXlXlXlXlXlXlXlXlXlXlXlXlXlXlXlXlXlXlXlXlXlXlXlXlXlXlXlXlXlXlXlXlXlXlXlXlXlXlXlXlXlXlXlXlXlXlXlXlXlXlXlXlXlXlXlXlXlXlXlXlXlXlXlXlXlXlXlXlXlXlXlX",
"lXlXlXlXlXlXlXlXlXlXlXlXlXlXlXlXlXlXlXlXlXlXlXlXlXlXlXlXlXlXlXlXlXlXlXlXlXlXlXlXlXlXlXlXlXlXlXlXlXlXlXlXlXlXlXlXlXlXlXlXlXlXlXlXlXlXlXlXlXlXlXlXlXlXlXlXlXlXlXlX",
"lXlXlXlXlXlXlXlXlXlXlXlXlXlXlXlXlXlXlXlXlXlXlXlXlXlXlXlXlXlXlXlXlXlXlXlXlXlXlXlXlXlXlXlXlXlXlXlXlXlXlXlXlXlXlXlXlXlXlXlXlXlXlXlXlXlXlXlXlXlXlXlXlXlXlXlXlXlXlXlX",
"lXlXlXlXlXlXlXlXlXlXlXlXlXlXlXlXlXlXlXlXlXlXlXlXlXlXlXlXlXlXlXlXlXlXlXlXlXlXlXlXlXlXlXlXlXlXlXlXlXlXlXlXlXlXlXlXlXlXlXlXlXlXlXlXlXlXlXlXlXlXlXlXlXlXlXlXlXlXlXlX",
"lXlXlXlXlXlXlXlXlXlXlXlXlXlXlXlXlXlXlXlXlXlXlXlXlXlXlXlXlXlXlXlXlXlXlXlXlXlXlXlXlXlXlXlXlXlXlXlXlXlXlXlXlXlXlXlXlXlXlXlXlXlXlXlXlXlXlXlXlXlXlXlXlXlXlXlXlXlXlXlX",
"lXlXlXlXlXlXlXlXlXlXlXlXlXlXlXlXlXlXlXlXlXlXlXlXlXlXlXlXlXlXlXlXlXlXlXlXlXlXlXlXlXlXlXlXlXlXlXlXlXlXlXlXlXlXlXlXlXlXlXlXlXlXlXlXlXlXlXlXlXlXlXlXlXlXlXlXlXlXlXlX",
"lXlXlXlXlXlXlXlXlXlXlXlXlXlXlXlXlXlXlXlXlXlXlXlXlXlXlXlXlXlXlXlXlXlXlXlXlXlXlXlXlXlXlXlXlXlXlXlXlXlXlXlXlXlXlXlXlXlXlXlXlXlXlXlXlXlXlXlXlXlXlXlXlXlXlXlXlXlXlXlX",
"lXlXlXlXlXlXlXlXlXlXlXlXlXlXlXlXlXlXlXlXlXlXlXlXlXlXlXlXlXlXlXlXlXlXlXlXlXlXlXlXlXlXlXlXlXlXlXlXlXlXlXlXlXlXlXlXlXlXlXlXlXlXlXlXlXlXlXlXlXlXlXlXlXlXlXlXlXlXlXlX",
"lXlXlXlXlXlXlXlXlXlXlXlXlXlXlXlXlXlXlXlXlXlXlXlXlXlXlXlXlXlXlXlXlXlXlXlXlXlXlXlXlXlXlXlXlXlXlXlXlXlXlXlXlXlXlXlXlXlXlXlXlXlXlXlXlXlXlXlXlXlXlXlXlXlXlXlXlXlXlXlX",
"lXlXlXlXlXlXlXlXlXlXlXlXlXlXlXlXlXlXlXlXlXlXlXlXlXlXlXlXlXlXlXlXlXlXlXlXlXlXlXlXlXlXlXlXlXlXlXlXlXlXlXlXlXlXlXlXlXlXlXlXlXlXlXlXlXlXlXlXlXlXlXlXlXlXlXlXlXlXlXlX"
};
