/* XPM */
static char *xpm_[] = {
/* columns rows colors chars-per-pixel */
"80 80 199 2 ",
"   c #010101",
".  c #050505",
"X  c #090909",
"o  c #0D0D0D",
"O  c #121212",
"+  c #161616",
"@  c #1D1D1D",
"#  c #222222",
"$  c #262626",
"%  c #292929",
"&  c #2D2D2D",
"*  c #303030",
"=  c #363636",
"-  c #3A3A3A",
";  c #3D3D3D",
":  c #454545",
">  c #414141",
",  c #4A4A4A",
"<  c #4D4D4D",
"1  c #545454",
"2  c #595959",
"3  c #5D5D5D",
"4  c #616161",
"5  c #656565",
"6  c #696969",
"7  c #6D6D6D",
"8  c #767676",
"9  c #737373",
"0  c #7B7B7B",
"q  c #8D8D8D",
"w  c #636363",
"e  c #636363",
"r  c #727272",
"t  c #777777",
"y  c #757575",
"u  c #C1C1C1",
"i  c #909090",
"p  c #6A6A6A",
"a  c #6D6D6D",
"s  c #7F7F7F",
"d  c #BDBDBD",
"f  c #BCBCBC",
"g  c #CCCCCC",
"h  c #B9B9B9",
"j  c #BABABA",
"k  c #D0D0D0",
"l  c #C3C3C3",
"z  c #DADADA",
"x  c #828282",
"c  c #8A8A8A",
"v  c #969696",
"b  c #929292",
"n  c #9C9C9C",
"m  c #A0A0A0",
"M  c #A5A5A5",
"N  c #A9A9A9",
"B  c #AFAFAF",
"V  c #ACACAC",
"C  c #ADADAD",
"Z  c #B2B2B2",
"A  c #B1B1B1",
"S  c #B3B3B3",
"D  c #B5B5B5",
"F  c #B7B7B7",
"G  c #B9B9B9",
"H  c #B8B8B8",
"J  c #B9B9B9",
"K  c #BABABA",
"L  c #BDBDBD",
"P  c #BCBCBC",
"I  c #BFBFBF",
"U  c #BFBFBF",
"Y  c #BFBFBF",
"T  c #BCBCBC",
"R  c #C5C5C5",
"E  c #7E7E7E",
"W  c #CCCCCC",
"Q  c #D1D1D1",
"!  c #CBCBCB",
"~  c #B6B6B6",
"^  c #BBBBBB",
"/  c #ACACAC",
"(  c #C4C4C4",
")  c #C7C7C7",
"_  c #D2D2D2",
"`  c #C3C3C3",
"'  c #D0D0D0",
"]  c #DCDCDC",
"[  c #CECECE",
"{  c #D4D4D4",
"}  c #D8D8D8",
"|  c #DFDFDF",
" . c #C0C0C0",
".. c #C3C3C3",
"X. c #C4C4C4",
"o. c #C5C5C5",
"O. c #C6C6C6",
"+. c #C7C7C7",
"@. c #C8C8C8",
"#. c #C6C6C6",
"$. c #CACACA",
"%. c #C9C9C9",
"&. c #CACACA",
"*. c #CACACA",
"=. c #CDCDCD",
"-. c #CECECE",
";. c #D0D0D0",
":. c #CDCDCD",
">. c #D3D3D3",
",. c #CECECE",
"<. c #D4D4D4",
"1. c #D0D0D0",
"2. c #D1D1D1",
"3. c #D3D3D3",
"4. c #D3D3D3",
"5. c #D4D4D4",
"6. c #D5D5D5",
"7. c #D7D7D7",
"8. c #D7D7D7",
"9. c #D6D6D6",
"0. c #DADADA",
"q. c #D9D9D9",
"w. c #DBDBDB",
"e. c #DCDCDC",
"r. c #DCDCDC",
"t. c #DFDFDF",
"y. c #E0E0E0",
"u. c #DEDEDE",
"i. c #E3E3E3",
"p. c #DCDCDC",
"a. c #DDDDDD",
"s. c #DEDEDE",
"d. c #DEDEDE",
"f. c #D5D5D5",
"g. c #E3E3E3",
"h. c #E1E1E1",
"j. c #E3E3E3",
"k. c #E4E4E4",
"l. c #E5E5E5",
"z. c #E7E7E7",
"x. c #E6E6E6",
"c. c #EAEAEA",
"v. c #EAEAEA",
"b. c #EEEEEE",
"n. c #E0E0E0",
"m. c #C6C6C6",
"M. c #C6C6C6",
"N. c #D5D5D5",
"B. c #CECECE",
"V. c #C5C5C5",
"C. c #E3E3E3",
"Z. c #E5E5E5",
"A. c #DFDFDF",
"S. c #E0E0E0",
"D. c #5C5C5C",
"F. c #545454",
"G. c #616161",
"H. c #3A3A3A",
"J. c #323232",
"K. c #C0C0C0",
"L. c #C7C7C7",
"P. c #CDCDCD",
"I. c #CDCDCD",
"U. c #BFBFBF",
"Y. c #CFCFCF",
"T. c #CACACA",
"R. c #D8D8D8",
"E. c #DDDDDD",
"W. c #C4C4C4",
"Q. c #D5D5D5",
"!. c #DBDBDB",
"~. c #828282",
"^. c #CCCCCC",
"/. c #959595",
"(. c #242424",
"). c #7E7E7E",
"_. c #CBCBCB",
"`. c #D9D9D9",
"'. c #E3E3E3",
"]. c #C8C8C8",
"[. c #CECECE",
"{. c #000000",
"}. c #070707",
"|. c #C2C2C2",
" X c #C5C5C5",
".X c #C8C8C8",
"XX c #C4C4C4",
"oX c #9D9D9D",
"OX c #CDCDCD",
"+X c #D5D5D5",
"@X c #7E7E7E",
"#X c #686868",
"$X c #D7D7D7",
"%X c #BFBFBF",
"&X c #DEDEDE",
"*X c #E0E0E0",
"=X c None",
"-X c #202020",
";X c #626262",
/* pixels */
"=X=X=X=X=X=X=X=X=X=X=X=X=X=X=X=X=X=X=X=X=X=X=X=X=X=X=X=X=X=X=X=X=X=X=X=X=X=X=X=X=X=X=X=X=X=X=X=X=X=X=X=X=X=X=X=X=X=X=X=X=X=X=X=X{.{.{.{.{.{.{.{.{.{.{.{.{.{.{.{.",
"=X=X=X=X=X=X=X=X=X=X=X=X=X=X=X=X=X=X=X=X=X=X=X=X=X=X=X=X=X=X=X=X=X=X=X=X=X=X=X=X=X=X=X=X=X=X=X=X=X=X=X=X=X=X=X=X=X=X=X=X=X=X=X=X{.{.{.{.{.{.{.{.{.{.{.{.{.{.{.{.",
"=X=X=X=X=X=X=X=X=X=X=X=X=X=X=X=X=X=X=X=X=X=X=X=X=X=X=X=X=X=X=X=X=X=X=X=X=X=X=X=X=X=X=X=X=X=X=X=X=X=X=X=X=X=X=X=X=X=X=X=X=X=X=X=X{.{.{.{.{.{.{.{.{.{.{.{.{.{.{.{.",
"=X=X=X=X=X=X=X=X=X=X=X=X=X=X=X=X=X=X=X=X=X=X=X=X=X=X=X=X=X=X=X=X=X=X=X=X=X=X=X=X=X=X=X=X=X=X=X=X=X=X=X=X=X=X=X=X=X=X=X=X=X=X=X=X{.{.{.{.{.{.{.{.{.{.{.{.{.{.{.{.",
"=X=X=X=X=X=X=X=X=X=X=X=X=X=X=X=X=X=X=X=X=X=X=X=X=X=X=X=X=X=X=X=X=X=X=X=X=X=X=X=X=X=X=X=X=X=X=X=X=X=X=X=X=X=X=X=X=X=X=X=X=X=X=X=X{.{.{.{.{.{.{.{.{.{.{.{.{.{.{.{.",
"=X=X=X=X=X=X=X=X=X=X=X=X=X=X=X=X=X=X=X=X=X=X=X=X=X=X=X=X=X=X=X=X=X=X=X=X=X=X=X=X=X=X=X=X=X=X=X=X=X=X=X=X=X=X=X=X=X=X=X=X=X=X=X=X{.{.{.{.{.{.{.{.{.{.{.{.{.{.{.{.",
"=X=X=X=X=X=X=X=X=X=X=X=X=X=X=X=X=X=X=X=X=X=X=X=X=X=X=X=X=X=X=X=X=X=X=X=X=X=X=X=X=X=X=X=X=X=X=X=X=X=X=X=X=X=X=X=X=X=X=X=X=X=X=X=X{.{.{.{.{.{.{.{.{.{.{.{.{.{.{.{.",
"=X=X=X=X=X=X=X=X=X=X=X=X=X=X=X=X=X=X=X=X=X=X=X=X=X=X=X=X=X=X=X=X=X=X=X=X=X=X=X=X=X=X=X=X=X=X=X=X=X=X=X=X=X=X=X=X=X=X=X=X=X=X=X=X{.{.{.{.{.{.{.{.{.{.{.{.{.{.{.{.",
"=X=X=X=X=X=X=X=X=X=X=X=X=X=X=X=X=X=X=X=X=X=X=X=X=X=X=X=X=X=X=X=X=X=X=X=X=X=X=X=X=X=X=X=X=X=X=X=X=X=X=X=X=X=X=X=X=X=X=X=X=X=X=X=X{.{.{.{.{.{.{.{.{.{.{.{.{.{.{.{.",
"=X=X=X=X=X=X=X=X=X=X=X=X=X=X=X=X=X=X=X=X=X=X=X=X=X=X=X=X=X=X=X=X=X=X=X=X=X=X=X=X=X=X=X=X=X=X=X=X=X=X=X=X=X=X=X=X=X=X=X=X=X=X=X=X{.{.{.{.{.{.{.{.{.{.{.{.{.{.{.{.",
"=X=X=X=X=X=X=X=X=X=X=X=X=X=X=X=X=X=X=X=X=X=X=X=X=X=X=X=X=X=X=X=X=X=X=X=X=X=X=X=X=X=X=X=X=X=X=X=X=X=X=X=X=X=X=X=X=X=X=X=X=X=X=X=X{.{.{.{.{.{.{.{.{.{.{.{.{.{.{.{.",
"=X=X=X=X=X=X=X=X=X=X=X=X=X=X=X=X=X=X=X=X=X=X=X=X=X=X=X=X=X=X=X=X=X=X=X=X=X=X=X=X=X=X=X=X=X=X=X=X=X=X=X=X=X=X=X=X=X=X=X=X=X=X=X=X{.{.{.{.{.{.{.{.{.{.{.{.{.{.{.{.",
"=X=X=X=X=X=X=X=X=X=X=X=X=X=X=X=X=X=X=X=X=X=X=X=X=X=X=X=X=X=X=X=X=X=X=X=X=X=X=X=X=X=X=X=X=X=X=X=X=X=X=X=X=X=X=X=X=X=X=X=X=X=X=X=X{.{.{.{.{.{.{.{.{.{.{.{.{.{.{.{.",
"=X=X=X=X=X=X=X=X=X=X=X=X=X=X=X=X=X=X=X=X=X=X=X=X=X=X=X=X=X=X=X=X=X=X=X=X=X=X=X=X=X=X=X=X=X=X=X=X=X=X=X=X=X=X=X=X=X=X=X=X=X=X=X=X{.{.{.{.{.{.{.{.{.{.{.{.{.{.{.{.",
"=X=X=X=X=X=X=X=X=X=X=X=X=X=X=X=X=X=X=X=X=X=X=X=X=X=X=X=X=X=X=X=X=X=X=X=X=X=X=X=X=X=X=X=X=X=X=X=X=X=X=X=X=X=X=X=X=X=X=X=X=X=X=X=X{.{.{.{.{.{.{.{.{.{.{.{.{.{.{.{.",
"=X=X=X=X=X=X=X=X=X=X=X=X=X=X=X=X=X=X=X=X=X=X=X=X=X=X=X=X=X=X=X=X=X=X=X=X=X=X=X=X=X=X=X=X=X=X=X=X=X=X=X=X=X=X=X=X=X=X=X=X=X=X=X=X{.{.{.{.{.{.{.{.{.{.{.{.{.{.{.{.",
"=X=X=X=X=X=X=X=X{.{.{.{.{.{.{.{.{.{.{.{.{.{.{.{.=X=X=X=X=X=X=X=X{.{.{.{.{.{.{.{.{.{.{.{.{.{.{.{.=X=X=X=X=X=X=X=X=X=X=X=X=X=X=X=X{.{.{.{.{.{.{.{.{.{.{.{.{.{.{.{.",
"=X=X=X=X=X=X=X=X{.{.{.{.{.{.{.{.{.{.{.{.{.{.{.{.=X=X=X=X=X=X=X=X{.{.{.{.{.{.{.{.{.{.{.{.{.{.{.{.=X=X=X=X=X=X=X=X=X=X=X=X=X=X=X=X{.{.{.{.{.{.{.{.{.{.{.{.{.{.{.{.",
"=X=X=X=X=X=X=X=X{.{.{.{.{.{.{.{.{.{.{.{.{.{.{.{.=X=X=X=X=X=X=X=X{.{.{.{.{.{.{.{.{.{.{.{.{.{.{.{.=X=X=X=X=X=X=X=X=X=X=X=X=X=X=X=X{.{.{.{.{.{.{.{.{.{.{.{.{.{.{.{.",
"=X=X=X=X=X=X=X=X{.{.{.{.{.{.{.{.{.{.{.{.{.{.{.{.=X=X=X=X=X=X=X=X{.{.{.{.{.{.{.{.{.{.{.{.{.{.{.{.=X=X=X=X=X=X=X=X=X=X=X=X=X=X=X=X{.{.{.{.{.{.{.{.{.{.{.{.{.{.{.{.",
"=X=X=X=X=X=X=X=X{.{.{.{.{.{.{.{.{.{.{.{.{.{.{.{.=X=X=X=X=X=X=X=X{.{.{.{.{.{.{.{.{.{.{.{.{.{.{.{.=X=X=X=X=X=X=X=X=X=X=X=X=X=X=X=X{.{.{.{.{.{.{.{.{.{.{.{.{.{.{.{.",
"=X=X=X=X=X=X=X=X{.{.{.{.{.{.{.{.{.{.{.{.{.{.{.{.=X=X=X=X=X=X=X=X{.{.{.{.{.{.{.{.{.{.{.{.{.{.{.{.=X=X=X=X=X=X=X=X=X=X=X=X=X=X=X=X{.{.{.{.{.{.{.{.{.{.{.{.{.{.{.{.",
"=X=X=X=X=X=X=X=X{.{.{.{.{.{.{.{.{.{.{.{.{.{.{.{.=X=X=X=X=X=X=X=X{.{.{.{.{.{.{.{.{.{.{.{.{.{.{.{.=X=X=X=X=X=X=X=X=X=X=X=X=X=X=X=X{.{.{.{.{.{.{.{.{.{.{.{.{.{.{.{.",
"=X=X=X=X=X=X=X=X{.{.{.{.{.{.{.{.{.{.{.{.{.{.{.{.=X=X=X=X=X=X=X=X{.{.{.{.{.{.{.{.{.{.{.{.{.{.{.{.=X=X=X=X=X=X=X=X=X=X=X=X=X=X=X=X{.{.{.{.{.{.{.{.{.{.{.{.{.{.{.{.",
"=X=X=X=X{.{.{.{.{.{.{.{.{.{.{.{.{.{.{.{.{.{.{.{.{.{.{.{.=X=X=X=X{.{.{.{.{.{.{.{.{.{.{.{.{.{.{.{.{.{.{.{.{.{.{.{.=X=X=X=X=X=X=X=X{.{.{.{.{.{.{.{.{.{.{.{.{.{.{.{.",
"=X=X=X=X{.{.{.{.{.{.{.{.{.{.{.{.{.{.{.{.{.{.{.{.{.{.{.{.=X=X=X=X{.{.{.{.{.{.{.{.{.{.{.{.{.{.{.{.{.{.{.{.{.{.{.{.=X=X=X=X=X=X=X=X{.{.{.{.{.{.{.{.{.{.{.{.{.{.{.{.",
"=X=X=X=X{.{.{.{.{.{.{.{.{.{.{.{.{.{.{.{.{.{.{.{.{.{.{.{.=X=X=X=X{.{.{.{.{.{.{.{.{.{.{.{.{.{.{.{.{.{.{.{.{.{.{.{.=X=X=X=X=X=X=X=X{.{.{.{.{.{.{.{.{.{.{.{.{.{.{.{.",
"=X=X=X=X{.{.{.{.{.{.{.{.{.{.{.{.{.{.{.{.{.{.{.{.{.{.{.{.=X=X=X=X{.{.{.{.{.{.{.{.{.{.{.{.{.{.{.{.{.{.{.{.{.{.{.{.=X=X=X=X=X=X=X=X{.{.{.{.{.{.{.{.{.{.{.{.{.{.{.{.",
"=X=X{.{.{.{.{.{.{.{.{.{.{.{.{.{.{.{.{.{.{.{.{.{.{.{.{.{.{.{.=X=X{.{.{.{.{.{.{.{.{.{.{.{.{.{.{.{.{.{.{.{.{.{.{.{.{.{.{.{.=X=X=X=X{.{.{.{.{.{.{.{.{.{.{.{.{.{.{.{.",
"=X=X{.{.{.{.{.{.{.{.{.{.{.{.{.{.{.{.{.{.{.{.{.{.{.{.{.{.{.{.=X=X{.{.{.{.{.{.{.{.{.{.{.{.{.{.{.{.{.{.{.{.{.{.{.{.{.{.{.{.=X=X=X=X{.{.{.{.{.{.{.{.{.{.{.{.{.{.{.{.",
"=X=X=X&.q.t.r.j.x {.{.{.{.. k D l.<.-.[ {.{.{.{.{.x S J l.o.o.=.l.r.X.D u 3 K.{.{.{.{.{.{.{.{.{.{.{.{.{.{.{.@X@X{.{.}.{.-X-X=X=X{.{.{.{.{.{.{.{.{.{.{.{.{.{.{.{.",
"=X=X=XV.l.l.j.j.L $X{.{.{.|.D D l.5.:. .#X{.{.{.{.I S G g.h.f.:.:.5.o.X.X.q.q.&.4 {.{.{.{.F.% [. X{.#  X{.% ^.XXOX(.[.!.[.[.].].@ ~.OX{.o ;X{.{.{.{.{.{.{.{.{.{.",
"*X*X&X!.v.l.v.h.X.w {.{.}.T.:.%.<.+.X.X.|.{.{.{.P.J G J J J I %.4.o.! A  .X.h.h.w. .&X{.}. .b.b.b.l.h.h.h.h.y.y.q.q.w.w.q.5.1.1.1.1.1.,.1.X.[ T.*X=X-X-X{.{.{.{.",
"*X#X#X$Xh.v.l.h.X.v {.{.{.h 4...<.X.Y  .p {.{.{.h G S G J J @.v 4 1 : : < 1 9 A e.h.j.oX{.{.f.b.b.v.h.h.h.l.y.q.q.q.1.2.1.1.1.1.1.1.1.1.1.1.4.:.! ].-X-X{.{.{.{.",
"*X*X{.{.[ b.b.l.o.R o {.{.V.=.%.>.&. .Y x {.{.{./ J S S J J 2 $ = : 1 3 5 4 2 < b g.2. .{.{.OXb.z.h.w.1.b.y.q.p.y.7.@...%.q.;.,.%.@.=.y. .1.1.f.%.%.P.-X{.{.{.{.",
"*X*X{.{.V.b.b.b.X.o.^.{.&X:.%.@.*.$. .X.v {.}.@XC S S C I 2 + - , 1 1 4 7 8 9 6 1 n.6.h.r {.{.z h.z.M F.E.[.+.6.h.[ F.e e h./ H.G.G.e h G.y b 1.%.%.%.[.{.{.{.{.",
"*X{.{.{.[.b.b.b.X.o.> {.P.=.%.%.+.1.f...A .X#X!.S N C J v + & ; : 2 v C b x x 8 5 2 o.j.Z.{.{.XXh.z.b {.{.{.R <.b.V.=X-X=X7.T.}.#X}.{.*X-X-X(.d %. .%.V.-X-X{.{.",
"{.{.{.{.{.6.b.b.X.o.Z {.T.4.%.@.s.>. .K G K.=Xi N N N J 6 O * ; : M 4.:.1.m 0 0 6 < M j.6.@ {.{. .c.B {.{.{.Z.T v./ =X-X.Xq.h -X#X$XH..X.X-X.X-X/ :...@.P.-X{.{.",
"{.{.{.{.{.A.D D D T X.{.S.4...@. . .K A G T.=X~ N M N J 2 O & - < I ....2.A 7 8 5 < ' p.6.).{.{.V.X.u {.{.{.r.B.h./ =X=X*Xq.h -X=Xh 1.1.f._.-X-X_.X.f.%.i {.{.{.",
"{.{.{.{.{.- J T D g 0 + V.=.%.@. . . .D G f /.S N N N J 6 o % - ; x %.1.%.0 6 6 4 < x 6.q.i {.{.x X.~ {.{.{.: ; a p =X=X.Xy.h -X=XE.1. .4.[ ;X;X-XM 4.%.[ {.{.{.",
"{.{.{.{.{.~.b.b.h.1.q.h f.7.%.@. .[ I T G M.T.S C C S G n + @ * - > 4 8 4 3 4 2 1 - 7 j.o.T.{.{.x b./ {.{.{.{.{.-X{.{.{.{.l.; {.=XE.7.:.4.@.$X;X{./ %...n.{.{.{.",
"{.{.{.{.{.{.z.b.w.q.q. .:.4.%.@.' h I G G M ~ S C C S C I 0 O + & - > > : , < , : & 0 c.o.OX{.{., b.M.{.{.{.{.{.{.{.{.{.{.l.; {.=Xh 4.%.=.@.(.=X{.V.%.%. .{.{.{.",
"{.{.{.{.-X=X[ b.w.w.q.=.7.=.%.%.V.!.@.J J G J S S S S S G ..v , * & * ; 3 b > - = # v c.q.# {.{.1 9  .{.{.{.V. . .& {.{.{.o.~.{.#XE.q.,.q.C {.=X{.m.%.%.M =X{.{.",
"{.{.{.{.-X=XV.c.q.q.q.7.4.=.%.%.h [.@.I J G G G G S G G G G ..@.G C N G l.m # % # # %.b.q.J.{.{.d 9 m.{.{.{.O.w.%.x {.{.{.A.2 {.#XE.....M e =X=X(.j...%./ =X{.{.",
"{.{.{.{.-X-X!.l.w.y.q.7.4.4.:.:.!.-XA ..I J J J G G G I v # % % % c 4.=.n $ + @ . 2 b.v.[ {.{.H.Z D x {.-X.Xf.h.b.C.{.{.{.l.K.{.-X/.G.F.J.-X-X=XV.:. . .!.{.{.{.",
"{.{.{.{.-X-X#X1.h.y.q.7.7.4.4.:.P.=X) @.I J I J K K I I J % . . . X % % o o o . # =.l.b._.{.{.4 T D } {.-X;Xf.j.b.( {.{.{.l.s {.{.-X=X=X=X-X-XT.-.o.w.[ {.{.{.{.",
"{.{.{.{.{.{.{.V.h.w.q.q.7.=.4.A .X-XV.=.I I I I K K V./ @.M % . . X . . . . . & I j.j.f.$X#Xo <.o.o.V {.=X.Xf.l.b.V.{.{.{.p.< {.-X}.*X-X.X[.h 7.=.7.K H.{.{.{.{.",
"{.{.{.{.{.{.{.V.h.q.y.q.7.4.4.) -X-Xh ..K ....I K ..!..X@.%.G 9 * @ O O @ ; x 7.h.h.j.[.&X&XI.<.X.o.R D n.n.h.b.b.b.Z.B Y <.o.} f.! ! ' ! =.%.%.4.=.p *X{.{.{.{.",
"{.{.{.{.{.{.{..Xb.b.y.q.q.2.1.V.{.{.!.q.%.%....... .@X;XP...=.q.%.I G I %.w.x.h.l.v.!..X=XE.l.j.X.X.o.o.l.t.t.j.h.e.y.q.q.7.7.7.7.4.4.4.4.=. .+.! p {.{.{.{.{.{.",
"{.{.{.{.{.{.{.{.h.b.h.y.q.2.q.T.{.{.oXv.%.%.%...%.V.-X.X=X[.V.7.=.7.q.h.w.w.h.j.[ P.*X&X!.h.w.q.o.o.o.o.5.q.5.g.h.g.4.7.=.=.%.%.@.@.@.@...J M < J.{.{.{.{.{.{.{.",
"{.{.{.{.{.{.{.{.A.l.q.q.4.7.4._.{.{.*X! %.%.%...7.T.-X-X-X-X-X!.V.[ f.2.f.[ V.!.-X-X&X@Xa s p p p h !.h p p p p p p p p p p p p p p p p e e J.=X{.{.{.{.{.{.{.{.",
"{.{.{.{.{.{.{.{.-X-X=X=X=X=X#X#X{.}.;X=X=X=X=X=X=X-X-X-X-X-X-X=X-X-X-X-X-X-X=X=X-X-X&X&X@X@X=X=X{.{.{.{.{.{.{.{.-X-X-X-X=X=X=X=X=X=X=X=X-X-X=X=X{.{.{.{.{.{.{.{.",
"{.{.{.{.{.{.{.{.=X=X=X=X=X=X=X=X=X=X=X=X=X=X=X=X=X=X=X=X=X=X=X=X-X-X-X-X=X=X=X=X-X-X-X-X=X=X=X=X{.{.{.{.{.{.{.{.=X=X=X=X=X=X=X=X=X=X=X=X=X=X=X=X{.{.{.{.{.{.{.{.",
"{.{.{.{.{.{.{.{.=X=X=X=X=X=X=X=X=X=X=X=X=X=X=X=X=X=X=X=X=X=X=X=X-X-X-X-X=X=X=X=X-X-X-X-X=X=X=X=X{.{.{.{.{.{.{.{.=X=X=X=X=X=X=X=X=X=X=X=X=X=X=X=X{.{.{.{.{.{.{.{.",
"{.{.{.{.{.{.{.{.=X=X=X=X=X=X=X=X=X=X=X=X=X=X=X=X=X=X=X=X=X=X=X=X=X=X-X=X=X=X=X=X=X=X-X-X=X=X=X=X{.{.{.{.{.{.{.{.=X=X=X=X=X=X=X=X=X=X=X=X=X=X=X=X{.{.{.{.{.{.{.{.",
"{.{.{.{.{.{.{.{.=X=X=X=X=X=X=X=X=X=X=X=X=X=X=X=X=X=X=X=X=X=X=X=X=X=X=X=X=X=X=X=X=X=X=X-X=X=X=X=X{.{.{.{.{.{.{.{.=X=X=X=X=X=X=X=X=X=X=X=X=X=X=X=X{.{.{.{.{.{.{.{.",
"=X=X=X=X=X=X=X=X=X=X=X=X=X=X=X=X=X=X=X=X=X=X=X=X=X=X=X=X=X=X=X=X=X=X=X=X=X=X=X=X=X=X=X=X=X=X=X=X=X=X=X=X=X=X=X=X=X=X=X=X=X=X=X=X=X=X=X=X=X=X=X=X=X=X=X=X=X=X=X=X",
"=X=X=X=X=X=X=X=X=X=X=X=X=X=X=X=X=X=X=X=X=X=X=X=X=X=X=X=X=X=X=X=X=X=X=X=X=X=X=X=X=X=X=X=X=X=X=X=X=X=X=X=X=X=X=X=X=X=X=X=X=X=X=X=X=X=X=X=X=X=X=X=X=X=X=X=X=X=X=X=X",
"=X=X=X=X=X=X=X=X=X=X=X=X=X=X=X=X=X=X=X=X=X=X=X=X=X=X=X=X=X=X=X=X=X=X=X=X=X=X=X=X=X=X=X=X=X=X=X=X=X=X=X=X=X=X=X=X=X=X=X=X=X=X=X=X=X=X=X=X=X=X=X=X=X=X=X=X=X=X=X=X",
"=X=X=X=X=X=X=X=X=X=X=X=X=X=X=X=X=X=X=X=X=X=X=X=X=X=X=X=X=X=X=X=X=X=X=X=X=X=X=X=X=X=X=X=X=X=X=X=X=X=X=X=X=X=X=X=X=X=X=X=X=X=X=X=X=X=X=X=X=X=X=X=X=X=X=X=X=X=X=X=X",
"=X=X=X=X=X=X=X=X=X=X=X=X=X=X=X=X=X=X=X=X=X=X=X=X=X=X=X=X=X=X=X=X=X=X=X=X=X=X=X=X=X=X=X=X=X=X=X=X=X=X=X=X=X=X=X=X=X=X=X=X=X=X=X=X=X=X=X=X=X=X=X=X=X=X=X=X=X=X=X=X",
"=X=X=X=X=X=X=X=X=X=X=X=X=X=X=X=X=X=X=X=X=X=X=X=X=X=X=X=X=X=X=X=X=X=X=X=X=X=X=X=X=X=X=X=X=X=X=X=X=X=X=X=X=X=X=X=X=X=X=X=X=X=X=X=X=X=X=X=X=X=X=X=X=X=X=X=X=X=X=X=X",
"=X=X=X=X=X=X=X=X=X=X=X=X=X=X=X=X=X=X=X=X=X=X=X=X=X=X=X=X=X=X=X=X=X=X=X=X=X=X=X=X=X=X=X=X=X=X=X=X=X=X=X=X=X=X=X=X=X=X=X=X=X=X=X=X=X=X=X=X=X=X=X=X=X=X=X=X=X=X=X=X",
"=X=X=X=X=X=X=X=X=X=X=X=X=X=X=X=X=X=X=X=X=X=X=X=X=X=X=X=X=X=X=X=X=X=X=X=X=X=X=X=X=X=X=X=X=X=X=X=X=X=X=X=X=X=X=X=X=X=X=X=X=X=X=X=X=X=X=X=X=X=X=X=X=X=X=X=X=X=X=X=X",
"=X=X=X=X=X=X=X=X=X=X=X=X=X=X=X=X=X=X=X=X=X=X=X=X=X=X=X=X=X=X=X=X=X=X=X=X=X=X=X=X=X=X=X=X=X=X=X=X=X=X=X=X=X=X=X=X=X=X=X=X=X=X=X=X=X=X=X=X=X=X=X=X=X=X=X=X=X=X=X=X",
"=X=X=X=X=X=X=X=X=X=X=X=X=X=X=X=X=X=X=X=X=X=X=X=X=X=X=X=X=X=X=X=X=X=X=X=X=X=X=X=X=X=X=X=X=X=X=X=X=X=X=X=X=X=X=X=X=X=X=X=X=X=X=X=X=X=X=X=X=X=X=X=X=X=X=X=X=X=X=X=X",
"=X=X=X=X=X=X=X=X=X=X=X=X=X=X=X=X=X=X=X=X=X=X=X=X=X=X=X=X=X=X=X=X=X=X=X=X=X=X=X=X=X=X=X=X=X=X=X=X=X=X=X=X=X=X=X=X=X=X=X=X=X=X=X=X=X=X=X=X=X=X=X=X=X=X=X=X=X=X=X=X",
"=X=X=X=X=X=X=X=X=X=X=X=X=X=X=X=X=X=X=X=X=X=X=X=X=X=X=X=X=X=X=X=X=X=X=X=X=X=X=X=X=X=X=X=X=X=X=X=X=X=X=X=X=X=X=X=X=X=X=X=X=X=X=X=X=X=X=X=X=X=X=X=X=X=X=X=X=X=X=X=X",
"=X=X=X=X=X=X=X=X=X=X=X=X=X=X=X=X=X=X=X=X=X=X=X=X=X=X=X=X=X=X=X=X=X=X=X=X=X=X=X=X=X=X=X=X=X=X=X=X=X=X=X=X=X=X=X=X=X=X=X=X=X=X=X=X=X=X=X=X=X=X=X=X=X=X=X=X=X=X=X=X",
"=X=X=X=X=X=X=X=X=X=X=X=X=X=X=X=X=X=X=X=X=X=X=X=X=X=X=X=X=X=X=X=X=X=X=X=X=X=X=X=X=X=X=X=X=X=X=X=X=X=X=X=X=X=X=X=X=X=X=X=X=X=X=X=X=X=X=X=X=X=X=X=X=X=X=X=X=X=X=X=X",
"=X=X=X=X=X=X=X=X=X=X=X=X=X=X=X=X=X=X=X=X=X=X=X=X=X=X=X=X=X=X=X=X=X=X=X=X=X=X=X=X=X=X=X=X=X=X=X=X=X=X=X=X=X=X=X=X=X=X=X=X=X=X=X=X=X=X=X=X=X=X=X=X=X=X=X=X=X=X=X=X",
"=X=X=X=X=X=X=X=X=X=X=X=X=X=X=X=X=X=X=X=X=X=X=X=X=X=X=X=X=X=X=X=X=X=X=X=X=X=X=X=X=X=X=X=X=X=X=X=X=X=X=X=X=X=X=X=X=X=X=X=X=X=X=X=X=X=X=X=X=X=X=X=X=X=X=X=X=X=X=X=X",
"=X=X=X=X=X=X=X=X=X=X=X=X=X=X=X=X=X=X=X=X=X=X=X=X=X=X=X=X=X=X=X=X=X=X=X=X=X=X=X=X=X=X=X=X=X=X=X=X=X=X=X=X=X=X=X=X=X=X=X=X=X=X=X=X=X=X=X=X=X=X=X=X=X=X=X=X=X=X=X=X",
"=X=X=X=X=X=X=X=X=X=X=X=X=X=X=X=X=X=X=X=X=X=X=X=X=X=X=X=X=X=X=X=X=X=X=X=X=X=X=X=X=X=X=X=X=X=X=X=X=X=X=X=X=X=X=X=X=X=X=X=X=X=X=X=X=X=X=X=X=X=X=X=X=X=X=X=X=X=X=X=X",
"=X=X=X=X=X=X=X=X=X=X=X=X=X=X=X=X=X=X=X=X=X=X=X=X=X=X=X=X=X=X=X=X=X=X=X=X=X=X=X=X=X=X=X=X=X=X=X=X=X=X=X=X=X=X=X=X=X=X=X=X=X=X=X=X=X=X=X=X=X=X=X=X=X=X=X=X=X=X=X=X",
"=X=X=X=X=X=X=X=X=X=X=X=X=X=X=X=X=X=X=X=X=X=X=X=X=X=X=X=X=X=X=X=X=X=X=X=X=X=X=X=X=X=X=X=X=X=X=X=X=X=X=X=X=X=X=X=X=X=X=X=X=X=X=X=X=X=X=X=X=X=X=X=X=X=X=X=X=X=X=X=X",
"=X=X=X=X=X=X=X=X=X=X=X=X=X=X=X=X=X=X=X=X=X=X=X=X=X=X=X=X=X=X=X=X=X=X=X=X=X=X=X=X=X=X=X=X=X=X=X=X=X=X=X=X=X=X=X=X=X=X=X=X=X=X=X=X=X=X=X=X=X=X=X=X=X=X=X=X=X=X=X=X",
"=X=X=X=X=X=X=X=X=X=X=X=X=X=X=X=X=X=X=X=X=X=X=X=X=X=X=X=X=X=X=X=X=X=X=X=X=X=X=X=X=X=X=X=X=X=X=X=X=X=X=X=X=X=X=X=X=X=X=X=X=X=X=X=X=X=X=X=X=X=X=X=X=X=X=X=X=X=X=X=X",
"=X=X=X=X=X=X=X=X=X=X=X=X=X=X=X=X=X=X=X=X=X=X=X=X=X=X=X=X=X=X=X=X=X=X=X=X=X=X=X=X=X=X=X=X=X=X=X=X=X=X=X=X=X=X=X=X=X=X=X=X=X=X=X=X=X=X=X=X=X=X=X=X=X=X=X=X=X=X=X=X",
"=X=X=X=X=X=X=X=X=X=X=X=X=X=X=X=X=X=X=X=X=X=X=X=X=X=X=X=X=X=X=X=X=X=X=X=X=X=X=X=X=X=X=X=X=X=X=X=X=X=X=X=X=X=X=X=X=X=X=X=X=X=X=X=X=X=X=X=X=X=X=X=X=X=X=X=X=X=X=X=X"
};
