/* XPM */
static char *xpm_[] = {
/* columns rows colors chars-per-pixel */
"80 80 50 1 ",
"  c #034B7A",
". c #034B7A",
"X c #034B7A",
"o c #034B7A",
"O c #034B7A",
"+ c #034B7A",
"@ c #034B7A",
"# c #034B7A",
"$ c #D40055",
"% c #D30055",
"& c #034B7A",
"* c #034B7A",
"= c #034B7A",
"- c #034B7A",
"; c #034B7A",
": c #034B7A",
"> c #D40055",
", c #D40055",
"< c #D40055",
"1 c #D30055",
"2 c #D40055",
"3 c #D40055",
"4 c #D40055",
"5 c #D40055",
"6 c #D40055",
"7 c #D40055",
"8 c #D40055",
"9 c #D40055",
"0 c #034B7A",
"q c #034B7A",
"w c #034B7A",
"e c #034B7A",
"r c #034B7A",
"t c #D40055",
"y c #034B7A",
"u c #034B7A",
"i c #D40055",
"p c #D40055",
"a c #D40055",
"s c #034B7A",
"d c #034C7B",
"f c #034B7A",
"g c #CD0356",
"h c #034B7A",
"j c #D40055",
"k c #D40055",
"l c #D40055",
"z c #034B7A",
"x c #D40055",
"c c None",
/* pixels */
"cccccccccccccccccccccccccccccccccccccccccccccccccccccccccccccccccccccccccccccccc",
"cccccccccccccccccccccccccccccccccccccccccccccccccccccccccccccccccccccccccccccccc",
"cccccccccccccccccccccccccccccccccccccccccccccccccccccccccccccccccccccccccccccccc",
"cccccccccccccccccccccccccccccccccccccccccccccccccccccccccccccccccccccccccccccccc",
"cccccccccccccccccccccccccccccccccccccccccccccccccccccccccccccccccccccccccccccccc",
"cccccccccccccccccccccccccccccccccccccccccccccccccccccccccccccccccccccccccccccccc",
"cccccccccccccccccccccccccccccccccccccccccccccccccccccccccccccccccccccccccccccccc",
"cccccccccccccccccccccccccccccccccccccccccccccccccccccccccccccccccccccccccccccccc",
"cccccccccccccccccccccccccccccccccccccccccccccccccccccccccccccccccccccccccccccccc",
"cccccccccccccccccccccccccccccccccccccccccccccccccccccccccccccccccccccccccccccccc",
"cccccccccccccccccccccccccccccccccccccccccccccccccccccccccccccccccccccccccccccccc",
"cccccccccccccccccccccccccccccccccccccccccccccccccccccccccccccccccccccccccccccccc",
"cccccccccccccccccccccccccccccccccccccccccccccccccccccccccccccccccccccccccccccccc",
"cccccccccccccccccccccccccccccccccccccccccccccccccccccccccccccccccccccccccccccccc",
"cccccccccccccccccccccccccccccccccccccccccccccccccccccccccccccccccccccccccccccccc",
"cccccccccccccccccccccccccccccccccccccccccccccccccccccccccccccccccccccccccccccccc",
"cccccccccccccccccccccccccccccccccccccccccccccccccccccccccccccccccccccccccccccccc",
"cccccccccccccccccccccccccccccccccccccccccccccccccccccccccccccccccccccccccccccccc",
"cccccccccccccccccccccccccccccccccccccccccccccccccccccccccccccccccccccccccccccccc",
"cccccccccccccccccccccccccccccccccccccccccccccccccccccccccccccccccccccccccccccccc",
"cccccccccccccccccccccccccccccccccccccccccccccccccccccccccccccccccccccccccccccccc",
"cccccccccccccccccccccccccccccccccccccccccccccccccccccccccccccccccccccccccccccccc",
"cccccccccccccccccccccccccccccccccccccccccccccccccccccccccccccccccccccccccccccccc",
"cccccccccccccccccccccccccccccccccccccccccccccccccccccccccccccccccccccccccccccccc",
"cccccccccccccccccccccccccccccccccccccccccccccccccccccccccccccccccccccccccccccccc",
"cccccccccccccccccccccccccccccccccccccccccccccccccccccccccccccccccccccccccccccccc",
"cccccccccccccccccccccccccccccccccccccccccccccccccccccccccccccc>33333333333333ccc",
"cccccccccccccccccccccccccccccccccccccccccccccccccccccccccccccl333333333333337ccc",
"ccccccccccccccccccccccccccccccccccccccccccccccccccccccccccccc%33333333333333accc",
"ccccccccccccccccccccccccccccccccccccccccccccccccccccccccccccc133333333333333xccc",
"ccccccccccccccccccccccccccccccccccccccccccccccccccccccccccccc233333333333337cccc",
"cccccccccccccccccccccccccccccccccccccccccccccccccccccccccccca33333333333333acccc",
"ccc*X&@;zccz&X Ooscccu@@       . :rzcccc#@&  &.&-#sccccccczc933333333333333xcccc",
"cccooooohccrooooo.cccOoooooooooooooo@zcc@ooooooooooozccccccz333333333333333ccccc",
"ccc0ooooqcceoooooOcczooooooooooooooooorcXooooooooooooccccccl33333333333333$ccccc",
"ccccoooo cc-oooooozcuooooOoooooo+ooooooz&oooo#;-ooooo0ccccct33333333333333kccccc",
"ccccoooooccooooooozcwoooo:oooofccz@oooo;;ooo;ccczoooo#ccccc633333333333333xccccc",
"cccc*ooooccooooooo0coooo&soooohccccooooooooo-ccccoooo;ccccc333333333333331cccccc",
"ccccdooooshooo*ooo-coooo-uoooohcczc#oooooooo=cccfoooo0ccccj33333333333333pcccccc",
"cccczoooo#qooohoooohoooossoooohccccdooooooooo.&@oooooccccci33333333333333gcccccc",
"ccccc+ooo&-oooz ooOuoooozuoooohccccyoooooooooooooooosccccc>33333333333333ccccccc",
"ccccc#oooooooOc#ooo+ooooc0oooohcccc#ooooooooooooooozcccccg333333333333337ccccccc",
"cccccfooooooo*csoooooooqcqoooofcccc+ooooooooo#ooooouccccca33333333333333tccccccc",
"ccccccooooooohccoooooooscyoooozcccuoooo+ ooo#ccXoooofcccc133333333333333gccccccc",
"cccccc.oooooofccOoooooocc0oooowr#@oooooh-ooo:cczoooo@cccc333333333333333cccccccc",
"ccccccyooooooccc0oooooocc0oooooooooooo#c@ooo;cccuoooosccx33333333333333$cxcccccc",
"ccccccfooooo-cccsoooooyccyooooooooooo:cc ooo=ccccoooooccp33333333333333lcccccccc",
"cccccccooooo0ccczooooohccyooooooooO#zccc@ooo&cccchoooo;c<33333333333333xcccccccc",
"cccccccfruruzccccsuuuuzcczuuuuurdfccccccdurufccccchruurg33333333333333,ccccccccc",
"ccccccccccccccccccccccccccccccccccccccccccccccccccccccct33333333333333accccccccc",
"ccccccccczcccccccccccccccccczcccccccccccczccccccccczccc%33333333333333xccccccccc",
"ccccccccccccccccccccccccccccccccccccccccccccccccccccccc333333333333331cccccccccc",
"ccccccccccccccccccccccccccccccccccccccccccccccccccccccl33333333333333$cccccccccc",
"cccccccccccccccccccccccccccccccccccccccccccccccccccccca33333333333333gcccccccccc",
"cccccccccccccccccccccccccccccccccccccccccccccccccccccc132333333333333ccccccccccc",
"cccccccccccccccccccccccccccccccccccccccccccccccccccccccccccccccccccccccccccccccc",
"cccccccccccccccccccccccccccccccccccccccccccccccccccccccccccccccccccccccccccccccc",
"cccccccccccccccccccccccccccccccccccccccccccccccccccccccccccccccccccccccccccccccc",
"cccccccccccccccccccccccccccccccccccccccccccccccccccccccccccccccccccccccccccccccc",
"cccccccccccccccccccccccccccccccccccccccccccccccccccccccccccccccccccccccccccccccc",
"cccccccccccccccccccccccccccccccccccccccccccccccccccccccccccccccccccccccccccccccc",
"cccccccccccccccccccccccccccccccccccccccccccccccccccccccccccccccccccccccccccccccc",
"cccccccccccccccccccccccccccccccccccccccccccccccccccccccccccccccccccccccccccccccc",
"cccccccccccccccccccccccccccccccccccccccccccccccccccccccccccccccccccccccccccccccc",
"cccccccccccccccccccccccccccccccccccccccccccccccccccccccccccccccccccccccccccccccc",
"cccccccccccccccccccccccccccccccccccccccccccccccccccccccccccccccccccccccccccccccc",
"cccccccccccccccccccccccccccccccccccccccccccccccccccccccccccccccccccccccccccccccc",
"cccccccccccccccccccccccccccccccccccccccccccccccccccccccccccccccccccccccccccccccc",
"cccccccccccccccccccccccccccccccccccccccccccccccccccccccccccccccccccccccccccccccc",
"cccccccccccccccccccccccccccccccccccccccccccccccccccccccccccccccccccccccccccccccc",
"cccccccccccccccccccccccccccccccccccccccccccccccccccccccccccccccccccccccccccccccc",
"cccccccccccccccccccccccccccccccccccccccccccccccccccccccccccccccccccccccccccccccc",
"cccccccccccccccccccccccccccccccccccccccccccccccccccccccccccccccccccccccccccccccc",
"cccccccccccccccccccccccccccccccccccccccccccccccccccccccccccccccccccccccccccccccc",
"cccccccccccccccccccccccccccccccccccccccccccccccccccccccccccccccccccccccccccccccc",
"cccccccccccccccccccccccccccccccccccccccccccccccccccccccccccccccccccccccccccccccc",
"cccccccccccccccccccccccccccccccccccccccccccccccccccccccccccccccccccccccccccccccc",
"cccccccccccccccccccccccccccccccccccccccccccccccccccccccccccccccccccccccccccccccc",
"cccccccccccccccccccccccccccccccccccccccccccccccccccccccccccccccccccccccccccccccc",
"cccccccccccccccccccccccccccccccccccccccccccccccccccccccccccccccccccccccccccccccc"
};
