/* XPM */
static char *xpm_[] = {
/* columns rows colors chars-per-pixel */
"80 80 60 1 ",
"  c #000000",
". c #000000",
"X c #333333",
"o c #333333",
"O c #000000",
"+ c #000000",
"@ c #333333",
"# c #333333",
"$ c #000000",
"% c #000000",
"& c #333333",
"* c #333333",
"= c #000000",
"- c #333333",
"; c #000000",
": c #333333",
"> c #333333",
", c #FA7D19",
"< c #FA7D19",
"1 c #FA7D19",
"2 c #FA7D19",
"3 c #FA7D19",
"4 c #FA7D19",
"5 c #FA7D19",
"6 c #FA7D19",
"7 c #FA7D19",
"8 c #FA7D19",
"9 c #FA7D19",
"0 c #FA7D19",
"q c #FA7D19",
"w c #FA7D19",
"e c #FA7D19",
"r c #FA7D19",
"t c #FA7D19",
"y c #000000",
"u c #333333",
"i c #000000",
"p c #333333",
"a c #000000",
"s c #333333",
"d c #161616",
"f c #333333",
"g c #FA7D19",
"h c #FA7D19",
"j c #FA7D19",
"k c #FA7D19",
"l c #FA7D19",
"z c #FA7D19",
"x c #FA7D19",
"c c #FA7D19",
"v c #FA7D19",
"b c #1E1E1E",
"n c #0F0F0F",
"m c #FA7D19",
"M c #FA7D19",
"N c #FA7D19",
"B c #FA7D19",
"V c #070707",
"C c #FA7D19",
"Z c None",
/* pixels */
"ZZZZZZZZZZZZZZZZZZZZZZZZZZZZZZZZZZZZZZZZZZZZZZZZZZZZZZZZZZZZZZZZaaaaaaaaaaaaaaaa",
"ZZZZZZZZZZZZZZZZZZZZZZZZZZZZZZZZZZZZZZZZZZZZZZZZZZZZZZZZZZZZZZZZaaaaaaaaaaaaaaaa",
"ZZZZZZZZZZZZZZZZZZZZZZZZZZZZZZZZZZZZZZZZZZZZZZZZZZZZZZZZZZZZZZZZaaaaaaaaaaaaaaaa",
"ZZZZZZZZZZZZZZZZZZZZZZZZZZZZZZZZZZZZZZZZZZZZZZZZZZZZZZZZZZZZZZZZaaaaaaaaaaaaaaaa",
"ZZZZZZZZZZZZZZZZZZZZZZZZZZZZZZZZZZZZZZZZZZZZZZZZZZZZZZZZZZZZZZZZaaaaaaaaaaaaaaaa",
"ZZZZZZZZZZZZZZZZZZZZZZZZZZZZZZZZZZZZZZZZZZZZZZZZZZZZZZZZZZZZZZZZaaaaaaaaaaaaaaaa",
"ZZZZZZZZZZZZZZZZZZZZZZZZZZZZZZZZZZZZZZZZZZZZZZZZZZZZZZZZZZZZZZZZaaaaaaaaaaaaaaaa",
"ZZZZZZZZZZZZZZZZZZZZZZZZZZZZZZZZZZZZZZZZZZZZZZZZZZZZZZZZZZZZZZZZaaaaaaaaaaaaaaaa",
"ZZZZZZZZZZZZZZZZZZZZZZZZZZZZZZZZZZZZZZZZZZZZZZZZZZZZZZZZZZZZZZZZaaaaaaaaaaaaaaaa",
"ZZZZZZZZZZZZZZZZZZZZZZZZZZZZZZZZZZZZZZZZZZZZZZZZZZZZZZZZZZZZZZZZaaaaaaaaaaaaaaaa",
"ZZZZZZZZZZZZZZZZZZZZZZZZZZZZZZZZZZZZZZZZZZZZZZZZZZZZZZZZZZZZZZZZaaaaaaaaaaaaaaaa",
"ZZZZZZZZZZZZZZZZZZZZZZZZZZZZZZZZZZZZZZZZZZZZZZZZZZZZZZZZZZZZZZZZaaaaaaaaaaaaaaaa",
"ZZZZZZZZZZZZZZZZZZZZZZZZZZZZZZZZZZZZZZZZZZZZZZZZZZZZZZZZZZZZZZZZaaaaaaaaaaaaaaaa",
"ZZZZZZZZZZZZZZZZZZZZZZZZZZZZZZZZZZZZZZZZZZZZZZZZZZZZZZZZZZZZZZZZaaaaaaaaaaaaaaaa",
"ZZZZZZZZZZZZZZZZZZZZZZZZZZZZZZZZZZZZZZZZZZZZZZZZZZZZZZZZZZZZZZZZaaaaaaaaaaaaaaaa",
"ZZZZZZZZZZZZZZZZZZZZZZZZZZZZZZZZZZZZZZZZZZZZZZZZZZZZZZZZZZZZZZZZaaaaaaaaaaaaaaaa",
"ZZZZZZZZZZZZZZZZZZZZZZZZZZZZZZZZZZZZZZZZZZZZZZZZZZZZZZZZZZZZZZZZaaaaaaaaaaaaaaaa",
"ZZZZZZZZZZZZZZZZZZZZZZZZZZZZZZZZZZZZZZZZZZZZZZZZZZZZZZZZZZZZZZZZaaaaaaaaaaaaaaaa",
"ZZZZZZZZZZZZZZZZZZZZZZZZZZZZZZZZZZZZZZZZZZZZZZZZZZZZZZZZZZZZZZZZaaaaaaaaaaaaaaaa",
"ZZZZZZZZZZZZZZZZZZZZZZZZZZZZZZZZZZZZZZZZZZZZZZZZZZZZZZZZZZZZZZZZaaaaaaaaaaaaaaaa",
"ZZZZZZZZZZZZZZZZZZZZZZZZZZZZZZZZZZZZZZZZZZZZZZZZZZZZZZZZZZZZZZZZaaaaaaaaaaaaaaaa",
"ZZZZZZZZZZZZZZZZZZZZZZZZZZZZZZZZZZZZZZZZZZZZZZZZZZZZZZZZZZZZZZZZaaaaaaaaaaaaaaaa",
"ZZZZZZZZZZZZZZZZZZZZZZZZZZZZZZZZZZZZZZZZZZZZZZZZZZZZZZZZZZZZZZZZaaaaaaaaaaaaaaaa",
"ZZZZZZZZZZZZZZZZZZZZZZZZZZZZZZZZZZZZZZZZZZZZZZZZZZZZZZZZZZZZZZZZaaaaaaaaaaaaaaaa",
"ZZZZZZZZZZZZZZZZZZZZZZZZZZZZZZZZZZZZZZZZZZZZZZZZZZZZZZZZZZZZZZZZaaaaaaaaaaaaaaaa",
"ZZZZZZZZZZZZZZZZZZZZZZZZZZZZZZZZZZZZZZZZZZZZZZZZZZZZZZZZZZZZZZZZaaaaaaaaaaaaaaaa",
"ZZZZZZZZZZZZZZZZZZZZZZZZZZZZZZZZZZZZZZZZZZZZZZZZZZZZZZZZZZZZZZZZaaaaaaaaaaaaaaaa",
"ZZZZZZZZZZZZZZZZZZZZZZZZZZZZZZZZZZZZZZZZZZZZZZZZZZZZZZZZZZZZZZZZaaaaaaaaaaaaaaaa",
"ZZZZZZZZZZZZZZZZZZZZZZZZZZZZZZZZZZZZZZZZZZZZZZZZZZZZZZZZZZZZZZZZaaaaaaaaaaaaaaaa",
"ZZZZZZZZZZZZZZZZZZZZZZZZZZZZZZZZZZZZZZZZZZZZZZZZZZZZZZZZZZZZZZZZaaaaaaaaaaaaaaaa",
"ZZZZZZZZZZZZZZZZZZZZZZZZZZZZZZZZZZZZZZZZZZZZZZZZZZZZZZZZZZZZZZZZaaaaaaaaaaaaaaaa",
"ZZZZZZZZZZZZZZZZZZZZZZZZZZZZZZZZZZZZZZZZZZZZZZZZZZZZZZZZZZZZZZZZaaaaaaaaaaaaaaaa",
"aaaaaaaaaaaaaaaaaaaaaaanvCaaaaaaZZZZZZZZZZZZZZZZZZZZZZZZZZZZZZZZaaaaaaaaaaaaaaaa",
"aaaaaaaaaaaaaaaaa46Caaz333jaaaaaZZZZZZZZZZZZZZZZZZZZZZZZZZZZZZZZaaaaaaaaaaaaaaaa",
"aaaaaaaaaaaaaaaaa53@aa3333MaaaaaZZZZZZZZZZZZZZZZZZZZZZZZZZZZZZZZaaaaaaaaaaaaaaaa",
"aaaaaaaaaaaaaaaab43gam33uaaaaaaaZZZZZZZZZZZZZZZZZZZZZZZZZZZZZZZZaaaaaaaaaaaaaaaa",
"aaaaaaaaaaaaa+aa&33>a#73naaaaaaannZZnaaZZZZnaanZZZZZaaaZZZZZZninaaa:aaaaaaaaaaaa",
"aaaa3352,2Xar304743mk343<4naaaaaO.%O...OZZ%....%ZZy.....iZZZZ#X:aad7XXXXXXXaaaaa",
"aaaa7<4332mN3327333#133325maaaaaO.......n;......yn......+iZVV>X:aaaX*pXXXXXXaaaa",
"aaaaaaa,32uw32fao33mft33xaaaaaaaO..OyO..iO..ZZ..=;..;Zy.+;ZZZ>XsaaaX&@X-aaXXaaaa",
"aaaaaaXr3ca034aaa73xnc33aaaaaaaaO..ZZa..yO..;;..%%..ZZn.++ZZZ>X&aaXX-pXfaaXXaaaa",
"aaaaad26taae34aaC23xaN33aaaaaaaa$..nZi..iO......O%..nZn.++ZVZ>XXXXXX#@X&aaXXaaaa",
"aaaaa334aaa,36aam33BaB33aaaaaaaaO..ZZy..iO..;;=%a=..nZZ.++nZZ*X@u:XX-oXfaaXXaaaa",
"aaaa833faaa,32aa033oaX33aaaaaaaaO..ZZy..aO..ZZZZZ;..iZi.++VZZ>XfaaaX#fXaaa95aaaa",
"aaab3320,<jx3341333cac33NdaaZZZZO..ZZy..ay...O..in......#dZZZ-XpaanXXfXXfXXXaaaa",
"aaad3333474a6336r33BaB33BnaaZZZVO..ZZy..aZO.....;Z=.....%ZZVZ&X:aa:X#oXXXXXuaaaa",
"aaaaaasfaaaaafbaaaaaaasCnl77e77vnanZZZaaZZZayyanZZZnayaaZZZZVb:baaauaapfunaaaaaa",
"aaaaaaaaaaaaaaaaaaaaaaaanvvvzvzBZZZZZZZZZZZZZZZZZZZZZZZZZZZZZZZVaaaaaaaaaaaaaaaa",
"aaaaaaaaaaaaaaaaZZZZZZZZZZZZZZZZZZZZZZZZZZZZZZZZZZZZZZZZZZZZZZZZaaaaaaaaaaaaaaaa",
"aaaaaaaaaaaaaaaaZZZZZZZZZZZZZZZZZZZZZZZZZZZZZZZZZZZZZZZZZZZZZZZZaaaaaaaaaaaaaaaa",
"aaaaaaaaaaaaaaaaZZZZZZZZZZZZZZZZZZZZZZZZZZZZZZZZZZZZZZZZZZZZZZZZaaaaaaaaaaaaaaaa",
"aaaaaaaaaaaaaaaaZZZZZZZZZZZZZZZZZZZZZZZZZZZZZZZZZZZZZZZZZZZZZZZZaaaaaaaaaaaaaaaa",
"aaaaaaaaaaaaaaaaZZZZZZZZZZZZZZZZZZZZZZZZZZZZZZZZZZZZZZZZZZZZZZZZaaaaaaaaaaaaaaaa",
"aaaaaaaaaaaaaaaaZZZZZZZZZZZZZZZZZZZZZZZZZZZZZZZZZZZZZZZZZZZZZZZZaaaaaaaaaaaaaaaa",
"aaaaaaaaaaaaaaaaZZZZZZZZZZZZZZZZZZZZZZZZZZZZZZZZZZZZZZZZZZZZZZZZaaaaaaaaaaaaaaaa",
"aaaaaaaaaaaaaaaaZZZZZZZZZZZZZZZZZZZZZZZZZZZZZZZZZZZZZZZZZZZZZZZZaaaaaaaaaaaaaaaa",
"aaaaaaaaaaaaaaaaZZZZZZZZZZZZZZZZZZZZZZZZZZZZZZZZZZZZZZZZZZZZZZZZaaaaaaaaaaaaaaaa",
"aaaaaaaaaaaaaaaaZZZZZZZZZZZZZZZZZZZZZZZZZZZZZZZZZZZZZZZZZZZZZZZZaaaaaaaaaaaaaaaa",
"aaaaaaaaaaaaaaaaZZZZZZZZZZZZZZZZZZZZZZZZZZZZZZZZZZZZZZZZZZZZZZZZaaaaaaaaaaaaaaaa",
"aaaaaaaaaaaaaaaaZZZZZZZZZZZZZZZZZZZZZZZZZZZZZZZZZZZZZZZZZZZZZZZZaaaaaaaaaaaaaaaa",
"aaaaaaaaaaaaaaaaZZZZZZZZZZZZZZZZZZZZZZZZZZZZZZZZZZZZZZZZZZZZZZZZaaaaaaaaaaaaaaaa",
"aaaaaaaaaaaaaaaaZZZZZZZZZZZZZZZZZZZZZZZZZZZZZZZZZZZZZZZZZZZZZZZZaaaaaaaaaaaaaaaa",
"aaaaaaaaaaaaaaaaZZZZZZZZZZZZZZZZZZZZZZZZZZZZZZZZZZZZZZZZZZZZZZZZaaaaaaaaaaaaaaaa",
"aaaaaaaaaaaaaaaaZZZZZZZZZZZZZZZZZZZZZZZZZZZZZZZZZZZZZZZZZZZZZZZZaaaaaaaaaaaaaaaa",
"aaaaaaaaaaaaaaaaaaaaaaaaaaaaaaaaaaaaaaaaaaaaaaaaaaaaaaaaaaaaaaaaaaaaaaaaaaaaaaaa",
"aaaaaaaaaaaaaaaaaaaaaaaaaaaaaaaaaaaaaaaaaaaaaaaaaaaaaaaaaaaaaaaaaaaaaaaaaaaaaaaa",
"aaaaaaaaaaaaaaaaaaaaaaaaaaaaaaaaaaaaaaaaaaaaaaaaaaaaaaaaaaaaaaaaaaaaaaaaaaaaaaaa",
"aaaaaaaaaaaaaaaaaaaaaaaaaaaaaaaaaaaaaaaaaaaaaaaaaaaaaaaaaaaaaaaaaaaaaaaaaaaaaaaa",
"aaaaaaaaaaaaaaaaaaaaaaaaaaaaaaaaaaaaaaaaaaaaaaaaaaaaaaaaaaaaaaaaaaaaaaaaaaaaaaaa",
"aaaaaaaaaaaaaaaaaaaaaaaaaaaaaaaaaaaaaaaaaaaaaaaaaaaaaaaaaaaaaaaaaaaaaaaaaaaaaaaa",
"aaaaaaaaaaaaaaaaaaaaaaaaaaaaaaaaaaaaaaaaaaaaaaaaaaaaaaaaaaaaaaaaaaaaaaaaaaaaaaaa",
"aaaaaaaaaaaaaaaaaaaaaaaaaaaaaaaaaaaaaaaaaaaaaaaaaaaaaaaaaaaaaaaaaaaaaaaaaaaaaaaa",
"aaaaaaaaaaaaaaaaaaaaaaaaaaaaaaaaaaaaaaaaaaaaaaaaaaaaaaaaaaaaaaaaaaaaaaaaaaaaaaaa",
"aaaaaaaaaaaaaaaaaaaaaaaaaaaaaaaaaaaaaaaaaaaaaaaaaaaaaaaaaaaaaaaaaaaaaaaaaaaaaaaa",
"aaaaaaaaaaaaaaaaaaaaaaaaaaaaaaaaaaaaaaaaaaaaaaaaaaaaaaaaaaaaaaaaaaaaaaaaaaaaaaaa",
"aaaaaaaaaaaaaaaaaaaaaaaaaaaaaaaaaaaaaaaaaaaaaaaaaaaaaaaaaaaaaaaaaaaaaaaaaaaaaaaa",
"aaaaaaaaaaaaaaaaaaaaaaaaaaaaaaaaaaaaaaaaaaaaaaaaaaaaaaaaaaaaaaaaaaaaaaaaaaaaaaaa",
"aaaaaaaaaaaaaaaaaaaaaaaaaaaaaaaaaaaaaaaaaaaaaaaaaaaaaaaaaaaaaaaaaaaaaaaaaaaaaaaa",
"aaaaaaaaaaaaaaaaaaaaaaaaaaaaaaaaaaaaaaaaaaaaaaaaaaaaaaaaaaaaaaaaaaaaaaaaaaaaaaaa",
"aaaaaaaaaaaaaaaaaaaaaaaaaaaaaaaaaaaaaaaaaaaaaaaaaaaaaaaaaaaaaaaaaaaaaaaaaaaaaaaa"
};
